<!-- Generated by IcoMoon.io -->
<svg version="1.1" xmlns="http://www.w3.org/2000/svg" width="32" height="32" viewBox="0 0 32 32">
<title>action-camera</title>
<path d="M24.539 0.096h-17.067c-3.778 0-6.84 3.062-6.84 6.84v17.099c0 3.778 3.062 6.84 6.84 6.84h17.099c3.778 0 6.84-3.062 6.84-6.84v-17.067c0-3.778-3.094-6.872-6.872-6.872zM28.61 24.687c0 1.889-1.531 3.42-3.42 3.42h-18.37c-1.889 0-3.42-1.531-3.42-3.42v-18.37c0-1.889 1.531-3.42 3.42-3.42h18.37c1.889 0 3.42 1.531 3.42 3.42v18.37zM24.571 5.6h-17.132c-0.749 0-1.335 0.586-1.335 1.335v17.132c0 0.749 0.586 1.335 1.335 1.335h17.132c0.749 0 1.335-0.586 1.335-1.335v-17.132c0-0.717-0.619-1.335-1.335-1.335zM16.094 21.508c-3.343 0-6.054-2.71-6.054-6.054s2.71-6.054 6.054-6.054c3.343 0 6.054 2.71 6.054 6.054s-2.71 6.054-6.054 6.054zM20.225 15.455c0 2.334-1.892 4.225-4.225 4.225s-4.225-1.892-4.225-4.225c0-2.334 1.892-4.225 4.225-4.225s4.225 1.892 4.225 4.225z"></path>
</svg>
