<!-- Generated by IcoMoon.io -->
<svg version="1.1" xmlns="http://www.w3.org/2000/svg" width="32" height="32" viewBox="0 0 32 32">
<title>background-fill</title>
<path d="M19.215 14.965l-3.183-3.183-5.039 4.884c-0.169 0.172-0.238 0.377-0.209 0.577h10.437c0-0.173-0.074-0.345-0.221-0.492l-1.786-1.786zM23.814 2.080h-15.687l-7.843 13.374 7.843 13.374h15.687l7.843-13.374-7.843-13.374zM22.516 19.251l-4.553 4.553c-0.498 0.498-1.168 0.772-1.886 0.772-0.76 0-1.485-0.306-2.040-0.861l-4.553-4.553c-0.548-0.548-0.85-1.261-0.85-2.008s0.302-1.46 0.85-2.008l0.012-0.012 5.022-4.867-2.355-2.355 1.515-1.515 8.839 8.839c0.548 0.548 0.849 1.261 0.849 2.008s-0.302 1.46-0.849 2.008z"></path>
</svg>
