<!-- Generated by IcoMoon.io -->
<svg version="1.1" xmlns="http://www.w3.org/2000/svg" width="32" height="32" viewBox="0 0 32 32">
<title>brush</title>
<path d="M11.555 15.058c0.329-2.739 3.458-6.287 6.334-6.578 0 0-7.245-7.228-7.267-7.221-1.484-1.484-2.104-1.431-3.489 0.115l-2.816 3.121c-1.347 1.491-1.293 2.065 0.099 3.465l7.138 7.098zM17.921 11.272c-1.033 0.229-3.451 2.24-3.81 4.405-1.4 5.431 4.498 10.625 8.79 10.319 3.505-0.49 3.994 4.092 4.155 4.781 1.576-4.529 1.943-6.455 1.056-10.648-0.772-3.657-4.368-10.733-10.19-8.858z"></path>
</svg>
