<!-- Generated by IcoMoon.io -->
<svg version="1.1" xmlns="http://www.w3.org/2000/svg" width="32" height="32" viewBox="0 0 32 32">
<title>buffer</title>
<path d="M31.143 13.382l-5.777-10.006c-0.327-0.567-0.875-1.091-1.541-1.476s-1.394-0.597-2.049-0.597h-11.554c-0.654 0-1.382 0.212-2.049 0.597s-1.214 0.909-1.541 1.476l-5.777 10.006c-0.327 0.567-0.507 1.303-0.507 2.073s0.18 1.506 0.507 2.073l5.777 10.006c0.327 0.567 0.875 1.091 1.541 1.476s1.394 0.597 2.049 0.597h11.554c0.654 0 1.382-0.212 2.049-0.597s1.214-0.909 1.541-1.476l5.777-10.006c0.327-0.567 0.507-1.303 0.507-2.073s-0.18-1.506-0.507-2.073zM29.535 16.599l-5.777 10.006c-0.346 0.599-1.29 1.144-1.981 1.144h-11.554c-0.691 0-1.636-0.545-1.982-1.144l-5.777-10.006c-0.346-0.599-0.346-1.689 0-2.288l5.777-10.006c0.346-0.599 1.29-1.144 1.982-1.144h11.554c0.691 0 1.636 0.545 1.981 1.144l5.777 10.006c0.346 0.599 0.346 1.689-0 2.288zM11.278 7.244l-4.74 8.21 4.74 8.21h9.48l4.74-8.21-4.74-8.21z"></path>
</svg>
