<!-- Generated by IcoMoon.io -->
<svg version="1.1" xmlns="http://www.w3.org/2000/svg" width="32" height="32" viewBox="0 0 32 32">
<title>camera</title>
<path d="M20.953 17.111c0 2.75-2.229 4.979-4.979 4.979s-4.979-2.229-4.979-4.979c0-2.75 2.229-4.979 4.979-4.979s4.979 2.229 4.979 4.979zM30.051 6.3h-7.789c0.001-0.020 0.002-0.041 0.002-0.061v-1.422c0-1.034-1.275-1.872-2.845-1.872h-6.893c-1.57 0-2.844 0.838-2.844 1.872v1.422c0 0.020 0.001 0.041 0.002 0.061h-7.789c-1.034 0-1.872 0.838-1.872 1.872v17.877c0 1.034 0.838 1.872 1.872 1.872h28.155c1.034 0 1.872-0.838 1.872-1.872v-17.877c0-1.034-0.838-1.872-1.871-1.872zM15.974 23.582c-3.573 0-6.471-2.898-6.471-6.471s2.897-6.47 6.471-6.47 6.47 2.897 6.47 6.47c-0 3.573-2.897 6.471-6.47 6.471z"></path>
</svg>
