<!-- Generated by IcoMoon.io -->
<svg version="1.1" xmlns="http://www.w3.org/2000/svg" width="32" height="32" viewBox="0 0 32 32">
<title>cartodb</title>
<path d="M28.317 0.058h-24.634c-1.701 0-3.079 1.379-3.079 3.079v24.634c0 1.701 1.379 3.079 3.079 3.079h24.634c1.701 0 3.079-1.378 3.079-3.079v-24.634c0-1.701-1.378-3.079-3.079-3.079zM15.783 24.55c0 0-0.179 0.142-0.729 0.142s-0.76-0.142-0.76-0.142l-0.236-1.481c0 0 0.065-0.121 1.027-0.121s1.021 0.129 1.021 0.129l-0.324 1.473zM17.835 21.028c-1.579-0.562 0.654-2.471 0.654-2.471 0.146-0.118 0.080 0.034 0.139 0.091 0.096 0.093 0.401-0.036 0.29 0.103-0.034 0.042-1.715 1.807-0.64 1.807 0.933 0 1.976-2.197 1.076-2.584-0.096-0.041-0.291-0.099-0.404-0.165-0.314 0.212-2.988 1.943-2.988 3.808 0 0.183 0.159 0.366 0.090 0.627 0 0-1.578-0.078-1.916-0.117-0.041-0.005 0.093-0.365 0.093-0.365 0-0.767-3.724-4.121-4.495-5.424-0.179 0.285-0.739 0.262-0.739 0.262s0.47-0.215 0.506-0.78c0-1.839-0.003-2.768 0.717-3.637 1.202-1.45 2.741-2.078 3.923-2.48-0.262 1.466 0.574 3.153 2.3 3.645-3.174-0.976-1.723-6.471 1.542-7.132 0.791 1.869 1.601 3.717 2.14 4.995 0.098 0.153 0.414-0.001 0.565-0.001 0.366 0 0.43 0.34 0.825 0.339 0.063 0 0.154-0.017 0.237-0.074 0.013-0.009-0.017 0.084-0.122 0.151-0.069 0.044-0.184 0.066-0.184 0.066s0.334 0.056 0.506-0.059c0.020-0.013-0.038 0.107-0.138 0.203-0.051 0.049-0.145 0.093-0.145 0.093l0.053 0.041c3.487 3.272-0.89 10.122-3.883 9.057z"></path>
</svg>
