<!-- Generated by IcoMoon.io -->
<svg version="1.1" xmlns="http://www.w3.org/2000/svg" width="32" height="32" viewBox="0 0 32 32">
<title>catalog</title>
<path d="M31.492 2.259c-1.209-0.731-2.429-1.291-3.631-1.667-1.278-0.399-2.572-0.602-3.847-0.602s-2.569 0.202-3.847 0.602c-1.286 0.402-2.592 1.015-3.883 1.822l-0.276 0.173-0.28-0.166c-1.252-0.741-2.561-1.306-3.889-1.677-1.285-0.36-2.599-0.542-3.906-0.542-1.337 0-2.672 0.19-3.968 0.566-1.193 0.346-2.354 0.848-3.456 1.496v20.124c1.755-0.986 3.525-1.627 5.291-1.918-0.038 0.359-0.057 0.724-0.057 1.095 0 1.794 0.442 3.449 1.327 4.965s2.084 2.715 3.6 3.6c1.515 0.884 3.17 1.327 4.965 1.327s3.449-0.442 4.965-1.327 2.715-2.084 3.6-3.6c0.884-1.515 1.327-3.17 1.327-4.965 0-0.406-0.023-0.805-0.068-1.197 2.012 0.219 4.034 0.896 6.035 2.020v-20.128zM3.92 18.235l-0.726 0.277v-14.649l0.32-0.141c1.464-0.646 2.987-0.973 4.527-0.973 2.007 0 3.989 0.568 5.58 1.598l0.244 0.158v7.318c-1.126 0.198-2.191 0.589-3.195 1.175-1.515 0.884-2.715 2.084-3.6 3.6-0.189 0.324-0.358 0.654-0.506 0.991-0.907 0.103-1.78 0.316-2.643 0.645zM16.87 26.767c-0.078-0.094-0.11-0.173-0.096-0.239-0.013 0.035-0.041 0.068-0.085 0.097-0.043-0.052-0.12-0.116-0.232-0.193s-0.189-0.142-0.232-0.193c-0.017-0.026-0.041-0.062-0.071-0.109s-0.069-0.109-0.116-0.187c-0.047-0.077-0.082-0.144-0.103-0.2s-0.024-0.088-0.006-0.097c-0.163 0.069-0.399 0.021-0.708-0.142-0.060-0.034-0.15-0.125-0.27-0.27s-0.245-0.21-0.373-0.193c-0.043 0.009-0.101 0.024-0.174 0.045s-0.135 0.032-0.187 0.032c-0.052 0-0.12-0.017-0.206-0.052-0.069-0.026-0.161-0.075-0.277-0.148s-0.195-0.118-0.238-0.135l-0.167-0.090-0.206-0.103c-0.052-0.026-0.105-0.067-0.161-0.122s-0.092-0.114-0.109-0.174c-0.017-0.052-0.039-0.155-0.064-0.309s-0.060-0.266-0.103-0.335c-0.052-0.086-0.124-0.172-0.219-0.258s-0.18-0.129-0.258-0.129c0.069 0 0.069-0.058 0-0.174s-0.129-0.2-0.18-0.251c-0.017-0.017-0.069-0.073-0.155-0.167s-0.159-0.176-0.219-0.245c-0.060-0.069-0.112-0.148-0.155-0.238s-0.052-0.165-0.026-0.225c0.009-0.009 0-0.021-0.026-0.039s-0.058-0.034-0.097-0.052c-0.039-0.017-0.075-0.032-0.109-0.045s-0.060-0.019-0.077-0.019c0.017 0.034 0.036 0.097 0.058 0.187s0.045 0.157 0.071 0.2c0.017 0.034 0.090 0.159 0.219 0.373 0.223 0.361 0.326 0.627 0.309 0.799-0.052 0.017-0.086 0.009-0.103-0.026s-0.030-0.082-0.039-0.142c-0.009-0.060-0.017-0.103-0.026-0.129-0.026-0.052-0.092-0.107-0.2-0.167s-0.174-0.12-0.2-0.18c0.009 0 0.019-0.004 0.032-0.013s0.024-0.013 0.032-0.013c0.009-0.077-0.036-0.176-0.135-0.296s-0.14-0.206-0.122-0.258c-0.069-0.052-0.129-0.152-0.18-0.303s-0.094-0.247-0.129-0.29c-0.034-0.052-0.077-0.097-0.129-0.135s-0.116-0.082-0.193-0.129c-0.077-0.047-0.129-0.079-0.155-0.097-0.017-0.009-0.052-0.047-0.103-0.116-0.283-0.343-0.369-0.528-0.258-0.554-0.082 0.019-0.154-0.022-0.215-0.122-0.022-0.036-0.043-0.079-0.062-0.13-0.073-0.193-0.097-0.341-0.071-0.444l-0.026-0.013c0.009-0.034 0.013-0.135 0.013-0.303s0.011-0.32 0.032-0.457c0.020-0.129 0.057-0.197 0.111-0.205-0.054 0.001-0.096-0.053-0.124-0.162-0.030-0.116-0.032-0.195-0.006-0.238 0.009-0.026 0.047-0.009 0.116 0.052s0.107 0.099 0.116 0.116c0.112-0.060 0.155-0.137 0.129-0.232-0.017-0.034-0.107-0.125-0.27-0.27-0.369-0.24-0.558-0.356-0.567-0.348 0.037-0.068 0.041-0.13 0.010-0.185-0.012-0.021-0.028-0.041-0.049-0.060-0.040 0.024-0.072 0.039-0.096 0.046-0.016-0.001-0.033-0.003-0.049-0.004-0.001-0.001-0.002-0.002-0.003-0.004-0.013-0.026-0.024-0.073-0.032-0.142s-0.030-0.107-0.064-0.116c-0.043-0.009-0.094-0.043-0.155-0.103 0.764-1.219 1.773-2.172 3.027-2.859 0.052-0.009 0.146-0.013 0.283-0.013 0.069 0.009 0.133 0.030 0.193 0.064s0.122 0.082 0.187 0.142 0.114 0.103 0.148 0.129c0.017-0.052-0.004-0.129-0.064-0.232 0.017-0.052 0.112-0.103 0.283-0.155 0.197-0.026 0.326-0.021 0.386 0.013-0.052-0.077-0.137-0.185-0.258-0.322l-0.064 0.064c-0.069-0.060-0.249-0.030-0.541 0.090-0.017 0.009-0.060 0.032-0.129 0.071s-0.124 0.067-0.167 0.084c-0.052 0.017-0.103 0.021-0.155 0.013 0.412-0.223 0.816-0.399 1.211-0.528 0.026 0.017 0.069 0.054 0.129 0.109s0.107 0.097 0.142 0.122c-0.026-0.017-0.043-0.009-0.052 0.026-0.034 0.103-0.034 0.189 0 0.258 0.043 0.060 0.101 0.094 0.174 0.103s0.161 0.004 0.264-0.013 0.172-0.026 0.206-0.026l0.129 0.013c0.275 0.026 0.382 0 0.322-0.077 0.026 0.034 0.056 0.105 0.090 0.212s0.073 0.182 0.116 0.225c0.043-0.034 0.052-0.094 0.026-0.18s-0.026-0.146 0-0.18c0.009-0.017 0.034-0.034 0.077-0.052s0.092-0.036 0.148-0.058c0.056-0.021 0.092-0.036 0.109-0.045 0.052-0.034 0.017-0.094-0.103-0.18-0.017-0.009-0.054-0.021-0.109-0.039s-0.105-0.034-0.148-0.052c-0.043-0.017-0.088-0.041-0.135-0.071s-0.069-0.064-0.064-0.103c0.004-0.039 0.028-0.088 0.071-0.148 0.052-0.043 0.135-0.060 0.251-0.052s0.204 0.030 0.264 0.064c0.232 0.129 0.266 0.245 0.103 0.348 0.086 0.009 0.189 0.043 0.309 0.103s0.167 0.124 0.142 0.193c0.069-0.129 0.137-0.193 0.206-0.193 0.043 0.009 0.084 0.067 0.122 0.174s0.062 0.165 0.071 0.174c0.069 0.094 0.137 0.116 0.206 0.064s0.14-0.127 0.212-0.225c0.068-0.092 0.108-0.137 0.12-0.136-0.084-0.034-0.092-0.068-0.024-0.102 0.129-0.077 0.245-0.099 0.348-0.064 0.026 0.017 0.060 0.056 0.103 0.116 0.077 0.155 0.064 0.228-0.039 0.219 0.077 0.069 0.109 0.155 0.097 0.258s-0.079 0.15-0.2 0.142c-0.043 0-0.105-0.021-0.187-0.064s-0.144-0.067-0.187-0.071c-0.043-0.004-0.103 0.019-0.18 0.071-0.034 0.043-0.079 0.116-0.135 0.219s-0.105 0.176-0.148 0.219c-0.129 0.129-0.343 0.176-0.644 0.142 0.026 0 0.024 0.026-0.006 0.077s-0.071 0.109-0.122 0.174c-0.052 0.064-0.082 0.101-0.090 0.109-0.077 0.086-0.129 0.185-0.155 0.296 0 0.017-0.004 0.075-0.013 0.174s-0.026 0.174-0.052 0.225c0.103-0.026 0.185 0.026 0.245 0.155 0.052 0.12 0.052 0.185 0 0.193 0.283-0.043 0.532-0.026 0.747 0.052 0.309 0.112 0.485 0.223 0.528 0.335 0.052-0.077 0.176-0.082 0.373-0.013 0.077 0.043 0.146 0.172 0.206 0.386 0.034 0.129 0.092 0.24 0.174 0.335s0.17 0.12 0.264 0.077l0.039-0.026c0.034-0.017 0.062-0.032 0.084-0.045s0.045-0.030 0.071-0.052c0.026-0.021 0.041-0.041 0.045-0.058s-0.002-0.034-0.019-0.052c-0.060-0.052-0.105-0.122-0.135-0.212s-0.024-0.17 0.019-0.238c0.026-0.034 0.094-0.086 0.206-0.155s0.18-0.137 0.206-0.206c0.034-0.112-0.009-0.204-0.129-0.277s-0.18-0.14-0.18-0.2c0-0.043 0.028-0.094 0.084-0.155s0.079-0.116 0.071-0.167c0-0.026-0.015-0.079-0.045-0.161s-0.047-0.142-0.052-0.18c-0.004-0.039 0.015-0.084 0.058-0.135 0.060-0.034 0.202-0.032 0.425 0.006 0.033 0.006 0.064 0.011 0.093 0.017 0.171 0.034 0.286 0.069 0.345 0.105 0.026 0.017 0.082 0.043 0.167 0.077s0.161 0.071 0.225 0.109 0.101 0.075 0.109 0.109h-0.064c0.060 0.052 0.097 0.112 0.109 0.18s-0.019 0.12-0.097 0.155c0.052-0.009 0.12 0.004 0.206 0.039 0.137 0.052 0.142 0.099 0.013 0.142 0.026-0.009 0.062-0.017 0.109-0.026s0.084-0.021 0.109-0.039c0.017-0.009 0.039-0.024 0.064-0.045s0.045-0.034 0.058-0.039c0.013-0.004 0.032-0.009 0.058-0.013s0.052 0.002 0.077 0.019c0.009 0 0.028-0.021 0.058-0.064s0.062-0.086 0.097-0.129c0.034-0.043 0.064-0.064 0.090-0.064s0.049 0.011 0.071 0.032c0.021 0.021 0.039 0.045 0.052 0.071s0.026 0.054 0.039 0.084 0.024 0.054 0.032 0.071c0.017 0.043 0.058 0.088 0.122 0.135s0.105 0.092 0.122 0.135c0.009 0.026 0.026 0.090 0.052 0.193s0.060 0.174 0.103 0.212c0.043 0.039 0.107 0.071 0.193 0.097 0.017 0.009 0.056 0.004 0.116-0.013s0.109-0.021 0.148-0.013c0.039 0.009 0.058 0.043 0.058 0.103 0.052-0.052 0.077-0.086 0.077-0.103 0.009 0.112 0.037 0.202 0.084 0.27s0.122 0.099 0.225 0.090l-0.026 0.283c-0.026 0.043-0.090 0.075-0.193 0.097s-0.167 0.041-0.193 0.058c-0.023 0.008-0.076 0.051-0.158 0.128-0.102 0.024-0.205 0.049-0.309 0.075-0.132-0.062-0.298-0.070-0.498-0.023-0.326 0.052-0.549 0.103-0.67 0.155-0.137 0.069-0.232 0.133-0.283 0.193-0.009 0.009-0.024 0.039-0.045 0.090-0.004 0.009-0.008 0.018-0.011 0.026-0.018 0.041-0.035 0.080-0.053 0.115s-0.034 0.056-0.049 0.062c0.049-0.012 0.104-0.051 0.165-0.12 0.052-0.059 0.088-0.097 0.11-0.113 0.005-0.004 0.009-0.007 0.013-0.009 0.213-0.139 0.39-0.192 0.532-0.16 0.007 0.002 0.014 0.003 0.021 0.005 0.189 0.052 0.219 0.12 0.090 0.206-0.017 0.017-0.062 0.024-0.135 0.019s-0.122-0.002-0.148 0.006c0.077 0.017 0.142 0.041 0.193 0.071s0.064 0.071 0.039 0.122c0.137 0.077 0.163 0.163 0.077 0.258-0.112 0.112-0.245 0.159-0.399 0.142 0.026 0 0.026 0.017 0 0.052l-0.219 0.142c-0.017 0.009-0.073 0.030-0.167 0.064s-0.159 0.073-0.193 0.116c-0.026 0.034-0.039 0.086-0.039 0.155s-0.004 0.12-0.013 0.155c-0.009 0.034-0.043 0.043-0.103 0.026-0.026 0.052-0.105 0.092-0.238 0.122s-0.221 0.075-0.264 0.135c0.052 0.069 0.047 0.137-0.013 0.206-0.103 0.086-0.193 0.077-0.27-0.026-0.043 0.017-0.075 0.060-0.097 0.129s-0.054 0.116-0.097 0.142c0.060 0.094 0.052 0.163-0.026 0.206 0.009 0 0.028 0.009 0.058 0.026s0.062 0.039 0.097 0.064c0.034 0.026 0.056 0.039 0.064 0.039-0.034 0.077-0.082 0.116-0.142 0.116 0.052 0.137-0.013 0.288-0.193 0.451-0.034 0.034-0.088 0.069-0.161 0.103s-0.14 0.062-0.2 0.084c-0.060 0.021-0.094 0.036-0.103 0.045-0.086 0.077-0.15 0.157-0.193 0.238s-0.049 0.161-0.019 0.238c0.012 0.030 0.030 0.055 0.056 0.077 0.042 0.036 0.102 0.061 0.182 0.077l0.013 0.103v0.232l0.013 0.103c0.009 0.060 0.015 0.114 0.019 0.161s0.004 0.107 0 0.18c-0.004 0.073-0.024 0.114-0.058 0.122s-0.082 0-0.142-0.026c-0.069-0.034-0.15-0.223-0.245-0.567-0.013-0.063-0.044-0.136-0.094-0.218-0.018-0.029-0.038-0.060-0.061-0.091-0.043 0.043-0.079 0.071-0.11 0.084s-0.052 0.015-0.064 0.006c-0.013-0.009-0.037-0.028-0.071-0.058s-0.064-0.054-0.090-0.071c-0.043-0.026-0.118-0.047-0.225-0.064s-0.174-0.039-0.2-0.064c-0.206 0.155-0.331 0.116-0.373-0.116-0.017 0.043-0.015 0.101 0.006 0.174s0.032 0.114 0.032 0.122c-0.030 0.056-0.069 0.086-0.117 0.090s-0.102-0.018-0.166-0.064c-0.052-0.052-0.17-0.058-0.354-0.019-0.174 0.036-0.293 0.044-0.356 0.023 0.010 0.006 0.023 0.017 0.041 0.035 0.026 0.017 0.043 0.030 0.052 0.039-0.009 0.034-0.021 0.060-0.039 0.077s-0.034 0.024-0.052 0.019c-0.017-0.004-0.036-0.004-0.058 0s-0.041 0.011-0.058 0.019c-0.034 0.026-0.077 0.071-0.129 0.135s-0.090 0.105-0.116 0.122c0.052 0.137 0.075 0.243 0.071 0.316s-0.017 0.18-0.039 0.322c-0.021 0.142-0.032 0.255-0.032 0.341 0 0.137 0.041 0.296 0.122 0.477s0.178 0.305 0.29 0.373c0.060 0.034 0.163 0.056 0.309 0.064s0.249 0 0.309-0.026c0.052-0.026 0.090-0.056 0.116-0.090s0.047-0.084 0.064-0.148c0.017-0.064 0.030-0.109 0.039-0.135 0.060-0.163 0.172-0.249 0.335-0.258 0.103-0.009 0.178 0.002 0.225 0.032s0.067 0.071 0.058 0.122c-0.009 0.052-0.026 0.105-0.052 0.161s-0.058 0.118-0.097 0.187c-0.039 0.069-0.062 0.12-0.071 0.155-0.017 0.069-0.032 0.165-0.045 0.29s-0.024 0.2-0.032 0.225c0.017 0.009 0.082 0.013 0.193 0.013 0-0.017 0.006-0.045 0.019-0.084s0.019-0.062 0.019-0.071c0.043 0.069 0.112 0.107 0.206 0.116s0.163-0.026 0.206-0.103c0.017 0.026 0.069 0.090 0.155 0.193s0.133 0.189 0.142 0.258c0.009 0.034 0.026 0.090 0.052 0.167s0.034 0.131 0.026 0.161c-0.009 0.030-0.052 0.045-0.129 0.045-0.034 0-0.056 0.013-0.064 0.039s-0.009 0.058 0 0.097c0.009 0.039 0.019 0.075 0.032 0.109s0.030 0.071 0.052 0.109c0.021 0.039 0.032 0.062 0.032 0.071 0.155 0.283 0.365 0.361 0.631 0.232 0 0.249-0.060 0.386-0.18 0.412-0.069 0.017-0.146-0.026-0.232-0.129zM17.063 29.677c-0.017-0.086-0.026-0.155-0.026-0.206-0.009-0.069 0.021-0.161 0.090-0.277s0.103-0.204 0.103-0.264c-0.137-0.034-0.189-0.146-0.155-0.335 0.017-0.129 0.142-0.3 0.373-0.515 0.163-0.146 0.215-0.352 0.155-0.618-0.026-0.112-0.047-0.275-0.064-0.489s-0.034-0.365-0.052-0.451c0 0.026 0.041 0.049 0.122 0.071s0.131 0.049 0.148 0.084c0.017-0.026 0.039-0.073 0.064-0.142s0.052-0.12 0.077-0.155c0.017-0.026 0.054-0.058 0.109-0.097s0.092-0.062 0.109-0.071c0.017-0.009 0.056-0.036 0.116-0.084s0.109-0.084 0.148-0.109c0.039-0.026 0.090-0.045 0.155-0.058s0.109 0.006 0.135 0.058c0.043 0.052 0.034 0.131-0.026 0.238s-0.060 0.182 0 0.225c0.009-0.026 0.017-0.082 0.026-0.167s0.034-0.15 0.077-0.193c0.052-0.052 0.101-0.082 0.148-0.090s0.090-0.002 0.129 0.019 0.084 0.052 0.135 0.090c0.052 0.039 0.099 0.062 0.142 0.071 0.129 0.043 0.283 0.137 0.464 0.283-0.009-0.009-0.009-0.019 0-0.032s0.026-0.026 0.052-0.039c0.026-0.013 0.049-0.026 0.071-0.039s0.045-0.024 0.071-0.032l0.039-0.013c0.060 0 0.103-0.004 0.129-0.013s0.062 0 0.109 0.026c0.047 0.026 0.079 0.045 0.097 0.058s0.047 0.037 0.090 0.071c0.043 0.034 0.073 0.060 0.090 0.077 0.026 0.017 0.073 0.047 0.142 0.090s0.122 0.077 0.161 0.103c0.039 0.026 0.073 0.064 0.103 0.116s0.041 0.107 0.032 0.167c0.052 0.009 0.155 0.043 0.309 0.103 0.026 0.017 0.079 0.032 0.161 0.045s0.135 0.032 0.161 0.058c-1.245 1.314-2.752 2.125-4.521 2.434zM28.807 18.463l-0.695-0.217c-1.186-0.371-2.309-0.589-3.409-0.661-0.148-0.335-0.316-0.664-0.504-0.986-0.884-1.515-2.084-2.715-3.6-3.6-0.784-0.457-1.605-0.796-2.463-1.017v-7.5l0.275-0.153c1.962-1.093 3.797-1.625 5.611-1.625 1.461 0 2.923 0.333 4.468 1.019l0.319 0.141v14.599zM14.498 22.276c-0.004-0.003-0.008-0.004-0.011-0.004 0.003 0.001 0.007 0.003 0.011 0.004zM18.876 18.625c-0.003 0.001-0.006 0.002-0.009 0.002 0.003 0 0.006-0.001 0.009-0.002z"></path>
</svg>
