<!-- Generated by IcoMoon.io -->
<svg version="1.1" xmlns="http://www.w3.org/2000/svg" width="32" height="32" viewBox="0 0 32 32">
<title>cesium</title>
<path d="M3.188 18.991c1.275-1.661 2.522-3.345 3.796-5.007 0.584-0.762 1.168-1.532 1.823-2.232 0.679-0.726 1.604-1.047 2.575-1.026 1.264 0.028 2.311 0.61 3.084 1.615 1.269 1.649 2.511 3.318 3.772 4.973 0.511 0.67 1.008 1.356 1.573 1.979 0.602 0.663 1.453 0.713 2.093 0.182 0.262-0.218 0.508-0.468 0.714-0.739 1.481-1.951 2.964-3.902 4.418-5.873 0.913-1.238 2.003-2.107 3.592-2.135-1.994-6.175-7.789-10.642-14.627-10.642-8.488 0-15.368 6.88-15.368 15.368 0 1.488 0.212 2.927 0.607 4.289 0.109 0.039 0.235 0.063 0.377 0.075 0.708 0.057 1.186-0.323 1.573-0.827zM21.26 6.365c1.098 0.028 1.771 0.852 1.705 1.693 0.041 0.868-0.68 1.618-1.669 1.651-0.865 0.029-1.629-0.814-1.62-1.715 0.008-0.83 0.777-1.649 1.585-1.629zM31.217 13.292c-0-0-0.001-0-0.001-0s0-0.001 0.001-0.002c-0.003-0.023-0.007-0.045-0.010-0.067-0.051-0.025-0.072-0.089-0.124-0.114-0.043 0.003-0.142-0.059-0.209-0.084 0.002-0 0.003-0.001 0.005-0.001-0.226-0.069-0.439-0.077-0.636-0.008-0.054 0.004-0.091 0.027-0.187 0.086l-0.106 0.078c-0.060 0.031-0.144 0.134-0.203 0.165-1.147 1.472-2.298 2.94-3.44 4.416-0.782 1.010-1.528 2.049-2.333 3.040-1.472 1.812-4.015 1.976-5.686 0.347-0.571-0.557-1.035-1.227-1.528-1.861-0.768-0.988-1.521-1.986-2.274-2.986-0.124-0.164-0.208-0.358-0.31-0.539-0.026-0.029-0.052-0.058-0.077-0.087-0.066-0.084-0.131-0.168-0.197-0.253-0.172-0.232-0.345-0.465-0.518-0.697-0.065-0.085-0.131-0.169-0.196-0.254-0.253-0.31-0.507-0.62-0.76-0.93-0.072-0.058-0.143-0.117-0.215-0.175-0.105-0.047-0.21-0.094-0.315-0.141-0.062-0.025-0.125-0.051-0.187-0.076-0.054-0.007-0.107-0.015-0.161-0.023-0.363-0.111-0.692-0.064-0.976 0.203h-0c-0.023 0.015-0.046 0.030-0.068 0.045-0.056 0.040-0.112 0.081-0.168 0.121-0.137 0.141-0.274 0.283-0.411 0.424-0.043 0.056-0.087 0.111-0.13 0.166-0.118 0.155-0.236 0.31-0.354 0.466-0.042 0.054-0.084 0.107-0.126 0.161-0.118 0.157-0.236 0.314-0.354 0.471-0.064 0.086-0.127 0.172-0.191 0.258-0.114 0.154-0.228 0.309-0.342 0.463-0.045 0.057-0.089 0.113-0.134 0.17-0.012 0.022-0.026 0.042-0.044 0.061-0.042 0.054-0.084 0.107-0.126 0.161-0.047 0.061-0.094 0.122-0.14 0.183-0.159 0.253-0.302 0.519-0.48 0.758-0.763 1.024-1.54 2.037-2.303 3.060-0.756 1.014-1.682 1.749-2.989 1.956 2.509 5.077 7.739 8.569 13.786 8.569 8.488 0 15.368-6.88 15.368-15.368 0-0.734-0.052-1.456-0.151-2.162z"></path>
</svg>
