<!-- Generated by IcoMoon.io -->
<svg version="1.1" xmlns="http://www.w3.org/2000/svg" width="32" height="32" viewBox="0 0 32 32">
<title>cloud</title>
<path d="M31.939 20.781c0 1.759-0.622 3.26-1.866 4.504s-2.746 1.866-4.504 1.866h-18.050c-2.046 0-3.796-0.727-5.251-2.182s-2.182-3.205-2.182-5.251c0-1.46 0.393-2.795 1.178-4.007s1.819-2.115 3.102-2.712c-0.022-0.31-0.033-0.547-0.033-0.713 0-2.345 0.83-4.347 2.489-6.006s3.661-2.489 6.006-2.489c1.748 0 3.332 0.487 4.753 1.46s2.458 2.245 3.111 3.816c0.774-0.686 1.692-1.029 2.754-1.029 1.172 0 2.173 0.415 3.003 1.244s1.244 1.83 1.244 3.003c0 0.83-0.227 1.593-0.68 2.289 1.427 0.332 2.605 1.076 3.534 2.231s1.394 2.48 1.394 3.973z"></path>
</svg>
