<!-- Generated by IcoMoon.io -->
<svg version="1.1" xmlns="http://www.w3.org/2000/svg" width="32" height="32" viewBox="0 0 32 32">
<title>cloud-o</title>
<path d="M12.827 6.293c1.243 0 2.336 0.335 3.341 1.023 1.023 0.701 1.747 1.588 2.215 2.712l1.344 3.235 2.622-2.322c0.317-0.28 0.645-0.4 1.096-0.4 0.507 0 0.876 0.153 1.235 0.512s0.512 0.728 0.512 1.235c0 0.347-0.085 0.633-0.276 0.926l-1.946 2.99 3.475 0.808c0.443 0.103 0.831 0.262 1.185 0.485 0.357 0.226 0.673 0.512 0.966 0.877 0.288 0.358 0.496 0.725 0.635 1.121 0.14 0.398 0.207 0.819 0.207 1.286 0 1.093-0.36 1.963-1.134 2.737s-1.643 1.134-2.737 1.134h-18.050c-0.697 0-1.315-0.116-1.888-0.354-0.575-0.239-1.097-0.597-1.595-1.095s-0.856-1.020-1.095-1.595c-0.238-0.573-0.354-1.191-0.354-1.888 0-0.976 0.254-1.842 0.776-2.646 0.53-0.817 1.203-1.407 2.060-1.806l1.561-0.727-0.123-1.718c-0.024-0.339-0.027-0.487-0.027-0.535 0-0.849 0.141-1.602 0.432-2.303s0.724-1.334 1.325-1.935c0.601-0.601 1.234-1.034 1.935-1.325s1.454-0.432 2.303-0.432zM12.827 3.793c-2.345 0-4.347 0.83-6.006 2.489s-2.489 3.661-2.489 6.006c0 0.166 0.011 0.404 0.033 0.713-1.283 0.597-2.317 1.501-3.102 2.712s-1.178 2.547-1.178 4.007c0 2.046 0.727 3.796 2.182 5.251s3.205 2.182 5.251 2.182h18.050c1.759 0 3.26-0.622 4.504-1.866s1.866-2.746 1.866-4.504c0-1.493-0.465-2.818-1.394-3.973s-2.107-1.9-3.534-2.231c0.453-0.697 0.68-1.46 0.68-2.289 0-1.172-0.415-2.173-1.244-3.003s-1.83-1.244-3.003-1.244c-1.062 0-1.98 0.343-2.754 1.029-0.653-1.571-1.689-2.842-3.111-3.816s-3.006-1.46-4.753-1.46v0z"></path>
</svg>
