<!-- Generated by IcoMoon.io -->
<svg version="1.1" xmlns="http://www.w3.org/2000/svg" width="32" height="32" viewBox="0 0 32 32">
<title>color-wheel</title>
<path d="M25.729 3.988c-2.322-1.965-5.246-3.234-8.457-3.5v4.975h-0c1.846 0.232 3.533 0.961 4.926 2.056l3.531-3.531zM25.973 14.218h5.029c-0.265-3.212-1.534-6.135-3.5-8.457l-3.541 3.539c1.075 1.396 1.793 3.079 2.011 4.918zM23.908 21.59l3.594 3.594c1.965-2.322 3.234-5.246 3.5-8.458h-5.049c-0.24 1.821-0.964 3.486-2.045 4.864zM17.272 25.354v5.102c3.211-0.265 6.135-1.533 8.457-3.498l-3.604-3.603c-1.378 1.062-3.040 1.773-4.853 2zM6.306 26.957c2.322 1.965 5.246 3.234 8.458 3.498v-5.102c-1.815-0.227-3.475-0.938-4.855-2.001l-3.603 3.604zM6.082 16.726h-5.049c0.266 3.212 1.534 6.135 3.5 8.458l3.594-3.594c-1.081-1.378-1.805-3.043-2.045-4.864zM14.992 5.537v-5.049c-3.212 0.266-6.136 1.534-8.458 3.5l3.594 3.594c1.378-1.081 3.043-1.805 4.864-2.045zM8.363 9.365l-3.603-3.604c-1.965 2.322-3.234 5.246-3.498 8.457h5.102c0.226-1.813 0.938-3.474 2-4.853z"></path>
</svg>
