<!-- Generated by IcoMoon.io -->
<svg version="1.1" xmlns="http://www.w3.org/2000/svg" width="32" height="32" viewBox="0 0 32 32">
<title>color-hexa</title>
<path d="M25.729 3.988c-2.322-1.965-5.246-3.234-8.457-3.5v4.975h-0c1.846 0.232 3.533 0.961 4.926 2.056l3.531-3.531zM25.973 14.218h5.029c-0.265-3.212-1.534-6.135-3.5-8.457l-3.541 3.539c1.075 1.396 1.793 3.079 2.011 4.918zM23.908 21.59l3.594 3.594c1.965-2.322 3.234-5.246 3.5-8.458h-5.049c-0.24 1.821-0.964 3.486-2.045 4.864zM17.272 25.354v5.102c3.211-0.265 6.135-1.533 8.457-3.498l-3.604-3.603c-1.378 1.062-3.040 1.773-4.853 2zM6.306 26.957c2.322 1.965 5.246 3.234 8.458 3.498v-5.102c-1.815-0.227-3.475-0.938-4.855-2.001l-3.603 3.604zM6.082 16.726h-5.049c0.266 3.212 1.534 6.135 3.5 8.458l3.594-3.594c-1.081-1.378-1.805-3.043-2.045-4.864zM14.568 2.648h-1.419c-0.079 0-0.138-0.039-0.197-0.099-0.039-0.059-0.059-0.138-0.039-0.217l0.493-1.991c0.059-0.217 0-0.434-0.118-0.591-0.138-0.177-0.335-0.276-0.552-0.276h-1.301c-0.315 0-0.591 0.217-0.67 0.532l-0.611 2.445c-0.020 0.118-0.118 0.177-0.237 0.177h-2.444c-0.079 0-0.138-0.039-0.197-0.099-0.039-0.059-0.059-0.138-0.039-0.217l0.493-1.991c0.059-0.217 0-0.434-0.138-0.591-0.138-0.177-0.335-0.276-0.552-0.276h-1.301c-0.315 0-0.611 0.217-0.67 0.532l-0.591 2.445c-0.020 0.118-0.118 0.197-0.237 0.197h-2.090c-0.394 0-0.71 0.315-0.71 0.69v1.104c0 0.394 0.315 0.71 0.71 0.71h1.341c0.079 0 0.158 0.039 0.197 0.099s0.059 0.138 0.039 0.217l-0.808 3.075c-0.020 0.118-0.118 0.177-0.237 0.177h-1.971c-0.394-0-0.71 0.315-0.71 0.71v1.143c0 0.394 0.315 0.71 0.71 0.71h1.262c0.079 0 0.138 0.039 0.197 0.099 0.039 0.059 0.059 0.138 0.039 0.217l-0.493 1.912c-0.059 0.217 0 0.434 0.138 0.591 0.138 0.177 0.335 0.276 0.552 0.276h1.301c0.315 0 0.611-0.217 0.67-0.532l0.591-2.405c0.020-0.118 0.118-0.177 0.237-0.177h2.425c0.079 0 0.138 0.039 0.197 0.099 0.039 0.059 0.059 0.138 0.039 0.217l-0.473 1.952c-0.059 0.217 0 0.434 0.138 0.591 0.138 0.177 0.335 0.276 0.552 0.276h1.301c0.315 0 0.611-0.217 0.67-0.532l0.591-2.405c0.020-0.118 0.118-0.177 0.237-0.177h2.228c0.394 0 0.71-0.315 0.71-0.71v-1.143c0-0.394-0.315-0.71-0.71-0.71h-1.498c-0.079 0-0.158-0.039-0.197-0.099s-0.059-0.138-0.039-0.217l0.789-3.075c0.020-0.118 0.118-0.177 0.237-0.177h2.149c0.394 0 0.69-0.315 0.69-0.71v-1.104c0.020-0.355-0.296-0.67-0.67-0.67zM9.443 5.408l-0.808 3.154c-0.020 0.118-0.118 0.177-0.237 0.177h-2.504c-0.079 0-0.158-0.039-0.197-0.099s-0.059-0.138-0.039-0.217l0.828-3.154c0.020-0.118 0.118-0.177 0.237-0.177h2.484c0.079 0 0.138 0.039 0.197 0.099s0.059 0.138 0.039 0.217z"></path>
</svg>
