<!-- Generated by IcoMoon.io -->
<svg version="1.1" xmlns="http://www.w3.org/2000/svg" width="32" height="32" viewBox="0 0 32 32">
<title>color-picker</title>
<path d="M25.729 3.988c-2.322-1.965-5.246-3.234-8.457-3.5v4.975h-0c1.846 0.232 3.533 0.961 4.926 2.056l3.531-3.531zM25.973 14.218h5.029c-0.265-3.212-1.534-6.135-3.5-8.457l-3.541 3.539c1.075 1.396 1.793 3.079 2.011 4.918zM23.908 21.59l3.594 3.594c1.965-2.322 3.234-5.246 3.5-8.458h-5.049c-0.24 1.821-0.964 3.486-2.045 4.864zM17.272 25.354v5.102c3.211-0.265 6.135-1.533 8.457-3.498l-3.604-3.603c-1.378 1.062-3.040 1.773-4.853 2zM6.306 26.957c2.322 1.965 5.246 3.234 8.458 3.498v-5.102c-1.815-0.227-3.475-0.938-4.855-2.001l-3.603 3.604zM6.082 16.726h-5.049c0.266 3.212 1.534 6.135 3.5 8.458l3.594-3.594c-1.081-1.378-1.805-3.043-2.045-4.864zM5.713 8.831l8.772 8.772 4.889 2.52 1.294-1.294-2.52-4.889-8.773-8.773zM2.052 6.998c-0.506 0.508-0.506 1.325 0 1.833 0.506 0.503 1.325 0.503 1.83 0l5.494-5.494c0.503-0.506 0.503-1.325 0-1.83-0.508-0.506-1.325-0.506-1.832 0l-0.916 0.916-2.209-2.21c-1.011-1.011-2.65-1.011-3.661 0s-1.011 2.65 0 3.661l2.209 2.209-0.916 0.915z"></path>
</svg>
