<!-- Generated by IcoMoon.io -->
<svg version="1.1" xmlns="http://www.w3.org/2000/svg" width="44" height="32" viewBox="0 0 44 32">
<title>convert</title>
<path d="M15.46 7.185c0 4.269-3.461 7.73-7.73 7.73s-7.73-3.461-7.73-7.73c0-4.269 3.461-7.73 7.73-7.73s7.73 3.461 7.73 7.73zM35.756 19.007c2.602 0 4.719 2.117 4.719 4.718s-2.117 4.718-4.719 4.718c-2.602 0-4.718-2.117-4.718-4.718s2.116-4.718 4.718-4.718zM35.756 15.994c-4.27 0-7.73 3.461-7.73 7.73s3.46 7.73 7.73 7.73 7.731-3.46 7.731-7.73-3.462-7.73-7.731-7.73v0zM15.622 17.595l6.016-1.256-1.267-6.073 2.556-0.533 1.8 8.629-8.572 1.789z"></path>
</svg>
