<!-- Generated by IcoMoon.io -->
<svg version="1.1" xmlns="http://www.w3.org/2000/svg" width="32" height="32" viewBox="0 0 32 32">
<title>crosshair</title>
<path d="M16 30.497c-8.29 0-15.042-6.752-15.042-15.042s6.752-15.042 15.042-15.042 15.042 6.719 15.042 15.042c0 8.29-6.752 15.042-15.042 15.042zM17.872 4.323v3.61c0 0.535-0.435 0.936-0.936 0.936h-1.872c-0.535 0-0.936-0.435-0.936-0.936v-3.61c-4.713 0.802-8.424 4.513-9.226 9.226h3.577c0.535 0 0.936 0.435 0.936 0.936v1.872c0 0.535-0.435 0.936-0.936 0.936h-3.61c0.802 4.713 4.513 8.424 9.226 9.226v-3.543c0-0.535 0.435-0.936 0.936-0.936h1.872c0.535 0 0.936 0.435 0.936 0.936v3.577c4.713-0.802 8.457-4.513 9.226-9.226h-3.543c-0.535 0-0.936-0.435-0.936-0.936v-1.872c0-0.535 0.435-0.936 0.936-0.936h3.577c-0.769-4.713-4.513-8.457-9.226-9.259z"></path>
</svg>
