<!-- Generated by IcoMoon.io -->
<svg version="1.1" xmlns="http://www.w3.org/2000/svg" width="32" height="32" viewBox="0 0 32 32">
<title>csv-o</title>
<path d="M28.678 7.997c-0.226-0.542-0.497-0.972-0.814-1.288l-5.288-5.288c-0.316-0.316-0.746-0.588-1.288-0.814s-1.040-0.339-1.492-0.339h-15.187c-0.452 0-0.836 0.158-1.153 0.475s-0.475 0.701-0.475 1.153v27.12c0 0.452 0.158 0.836 0.475 1.153s0.701 0.475 1.153 0.475h22.78c0.452 0 0.836-0.158 1.153-0.475s0.475-0.701 0.475-1.153v-19.526c-0-0.452-0.113-0.949-0.339-1.492zM20.339 2.573c0.328 0.113 0.559 0.237 0.695 0.373l5.305 5.305c0.136 0.136 0.26 0.367 0.373 0.695h-6.373v-6.373zM26.848 28.472h-21.696v-26.035h13.017v7.051c0 0.452 0.158 0.836 0.475 1.153s0.701 0.475 1.153 0.475h7.051v17.357zM17.411 14.826c-0.453-0.302-0.958-0.454-1.515-0.454-0.743 0-1.388 0.25-1.934 0.75s-0.819 1.117-0.819 1.849c0 0.849 0.278 1.508 0.836 1.979s1.22 0.706 1.987 0.706c0 1.139-0.68 2.087-2.038 2.843-0.477 0.29-0.714 0.674-0.714 1.151 0 0.314 0.113 0.59 0.34 0.829 0.227 0.238 0.52 0.357 0.879 0.357 0.569 0 1.205-0.294 1.908-0.881 0.703-0.588 1.298-1.384 1.786-2.389s0.732-2.084 0.732-3.235c0-0.861-0.128-1.584-0.383-2.171s-0.61-1.032-1.063-1.334z"></path>
</svg>
