<!-- Generated by IcoMoon.io -->
<svg version="1.1" xmlns="http://www.w3.org/2000/svg" width="32" height="32" viewBox="0 0 32 32">
<title>dashed-stroke</title>
<path d="M16.008 1.833h-3.928v1.964h3.928v-1.964zM8.151 1.833h-0.015c0 0-0.008 0.013-0.022 0.038l-0 0c-0.007 0.012-0.016 0.028-0.026 0.046l-0 0c-0.005 0.009-0.011 0.019-0.017 0.029l-0 0c-0.003 0.005-0.006 0.010-0.009 0.016v0c-0.002 0.004-0.005 0.008-0.007 0.013v0c-0.001 0.001-0.001 0.002-0.002 0.003l-0.003 0.005c-0 0-0 0-0 0.001l-0.001 0.001c-0.001 0.001-0.002 0.003-0.002 0.004l-0 0c-0.002 0.003-0.003 0.006-0.005 0.009l-0 0c-0.002 0.003-0.003 0.006-0.005 0.009l-0 0c-0.002 0.003-0.003 0.006-0.005 0.009l-0.001 0.001c-0.002 0.003-0.004 0.006-0.005 0.009l-0 0c-0.002 0.003-0.004 0.006-0.006 0.010l-0 0.001c-0.004 0.006-0.007 0.012-0.011 0.019l-0.003 0.005c-0 0-0 0-0 0.001l-0.001 0.002c-0.001 0.001-0.002 0.003-0.002 0.004l-0.001 0.001c-0.001 0.002-0.002 0.003-0.003 0.005l-0 0c-0.001 0.002-0.002 0.003-0.003 0.005l-0.001 0.001c-0.002 0.003-0.004 0.007-0.006 0.010l-0 0c-0.001 0.002-0.002 0.003-0.003 0.005l-0 0c-0 0.001-0.001 0.002-0.001 0.002l-0 0c-0 0-0.001 0.001-0.001 0.002l-0.001 0.002c-0 0-0 0.001-0.001 0.001l-0 0.001c-0 0.001-0.001 0.002-0.001 0.002l-0 0.001c-0.001 0.002-0.002 0.003-0.003 0.005l-0.001 0.001c-0.002 0.003-0.004 0.007-0.006 0.010l-0.001 0.002c-0.001 0.002-0.002 0.003-0.003 0.005l-0 0.001c-0.001 0.002-0.002 0.003-0.003 0.005l-0.002 0.003c-0 0.001-0.001 0.001-0.001 0.002l-0.001 0.003c-0 0-0 0.001-0.001 0.001l-0.006 0.011c-0 0.001-0.001 0.001-0.001 0.002l-0.003 0.005c-0 0.001-0.001 0.001-0.001 0.002l-0 0.001c-0 0.001-0.001 0.001-0.001 0.002l-0.001 0.002c-0 0-0 0.001-0.001 0.001l-0.003 0.005c-0.001 0.001-0.002 0.003-0.002 0.004l-0.001 0.001c-0.001 0.002-0.002 0.003-0.003 0.005l-0.001 0.002c-0.001 0.001-0.002 0.003-0.002 0.004l-0.001 0.002c-0 0.001-0.001 0.001-0.001 0.002l-0.005 0.008c-0 0-0 0.001-0 0.001l-0.002 0.003c-0 0-0 0.001-0 0.001l-0.001 0.002c-0 0-0 0-0 0.001l-0.001 0.002c-0.001 0.002-0.002 0.003-0.003 0.005l-0.001 0.002c-0 0-0 0-0 0l-0.003 0.006c-0.001 0.002-0.002 0.003-0.003 0.005l-0 0c-0.001 0.002-0.002 0.003-0.003 0.005l-0.001 0.002c-0.001 0.002-0.002 0.003-0.003 0.005l-0.025 0.044c-0 0.001-0.001 0.002-0.002 0.003l-1.694 2.934 1.701 0.982 1.957-3.389-1.686-0.973 0-0.009zM4.215 8.624l-1.9 3.292c-0 0-0 0-0 0.001l-0.001 0.001c-0.001 0.001-0.001 0.002-0.002 0.003l-0.001 0.001c-0.001 0.001-0.001 0.002-0.002 0.003l-0 0c-0 0.001-0.001 0.001-0.001 0.002l-0.002 0.004c-0 0-0.001 0.001-0.001 0.001l-0 0.001c-0 0.001-0.001 0.002-0.002 0.003l-0.001 0.001c-0 0.001-0.001 0.002-0.001 0.002l-0.001 0.001c-0 0-0 0-0 0.001l-0.003 0.004c-0.005 0.008-0.009 0.016-0.013 0.023l-0 0c-0.004 0.008-0.008 0.014-0.012 0.021l-0 0c-0.014 0.025-0.022 0.038-0.022 0.038v0l1.701 0.982 1.964-3.402-1.701-0.982zM1.972 14.472l-1.67 0.964-0.015-0.009-0.015 0.027 1.949 3.375 1.701-0.982-1.949-3.375zM5.885 21.25l-1.701 0.982 1.964 3.402 1.701-0.982-1.964-3.402zM12.018 27.112h-3.882v1.911l-0.023 0.013 0.023 0.039c0 0 0 0 0 0l0 0c0 0 0 0 0 0l0 0c0 0 0 0 0 0v0h3.882v-1.964h-0zM19.874 27.112h-3.928v1.964h3.928v-1.964zM24.097 24.746l-1.933 3.349 1.639 0.946v0.036h0.062l1.933-3.349-1.701-0.982zM28.025 17.941l-1.964 3.402 1.701 0.982c0 0 0.506-0.877 1.005-1.741l0.001-0.001c0.006-0.010 0.011-0.019 0.017-0.029l0.001-0.001c0.001-0.002 0.003-0.005 0.004-0.008l0.005-0.008c0-0.001 0.001-0.002 0.001-0.002l0.001-0.003c0.001-0.001 0.001-0.002 0.002-0.003l0.002-0.003 0-0 0.003-0.005c0.001-0.002 0.003-0.005 0.004-0.007l0.001-0.002c0-0.001 0.001-0.001 0.001-0.002l0.917-1.588-1.701-0.982zM29.804 12.119l-1.701 0.982 1.926 3.335 1.624-0.938 0.039 0.022 0.039-0.067c0 0-0.008-0.013-0.022-0.037l-0-0c-0.007-0.012-0.015-0.026-0.025-0.043l-0-0c-0-0-0-0.001-0.001-0.001l-0.001-0.001c-0.002-0.004-0.005-0.008-0.007-0.013l-0-0.001c-0.002-0.003-0.004-0.007-0.006-0.011v0c-0.001-0.001-0.001-0.002-0.002-0.003l-0.002-0.003c-0-0-0-0-0-0l-0.001-0.001c-0.001-0.001-0.001-0.002-0.002-0.003l-0-0.001c-0.001-0.001-0.001-0.002-0.002-0.003l-0-0c-0.001-0.001-0.001-0.002-0.002-0.003l-0.001-0.002c-0-0-0-0.001-0.001-0.001l-0-0c-0-0.001-0.001-0.001-0.001-0.002l-0-0.001c-0-0-0-0.001-0.001-0.001l-0-0.001c-0-0-0-0.001-0-0.001l-0.019-0.032c-0-0-0-0-0-0.001l-0.003-0.005c-0-0.001-0.001-0.001-0.001-0.002l-1.825-3.162zM25.875 5.315l-1.701 0.982 1.964 3.402 1.701-0.982-1.964-3.402zM23.865 1.833h-3.928v1.964h3.928v-1.857l0.046-0.027-0.046-0.080z"></path>
</svg>
