<!-- Generated by IcoMoon.io -->
<svg version="1.1" xmlns="http://www.w3.org/2000/svg" width="32" height="32" viewBox="0 0 32 32">
<title>database</title>
<path d="M16 13.283c2.68 0 5.185-0.243 7.515-0.729s4.168-1.204 5.513-2.154v2.884c0 0.78-0.582 1.504-1.747 2.171s-2.748 1.196-4.75 1.586-4.179 0.585-6.531 0.585c-2.352 0-4.529-0.195-6.531-0.585s-3.585-0.919-4.75-1.586c-1.165-0.667-1.747-1.391-1.747-2.171v-2.884c1.346 0.95 3.184 1.668 5.513 2.154s4.835 0.729 7.515 0.729zM16 26.312c2.68 0 5.185-0.243 7.515-0.729s4.168-1.204 5.513-2.154v2.884c0 0.78-0.582 1.504-1.747 2.171s-2.748 1.196-4.75 1.586c-2.002 0.39-4.179 0.585-6.531 0.585s-4.529-0.195-6.531-0.585-3.585-0.919-4.75-1.586c-1.165-0.667-1.747-1.391-1.747-2.171v-2.884c1.346 0.95 3.184 1.668 5.513 2.154s4.835 0.729 7.515 0.729zM16 19.797c2.68 0 5.185-0.243 7.515-0.729s4.168-1.204 5.513-2.154v2.884c0 0.78-0.582 1.504-1.747 2.171s-2.748 1.196-4.75 1.586-4.179 0.585-6.531 0.585c-2.352 0-4.529-0.195-6.531-0.585s-3.585-0.919-4.75-1.586c-1.165-0.667-1.747-1.391-1.747-2.171v-2.884c1.346 0.95 3.184 1.668 5.513 2.154s4.835 0.729 7.515 0.729zM16 0.255c2.352 0 4.529 0.195 6.531 0.585s3.585 0.919 4.75 1.586c1.165 0.667 1.747 1.391 1.747 2.171v2.171c0 0.78-0.582 1.504-1.747 2.171s-2.748 1.196-4.75 1.586-4.179 0.585-6.531 0.585c-2.352 0-4.529-0.195-6.531-0.585s-3.585-0.919-4.75-1.586c-1.165-0.667-1.747-1.391-1.747-2.171v-2.171c0-0.78 0.582-1.504 1.747-2.171s2.748-1.196 4.75-1.586 4.179-0.585 6.531-0.585z"></path>
</svg>
