<!-- Generated by IcoMoon.io -->
<svg version="1.1" xmlns="http://www.w3.org/2000/svg" width="32" height="32" viewBox="0 0 32 32">
<title>database-o</title>
<path d="M28.948 12.126c0-0.007-0-0.015-0.001-0.022v-6.479c0-0.007 0.001-0.014 0.001-0.023s-0-0.016-0.001-0.023v-0.218c0-0.138-0.031-0.273-0.091-0.402-0.351-1.273-1.711-2.435-3.836-3.275-2.335-0.924-5.454-1.412-9.020-1.412-3.563 0-6.68 0.488-9.015 1.41-2.124 0.839-3.485 2-3.839 3.27-0.062 0.131-0.094 0.268-0.094 0.409v20.423c0 0.261 0.108 0.511 0.299 0.696 0.285 0.56 0.768 1.091 1.435 1.577 0.699 0.509 1.583 0.957 2.629 1.332 2.28 0.817 5.248 1.248 8.585 1.248s6.307-0.432 8.587-1.249c1.046-0.375 1.93-0.823 2.629-1.333 0.667-0.487 1.15-1.018 1.435-1.578 0.189-0.185 0.296-0.433 0.296-0.693v-0.454c0-0.007 0.001-0.014 0.001-0.023 0-0.007-0-0.015-0.001-0.022v-6.613c0-0.007 0.001-0.014 0.001-0.023 0-0.007-0-0.015-0.001-0.022v-6.479c0-0.007 0.001-0.014 0.001-0.023zM8.87 16.653c2.049 0.533 4.448 0.803 7.13 0.803s5.080-0.27 7.129-0.802c1.432-0.372 2.663-0.872 3.616-1.463v3.412c-0.004 0.467-0.336 0.949-0.946 1.402-0.443 0.278-1.032 0.562-1.795 0.833-2.129 0.756-4.972 1.172-8.004 1.172-3.037 0-5.882-0.417-8.013-1.175-0.758-0.27-1.344-0.552-1.785-0.829-0.615-0.456-0.948-0.941-0.948-1.411 0-0.002-0.001-0.004-0.001-0.006v-3.399c0.953 0.592 2.184 1.091 3.616 1.464zM24.004 14.312c-2.129 0.755-4.972 1.171-8.004 1.171-3.037 0-5.882-0.417-8.013-1.175-1.282-0.456-2.072-0.948-2.5-1.388-0.153-0.232-0.233-0.465-0.233-0.694 0-0.002-0.001-0.004-0.001-0.006v-3.555c0.953 0.592 2.184 1.091 3.616 1.464 2.049 0.533 4.448 0.803 7.13 0.803s5.080-0.27 7.129-0.802c1.432-0.372 2.663-0.872 3.616-1.463v3.569c-0.002 0.227-0.081 0.457-0.232 0.686-0.429 0.442-1.221 0.936-2.509 1.392zM26.745 5.851v0.015c-0.001 0.107-0.019 0.214-0.053 0.322-0.367 0.491-1.194 1.070-2.688 1.6-2.129 0.755-4.972 1.172-8.004 1.172-3.037 0-5.882-0.417-8.013-1.175-1.489-0.529-2.313-1.107-2.679-1.597-0.035-0.11-0.053-0.22-0.053-0.33 0-1.588 3.802-3.344 9.412-3.588 0.439-0.018 0.884-0.027 1.333-0.027s0.895 0.009 1.334 0.027c5.6 0.244 9.398 1.995 9.411 3.58zM5.255 25.093c0-0.002-0.001-0.004-0.001-0.006v-3.372c0.953 0.592 2.184 1.091 3.616 1.464 2.049 0.533 4.448 0.803 7.13 0.803s5.080-0.27 7.129-0.802c1.432-0.372 2.663-0.872 3.616-1.463v3.386c-0.008 1.090-1.805 2.258-4.746 2.961-1.778 0.394-3.84 0.605-5.999 0.605s-4.221-0.211-5.998-0.605c-2.949-0.705-4.748-1.876-4.748-2.968z"></path>
</svg>
