<!-- Generated by IcoMoon.io -->
<svg version="1.1" xmlns="http://www.w3.org/2000/svg" width="32" height="32" viewBox="0 0 32 32">
<title>difference</title>
<path d="M19.321 2.55h1.958l0.003-3.095h-3.096v1.961h1.134zM19.321 3.992h1.961v3.096h-1.961v-3.095zM0.036 13.068h1.961v3.096h-1.961v-3.095zM0.036 3.992h1.961v3.096h-1.961v-3.095zM0.036 8.53h1.961v3.095h-1.961v-3.095zM9.111-0.545h3.095v1.961h-3.095v-1.961zM10.725 10.035h10.695v10.695h-10.695v-10.695zM0.036 2.55h1.961v-1.134h1.134v-1.961h-3.095zM4.573-0.545h3.095v1.961h-3.095v-1.961zM13.649-0.545h3.095v1.961h-3.095v-1.961zM4.573 18.74h3.095v1.961h-3.095v-1.961zM1.997 17.605h-1.961v3.096h3.095v-1.961h-1.134zM24.225 9.913h3.139v1.988h-3.139v-1.988zM24.225 29.466h3.139v1.988h-3.139v-1.988zM19.624 29.466h3.139v1.988h-3.139v-1.988zM29.976 13.051h1.988v-3.139h-3.139v1.988h1.15zM29.976 14.514h1.988v3.139h-1.988v-3.139zM29.976 29.466h-1.15v1.988h3.139v-3.139h-1.988zM15.023 29.466h3.139v1.988h-3.139v-1.988zM30.156 19.114l-0.18 3.139h1.988l0.18-3.139zM29.976 23.715h1.988v3.139h-1.988v-3.139zM10.423 23.715h1.988v3.139h-1.988v-3.139zM12.411 28.316h-1.988v3.139h3.139v-1.988h-1.15z"></path>
</svg>
