<!-- Generated by IcoMoon.io -->
<svg version="1.1" xmlns="http://www.w3.org/2000/svg" width="32" height="32" viewBox="0 0 32 32">
<title>directory-open-o</title>
<path d="M29.967 16.072c0-0.394-0.298-0.59-0.894-0.59h-18.356c-0.45 0-0.931 0.121-1.442 0.363s-0.914 0.537-1.206 0.886l-4.96 6.124c-0.202 0.27-0.304 0.495-0.304 0.675 0 0.394 0.298 0.59 0.894 0.59h18.356c0.45 0 0.934-0.124 1.451-0.371s0.917-0.545 1.198-0.894l4.96-6.124c0.202-0.247 0.304-0.467 0.304-0.658zM10.717 13.322h12.957v-2.699c0-0.45-0.157-0.832-0.472-1.147s-0.697-0.472-1.147-0.472h-9.718c-0.45 0-0.832-0.157-1.147-0.472s-0.472-0.697-0.472-1.147v-1.080c0-0.45-0.157-0.832-0.472-1.147s-0.697-0.472-1.147-0.472h-5.399c-0.45 0-0.832 0.157-1.147 0.472s-0.472 0.697-0.472 1.147v14.391l4.319-5.314c0.495-0.596 1.147-1.088 1.957-1.476s1.597-0.582 2.362-0.582zM32.127 16.072c0 0.697-0.259 1.372-0.776 2.024l-4.977 6.124c-0.484 0.596-1.136 1.088-1.957 1.476s-1.608 0.582-2.362 0.582h-18.356c-1.035 0-1.923-0.371-2.666-1.113s-1.113-1.631-1.113-2.666v-16.196c0-1.035 0.371-1.923 1.113-2.666s1.631-1.113 2.666-1.113h5.399c1.035 0 1.923 0.371 2.666 1.113s1.113 1.631 1.113 2.666v0.54h9.178c1.035 0 1.923 0.371 2.666 1.113s1.113 1.631 1.113 2.666v2.699h3.239c0.607 0 1.164 0.138 1.67 0.413s0.883 0.672 1.13 1.189c0.169 0.36 0.253 0.742 0.253 1.147z"></path>
</svg>
