<!-- Generated by IcoMoon.io -->
<svg version="1.1" xmlns="http://www.w3.org/2000/svg" width="32" height="32" viewBox="0 0 32 32">
<title>directory-open</title>
<path d="M31.911 16.577c0 0.351-0.176 0.726-0.527 1.122l-5.714 6.735c-0.488 0.578-1.171 1.069-2.049 1.471s-1.692 0.604-2.44 0.604h-18.503c-0.385 0-0.728-0.074-1.029-0.221s-0.451-0.391-0.451-0.731c0-0.351 0.176-0.726 0.527-1.122l5.714-6.735c0.488-0.578 1.171-1.069 2.049-1.471s1.692-0.604 2.44-0.604h18.503c0.386 0 0.728 0.074 1.029 0.221s0.451 0.391 0.451 0.731zM26.078 10.727v2.721h-14.149c-1.066 0-2.183 0.269-3.35 0.808s-2.097 1.216-2.789 2.032l-5.816 6.837c0-0.045-0.003-0.116-0.009-0.213s-0.009-0.167-0.009-0.213v-16.326c0-1.043 0.374-1.939 1.122-2.687s1.644-1.122 2.687-1.122h5.442c1.043 0 1.939 0.374 2.687 1.122s1.122 1.644 1.122 2.687v0.544h9.252c1.043 0 1.939 0.374 2.687 1.122s1.122 1.644 1.122 2.687z"></path>
</svg>
