<!-- Generated by IcoMoon.io -->
<svg version="1.1" xmlns="http://www.w3.org/2000/svg" width="32" height="32" viewBox="0 0 32 32">
<title>directory</title>
<path d="M30.857 10.312v12.571c0 1.095-0.393 2.036-1.179 2.821s-1.726 1.179-2.821 1.179h-21.714c-1.095 0-2.036-0.393-2.821-1.179s-1.179-1.726-1.179-2.821v-17.143c0-1.095 0.393-2.036 1.179-2.821s1.726-1.179 2.821-1.179h5.714c1.095 0 2.036 0.393 2.821 1.179s1.179 1.726 1.179 2.821v0.571h12c1.095 0 2.036 0.393 2.821 1.179s1.179 1.726 1.179 2.821z"></path>
</svg>
