<!-- Generated by IcoMoon.io -->
<svg version="1.1" xmlns="http://www.w3.org/2000/svg" width="32" height="32" viewBox="0 0 32 32">
<title>discretize</title>
<path d="M20.685 15.438c0 2.355-1.909 4.264-4.264 4.264s-4.264-1.909-4.264-4.264c0-2.355 1.909-4.264 4.264-4.264s4.264 1.909 4.264 4.264zM14.985 5.896c0 2.355-1.909 4.264-4.264 4.264s-4.264-1.909-4.264-4.264c0-2.355 1.909-4.264 4.264-4.264s4.264 1.909 4.264 4.264zM25.484 25c0 2.355-1.909 4.264-4.264 4.264s-4.264-1.909-4.264-4.264c0-2.355 1.909-4.264 4.264-4.264s4.264 1.909 4.264 4.264zM29.825 12.29c-0.841-0.84-1.959-1.303-3.148-1.303s-2.307 0.463-3.148 1.303c-0.841 0.841-1.304 1.958-1.304 3.148 0 2.455 1.997 4.452 4.452 4.452 1.189 0 2.307-0.463 3.148-1.304s1.304-1.959 1.304-3.147c0-1.189-0.463-2.307-1.304-3.148zM26.677 18.851c-1.882 0-3.413-1.531-3.413-3.413-0-0.91 0.355-1.767 1.001-2.412s1.502-1.001 2.413-1.001c1.882 0 3.413 1.531 3.413 3.413s-1.531 3.413-3.413 3.413zM21.22 10.347c1.19 0 2.308-0.463 3.148-1.304s1.303-1.959 1.303-3.147c0-1.189-0.463-2.307-1.303-3.148s-1.959-1.303-3.148-1.303c-1.189 0-2.306 0.463-3.147 1.303s-1.304 1.959-1.304 3.148c0 2.455 1.997 4.452 4.451 4.452zM21.22 2.482c1.882 0 3.413 1.531 3.413 3.413s-1.531 3.413-3.413 3.413c-1.882 0-3.413-1.531-3.413-3.413s1.531-3.413 3.413-3.413zM9.809 15.438c0-1.189-0.463-2.307-1.304-3.148s-1.959-1.303-3.148-1.303c-1.189 0-2.307 0.463-3.147 1.303s-1.303 1.958-1.303 3.148c0 1.189 0.463 2.307 1.303 3.148s1.958 1.304 3.147 1.304c2.455-0 4.452-1.997 4.452-4.452zM5.357 18.851c-1.882 0-3.412-1.531-3.412-3.413s1.531-3.413 3.412-3.413c1.882 0 3.414 1.531 3.414 3.413s-1.531 3.413-3.414 3.413zM10.721 20.548c-1.189 0-2.307 0.463-3.147 1.303s-1.303 1.958-1.303 3.148c0 1.189 0.463 2.307 1.303 3.148s1.958 1.304 3.147 1.304c2.455-0 4.452-1.997 4.452-4.452 0-1.189-0.463-2.307-1.304-3.148s-1.959-1.303-3.148-1.303zM10.721 28.413c-1.882 0-3.412-1.531-3.412-3.413s1.531-3.413 3.412-3.413c1.882 0 3.414 1.531 3.414 3.413s-1.531 3.413-3.414 3.413z"></path>
</svg>
