<!-- Generated by IcoMoon.io -->
<svg version="1.1" xmlns="http://www.w3.org/2000/svg" width="32" height="32" viewBox="0 0 32 32">
<title>donut-chart</title>
<path d="M20.581 12.885l10.585-4.472c-1.633-3.847-4.674-6.669-8.271-8.122l-4.294 10.578c0.827 0.484 1.513 1.18 1.98 2.017zM21.272 14.454c0.065 0.335 0.102 0.68 0.102 1.035 0 2.961-2.406 5.362-5.375 5.362s-5.374-2.401-5.374-5.362c0-2.961 2.406-5.362 5.374-5.362 0.326 0 0.644 0.034 0.954 0.089l3.703-9.122c-3.345-1.078-7.078-1.012-10.569 0.463-7.712 3.259-11.316 12.137-8.050 19.829 3.265 7.693 12.165 11.288 19.877 8.030 7.37-3.114 10.984-11.36 8.438-18.8l-9.082 3.837z"></path>
</svg>
