<!-- Generated by IcoMoon.io -->
<svg version="1.1" xmlns="http://www.w3.org/2000/svg" width="32" height="32" viewBox="0 0 32 32">
<title>dotted-stroke</title>
<path d="M22.255 1.418h-0.196c-0.759 0-1.375 0.616-1.375 1.375s0.616 1.375 1.375 1.375h0.196c0.759 0 1.375-0.616 1.375-1.375s-0.616-1.375-1.375-1.375v0zM14.791 1.418h-0.196c-0.759 0-1.375 0.616-1.375 1.375s0.616 1.375 1.375 1.375h0.196c0.759 0 1.375-0.616 1.375-1.375s-0.616-1.375-1.375-1.375v0zM6.93 3.477c-0.475 0-0.937 0.247-1.192 0.688l-0.098 0.17c-0.38 0.658-0.154 1.499 0.503 1.878 0.216 0.125 0.453 0.184 0.686 0.184 0.474 0 0.935-0.246 1.19-0.685l0.101-0.174c0.379-0.657 0.153-1.497-0.504-1.877-0.217-0.125-0.453-0.184-0.686-0.184v0zM3.198 9.941c-0.475 0-0.937 0.247-1.192 0.688l-0.098 0.17c-0.38 0.658-0.154 1.499 0.503 1.878 0.216 0.125 0.453 0.184 0.686 0.184 0.475 0 0.937-0.246 1.192-0.687l0.050-0.086c0-0 0-0 0-0.001l0-0c0-0 0-0 0-0l0-0.001c0-0 0-0 0-0l0.001-0.001c0-0 0-0.001 0-0.001l0-0c0-0 0-0 0-0.001l0-0c0.001-0.002 0.002-0.003 0.003-0.005v-0c0.022-0.039 0.043-0.075 0.043-0.075 0.38-0.658 0.154-1.499-0.503-1.878-0.217-0.125-0.453-0.184-0.686-0.184v0zM2.631 17.78c-0.233 0-0.47 0.059-0.686 0.184-0.658 0.38-0.883 1.221-0.503 1.878l0.098 0.17c0.255 0.441 0.717 0.688 1.192 0.688 0.233 0 0.47-0.059 0.686-0.184 0.658-0.38 0.883-1.221 0.503-1.878l-0.098-0.17c-0.255-0.441-0.717-0.688-1.192-0.688v0zM6.363 24.244c-0.233 0-0.47 0.059-0.686 0.184-0.658 0.38-0.883 1.221-0.503 1.878l0.098 0.17c0.255 0.441 0.717 0.688 1.192 0.688 0.233 0 0.47-0.059 0.686-0.184 0.658-0.38 0.883-1.221 0.503-1.878l-0.098-0.17c-0.255-0.441-0.717-0.688-1.192-0.688v0zM13.86 27.28h-0.196c-0.759 0-1.375 0.616-1.375 1.375s0.616 1.375 1.375 1.375h0.196c0.759 0 1.375-0.616 1.375-1.375s-0.616-1.375-1.375-1.375v0zM21.324 27.28h-0.196c-0.759 0-1.375 0.616-1.375 1.375s0.616 1.375 1.375 1.375h0.196c0.759 0 1.375-0.616 1.375-1.375s-0.616-1.375-1.375-1.375v0zM26.714 20.935c-0.475 0-0.937 0.246-1.192 0.687l-0.023 0.039c-0 0-0.001 0.001-0.001 0.002l-0 0.001c-0 0-0 0-0 0l-0.001 0.001c-0 0-0 0.001-0.001 0.001l-0 0.001c-0.029 0.050-0.073 0.126-0.073 0.126-0.38 0.658-0.154 1.499 0.503 1.878 0.216 0.125 0.453 0.184 0.686 0.184 0.475 0 0.937-0.247 1.192-0.688l0.098-0.17c0.38-0.658 0.154-1.499-0.503-1.878-0.217-0.125-0.453-0.184-0.686-0.184v0zM29.791 13.096c-0.233 0-0.47 0.059-0.686 0.184-0.658 0.38-0.883 1.221-0.503 1.878 0 0 0.059 0.102 0.085 0.148l0 0c0 0.001 0.001 0.001 0.001 0.002l0 0.001c0 0 0 0 0 0l0.001 0.001c0 0 0 0 0 0l0.001 0.002c0 0 0 0 0 0l0.009 0.016c0.255 0.441 0.717 0.688 1.192 0.688 0.233 0 0.47-0.059 0.686-0.184 0.658-0.38 0.883-1.221 0.503-1.878l-0.098-0.17c-0.255-0.441-0.717-0.688-1.192-0.688v0zM26.058 6.632c-0.233 0-0.47 0.059-0.686 0.184-0.658 0.38-0.883 1.221-0.503 1.878l0.098 0.17c0.255 0.441 0.717 0.688 1.192 0.688 0.233 0 0.47-0.059 0.686-0.184 0.658-0.38 0.883-1.221 0.503-1.878l-0.098-0.17c-0.255-0.441-0.717-0.688-1.192-0.688v0z"></path>
</svg>
