<!-- Generated by IcoMoon.io -->
<svg version="1.1" xmlns="http://www.w3.org/2000/svg" width="32" height="32" viewBox="0 0 32 32">
<title>draw-extent</title>
<path d="M7.033 0.029c-0.383-0.383-0.849-0.574-1.397-0.574-0.538 0-1.009 0.191-1.413 0.574l-3.633 3.649c-0.393 0.393-0.59 0.864-0.59 1.413 0 0.559 0.197 1.025 0.59 1.397l2.562 2.577 6.459-6.459-2.577-2.577zM15.34 8.335l-4.735-4.735-6.459 6.459 4.737 4.737v16.698h3.165v-0.038h19.953v-23.119h-16.66zM11.527 14.459l-4.633-4.633c-0.072-0.072-0.109-0.16-0.109-0.264 0-0.228 0.114-0.342 0.342-0.342 0.104 0 0.191 0.036 0.264 0.109l8.415 8.415c0.072 0.072 0.109 0.16 0.109 0.264 0 0.228-0.114 0.342-0.342 0.342-0.104 0-0.191-0.036-0.264-0.109l-3.782-3.781zM28.835 28.29h-16.788v-10.329l5.016 5.016h6.459v-6.459l-5.017-5.017h10.331v16.789zM16.473 19.576l3.649-3.649 1.413 1.413 0.091 3.674-3.739-0.025-1.413-1.413z"></path>
</svg>
