<!-- Generated by IcoMoon.io -->
<svg version="1.1" xmlns="http://www.w3.org/2000/svg" width="32" height="32" viewBox="0 0 32 32">
<title>draw-line</title>
<path d="M4.145 10.059l12.917 12.917h6.459v-6.459l-12.917-12.917-6.459 6.459zM20.121 15.927l1.413 1.413 0.091 3.674-3.739-0.025-1.413-1.413 3.649-3.649zM15.914 18.008c0 0.228-0.114 0.342-0.342 0.342-0.104 0-0.191-0.036-0.264-0.109l-8.415-8.415c-0.072-0.072-0.109-0.16-0.109-0.264 0-0.228 0.114-0.342 0.342-0.342 0.104 0 0.191 0.036 0.264 0.109l8.415 8.415c0.072 0.072 0.109 0.16 0.109 0.264zM7.033 0.029c-0.383-0.383-0.849-0.574-1.397-0.574-0.538 0-1.009 0.191-1.413 0.574l-3.633 3.649c-0.393 0.393-0.59 0.864-0.59 1.413 0 0.559 0.197 1.025 0.59 1.397l2.562 2.577 6.459-6.459-2.577-2.577zM16.473 27.976h15.347v3.3h-15.347v-3.3z"></path>
</svg>
