<!-- Generated by IcoMoon.io -->
<svg version="1.1" xmlns="http://www.w3.org/2000/svg" width="32" height="32" viewBox="0 0 32 32">
<title>draw</title>
<path d="M27.241 22.499l-1.625-1.625-4.196 4.196 1.625 1.625 4.301 0.029zM20.080 23.535c0.083 0.083 0.185 0.125 0.304 0.125 0.262 0 0.393-0.131 0.393-0.393 0-0.119-0.042-0.22-0.125-0.304l-9.679-9.679c-0.083-0.083-0.185-0.125-0.304-0.125-0.262 0-0.393 0.131-0.393 0.393 0 0.119 0.042 0.22 0.125 0.304zM7.241 14.124l7.429-7.429 14.857 14.857v7.429h-7.429l-14.857-14.857zM8.955 1.928c0.631 0 1.167 0.22 1.607 0.661l2.964 2.964-7.429 7.429-2.946-2.964c-0.452-0.429-0.679-0.964-0.679-1.607 0-0.631 0.226-1.173 0.679-1.625l4.179-4.196c0.464-0.44 1.006-0.661 1.625-0.661z"></path>
</svg>
