<!-- Generated by IcoMoon.io -->
<svg version="1.1" xmlns="http://www.w3.org/2000/svg" width="32" height="32" viewBox="0 0 32 32">
<title>draw-polygon</title>
<path d="M7.033 0.029c-0.383-0.383-0.849-0.574-1.397-0.574-0.538 0-1.009 0.191-1.413 0.574l-3.633 3.649c-0.393 0.393-0.59 0.864-0.59 1.413 0 0.559 0.197 1.025 0.59 1.397l2.562 2.577 6.459-6.459-2.577-2.577zM28.221 18.364h-4.7v-1.847l-12.917-12.917-6.459 6.459 12.917 12.917h0.938l-1.116 1.933 3.779 6.545h7.558l3.779-6.545-3.779-6.545zM15.572 18.349c-0.104 0-0.191-0.036-0.264-0.109l-8.415-8.415c-0.072-0.072-0.109-0.16-0.109-0.264 0-0.228 0.114-0.342 0.342-0.342v0c0.074 0 0.139 0.019 0.197 0.055 0.024 0.015 0.046 0.033 0.067 0.054l8.415 8.415c0.072 0.072 0.109 0.16 0.109 0.264 0 0.228-0.114 0.342-0.342 0.342zM20.121 15.927l1.413 1.413 0.025 1.024 0.065 2.65-3.739-0.025-1.413-1.413 3.649-3.649zM26.82 29.027h-4.755l-2.378-4.118 1.116-1.933h2.718v-2.185h3.298l2.378 4.118-2.378 4.118z"></path>
</svg>
