<!-- Generated by IcoMoon.io -->
<svg version="1.1" xmlns="http://www.w3.org/2000/svg" width="32" height="32" viewBox="0 0 32 32">
<title>drone-quad-nano</title>
<path d="M3.984 15.575c0.032 0.441 0.345 0.773 0.782 0.827 1.988 0.247 3.744 0.48 5.095 0.828 1.361 0.35 2.259 0.798 2.913 1.452 1.407 1.408 1.787 3.96 2.29 8.008 0.055 0.442 0.374 0.748 0.814 0.782 0.032 0.006 0.070 0.012 0.113 0.012 0.005 0 0.010-0 0.016-0 0.027-0.001 0.052-0.005 0.071-0.007 0.012-0.002 0.023-0.003 0.031-0.004 0.446-0.026 0.771-0.333 0.826-0.783 0.503-4.048 0.883-6.601 2.29-8.008 0.655-0.654 1.553-1.102 2.913-1.452 1.351-0.347 3.107-0.58 5.096-0.828 0.436-0.057 0.748-0.388 0.781-0.825 0.007-0.039 0.013-0.084 0.012-0.133 0.001-0.048-0.005-0.086-0.012-0.122-0.033-0.436-0.345-0.767-0.782-0.825-1.988-0.247-3.744-0.48-5.095-0.828-1.36-0.35-2.259-0.798-2.913-1.452-1.407-1.407-1.787-3.96-2.29-8.008-0.056-0.45-0.38-0.757-0.826-0.783-0.008-0-0.019-0.002-0.031-0.004-0.020-0.003-0.044-0.006-0.072-0.007-0.005-0-0.011-0-0.016-0-0.043 0-0.081 0.006-0.113 0.012-0.439 0.034-0.758 0.34-0.814 0.782-0.503 4.048-0.883 6.6-2.29 8.008-0.654 0.654-1.553 1.102-2.913 1.452-1.351 0.347-3.107 0.58-5.095 0.828-0.437 0.054-0.75 0.386-0.782 0.826-0.007 0.045-0.004 0.081-0.002 0.108 0 0.004 0.001 0.008 0.001 0.013s-0.001 0.009-0.001 0.014c-0.002 0.030-0.005 0.071 0.002 0.117zM13.414 9.211l0.206 0.121 0.058-0.232c0.094-0.378 0.176-0.77 0.244-1.167l0.019-0.11-0.091-0.065c-0.478-0.342-0.874-0.798-1.146-1.318-0.28-0.537-0.429-1.144-0.429-1.758 0-1.014 0.392-1.964 1.103-2.675s1.662-1.103 2.675-1.103 1.964 0.392 2.675 1.103 1.103 1.662 1.103 2.675c0 1.274-0.62 2.451-1.658 3.15l-0.097 0.066 0.022 0.115c0.084 0.449 0.159 0.798 0.244 1.132l0.057 0.225 0.203-0.113c0.801-0.447 1.473-1.1 1.945-1.887 0.485-0.81 0.741-1.739 0.741-2.688 0-2.887-2.348-5.235-5.235-5.235s-5.235 2.348-5.235 5.235c0 0.93 0.247 1.845 0.715 2.645 0.455 0.778 1.105 1.43 1.88 1.884zM18.597 21.709l-0.201-0.119-0.062 0.225c-0.113 0.413-0.201 0.788-0.267 1.147l-0.021 0.112 0.093 0.066c0.48 0.342 0.879 0.799 1.153 1.321 0.282 0.539 0.432 1.149 0.432 1.765 0 1.014-0.392 1.964-1.103 2.675s-1.662 1.103-2.675 1.103c-1.015 0-1.967-0.392-2.681-1.104s-1.109-1.662-1.109-2.675c0-1.265 0.628-2.443 1.68-3.15l0.097-0.065-0.021-0.115c-0.075-0.409-0.155-0.78-0.244-1.133l-0.057-0.225-0.203 0.113c-1.664 0.927-2.697 2.68-2.697 4.575 0 2.887 2.348 5.235 5.235 5.235s5.235-2.348 5.235-5.235c0-0.927-0.246-1.839-0.712-2.637-0.452-0.775-1.099-1.426-1.871-1.881zM8.491 17.532l-0.111-0.020-0.066 0.092c-0.341 0.478-0.798 0.874-1.322 1.146-0.539 0.28-1.149 0.428-1.765 0.428-1.014 0-1.964-0.392-2.675-1.103s-1.103-1.662-1.103-2.675c0-1.015 0.392-1.967 1.104-2.681s1.662-1.109 2.675-1.109c1.261 0 2.434 0.624 3.139 1.669l0.065 0.096 0.114-0.020c0.405-0.072 0.771-0.14 1.144-0.233l0.226-0.057-0.114-0.204c-0.928-1.663-2.681-2.697-4.575-2.697-2.887 0-5.235 2.348-5.235 5.235s2.348 5.235 5.235 5.235c0.927 0 1.84-0.248 2.639-0.717 0.774-0.454 1.424-1.104 1.879-1.878l0.119-0.203-0.227-0.060c-0.408-0.108-0.809-0.185-1.147-0.245zM26.773 10.274c-0.928 0-1.84 0.246-2.638 0.711-0.775 0.452-1.425 1.1-1.88 1.872l-0.119 0.202 0.226 0.061c0.423 0.115 0.798 0.202 1.146 0.267l0.112 0.021 0.066-0.093c0.342-0.48 0.799-0.878 1.322-1.152 0.539-0.283 1.149-0.432 1.764-0.432 1.014 0 1.964 0.392 2.675 1.103s1.103 1.662 1.103 2.675c0 1.015-0.392 1.967-1.104 2.681s-1.662 1.109-2.675 1.109c-1.265 0-2.443-0.628-3.15-1.68l-0.066-0.098-0.116 0.022c-0.342 0.065-0.702 0.146-1.132 0.255l-0.225 0.057 0.113 0.203c0.447 0.801 1.099 1.473 1.887 1.945 0.81 0.485 1.739 0.741 2.688 0.741 2.887 0 5.235-2.348 5.235-5.235s-2.348-5.235-5.235-5.235z"></path>
</svg>
