<!-- Generated by IcoMoon.io -->
<svg version="1.1" xmlns="http://www.w3.org/2000/svg" width="32" height="32" viewBox="0 0 32 32">
<title>drone-remote</title>
<path d="M21.236 31.455v-0zM30.358 9.132h-11.094v-2.576c0-0.472-0.294-0.859-0.653-0.859h-1.958v-5.151c0-0.472-0.292-0.859-0.653-0.859s-0.653 0.386-0.653 0.859v5.151h-1.958c-0.36 0-0.653 0.386-0.653 0.859v2.576h-11.094c-0.36 0-0.653 0.386-0.653 0.859v20.605c0 0.472 0.292 0.858 0.653 0.858h28.715c0.359 0 0.653-0.386 0.653-0.858v-20.605c-0-0.472-0.294-0.859-0.653-0.859zM10.642 22.061c-0.247 0-0.456-0.087-0.629-0.259s-0.259-0.383-0.259-0.63v-1.779c0-0.247 0.086-0.457 0.259-0.63s0.382-0.26 0.629-0.26h3.258c-0.373 0.495-0.594 1.111-0.594 1.779s0.221 1.284 0.594 1.779l-3.258-0zM18.043 25.916c0 0.247-0.086 0.457-0.259 0.63s-0.382 0.259-0.629 0.259h-1.776c-0.247 0-0.456-0.087-0.629-0.259s-0.259-0.383-0.259-0.63v-3.265c0.495 0.372 1.11 0.592 1.776 0.592s1.282-0.22 1.776-0.592v3.265zM18.043 17.913c-0.495-0.372-1.11-0.592-1.776-0.592s-1.281 0.22-1.776 0.592v-3.265c0-0.247 0.086-0.457 0.259-0.63s0.382-0.259 0.629-0.259h1.776c0.247 0 0.456 0.086 0.629 0.259s0.259 0.383 0.259 0.63l-0 3.265zM22.78 21.172c0 0.247-0.086 0.457-0.259 0.63s-0.382 0.259-0.629 0.259h-3.258c0.373-0.495 0.594-1.111 0.594-1.779s-0.221-1.284-0.594-1.779h-0v-0c0 0 0 0 0 0h3.258c0.247 0 0.456 0.087 0.629 0.259s0.259 0.383 0.259 0.63v1.779z"></path>
</svg>
