<!-- Generated by IcoMoon.io -->
<svg version="1.1" xmlns="http://www.w3.org/2000/svg" width="32" height="32" viewBox="0 0 32 32">
<title>drone-quad-off</title>
<path d="M26.53 15.455c3.139-1.152 5.364-4.172 5.364-7.709 0-4.49-3.695-8.186-8.186-8.186-3.536 0-6.556 2.225-7.709 5.364-1.152-3.139-4.172-5.364-7.709-5.364-4.49 0-8.186 3.695-8.186 8.186 0 3.537 2.225 6.556 5.364 7.709-3.139 1.152-5.364 4.172-5.364 7.709 0 4.49 3.695 8.186 8.186 8.186 3.537 0 6.556-2.225 7.709-5.364 1.152 3.139 4.172 5.364 7.709 5.364 4.49 0 8.186-3.695 8.186-8.186 0-3.536-2.225-6.556-5.364-7.709zM7.972 24.8c-0.926 0-1.677-0.751-1.677-1.677s0.751-1.677 1.677-1.677 1.677 0.751 1.677 1.677c0 0.926-0.751 1.677-1.677 1.677zM7.972 9.423c-0.926 0-1.677-0.751-1.677-1.677s0.751-1.677 1.677-1.677 1.677 0.751 1.677 1.677-0.751 1.677-1.677 1.677zM16 17.545c-1.155 0-2.091-0.936-2.091-2.091s0.936-2.091 2.091-2.091c1.155 0 2.091 0.936 2.091 2.091s-0.936 2.091-2.091 2.091zM23.669 24.8c-0.926 0-1.677-0.751-1.677-1.677s0.751-1.677 1.677-1.677 1.677 0.751 1.677 1.677-0.751 1.677-1.677 1.677zM23.7 9.423c-0.926 0-1.677-0.751-1.677-1.677s0.751-1.677 1.677-1.677 1.677 0.751 1.677 1.677-0.751 1.677-1.677 1.677z"></path>
</svg>
