<!-- Generated by IcoMoon.io -->
<svg version="1.1" xmlns="http://www.w3.org/2000/svg" width="32" height="32" viewBox="0 0 32 32">
<title>drone-wing-off</title>
<path d="M31.778 19.272c-0.051-1.332-0.711-2.317-1.877-3.102-2.916-1.963-5.748-4.051-8.611-6.092-1.175-0.838-2.223-1.787-2.721-3.203-0.052-0.147-0.147-0.28-0.226-0.417-1.122-1.948-3.118-2.018-4.114-0.013-0.877 1.764-2.215 2.947-3.802 3.985-2.912 1.906-5.8 3.847-8.671 5.813-0.416 0.285-0.809 0.738-0.994 1.2-0.882 2.215-0.462 4.523-0.515 6.951 0.575-0.255 0.985-0.416 1.376-0.614 2.656-1.344 5.266-2.791 7.977-4.011 1.724-0.776 3.052-1.849 3.965-3.478 0.134-0.238 0.343-0.434 0.61-0.764 1.265 1.56 2.609 1.5 3.943 0.051 0.431 0.636 0.811 1.104 1.089 1.626 0.557 1.046 1.381 1.737 2.432 2.285 3.062 1.597 6.082 3.274 9.12 4.918 0.27 0.146 0.55 0.274 1.012 0.503 0.009-1.986 0.076-3.814 0.006-5.637z"></path>
</svg>
