<!-- Generated by IcoMoon.io -->
<svg version="1.1" xmlns="http://www.w3.org/2000/svg" width="32" height="32" viewBox="0 0 32 32">
<title>drone-quad</title>
<path d="M26.53 15.455c3.139-1.152 5.364-4.172 5.364-7.709 0-4.49-3.695-8.186-8.186-8.186-3.536 0-6.556 2.225-7.709 5.364-1.152-3.139-4.172-5.364-7.709-5.364-4.49 0-8.186 3.695-8.186 8.186 0 3.537 2.225 6.556 5.364 7.709-3.139 1.152-5.364 4.172-5.364 7.709 0 4.49 3.695 8.186 8.186 8.186 3.537 0 6.556-2.225 7.709-5.364 1.152 3.139 4.172 5.364 7.709 5.364 4.49 0 8.186-3.695 8.186-8.186 0-3.536-2.225-6.556-5.364-7.709zM23.669 1.706c3.338 0 6.040 2.702 6.040 6.040s-2.702 6.040-6.040 6.040c-0.715 0-1.391-0.119-1.987-0.358-0.199-0.914-0.517-1.748-0.954-2.464l1.907-1.947c0.278 0.238 0.636 0.358 1.033 0.358 0.914 0 1.669-0.755 1.669-1.669s-0.755-1.669-1.669-1.669-1.669 0.755-1.669 1.669c0 0.397 0.159 0.755 0.358 1.033l-1.788 1.947c-0.755-1.152-1.748-2.027-2.901-2.424 0-0.199-0.040-0.358-0.040-0.517 0-3.338 2.702-6.040 6.040-6.040zM2.251 7.786c0-3.338 2.702-6.040 6.040-6.040s6.040 2.702 6.040 6.040c0.040 0.119 0 0.278 0 0.437-1.152 0.437-2.146 1.272-2.861 2.384l-1.868-1.828c0.238-0.278 0.358-0.636 0.358-1.033 0-0.914-0.755-1.669-1.669-1.669s-1.669 0.755-1.669 1.669 0.755 1.669 1.669 1.669c0.397 0 0.755-0.159 1.033-0.358l1.907 1.907c-0.437 0.755-0.755 1.589-0.954 2.503-0.636 0.238-1.311 0.358-1.987 0.358-3.338-0-6.040-2.702-6.040-6.040zM14.371 23.163c0 3.338-2.702 6.040-6.040 6.040s-6.040-2.702-6.040-6.040 2.702-6.040 6.040-6.040c0.715 0 1.391 0.119 1.987 0.358 0.199 0.914 0.517 1.788 0.954 2.503l-1.907 1.907c-0.278-0.238-0.636-0.358-1.033-0.358-0.914 0-1.669 0.755-1.669 1.669s0.755 1.669 1.669 1.669c0.914 0 1.669-0.755 1.669-1.669 0-0.397-0.119-0.755-0.358-1.033l1.868-1.828c0.755 1.113 1.748 1.987 2.861 2.384-0.040 0.119-0 0.278-0 0.437zM16 17.545c-1.155 0-2.091-0.936-2.091-2.091s0.936-2.091 2.091-2.091c1.155 0 2.091 0.936 2.091 2.091s-0.936 2.091-2.091 2.091zM23.709 29.163c-3.338 0-6.040-2.702-6.040-6.040-0.040-0.119 0-0.278 0-0.437 1.152-0.437 2.146-1.272 2.901-2.424l1.828 1.868c-0.238 0.278-0.358 0.636-0.358 1.033 0 0.914 0.755 1.669 1.669 1.669s1.669-0.755 1.669-1.669c0-0.914-0.755-1.669-1.669-1.669-0.397 0-0.755 0.119-1.033 0.358l-1.907-1.947c0.437-0.755 0.755-1.589 0.954-2.464 0.636-0.238 1.311-0.358 1.987-0.358 3.338 0 6.040 2.702 6.040 6.040s-2.702 6.040-6.040 6.040z"></path>
</svg>
