<!-- Generated by IcoMoon.io -->
<svg version="1.1" xmlns="http://www.w3.org/2000/svg" width="32" height="32" viewBox="0 0 32 32">
<title>dropper</title>
<path d="M9.581 14.124l5.088-5.088 12.185 12.185 3.499 6.791-1.798 1.797-6.791-3.5-12.184-12.184zM10.853 5.223l-3.068-3.069c-1.404-1.404-3.68-1.404-5.084 0s-1.404 3.68 0 5.084l3.068 3.068-1.272 1.271c-0.702 0.706-0.702 1.84 0 2.546 0.702 0.699 1.84 0.699 2.542 0l7.63-7.63c0.699-0.702 0.699-1.84 0-2.542-0.706-0.702-1.84-0.702-2.545 0l-1.272 1.272z"></path>
</svg>
