<!-- Generated by IcoMoon.io -->
<svg version="1.1" xmlns="http://www.w3.org/2000/svg" width="32" height="32" viewBox="0 0 32 32">
<title>filter</title>
<path d="M29.797 0.433h-28.819v2.449l5.471 0-3.022 5.351v-5.351h-2.449v27.594h30.043v-30.043h-1.224zM17.238 2.882h2.136v0.716l-8.601 15.232h-2.541l9.005-15.947zM15.168 18.829h-2.57l6.777-12.001v4.551l-4.207 7.45zM19.375 14.611v4.219h-2.382l2.382-4.219zM12.668 2.882h2.746l-9.005 15.947h-2.746l9.005-15.947zM3.427 11.464l4.846-8.582h2.57l-7.417 13.134v-4.552zM29.005 17.731v10.393h-25.577v-7.143h18.038v-18.099h7.539v14.849z"></path>
</svg>
