<!-- Generated by IcoMoon.io -->
<svg version="1.1" xmlns="http://www.w3.org/2000/svg" width="43" height="32" viewBox="0 0 43 32">
<title>foss4g-o</title>
<path d="M43.398 18.657l-1.347-3.953-1.854-5.416c-0.082-0.239-0.303-0.4-0.552-0.4-0.014 0-0.029 0.001-0.043 0.002-0.263 0.020-0.481 0.218-0.531 0.483-0.085 0.455-0.535 2.023-1.575 3.788-0.561 0.952-1.199 1.796-1.897 2.508-0.832 0.849-1.753 1.513-2.738 1.972-1.768 0.826-3.347 1.244-4.694 1.245-1.069 0-1.965-0.26-2.664-0.771-0.096-0.071-0.188-0.145-0.273-0.224 0.358-0.078 0.741-0.154 1.143-0.226 0.222-0.040 0.398-0.071 0.533-0.102 0.179-0.040 0.479-0.108 0.612-0.415 0.077-0.175 0.102-0.233-0.087-2.102-0.092-0.91-0.229-2.159-0.406-3.712-0.285-2.498-0.59-5.026-0.624-5.306l-0.001-0.008c-0.034-0.277-0.256-0.496-0.528-0.521-0.002-0-0.233-0.021-0.623-0.021-0.537 0-1.383 0.041-2.366 0.237-1.172 0.234-2.239 0.628-3.17 1.171-0.191 0.033-0.405 0.050-0.637 0.050-2.782 0-7.616-2.354-9.243-3.26-0.18-0.1-0.537-0.286-0.91-0.4-0.234-0.072-0.439-0.107-0.627-0.107-0.107 0-0.209 0.012-0.303 0.035l-0.174 0.063-0.224 0.135c-0.1 0.083-0.181 0.183-0.241 0.299l-6.818 8.456c-0.049 0.064-0.476 0.656-0.497 1.676-0.012 0.579 0.109 1.183 0.361 1.797 0.299 0.73 0.785 1.477 1.445 2.221 0.184 0.226 1.74 2.129 3.478 4.096 1.076 1.218 2.005 2.214 2.76 2.96 1.329 1.314 1.868 1.611 2.188 1.724l0.317 0.111 0.254-0.224c0.388-0.342 3.779-3.33 6.611-5.839 0.113 0.771 0.195 1.238 0.196 1.242 0.001 0.008 0.003 0.015 0.005 0.022 0 0 0.003 0.013 0.004 0.017 0.004 0.017 0.009 0.034 0.015 0.050l0.001 0.005 0.003 0.008c1.349 3.742 4.636 5.719 9.506 5.72v-0h0c2.095 0 4.006-0.372 5.241-0.683 1.602-0.404 3.173-1.071 4.669-1.98 1.192-0.725 2.34-1.605 3.41-2.616 1.824-1.722 2.79-3.22 2.83-3.283 0.098-0.154 0.122-0.349 0.063-0.522zM17.264 19.267c-2.639 2.34-5.816 5.141-6.885 6.083-0.264-0.178-0.719-0.545-1.482-1.3-0.737-0.729-1.647-1.705-2.705-2.902-1.819-2.059-3.44-4.051-3.456-4.070l-0.017-0.020c-0.988-1.111-1.511-2.198-1.512-3.145-0.001-0.619 0.215-0.969 0.254-1.026l6.080-7.54c0.593 1.072 2.181 3.067 4.839 6.079 2.045 2.318 4.107 4.529 4.607 5.062 0.065 0.88 0.158 1.815 0.277 2.78zM17 11.332c-0.109 0.934-0.146 2.048-0.109 3.318-0.865-0.936-2.258-2.456-3.643-4.025-1.38-1.563-2.491-2.879-3.303-3.909-1.382-1.753-1.52-2.207-1.534-2.281-0.005-0.024-0.008-0.046-0.011-0.065 0.053 0.009 0.124 0.025 0.217 0.055 0.262 0.085 0.523 0.221 0.655 0.295 0.019 0.011 1.941 1.077 4.275 2.016 1.813 0.729 3.358 1.175 4.603 1.329-0.592 0.643-0.969 1.715-1.15 3.266zM26.172 16.489c-0.845 0.151-2.258 0.403-3.754 0.995-1.662 0.657-2.957 1.557-3.857 2.679-0.158-1.123-0.344-2.666-0.443-4.277-0.109-1.755-0.094-3.24 0.043-4.413 0.155-1.324 0.482-2.272 0.922-2.671 2.124-1.925 5.020-2.133 6.166-2.133 0.017 0 0.034 0 0.052 0 0.462 3.846 0.981 8.391 1.087 9.781-0.069 0.013-0.142 0.026-0.213 0.038l-0.004 0.001zM22.433 18.764c0.256-0.112 0.605-0.266 1.163-0.444l0.393-0.038c0.465 0.601 1.702 1.797 4.179 1.797 1.515-0 3.258-0.455 5.179-1.353 1.111-0.519 2.146-1.263 3.078-2.213 0.766-0.781 1.463-1.702 2.073-2.737 0.533-0.905 0.914-1.756 1.171-2.412l1.278 3.733 1.249 3.665c-0.349 0.493-1.196 1.612-2.502 2.842-1.010 0.951-2.090 1.778-3.21 2.458-1.393 0.845-2.853 1.464-4.339 1.839-1.171 0.296-2.983 0.648-4.961 0.648s-3.671-0.352-5.031-1.046c-1.534-0.783-2.64-2.013-3.29-3.658 0.672-1.299 1.872-2.335 3.57-3.081z"></path>
</svg>
