<!-- Generated by IcoMoon.io -->
<svg version="1.1" xmlns="http://www.w3.org/2000/svg" width="43" height="32" viewBox="0 0 43 32">
<title>foss4g</title>
<path d="M43.39 18.655l-1.348-3.949-1.856-5.41c-0.081-0.237-0.302-0.397-0.549-0.397-0.014 0-0.028 0.001-0.043 0.002-0.262 0.020-0.479 0.217-0.528 0.479-0.085 0.455-0.535 2.021-1.576 3.785-0.561 0.951-1.201 1.794-1.899 2.506-0.833 0.849-1.756 1.512-2.741 1.971-1.77 0.825-3.351 1.244-4.699 1.244-1.070 0-1.968-0.259-2.669-0.771-0.099-0.072-0.192-0.148-0.279-0.229 0.36-0.079 0.745-0.155 1.15-0.227 0.222-0.040 0.398-0.071 0.534-0.101 0.179-0.040 0.477-0.107 0.61-0.413 0.076-0.174 0.102-0.232-0.087-2.098-0.092-0.909-0.229-2.156-0.407-3.708-0.296-2.592-0.612-5.198-0.625-5.309-0.033-0.275-0.254-0.493-0.525-0.517-0.002-0-0.235-0.021-0.623-0.021-0.537 0-1.384 0.041-2.367 0.237-1.173 0.234-2.24 0.627-3.172 1.17-0.191 0.033-0.406 0.050-0.639 0.050-2.785 0-7.623-2.351-9.253-3.257-0.18-0.1-0.537-0.285-0.91-0.399-0.234-0.072-0.439-0.107-0.627-0.107-0.108 0-0.21 0.012-0.305 0.036l-0.132 0.046-0.198 0.114c-0.1 0.082-0.246 0.22-0.306 0.336l-6.824 8.447c-0.049 0.064-0.475 0.655-0.496 1.672-0.012 0.578 0.109 1.181 0.361 1.793 0.299 0.729 0.786 1.475 1.446 2.217 0.184 0.225 1.739 2.124 3.481 4.091 1.077 1.216 2.006 2.211 2.762 2.957 1.33 1.312 1.868 1.609 2.189 1.721l0.316 0.11 0.255-0.224c0.636-0.56 3.871-3.405 6.619-5.835 0.112 0.767 0.196 1.242 0.197 1.247 0.001 0.007 0.003 0.015 0.005 0.022 0 0 0.003 0.013 0.004 0.017 0.004 0.017 0.009 0.033 0.014 0.050l0.001 0.002 0.003 0.008c1.349 3.738 4.638 5.713 9.512 5.714h0c2.096 0 4.009-0.371 5.245-0.683 1.603-0.404 3.175-1.069 4.672-1.978 1.193-0.724 2.341-1.603 3.413-2.613 1.824-1.719 2.792-3.216 2.832-3.279 0.097-0.153 0.121-0.346 0.062-0.518zM10.346 25.343c-0.264-0.177-0.72-0.544-1.486-1.3-0.738-0.728-1.648-1.703-2.707-2.899-1.812-2.046-3.443-4.046-3.459-4.066l-0.017-0.020c-0.99-1.11-1.513-2.197-1.514-3.144-0.001-0.619 0.216-0.97 0.255-1.027l6.088-7.536c0.591 1.069 2.182 3.064 4.845 6.076 2.048 2.316 4.113 4.526 4.612 5.058 0.065 0.88 0.158 1.815 0.277 2.78-2.639 2.336-5.825 5.139-6.894 6.079zM18.533 20.167c-0.158-1.122-0.345-2.667-0.445-4.28-0.109-1.753-0.094-3.237 0.043-4.409 0.157-1.342 0.477-2.265 0.924-2.67 2.127-1.924 5.026-2.132 6.174-2.132 0.018 0 0.037 0 0.055 0 0.463 3.845 0.983 8.391 1.089 9.776-0.068 0.012-0.14 0.025-0.211 0.038l-0.009 0.002c-0.845 0.151-2.26 0.403-3.757 0.993-1.666 0.657-2.963 1.558-3.863 2.681z"></path>
</svg>
