<!-- Generated by IcoMoon.io -->
<svg version="1.1" xmlns="http://www.w3.org/2000/svg" width="32" height="32" viewBox="0 0 32 32">
<title>gcp</title>
<path d="M27.875 8.33l-6.921-6.921c-0.158-0.158-0.362-0.317-0.611-0.475v8.007h8.007c-0.158-0.249-0.317-0.452-0.475-0.611zM17.44 17.415c0 0.787-0.638 1.424-1.424 1.424s-1.424-0.638-1.424-1.424c0-0.787 0.638-1.424 1.424-1.424s1.424 0.638 1.424 1.424zM19.8 11.112c-0.452 0-0.837-0.158-1.154-0.475s-0.475-0.701-0.475-1.154v-9.229h-13.571c-0.452 0-0.837 0.158-1.154 0.475s-0.475 0.701-0.475 1.154v27.143c0 0.452 0.158 0.837 0.475 1.154s0.701 0.475 1.154 0.475h22.8c0.452 0 0.837-0.158 1.154-0.475s0.475-0.701 0.475-1.154v-17.914h-9.229zM16.016 24.937c0 0-3.897-6.138-3.897-7.821s1.745-3.047 3.897-3.047c2.152 0 3.897 1.364 3.897 3.047s-3.897 7.821-3.897 7.821z"></path>
</svg>
