<!-- Generated by IcoMoon.io -->
<svg version="1.1" xmlns="http://www.w3.org/2000/svg" width="32" height="32" viewBox="0 0 32 32">
<title>gdal</title>
<path d="M18.483 6.598c0.049-0.002 0.102-0.002 0.157-0-0.055-0.002-0.107-0.002-0.157 0zM24.489 4.98l-0.294 1.546-0.918-0.515 1.037-2.059c0 0-0.459-0.726-1.159-1.077-0.672-0.337-1.586-0.299-1.586-0.299l-0.997 1.98-1.011-0.567 0.326-1.617-5.157-2.81-0.645 3.199 5.158 2.81 0.262-1.298 0.947 0.524-0.726 1.44c0 0 0.039 0.008 0.106 0.024-0.834-0.013-1.473 0.291-1.688 0.408 0.008-0.004 0.017-0.007 0.025-0.011-0.039 0.016-0.074 0.034-0.104 0.056-0.027 0.020-0.049 0.042-0.067 0.066-0.009 0.012-0.017 0.024-0.023 0.037-0.010 0.019-0.018 0.040-0.023 0.061-0.013 0.050-0.012 0.105 0.001 0.165 0.083 0.391 0.689 0.975 1.611 1.511l-0.211 1.15c-0.155 0.053-0.269 0.196-0.276 0.369-0.010 0.225 0.165 0.416 0.391 0.425s0.416-0.165 0.425-0.391c0.002-0.051-0.006-0.099-0.020-0.145l0.755-0.882c1.013 0.419 1.933 0.568 2.264 0.326 0.081-0.059 0.12-0.137 0.123-0.23 0-0.016 0-0.031-0.002-0.048-0.002-0.019-0.006-0.039-0.010-0.060 0 0 0 0.001 0 0.001-0.020-0.292-0.114-0.88-0.529-1.459l0.68-1.35 0.99 0.547-0.265 1.392 5.345 2.918 0.612-3.218-5.345-2.918zM21.243 7.481c-0.030-0.017-0.060-0.033-0.089-0.049-0.015-0.008-0.030-0.016-0.045-0.024 0.045 0.024 0.089 0.048 0.134 0.073zM19.701 8.632v0c0.106 0.059 0.213 0.116 0.32 0.17l-0.319 0.691 0.319-0.691c-0.107-0.054-0.213-0.111-0.32-0.17zM19.034 6.643c-0 0-0-0-0-0 0.007 0.001 0.015 0.003 0.022 0.004-0-0-0-0-0-0-0.007-0.001-0.014-0.003-0.022-0.004zM18.483 6.598c0.049-0.002 0.102-0.002 0.157-0-0.055-0.002-0.107-0.002-0.157 0zM19.738 9.77c0.020 0.016 0.038 0.033 0.054 0.052-0.016-0.019-0.034-0.036-0.054-0.052zM21.279 7.501c0.001 0 0.001 0.001 0.002 0.001s0.001 0 0.001 0.001c-0.001-0.001-0.002-0.001-0.003-0.002zM11.963 21.060c0.004 0.002 0.008 0.003 0.012 0.005-0.005-0.003-0.009-0.005-0.012-0.005zM16.869 16.977c0.003 0 0.007-0.001 0.010-0.003-0.003 0.001-0.007 0.002-0.010 0.003zM18.809 10.672c-1.698-0.991-3.552-1.486-5.562-1.486s-3.864 0.495-5.562 1.486c-1.698 0.991-3.042 2.335-4.033 4.033s-1.486 3.552-1.486 5.562 0.495 3.864 1.486 5.562c0.991 1.698 2.335 3.042 4.033 4.033s3.552 1.486 5.562 1.486 3.864-0.495 5.562-1.486c1.698-0.991 3.042-2.335 4.033-4.033s1.486-3.552 1.486-5.562-0.495-3.864-1.486-5.562c-0.991-1.698-2.335-3.042-4.033-4.033zM14.632 26.096c-0.088-0.105-0.123-0.194-0.107-0.267-0.004 0.010-0.008 0.020-0.014 0.029-0.017 0.029-0.044 0.055-0.081 0.080-0.048-0.058-0.135-0.13-0.26-0.216s-0.212-0.159-0.26-0.216c-0.019-0.029-0.046-0.070-0.079-0.123s-0.077-0.123-0.13-0.209c-0.053-0.087-0.091-0.161-0.115-0.224-0.018-0.047-0.024-0.079-0.018-0.096 0.002-0.006 0.005-0.010 0.010-0.012-0.183 0.077-0.447 0.024-0.793-0.159-0.067-0.038-0.168-0.14-0.303-0.303s-0.274-0.236-0.418-0.216c-0.048 0.010-0.113 0.026-0.195 0.050s-0.152 0.036-0.209 0.036-0.135-0.019-0.231-0.058c-0.077-0.029-0.18-0.084-0.31-0.166s-0.219-0.132-0.267-0.152l-0.188-0.101-0.231-0.115c-0.058-0.029-0.118-0.075-0.18-0.137s-0.103-0.127-0.123-0.195c-0.019-0.058-0.043-0.173-0.072-0.346s-0.067-0.298-0.115-0.375c-0.058-0.096-0.139-0.192-0.245-0.288s-0.202-0.144-0.289-0.144c0 0 0.001-0 0.001-0s-0.001-0-0.001-0c0.024 0 0.041-0.006 0.050-0.019 0.020-0.028 0.003-0.087-0.050-0.176-0.077-0.13-0.144-0.224-0.202-0.281-0.019-0.019-0.077-0.082-0.173-0.188s-0.178-0.197-0.245-0.274c-0.067-0.077-0.125-0.166-0.173-0.267s-0.058-0.185-0.029-0.253c0-0 0-0 0-0v-0c0.001-0.001 0.002-0.002 0.003-0.004 0.004-0.009-0.006-0.023-0.032-0.039-0.029-0.019-0.065-0.038-0.108-0.058s-0.084-0.036-0.123-0.051c-0.038-0.014-0.067-0.022-0.086-0.022 0.019 0.039 0.041 0.108 0.065 0.209s0.051 0.176 0.079 0.224c0.019 0.038 0.101 0.178 0.245 0.418 0.25 0.404 0.366 0.702 0.346 0.895-0 0-0 0-0 0s0 0 0 0c-0.058 0.019-0.096 0.010-0.115-0.029s-0.034-0.091-0.043-0.159c-0.010-0.067-0.019-0.115-0.029-0.144-0.029-0.058-0.103-0.12-0.224-0.188s-0.195-0.135-0.224-0.202c0 0 0 0 0 0s-0-0-0-0c0.010 0 0.022-0.005 0.036-0.014s0.026-0.014 0.036-0.014c0.010-0.087-0.041-0.197-0.152-0.332s-0.156-0.231-0.137-0.289c-0.077-0.058-0.144-0.171-0.202-0.339s-0.106-0.276-0.144-0.325c-0.038-0.058-0.087-0.108-0.144-0.151s-0.13-0.091-0.216-0.144c-0.087-0.053-0.144-0.089-0.173-0.108-0.019-0.010-0.058-0.053-0.115-0.13-0.268-0.325-0.378-0.523-0.331-0.594 0.009-0.013 0.022-0.022 0.042-0.026-0.125 0.028-0.228-0.066-0.309-0.282s-0.108-0.382-0.079-0.498l-0.029-0.014c0.010-0.038 0.014-0.151 0.014-0.339s0.012-0.358 0.036-0.512c0.008-0.054 0.020-0.099 0.033-0.134 0-0 0-0 0-0.001 0.002-0.006 0.004-0.011 0.007-0.016 0.022-0.048 0.050-0.074 0.084-0.080-0.061 0-0.107-0.060-0.138-0.181-0.034-0.13-0.036-0.219-0.007-0.267 0.001-0.002 0.002-0.003 0.003-0.005 0.013-0.021 0.055-0 0.127 0.063 0.077 0.067 0.12 0.111 0.13 0.13 0.070-0.038 0.116-0.082 0.138-0.132 0.017-0.039 0.019-0.082 0.006-0.128-0.019-0.038-0.12-0.139-0.303-0.303-0.414-0.269-0.625-0.399-0.635-0.389 0.058-0.106 0.043-0.197-0.043-0.274-0.096 0.058-0.152 0.072-0.166 0.043s-0.026-0.082-0.036-0.159c-0.010-0.077-0.034-0.12-0.072-0.13-0.048-0.010-0.106-0.048-0.173-0.115 0-0 0-0 0-0 0.856-1.366 1.986-2.434 3.391-3.203 0.058-0.010 0.164-0.014 0.317-0.014 0.077 0.010 0.149 0.034 0.216 0.072s0.137 0.091 0.209 0.159c0.072 0.067 0.127 0.115 0.166 0.144 0.019-0.058-0.005-0.144-0.072-0.26 0.002-0.007 0.006-0.014 0.011-0.022 0.036-0.051 0.138-0.101 0.306-0.152 0.221-0.029 0.365-0.024 0.433 0.014-0.058-0.087-0.154-0.207-0.288-0.361l-0.072 0.072c-0.077-0.067-0.279-0.034-0.606 0.101-0.019 0.010-0.067 0.036-0.144 0.079s-0.139 0.075-0.188 0.094c-0.058 0.019-0.115 0.024-0.173 0.014 0-0 0-0 0-0s-0-0-0-0c0.462-0.25 0.914-0.447 1.356-0.592 0.029 0.019 0.077 0.060 0.144 0.123s0.12 0.108 0.159 0.137c-0-0-0.001-0-0.001-0.001s0.001 0 0.001 0.001c-0.022-0.014-0.038-0.013-0.049 0.005-0.002 0.003-0.003 0.006-0.005 0.010 0 0-0 0-0 0-0.002 0.004-0.003 0.008-0.004 0.013-0.038 0.115-0.038 0.212 0 0.289 0.048 0.067 0.113 0.106 0.195 0.115s0.18 0.005 0.296-0.014c0.115-0.019 0.192-0.029 0.231-0.029l0.144 0.014c0.231 0.022 0.356 0.011 0.376-0.032 0.007-0.014 0.002-0.032-0.015-0.054 0.003 0.005 0.007 0.010 0.010 0.015 0.026 0.042 0.057 0.116 0.091 0.223 0.038 0.12 0.082 0.204 0.13 0.253 0.012-0.010 0.022-0.021 0.029-0.034 0.022-0.040 0.022-0.096 0-0.168-0.029-0.096-0.029-0.164 0-0.202 0.001-0.002 0.003-0.005 0.005-0.007 0.013-0.017 0.040-0.034 0.082-0.051 0.048-0.019 0.103-0.041 0.166-0.065s0.103-0.041 0.123-0.050c0.011-0.007 0.018-0.015 0.022-0.025 0.018-0.040-0.028-0.099-0.138-0.177-0.019-0.010-0.060-0.024-0.123-0.043s-0.118-0.038-0.166-0.058c-0.048-0.019-0.099-0.046-0.152-0.079s-0.077-0.072-0.072-0.115c0.004-0.032 0.019-0.072 0.047-0.118 0.009-0.015 0.020-0.031 0.032-0.048 0.058-0.048 0.151-0.067 0.281-0.058s0.228 0.034 0.296 0.072c0.195 0.108 0.265 0.208 0.211 0.3-0.018 0.031-0.050 0.060-0.095 0.089 0.096 0.010 0.212 0.048 0.346 0.115s0.188 0.139 0.159 0.216c0.019-0.036 0.038-0.068 0.058-0.095 0.058-0.081 0.115-0.122 0.173-0.122 0.048 0.010 0.094 0.075 0.137 0.195s0.070 0.185 0.079 0.195c0.077 0.106 0.154 0.13 0.231 0.072s0.156-0.142 0.238-0.252c0.076-0.102 0.12-0.153 0.134-0.153-0.064-0.026-0.089-0.052-0.073-0.079 0.007-0.012 0.023-0.024 0.047-0.036 0.144-0.087 0.274-0.111 0.39-0.072 0.029 0.019 0.067 0.063 0.115 0.13 0.054 0.108 0.069 0.181 0.044 0.218-0.015 0.022-0.044 0.031-0.087 0.028 0.086 0.077 0.123 0.173 0.108 0.288-0.004 0.029-0.011 0.054-0.022 0.075-0.002 0.004-0.004 0.007-0.006 0.011-0.001 0.001-0.002 0.003-0.003 0.004-0.036 0.053-0.1 0.076-0.193 0.069-0.048 0-0.118-0.024-0.209-0.072s-0.161-0.075-0.209-0.079-0.115 0.022-0.202 0.079c-0.010 0.012-0.020 0.026-0.031 0.042-0.030 0.045-0.067 0.105-0.108 0.181-0.004 0.007-0.008 0.014-0.012 0.022-0.007 0.013-0.014 0.026-0.022 0.039-0 0.001-0.001 0.002-0.002 0.003-0.004 0.007-0.007 0.013-0.011 0.019s-0.008 0.013-0.011 0.019c-0.001 0.002-0.003 0.004-0.004 0.006-0.006 0.010-0.012 0.020-0.018 0.029-0 0-0.001 0.001-0.001 0.001-0.007 0.011-0.014 0.021-0.020 0.031-0.005 0.007-0.009 0.013-0.014 0.019-0.002 0.003-0.005 0.007-0.007 0.010-0.020 0.028-0.039 0.050-0.057 0.068-0.144 0.144-0.383 0.197-0.718 0.159 0.025 0.002 0.022 0.031-0.011 0.086 0 0-0 0-0 0s-0 0-0 0c-0.034 0.058-0.079 0.123-0.137 0.195s-0.091 0.113-0.101 0.123c-0.043 0.048-0.079 0.1-0.108 0.155s-0.050 0.114-0.065 0.177c0 0.019-0.005 0.084-0.014 0.195s-0.029 0.195-0.058 0.252c0.115-0.029 0.207 0.029 0.274 0.173 0.040 0.093 0.052 0.156 0.037 0.189-0.007 0.015-0.019 0.024-0.036 0.027 0.317-0.048 0.596-0.029 0.836 0.058 0.346 0.125 0.543 0.25 0.592 0.375 0.058-0.087 0.197-0.091 0.418-0.014 0.087 0.048 0.164 0.192 0.231 0.433 0.038 0.144 0.103 0.269 0.195 0.375s0.19 0.135 0.296 0.087l0.043-0.029c0.038-0.019 0.070-0.036 0.094-0.051s0.050-0.034 0.079-0.058c0.022-0.018 0.036-0.035 0.045-0.050 0.003-0.005 0.005-0.010 0.006-0.015 0.005-0.019-0.002-0.038-0.022-0.058-0.067-0.058-0.118-0.137-0.151-0.238-0.029-0.088-0.028-0.168 0.006-0.238 0.005-0.010 0.010-0.020 0.016-0.029 0.029-0.038 0.106-0.096 0.231-0.173 0.094-0.058 0.161-0.115 0.2-0.173 0.013-0.019 0.023-0.038 0.031-0.058 0.038-0.125-0.010-0.228-0.144-0.31s-0.202-0.156-0.202-0.224c0-0.028 0.011-0.060 0.033-0.095 0.015-0.025 0.035-0.051 0.061-0.079 0.023-0.025 0.042-0.050 0.055-0.074 0.022-0.040 0.030-0.078 0.024-0.114 0-0.029-0.017-0.089-0.051-0.18s-0.053-0.159-0.058-0.202c-0.003-0.027 0.004-0.057 0.022-0.090 0.011-0.020 0.025-0.040 0.043-0.062 0.067-0.038 0.226-0.036 0.476 0.007s0.414 0.089 0.491 0.137c0.029 0.019 0.091 0.048 0.188 0.087s0.18 0.079 0.252 0.123 0.113 0.084 0.123 0.123h-0c0 0 0 0 0 0h-0.072c0.067 0.058 0.108 0.125 0.123 0.202 0.007 0.039 0.002 0.072-0.016 0.101s-0.049 0.053-0.092 0.072c0.058-0.010 0.134 0.005 0.231 0.043 0.096 0.036 0.134 0.070 0.114 0.103-0.012 0.019-0.045 0.038-0.098 0.056 0.029-0.009 0.069-0.019 0.121-0.028s0.094-0.024 0.123-0.043c0.019-0.010 0.043-0.026 0.072-0.051s0.050-0.038 0.065-0.043c0.014-0.005 0.036-0.010 0.065-0.014s0.058 0.002 0.087 0.022c0.010 0 0.031-0.024 0.065-0.072s0.070-0.096 0.108-0.144c0.038-0.048 0.072-0.072 0.101-0.072s0.055 0.012 0.079 0.036c0.024 0.024 0.043 0.050 0.058 0.079s0.029 0.060 0.043 0.094 0.026 0.060 0.036 0.079c0.019 0.048 0.065 0.099 0.137 0.152s0.118 0.103 0.137 0.151c0.010 0.029 0.029 0.101 0.058 0.216s0.067 0.195 0.115 0.238c0.048 0.043 0.12 0.079 0.216 0.108 0.019 0.010 0.063 0.005 0.13-0.014s0.123-0.024 0.166-0.014c0.043 0.010 0.065 0.048 0.065 0.115 0.050-0.050 0.079-0.086 0.085-0.107 0.001-0.003 0.001-0.006 0.001-0.008 0 0 0 0 0 0s0-0 0-0c0.010 0.125 0.041 0.226 0.094 0.303s0.137 0.111 0.253 0.101l-0.029 0.317c-0 0-0 0-0 0v0c-0.029 0.048-0.101 0.084-0.216 0.108s-0.188 0.046-0.216 0.065c-0.029 0.010-0.099 0.067-0.209 0.173-0.069 0.066-0.113 0.115-0.131 0.148-0.011 0.019-0.013 0.033-0.006 0.040-0-0-0-0-0.001-0.001s0 0 0 0.001c-0.164-0.183-0.409-0.236-0.736-0.159-0.366 0.058-0.616 0.115-0.75 0.173-0.154 0.077-0.26 0.149-0.317 0.216-0.004 0.004-0.008 0.011-0.014 0.021-0.009 0.017-0.022 0.044-0.037 0.080-0.024 0.058-0.048 0.111-0.072 0.159-0.003 0.005-0.005 0.010-0.007 0.014-0.017 0.031-0.032 0.049-0.047 0.055 0.055-0.013 0.116-0.058 0.184-0.134 0.072-0.082 0.118-0.127 0.137-0.137 0.25-0.163 0.457-0.221 0.62-0.173 0.159 0.043 0.217 0.097 0.176 0.163-0.014 0.022-0.039 0.044-0.075 0.069-0.019 0.019-0.070 0.026-0.151 0.022s-0.137-0.002-0.166 0.007c0.086 0.019 0.159 0.046 0.216 0.079s0.072 0.079 0.043 0.137c0.135 0.076 0.174 0.159 0.117 0.249-0.008 0.013-0.018 0.026-0.030 0.039-0.123 0.123-0.269 0.176-0.438 0.16 0.013 0.003 0.016 0.014 0.007 0.032-0.004 0.007-0.009 0.016-0.016 0.025l-0.245 0.159c-0.019 0.010-0.082 0.034-0.188 0.072s-0.178 0.082-0.216 0.13c-0 0-0 0.001-0.001 0.001-0.003 0.005-0.007 0.009-0.010 0.014-0.022 0.038-0.033 0.090-0.033 0.158 0 0.077-0.005 0.135-0.014 0.173 0 0 0 0-0 0s0 0 0 0c-0 0.002-0.001 0.003-0.002 0.005s-0.002 0.005-0.003 0.008c-0.015 0.027-0.052 0.033-0.11 0.016-0.002 0.004-0.004 0.007-0.006 0.011-0.034 0.053-0.121 0.095-0.261 0.126-0.149 0.034-0.248 0.084-0.296 0.151 0.047 0.063 0.052 0.125 0.017 0.188-0.008 0.015-0.019 0.029-0.031 0.043-0.115 0.096-0.216 0.087-0.303-0.029-0.030 0.012-0.055 0.035-0.076 0.070-0.012 0.021-0.023 0.046-0.032 0.074s-0.020 0.054-0.032 0.077c-0.001 0.001-0.001 0.002-0.002 0.003-0.004 0.006-0.007 0.012-0.011 0.018-0.018 0.026-0.039 0.047-0.063 0.061 0.046 0.073 0.056 0.132 0.030 0.177-0.012 0.021-0.031 0.039-0.059 0.054 0.010 0 0.031 0.010 0.065 0.029s0.070 0.043 0.108 0.072c0.038 0.029 0.063 0.043 0.072 0.043-0.005 0.011-0.010 0.021-0.015 0.030-0.037 0.066-0.085 0.099-0.144 0.1 0.040 0.106 0.018 0.218-0.065 0.338-0.038 0.054-0.088 0.11-0.151 0.167-0.038 0.039-0.099 0.077-0.18 0.115s-0.156 0.070-0.224 0.094-0.106 0.041-0.115 0.051c-0.078 0.070-0.139 0.141-0.185 0.214-0.011 0.018-0.022 0.035-0.031 0.053-0.048 0.091-0.055 0.18-0.022 0.267s0.123 0.144 0.267 0.173l0.014 0.115v0.26l0.014 0.115c0.010 0.067 0.017 0.128 0.022 0.18s0.005 0.12 0 0.202c-0.003 0.051-0.013 0.088-0.029 0.111-0.010 0.014-0.022 0.023-0.036 0.026-0.038 0.010-0.091 0-0.159-0.029-0.077-0.038-0.168-0.25-0.274-0.635-0.019-0.096-0.077-0.212-0.173-0.346-0.048 0.048-0.089 0.079-0.123 0.094s-0.058 0.017-0.072 0.007-0.041-0.031-0.079-0.065c-0.038-0.034-0.072-0.060-0.101-0.079-0.048-0.029-0.132-0.053-0.252-0.072s-0.195-0.043-0.224-0.072c-0.231 0.173-0.37 0.13-0.418-0.13-0.019 0.048-0.017 0.113 0.007 0.195s0.036 0.128 0.036 0.137c-0.004 0.008-0.009 0.015-0.013 0.022-0.068 0.104-0.169 0.106-0.304 0.007-0.058-0.058-0.19-0.065-0.397-0.022-0.195 0.041-0.328 0.049-0.399 0.026 0.011 0.006 0.026 0.019 0.045 0.038 0.029 0.019 0.048 0.034 0.058 0.043-0.005 0.019-0.011 0.036-0.018 0.051-0.003 0.005-0.006 0.010-0.009 0.015-0.001 0.002-0.002 0.004-0.003 0.005-0.004 0.006-0.009 0.012-0.014 0.016-0.019 0.019-0.038 0.026-0.058 0.022s-0.041-0.005-0.065 0c-0.024 0.005-0.046 0.012-0.065 0.022-0.038 0.029-0.087 0.079-0.144 0.151s-0.101 0.118-0.13 0.137c0.058 0.154 0.084 0.272 0.079 0.354s-0.019 0.202-0.043 0.361c-0.024 0.159-0.036 0.286-0.036 0.382 0 0.154 0.046 0.332 0.137 0.534s0.2 0.341 0.325 0.418c0.067 0.038 0.183 0.063 0.346 0.072s0.279 0 0.346-0.029c0.058-0.029 0.101-0.063 0.13-0.101 0.004-0.005 0.007-0.010 0.011-0.015 0.002-0.003 0.004-0.006 0.005-0.009s0.003-0.005 0.005-0.008c0.020-0.035 0.037-0.080 0.051-0.134 0.019-0.072 0.034-0.123 0.043-0.151 0.008-0.023 0.018-0.044 0.028-0.065 0-0 0.001-0.001 0.001-0.001 0.005-0.009 0.010-0.019 0.015-0.028 0.072-0.122 0.183-0.187 0.331-0.195 0.115-0.010 0.2 0.002 0.252 0.036s0.075 0.079 0.065 0.137c-0.010 0.058-0.029 0.118-0.058 0.18-0.007 0.016-0.015 0.032-0.023 0.048-0.019 0.038-0.040 0.079-0.064 0.122-0.007 0.013-0.014 0.025-0.021 0.039-0.043 0.077-0.070 0.135-0.079 0.173-0.019 0.077-0.036 0.185-0.051 0.325s-0.026 0.224-0.036 0.253c0.019 0.010 0.091 0.014 0.216 0.014 0-0.019 0.007-0.050 0.022-0.094s0.022-0.070 0.022-0.079c0 0 0 0 0 0s0-0 0-0c0.048 0.077 0.125 0.12 0.231 0.13 0.1 0.009 0.175-0.026 0.223-0.103 0.003-0.004 0.005-0.008 0.008-0.012 0-0 0-0 0-0 0.019 0.029 0.077 0.101 0.173 0.216s0.149 0.212 0.159 0.289c0.010 0.038 0.029 0.101 0.058 0.188s0.038 0.147 0.029 0.18c-0.001 0.004-0.003 0.008-0.005 0.012-0.017 0.026-0.063 0.039-0.139 0.039-0.034 0-0.056 0.011-0.068 0.033-0.002 0.003-0.003 0.006-0.004 0.010-0.010 0.029-0.010 0.065 0 0.108s0.022 0.084 0.036 0.123c0.014 0.039 0.034 0.079 0.058 0.123s0.036 0.070 0.036 0.079c0.173 0.317 0.409 0.404 0.707 0.26 0 0.157-0.021 0.274-0.064 0.352-0.033 0.061-0.079 0.097-0.138 0.11-0.077 0.019-0.164-0.029-0.26-0.144zM14.849 29.357c-0.019-0.096-0.029-0.173-0.029-0.231-0.010-0.077 0.024-0.18 0.101-0.31s0.115-0.228 0.115-0.296c-0.154-0.038-0.212-0.163-0.173-0.375 0.019-0.144 0.159-0.337 0.418-0.577 0.183-0.163 0.24-0.394 0.173-0.693-0.029-0.125-0.053-0.308-0.072-0.548s-0.039-0.409-0.058-0.505c0 0.029 0.046 0.055 0.137 0.079s0.147 0.055 0.166 0.094c0.019-0.029 0.043-0.082 0.072-0.159s0.058-0.135 0.087-0.173c0.019-0.029 0.060-0.065 0.123-0.108s0.103-0.070 0.123-0.079c0.019-0.010 0.063-0.041 0.13-0.094s0.123-0.094 0.166-0.123 0.101-0.050 0.173-0.065c0.072-0.014 0.123 0.007 0.152 0.065 0.048 0.058 0.038 0.147-0.029 0.267s-0.067 0.204 0 0.253c0.010-0.029 0.019-0.091 0.029-0.188s0.038-0.168 0.087-0.216c0.058-0.058 0.113-0.091 0.166-0.101s0.101-0.002 0.144 0.022c0.043 0.024 0.094 0.058 0.151 0.101s0.111 0.070 0.159 0.079c0.144 0.048 0.317 0.154 0.519 0.317-0.010-0.010-0.010-0.022 0-0.036s0.029-0.029 0.058-0.043c0.029-0.014 0.055-0.029 0.079-0.043s0.051-0.026 0.079-0.036l0.043-0.014c0.067 0 0.115-0.005 0.144-0.014s0.070 0 0.123 0.029c0.053 0.029 0.089 0.051 0.108 0.065s0.053 0.041 0.101 0.079 0.082 0.067 0.101 0.087c0.029 0.019 0.082 0.053 0.159 0.101s0.137 0.087 0.18 0.115c0.043 0.029 0.082 0.072 0.116 0.13s0.046 0.12 0.036 0.188c0.058 0.010 0.173 0.048 0.346 0.116 0.029 0.019 0.089 0.036 0.18 0.050s0.151 0.036 0.18 0.065c-1.395 1.472-3.083 2.381-5.065 2.727z"></path>
</svg>
