<!-- Generated by IcoMoon.io -->
<svg version="1.1" xmlns="http://www.w3.org/2000/svg" width="32" height="32" viewBox="0 0 32 32">
<title>geoext</title>
<path d="M30.706 13.906l-13.157-13.157c-0.855-0.855-2.242-0.855-3.098 0l-3.36 3.36c0.050 0.057 0.118 0.108 0.212 0.139 0.002 0.001 0.002 0.001 0.004 0.002 0.298 0.085 0.581 0.203 0.846 0.351 0.001 0 0.001 0.001 0.002 0.001 0.319 0.16 0.58-0.094 0.58-0.094l0.371-0.371c0.158-0.158 0.413-0.158 0.571 0l0.499 0.499c0.158 0.158 0.158 0.413 0 0.571l-0.371 0.371c0 0-0.254 0.261-0.094 0.58 0 0.001 0 0.001 0.001 0.002 0.148 0.265 0.266 0.549 0.351 0.847 0 0.001 0.001 0.002 0.001 0.003 0.113 0.338 0.477 0.344 0.477 0.344h0.524c0.223 0 0.404 0.181 0.404 0.404v0.706c0 0.223-0.181 0.403-0.404 0.403h-0.525c0 0-0.364 0.005-0.476 0.344-0 0.001-0.001 0.002-0.001 0.003-0.085 0.298-0.203 0.581-0.351 0.847-0.001 0.001-0.001 0.002-0.001 0.002-0.16 0.319 0.094 0.58 0.094 0.58l0.371 0.371c0.158 0.158 0.158 0.413 0 0.571l-0.499 0.499c-0.157 0.158-0.413 0.158-0.571 0l-0.371-0.371c0 0-0.261-0.253-0.58-0.094-0.001 0-0.002 0.001-0.002 0.001-0.265 0.148-0.549 0.265-0.846 0.351-0.001 0.001-0.002 0.001-0.003 0.001-0.338 0.113-0.344 0.476-0.344 0.476v0.525c0 0.223-0.181 0.404-0.403 0.404h-0.706c-0.223 0-0.403-0.181-0.403-0.404v-0.525c0 0-0.005-0.364-0.344-0.476-0.001-0-0.002-0.001-0.003-0.001-0.298-0.085-0.582-0.203-0.847-0.351-0.001-0-0.001-0-0.002-0.001-0.319-0.16-0.58 0.094-0.58 0.094l-0.371 0.371c-0.158 0.157-0.413 0.158-0.571 0l-0.499-0.499c-0.158-0.158-0.158-0.413 0-0.571l0.371-0.371c0 0 0.254-0.261 0.094-0.58-0-0.001-0.001-0.001-0.001-0.002-0.148-0.265-0.266-0.549-0.351-0.847-0-0.001-0.001-0.002-0.001-0.003-0.031-0.094-0.082-0.163-0.14-0.213l-4.908 4.908c-0.855 0.855-0.855 2.242 0 3.098l8.149 8.149c0.040-0.045 0.075-0.101 0.098-0.172 0-0.001 0.001-0.002 0.001-0.003 0.085-0.298 0.203-0.581 0.351-0.846 0-0.001 0.001-0.002 0.001-0.002 0.16-0.319-0.094-0.58-0.094-0.58l-0.371-0.371c-0.158-0.158-0.158-0.413 0-0.571l0.499-0.499c0.158-0.158 0.413-0.158 0.571 0l0.371 0.371c0 0 0.261 0.254 0.58 0.094 0.001-0 0.002-0.001 0.002-0.001 0.265-0.148 0.549-0.265 0.846-0.351 0.001-0 0.002-0.001 0.004-0.001 0.338-0.113 0.344-0.476 0.344-0.476v-0.525c0-0.223 0.181-0.404 0.403-0.404h0.706c0.223 0 0.403 0.181 0.403 0.404v0.524c0 0 0.005 0.364 0.344 0.476 0.002 0.001 0.002 0.001 0.004 0.002 0.298 0.085 0.581 0.203 0.846 0.351 0.001 0 0.001 0.001 0.002 0.001 0.319 0.16 0.58-0.094 0.58-0.094l0.371-0.371c0.158-0.158 0.413-0.158 0.571 0l0.499 0.499c0.158 0.158 0.158 0.413 0 0.571l-0.371 0.371c0 0-0.254 0.261-0.094 0.58 0 0.001 0 0.001 0.001 0.002 0.148 0.265 0.266 0.549 0.351 0.847 0 0.001 0.001 0.002 0.001 0.003 0.113 0.338 0.477 0.344 0.477 0.344h0.524c0.223 0 0.404 0.181 0.404 0.404v0.706c0 0.223-0.181 0.403-0.404 0.403h-0.525c0 0-0.364 0.005-0.476 0.344-0 0.001-0.001 0.002-0.001 0.003-0.085 0.298-0.203 0.581-0.351 0.847-0 0.001-0.001 0.002-0.001 0.002-0.16 0.319 0.094 0.58 0.094 0.58l0.371 0.371c0.158 0.158 0.158 0.413 0 0.571l-0.499 0.499c-0.157 0.158-0.413 0.158-0.571 0l-0.371-0.371c0 0-0.261-0.253-0.58-0.094-0.001 0-0.002 0.001-0.002 0.001-0.265 0.148-0.549 0.265-0.846 0.351-0.001 0-0.002 0.001-0.003 0.001-0.071 0.024-0.127 0.058-0.171 0.098l0.12 0.12c0.855 0.855 2.242 0.855 3.098 0l13.157-13.157c0.855-0.855 0.855-2.242-0-3.098zM20.735 16.621c0 0.223-0.181 0.403-0.404 0.403h-0.525c0 0-0.364 0.005-0.476 0.344-0 0.001-0.001 0.002-0.001 0.003-0.085 0.298-0.203 0.581-0.351 0.847-0 0.001-0.001 0.002-0.001 0.002-0.16 0.319 0.094 0.58 0.094 0.58l0.371 0.371c0.158 0.158 0.158 0.413 0 0.571l-0.499 0.499c-0.157 0.158-0.413 0.158-0.571 0l-0.371-0.371c0 0-0.261-0.253-0.58-0.094-0.001 0-0.002 0.001-0.002 0.001-0.265 0.148-0.549 0.265-0.846 0.351-0.001 0-0.002 0.001-0.003 0.001-0.338 0.113-0.344 0.476-0.344 0.476v0.525c0 0.223-0.181 0.404-0.403 0.404h-0.706c-0.223 0-0.403-0.181-0.403-0.404v-0.525c0 0-0.005-0.364-0.344-0.476-0.001-0-0.002-0.001-0.003-0.001-0.298-0.085-0.582-0.203-0.847-0.351-0.001-0-0.001-0-0.002-0.001-0.319-0.16-0.58 0.094-0.58 0.094l-0.371 0.371c-0.158 0.157-0.413 0.158-0.571 0l-0.499-0.499c-0.158-0.158-0.158-0.413 0-0.571l0.371-0.371c0 0 0.254-0.261 0.094-0.58-0-0.001-0.001-0.001-0.001-0.002-0.148-0.265-0.266-0.549-0.351-0.847-0-0.001-0.001-0.002-0.001-0.003-0.113-0.338-0.476-0.344-0.476-0.344h-0.525c-0.223 0-0.404-0.181-0.404-0.403v-0.706c0-0.223 0.181-0.404 0.404-0.404h0.524c0 0 0.364-0.005 0.476-0.344 0-0.001 0.001-0.002 0.001-0.003 0.085-0.298 0.203-0.581 0.351-0.846 0-0.001 0.001-0.002 0.001-0.002 0.16-0.319-0.094-0.58-0.094-0.58l-0.371-0.371c-0.158-0.158-0.158-0.413 0-0.571l0.499-0.499c0.158-0.158 0.413-0.158 0.571 0l0.371 0.371c0 0 0.261 0.254 0.58 0.094 0.001-0 0.002-0.001 0.002-0.001 0.265-0.148 0.549-0.265 0.846-0.351 0.001-0 0.002-0.001 0.004-0.001 0.338-0.113 0.344-0.476 0.344-0.476v-0.525c0-0.223 0.181-0.404 0.403-0.404h0.706c0.223 0 0.403 0.181 0.403 0.404v0.524c0 0 0.005 0.364 0.344 0.476 0.002 0.001 0.002 0.001 0.004 0.002 0.298 0.085 0.581 0.203 0.846 0.351 0.001 0 0.001 0.001 0.002 0.001 0.319 0.16 0.58-0.094 0.58-0.094l0.371-0.371c0.158-0.158 0.413-0.158 0.571 0l0.499 0.499c0.158 0.158 0.158 0.413 0 0.571l-0.371 0.371c0 0-0.254 0.261-0.094 0.58 0 0.001 0 0.001 0.001 0.002 0.148 0.265 0.266 0.549 0.351 0.847 0 0.001 0.001 0.002 0.001 0.003 0.113 0.338 0.477 0.344 0.477 0.344h0.524c0.223 0 0.404 0.181 0.404 0.404v0.706zM12.388 8.22c0 1.2-0.973 2.173-2.173 2.173s-2.173-0.973-2.173-2.173c0-1.2 0.973-2.173 2.173-2.173s2.173 0.973 2.173 2.173zM17.507 16.333c0 1.2-0.973 2.173-2.173 2.173s-2.173-0.973-2.173-2.173c0-1.2 0.973-2.173 2.173-2.173s2.173 0.973 2.173 2.173zM15.623 26.079c0 1.2-0.973 2.173-2.173 2.173s-2.173-0.973-2.173-2.173c0-1.2 0.973-2.173 2.173-2.173s2.173 0.973 2.173 2.173z"></path>
</svg>
