<!-- Generated by IcoMoon.io -->
<svg version="1.1" xmlns="http://www.w3.org/2000/svg" width="32" height="32" viewBox="0 0 32 32">
<title>geoforall</title>
<path d="M28.769 14.855c0.005 0.001 0.008 0.004 0.012 0.005 0.002 0.001 0.005 0.002 0.007 0.002s0.002 0 0.004 0.001l0.010 0.006c0.013 0.008 0.028 0.014 0.042 0.018 0.001 0 0.005 0.002 0.005 0.001l-0.006-0.004-0.012-0.008-0.023-0.015-0.023-0.015c0.081 0.039 0.019 0.009 0.036 0.017l-0.006-0.003-0.012-0.007-0.048-0.027c-0.016-0.009-0.032-0.019-0.048-0.028 0.006 0.009 0.012 0.017 0.019 0.025 0.013 0.013 0.029 0.022 0.044 0.031zM23.926 24.752l-0.003 0.007-0.010 0.016c-0.007 0.011-0.013 0.023-0.018 0.035-0.005 0.011-0.014 0.034-0.003 0.014l0.019-0.031 0.010-0.016 0.005-0.008c-0.046 0.093-0.010 0.021-0.019 0.039l0.036-0.064c0.013-0.022 0.025-0.045 0.038-0.067-0.018 0.018-0.034 0.038-0.047 0.061-0.002 0.004-0.005 0.008-0.007 0.013zM21.408 4.102c1.031 0.481 2.257 0.035 2.738-0.996s0.035-2.258-0.996-2.738c-1.031-0.481-2.258-0.035-2.739 0.996s-0.035 2.257 0.997 2.738zM4.008 9.303c0.479-1.032 0.030-2.258-1.002-2.737s-2.257-0.030-2.736 1.003c-0.479 1.032-0.030 2.257 1.002 2.736s2.258 0.030 2.737-1.002zM10.547 26.805c-1.032-0.479-2.257-0.030-2.736 1.002s-0.030 2.257 1.002 2.736c1.032 0.479 2.258 0.030 2.736-1.002s0.030-2.258-1.002-2.736zM28.771 18.175c0.23-0.308 0.463-0.608 0.677-0.907 0.216-0.299 0.41-0.599 0.579-0.901 0.085-0.151 0.163-0.302 0.236-0.453 0.036-0.075 0.071-0.151 0.105-0.226 0.017-0.038 0.034-0.075 0.050-0.113 0.017-0.040 0.034-0.081 0.052-0.12 0.149-0.339 0.18-0.723 0.099-1.064-0.078-0.342-0.262-0.647-0.512-0.872-0.030-0.029-0.063-0.055-0.096-0.080l-0.050-0.037-0.025-0.018-0.033-0.022c-0.044-0.028-0.089-0.055-0.135-0.080l-0.016-0.009-0.006-0.003-0.013-0.005-0.051-0.022c-0.085-0.042-0.027-0.013-0.048-0.023l-0.006-0.002-0.013-0.005-0.052-0.019c-0.035-0.012-0.069-0.024-0.103-0.036-0.136-0.049-0.271-0.093-0.402-0.136-0.263-0.086-0.515-0.16-0.754-0.226-0.478-0.132-0.904-0.227-1.261-0.291s-0.644-0.101-0.843-0.12c-0.099-0.010-0.176-0.015-0.228-0.018s-0.079-0.003-0.079-0.003c-0.030-0.001-0.061 0.009-0.085 0.031-0.048 0.044-0.051 0.119-0.007 0.167 0 0 0.018 0.020 0.054 0.059s0.090 0.093 0.161 0.163c0.142 0.139 0.356 0.335 0.636 0.565 0.28 0.231 0.627 0.496 1.036 0.775 0.205 0.14 0.425 0.284 0.66 0.429 0.11 0.068 0.224 0.137 0.34 0.205-0.017 0.034-0.034 0.069-0.051 0.104-0.036 0.074-0.071 0.149-0.105 0.226-0.068 0.153-0.133 0.31-0.193 0.473-0.122 0.323-0.225 0.666-0.314 1.024s-0.168 0.728-0.255 1.103c-0.085 0.375-0.181 0.752-0.305 1.121-0.122 0.37-0.272 0.733-0.443 1.089s-0.361 0.707-0.572 1.049c-0.211 0.343-0.442 0.678-0.679 1.010s-0.478 0.663-0.705 0.998c-0.228 0.335-0.441 0.675-0.639 1.019-0.096 0.171-0.192 0.341-0.287 0.51-0.637-0.338-1.268-0.633-1.883-0.878-0.641-0.257-1.259-0.474-1.836-0.661s-1.115-0.337-1.597-0.46c-0.482-0.123-0.91-0.214-1.266-0.28-0.079-0.015-0.154-0.028-0.226-0.041 1.775-0.289 3.419-1.212 4.591-2.641l0.006 0.004 0.382-0.509-0.006-0.004c0.83-1.21 1.27-2.618 1.306-4.047l0.047-0.081c0.093-0.162 0.22-0.386 0.376-0.67 0.081-0.145 0.168-0.306 0.263-0.482 0.095-0.176 0.198-0.366 0.304-0.569 0.218-0.409 0.457-0.877 0.711-1.373l0.086-0.171c0.233-0.465 0.474-0.945 0.726-1.466l0.213-0.444 0.214-0.457 0.215-0.467c0.037-0.080 0.073-0.16 0.109-0.241l0.058-0.131 0.036-0.092c0.009-0.027 0.017-0.054 0.024-0.081l0.007-0.025c0.072-0.288 0.040-0.593-0.090-0.858-0.066-0.135-0.152-0.253-0.254-0.35-0.031-0.032-0.064-0.058-0.090-0.079l-0.046-0.036c-0.011-0.008-0.024-0.016-0.036-0.024l-0.014-0.009c-0.051-0.033-0.081-0.051-0.102-0.059l-0.046-0.024-0.027-0.013-1.016-0.447-0.514-0.223-0.519-0.218-1.045-0.427c-0.785-0.318-1.456-0.607-2.053-0.884-0.372-0.172-0.694-0.327-0.985-0.474-0.308-0.155-0.599-0.31-0.948-0.495l-0.275-0.148c-0.533-0.287-1.036-0.558-1.535-0.801-0.287-0.141-0.575-0.277-0.857-0.405l-0.405-0.184c-0.040-0.019-0.101-0.043-0.152-0.061l-0.017-0.005c-0.045-0.014-0.095-0.029-0.139-0.036-0.070-0.015-0.144-0.022-0.224-0.022-0.039 0-0.078 0.002-0.118 0.005-0.102 0.008-0.205 0.033-0.328 0.078-0.104 0.042-0.198 0.095-0.281 0.156-0.093 0.071-0.168 0.144-0.219 0.212-0.038 0.045-0.070 0.097-0.093 0.135-0.016 0.025-0.024 0.042-0.032 0.058l-0.037 0.076c-0.102 0.237-0.196 0.463-0.284 0.676-0.094 0.225-0.179 0.439-0.242 0.599-0.073 0.182-0.142 0.354-0.2 0.51-0.227 0.588-0.347 0.945-0.361 0.984-0.036 0.109 0.008 0.23 0.103 0.286 0.039 0.025 0.084 0.038 0.131 0.038 0.085 0 0.166-0.045 0.21-0.118 0.021-0.035 0.218-0.358 0.521-0.906 0.077-0.137 0.159-0.29 0.248-0.455l0.015-0.028c0.095-0.176 0.197-0.366 0.303-0.571 0.105-0.203 0.217-0.418 0.329-0.641l0.027-0.046c0.004-0.005 0.008-0.010 0.013-0.017 0.002-0.002 0.004-0.005 0.010-0.011l0.009-0.010c0.014-0.016 0.035-0.034 0.063-0.053 0.019-0.013 0.046-0.026 0.069-0.035 0.038-0.011 0.068-0.017 0.090-0.018l0.024-0c0.026 0 0.046 0.002 0.066 0.007l0.013 0.002 0.030 0.010 0.018 0.008c0.011 0.005 0.024 0.010 0.046 0.022l0.404 0.193c0.275 0.132 0.564 0.266 0.861 0.397 0.509 0.227 1.042 0.439 1.608 0.664l0.282 0.113c0.333 0.134 0.659 0.266 0.99 0.408 0.302 0.129 0.628 0.276 0.996 0.45 0.601 0.282 1.254 0.61 1.997 1.005 0.333 0.176 0.666 0.351 1 0.527 0.167 0.086 0.333 0.171 0.501 0.258l0.5 0.25 0.977 0.481 0.048 0.027c0.005 0.004 0.011 0.008 0.015 0.012l0.003 0.002 0.009 0.009 0.009 0.008 0.007 0.008c0.024 0.025 0.042 0.052 0.055 0.081 0.024 0.055 0.030 0.123 0.017 0.168-0.003 0.009-0.006 0.019-0.010 0.032-0.005 0.011-0.009 0.020-0.012 0.028l-0.054 0.112c-0.039 0.079-0.077 0.159-0.114 0.238l-0.22 0.466-0.213 0.458-0.203 0.448c-0.231 0.513-0.44 0.997-0.642 1.464l-0.097 0.224c-0.203 0.481-0.413 0.979-0.587 1.41-0.076 0.185-0.153 0.376-0.24 0.599-0.037 0.093-0.072 0.182-0.106 0.266-0.127-0.876-0.407-1.741-0.847-2.552l-0.242-0.42-0.015 0.020c-0.482-0.754-1.078-1.399-1.805-1.944-0.085-0.064-0.17-0.127-0.257-0.188l0.002-0.003-0.061-0.038c-0.077-0.052-0.156-0.102-0.238-0.147-0.079-0.048-0.159-0.096-0.239-0.141l-0.009-0.005-0 0c-0.928-0.525-1.946-0.854-2.985-0.956l0.005-0.007-0.097-0.001c-0.173-0.015-0.347-0.023-0.521-0.025l-0.159-0-0.014 0.018c-0.274 0.002-0.547 0.020-0.816 0.052-0.115-0.069-0.245-0.146-0.391-0.231-0.134-0.080-0.282-0.164-0.438-0.253l-0.071-0.040c-0.159-0.091-0.371-0.211-0.602-0.338-0.451-0.249-0.94-0.512-1.454-0.78-0.52-0.272-1.106-0.567-1.741-0.879-0.603-0.296-1.269-0.603-1.977-0.913l-0.134-0.059-0.093-0.037c-0.041-0.017-0.079-0.027-0.112-0.037l-0.022-0.006c-0.113-0.029-0.231-0.044-0.35-0.044-0.057 0-0.114 0.003-0.169 0.010-0.348 0.042-0.676 0.221-0.9 0.492l-0.039 0.049-0.080 0.12c-0.025 0.041-0.034 0.058-0.038 0.068l-0.044 0.090-0.377 0.879c-0.325 0.759-0.635 1.578-0.885 2.239-0.326 0.861-0.616 1.56-0.911 2.202-0.29 0.641-0.634 1.311-1.052 2.048l-0.546 0.97c-0.201 0.364-0.36 0.665-0.5 0.947-0.086 0.171-0.165 0.338-0.225 0.465l-0.042 0.091c-0.057 0.122-0.112 0.241-0.167 0.366-0.115 0.264-0.144 0.557-0.083 0.825 0.029 0.135 0.079 0.262 0.147 0.379 0.070 0.12 0.154 0.227 0.239 0.303 0.027 0.028 0.055 0.050 0.078 0.068l0.024 0.019c0.021 0.016 0.041 0.032 0.066 0.047 0.028 0.018 0.058 0.036 0.087 0.054l0.092 0.046c0.010 0.005 0.018 0.009 0.021 0.010l0.181 0.077c0.1 0.043 0.198 0.083 0.295 0.123l0.097 0.040c0.249 0.103 0.487 0.197 0.728 0.292 0.408 0.16 0.811 0.309 1.198 0.445 0.324 0.114 0.575 0.195 0.759 0.253l0.027 0.009c0.184 0.057 0.283 0.085 0.283 0.085 0.023 0.007 0.048 0.010 0.072 0.010 0.087 0 0.168-0.043 0.215-0.114 0.039-0.058 0.053-0.127 0.040-0.196s-0.053-0.127-0.11-0.165c0 0-0.086-0.058-0.25-0.163l-0.014-0.009c-0.157-0.098-0.394-0.246-0.692-0.421-0.36-0.212-0.735-0.423-1.114-0.628l-0.039-0.021c-0.208-0.112-0.423-0.227-0.653-0.346l-0.083-0.043c-0.096-0.050-0.194-0.101-0.296-0.152l-0.011-0.006 0-0.001-0.132-0.066-0.042-0.024c-0.002-0.002-0.005-0.004-0.007-0.006-0.006-0.006-0.024-0.023-0.024-0.023-0.052-0.054-0.068-0.151-0.035-0.218l0.21-0.448c0.085-0.187 0.149-0.332 0.208-0.47 0.125-0.288 0.252-0.604 0.401-0.996l0.387-1.043c0.292-0.794 0.581-1.489 0.884-2.127 0.297-0.637 0.644-1.31 1.092-2.117 0.436-0.785 0.796-1.44 1.138-2.123l0.417-0.834 0.022-0.039 0.014-0.015c0.023-0.024 0.062-0.041 0.094-0.043l0.010-0c0.014 0 0.027 0.003 0.028 0.003 0.005 0.002 0.010 0.004 0.017 0.006l0.161 0.078c0.698 0.342 1.363 0.651 1.975 0.92 0.641 0.28 1.245 0.536 1.795 0.761 0.527 0.215 1.044 0.419 1.535 0.606 0.245 0.094 0.475 0.178 0.647 0.24l0.005 0.002c-1.41 0.424-2.68 1.262-3.629 2.42l-0.006-0.004-0.382 0.509 0.009 0.007c-1.008 1.509-1.448 3.327-1.251 5.102-0.075 0.114-0.159 0.245-0.253 0.394-0.446 0.708-0.968 1.608-1.469 2.533-0.279 0.514-0.581 1.096-0.897 1.73-0.299 0.599-0.605 1.263-0.911 1.975l-0.056 0.129-0.042 0.106c-0.017 0.043-0.028 0.085-0.041 0.132-0.044 0.172-0.056 0.356-0.033 0.531 0.044 0.354 0.227 0.687 0.503 0.914l0.050 0.040 0.061 0.043c0.022 0.014 0.045 0.028 0.066 0.041 0.038 0.023 0.054 0.032 0.066 0.037l0.092 0.044 0.883 0.368c0.365 0.151 0.741 0.298 1.118 0.436 0.375 0.136 0.758 0.273 1.137 0.406l0.567 0.205c0.179 0.066 0.362 0.136 0.56 0.213 0.355 0.14 0.722 0.296 1.093 0.465 0.644 0.289 1.311 0.643 2.040 1.084l0.249 0.15c0.239 0.144 0.475 0.285 0.708 0.423 0.35 0.204 0.657 0.373 0.937 0.515 0.155 0.080 0.31 0.154 0.46 0.227 0.076 0.036 0.152 0.071 0.228 0.106l0.229 0.102c0.171 0.075 0.36 0.115 0.546 0.115 0.098 0 0.195-0.011 0.287-0.032 0.135-0.030 0.263-0.080 0.38-0.149 0.122-0.071 0.227-0.155 0.308-0.245 0.027-0.027 0.050-0.055 0.069-0.080l0.061-0.084c0.020-0.032 0.040-0.063 0.058-0.096l0.042-0.085c0.005-0.010 0.011-0.021 0.015-0.033l0.001 0 0.070-0.172c0.046-0.112 0.090-0.222 0.132-0.331l0.025-0.063c0.103-0.259 0.196-0.51 0.278-0.732 0.15-0.406 0.289-0.813 0.414-1.21 0.119-0.377 0.192-0.641 0.233-0.797l0.072-0.288c0.015-0.064-0.010-0.131-0.062-0.169-0.070-0.053-0.178-0.037-0.231 0.034l-0.173 0.24c-0.092 0.131-0.246 0.358-0.457 0.692-0.222 0.352-0.443 0.721-0.656 1.097-0.121 0.214-0.25 0.444-0.379 0.685l-0.039 0.072c-0.053 0.099-0.108 0.199-0.161 0.303l-0.002 0.003-0.003-0.005-0.072 0.148-0.022 0.038-0.033 0.031c-0.011 0.010-0.031 0.020-0.047 0.028-0.014 0.007-0.031 0.012-0.054 0.014-0.036 0.006-0.070-0-0.106-0.018l-0.218-0.104c-0.075-0.035-0.151-0.071-0.229-0.106l-0.043-0.019c-0.138-0.062-0.281-0.125-0.426-0.185-0.291-0.123-0.608-0.245-1-0.383-0.257-0.090-0.52-0.179-0.786-0.269l-0.27-0.092c-0.805-0.271-1.506-0.552-2.145-0.858-0.378-0.179-0.725-0.353-1.061-0.534-0.181-0.098-0.357-0.195-0.524-0.29-0.135-0.078-0.271-0.156-0.406-0.234l-0.116-0.067c-0.347-0.204-0.699-0.408-1.045-0.606-0.348-0.198-0.703-0.39-1.055-0.572l-0.775-0.397 0-0.001-0.056-0.028v-0l-0.034-0.019-0.027-0.036h-0.001c-0.009-0.018-0.015-0.039-0.015-0.058 0-0.012 0.003-0.023 0.005-0.029l0.084-0.171c0.343-0.689 0.653-1.352 0.919-1.972 0.279-0.65 0.528-1.257 0.741-1.802 0.318-0.815 0.612-1.627 0.847-2.335 0.007 0.027 0.014 0.055 0.022 0.082l-0 0 0.005 0.017c0.013 0.045 0.026 0.091 0.040 0.136l0.172 0.567 0.017-0.023c0.386 0.981 0.987 1.875 1.74 2.614l-0.001 0.001 0.165 0.204c0.159 0.159 0.337 0.293 0.515 0.427 0.866 0.65 1.814 1.083 2.871 1.319l0.21 0.038 0.007-0.009c0.552 0.109 1.108 0.153 1.658 0.138 0.030 0.030 0.097 0.096 0.201 0.192 0.145 0.134 0.361 0.324 0.642 0.553s0.626 0.497 1.031 0.786c0.405 0.288 0.868 0.602 1.383 0.922s1.080 0.651 1.69 0.974c0.61 0.325 1.271 0.628 1.971 0.905l0.189 0.075 0.083 0.031c0.055 0.020 0.112 0.036 0.169 0.050 0.229 0.057 0.468 0.069 0.698 0.038 0.461-0.061 0.89-0.3 1.183-0.664l0.053-0.069 0.026-0.035 0.030-0.046c0.021-0.032 0.040-0.064 0.059-0.096 0.018-0.030 0.042-0.074 0.041-0.076l0.014-0.033 0.011-0.025c0.049-0.098 0.015-0.032 0.027-0.056l0.026-0.069c0.034-0.091 0.069-0.183 0.103-0.275 0.068-0.184 0.137-0.369 0.206-0.554 0.135-0.373 0.257-0.755 0.365-1.146s0.206-0.787 0.306-1.183c0.1-0.396 0.207-0.789 0.333-1.171s0.27-0.754 0.431-1.114c0.161-0.361 0.341-0.709 0.545-1.041 0.203-0.333 0.428-0.65 0.66-0.957zM28.754 14.827l0.048 0.027 0.012 0.007 0.006 0.003c-0.017-0.008 0.045 0.023-0.036-0.017l0.023 0.015 0.023 0.015 0.012 0.008 0.006 0.004c-0 0-0.003-0.001-0.005-0.001-0.015-0.004-0.029-0.011-0.042-0.018l-0.010-0.006c-0.002-0-0.003-0-0.004-0.001s-0.005-0.001-0.007-0.002c-0.004-0.002-0.007-0.005-0.012-0.005-0.015-0.009-0.031-0.018-0.044-0.031-0.007-0.008-0.013-0.016-0.019-0.025 0.016 0.009 0.032 0.019 0.048 0.028zM15.511 13.954l-2.343-1.758 1.421-1.893c0.861 0.285 1.778 0.726 2.68 1.309l-1.758 2.342zM17.796 11.971c0.086 0.061 0.172 0.124 0.257 0.188 0.735 0.552 1.387 1.155 1.934 1.771l-1.624 2.164-2.343-1.758 1.775-2.365zM15.129 14.464l-1.758 2.341c-0.812-0.703-1.492-1.46-2.005-2.207l1.421-1.893 2.343 1.758zM15.638 14.846l2.343 1.758-1.624 2.164c-0.745-0.354-1.506-0.811-2.241-1.363-0.085-0.064-0.169-0.129-0.252-0.194l1.775-2.365zM18.49 16.986l2.851 2.14c-0.839 0.736-2.525 0.66-4.385-0.095l1.535-2.045zM21.723 18.617l-2.851-2.14 1.535-2.045c1.244 1.575 1.788 3.173 1.316 4.184zM22.473 17.154c-0.176-1.008-0.755-2.143-1.665-3.255l1.486-1.979c0.762 1.671 0.803 3.552 0.18 5.235zM19.939 9.117c0.076 0.057 0.178 0.134 0.255 0.191 0.713 0.535 1.33 1.197 1.782 1.975l-1.594 2.124c-0.555-0.608-1.208-1.202-1.946-1.756-0.085-0.064-0.171-0.127-0.257-0.188l1.76-2.345zM16.361 7.944c1.051 0.032 2.095 0.338 3.031 0.842l-1.738 2.316c-0.895-0.586-1.796-1.036-2.655-1.342l1.363-1.815zM15.035 8.012c0.148 0.050 0.266 0.088 0.352 0.115l-1.065 1.419c-0.864-0.236-1.669-0.316-2.361-0.229 0.899-0.674 1.953-1.123 3.074-1.305zM13.901 10.106l-1.267 1.688-1.807-1.356c0.636-0.558 1.758-0.649 3.074-0.332zM10.445 10.948l1.807 1.356-1.267 1.688c-0.672-1.175-0.897-2.278-0.539-3.044zM9.269 15.462c0.038-0.139 0.057-0.214 0.058-0.214 0.017-0.066-0.009-0.136-0.064-0.175-0.006-0.004-0.012-0.007-0.019-0.011-0.033-0.927 0.116-1.849 0.442-2.713 0.11 0.689 0.411 1.44 0.879 2.203l-1.198 1.596c-0.044-0.228-0.076-0.458-0.097-0.687zM11.249 19.632c-0.745-0.758-1.33-1.675-1.655-2.675l1.363-1.815c0.533 0.74 1.217 1.479 2.030 2.175l-1.738 2.316zM14.369 21.416c-0.853-0.242-1.655-0.606-2.394-1.16-0.076-0.057-0.178-0.134-0.255-0.191l1.76-2.345c0.083 0.065 0.167 0.13 0.253 0.194 0.738 0.554 1.491 1.015 2.23 1.379l-1.594 2.124zM15.069 21.544l1.486-1.98c1.345 0.573 2.617 0.81 3.643 0.684-1.453 1.079-3.299 1.562-5.129 1.296zM23.943 24.746l-0.036 0.064c0.009-0.018-0.026 0.053 0.019-0.039l-0.005 0.008-0.010 0.016-0.019 0.031c-0.011 0.020-0.002-0.003 0.003-0.014 0.005-0.012 0.011-0.024 0.018-0.035l0.010-0.016 0.003-0.007c0.002-0.005 0.005-0.009 0.007-0.013 0.013-0.023 0.030-0.042 0.047-0.061-0.013 0.022-0.025 0.045-0.038 0.067zM30.728 19.625c-1.032-0.479-2.257-0.030-2.736 1.002s-0.030 2.257 1.002 2.737c1.032 0.479 2.257 0.030 2.736-1.002s0.030-2.258-1.003-2.736z"></path>
</svg>
