<!-- Generated by IcoMoon.io -->
<svg version="1.1" xmlns="http://www.w3.org/2000/svg" width="32" height="32" viewBox="0 0 32 32">
<title>geojson</title>
<path d="M16.002-0.385c-8.754 0-15.85 7.092-15.85 15.84s7.096 15.84 15.85 15.84 15.85-7.092 15.85-15.84c-0-8.748-7.096-15.84-15.85-15.84zM12.166 7.136c-0.855 0-1.404 0.048-1.647 0.144s-0.422 0.242-0.537 0.438-0.173 0.532-0.173 1.008c0 0.484-0.033 1.402-0.098 2.754-0.039 0.761-0.138 1.377-0.3 1.849s-0.367 0.862-0.617 1.17-0.632 0.626-1.147 0.956c0.451 0.261 0.819 0.566 1.106 0.915s0.506 0.773 0.659 1.272 0.252 1.166 0.298 2.003c0.065 1.274 0.098 2.087 0.098 2.44 0 0.506 0.061 0.859 0.184 1.059s0.308 0.351 0.558 0.455c0.249 0.103 0.788 0.155 1.616 0.155v2.77h-0.611c-1.038 0-1.834-0.083-2.387-0.247s-1.020-0.44-1.401-0.823c-0.381-0.384-0.636-0.858-0.767-1.422s-0.196-1.453-0.196-2.666c0-1.412-0.061-2.329-0.184-2.752-0.168-0.614-0.423-1.054-0.763-1.319s-0.863-0.416-1.567-0.455v-2.77c0.559-0.031 0.98-0.115 1.263-0.253s0.528-0.37 0.735-0.697c0.207-0.326 0.348-0.735 0.425-1.226 0.061-0.368 0.092-1.009 0.092-1.923 0-1.489 0.069-2.527 0.207-3.114s0.388-1.059 0.75-1.416c0.361-0.357 0.888-0.639 1.58-0.846 0.469-0.138 1.207-0.207 2.214-0.207h0.611v2.75zM26.447 17.093c-0.283 0.138-0.526 0.37-0.729 0.697s-0.346 0.735-0.431 1.226c-0.061 0.369-0.092 1.006-0.092 1.911 0 1.489-0.067 2.529-0.202 3.12s-0.382 1.065-0.744 1.422c-0.362 0.357-0.892 0.639-1.591 0.846-0.469 0.138-1.207 0.207-2.214 0.207h-0.611v-2.77c0.824 0 1.363-0.052 1.617-0.155s0.441-0.253 0.56-0.449c0.119-0.196 0.181-0.528 0.185-0.996s0.034-1.362 0.093-2.682c0.038-0.798 0.142-1.437 0.311-1.917s0.394-0.886 0.675-1.22c0.28-0.334 0.64-0.627 1.078-0.88-0.567-0.369-0.981-0.73-1.242-1.083-0.36-0.507-0.606-1.152-0.736-1.936-0.084-0.537-0.146-1.72-0.185-3.548-0.008-0.576-0.060-0.96-0.156-1.152s-0.269-0.34-0.52-0.444c-0.25-0.104-0.811-0.156-1.681-0.156v-2.75h0.611c1.038 0 1.834 0.081 2.387 0.242s1.019 0.436 1.395 0.823c0.377 0.388 0.632 0.864 0.767 1.428s0.202 1.453 0.202 2.665c0 1.405 0.057 2.322 0.172 2.752 0.168 0.614 0.425 1.054 0.769 1.318s0.869 0.416 1.573 0.455v2.77c-0.559 0.031-0.98 0.115-1.263 0.253z"></path>
</svg>
