<!-- Generated by IcoMoon.io -->
<svg version="1.1" xmlns="http://www.w3.org/2000/svg" width="32" height="32" viewBox="0 0 32 32">
<title>geolocation</title>
<path d="M16 0.346c-8.344 0-15.108 6.764-15.108 15.108s6.764 15.108 15.108 15.108c8.344 0 15.108-6.764 15.108-15.108s-6.764-15.108-15.108-15.108zM16 27.091c-6.427 0-11.637-5.21-11.637-11.637s5.21-11.637 11.637-11.637 11.637 5.21 11.637 11.637c0 6.427-5.21 11.637-11.637 11.637zM23.77 15.455c0 4.291-3.479 7.77-7.77 7.77s-7.77-3.479-7.77-7.77c0-4.291 3.479-7.77 7.77-7.77s7.77 3.479 7.77 7.77z"></path>
</svg>
