<!-- Generated by IcoMoon.io -->
<svg version="1.1" xmlns="http://www.w3.org/2000/svg" width="32" height="32" viewBox="0 0 32 32">
<title>geomoose</title>
<path d="M23.697 9.076c0.85 0.11 1.593 0.172 2.321 0.311 0.609 0.116 1.222 0.271 1.796 0.502 0.875 0.352 1.369 1.045 1.533 1.982 0.055 0.312-0.024 0.542-0.322 0.624-0.544 0.149-1.092 0.312-1.649 0.371-0.936 0.1-1.881 0.119-2.822 0.181-0.382 0.025-0.622 0.22-0.851 0.553-0.668 0.971-1.389 1.906-2.112 2.838-0.338 0.436-0.491 0.887-0.487 1.45 0.022 3.526 0.006 7.053 0.019 10.58 0.001 0.379-0.097 0.498-0.486 0.492-1.43-0.023-2.86-0.019-4.29-0.002-0.346 0.004-0.448-0.099-0.447-0.445 0.011-3.554 0.008-7.109 0.005-10.663-0-0.374-0.011-0.75-0.046-1.122-0.027-0.285-0.171-0.497-0.49-0.531-0.321-0.034-0.611 0.050-0.713 0.371-0.103 0.325-0.175 0.675-0.177 1.014-0.012 3.61-0.008 7.22-0.008 10.83 0 0.163 0 0.325 0 0.513-1.738 0-3.424 0-5.159 0-0.008-0.167-0.022-0.327-0.022-0.487-0.001-3.541 0.001-7.081-0.004-10.621-0-0.36-0.031-0.72-0.068-1.078-0.029-0.286-0.165-0.497-0.483-0.54-0.348-0.047-0.64 0.078-0.734 0.405-0.11 0.381-0.173 0.788-0.174 1.184-0.013 3.54-0.007 7.081-0.008 10.622 0 0.163 0 0.325 0 0.515-1.737 0-3.424 0-5.157 0-0.008-0.136-0.023-0.269-0.023-0.402-0.001-4.082-0.008-8.164 0.004-12.246 0.005-1.73 0.602-3.199 2.005-4.287 1.662-1.289 5.167-1.635 6.959 1.099 0.073 0.112 0.159 0.215 0.266 0.359 0.166-0.21 0.304-0.378 0.436-0.551 0.938-1.233 2.183-1.899 3.729-1.835 0.687 0.028 1.060-0.343 1.559-0.776-0.209-0.059-0.357-0.105-0.508-0.141-2.253-0.539-4.506-1.079-6.762-1.61-0.285-0.067-0.425-0.215-0.464-0.502-0.163-1.179 0.033-2.33 0.324-3.459 0.171-0.665 0.475-1.297 0.741-1.934 0.066-0.159 0.204-0.299 0.333-0.421 0.484-0.456 1.139-0.316 1.306 0.326 0.115 0.445 0.126 0.934 0.092 1.397-0.062 0.87-0.203 1.735-0.284 2.605-0.027 0.293-0.071 0.668 0.313 0.774 0.41 0.113 0.65-0.188 0.804-0.509 0.186-0.386 0.322-0.796 0.481-1.195 0.128-0.322 0.248-0.648 0.391-0.963 0.127-0.282 0.324-0.495 0.672-0.45 0.357 0.045 0.627 0.26 0.657 0.6 0.044 0.49 0.010 0.99-0.028 1.483-0.030 0.386-0.133 0.766-0.171 1.152-0.030 0.303-0.050 0.635 0.327 0.768 0.335 0.118 0.664-0.036 0.85-0.422 0.156-0.323 0.258-0.673 0.397-1.005 0.124-0.296 0.239-0.619 0.664-0.559 0.359 0.050 0.575 0.335 0.562 0.802-0.011 0.415-0.065 0.829-0.104 1.243-0.030 0.325 0.118 0.509 0.416 0.633 0.896 0.374 1.8 0.373 2.717 0.105 0.346-0.101 0.694-0.2 1.035-0.317 0.55-0.19 0.652-0.471 0.388-0.987-0.107-0.209-0.239-0.421-0.274-0.645-0.023-0.143 0.070-0.382 0.185-0.448 0.107-0.061 0.347 0.005 0.467 0.096 0.206 0.157 0.338 0.42 0.553 0.556 0.157 0.099 0.397 0.065 0.6 0.090 0.014-0.19 0.090-0.402 0.029-0.564-0.104-0.282-0.302-0.528-0.442-0.799-0.114-0.221-0.265-0.451-0.28-0.685-0.013-0.2 0.095-0.468 0.243-0.596 0.087-0.075 0.389 0.018 0.541 0.117 0.191 0.125 0.328 0.333 0.487 0.508 0.14 0.154 0.266 0.323 0.417 0.465 0.203 0.191 0.447 0.426 0.727 0.227 0.29-0.206 0.064-0.489-0.042-0.708-0.236-0.487-0.517-0.951-0.757-1.436-0.11-0.221-0.219-0.464-0.233-0.703-0.012-0.194 0.064-0.475 0.203-0.573s0.411-0.048 0.61-0.002c0.137 0.031 0.262 0.153 0.372 0.257 0.8 0.761 1.345 1.686 1.735 2.711 0.124 0.326 0.044 0.531-0.25 0.732-1.193 0.813-2.369 1.65-3.551 2.479-0.106 0.075-0.206 0.159-0.39 0.302z"></path>
</svg>
