<!-- Generated by IcoMoon.io -->
<svg version="1.1" xmlns="http://www.w3.org/2000/svg" width="32" height="32" viewBox="0 0 32 32">
<title>geomajas</title>
<path d="M3.846 1.652c-0.423-0.004-0.846-0.007-1.269-0.011 0.033 8.963 0.067 17.926 0.101 26.891l1.734 0.737c6.592-0.31 13.182-0.683 19.769-1.092 1.745-0.108 3.479-0.403 5.242-0.615 0-8.315 0-16.32 0-24.687-8.647-0.413-17.111-0.817-25.577-1.222zM25.879 16.885c-1.849 0.981-3.708 1.966-5.851 3.104 0.672 0.949 1.276 1.801 2.247 3.172-3.227 0.184-6.122 0.349-9.546 0.545 0.841-1.368 1.484-2.414 2.262-3.681-2.051-0.961-4.035-1.891-6.29-2.948-0.634-3.648-1.29-7.421-1.945-11.195 0.172-0.159 0.343-0.318 0.516-0.478 3.354 3.859 6.708 7.718 10.316 11.869 0.908-1.068 1.808-2.126 2.702-3.178l0.205-0.241c2.131-2.506 4.23-4.974 6.329-7.443 0.172 0.092 0.346 0.184 0.518 0.276-0.481 3.357-0.963 6.715-1.463 10.198z"></path>
</svg>
