<!-- Generated by IcoMoon.io -->
<svg version="1.1" xmlns="http://www.w3.org/2000/svg" width="32" height="32" viewBox="0 0 32 32">
<title>geonode</title>
<path d="M27.478 18.61c-1.363-0.615-2.731-1.22-4.117-1.779-0.37-0.149-0.827-0.204-1.221-0.145-0.39 0.059-0.741 0.341-1.125 0.483-0.998 0.369-1.117 0.527-1.081 1.562 0.004 0.118 0 0.236 0 0.355-0.003 0-0.006 0-0.009 0 0.006 0.144-0.015 0.297 0.024 0.432 0.137 0.465 0.151 1.105 0.468 1.353 1.703 1.334 3.469 2.591 5.245 3.827 0.601 0.418 1.305 0.762 2.074 0.567 0.525-0.133 1.032-0.379 1.514-0.636 1.395-0.745 1.714-2.943 0.894-4.178-0.656-0.988-1.671-1.391-2.667-1.841zM12.049 17.72c-0.636-0.305-1.269-0.621-1.924-0.881-0.318-0.126-0.713-0.262-1.015-0.18-0.611 0.166-1.184 0.473-1.769 0.728-1.208 0.528-2.41 1.069-3.621 1.588-1.146 0.492-2.421 1.622-2.31 3.061l0.685 2.022c0.44 0.789 2.129 1.519 2.87 1.201 0.902-0.387 1.786-0.852 2.604-1.393 1.146-0.758 2.229-1.613 3.331-2.438 0.337-0.252 0.839-0.489 0.929-0.823 0.231-0.86 0.279-1.771 0.384-2.663 0.008-0.068-0.088-0.186-0.164-0.222zM22.86 14.28c0.477-0.105 0.919-0.376 1.374-0.579 1.441-0.643 2.889-1.269 4.318-1.936 0.944-0.441 1.742-1.075 1.956-2.162 0.38-1.934-0.474-3.204-2.097-3.769-1.266-0.441-2.436 0.058-3.481 0.862-1.267 0.974-2.563 1.91-3.846 2.864-0.496 0.369-1.060 0.653-1.066 1.43-0.006 0.714-0.133 1.427-0.217 2.23 0.648 0.286 1.33 0.614 2.034 0.885 0.322 0.124 0.709 0.246 1.025 0.176zM5.148 12.51c1.019 0.491 2.055 0.951 3.101 1.382 0.465 0.192 1.018 0.474 1.451 0.372 0.753-0.177 1.446-0.614 2.155-0.958 0.097-0.047 0.217-0.194 0.21-0.287-0.063-0.886-0.146-1.771-0.242-2.655-0.010-0.090-0.135-0.18-0.224-0.246-1.513-1.13-3.014-2.277-4.551-3.374-0.73-0.521-1.449-1.154-2.338-0.956-1.089 0.002-1.464 0.137-2.219 0.755-1.289 1.055-1.445 2.98-0.365 4.224 0.81 0.934 1.973 1.237 3.021 1.742zM14.857 0.041c-0.961 0.428-1.702 1.15-1.733 2.229-0.037 1.273 0.126 2.554 0.225 3.829 0.071 0.912 0.173 1.821 0.277 2.73 0.018 0.152 0.079 0.346 0.19 0.433 0.672 0.532 1.361 1.042 2.053 1.546 0.056 0.041 0.204 0.018 0.271-0.029 0.658-0.467 1.318-0.93 1.95-1.43 0.148-0.117 0.251-0.358 0.273-0.554 0.091-0.804 0.126-1.615 0.212-2.42 0.129-1.195 0.285-2.387 0.443-3.694-0.125-0.414-0.211-0.93-0.429-1.382-0.56-1.162-2.262-1.914-3.733-1.258zM18.338 22.227c-0.035-0.233-0.134-0.518-0.303-0.658-0.532-0.437-1.124-0.802-1.669-1.224-0.285-0.22-0.493-0.184-0.761 0.024-0.523 0.407-1.085 0.765-1.602 1.178-0.172 0.138-0.344 0.372-0.369 0.58-0.101 0.842-0.124 1.693-0.215 2.536-0.116 1.074-0.269 2.144-0.433 3.429 0.107 0.404 0.166 1.028 0.43 1.547 0.575 1.131 1.59 1.517 2.83 1.466 1.176-0.049 2.534-1.033 2.599-2.181 0.074-1.309-0.069-2.634-0.166-3.949-0.068-0.92-0.203-1.837-0.341-2.75zM18.752 14.121c-0.015-0.178-0.134-0.407-0.278-0.503-0.667-0.443-1.35-0.864-2.049-1.253-0.208-0.116-0.547-0.212-0.728-0.121-0.713 0.356-1.398 0.773-2.069 1.205-0.176 0.114-0.366 0.362-0.374 0.556-0.038 0.957-0.033 1.917-0.004 2.875 0.005 0.171 0.161 0.392 0.312 0.494 0.64 0.433 1.294 0.848 1.966 1.23 0.216 0.122 0.559 0.244 0.744 0.155 0.627-0.299 1.203-0.703 1.811-1.044 0.49-0.275 0.814-0.601 0.693-1.23-0.059-0.304-0.010-0.629-0.010-0.945 0-0.473 0.026-0.949-0.013-1.419z"></path>
</svg>
