<!-- Generated by IcoMoon.io -->
<svg version="1.1" xmlns="http://www.w3.org/2000/svg" width="32" height="32" viewBox="0 0 32 32">
<title>geopaparazzi</title>
<path d="M6.878 18.273c0.27 0.329 0.698 0.316 1.040 0.072 0.32-0.229 0.442-0.606 0.279-0.981-0.088-0.203-0.225-0.387-0.353-0.569-2.115-3.006-2.493-6.209-0.852-9.506 1.822-3.66 4.967-5.322 9.053-5.555 0.63 0.076 1.349 0.106 2.041 0.256 2.853 0.62 5.097 2.142 6.601 4.665 1.228 2.061 1.593 4.289 1.090 6.643-0.295 1.381-0.943 2.599-1.768 3.736-0.336 0.463-0.248 0.976 0.163 1.257 0.403 0.275 0.878 0.18 1.211-0.268 1.844-2.477 2.684-5.227 2.173-8.312-0.628-3.786-2.696-6.594-6.088-8.308-3.919-1.981-7.878-1.842-11.667 0.402-5.070 3.002-7.126 9.502-4.089 14.823 0.332 0.581 0.739 1.127 1.164 1.645zM20.725 13.664c-0.227 0.502-0.126 0.96 0.3 1.206 0.414 0.239 0.904 0.092 1.188-0.369 1.102-1.787 1.347-3.673 0.613-5.655-1.031-2.783-3.775-4.61-6.905-4.62-0.291 0.013-0.584 0.006-0.871 0.045-0.378 0.052-0.757 0.121-1.127 0.217-3.386 0.883-5.811 4.057-5.257 7.658 0.141 0.916 0.481 1.757 0.978 2.533 0.288 0.448 0.746 0.562 1.164 0.326 0.406-0.229 0.529-0.698 0.303-1.175-0.057-0.119-0.129-0.231-0.191-0.348-0.894-1.67-0.862-3.339 0.126-4.938 1.68-2.718 5.567-3.467 8.203-1.59 1.713 1.219 2.559 2.873 2.175 4.998-0.107 0.594-0.447 1.149-0.702 1.712zM12.967 11.354c-0.008 1.593 1.366 2.929 3.027 2.942 1.637 0.013 3.037-1.334 3.044-2.929 0.007-1.575-1.362-2.901-3.011-2.915-1.661-0.015-3.052 1.305-3.060 2.903zM15.916 22.104c-1.914 0.003-3.448 1.496-3.449 3.357-0.001 1.855 1.529 3.354 3.445 3.376 1.877 0.021 3.467-1.512 3.472-3.351 0.006-1.878-1.539-3.385-3.468-3.382zM21.44 20.752c-0.189-0.003-0.433-0.124-0.553-0.27-0.752-0.922-1.483-1.862-2.206-2.807-0.153-0.2-0.31-0.281-0.563-0.279-1.375 0.012-2.751 0.026-4.126-0.006-0.458-0.011-0.749 0.119-1.021 0.493-0.629 0.866-1.316 1.69-1.965 2.542-0.185 0.243-0.382 0.35-0.697 0.346-1.428-0.017-2.857-0.008-4.285-0.008-0.141 0-0.283 0-0.432 0 0 3.409 0 6.772 0 10.132 6.902 0 13.772 0 20.659 0 0-3.381 0-6.733 0-10.132-0.164 0-0.305 0-0.447 0-1.455 0-2.91 0.010-4.364-0.012zM15.927 30.131c-2.675 0-4.81-2.063-4.818-4.654-0.052-2.396 1.947-4.684 4.828-4.692 2.667-0.007 4.804 2.105 4.803 4.683-0.001 2.586-2.145 4.663-4.813 4.663z"></path>
</svg>
