<!-- Generated by IcoMoon.io -->
<svg version="1.1" xmlns="http://www.w3.org/2000/svg" width="32" height="32" viewBox="0 0 32 32">
<title>geoserver</title>
<path d="M29.504 10.73l-8.779-8.779c-2.553-2.553-6.534-2.712-8.892-0.354l-9.692 9.692c-2.357 2.357-2.199 6.338 0.354 8.892l8.779 8.779c2.553 2.553 6.534 2.712 8.892 0.354l9.692-9.692c2.357-2.357 2.199-6.338-0.354-8.892zM14.206 1.946c-0.001-0.067 0.044-0.075 0.091-0.089 0.532-0.161 1.076-0.237 1.691-0.242 1.263 0.019 2.448 0.426 3.488 1.251 0.079 0.063 0.090 0.119 0.067 0.209-0.11 0.427-0.343 0.781-0.652 1.086-0.496 0.49-1.076 0.839-1.763 0.983-0.195 0.041-0.407 0.048-0.603 0.017-0.327-0.051-0.46-0.267-0.402-0.592 0.038-0.213 0.101-0.422 0.134-0.636 0.051-0.339-0.088-0.501-0.434-0.51-0.182-0.004-0.365 0.025-0.547 0.024-0.161-0.001-0.328 0.002-0.48-0.039-0.373-0.102-0.54-0.393-0.583-0.75-0.028-0.234-0.004-0.474-0.007-0.711zM17.936 8.721c-0.086 0.021-0.176 0.025-0.265 0.037-0.383 0.007-0.666-0.172-0.881-0.474-0.076-0.107-0.050-0.203 0.061-0.271 0.365-0.221 0.947-0.085 1.171 0.275 0.029 0.046 0.054 0.097 0.070 0.149 0.044 0.143-0.012 0.248-0.157 0.283zM13.061 10.61c-0.089 0.116-0.196 0.225-0.313 0.313-0.204 0.153-0.419 0.291-0.633 0.429-0.256 0.165-0.5 0.344-0.705 0.572-0.353 0.392-0.467 0.842-0.293 1.342 0.095 0.272 0.227 0.531 0.347 0.794 0.111 0.241 0.233 0.477 0.267 0.745 0.029 0.224-0.017 0.431-0.16 0.602-0.101 0.12-0.218 0.232-0.347 0.322-0.221 0.154-0.419 0.115-0.55-0.119-0.105-0.187-0.177-0.395-0.254-0.597-0.090-0.234-0.163-0.476-0.258-0.708-0.042-0.103-0.114-0.197-0.188-0.281-0.101-0.115-0.24-0.144-0.379-0.088-0.506 0.204-0.96 0.486-1.301 0.922-0.075 0.096-0.132 0.211-0.172 0.327-0.073 0.209-0.017 0.398 0.152 0.541 0.086 0.072 0.186 0.132 0.287 0.182 0.669 0.327 1.343 0.643 1.967 1.054 0.379 0.249 0.739 0.521 1.026 0.878 0.153 0.19 0.274 0.398 0.314 0.643 0.052 0.314-0.040 0.594-0.246 0.824-0.153 0.171-0.325 0.331-0.512 0.463-0.792 0.558-1.596 1.1-2.39 1.656-0.405 0.283-0.798 0.587-1.1 0.983-0.147 0.192-0.259 0.411-0.392 0.624-0.005-0.005-0.026-0.022-0.045-0.041-0.381-0.38-0.761-0.762-1.144-1.14-0.052-0.051-0.061-0.094-0.041-0.163 0.089-0.317 0.146-0.638 0.134-0.969-0.012-0.336-0.11-0.631-0.349-0.881-0.25-0.262-0.358-0.596-0.395-0.948-0.11-1.038 0.192-1.94 0.92-2.695 0.552-0.572 0.706-1.376 0.381-2.043-0.215-0.441-0.558-0.693-1.070-0.695-0.52-0.002-1.033-0.066-1.513-0.285-0.387-0.176-0.683-0.439-0.798-0.867-0.013-0.050-0.022-0.101-0.033-0.151-0.023-0.111-0.002-0.205 0.083-0.29 0.161-0.161 0.309-0.334 0.47-0.495 2.174-2.175 4.35-4.349 6.524-6.525 0.061-0.062 0.121-0.086 0.207-0.085 0.474 0.006 0.945 0.034 1.402 0.172 0.112 0.034 0.222 0.077 0.325 0.131 0.363 0.189 0.484 0.473 0.38 0.872-0.055 0.212-0.161 0.398-0.313 0.552-0.208 0.211-0.428 0.411-0.644 0.614-0.204 0.192-0.395 0.396-0.532 0.643-0.145 0.263-0.21 0.544-0.206 0.844 0.004 0.289 0.137 0.519 0.366 0.674 0.232 0.157 0.486 0.286 0.738 0.411 0.231 0.115 0.474 0.206 0.709 0.313 0.071 0.032 0.139 0.078 0.201 0.125 0.189 0.144 0.22 0.311 0.075 0.501zM20.586 27.070c-0.448 0.439-0.864 0.913-1.383 1.275-1.075 0.75-2.266 1.096-3.576 1.032-0.818-0.040-1.588-0.254-2.315-0.628-0.024-0.012-0.046-0.027-0.095-0.056 0.71-0.212 1.394-0.422 2.082-0.621 1.075-0.31 2.155-0.602 3.253-0.825 0.534-0.108 1.069-0.208 1.616-0.223 0.14-0.004 0.28-0.001 0.419-0.001-0 0.035 0.003 0.044-0 0.047zM21.177 17.892c-0.338 0.663-0.424 1.367-0.306 2.102 0.067 0.419 0.112 0.841 0.051 1.267-0.049 0.348-0.152 0.679-0.297 0.996-0.31 0.678-0.705 1.304-1.182 1.876-0.14 0.167-0.309 0.318-0.489 0.443-0.529 0.368-1.096 0.313-1.563-0.132-0.38-0.363-0.607-0.817-0.751-1.313-0.157-0.541-0.213-1.089-0.051-1.641 0.026-0.089 0.061-0.176 0.102-0.259 0.402-0.8 0.294-1.548-0.254-2.231-0.52-0.649-1.213-1.007-2.038-1.103-0.524-0.061-0.888-0.4-0.998-0.955-0.112-0.564-0.008-1.106 0.195-1.631 0.33-0.853 0.874-1.544 1.612-2.081 0.402-0.293 0.863-0.44 1.35-0.511 0.232-0.034 0.466-0.045 0.587-0.056 0.73 0.008 1.332 0.096 1.891 0.369 0.193 0.094 0.372 0.223 0.541 0.356 0.173 0.137 0.29 0.324 0.344 0.542 0.064 0.259 0.22 0.445 0.468 0.524 0.244 0.078 0.5 0.123 0.753 0.167 0.292 0.051 0.591 0.064 0.878 0.13 0.435 0.1 0.558 0.331 0.4 0.749-0.101 0.269-0.238 0.527-0.373 0.782-0.286 0.539-0.593 1.066-0.869 1.609zM28.132 19.529c-0.724 0.73-1.45 1.458-2.188 2.198-0.279-0.316-0.627-0.447-1.024-0.441-0.223 0.003-0.446 0.034-0.669 0.060-0.318 0.038-0.634 0.102-0.953 0.119-0.231 0.012-0.47-0.011-0.697-0.058-0.38-0.079-0.548-0.376-0.472-0.776 0.077-0.407 0.279-0.755 0.531-1.074 0.708-0.898 1.6-1.531 2.709-1.834 0.506-0.138 1.010-0.134 1.49 0.113 0.33 0.17 0.592 0.421 0.79 0.729 0.18 0.28 0.333 0.578 0.494 0.871 0.013 0.023 0.006 0.076-0.012 0.095zM28.482 15.6c-0.071 0.022-0.148 0.022-0.203 0.030-0.317-0.032-0.611-0.075-0.881-0.201-0.114-0.053-0.216-0.143-0.305-0.235-0.070-0.072-0.078-0.175-0.024-0.269 0.053-0.092 0.141-0.121 0.239-0.111 0.401 0.041 0.782 0.149 1.135 0.349 0.044 0.025 0.086 0.059 0.122 0.095 0.119 0.12 0.079 0.293-0.082 0.342zM28.548 14.566c-0.166 0.066-0.354 0.087-0.535 0.101-0.344 0.026-0.632-0.105-0.867-0.358-0.407-0.438-0.867-0.81-1.413-1.064-0.354-0.164-0.722-0.276-1.117-0.255-0.102 0.006-0.206 0.026-0.302 0.061-0.226 0.084-0.252 0.251-0.064 0.402 0.164 0.132 0.262 0.296 0.3 0.502 0.106 0.572-0.313 1.129-0.892 1.187-0.544 0.055-0.955-0.19-1.291-0.584-0.33-0.388-0.509-0.841-0.524-1.352-0.011-0.369-0.032-0.737-0.128-1.096-0.165-0.619-0.512-1.108-1.035-1.475-0.198-0.138-0.395-0.277-0.594-0.414-0.14-0.096-0.291-0.104-0.443-0.038-0.239 0.104-0.404 0.284-0.505 0.522-0.018 0.042-0.028 0.096-0.020 0.14 0.037 0.2-0.032 0.367-0.147 0.521-0.227 0.303-0.532 0.508-0.87 0.667-0.29 0.136-0.591 0.226-0.918 0.211-0.339-0.015-0.711-0.348-0.756-0.686-0.018-0.137 0.031-0.256 0.128-0.346 0.101-0.092 0.215-0.171 0.327-0.251 0.104-0.073 0.218-0.133 0.319-0.21 0.158-0.121 0.165-0.241 0.005-0.362-0.131-0.099-0.279-0.177-0.425-0.253-0.181-0.094-0.204-0.171-0.048-0.303 0.144-0.121 0.3-0.234 0.466-0.323 0.479-0.258 0.968-0.498 1.449-0.753 0.225-0.119 0.449-0.243 0.66-0.385 0.276-0.186 0.313-0.375 0.154-0.665-0.087-0.16-0.186-0.315-0.271-0.476-0.118-0.225-0.174-0.467-0.138-0.72 0.016-0.116 0.053-0.239 0.115-0.337 0.478-0.748 1.126-1.266 2.009-1.462 0.111-0.024 0.187-0.007 0.273 0.078 2.253 2.257 4.511 4.509 6.763 6.767 0.678 0.68 1.135 1.495 1.396 2.419 0.007 0.026 0.013 0.053 0.024 0.104-0.365 0.165-0.721 0.34-1.088 0.485z"></path>
</svg>
