<!-- Generated by IcoMoon.io -->
<svg version="1.1" xmlns="http://www.w3.org/2000/svg" width="32" height="32" viewBox="0 0 32 32">
<title>geotools</title>
<path d="M31.343 14.089v-0.052l-0.008-0.016c-0.122-1.727-0.608-3.392-1.445-4.95-0.819-1.525-1.942-2.888-3.336-4.050-2.874-2.396-6.656-3.716-10.651-3.716-2.035 0-4.016 0.333-5.888 0.99-1.816 0.637-3.449 1.549-4.855 2.711-1.414 1.169-2.525 2.531-3.302 4.049-0.809 1.58-1.219 3.262-1.219 4.998-0.001 0.337-0.006 0.649-0.010 0.951-0.010 0.602-0.019 1.171 0.011 1.786 0.083 1.741 0.54 3.424 1.36 5 0.796 1.532 1.901 2.902 3.284 4.073 2.85 2.413 6.622 3.743 10.62 3.743 3.988 0 7.763-1.32 10.629-3.715 2.83-2.365 4.535-5.563 4.804-9.006l0.006-0.018 0.038-0.826-0.037-1.95zM6.118 17.105c-0.565-1.132-0.852-2.338-0.852-3.586 0-1.756 0.577-3.453 1.67-4.918l0.41 0.205c0.443 0.207 1.308 0.697 2.877 1.586l0.417 0.236c1.895 1.074 3.422 2.075 3.661 2.336 0.557 0.611 1.215 0.947 1.854 0.947 0.091 0.004 0.598 0.205 1.572 0.73 0.811 0.437 1.526 0.876 1.78 1.093 0.141 0.12 0.591 0.836 1.012 1.673 0.361 0.718 0.877 1.6 1.123 1.821 0.166 0.15 0.32 0.274 0.518 0.274 0.137 0 0.271-0.057 0.457-0.156 0.144-0.077 0.254-0.116 0.326-0.116 0.040 0 0.067 0.011 0.096 0.041l0.013 0.013 0.696 0.436c-0.102 0.094-0.206 0.186-0.31 0.273-0.979 0.825-2.118 1.472-3.386 1.922-1.308 0.465-2.697 0.7-4.129 0.7-2.829 0-5.493-0.931-7.5-2.623-0.984-0.83-1.759-1.801-2.301-2.887zM18.302 11.53c-0.041 0.399-0.269 0.761-0.624 0.994-0.287 0.188-0.996 0.347-1.55 0.347-0.193 0-0.351-0.020-0.443-0.057-0.274-0.11-0.554-0.331-0.767-0.607-0.209-0.271-0.328-0.562-0.328-0.797 0-0.896 0.985-1.458 1.909-1.473l1.432 0.547c0.275 0.288 0.41 0.668 0.371 1.047zM15.102 9.609l-0.032 0.015c-0.24 0.109-0.605 0.372-0.84 0.689-0.095 0.129-0.18 0.265-0.249 0.374-0.026 0.042-0.056 0.089-0.081 0.127l-7.948-4.642c-0.015-0.102 0.031-0.237 0.134-0.386 0.309-0.45 1.077-0.952 1.686-0.952 0.010 0 0.019 0 0.029 0 0.115 0.003 0.539 0.147 2.080 1.074 0.557 0.335 1.231 0.754 2.002 1.247 1.749 1.116 3.096 2.018 3.499 2.32-0.085 0.045-0.2 0.097-0.281 0.134zM23.435 7.030c0.983 0.829 1.757 1.803 2.301 2.895 0.558 1.121 0.844 2.313 0.852 3.544-0.276-0.056-0.411-0.066-0.618-0.066-0.039 0-0.081 0-0.127 0.001-0.653-0.028-3.048-0.43-3.777-0.634-0.449-0.126-1.243-0.532-1.974-1.011-0.787-0.515-1.338-1.011-1.439-1.294-0.249-0.7-1.295-1.131-1.94-1.134-0.043-0.008-0.312-0.093-1.75-0.96-0.897-0.54-1.889-1.169-2.476-1.552-1.008-0.659-1.081-0.716-1.226-0.83-0.039-0.030-0.083-0.065-0.149-0.115-0.129-0.096-0.239-0.186-0.327-0.258-0.026-0.021-0.050-0.041-0.072-0.058 1.585-0.758 3.379-1.158 5.206-1.158 1.431 0 2.82 0.237 4.129 0.703 1.268 0.452 2.407 1.099 3.387 1.925zM26.26 15.633c-0.183 0-0.368 0.033-0.564 0.101-0.181 0.063-0.368 0.154-0.574 0.279l-0.723 0.444 0.98 1.132c0.479 0.553 0.999 1.111 1.159 1.244 0.014 0.012 0.042 0.035 0.069 0.058-0.018 0.008-0.039 0.016-0.063 0.026-0.141 0.055-0.303 0.084-0.482 0.084-0.348 0-0.753-0.103-1.204-0.307-0.351-0.159-0.721-0.375-1.102-0.643-0.454-0.32-0.681-0.453-0.916-0.453-0.141 0-0.262 0.049-0.401 0.124-0.119 0.063-0.201 0.092-0.269 0.092-0.262 0-0.579-0.556-1.189-1.802-0.772-1.576-0.829-1.641-2.037-2.318-0.428-0.24-0.869-0.487-0.956-0.59 0.027-0.030 0.084-0.077 0.105-0.094 0.023-0.019 0.048-0.039 0.074-0.060 0.176-0.141 0.417-0.335 0.584-0.609l0.011-0.018 0.172-0.589 1.268 0.781c1.439 0.892 1.982 1.044 5.281 1.478 0.34 0.045 0.655 0.093 0.938 0.144 0.776 0.14 1.142 0.273 1.221 0.344 0.273 0.247 0.62 1.346 0.62 2.228v0.201l-0.477-0.477c-0.497-0.497-0.937-0.748-1.384-0.791-0.046-0.004-0.093-0.007-0.139-0.007zM7.761 5.427c-0.477-0.055-0.94 0.346-0.752 0.65 0.064 0.103 0.358 0.164 0.654 0.135 0.704-0.068 0.783-0.706 0.097-0.786z"></path>
</svg>
