<!-- Generated by IcoMoon.io -->
<svg version="1.1" xmlns="http://www.w3.org/2000/svg" width="32" height="32" viewBox="0 0 32 32">
<title>gis-day</title>
<path d="M16 13.195c1.188 0 2.284 0.293 3.288 0.878s1.798 1.38 2.384 2.384 0.878 2.099 0.878 3.288-0.293 2.284-0.878 3.288-1.38 1.798-2.384 2.384c-1.003 0.586-2.099 0.878-3.288 0.878s-2.284-0.293-3.288-0.878c-1.003-0.586-1.798-1.38-2.384-2.384s-0.878-2.099-0.878-3.288 0.293-2.284 0.878-3.288 1.38-1.798 2.384-2.384 2.099-0.878 3.288-0.878zM18.337 17.638c-0.011 0.006-0.038 0.033-0.081 0.081s-0.081 0.075-0.115 0.081c0.011 0 0.024-0.014 0.038-0.043s0.028-0.060 0.043-0.094 0.024-0.054 0.030-0.060c0.034-0.040 0.097-0.082 0.188-0.128 0.080-0.034 0.227-0.068 0.443-0.102 0.193-0.045 0.338-0.014 0.435 0.094-0.011-0.011 0.016-0.048 0.081-0.111s0.107-0.097 0.124-0.102c0.017-0.011 0.060-0.024 0.128-0.038s0.111-0.036 0.128-0.064l0.017-0.188c-0.068 0.006-0.118-0.014-0.149-0.060s-0.050-0.105-0.055-0.179c0 0.011-0.017 0.034-0.051 0.068 0-0.040-0.013-0.063-0.038-0.068s-0.058-0.003-0.098 0.009-0.065 0.014-0.077 0.009c-0.057-0.017-0.099-0.038-0.128-0.064s-0.051-0.073-0.068-0.141c-0.017-0.068-0.028-0.111-0.034-0.128-0.011-0.028-0.038-0.058-0.081-0.090s-0.070-0.061-0.081-0.090c-0.006-0.011-0.013-0.027-0.021-0.047s-0.017-0.038-0.026-0.055c-0.009-0.017-0.020-0.033-0.034-0.047s-0.030-0.021-0.047-0.021c-0.017 0-0.037 0.014-0.060 0.043s-0.044 0.057-0.064 0.085-0.033 0.043-0.038 0.043c-0.017-0.011-0.034-0.016-0.051-0.013s-0.030 0.006-0.038 0.009c-0.009 0.003-0.021 0.011-0.038 0.026s-0.031 0.024-0.043 0.030c-0.017 0.011-0.041 0.020-0.073 0.026s-0.055 0.011-0.073 0.017c0.085-0.028 0.082-0.060-0.009-0.094-0.057-0.023-0.102-0.031-0.136-0.026 0.051-0.023 0.072-0.057 0.064-0.102s-0.033-0.085-0.073-0.119h0.043c-0.006-0.023-0.030-0.047-0.072-0.072s-0.092-0.050-0.149-0.072c-0.057-0.023-0.094-0.040-0.111-0.051-0.045-0.028-0.142-0.055-0.29-0.081s-0.242-0.027-0.281-0.004c-0.028 0.034-0.041 0.064-0.038 0.090s0.014 0.065 0.034 0.119 0.030 0.090 0.030 0.107c0.006 0.034-0.010 0.071-0.047 0.111s-0.055 0.074-0.055 0.102c0 0.040 0.040 0.084 0.119 0.132s0.108 0.109 0.085 0.183c-0.017 0.045-0.063 0.091-0.136 0.136s-0.119 0.080-0.136 0.102c-0.028 0.045-0.033 0.098-0.013 0.158s0.050 0.107 0.090 0.141c0.011 0.011 0.016 0.023 0.013 0.034s-0.013 0.024-0.030 0.038-0.033 0.026-0.047 0.034c-0.014 0.009-0.033 0.018-0.055 0.030l-0.026 0.017c-0.063 0.028-0.121 0.011-0.175-0.051s-0.092-0.136-0.115-0.222c-0.040-0.142-0.085-0.227-0.136-0.256-0.131-0.045-0.213-0.043-0.247 0.009-0.028-0.074-0.145-0.148-0.35-0.222-0.142-0.051-0.307-0.063-0.495-0.034 0.034-0.006 0.034-0.048 0-0.128-0.040-0.085-0.094-0.119-0.162-0.102 0.017-0.034 0.028-0.084 0.034-0.149s0.009-0.104 0.009-0.115c0.017-0.074 0.051-0.139 0.102-0.196 0.006-0.006 0.026-0.030 0.060-0.072s0.061-0.081 0.081-0.115 0.021-0.051 0.004-0.051c0.199 0.023 0.341-0.009 0.426-0.094 0.028-0.028 0.061-0.077 0.098-0.145s0.067-0.117 0.090-0.145c0.051-0.034 0.091-0.050 0.119-0.047s0.070 0.018 0.124 0.047c0.054 0.028 0.095 0.043 0.124 0.043 0.080 0.006 0.124-0.026 0.132-0.094s-0.013-0.125-0.064-0.171c0.068 0.006 0.077-0.043 0.026-0.145-0.028-0.040-0.051-0.065-0.068-0.077-0.068-0.023-0.145-0.009-0.23 0.043-0.045 0.023-0.040 0.045 0.017 0.068-0.006-0.006-0.033 0.024-0.081 0.090s-0.095 0.115-0.141 0.149c-0.046 0.034-0.091 0.020-0.136-0.043-0.006-0.006-0.021-0.044-0.047-0.115s-0.053-0.109-0.081-0.115c-0.045 0-0.091 0.043-0.136 0.128 0.017-0.045-0.014-0.088-0.094-0.128s-0.148-0.063-0.205-0.068c0.108-0.068 0.085-0.145-0.068-0.23-0.040-0.023-0.098-0.037-0.175-0.043s-0.132 0.006-0.166 0.034c-0.028 0.040-0.044 0.072-0.047 0.098s0.011 0.048 0.043 0.068c0.031 0.020 0.061 0.036 0.090 0.047s0.061 0.023 0.098 0.034 0.061 0.020 0.072 0.026c0.080 0.057 0.102 0.097 0.068 0.119-0.011 0.006-0.036 0.016-0.072 0.030s-0.070 0.027-0.098 0.038c-0.028 0.011-0.045 0.023-0.051 0.034-0.017 0.023-0.017 0.063 0 0.119s0.011 0.097-0.017 0.119c-0.028-0.028-0.054-0.078-0.077-0.149s-0.043-0.118-0.060-0.141c0.040 0.051-0.031 0.068-0.213 0.051l-0.085-0.009c-0.023 0-0.068 0.006-0.136 0.017s-0.127 0.014-0.175 0.009c-0.048-0.006-0.087-0.028-0.115-0.068-0.023-0.045-0.023-0.102 0-0.171 0.006-0.023 0.017-0.028 0.034-0.017-0.023-0.017-0.054-0.044-0.094-0.081s-0.068-0.061-0.085-0.072c-0.262 0.085-0.529 0.202-0.802 0.35 0.034 0.006 0.068 0.003 0.102-0.009 0.028-0.011 0.065-0.030 0.111-0.055s0.074-0.041 0.085-0.047c0.193-0.080 0.313-0.1 0.358-0.060l0.043-0.043c0.080 0.091 0.136 0.162 0.171 0.213-0.040-0.023-0.125-0.026-0.256-0.009-0.114 0.034-0.176 0.068-0.188 0.102 0.040 0.068 0.054 0.119 0.043 0.153-0.023-0.017-0.055-0.045-0.098-0.085s-0.084-0.071-0.124-0.094c-0.040-0.023-0.082-0.037-0.128-0.043-0.091 0-0.154 0.003-0.188 0.009-0.83 0.455-1.498 1.086-2.004 1.893 0.040 0.040 0.074 0.063 0.102 0.068 0.023 0.006 0.037 0.031 0.043 0.077s0.013 0.077 0.021 0.094c0.009 0.017 0.041 0.009 0.098-0.026 0.051 0.045 0.060 0.099 0.026 0.162 0.006-0.006 0.131 0.071 0.375 0.23 0.108 0.097 0.168 0.156 0.179 0.179 0.017 0.063-0.011 0.114-0.085 0.154-0.006-0.011-0.031-0.037-0.077-0.077s-0.071-0.051-0.077-0.034c-0.017 0.028-0.016 0.081 0.004 0.158s0.050 0.112 0.090 0.107c-0.040 0-0.067 0.046-0.081 0.136s-0.021 0.192-0.021 0.303-0.003 0.178-0.009 0.2l0.017 0.009c-0.017 0.068-0.001 0.166 0.047 0.294s0.109 0.183 0.183 0.166c-0.074 0.017-0.017 0.139 0.171 0.367 0.034 0.046 0.057 0.071 0.068 0.077 0.017 0.011 0.051 0.033 0.102 0.064s0.094 0.060 0.128 0.085 0.063 0.055 0.085 0.090c0.023 0.028 0.051 0.092 0.085 0.192s0.074 0.166 0.119 0.2c-0.011 0.034 0.016 0.091 0.081 0.171s0.095 0.145 0.090 0.196c-0.006 0-0.013 0.003-0.021 0.009s-0.016 0.009-0.021 0.009c0.017 0.040 0.061 0.080 0.132 0.119s0.115 0.077 0.132 0.111c0.006 0.017 0.011 0.045 0.017 0.085s0.014 0.071 0.026 0.094 0.034 0.028 0.068 0.017c0.011-0.114-0.057-0.29-0.205-0.529-0.085-0.142-0.134-0.225-0.145-0.247-0.017-0.028-0.033-0.073-0.047-0.132s-0.027-0.101-0.038-0.124c0.011 0 0.028 0.004 0.051 0.013s0.047 0.018 0.072 0.030c0.026 0.011 0.047 0.023 0.064 0.034s0.023 0.020 0.017 0.026c-0.017 0.040-0.011 0.090 0.017 0.149s0.063 0.112 0.102 0.158c0.040 0.045 0.088 0.099 0.145 0.162s0.091 0.099 0.102 0.111c0.034 0.034 0.074 0.090 0.119 0.166s0.046 0.115 0 0.115c0.051 0 0.108 0.028 0.171 0.085s0.111 0.114 0.145 0.171c0.028 0.046 0.051 0.119 0.068 0.222s0.031 0.171 0.043 0.205c0.011 0.040 0.036 0.078 0.072 0.115s0.072 0.064 0.107 0.081l0.136 0.068 0.111 0.060c0.028 0.011 0.081 0.041 0.158 0.090s0.138 0.081 0.183 0.098c0.057 0.023 0.102 0.034 0.136 0.034s0.075-0.007 0.124-0.021c0.048-0.014 0.087-0.024 0.115-0.030 0.085-0.011 0.168 0.031 0.247 0.128s0.139 0.156 0.179 0.179c0.205 0.108 0.361 0.139 0.469 0.094-0.011 0.006-0.010 0.027 0.004 0.064s0.037 0.081 0.068 0.132 0.057 0.092 0.077 0.124c0.020 0.031 0.036 0.055 0.047 0.073 0.028 0.034 0.080 0.077 0.154 0.128s0.125 0.094 0.154 0.128c0.034-0.023 0.054-0.048 0.060-0.077-0.017 0.045 0.003 0.102 0.060 0.171s0.108 0.097 0.154 0.085c0.080-0.017 0.119-0.108 0.119-0.273-0.176 0.085-0.316 0.034-0.418-0.154 0-0.006-0.007-0.021-0.021-0.047s-0.026-0.050-0.034-0.073c-0.009-0.023-0.016-0.047-0.021-0.073s-0.006-0.047 0-0.064c0.006-0.017 0.020-0.026 0.043-0.026 0.051 0 0.080-0.010 0.085-0.030s0-0.055-0.017-0.107c-0.017-0.051-0.028-0.088-0.034-0.111-0.006-0.045-0.037-0.102-0.094-0.171s-0.091-0.111-0.102-0.128c-0.028 0.051-0.074 0.074-0.136 0.068s-0.108-0.031-0.136-0.077c0 0.006-0.004 0.021-0.013 0.047s-0.013 0.044-0.013 0.055c-0.074 0-0.117-0.003-0.128-0.009 0.006-0.017 0.013-0.067 0.021-0.149s0.018-0.146 0.030-0.192c0.006-0.023 0.021-0.057 0.047-0.102s0.047-0.087 0.064-0.124 0.028-0.073 0.034-0.107-0.007-0.061-0.038-0.081c-0.031-0.020-0.081-0.027-0.149-0.021-0.108 0.006-0.182 0.063-0.222 0.171-0.006 0.017-0.014 0.047-0.026 0.090s-0.026 0.075-0.043 0.098c-0.017 0.023-0.043 0.043-0.077 0.060-0.040 0.017-0.108 0.023-0.205 0.017s-0.165-0.020-0.205-0.043c-0.074-0.045-0.138-0.128-0.192-0.247s-0.081-0.225-0.081-0.316c0-0.057 0.007-0.132 0.021-0.226s0.023-0.165 0.026-0.213-0.013-0.118-0.047-0.209c0.017-0.011 0.043-0.038 0.077-0.081s0.063-0.073 0.085-0.090c0.011-0.006 0.024-0.010 0.038-0.013s0.027-0.003 0.038 0 0.023-0.001 0.034-0.013c0.011-0.011 0.020-0.028 0.026-0.051-0.006-0.006-0.017-0.014-0.034-0.026-0.017-0.017-0.028-0.026-0.034-0.026 0.040 0.017 0.121 0.013 0.243-0.013s0.2-0.021 0.235 0.013c0.085 0.063 0.148 0.057 0.188-0.017 0-0.006-0.007-0.033-0.021-0.081s-0.016-0.087-0.004-0.115c0.028 0.154 0.111 0.179 0.247 0.077 0.017 0.017 0.061 0.031 0.132 0.043s0.121 0.026 0.149 0.043c0.017 0.011 0.037 0.027 0.060 0.047s0.038 0.033 0.047 0.038 0.023 0.004 0.043-0.004 0.044-0.027 0.073-0.055c0.057 0.080 0.091 0.148 0.102 0.205 0.063 0.227 0.117 0.352 0.162 0.375 0.040 0.017 0.071 0.023 0.094 0.017s0.036-0.033 0.038-0.081c0.003-0.048 0.003-0.088 0-0.119s-0.007-0.067-0.013-0.107l-0.009-0.068v-0.154l-0.009-0.068c-0.085-0.017-0.138-0.051-0.158-0.102s-0.016-0.104 0.013-0.158c0.028-0.054 0.071-0.107 0.128-0.158 0.006-0.006 0.028-0.016 0.068-0.030s0.084-0.033 0.132-0.055 0.084-0.046 0.107-0.068c0.119-0.108 0.162-0.208 0.128-0.298 0.040 0 0.071-0.026 0.094-0.077-0.006 0-0.020-0.009-0.043-0.026s-0.044-0.031-0.064-0.043-0.033-0.017-0.038-0.017c0.051-0.028 0.057-0.074 0.017-0.136 0.028-0.017 0.050-0.048 0.064-0.094s0.036-0.074 0.064-0.085c0.051 0.068 0.111 0.074 0.179 0.017 0.040-0.045 0.043-0.091 0.009-0.136 0.028-0.040 0.087-0.070 0.175-0.090s0.141-0.047 0.158-0.081c0.040 0.011 0.063 0.006 0.068-0.017s0.009-0.057 0.009-0.102 0.009-0.080 0.026-0.102c0.023-0.028 0.065-0.054 0.128-0.077s0.099-0.037 0.111-0.043l0.145-0.094c0.017-0.023 0.017-0.034 0-0.034 0.102 0.011 0.19-0.020 0.264-0.094 0.057-0.063 0.040-0.119-0.051-0.171 0.017-0.034 0.009-0.061-0.026-0.081s-0.077-0.036-0.128-0.047c0.017-0.006 0.050-0.007 0.098-0.004s0.078-0.001 0.090-0.013c0.085-0.057 0.065-0.102-0.060-0.136-0.097-0.028-0.219 0.006-0.367 0.102zM16.947 25.117c1.171-0.205 2.169-0.742 2.993-1.612-0.017-0.017-0.053-0.030-0.107-0.038s-0.090-0.018-0.107-0.030c-0.102-0.040-0.171-0.063-0.205-0.068 0.006-0.040-0.001-0.077-0.021-0.111s-0.043-0.060-0.068-0.077c-0.026-0.017-0.061-0.040-0.107-0.068s-0.077-0.048-0.094-0.060c-0.011-0.011-0.031-0.028-0.060-0.051s-0.048-0.038-0.060-0.047c-0.011-0.009-0.033-0.021-0.064-0.038s-0.055-0.023-0.073-0.017c-0.017 0.006-0.045 0.009-0.085 0.009l-0.026 0.009c-0.017 0.006-0.033 0.013-0.047 0.021s-0.030 0.017-0.047 0.026-0.028 0.017-0.034 0.026c-0.006 0.009-0.006 0.016 0 0.021-0.119-0.097-0.222-0.159-0.307-0.188-0.028-0.006-0.060-0.021-0.094-0.047s-0.064-0.046-0.090-0.060c-0.026-0.014-0.054-0.018-0.085-0.013s-0.064 0.026-0.098 0.060c-0.028 0.028-0.045 0.071-0.051 0.128s-0.011 0.094-0.017 0.111c-0.040-0.028-0.040-0.078 0-0.149s0.045-0.124 0.017-0.158c-0.017-0.034-0.047-0.047-0.090-0.038s-0.077 0.021-0.102 0.038-0.058 0.041-0.098 0.073c-0.040 0.031-0.065 0.050-0.077 0.055s-0.036 0.021-0.073 0.047-0.061 0.047-0.073 0.064c-0.017 0.023-0.034 0.057-0.051 0.102s-0.031 0.077-0.043 0.094c-0.011-0.023-0.044-0.041-0.098-0.055s-0.081-0.030-0.081-0.047c0.011 0.057 0.023 0.156 0.034 0.298s0.026 0.25 0.043 0.324c0.040 0.176 0.006 0.313-0.102 0.409-0.154 0.142-0.236 0.256-0.247 0.341-0.023 0.125 0.011 0.199 0.102 0.222 0 0.040-0.023 0.098-0.068 0.175s-0.065 0.138-0.060 0.183c0 0.034 0.006 0.080 0.017 0.136zM24.496 3.221v2.6c0 1.276-1.034 2.31-2.31 2.31h-1.925c-1.276 0-2.31-1.034-2.31-2.31v-2.623h-3.904v2.623c0 1.276-1.034 2.31-2.31 2.31h-1.925c-1.276 0-2.31-1.034-2.31-2.31v-2.599c-2.991 0.235-5.346 2.731-5.346 5.783v16.074c0 3.206 2.6 5.806 5.806 5.806h16.074c3.206 0 5.806-2.6 5.806-5.806v-16.073c-0-3.051-2.355-5.548-5.346-5.783zM27.585 23.766c0 2.684-2.175 4.859-4.859 4.859h-13.452c-2.684 0-4.859-2.175-4.859-4.859v-12.881h23.17v12.881zM12.739 5.696c0 0.765-0.621 1.386-1.386 1.386h-1.155c-0.765 0-1.386-0.621-1.386-1.386v-4.284c-0-0.765 0.62-1.386 1.385-1.386h1.155c0.765 0 1.386 0.621 1.386 1.386v4.284h0zM23.187 5.696c0 0.765-0.621 1.386-1.386 1.386h-1.155c-0.765 0-1.386-0.621-1.386-1.386v-4.284c-0-0.765 0.62-1.386 1.386-1.386h1.155c0.765 0 1.386 0.621 1.386 1.386v4.284z"></path>
</svg>
