<!-- Generated by IcoMoon.io -->
<svg version="1.1" xmlns="http://www.w3.org/2000/svg" width="32" height="32" viewBox="0 0 32 32">
<title>globe</title>
<path d="M16 1.74c2.488 0 4.783 0.613 6.884 1.839s3.765 2.89 4.991 4.991c1.226 2.101 1.839 4.396 1.839 6.884s-0.613 4.783-1.839 6.884-2.89 3.765-4.991 4.991-4.396 1.839-6.884 1.839-4.783-0.613-6.884-1.839-3.765-2.89-4.991-4.991c-1.226-2.101-1.839-4.396-1.839-6.884s0.613-4.783 1.839-6.884c1.226-2.101 2.89-3.765 4.991-4.991s4.396-1.839 6.884-1.839zM20.893 11.044c-0.024 0.012-0.080 0.068-0.17 0.17s-0.17 0.158-0.241 0.17c0.024 0 0.051-0.030 0.080-0.089s0.060-0.125 0.089-0.196 0.051-0.113 0.063-0.125c0.071-0.083 0.202-0.173 0.393-0.268 0.167-0.071 0.476-0.143 0.929-0.214 0.405-0.095 0.708-0.030 0.911 0.196-0.024-0.024 0.033-0.101 0.17-0.232s0.223-0.202 0.259-0.214c0.036-0.024 0.125-0.051 0.268-0.080s0.232-0.074 0.268-0.134l0.036-0.393c-0.143 0.012-0.247-0.030-0.313-0.125s-0.104-0.22-0.116-0.375c0 0.024-0.036 0.071-0.107 0.143 0-0.083-0.027-0.131-0.080-0.143s-0.122-0.006-0.205 0.018-0.137 0.030-0.161 0.018c-0.119-0.036-0.208-0.080-0.268-0.134s-0.107-0.152-0.143-0.295-0.060-0.232-0.071-0.268c-0.024-0.060-0.080-0.122-0.17-0.188s-0.146-0.128-0.17-0.188c-0.012-0.024-0.027-0.057-0.045-0.098s-0.036-0.080-0.054-0.116-0.042-0.068-0.071-0.098-0.063-0.045-0.098-0.045-0.077 0.030-0.125 0.089-0.092 0.119-0.134 0.179-0.068 0.089-0.080 0.089c-0.036-0.024-0.071-0.033-0.107-0.027s-0.063 0.012-0.080 0.018-0.045 0.024-0.080 0.054-0.065 0.051-0.089 0.063c-0.036 0.024-0.086 0.042-0.152 0.054s-0.116 0.024-0.152 0.036c0.179-0.060 0.173-0.125-0.018-0.196-0.119-0.048-0.214-0.065-0.286-0.054 0.107-0.048 0.152-0.119 0.134-0.214s-0.068-0.179-0.152-0.25h0.089c-0.012-0.048-0.063-0.098-0.152-0.152s-0.193-0.104-0.313-0.152-0.196-0.083-0.232-0.107c-0.095-0.060-0.298-0.116-0.607-0.17s-0.506-0.057-0.589-0.009c-0.060 0.071-0.086 0.134-0.080 0.188s0.030 0.137 0.071 0.25 0.063 0.188 0.063 0.223c0.012 0.071-0.021 0.149-0.098 0.232s-0.116 0.155-0.116 0.214c0 0.083 0.083 0.176 0.25 0.277s0.226 0.229 0.179 0.384c-0.036 0.095-0.131 0.19-0.286 0.286s-0.25 0.167-0.286 0.214c-0.060 0.095-0.068 0.205-0.027 0.33s0.104 0.223 0.188 0.295c0.024 0.024 0.033 0.048 0.027 0.071s-0.027 0.051-0.063 0.080-0.068 0.054-0.098 0.071-0.068 0.039-0.116 0.063l-0.054 0.036c-0.131 0.060-0.253 0.024-0.366-0.107s-0.193-0.286-0.241-0.464c-0.083-0.298-0.179-0.476-0.286-0.536-0.274-0.095-0.446-0.089-0.518 0.018-0.060-0.155-0.304-0.31-0.732-0.464-0.298-0.107-0.643-0.131-1.036-0.071 0.071-0.012 0.071-0.101 0-0.268-0.083-0.179-0.196-0.25-0.339-0.214 0.036-0.071 0.060-0.176 0.071-0.313s0.018-0.217 0.018-0.241c0.036-0.155 0.107-0.292 0.214-0.411 0.012-0.012 0.054-0.063 0.125-0.152s0.128-0.17 0.17-0.241 0.045-0.107 0.009-0.107c0.417 0.048 0.714-0.018 0.893-0.196 0.060-0.060 0.128-0.161 0.205-0.304s0.14-0.244 0.188-0.304c0.107-0.071 0.19-0.104 0.25-0.098s0.146 0.039 0.259 0.098 0.199 0.089 0.259 0.089c0.167 0.012 0.259-0.054 0.277-0.196s-0.027-0.262-0.134-0.357c0.143 0.012 0.161-0.089 0.054-0.304-0.060-0.083-0.107-0.137-0.143-0.161-0.143-0.048-0.304-0.018-0.482 0.089-0.095 0.048-0.083 0.095 0.036 0.143-0.012-0.012-0.068 0.051-0.17 0.188s-0.199 0.241-0.295 0.313-0.19 0.042-0.286-0.089c-0.012-0.012-0.045-0.092-0.098-0.241s-0.11-0.229-0.17-0.241c-0.095 0-0.19 0.089-0.286 0.268 0.036-0.095-0.030-0.185-0.196-0.268s-0.31-0.131-0.429-0.143c0.226-0.143 0.179-0.304-0.143-0.482-0.083-0.048-0.205-0.077-0.366-0.089s-0.277 0.012-0.348 0.071c-0.060 0.083-0.092 0.152-0.098 0.205s0.024 0.101 0.089 0.143 0.128 0.074 0.188 0.098 0.128 0.048 0.205 0.071 0.128 0.042 0.152 0.054c0.167 0.119 0.214 0.202 0.143 0.25-0.024 0.012-0.074 0.033-0.152 0.063s-0.146 0.057-0.205 0.080-0.095 0.048-0.107 0.071c-0.036 0.048-0.036 0.131 0 0.25s0.024 0.202-0.036 0.25c-0.060-0.060-0.113-0.164-0.161-0.313s-0.089-0.247-0.125-0.295c0.083 0.107-0.065 0.143-0.446 0.107l-0.179-0.018c-0.048 0-0.143 0.012-0.286 0.036s-0.265 0.030-0.366 0.018-0.182-0.060-0.241-0.143c-0.048-0.095-0.048-0.214 0-0.357 0.012-0.048 0.036-0.060 0.071-0.036-0.048-0.036-0.113-0.092-0.196-0.17s-0.143-0.128-0.179-0.152c-0.548 0.179-1.107 0.423-1.679 0.732 0.071 0.012 0.143 0.006 0.214-0.018 0.060-0.024 0.137-0.063 0.232-0.116s0.155-0.086 0.179-0.098c0.405-0.167 0.655-0.208 0.75-0.125l0.089-0.089c0.167 0.19 0.286 0.339 0.357 0.446-0.083-0.048-0.262-0.054-0.536-0.018-0.238 0.071-0.369 0.143-0.393 0.214 0.083 0.143 0.113 0.25 0.089 0.321-0.048-0.036-0.116-0.095-0.205-0.179s-0.176-0.149-0.259-0.196-0.173-0.077-0.268-0.089c-0.19 0-0.321 0.006-0.393 0.018-1.738 0.952-3.137 2.274-4.196 3.964 0.083 0.083 0.155 0.131 0.214 0.143 0.048 0.012 0.077 0.065 0.089 0.161s0.027 0.161 0.045 0.196 0.086 0.018 0.205-0.054c0.107 0.095 0.125 0.208 0.054 0.339 0.012-0.012 0.274 0.149 0.786 0.482 0.226 0.202 0.351 0.327 0.375 0.375 0.036 0.131-0.024 0.238-0.179 0.321-0.012-0.024-0.065-0.077-0.161-0.161s-0.149-0.107-0.161-0.071c-0.036 0.060-0.033 0.17 0.009 0.33s0.104 0.235 0.188 0.223c-0.083 0-0.14 0.095-0.17 0.286s-0.045 0.402-0.045 0.634-0.006 0.372-0.018 0.42l0.036 0.018c-0.036 0.143-0.003 0.348 0.098 0.616s0.229 0.384 0.384 0.348c-0.155 0.036-0.036 0.292 0.357 0.768 0.071 0.095 0.119 0.149 0.143 0.161 0.036 0.024 0.107 0.068 0.214 0.134s0.196 0.125 0.268 0.179 0.131 0.116 0.179 0.188c0.048 0.060 0.107 0.193 0.179 0.402s0.155 0.348 0.25 0.42c-0.024 0.071 0.033 0.19 0.17 0.357s0.199 0.304 0.188 0.411c-0.012 0-0.027 0.006-0.045 0.018s-0.033 0.018-0.045 0.018c0.036 0.083 0.128 0.167 0.277 0.25s0.241 0.161 0.277 0.232c0.012 0.036 0.024 0.095 0.036 0.179s0.030 0.149 0.054 0.196 0.071 0.060 0.143 0.036c0.024-0.238-0.119-0.607-0.429-1.107-0.179-0.298-0.28-0.47-0.304-0.518-0.036-0.060-0.068-0.152-0.098-0.277s-0.057-0.211-0.080-0.259c0.024 0 0.060 0.009 0.107 0.027s0.098 0.039 0.152 0.063 0.098 0.048 0.134 0.071 0.048 0.042 0.036 0.054c-0.036 0.083-0.024 0.188 0.036 0.313s0.131 0.235 0.214 0.33 0.185 0.208 0.304 0.339 0.19 0.208 0.214 0.232c0.071 0.071 0.155 0.188 0.25 0.348s0.095 0.241 0 0.241c0.107 0 0.226 0.060 0.357 0.179s0.232 0.238 0.304 0.357c0.060 0.095 0.107 0.25 0.143 0.464s0.065 0.357 0.089 0.429c0.024 0.083 0.074 0.164 0.152 0.241s0.152 0.134 0.223 0.17l0.286 0.143 0.232 0.125c0.060 0.024 0.17 0.086 0.33 0.188s0.289 0.17 0.384 0.205c0.119 0.048 0.214 0.071 0.286 0.071s0.158-0.015 0.259-0.045 0.182-0.051 0.241-0.063c0.179-0.024 0.351 0.065 0.518 0.268s0.292 0.327 0.375 0.375c0.429 0.226 0.756 0.292 0.982 0.196-0.024 0.012-0.021 0.057 0.009 0.134s0.077 0.17 0.143 0.277 0.119 0.193 0.161 0.259 0.074 0.116 0.098 0.152c0.060 0.071 0.167 0.161 0.321 0.268s0.262 0.196 0.321 0.268c0.071-0.048 0.113-0.101 0.125-0.161-0.036 0.095 0.006 0.214 0.125 0.357s0.226 0.202 0.321 0.179c0.167-0.036 0.25-0.226 0.25-0.571-0.369 0.179-0.661 0.071-0.875-0.321 0-0.012-0.015-0.045-0.045-0.098s-0.054-0.104-0.071-0.152-0.033-0.098-0.045-0.152-0.012-0.098 0-0.134 0.042-0.054 0.089-0.054c0.107 0 0.167-0.021 0.179-0.063s0-0.116-0.036-0.223-0.060-0.185-0.071-0.232c-0.012-0.095-0.077-0.214-0.196-0.357s-0.19-0.232-0.214-0.268c-0.060 0.107-0.155 0.155-0.286 0.143s-0.226-0.065-0.286-0.161c0 0.012-0.009 0.045-0.027 0.098s-0.027 0.092-0.027 0.116c-0.155 0-0.244-0.006-0.268-0.018 0.012-0.036 0.027-0.14 0.045-0.313s0.039-0.307 0.063-0.402c0.012-0.048 0.045-0.119 0.098-0.214s0.098-0.182 0.134-0.259 0.060-0.152 0.071-0.223-0.015-0.128-0.080-0.17-0.17-0.057-0.313-0.045c-0.226 0.012-0.381 0.131-0.464 0.357-0.012 0.036-0.030 0.098-0.054 0.188s-0.054 0.158-0.089 0.205-0.089 0.089-0.161 0.125c-0.083 0.036-0.226 0.048-0.429 0.036s-0.345-0.042-0.429-0.089c-0.155-0.095-0.289-0.268-0.402-0.518s-0.17-0.47-0.17-0.661c0-0.119 0.015-0.277 0.045-0.473s0.048-0.345 0.054-0.446-0.027-0.247-0.098-0.438c0.036-0.024 0.089-0.080 0.161-0.17s0.131-0.152 0.179-0.188c0.024-0.012 0.051-0.021 0.080-0.027s0.057-0.006 0.080 0 0.048-0.003 0.071-0.027 0.042-0.060 0.054-0.107c-0.012-0.012-0.036-0.030-0.071-0.054-0.036-0.036-0.060-0.054-0.071-0.054 0.083 0.036 0.253 0.027 0.509-0.027s0.42-0.045 0.491 0.027c0.179 0.131 0.31 0.119 0.393-0.036 0-0.012-0.015-0.068-0.045-0.17s-0.033-0.182-0.009-0.241c0.060 0.321 0.232 0.375 0.518 0.161 0.036 0.036 0.128 0.065 0.277 0.089s0.253 0.054 0.313 0.089c0.036 0.024 0.077 0.057 0.125 0.098s0.080 0.068 0.098 0.080 0.048 0.009 0.089-0.009 0.092-0.057 0.152-0.116c0.119 0.167 0.19 0.31 0.214 0.429 0.131 0.476 0.244 0.738 0.339 0.786 0.083 0.036 0.149 0.048 0.196 0.036s0.074-0.068 0.080-0.17 0.006-0.185 0-0.25-0.015-0.14-0.027-0.223l-0.018-0.143v-0.321l-0.018-0.143c-0.179-0.036-0.289-0.107-0.33-0.214s-0.033-0.217 0.027-0.33 0.149-0.223 0.268-0.33c0.012-0.012 0.060-0.033 0.143-0.063s0.176-0.068 0.277-0.116 0.176-0.095 0.223-0.143c0.25-0.226 0.339-0.435 0.268-0.625 0.083 0 0.149-0.054 0.196-0.161-0.012 0-0.042-0.018-0.089-0.054s-0.092-0.065-0.134-0.089-0.068-0.036-0.080-0.036c0.107-0.060 0.119-0.155 0.036-0.286 0.060-0.036 0.104-0.101 0.134-0.196s0.074-0.155 0.134-0.179c0.107 0.143 0.232 0.155 0.375 0.036 0.083-0.095 0.089-0.19 0.018-0.286 0.060-0.083 0.182-0.146 0.366-0.188s0.295-0.098 0.33-0.17c0.083 0.024 0.131 0.012 0.143-0.036s0.018-0.119 0.018-0.214 0.018-0.167 0.054-0.214c0.048-0.060 0.137-0.113 0.268-0.161s0.208-0.077 0.232-0.089l0.304-0.196c0.036-0.048 0.036-0.071 0-0.071 0.214 0.024 0.399-0.042 0.554-0.196 0.119-0.131 0.083-0.25-0.107-0.357 0.036-0.071 0.018-0.128-0.054-0.17s-0.161-0.074-0.268-0.098c0.036-0.012 0.104-0.015 0.205-0.009s0.164-0.003 0.188-0.027c0.179-0.119 0.137-0.214-0.125-0.286-0.202-0.060-0.458 0.012-0.768 0.214zM17.982 26.705c2.452-0.429 4.542-1.554 6.268-3.375-0.036-0.036-0.11-0.063-0.223-0.080s-0.188-0.039-0.223-0.063c-0.214-0.083-0.357-0.131-0.429-0.143 0.012-0.083-0.003-0.161-0.045-0.232s-0.089-0.125-0.143-0.161-0.128-0.083-0.223-0.143-0.161-0.101-0.196-0.125c-0.024-0.024-0.065-0.060-0.125-0.107s-0.101-0.080-0.125-0.098-0.068-0.045-0.134-0.080-0.116-0.048-0.152-0.036-0.095 0.018-0.179 0.018l-0.054 0.018c-0.036 0.012-0.068 0.027-0.098 0.045s-0.063 0.036-0.098 0.054-0.060 0.036-0.071 0.054-0.012 0.033 0 0.045c-0.25-0.202-0.464-0.333-0.643-0.393-0.060-0.012-0.125-0.045-0.196-0.098s-0.134-0.095-0.188-0.125-0.113-0.039-0.179-0.027-0.134 0.054-0.205 0.125c-0.060 0.060-0.095 0.149-0.107 0.268s-0.024 0.196-0.036 0.232c-0.083-0.060-0.083-0.164 0-0.313s0.095-0.259 0.036-0.33c-0.036-0.071-0.098-0.098-0.188-0.080s-0.161 0.045-0.214 0.080-0.122 0.086-0.205 0.152-0.137 0.104-0.161 0.116-0.074 0.045-0.152 0.098-0.128 0.098-0.152 0.134c-0.036 0.048-0.071 0.119-0.107 0.214s-0.065 0.161-0.089 0.196c-0.024-0.048-0.092-0.086-0.205-0.116s-0.17-0.063-0.17-0.098c0.024 0.119 0.048 0.327 0.071 0.625s0.054 0.524 0.089 0.679c0.083 0.369 0.012 0.655-0.214 0.857-0.321 0.298-0.494 0.536-0.518 0.714-0.048 0.262 0.024 0.417 0.214 0.464 0 0.083-0.048 0.205-0.143 0.366s-0.137 0.289-0.125 0.384c0 0.071 0.012 0.167 0.036 0.286z"></path>
</svg>
