<!-- Generated by IcoMoon.io -->
<svg version="1.1" xmlns="http://www.w3.org/2000/svg" width="32" height="32" viewBox="0 0 32 32">
<title>gps</title>
<path d="M25.084 9.004c0.068-1.54-0.028-2.896-0.028-3.717 0-3.011-4.045-5.452-9.041-5.461-0.003 0-0.006 0-0.009 0-0.002 0-0.004-0-0.006-0-0.011 0-0.021 0.001-0.032 0.001-4.973 0.024-8.993 2.458-8.993 5.46 0 0.706-0.072 1.809-0.048 3.084-0.015 1.203-0.083 2.964-0.030 4.941-0.112 5.864-0.059 17.748 9.103 17.771 9.162-0.023 9.215-11.907 9.103-17.771 0.044-1.654 0.005-3.156-0.019-4.307zM16 27.157c-1.564 0-2.831-1.268-2.831-2.831s1.268-2.831 2.831-2.831 2.831 1.268 2.831 2.831c0 1.564-1.268 2.831-2.831 2.831zM21.747 17.508h-11.494v-13.441h11.494v13.441z"></path>
</svg>
