<!-- Generated by IcoMoon.io -->
<svg version="1.1" xmlns="http://www.w3.org/2000/svg" width="32" height="32" viewBox="0 0 32 32">
<title>grab-hand</title>
<path d="M24.266 22.432c0.856-1.641 1.825-3.501 1.825-5.498 0-2.99-0.009-5.734-0.009-5.734 0-0.84-0.37-1.596-0.956-2.114-0.565-0.639-1.381-1.041-2.287-1.041-0.127 0-0.255 0.008-0.381 0.024-0.672-0.91-1.722-1.448-2.849-1.448-0.27 0-0.539 0.031-0.801 0.092-0.299-0.425-0.687-0.783-1.135-1.043-0.533-0.309-1.141-0.473-1.757-0.473-0.35 0-0.694 0.051-1.024 0.153-0.627-0.704-1.501-1.104-2.43-1.104-1.791 0-3.255 1.486-3.313 3.334-1.812 0.161-3.239 1.71-3.239 3.591l0.001 6.442c0 1.748 1.384 3.394 2.851 5.137 0.313 0.372 0.742 0.882 1.099 1.349 0.228 0.299 0.376 0.515 0.471 0.669h-1.696v5.79h16.090v-5.79h-1.493c0.12-0.584 0.602-1.508 1.033-2.337zM21.837 11.199c0.001-0.234 0.060-0.454 0.162-0.648 0.194-0.256 0.499-0.422 0.84-0.422 0.584 0 1.059 0.482 1.059 1.075 0 0.027 0.008 2.776 0.008 5.729 0 1.565-0.843 3.222-1.586 4.683-0.587 1.155-1.103 2.169-1.211 3.064h-8.625c-0.192-0.918-1.128-2.030-2.193-3.296-1.105-1.313-2.357-2.801-2.357-3.772 0-0.025-0.001-6.442-0.001-6.442 0-0.727 0.517-1.337 1.204-1.485v3.354c0 0.496 0.456 0.899 1.017 0.899s1.017-0.403 1.017-0.899v-5.345c-0-0.365 0.135-0.709 0.38-0.967 0.243-0.256 0.566-0.397 0.91-0.397 0.712 0 1.291 0.612 1.291 1.364v1.099h0.641c0-0.834 0.683-1.512 1.523-1.512s1.523 0.678 1.523 1.512v1.425h0.641c0-0.834 0.686-1.513 1.53-1.513s1.53 0.679 1.53 1.513v0.98l0.641 0.001zM13.999 14.084c0.381 0 0.691-0.309 0.691-0.691v-1.841c0-0.381-0.309-0.691-0.691-0.691s-0.69 0.309-0.69 0.691v1.841c-0 0.381 0.309 0.691 0.69 0.691zM17.596 14.774c0.381 0 0.69-0.309 0.69-0.691v-1.841c0-0.381-0.309-0.691-0.69-0.691s-0.69 0.309-0.69 0.691v1.841c0 0.381 0.309 0.691 0.69 0.691zM21.439 15.235c0.381 0 0.69-0.309 0.69-0.691v-1.381c0-0.381-0.309-0.691-0.69-0.691s-0.691 0.309-0.691 0.691v1.381c0 0.381 0.309 0.69 0.691 0.69z"></path>
</svg>
