<!-- Generated by IcoMoon.io -->
<svg version="1.1" xmlns="http://www.w3.org/2000/svg" width="32" height="32" viewBox="0 0 32 32">
<title>grass-gis</title>
<path d="M13.784 27.499l-0.76-5.934-0.206-2.929-0.048-3.538 0.145-1.268 0.87 5.106 0.494 4.171 0.759 5.099 0.162 1.467 0.005-0.084 0.627-5.15 0.204-2.311 0.349-3.993 0.023-3.574-0.279-0.179-0.198-1.002 0.082-0.229 0.043-0.103-0.018-0.245-0.007-0.014-0.113-0.050-0.187-0.411 0.083-0.285-0.025-0.051-0.111-0.086-0.151-0.32 0.020-0.078-0.029-0.006-0.222-0.31 0.039-0.195-0.011-0.020-0.073-0.084-0.133-0.171v-0.141l-0.089-0.107-0.126-0.271 0.063-0.291 0.156-0.185-0.017-0.066-0.053-0.053-0.247-0.164-0.043-0.409 0.121-0.169 0.094-0.085 0.011-0.035-0.097-0.081-0.121-0.147-0.151-0.181-0.050-0.2-0.041-0.247 0.13-0.162-0.073-0.205 0.163-0.122-0.002-0.008-0.021-0.031-0.139-0.181-0.066-0.213-0.087-0.174v-0.254l0.022-0.101-0.034-0.451 0.122-0.040 0.087-0.287 0.036-0.255 0.1-0.317 0.45-0.3 0.181 0.388 0.071 0.099 0.151 0.056 0.33 0.063 0.219 0.365 0.030 0.345-0.020 0.219 0.069 0.126 0.215 0.107 0.106 0.187 0.227 0.17 0.062 0.404 0.062 0.559v0.224l-0.006 0.085 0.079 0.072 0.18 0.294v0.2l0.056 0.106 0.461 0.154-0.292 0.482 0.091 0.274 0.339 0.237-0.188 0.347 0.174 0.278-0.135 0.321-0.129 0.423-0.051 0.163v0.3l0.081 0.513-0.173 0.322 0.032 0.428v0.45l-0.128 0.226-0.092 0.253-0.115 0.276-0.015 0.068-0.085 4.689-0.194 2.216-0.578 5.736-0.3 3.493 0.011-0.025 1.376-3.549 1.657-3.385 1.967-3.898 1.545-2.896 1.514-2.715 0.379-0.876 0.284-0.784-0.020-0.33-0.186-0.446-0.416-1.127 0.987 0.988 0.295 0.576 0.119 0.634-0.038 0.766-0.103 0.477-0.287 0.785-2.25 4.463-1.372 2.575-1.143 2.406-2.145 4.502 13.426-13.426-15.608-14.814-15.456 15.456 13.437 12.754z"></path>
</svg>
