<!-- Generated by IcoMoon.io -->
<svg version="1.1" xmlns="http://www.w3.org/2000/svg" width="32" height="32" viewBox="0 0 32 32">
<title>graticule</title>
<path d="M30.166 26.129h-1.65v-5.871h1.65c0.509 0 0.923-0.414 0.923-0.923s-0.414-0.923-0.923-0.923h-1.65v-5.871h1.65c0.509 0 0.923-0.414 0.923-0.923s-0.414-0.923-0.923-0.923h-1.65v-5.871h1.65c0.509 0 0.923-0.414 0.923-0.923s-0.414-0.923-0.923-0.923h-1.65v-1.649c0-0.509-0.414-0.923-0.923-0.923s-0.923 0.414-0.923 0.923v1.649h-5.871v-1.649c0-0.509-0.414-0.923-0.923-0.923s-0.923 0.414-0.923 0.923v1.649h-5.871v-1.649c0-0.509-0.414-0.923-0.923-0.923s-0.923 0.414-0.923 0.923v1.649h-5.871v-1.649c0-0.509-0.414-0.923-0.923-0.923s-0.923 0.414-0.923 0.923v1.649h-1.649c-0.509 0-0.923 0.414-0.923 0.923s0.414 0.923 0.923 0.923h1.649v5.871h-1.649c-0.509 0-0.923 0.414-0.923 0.923s0.414 0.923 0.923 0.923h1.649v5.871h-1.649c-0.509 0-0.923 0.414-0.923 0.923s0.414 0.923 0.923 0.923h1.649v5.871h-1.649c-0.509 0-0.923 0.414-0.923 0.923s0.414 0.923 0.923 0.923h1.649v1.65c0 0.509 0.414 0.923 0.923 0.923s0.923-0.414 0.923-0.923v-1.65h5.871v1.65c0 0.509 0.414 0.923 0.923 0.923s0.923-0.414 0.923-0.923v-1.65h5.871v1.65c0 0.509 0.414 0.923 0.923 0.923s0.923-0.414 0.923-0.923v-1.65h5.871v1.65c0 0.509 0.414 0.923 0.923 0.923s0.923-0.414 0.923-0.923v-1.65h1.65c0.509 0 0.923-0.414 0.923-0.923s-0.414-0.923-0.923-0.923zM26.671 20.258v5.871h-5.871v-5.871h5.871zM26.671 12.54v5.871l-5.871-0v-5.871h5.871zM20.799 10.695v-5.871h5.871v5.871h-5.871zM18.953 20.258v5.871h-5.871v-5.871h5.871zM18.953 12.54v5.871h-5.871v-5.871h5.871zM13.082 10.695v-5.871h5.871v5.871h-5.871zM11.236 20.258v5.871h-5.871v-5.871h5.871zM11.236 12.54v5.871h-5.871v-5.871h5.871zM5.365 10.695v-5.871h5.871v5.871h-5.871z"></path>
</svg>
