<!-- Generated by IcoMoon.io -->
<svg version="1.1" xmlns="http://www.w3.org/2000/svg" width="32" height="32" viewBox="0 0 32 32">
<title>hatch-fill</title>
<path d="M23.907 1.418h-15.973l-0.125 0.217h-0.024l-7.802 13.423 0.038 0.066-0.073 0.127 7.987 13.833h15.973l7.987-13.833-7.987-13.833zM6.328 8.187l11.298 18.872h-3.969l-9.277-15.497 1.948-3.375zM8.888 3.754l13.818 23.083-0.129 0.222h-3.706l-11.931-19.93 1.948-3.375zM13.911 3.412l11.37 18.993-1.962 3.376-13.391-22.369h3.983zM19.125 3.412l8.725 14.574-1.955 3.364-10.739-17.938h3.969zM22.755 3.412v0l6.76 11.709-1.052 1.81-8.093-13.519h2.385zM12.412 27.059h-3.345l-6.817-11.808 1.519-2.63 8.643 14.438z"></path>
</svg>
