<!-- Generated by IcoMoon.io -->
<svg version="1.1" xmlns="http://www.w3.org/2000/svg" width="32" height="32" viewBox="0 0 32 32">
<title>help</title>
<path d="M16 0.412c-8.308 0-15.043 6.735-15.043 15.043s6.735 15.043 15.043 15.043c8.308 0 15.043-6.735 15.043-15.043s-6.735-15.043-15.043-15.043zM18.288 24.911c0 0.277-0.224 0.501-0.501 0.501h-3.402c-0.277 0-0.501-0.224-0.501-0.501v-3.288c0-0.277 0.225-0.501 0.501-0.501h3.402c0.277 0 0.501 0.224 0.501 0.501l0 3.288zM21.438 13.646c-0.318 0.454-0.893 1.003-1.758 1.677l-0.804 0.626c-0.361 0.28-0.591 0.591-0.705 0.951-0.052 0.161-0.115 0.499-0.124 1.197-0.004 0.274-0.227 0.494-0.501 0.494h-3.082c-0.136 0-0.266-0.055-0.361-0.153s-0.145-0.23-0.14-0.365c0.048-1.352 0.178-2.276 0.4-2.826 0.232-0.578 0.78-1.198 1.674-1.896l0.838-0.655c0.224-0.167 0.407-0.353 0.551-0.562 0.241-0.335 0.359-0.689 0.359-1.083 0-0.474-0.135-0.895-0.413-1.285-0.235-0.331-0.718-0.499-1.434-0.499-0.699 0-1.171 0.21-1.443 0.64-0.318 0.507-0.472 1.015-0.472 1.553 0 0.277-0.225 0.501-0.501 0.501h-3.287c-0.136 0-0.267-0.056-0.362-0.154s-0.145-0.231-0.139-0.368c0.097-2.323 0.937-4.004 2.493-4.995 0.973-0.626 2.174-0.944 3.57-0.944 1.811 0 3.346 0.445 4.564 1.323 1.267 0.914 1.909 2.275 1.909 4.046-0.001 1.088-0.282 2.026-0.83 2.778z"></path>
</svg>
