<!-- Generated by IcoMoon.io -->
<svg version="1.1" xmlns="http://www.w3.org/2000/svg" width="32" height="32" viewBox="0 0 32 32">
<title>hue</title>
<path d="M9.276 12.476c2.692 0 5.101 1.203 6.724 3.1 1.623-1.897 4.033-3.1 6.725-3.1 0.54 0 1.068 0.051 1.581 0.144 0.346-0.947 0.535-1.97 0.535-3.036 0-4.887-3.962-8.849-8.849-8.849s-8.849 3.962-8.849 8.849c0 1.068 0.19 2.091 0.537 3.039 0.518-0.095 1.051-0.146 1.596-0.146zM24.306 12.62c-1.062 2.907-3.606 5.1-6.716 5.667-0.366-1.001-0.909-1.916-1.59-2.711-0.681 0.795-1.223 1.711-1.589 2.713 0.513 0.093 1.041 0.144 1.581 0.144 0.546 0 1.079-0.051 1.598-0.146 0.346 0.947 0.535 1.971 0.535 3.038 0 2.195-0.801 4.202-2.124 5.749 1.623 1.897 4.032 3.1 6.724 3.1 4.887 0 8.849-3.962 8.849-8.849-0-4.347-3.135-7.959-7.268-8.705zM14.411 18.289c-3.117-0.563-5.666-2.757-6.731-5.667-4.125 0.752-7.253 4.361-7.253 8.703 0 4.887 3.962 8.849 8.849 8.849 2.692 0 5.102-1.204 6.725-3.1-1.323-1.547-2.124-3.554-2.124-5.749-0-1.067 0.189-2.089 0.535-3.036z"></path>
</svg>
