<!-- Generated by IcoMoon.io -->
<svg version="1.1" xmlns="http://www.w3.org/2000/svg" width="32" height="32" viewBox="0 0 32 32">
<title>identify-box</title>
<path d="M31.834 21.967c0.022-0.567-0.266-1.022-0.79-1.249l-0.517-0.229v-18.577h-15.269c-0.438-0.383-0.916-0.726-1.435-1.028-1.393-0.813-2.915-1.22-4.564-1.22s-3.171 0.407-4.565 1.22c-1.393 0.813-2.496 1.916-3.309 3.309s-1.22 2.915-1.22 4.564 0.406 3.171 1.22 4.565 1.916 2.496 3.309 3.309c1.393 0.813 2.915 1.22 4.565 1.22 1.006 0 1.964-0.151 2.874-0.454v3.322h5.77l3.709 9.681c0.199 0.517 0.637 0.825 1.2 0.845l0.070 0.003 0.377-0.062 0.067-0.026c0.329-0.127 0.582-0.367 0.73-0.697l1.332-3.006 2.632 2.725c0.251 0.245 0.566 0.379 0.914 0.387 0.009 0 0.018 0 0.027 0 0.34 0 0.654-0.124 0.908-0.358l0.002-0.002 1.38-1.335c0.242-0.252 0.375-0.565 0.383-0.906 0.009-0.355-0.116-0.681-0.361-0.943l-2.79-2.891 2.509-0.968c0.516-0.199 0.824-0.636 0.845-1.197zM7.849 1.664c0.071-0.071 0.162-0.107 0.272-0.107h2.273c0.111 0 0.201 0.036 0.272 0.107s0.107 0.162 0.107 0.272v1.894c0 0.111-0.035 0.201-0.107 0.272s-0.162 0.107-0.272 0.107h-2.273c-0.111 0-0.201-0.036-0.272-0.107s-0.107-0.162-0.107-0.272v-1.895c0-0.111 0.036-0.201 0.107-0.272zM12.132 12.231v2.523c-0.062 0.043-0.136 0.065-0.222 0.065h-5.304c-0.111 0-0.201-0.036-0.272-0.107s-0.107-0.162-0.107-0.272v-1.895c0-0.111 0.036-0.201 0.107-0.272s0.162-0.107 0.272-0.107h1.137v-3.789h-1.137c-0.111 0-0.201-0.036-0.272-0.107s-0.107-0.162-0.107-0.272v-1.894c0-0.111 0.036-0.201 0.107-0.272s0.162-0.107 0.272-0.107h3.789c0.111 0 0.201 0.036 0.272 0.107s0.107 0.162 0.107 0.272v6.062h1.137c0.086 0 0.16 0.022 0.222 0.065zM16.31 16.655l0.895 2.278h-3.287v-2.359c1.348-0.807 2.42-1.892 3.214-3.253 0.813-1.393 1.22-2.915 1.22-4.564s-0.407-3.171-1.22-4.564c-0.099-0.169-0.202-0.335-0.31-0.495h11.919v15.236h-1.743l-8.911-3.959c-0.174-0.080-0.357-0.121-0.544-0.121-0.16 0-0.32 0.030-0.474 0.090l-0.067 0.026-0.322 0.208-0.051 0.050c-0.401 0.394-0.518 0.915-0.319 1.429zM26.013 23.587l4.197 4.348-1.252 1.21-4.010-4.152-2.099 4.738-3.903-10.119 0.029-0.016-1.3-3.278 12.645 5.606-4.308 1.662z"></path>
</svg>
