<!-- Generated by IcoMoon.io -->
<svg version="1.1" xmlns="http://www.w3.org/2000/svg" width="32" height="32" viewBox="0 0 32 32">
<title>img-o</title>
<path d="M28.678 7.997c-0.226-0.542-0.497-0.972-0.814-1.288l-5.288-5.288c-0.316-0.316-0.746-0.588-1.288-0.814s-1.040-0.339-1.492-0.339h-15.187c-0.452 0-0.836 0.158-1.153 0.475s-0.475 0.701-0.475 1.153v27.12c0 0.452 0.158 0.836 0.475 1.153s0.701 0.475 1.153 0.475h22.78c0.452 0 0.836-0.158 1.153-0.475s0.475-0.701 0.475-1.153v-19.526c0-0.452-0.113-0.949-0.339-1.492zM20.339 2.573c0.328 0.113 0.559 0.237 0.695 0.373l5.305 5.305c0.136 0.136 0.26 0.367 0.373 0.695h-6.373v-6.373zM26.848 28.472h-21.696v-26.035h13.017v7.051c0 0.452 0.158 0.836 0.475 1.153s0.701 0.475 1.153 0.475h7.051v17.357zM10.576 17.624c0.904 0 1.672-0.316 2.305-0.949s0.949-1.401 0.949-2.305-0.316-1.672-0.949-2.305-1.401-0.949-2.305-0.949-1.672 0.316-2.305 0.949c-0.633 0.633-0.949 1.401-0.949 2.305s0.316 1.672 0.949 2.305c0.633 0.633 1.401 0.949 2.305 0.949zM12.746 21.963l-2.17-2.17-3.254 3.254v3.254h17.357v-5.424l-5.424-5.424z"></path>
</svg>
