<!-- Generated by IcoMoon.io -->
<svg version="1.1" xmlns="http://www.w3.org/2000/svg" width="32" height="32" viewBox="0 0 32 32">
<title>img</title>
<path d="M27.875 8.33l-6.921-6.921c-0.158-0.158-0.362-0.317-0.611-0.475v8.007h8.007c-0.158-0.249-0.317-0.452-0.475-0.611zM19.8 11.112c-0.452 0-0.837-0.158-1.154-0.475s-0.475-0.701-0.475-1.154v-9.229h-13.571c-0.452 0-0.837 0.158-1.154 0.475s-0.475 0.701-0.475 1.154v27.143c0 0.452 0.158 0.837 0.475 1.154s0.701 0.475 1.154 0.475h22.8c0.452 0 0.837-0.158 1.154-0.475s0.475-0.701 0.475-1.154v-17.914h-9.229zM9.486 12.775c0.533-0.533 1.181-0.8 1.943-0.8s1.41 0.267 1.943 0.8c0.533 0.533 0.8 1.181 0.8 1.943s-0.267 1.41-0.8 1.943c-0.533 0.533-1.181 0.8-1.943 0.8s-1.41-0.267-1.943-0.8c-0.533-0.533-0.8-1.181-0.8-1.943s0.267-1.41 0.8-1.943zM23.314 24.775h-14.629v-2.743l2.743-2.743 1.829 1.829 5.486-5.486 4.571 4.571v4.571z"></path>
</svg>
