<!-- Generated by IcoMoon.io -->
<svg version="1.1" xmlns="http://www.w3.org/2000/svg" width="32" height="32" viewBox="0 0 32 32">
<title>indicator</title>
<path d="M14.243 11.473h3.514v11.15h-3.514v-11.15zM19.514 8.287h3.514v14.335h-3.514v-14.335zM8.973 14.658h3.514v7.964h-3.514v-7.964zM16 0.346c-8.344 0-15.108 6.764-15.108 15.108s6.764 15.108 15.108 15.108 15.108-6.764 15.108-15.108-6.764-15.108-15.108-15.108zM16 27.091c-6.427 0-11.637-5.21-11.637-11.637s5.21-11.637 11.637-11.637 11.637 5.21 11.637 11.637c0 6.427-5.21 11.637-11.637 11.637z"></path>
</svg>
