<!-- Generated by IcoMoon.io -->
<svg version="1.1" xmlns="http://www.w3.org/2000/svg" width="32" height="32" viewBox="0 0 32 32">
<title>information</title>
<path d="M29.082 7.871c-1.351-2.315-3.184-4.148-5.498-5.498s-4.843-2.026-7.584-2.026c-2.741 0-5.269 0.675-7.584 2.026s-4.148 3.184-5.498 5.498c-1.351 2.315-2.026 4.843-2.026 7.584s0.675 5.269 2.026 7.584c1.351 2.315 3.184 4.148 5.498 5.498s4.843 2.026 7.584 2.026 5.269-0.675 7.584-2.026c2.315-1.351 4.148-3.184 5.498-5.498s2.026-4.843 2.026-7.584-0.675-5.269-2.026-7.584zM13.482 4.123c0-0.184 0.059-0.334 0.177-0.452s0.269-0.177 0.452-0.177h3.777c0.184 0 0.334 0.059 0.452 0.177s0.177 0.269 0.177 0.452v3.148c0 0.184-0.059 0.334-0.177 0.452s-0.269 0.177-0.452 0.177h-3.777c-0.184 0-0.334-0.059-0.452-0.177s-0.177-0.269-0.177-0.452l-0-3.148zM21.036 24.897c0 0.184-0.059 0.334-0.177 0.452s-0.269 0.177-0.452 0.177h-8.813c-0.184 0-0.334-0.059-0.452-0.177s-0.177-0.269-0.177-0.452v-3.148c0-0.184 0.059-0.334 0.177-0.452s0.269-0.177 0.452-0.177h1.889v-6.295h-1.889c-0.184 0-0.334-0.059-0.452-0.177s-0.177-0.269-0.177-0.452v-3.148c0-0.184 0.059-0.334 0.177-0.452s0.269-0.177 0.452-0.177h6.295c0.184 0 0.334 0.059 0.452 0.177s0.177 0.269 0.177 0.452v10.072h1.889c0.184 0 0.334 0.059 0.452 0.177s0.177 0.269 0.177 0.452v3.148z"></path>
</svg>
