<!-- Generated by IcoMoon.io -->
<svg version="1.1" xmlns="http://www.w3.org/2000/svg" width="32" height="32" viewBox="0 0 32 32">
<title>interpolate</title>
<path d="M29.797 0.433h-28.819v30.043h30.043v-30.043h-1.224zM21.824 28.027h-18.396v-25.145h25.146v25.145h-6.749zM11.834 4.678c-1.347 0.271-2.341 1.18-1.998 3.050 0.353 1.927 3.019 2.682 4.417 1.262 1.817-1.846 0.126-4.824-2.419-4.312zM6.26 8.674c1.908-0.059 2.036-3.784-0.631-2.944-1.732 0.545-0.874 2.991 0.631 2.944zM19.721 8.674c1.908-0.059 2.035-3.784-0.631-2.944-1.732 0.545-0.874 2.991 0.631 2.944zM25.61 5.624c-1.802 0.193-1.68 3.022 0.21 3.050 0.806 0.012 1.328-0.399 1.472-1.262 0.035 0 0.070 0 0.105 0v-0.631c-0.383-0.948-0.999-1.241-1.788-1.157zM20.667 12.986c-0.484-0.172-1.070-0.136-1.683 0-0.602 0.134-1.070 0.382-1.367 0.736-1.47 1.757 0.257 5.185 3.050 4.101 1.887-0.732 2-4.128 0-4.837zM6.155 16.982c1.926 0 1.996-3.275-0.105-3.050-2.075 0.223-1.672 3.050 0.105 3.050zM25.925 13.827c-1.912-0.079-2.239 3.027-0.21 3.155 0.766 0.048 1.306-0.407 1.683-1.262v-0.631c-0.447-0.906-0.877-1.237-1.472-1.262zM12.255 21.188c-3.629 0.238-2.732 5.698 0.736 5.048 3.164-0.593 2.089-5.233-0.736-5.048zM24.558 21.714c-3.302 0.419-1.462 4.913 1.157 3.891 2.021-0.789 1.088-4.175-1.157-3.891zM5.84 22.24c-0.72 0.156-1.085 0.656-1.157 0.947-0.669 2.72 3.040 2.471 3.050 0.526 0.006-1.137-0.777-1.714-1.893-1.472zM18.249 22.24c-0.719 0.156-1.087 0.656-1.157 0.946-0.678 2.821 3.234 2.529 3.050 0.316-0.077-0.921-0.68-1.524-1.893-1.262zM13.675 16.014c0 0.574-0.466 1.040-1.040 1.040s-1.040-0.466-1.040-1.040c0-0.574 0.466-1.040 1.040-1.040s1.040 0.466 1.040 1.040z"></path>
</svg>
