<!-- Generated by IcoMoon.io -->
<svg version="1.1" xmlns="http://www.w3.org/2000/svg" width="32" height="32" viewBox="0 0 32 32">
<title>kml</title>
<path d="M16.203-0.25c-0.069-0.001-0.137-0.001-0.205-0.001-8.673 0.002-15.638 7.035-15.708 15.568-0.071 8.771 7.042 15.854 15.658 15.843 8.669 0 15.708-6.984 15.762-15.547 0.055-8.726-6.941-15.755-15.508-15.862zM29.649 12.325c-0.362 0.121-0.684 0.040-0.994-0.102-0.548-0.252-0.991-0.651-1.356-1.115l-6.805-7.724c-1.335-0.942-2.799-1.576-4.42-1.829-0.065-0.010-0.129-0.025-0.192-0.042-0.025-0.006-0.047-0.022-0.084-0.041 6.268-0.19 12.381 4.235 13.85 10.853zM25.316 25.891c-0.418 0.374-0.89 0.686-1.319 1.048-0.668 0.563-1.456 0.745-2.301 0.844-2.798 0.329-5.527-0.011-8.224-0.76-0.884-0.246-1.771-0.485-2.698-0.505-0.42-0.009-0.857 0.007-1.124 0.377-0.172 0.238-0.241 0.551-0.368 0.858-2.835-1.589-4.928-3.886-6.234-6.915 0.6-0.446 1.271-0.586 1.936-0.391 0.893 0.263 1.773 0.597 2.619 0.985 2.060 0.945 4.124 1.869 6.311 2.489 2.354 0.667 4.755 1.013 7.197 1.131l5.451-0.572c0.034-0.010 0.071-0.009 0.15 0.038-0.464 0.46-0.91 0.938-1.395 1.373zM29.36 19.885c-0.607-0.125-1.169-0.216-1.717-0.358-2.197-0.57-4.182-1.614-6.115-2.77-2.374-1.42-4.61-3.045-6.864-4.642-1.513-1.072-3.028-2.142-4.692-2.976-0.926-0.464-1.881-0.85-2.93-0.904-1.302-0.066-2.412 0.432-3.412 1.223-0.139 0.11-0.274 0.226-0.447 0.324 0.093-0.202 0.178-0.408 0.279-0.605 1.048-2.058 2.508-3.768 4.394-5.1 0.215-0.152 0.543-0.169 0.824-0.201 2.396-0.273 4.443 0.588 6.331 1.963 1.322 0.963 2.517 2.070 3.675 3.219l6.862 5.974c1.163 0.857 2.373 1.64 3.742 2.139 0.175 0.064 0.352 0.118 0.592 0.198-0.17 0.822-0.339 1.641-0.52 2.516z"></path>
</svg>
