<!-- Generated by IcoMoon.io -->
<svg version="1.1" xmlns="http://www.w3.org/2000/svg" width="32" height="32" viewBox="0 0 32 32">
<title>label</title>
<path d="M30.823 18.165v-0.001c0-0.679-0.241-1.272-0.724-1.781l-13.991-13.971c-0.495-0.496-1.16-0.917-1.995-1.262s-1.598-0.518-2.289-0.518h-8.141c-0.678 0.001-1.265 0.249-1.761 0.744s-0.744 1.082-0.744 1.761v8.141c0 0.691 0.173 1.454 0.518 2.289s0.766 1.494 1.262 1.977l13.991 14.011c0.483 0.483 1.070 0.724 1.761 0.724 0.679 0 1.272-0.241 1.781-0.724l9.608-9.628c0.483-0.483 0.724-1.070 0.724-1.761zM6.61 7.848c-1.148 0-2.079-0.931-2.079-2.079s0.931-2.079 2.079-2.079c1.148 0 2.079 0.931 2.079 2.079s-0.931 2.079-2.079 2.079z"></path>
</svg>
