<!-- Generated by IcoMoon.io -->
<svg version="1.1" xmlns="http://www.w3.org/2000/svg" width="32" height="32" viewBox="0 0 32 32">
<title>label-o</title>
<path d="M11.823 2.417c0.452 0 0.993 0.129 1.606 0.383s1.089 0.548 1.415 0.874l0.002 0.002 13.971 13.951c0.183 0.198 0.221 0.358 0.221 0.537v0.001c0 0.216-0.055 0.352-0.201 0.498l-0.001 0.001-0.001 0.001-9.587 9.607c-0.198 0.183-0.358 0.22-0.537 0.22-0.216 0-0.351-0.054-0.498-0.201l-14.008-14.028c-0.319-0.31-0.607-0.775-0.858-1.38-0.254-0.614-0.383-1.154-0.383-1.606v-8.141c0-0.171 0.037-0.314 0.22-0.497 0.185-0.185 0.329-0.222 0.501-0.222h8.139zM11.823 0.631h-8.141c-0.678 0.001-1.265 0.249-1.761 0.744s-0.744 1.082-0.744 1.761v8.141c0 0.691 0.173 1.454 0.518 2.289s0.766 1.494 1.262 1.977l13.991 14.011c0.483 0.483 1.070 0.724 1.761 0.724 0 0 0 0 0 0 0.679 0 1.272-0.241 1.781-0.724l9.608-9.628c0.483-0.483 0.724-1.070 0.724-1.761v-0.001c0-0.679-0.241-1.272-0.724-1.781l-13.991-13.971c-0.495-0.496-1.16-0.917-1.995-1.262s-1.598-0.518-2.289-0.518v0zM9.387 6.161c0 1.383-1.121 2.504-2.504 2.504s-2.504-1.121-2.504-2.504c0-1.383 1.121-2.504 2.504-2.504s2.504 1.121 2.504 2.504z"></path>
</svg>
