<!-- Generated by IcoMoon.io -->
<svg version="1.1" xmlns="http://www.w3.org/2000/svg" width="32" height="32" viewBox="0 0 32 32">
<title>labels</title>
<path d="M24.336 17.563v-0.001c0-0.525-0.187-0.985-0.561-1.379l-10.832-10.817c-0.383-0.384-0.898-0.71-1.545-0.977s-1.237-0.401-1.772-0.401h-6.303c-0.525 0.001-0.979 0.193-1.363 0.576s-0.576 0.838-0.576 1.363v6.303c0 0.535 0.134 1.126 0.401 1.772s0.593 1.157 0.977 1.53l10.832 10.847c0.374 0.374 0.828 0.561 1.363 0.561 0.525 0 0.985-0.187 1.379-0.561l7.439-7.454c0.374-0.374 0.561-0.828 0.561-1.363zM5.59 9.576c-0.889 0-1.61-0.721-1.61-1.61s0.721-1.61 1.61-1.61c0.889 0 1.61 0.721 1.61 1.61s-0.721 1.61-1.61 1.61zM30.081 16.185l-10.832-10.817c-0.383-0.384-0.898-0.71-1.545-0.977s-1.237-0.401-1.772-0.401h-3.393c0.536 0 1.126 0.134 1.772 0.401s1.161 0.593 1.545 0.977l10.832 10.817c0.374 0.394 0.561 0.853 0.561 1.379 0 0.535-0.187 0.99-0.561 1.363l-7.12 7.12c0.303 0.313 0.57 0.541 0.803 0.682s0.531 0.212 0.894 0.212c0.525 0 0.985-0.187 1.379-0.561l7.439-7.454c0.374-0.374 0.561-0.828 0.561-1.363 0-0.525-0.187-0.985-0.561-1.379z"></path>
</svg>
