<!-- Generated by IcoMoon.io -->
<svg version="1.1" xmlns="http://www.w3.org/2000/svg" width="32" height="32" viewBox="0 0 32 32">
<title>laptop</title>
<path d="M28.879 23.304h-28.332v1.545c0 0.429 0.252 0.794 0.757 1.095s1.111 0.451 1.819 0.451h25.756c0.708 0 1.315-0.15 1.819-0.451s0.757-0.665 0.757-1.095v-1.545h-2.576zM6.363 22.709h19.274c0.779 0 1.447-0.277 2.002-0.833s0.833-1.222 0.833-2.002v-12.472c0-0.779-0.277-1.447-0.833-2.002s-1.222-0.833-2.002-0.833h-19.274c-0.779 0-1.447 0.278-2.002 0.833s-0.833 1.222-0.833 2.002v12.472c0 0.779 0.278 1.447 0.833 2.002s1.222 0.833 2.002 0.833zM16.3 5.228c0.194 0 0.351 0.157 0.351 0.351s-0.157 0.351-0.351 0.351c-0.194 0-0.351-0.157-0.351-0.351s0.157-0.351 0.351-0.351zM5.796 7.403c0-0.154 0.056-0.286 0.168-0.399s0.245-0.168 0.399-0.168h19.274c0.154 0 0.286 0.056 0.399 0.168s0.168 0.245 0.168 0.399v12.472c0 0.154-0.056 0.286-0.168 0.399s-0.245 0.168-0.399 0.168h-19.274c-0.154 0-0.286-0.056-0.399-0.168s-0.168-0.245-0.168-0.399v-12.472z"></path>
</svg>
