<!-- Generated by IcoMoon.io -->
<svg version="1.1" xmlns="http://www.w3.org/2000/svg" width="32" height="32" viewBox="0 0 32 32">
<title>layer-attribution</title>
<path d="M31.591-0.208h-27.132c-0.172 0-0.313 0.141-0.313 0.313v12.712h-4.196v16.024c0 0.172 0 0.454 0 0.626v0.92c0 0.172 0 0.375 0 0.451v0.138h19.206v-3.425h12.435c0.172 0 0.313-0.141 0.313-0.313v-27.132c0-0.172-0.141-0.313-0.313-0.313zM29.716 25.621h-23.438c-0.172 0-0.313-0.141-0.313-0.313v-23.438c0-0.172 0.141-0.313 0.313-0.313h23.438c0.172 0 0.313 0.141 0.313 0.313v23.438h0c0 0.172-0.141 0.313-0.313 0.313zM18.178 4.56c-4.953 0-8.986 4.034-8.986 8.986s4.034 8.987 8.986 8.987c4.953 0 8.986-4.034 8.986-8.987s-4.034-8.986-8.986-8.986zM18.457 17.62c0.959 0 1.897-0.359 2.616-1.018 0.3-0.28 0.759-0.26 1.038 0.040s0.26 0.759-0.040 1.038c-0.998 0.899-2.277 1.398-3.615 1.398-2.975 0-5.392-2.456-5.392-5.452s2.416-5.452 5.392-5.452c1.438 0 2.796 0.559 3.814 1.598 0.28 0.3 0.28 0.759 0 1.038-0.3 0.28-0.759 0.28-1.038 0-0.739-0.739-1.717-1.158-2.756-1.158-2.157 0-3.914 1.777-3.914 3.974-0.020 2.197 1.737 3.994 3.894 3.994z"></path>
</svg>
