<!-- Generated by IcoMoon.io -->
<svg version="1.1" xmlns="http://www.w3.org/2000/svg" width="32" height="32" viewBox="0 0 32 32">
<title>layer-security</title>
<path d="M31.591-0.208h-27.132c-0.172 0-0.313 0.141-0.313 0.313v12.712h-4.196v16.024c0 0.172 0 0.454 0 0.626v0.92c0 0.172 0 0.375 0 0.451v0.138h19.206v-3.425h12.435c0.172 0 0.313-0.141 0.313-0.313v-27.132c0-0.172-0.141-0.313-0.313-0.313zM29.716 25.621h-23.438c-0.172 0-0.313-0.141-0.313-0.313v-23.438c0-0.172 0.141-0.313 0.313-0.313h23.438c0.172 0 0.313 0.141 0.313 0.313v23.438h0c0 0.172-0.141 0.313-0.313 0.313zM18.174 4.754c-4.964 0-8.993 4.029-8.993 8.993s4.029 8.993 8.993 8.993 8.993-4.029 8.993-8.993c0-4.874-4.083-8.993-8.993-8.993zM20.422 18.243h-4.497l0.791-4.173c-0.701-0.468-1.169-1.277-1.169-2.194 0-1.457 1.169-2.626 2.626-2.626s2.626 1.169 2.626 2.626c0 0.935-0.468 1.745-1.169 2.194l0.791 4.173z"></path>
</svg>
