<!-- Generated by IcoMoon.io -->
<svg version="1.1" xmlns="http://www.w3.org/2000/svg" width="32" height="32" viewBox="0 0 32 32">
<title>layer-settings</title>
<path d="M31.591-0.208h-27.132c-0.172 0-0.313 0.141-0.313 0.313v12.712h-4.196v16.024c0 0.172 0 0.454 0 0.626v0.92c0 0.172 0 0.375 0 0.451v0.138h19.206v-3.425h12.435c0.172 0 0.313-0.141 0.313-0.313v-27.132c0-0.172-0.141-0.313-0.313-0.313zM30.029 25.308c0 0.172-0.141 0.313-0.313 0.313h-23.438c-0.172 0-0.313-0.141-0.313-0.313v-23.438c0-0.172 0.141-0.313 0.313-0.313h23.438c0.172 0 0.313 0.141 0.313 0.313l0 23.438zM15.292 8.206v-3.709c0-0.51-0.499-0.923-1.115-0.923s-1.115 0.413-1.115 0.923v3.698c-0.932 0.421-1.58 1.358-1.58 2.447s0.649 2.026 1.58 2.447v9.924c0 0.51 0.499 0.923 1.115 0.923s1.115-0.413 1.115-0.923v-9.935c0.919-0.426 1.556-1.356 1.556-2.436s-0.637-2.010-1.556-2.436zM14.165 12.132c-0.785 0-1.421-0.636-1.421-1.421s0.636-1.421 1.421-1.421c0.785 0 1.421 0.636 1.421 1.421s-0.636 1.421-1.421 1.421zM22.086 14.892v-10.395c0-0.51-0.499-0.923-1.115-0.923s-1.115 0.413-1.115 0.923v10.363c-0.945 0.415-1.604 1.359-1.604 2.458s0.66 2.042 1.604 2.458v3.238c0 0.51 0.499 0.923 1.115 0.923s1.115-0.413 1.115-0.923v-3.271c0.906-0.431 1.532-1.355 1.532-2.425s-0.626-1.994-1.532-2.425zM20.935 18.768c-0.785 0-1.421-0.636-1.421-1.421s0.636-1.421 1.421-1.421 1.421 0.636 1.421 1.421c0 0.785-0.636 1.421-1.421 1.421z"></path>
</svg>
