<!-- Generated by IcoMoon.io -->
<svg version="1.1" xmlns="http://www.w3.org/2000/svg" width="32" height="32" viewBox="0 0 32 32">
<title>layers-add</title>
<path d="M1.52 8.547c0.015 0.071 0.042 0.135 0.077 0.198 0.009 0.015 0.009 0.031 0.020 0.046 0.003 0.005 0.007 0.007 0.010 0.011 0.027 0.037 0.061 0.065 0.096 0.097 0.035 0.034 0.070 0.070 0.113 0.095 0.003 0.004 0.007 0.007 0.010 0.009 0.184 0.101 13.906 7.169 14.095 7.26 0.015 0.007 0.030 0.007 0.045 0.012 0.063 0.026 0.125 0.043 0.194 0.048 0.017 0.002 0.032 0.002 0.048 0.002 0.072 0 0.141-0.009 0.212-0.031 0.012-0.004 0.022-0.009 0.033-0.013 0.045-0.017 0.090-0.025 0.131-0.052l13.459-8.237c0.022-0.013 0.033-0.033 0.052-0.046 0.036-0.026 0.067-0.054 0.098-0.086 0.032-0.034 0.059-0.070 0.084-0.11 0.011-0.018 0.028-0.031 0.038-0.052 0.009-0.018 0.008-0.038 0.016-0.057 0.016-0.044 0.026-0.087 0.033-0.133 0.007-0.041 0.011-0.083 0.009-0.126-0.002-0.040-0.008-0.081-0.018-0.122-0.010-0.046-0.024-0.089-0.043-0.131-0.008-0.019-0.008-0.038-0.019-0.056-0.011-0.020-0.029-0.031-0.042-0.050-0.027-0.037-0.056-0.070-0.089-0.101-0.034-0.032-0.068-0.056-0.105-0.079-0.021-0.013-0.034-0.032-0.054-0.040l-14.030-7.227c-0.025-0.014-0.052-0.015-0.076-0.024-0.039-0.017-0.076-0.029-0.117-0.037-0.051-0.011-0.099-0.013-0.15-0.011-0.032 0.001-0.064 0.002-0.097 0.009-0.058 0.009-0.112 0.030-0.165 0.056-0.015 0.007-0.033 0.007-0.049 0.015-0.178 0.103-12.786 7.82-13.486 8.254-0.107 0.059-0.204 0.137-0.267 0.252-0.078 0.139-0.090 0.294-0.064 0.438 0.001 0.007 0.001 0.012 0.002 0.017zM17.463 27.753v-2.375c-0.125 0.066-0.255 0.112-0.339 0.139l-0.145 0.049c-0.244 0.072-0.491 0.11-0.737 0.11h-0.144l-0.129-0.013c-0.135-0.010-0.295-0.041-0.461-0.092l-0.089-0.016-0.236-0.099c-0.155-0.074-5.535-2.842-9.639-4.957-1.942 1.189-3.465 2.123-3.696 2.266-0.107 0.059-0.204 0.137-0.267 0.253-0.078 0.138-0.090 0.291-0.064 0.437 0.001 0.007 0.001 0.013 0.002 0.019 0.015 0.070 0.042 0.134 0.078 0.197 0.009 0.015 0.009 0.031 0.019 0.045 0.003 0.005 0.007 0.007 0.010 0.012 0.027 0.036 0.061 0.065 0.096 0.096 0.035 0.036 0.070 0.070 0.113 0.097 0.003 0.002 0.007 0.007 0.010 0.008 0.184 0.102 13.906 7.17 14.095 7.261 0.015 0.008 0.030 0.006 0.044 0.012 0.063 0.026 0.125 0.043 0.194 0.049 0.017 0.002 0.032 0.002 0.048 0.002 0.072 0 0.141-0.009 0.213-0.031 0.012-0.003 0.022-0.009 0.033-0.014 0.045-0.016 0.090-0.025 0.131-0.052l5.556-3.401h-4.695zM29.341 23.356h-2.468v-5.059h-2.949v5.059h-5.104v3.040h5.104v5.059h2.949v-5.059h5.127v-3.040zM30.39 14.848c-0.002-0.043-0.008-0.082-0.018-0.124-0.010-0.044-0.024-0.089-0.043-0.129-0.008-0.019-0.008-0.039-0.019-0.057-0.011-0.019-0.029-0.031-0.042-0.048-0.027-0.039-0.056-0.072-0.089-0.103-0.034-0.030-0.068-0.055-0.105-0.079-0.021-0.012-0.034-0.029-0.054-0.040l-3.58-1.844-8.851 5.417c-0.164 0.109-0.35 0.177-0.458 0.212l-0.137 0.047c-0.242 0.075-0.502 0.115-0.767 0.115h-0.105l-0.153-0.014c-0.145-0.011-0.317-0.046-0.494-0.102l-0.082-0.017-0.209-0.087c-0.168-0.080-5.54-2.845-9.639-4.957-1.943 1.19-3.466 2.123-3.696 2.267-0.107 0.059-0.204 0.136-0.267 0.252-0.078 0.139-0.090 0.292-0.064 0.438 0.001 0.006 0.001 0.012 0.002 0.017 0.015 0.071 0.042 0.135 0.077 0.197 0.009 0.015 0.009 0.030 0.020 0.045 0.003 0.006 0.007 0.007 0.010 0.012 0.027 0.036 0.061 0.066 0.096 0.097 0.035 0.034 0.070 0.070 0.113 0.096 0.003 0.002 0.007 0.006 0.010 0.008 0.184 0.102 13.906 7.171 14.095 7.262 0.015 0.007 0.030 0.006 0.045 0.011 0.063 0.026 0.125 0.043 0.194 0.049 0.017 0.002 0.032 0.001 0.048 0.001 0.072 0.002 0.141-0.009 0.212-0.030 0.012-0.005 0.022-0.009 0.033-0.014 0.045-0.017 0.090-0.024 0.131-0.052l5.965-3.651v-3.1h5.066l2.428-1.486c0.022-0.013 0.033-0.032 0.052-0.045 0.036-0.026 0.067-0.054 0.098-0.086 0.032-0.035 0.059-0.070 0.084-0.11 0.011-0.019 0.028-0.031 0.038-0.052 0.009-0.018 0.008-0.038 0.016-0.058 0.015-0.042 0.026-0.086 0.033-0.132 0.007-0.041 0.011-0.084 0.009-0.124z"></path>
</svg>
