<!-- Generated by IcoMoon.io -->
<svg version="1.1" xmlns="http://www.w3.org/2000/svg" width="32" height="32" viewBox="0 0 32 32">
<title>layer-add</title>
<path d="M31.591-0.208h-27.132c-0.172 0-0.313 0.141-0.313 0.313v12.712h-4.196v16.024c0 0.172 0 0.454 0 0.626v0.92c0 0.172 0 0.375 0 0.451v0.138h19.206v-3.425h12.435c0.172 0 0.313-0.141 0.313-0.313v-27.132c0-0.172-0.141-0.313-0.313-0.313zM30.029 25.308c0 0.172-0.141 0.313-0.313 0.313h-23.438c-0.172 0-0.313-0.141-0.313-0.313v-23.438c0-0.172 0.141-0.313 0.313-0.313h23.438c0.172 0 0.313 0.141 0.313 0.313v23.438zM20.031 5.439h-3.722v6.384h-6.441v3.836h6.441v6.384h3.722v-6.384h6.47v-3.836h-6.47z"></path>
</svg>
