<!-- Generated by IcoMoon.io -->
<svg version="1.1" xmlns="http://www.w3.org/2000/svg" width="32" height="32" viewBox="0 0 32 32">
<title>layer-min-scale</title>
<path d="M31.591-0.208h-27.132c-0.172 0-0.313 0.141-0.313 0.313v12.712h-4.196v16.024c0 0.172 0 0.454 0 0.626v0.92c0 0.172 0 0.375 0 0.451v0.138h19.206v-3.425h12.435c0.172 0 0.313-0.141 0.313-0.313v-27.132c0-0.172-0.141-0.313-0.313-0.313zM29.716 25.621h-23.438c-0.172 0-0.313-0.141-0.313-0.313v-23.438c0-0.172 0.141-0.313 0.313-0.313h23.438c0.172 0 0.313 0.141 0.313 0.313v23.438h0c0 0.172-0.141 0.313-0.313 0.313zM10.889 10.419c-0.149 0.148-0.224 0.331-0.224 0.548s0.074 0.4 0.222 0.549c0.148 0.149 0.331 0.224 0.548 0.224l4.39 0.007c0.217 0 0.4-0.074 0.549-0.222s0.224-0.331 0.224-0.548l0.007-4.39c0-0.217-0.074-0.4-0.222-0.549s-0.331-0.223-0.548-0.224c-0.217-0-0.4 0.074-0.549 0.222l-1.099 1.096-3.839-3.852-2.196 2.194 3.836 3.849-1.099 1.096zM22.103 7.123l-1.096-1.099c-0.148-0.149-0.331-0.223-0.548-0.224s-0.4 0.074-0.549 0.222c-0.149 0.148-0.224 0.331-0.224 0.548l-0.007 4.39c-0 0.217 0.074 0.4 0.222 0.549s0.331 0.224 0.548 0.224l4.39 0.007c0.217 0 0.4-0.074 0.549-0.222s0.223-0.331 0.224-0.548-0.074-0.4-0.222-0.549l-1.096-1.099 3.852-3.839-2.194-2.196-3.849 3.836zM25.403 16.392c0.149-0.148 0.224-0.331 0.224-0.548s-0.074-0.4-0.222-0.549-0.331-0.224-0.548-0.224l-4.39-0.007c-0.217-0-0.4 0.074-0.549 0.222s-0.224 0.331-0.224 0.548l-0.007 4.39c-0 0.217 0.074 0.4 0.222 0.549s0.331 0.224 0.548 0.224c0.217 0 0.4-0.074 0.549-0.222l1.099-1.096 3.839 3.852 2.196-2.194-3.836-3.849 1.099-1.096zM15.842 15.077l-4.39-0.007c-0.217-0-0.4 0.074-0.549 0.222s-0.223 0.331-0.224 0.548 0.074 0.4 0.222 0.549l1.096 1.099-3.852 3.839 2.194 2.196 3.849-3.836 1.096 1.099c0.148 0.149 0.331 0.224 0.548 0.224s0.4-0.074 0.549-0.222c0.149-0.148 0.224-0.331 0.224-0.548l0.007-4.39c0-0.217-0.074-0.4-0.222-0.549s-0.331-0.223-0.548-0.224z"></path>
</svg>
