<!-- Generated by IcoMoon.io -->
<svg version="1.1" xmlns="http://www.w3.org/2000/svg" width="32" height="32" viewBox="0 0 32 32">
<title>layers-base</title>
<path d="M30.084 15.12c0.009-0.008 0.017-0.016 0.025-0.024 0.004-0.004 0.010-0.009 0.012-0.011 0.027-0.020 0.053-0.042 0.077-0.065 0.048-0.046 0.090-0.097 0.125-0.151 0.003-0.005 0.009-0.012 0.015-0.020 0.007-0.009 0.013-0.018 0.020-0.027 0.030-0.042 0.039-0.084 0.044-0.106 0-0.002 0.001-0.004 0.001-0.005l0.001-0.003c0.021-0.060 0.036-0.125 0.045-0.192 0.018-0.133-0.001-0.274-0.055-0.409-0.006-0.016-0.012-0.032-0.020-0.056-0.018-0.058-0.053-0.094-0.072-0.113-0.002-0.002-0.004-0.004-0.006-0.007-0.004-0.005-0.010-0.012-0.015-0.020-0.009-0.012-0.019-0.025-0.031-0.039-0.024-0.028-0.049-0.052-0.074-0.075-0.027-0.024-0.054-0.043-0.078-0.059-0.017-0.012-0.033-0.023-0.044-0.032-0.020-0.018-0.041-0.032-0.063-0.044l-4.789-2.467 4.823-2.952c0.015-0.009 0.028-0.019 0.040-0.029 0.009-0.008 0.017-0.016 0.025-0.024 0.004-0.004 0.010-0.009 0.011-0.011 0.027-0.020 0.053-0.042 0.077-0.065 0.048-0.046 0.090-0.097 0.125-0.151 0.003-0.005 0.009-0.012 0.015-0.020 0.007-0.009 0.014-0.018 0.020-0.027 0.030-0.042 0.039-0.084 0.044-0.106 0-0.002 0.001-0.003 0.001-0.005l0.001-0.003c0.021-0.060 0.036-0.125 0.045-0.192 0.018-0.133-0.001-0.274-0.055-0.409-0.006-0.016-0.012-0.032-0.020-0.056-0.018-0.058-0.053-0.094-0.072-0.113-0.002-0.002-0.004-0.004-0.006-0.007-0.004-0.005-0.010-0.012-0.015-0.020-0.009-0.012-0.019-0.025-0.031-0.039-0.024-0.028-0.049-0.052-0.074-0.075-0.027-0.024-0.054-0.043-0.078-0.059-0.017-0.012-0.033-0.023-0.044-0.032-0.020-0.018-0.041-0.032-0.063-0.044l-13.913-7.167c-0.033-0.017-0.065-0.025-0.085-0.030l-0.009-0.002c-0.004-0.001-0.014-0.005-0.022-0.008-0.013-0.005-0.029-0.011-0.046-0.017-0.073-0.023-0.152-0.035-0.234-0.035-0.058 0-0.116 0.006-0.173 0.018-0.032 0.007-0.066 0.016-0.099 0.028-0.020 0.007-0.037 0.015-0.052 0.022-0.007 0.003-0.015 0.007-0.020 0.009-0.016 0.004-0.045 0.010-0.078 0.029l-0.010 0.006c-0.024 0.014-0.047 0.028-0.071 0.043l-0.009 0.006c-0.050 0.030-0.099 0.060-0.149 0.091l-1.199 0.732-11.706 7.166c-0.052 0.032-0.105 0.064-0.157 0.097-0.014 0.008-0.028 0.017-0.041 0.025-0.082 0.050-0.176 0.106-0.254 0.19-0.169 0.18-0.238 0.447-0.186 0.713l0.002 0.012 0 0.002c0.013 0.059 0.034 0.119 0.063 0.179 0.006 0.013 0.013 0.024 0.018 0.033 0.002 0.004 0.006 0.010 0.007 0.013 0.020 0.058 0.053 0.096 0.070 0.117 0.030 0.036 0.063 0.065 0.091 0.091 0.011 0.010 0.021 0.019 0.032 0.029 0.019 0.018 0.044 0.041 0.073 0.062 0.006 0.004 0.011 0.008 0.017 0.012 0.012 0.010 0.024 0.019 0.038 0.027 0.006 0.003 0.013 0.007 0.019 0.010l0.002 0.001c0.027 0.014 0.055 0.029 0.082 0.043 0 0 0.119 0.062 0.173 0.089l4.555 2.349-4.587 2.811c-0.052 0.032-0.105 0.064-0.157 0.097-0.014 0.008-0.028 0.017-0.041 0.025-0.082 0.050-0.176 0.106-0.254 0.19-0.165 0.177-0.235 0.437-0.189 0.699v0.016l0 0v0.010l0.009 0.018c0.013 0.054 0.033 0.109 0.059 0.163 0.006 0.013 0.013 0.024 0.018 0.033 0.002 0.004 0.006 0.010 0.007 0.013 0.020 0.058 0.053 0.096 0.070 0.117 0.030 0.035 0.063 0.065 0.092 0.091 0.011 0.010 0.021 0.019 0.032 0.029 0.019 0.018 0.044 0.041 0.073 0.062 0.006 0.004 0.011 0.008 0.017 0.012 0.012 0.010 0.024 0.019 0.038 0.027 0.006 0.003 0.013 0.007 0.019 0.010l0.002 0.001c0.027 0.014 0.055 0.029 0.082 0.043 0 0 0.119 0.062 0.173 0.089 0.075 0.039 0.151 0.078 0.226 0.117l5.241 2.702-5.534 3.39c-0.052 0.032-0.105 0.064-0.157 0.097-0.014 0.009-0.028 0.017-0.042 0.025-0.082 0.050-0.176 0.106-0.254 0.19-0.166 0.178-0.236 0.439-0.188 0.701l0 0.005c0 0 0.004 0.016 0.004 0.016 0.013 0.060 0.034 0.122 0.064 0.183 0.006 0.013 0.013 0.024 0.018 0.033 0.002 0.004 0.006 0.010 0.007 0.013 0.020 0.058 0.053 0.096 0.070 0.117 0.030 0.035 0.063 0.065 0.092 0.091 0.011 0.010 0.021 0.019 0.032 0.029 0.019 0.018 0.044 0.041 0.073 0.063 0.006 0.004 0.011 0.008 0.017 0.012 0.012 0.010 0.024 0.019 0.038 0.026 0.007 0.004 0.014 0.007 0.022 0.012 0.031 0.016 0.061 0.032 0.093 0.049l0.597 0.309 12.336 6.355c0.104 0.053 0.565 0.29 0.565 0.29 0.064 0.033 0.128 0.065 0.191 0.098 0.042 0.021 0.083 0.043 0.125 0.064l0.008 0.004c0.030 0.016 0.068 0.035 0.118 0.046 0.003 0.001 0.012 0.004 0.018 0.007 0.011 0.004 0.025 0.010 0.041 0.015 0.034 0.011 0.069 0.019 0.103 0.025 0.042 0.007 0.086 0.011 0.131 0.011 0.023 0 0.047-0.001 0.070-0.003 0.055-0.004 0.138-0.014 0.215-0.046 0.011-0.005 0.025-0.009 0.041-0.014 0.035-0.011 0.078-0.025 0.121-0.050 0.006-0.004 0.013-0.008 0.019-0.011l0.004-0.003 13.336-8.162c0.015-0.009 0.028-0.019 0.039-0.029 0.009-0.008 0.017-0.016 0.025-0.024 0.004-0.004 0.010-0.009 0.011-0.011 0.027-0.020 0.053-0.042 0.077-0.065 0.048-0.046 0.090-0.097 0.125-0.151 0.003-0.005 0.009-0.012 0.015-0.020 0.007-0.009 0.014-0.018 0.020-0.027 0.030-0.042 0.039-0.084 0.044-0.106 0-0.002 0.001-0.003 0.001-0.005l0.001-0.003c0.021-0.060 0.036-0.125 0.045-0.192 0.018-0.133-0.001-0.274-0.055-0.409-0.008-0.019-0.014-0.039-0.020-0.056-0.018-0.058-0.053-0.094-0.072-0.113-0.002-0.002-0.004-0.004-0.006-0.007-0.004-0.005-0.010-0.012-0.015-0.020-0.009-0.012-0.019-0.025-0.031-0.039-0.024-0.028-0.049-0.052-0.074-0.075-0.027-0.024-0.054-0.043-0.078-0.059-0.017-0.012-0.033-0.023-0.044-0.033-0.020-0.018-0.041-0.032-0.063-0.044l-5.702-2.937 5.77-3.532c0.015-0.009 0.028-0.019 0.040-0.029zM1.652 15.547v0zM5.065 9.055l-1.158-0.597 11.43-6.995c0.112-0.068 0.361-0.22 0.361-0.22l12.289 6.33-11.789 7.215-11.132-5.732zM16.215 21.693l-12.29-6.33 4.482-2.745 6.685 3.441-0.032 0.020 0.205 0.082-0.020 0.012c0.004-0.002 0.008-0.005 0.011-0.007 0.003-0.002 0.006-0.003 0.008-0.005l0.115 0.046 0.304 0.156c0.040 0.020 0.079 0.040 0.118 0.061l0.008 0.004c0.030 0.016 0.068 0.035 0.118 0.046 0.003 0.001 0.011 0.004 0.018 0.007 0.011 0.004 0.025 0.010 0.041 0.015 0.034 0.011 0.069 0.019 0.103 0.025 0.042 0.007 0.086 0.011 0.131 0.011 0.023 0 0.047-0.001 0.070-0.003 0.055-0.004 0.138-0.014 0.215-0.045 0.006-0.003 0.014-0.005 0.025-0.009l0.016-0.005c0.035-0.011 0.078-0.025 0.122-0.050 0.006-0.003 0.012-0.007 0.018-0.011l0.005-0.003 6.879-4.21 4.434 2.284-11.789 7.215z"></path>
</svg>
