<!-- Generated by IcoMoon.io -->
<svg version="1.1" xmlns="http://www.w3.org/2000/svg" width="32" height="32" viewBox="0 0 32 32">
<title>layer-max-scale</title>
<path d="M31.591-0.208h-27.132c-0.172 0-0.313 0.141-0.313 0.313v12.712h-4.196v16.024c0 0.172 0 0.454 0 0.626v0.92c0 0.172 0 0.375 0 0.451v0.138h19.206v-3.425h12.435c0.172 0 0.313-0.141 0.313-0.313v-27.132c0-0.172-0.141-0.313-0.313-0.313zM29.716 25.621h-23.438c-0.172 0-0.313-0.141-0.313-0.313v-23.438c0-0.172 0.141-0.313 0.313-0.313h23.438c0.172 0 0.313 0.141 0.313 0.313v23.438h0c0 0.172-0.141 0.313-0.313 0.313zM9.403 9.825c0.231 0 0.425-0.078 0.584-0.236l1.169-1.165 4.081 4.094 2.334-2.332-4.078-4.091 1.169-1.165c0.158-0.158 0.238-0.352 0.238-0.583s-0.078-0.425-0.236-0.584c-0.158-0.158-0.352-0.238-0.583-0.238l-4.666-0.008c-0.231-0-0.425 0.078-0.584 0.236s-0.238 0.352-0.238 0.583l-0.008 4.666c-0 0.231 0.078 0.425 0.236 0.584s0.352 0.238 0.583 0.238zM21.319 12.502l4.091-4.077 1.165 1.169c0.158 0.158 0.352 0.238 0.583 0.238s0.425-0.078 0.584-0.236c0.158-0.158 0.238-0.352 0.238-0.583l0.008-4.666c0-0.231-0.078-0.425-0.236-0.584s-0.352-0.238-0.583-0.238l-4.666-0.008c-0.231-0-0.425 0.078-0.584 0.236s-0.238 0.352-0.238 0.583 0.078 0.425 0.236 0.584l1.165 1.169-4.094 4.081 2.332 2.334zM27.17 16.879c-0.231-0-0.425 0.078-0.584 0.236l-1.169 1.165-4.081-4.094-2.334 2.332 4.077 4.091-1.169 1.165c-0.158 0.158-0.238 0.352-0.238 0.583s0.078 0.425 0.236 0.584c0.158 0.158 0.352 0.238 0.583 0.238l4.666 0.008c0.231 0 0.425-0.078 0.584-0.236s0.238-0.352 0.238-0.583l0.008-4.666c0-0.231-0.078-0.425-0.236-0.584s-0.352-0.238-0.583-0.238zM15.254 14.201l-4.091 4.077-1.165-1.169c-0.158-0.158-0.352-0.238-0.583-0.238s-0.425 0.078-0.584 0.236c-0.158 0.158-0.238 0.352-0.238 0.583l-0.008 4.666c-0 0.231 0.078 0.425 0.236 0.584s0.352 0.238 0.583 0.238l4.666 0.008c0.231 0 0.425-0.078 0.584-0.236s0.238-0.352 0.238-0.583c0-0.231-0.078-0.425-0.236-0.584l-1.165-1.169 4.094-4.081-2.332-2.334z"></path>
</svg>
