<!-- Generated by IcoMoon.io -->
<svg version="1.1" xmlns="http://www.w3.org/2000/svg" width="32" height="32" viewBox="0 0 32 32">
<title>layer-srs</title>
<path d="M31.591-0.208h-27.132c-0.172 0-0.313 0.141-0.313 0.313v12.712h-4.196v16.024c0 0.172 0 0.454 0 0.626v0.92c0 0.172 0 0.375 0 0.451v0.138h19.206v-3.425h12.435c0.172 0 0.313-0.141 0.313-0.313v-27.132c0-0.172-0.141-0.313-0.313-0.313zM29.716 25.621h-23.438c-0.172 0-0.313-0.141-0.313-0.313v-23.438c0-0.172 0.141-0.313 0.313-0.313h23.438c0.172 0 0.313 0.141 0.313 0.313v23.438h0c0 0.172-0.141 0.313-0.313 0.313zM12.799 11.279c-0.004 0-0.007 0-0.010 0.001 0.003-0 0.007-0 0.010-0.001zM18.852 6.997c0.001 0 0.001 0.001 0.002 0.001-0.001-0.001-0.001-0.001-0.002-0.001zM19.199 18.238c0.002-0.006 0.004-0.011 0.005-0.017-0.002 0.006-0.004 0.011-0.005 0.017zM17.137 14.387c-0.004-0.002-0.007-0.004-0.010-0.004 0.003 0.001 0.006 0.003 0.010 0.004zM22.663 5.982c-1.373-0.801-2.872-1.202-4.498-1.202s-3.125 0.401-4.498 1.202c-1.373 0.801-2.46 1.888-3.261 3.261s-1.202 2.872-1.202 4.498 0.401 3.125 1.202 4.498c0.801 1.373 1.888 2.46 3.261 3.261s2.872 1.202 4.498 1.202 3.125-0.401 4.498-1.202c1.373-0.801 2.46-1.888 3.261-3.261s1.202-2.872 1.202-4.498-0.401-3.125-1.202-4.498c-0.801-1.373-1.888-2.46-3.261-3.261zM19.286 18.455c-0.071-0.085-0.1-0.157-0.087-0.216-0.012 0.032-0.037 0.061-0.077 0.088-0.039-0.047-0.109-0.105-0.21-0.175s-0.171-0.128-0.21-0.175c-0.016-0.023-0.037-0.056-0.064-0.099s-0.062-0.099-0.105-0.169c-0.043-0.070-0.074-0.13-0.093-0.181s-0.021-0.080-0.006-0.087c-0.148 0.062-0.362 0.019-0.642-0.128-0.054-0.031-0.136-0.113-0.245-0.245s-0.222-0.191-0.338-0.175c-0.039 0.008-0.091 0.021-0.157 0.041s-0.123 0.029-0.169 0.029-0.109-0.016-0.187-0.047c-0.062-0.023-0.146-0.068-0.251-0.134s-0.177-0.107-0.216-0.122l-0.152-0.082-0.187-0.093c-0.047-0.023-0.095-0.060-0.146-0.111s-0.084-0.103-0.099-0.157c-0.016-0.047-0.035-0.14-0.058-0.28s-0.054-0.241-0.093-0.303c-0.047-0.078-0.113-0.156-0.198-0.233s-0.163-0.117-0.233-0.117c0.062 0 0.062-0.052 0-0.158s-0.117-0.181-0.163-0.227c-0.016-0.016-0.062-0.066-0.14-0.152s-0.144-0.159-0.198-0.222-0.101-0.134-0.14-0.216-0.047-0.15-0.023-0.204c0.008-0.008 0-0.019-0.023-0.035s-0.053-0.031-0.088-0.047-0.068-0.029-0.099-0.041-0.054-0.018-0.070-0.018c0.016 0.031 0.033 0.088 0.052 0.169s0.041 0.142 0.064 0.181c0.016 0.031 0.082 0.144 0.198 0.338 0.202 0.327 0.296 0.568 0.28 0.723-0.047 0.016-0.078 0.008-0.093-0.023s-0.027-0.074-0.035-0.128c-0.008-0.054-0.016-0.093-0.023-0.117-0.023-0.047-0.084-0.097-0.181-0.152s-0.158-0.109-0.181-0.163c0.008 0 0.018-0.004 0.029-0.012s0.021-0.012 0.029-0.012c0.008-0.070-0.033-0.159-0.123-0.268s-0.126-0.187-0.111-0.233c-0.062-0.047-0.117-0.138-0.163-0.274s-0.086-0.224-0.117-0.263c-0.031-0.047-0.070-0.088-0.117-0.123s-0.105-0.074-0.175-0.117c-0.070-0.043-0.117-0.072-0.14-0.088-0.016-0.008-0.047-0.043-0.093-0.105-0.257-0.311-0.334-0.478-0.233-0.502-0.101 0.023-0.185-0.053-0.251-0.228s-0.088-0.309-0.064-0.403l-0.023-0.012c0.008-0.031 0.012-0.123 0.012-0.274s0.010-0.29 0.029-0.414c0.018-0.116 0.052-0.178 0.101-0.186-0.049 0.001-0.087-0.048-0.112-0.147-0.027-0.105-0.029-0.177-0.006-0.216 0.008-0.023 0.043-0.008 0.105 0.047s0.097 0.089 0.105 0.105c0.101-0.054 0.14-0.124 0.117-0.21-0.016-0.031-0.097-0.113-0.245-0.245-0.334-0.218-0.506-0.323-0.513-0.315 0.047-0.086 0.035-0.159-0.035-0.222-0.078 0.047-0.123 0.058-0.134 0.035s-0.021-0.066-0.029-0.128c-0.008-0.062-0.027-0.097-0.058-0.105-0.039-0.008-0.086-0.039-0.14-0.093 0.692-1.104 1.606-1.968 2.742-2.59 0.047-0.008 0.132-0.012 0.257-0.012 0.062 0.008 0.121 0.027 0.175 0.058s0.111 0.074 0.169 0.128c0.058 0.054 0.103 0.093 0.134 0.117 0.016-0.047-0.004-0.117-0.058-0.21 0.016-0.047 0.101-0.093 0.257-0.14 0.179-0.023 0.296-0.019 0.35 0.012-0.047-0.070-0.124-0.167-0.233-0.292l-0.058 0.058c-0.062-0.054-0.226-0.027-0.49 0.082-0.016 0.008-0.054 0.029-0.117 0.064s-0.113 0.060-0.152 0.076c-0.047 0.016-0.093 0.019-0.14 0.012 0.373-0.202 0.739-0.362 1.097-0.478 0.023 0.016 0.062 0.049 0.117 0.099s0.097 0.088 0.128 0.111c-0.023-0.016-0.039-0.008-0.047 0.023-0.031 0.093-0.031 0.171 0 0.233 0.039 0.054 0.091 0.086 0.158 0.093s0.146 0.004 0.239-0.012c0.093-0.016 0.156-0.023 0.187-0.023l0.117 0.012c0.249 0.023 0.346 0 0.292-0.070 0.023 0.031 0.051 0.095 0.082 0.193s0.066 0.165 0.105 0.204c0.039-0.031 0.047-0.086 0.023-0.163s-0.023-0.132 0-0.163c0.008-0.016 0.031-0.031 0.070-0.047s0.084-0.033 0.134-0.053c0.051-0.019 0.084-0.033 0.099-0.041 0.047-0.031 0.016-0.086-0.093-0.163-0.016-0.008-0.049-0.019-0.099-0.035s-0.095-0.031-0.134-0.047c-0.039-0.016-0.080-0.037-0.122-0.064s-0.062-0.058-0.058-0.093c0.004-0.035 0.025-0.080 0.064-0.134 0.047-0.039 0.122-0.054 0.227-0.047s0.185 0.027 0.239 0.058c0.21 0.117 0.241 0.222 0.093 0.315 0.078 0.008 0.171 0.039 0.28 0.093s0.152 0.113 0.128 0.175c0.062-0.117 0.124-0.175 0.187-0.175 0.039 0.008 0.076 0.060 0.111 0.157s0.056 0.15 0.064 0.157c0.062 0.086 0.124 0.105 0.187 0.058s0.126-0.115 0.192-0.204c0.062-0.083 0.098-0.124 0.109-0.123-0.076-0.031-0.083-0.062-0.021-0.092 0.117-0.070 0.222-0.089 0.315-0.058 0.023 0.016 0.054 0.051 0.093 0.105 0.070 0.14 0.058 0.206-0.035 0.198 0.070 0.062 0.099 0.14 0.087 0.233s-0.072 0.136-0.181 0.128c-0.039 0-0.095-0.019-0.169-0.058s-0.13-0.060-0.169-0.064c-0.039-0.004-0.093 0.018-0.163 0.064-0.031 0.039-0.072 0.105-0.122 0.198s-0.095 0.159-0.134 0.198c-0.117 0.117-0.311 0.159-0.583 0.128 0.023 0 0.021 0.023-0.006 0.070s-0.064 0.099-0.111 0.158c-0.047 0.058-0.074 0.091-0.082 0.099-0.070 0.078-0.117 0.167-0.14 0.268 0 0.016-0.004 0.068-0.012 0.158s-0.023 0.158-0.047 0.204c0.093-0.023 0.167 0.023 0.222 0.14 0.047 0.109 0.047 0.167 0 0.175 0.257-0.039 0.482-0.023 0.677 0.047 0.28 0.101 0.439 0.202 0.478 0.303 0.047-0.070 0.159-0.074 0.338-0.012 0.070 0.039 0.132 0.156 0.187 0.35 0.031 0.117 0.084 0.218 0.158 0.303s0.154 0.109 0.239 0.070l0.035-0.023c0.031-0.016 0.056-0.029 0.076-0.041s0.041-0.027 0.064-0.047 0.037-0.037 0.041-0.053c0.004-0.016-0.002-0.031-0.017-0.047-0.054-0.047-0.095-0.111-0.122-0.193s-0.021-0.154 0.017-0.216c0.023-0.031 0.086-0.078 0.187-0.14s0.163-0.124 0.187-0.187c0.031-0.101-0.008-0.185-0.117-0.251s-0.163-0.126-0.163-0.181c0-0.039 0.025-0.086 0.076-0.14s0.072-0.105 0.064-0.152c0-0.023-0.014-0.072-0.041-0.146s-0.043-0.128-0.047-0.163c-0.004-0.035 0.014-0.076 0.052-0.123 0.054-0.031 0.183-0.029 0.385 0.006s0.334 0.072 0.397 0.111c0.023 0.016 0.074 0.039 0.152 0.070s0.146 0.064 0.204 0.099 0.091 0.068 0.099 0.099h-0.058c0.054 0.047 0.087 0.101 0.099 0.163s-0.017 0.109-0.087 0.14c0.047-0.008 0.109 0.004 0.187 0.035 0.124 0.047 0.128 0.089 0.012 0.128 0.023-0.008 0.056-0.016 0.099-0.023s0.076-0.019 0.099-0.035c0.016-0.008 0.035-0.021 0.058-0.041s0.041-0.031 0.052-0.035c0.012-0.004 0.029-0.008 0.052-0.012s0.047 0.002 0.070 0.018c0.008 0 0.025-0.019 0.052-0.058s0.056-0.078 0.087-0.117 0.058-0.058 0.082-0.058 0.045 0.010 0.064 0.029c0.019 0.019 0.035 0.041 0.047 0.064s0.023 0.049 0.035 0.076 0.021 0.049 0.029 0.064c0.016 0.039 0.052 0.080 0.111 0.123s0.095 0.084 0.111 0.123c0.008 0.023 0.023 0.082 0.047 0.175s0.054 0.158 0.093 0.193c0.039 0.035 0.097 0.064 0.175 0.087 0.016 0.008 0.051 0.004 0.105-0.012s0.099-0.019 0.134-0.012c0.035 0.008 0.052 0.039 0.052 0.093 0.047-0.047 0.070-0.078 0.070-0.093 0.008 0.101 0.033 0.183 0.076 0.245s0.111 0.089 0.204 0.082l-0.023 0.257c-0.023 0.039-0.082 0.068-0.175 0.087s-0.152 0.037-0.175 0.053c-0.023 0.008-0.080 0.054-0.169 0.14s-0.126 0.136-0.111 0.152c-0.132-0.148-0.331-0.191-0.595-0.128-0.296 0.047-0.498 0.093-0.607 0.14-0.124 0.062-0.21 0.121-0.257 0.175-0.008 0.008-0.021 0.035-0.041 0.082s-0.039 0.089-0.058 0.128c-0.016 0.032-0.031 0.051-0.044 0.056 0.045-0.011 0.094-0.047 0.149-0.109 0.058-0.066 0.095-0.103 0.111-0.111 0.202-0.132 0.369-0.179 0.502-0.14 0.171 0.047 0.198 0.109 0.082 0.187-0.016 0.016-0.056 0.021-0.122 0.018s-0.111-0.002-0.134 0.006c0.070 0.016 0.128 0.037 0.175 0.064s0.058 0.064 0.035 0.111c0.124 0.070 0.148 0.148 0.070 0.233-0.101 0.101-0.222 0.144-0.362 0.128 0.023 0 0.023 0.016 0 0.047l-0.198 0.128c-0.016 0.008-0.066 0.027-0.152 0.058s-0.144 0.066-0.175 0.105c-0.023 0.031-0.035 0.078-0.035 0.14s-0.004 0.109-0.012 0.14c-0.008 0.031-0.039 0.039-0.093 0.023-0.023 0.047-0.095 0.084-0.216 0.111s-0.2 0.068-0.239 0.123c0.047 0.062 0.043 0.124-0.012 0.187-0.093 0.078-0.175 0.070-0.245-0.023-0.039 0.016-0.068 0.054-0.087 0.117s-0.049 0.105-0.087 0.128c0.054 0.086 0.047 0.148-0.023 0.187 0.008 0 0.025 0.008 0.052 0.023s0.056 0.035 0.087 0.058c0.031 0.023 0.051 0.035 0.058 0.035-0.031 0.070-0.074 0.105-0.128 0.105 0.047 0.124-0.012 0.261-0.175 0.408-0.031 0.031-0.080 0.062-0.146 0.093s-0.126 0.056-0.181 0.076c-0.054 0.019-0.086 0.033-0.093 0.041-0.078 0.070-0.136 0.142-0.175 0.216s-0.045 0.146-0.017 0.216c0.027 0.070 0.099 0.117 0.216 0.14l0.012 0.093v0.21l0.012 0.093c0.008 0.054 0.014 0.103 0.017 0.146s0.004 0.097 0 0.163-0.021 0.103-0.052 0.111c-0.031 0.008-0.074 0-0.128-0.023-0.062-0.031-0.136-0.202-0.222-0.513-0.016-0.078-0.062-0.171-0.14-0.28-0.039 0.039-0.072 0.064-0.099 0.076s-0.047 0.014-0.058 0.006c-0.012-0.008-0.033-0.025-0.064-0.053s-0.058-0.049-0.082-0.064c-0.039-0.023-0.107-0.043-0.204-0.058s-0.157-0.035-0.181-0.058c-0.187 0.14-0.299 0.105-0.338-0.105-0.016 0.039-0.014 0.091 0.006 0.158s0.029 0.103 0.029 0.111c-0.054 0.101-0.14 0.109-0.257 0.023-0.047-0.047-0.154-0.053-0.321-0.018-0.158 0.033-0.265 0.040-0.323 0.021 0.009 0.005 0.021 0.015 0.037 0.031 0.023 0.016 0.039 0.027 0.047 0.035-0.008 0.031-0.019 0.054-0.035 0.070s-0.031 0.021-0.047 0.018c-0.016-0.004-0.033-0.004-0.052 0s-0.037 0.010-0.052 0.017c-0.031 0.023-0.070 0.064-0.117 0.123s-0.082 0.095-0.105 0.111c0.047 0.124 0.068 0.22 0.064 0.286s-0.016 0.163-0.035 0.292c-0.019 0.128-0.029 0.231-0.029 0.309 0 0.124 0.037 0.268 0.111 0.432s0.161 0.276 0.263 0.338c0.054 0.031 0.148 0.051 0.28 0.058s0.226 0 0.28-0.023c0.047-0.023 0.082-0.051 0.105-0.082s0.043-0.076 0.058-0.134c0.016-0.058 0.027-0.099 0.035-0.122 0.054-0.148 0.156-0.226 0.303-0.233 0.093-0.008 0.161 0.002 0.204 0.029s0.060 0.064 0.052 0.111-0.023 0.095-0.047 0.146c-0.023 0.051-0.052 0.107-0.087 0.169s-0.056 0.109-0.064 0.14c-0.016 0.062-0.029 0.15-0.041 0.262s-0.021 0.181-0.029 0.204c0.016 0.008 0.074 0.012 0.175 0.012 0-0.016 0.006-0.041 0.017-0.076s0.017-0.056 0.017-0.064c0.039 0.062 0.101 0.097 0.187 0.105s0.148-0.023 0.187-0.093c0.016 0.023 0.062 0.082 0.14 0.175s0.121 0.171 0.128 0.233c0.008 0.031 0.023 0.082 0.047 0.152s0.031 0.119 0.023 0.146-0.047 0.041-0.117 0.041c-0.031 0-0.051 0.012-0.058 0.035s-0.008 0.053 0 0.087c0.008 0.035 0.017 0.068 0.029 0.099s0.027 0.064 0.047 0.099c0.019 0.035 0.029 0.056 0.029 0.064 0.14 0.257 0.331 0.327 0.572 0.21 0 0.226-0.054 0.35-0.163 0.373-0.062 0.016-0.132-0.023-0.21-0.117zM19.461 21.092c-0.016-0.078-0.023-0.14-0.023-0.187-0.008-0.062 0.019-0.146 0.082-0.251s0.093-0.185 0.093-0.239c-0.124-0.031-0.171-0.132-0.14-0.303 0.016-0.117 0.128-0.272 0.338-0.467 0.148-0.132 0.194-0.319 0.14-0.56-0.023-0.101-0.043-0.249-0.058-0.443s-0.031-0.331-0.047-0.408c0 0.023 0.037 0.045 0.111 0.064s0.119 0.045 0.134 0.076c0.016-0.023 0.035-0.066 0.058-0.128s0.047-0.109 0.070-0.14c0.016-0.023 0.049-0.052 0.099-0.087s0.084-0.056 0.099-0.064 0.051-0.033 0.105-0.076c0.054-0.043 0.099-0.076 0.134-0.099s0.082-0.041 0.14-0.053c0.058-0.012 0.099 0.006 0.122 0.053 0.039 0.047 0.031 0.119-0.023 0.216s-0.054 0.165 0 0.204c0.008-0.023 0.016-0.074 0.023-0.152s0.031-0.136 0.070-0.175c0.047-0.047 0.091-0.074 0.134-0.082s0.082-0.002 0.117 0.017 0.076 0.047 0.122 0.082c0.047 0.035 0.089 0.056 0.128 0.064 0.117 0.039 0.257 0.124 0.42 0.257-0.008-0.008-0.008-0.017 0-0.029s0.023-0.023 0.047-0.035c0.023-0.012 0.045-0.023 0.064-0.035s0.041-0.021 0.064-0.029l0.035-0.012c0.054 0 0.093-0.004 0.117-0.012s0.056 0 0.099 0.023 0.072 0.041 0.087 0.053c0.016 0.012 0.043 0.033 0.082 0.064s0.066 0.054 0.082 0.070c0.023 0.016 0.066 0.043 0.128 0.082s0.111 0.070 0.146 0.093c0.035 0.023 0.066 0.058 0.093 0.105s0.037 0.097 0.029 0.152c0.047 0.008 0.14 0.039 0.28 0.093 0.023 0.016 0.072 0.029 0.146 0.041s0.122 0.029 0.146 0.052c-1.128 1.19-2.493 1.925-4.095 2.205zM21.102 11.079c-0.003 0.001-0.006 0.002-0.008 0.002 0.003-0 0.006-0.001 0.008-0.002z"></path>
</svg>
