<!-- Generated by IcoMoon.io -->
<svg version="1.1" xmlns="http://www.w3.org/2000/svg" width="32" height="32" viewBox="0 0 32 32">
<title>layer-raster</title>
<path d="M31.591-0.208h-27.132c-0.172 0-0.313 0.141-0.313 0.313v12.712h-4.196v16.024c0 0.172 0 0.454 0 0.626v0.92c0 0.172 0 0.375 0 0.451v0.138h19.206v-3.425h12.435c0.172 0 0.313-0.141 0.313-0.313v-27.132c0-0.172-0.141-0.313-0.313-0.313zM29.716 25.621h-23.438c-0.172 0-0.313-0.141-0.313-0.313v-23.438c0-0.172 0.141-0.313 0.313-0.313h23.438c0.172 0 0.313 0.141 0.313 0.313v23.438h0c0 0.172-0.141 0.313-0.313 0.313zM10.335 21.095h15.326v-15.326h-15.326v15.326zM24.627 17.517v2.545h-2.545v-2.545h2.545zM24.627 13.939v2.545h-2.545v-2.545h2.545zM24.627 10.381v2.545h-2.545v-2.545h2.545zM24.627 6.802v2.545h-2.545v-2.545h2.545zM21.049 17.517v2.545h-2.545v-2.545h2.545zM21.049 13.939v2.545h-2.545v-2.545h2.545zM21.049 10.381v2.545h-2.545v-2.545h2.545zM21.049 6.802v2.545h-2.545v-2.545h2.545zM17.491 17.517v2.545h-2.545v-2.545h2.545zM17.491 13.939v2.545h-2.545v-2.545h2.545zM17.491 10.381v2.545h-2.545v-2.545h2.545zM17.491 6.802v2.545h-2.545v-2.545h2.545zM13.913 17.517v2.545h-2.545v-2.545h2.545zM13.913 13.939v2.545h-2.545v-2.545h2.545zM13.913 10.381v2.545h-2.545v-2.545h2.545zM13.913 6.802v2.545h-2.545v-2.545h2.545z"></path>
</svg>
