<!-- Generated by IcoMoon.io -->
<svg version="1.1" xmlns="http://www.w3.org/2000/svg" width="32" height="32" viewBox="0 0 32 32">
<title>layer-export</title>
<path d="M31.591-0.208h-27.132c-0.172 0-0.313 0.141-0.313 0.313v12.712h-4.196v16.024c0 0.172 0 0.454 0 0.626v0.92c0 0.172 0 0.375 0 0.451v0.138h19.206v-3.425h12.435c0.172 0 0.313-0.141 0.313-0.313v-27.132c0-0.172-0.141-0.313-0.313-0.313zM30.029 25.308c0 0.172-0.141 0.313-0.313 0.313h-23.438c-0.172 0-0.313-0.141-0.313-0.313v-23.438c0-0.172 0.141-0.313 0.313-0.313h23.438c0.172 0 0.313 0.141 0.313 0.313l0 23.438zM26.498 10.884l-4.62-4.62c-0.152-0.152-0.333-0.229-0.541-0.229-0.096 0-0.197 0.020-0.301 0.060-0.313 0.136-0.469 0.373-0.469 0.71v2.31h-1.925c-0.85 0-1.638 0.044-2.364 0.132s-1.366 0.211-1.919 0.367c-0.553 0.156-1.053 0.351-1.498 0.584s-0.824 0.479-1.137 0.74c-0.313 0.261-0.588 0.557-0.824 0.89s-0.425 0.66-0.565 0.981c-0.14 0.321-0.253 0.674-0.337 1.059s-0.14 0.746-0.168 1.083c-0.028 0.337-0.042 0.702-0.042 1.095 0 0.449 0.070 0.938 0.211 1.468s0.295 0.987 0.463 1.372c0.168 0.385 0.367 0.784 0.596 1.197s0.387 0.688 0.475 0.824c0.088 0.136 0.172 0.261 0.253 0.373 0.080 0.104 0.184 0.156 0.313 0.156 0.032 0 0.080-0.008 0.144-0.024 0.184-0.088 0.265-0.225 0.241-0.409-0.361-2.695-0.064-4.592 0.89-5.691 0.922-1.051 2.679-1.576 5.27-1.576h1.925v2.31c0 0.337 0.156 0.574 0.469 0.71 0.104 0.040 0.205 0.060 0.301 0.060 0.217 0 0.397-0.076 0.541-0.229l4.62-4.62c0.152-0.152 0.229-0.333 0.229-0.541s-0.076-0.389-0.229-0.541z"></path>
</svg>
