<!-- Generated by IcoMoon.io -->
<svg version="1.1" xmlns="http://www.w3.org/2000/svg" width="32" height="32" viewBox="0 0 32 32">
<title>leaflet</title>
<path d="M29.142 5.075c-0.704-3.142-1.651-5.621-1.651-5.621-0.453 0.734-10.782 6.061-13.883 11.061-1.722 2.777-2.76 5.226-3.15 7.489-2.768-2.189-7.798-3.894-8.088-4.233 0 0-0.327 1.533-0.452 3.431s-0.245 5.32 1.319 8.963c1.563 3.642 3.729 4.692 5.829 4.833 1.459 0.098 2.282-0.735 2.874-1.507l-0.047-0.064-0.013 0.015-9.307-15.047 9.756 14.544 0.030 0.059c0.546-0.472 1.375-0.701 1.818-1.833 0.172 0.094 0.339 0.189 0.498 0.291 0.029-0.031 0.063-0.061 0.119-0.048l12.521-26.857-11.792 27.602c-0.002 0.007-0.004 0.013-0.005 0.020 1.197 1.156 2.805 2.39 5.266 1.835 3.475-0.783 6.823-3.103 8.489-9.602s0.574-12.191-0.13-15.333z"></path>
</svg>
