<!-- Generated by IcoMoon.io -->
<svg version="1.1" xmlns="http://www.w3.org/2000/svg" width="32" height="32" viewBox="0 0 32 32">
<title>line</title>
<path d="M20.162 2.528c0 0.494 0.123 0.96 0.341 1.373l-11.027 9.48c-0.396-0.163-0.832-0.254-1.291-0.254-1.789 0-3.239 1.375-3.239 3.072s1.45 3.072 3.239 3.072c0.678 0 1.307-0.197 1.827-0.535l10.902 8.281c-0.215 0.411-0.336 0.874-0.336 1.364 0 1.697 1.45 3.072 3.239 3.072s3.239-1.375 3.239-3.072c0-1.697-1.45-3.072-3.239-3.072-0.718 0-1.381 0.222-1.918 0.596l-10.861-8.25c0.247-0.433 0.387-0.93 0.387-1.457 0-0.729-0.268-1.398-0.715-1.925l10.779-9.267c0.536 0.373 1.197 0.593 1.913 0.593 1.789 0 3.239-1.375 3.239-3.072s-1.45-3.072-3.239-3.072-3.239 1.375-3.239 3.072z"></path>
</svg>
