<!-- Generated by IcoMoon.io -->
<svg version="1.1" xmlns="http://www.w3.org/2000/svg" width="32" height="32" viewBox="0 0 32 32">
<title>link</title>
<path d="M27.143 22.312c0-0.476-0.167-0.881-0.5-1.214l-3.714-3.714c-0.333-0.333-0.738-0.5-1.214-0.5-0.5 0-0.929 0.19-1.286 0.571 0.036 0.036 0.149 0.146 0.339 0.33s0.318 0.313 0.384 0.384 0.155 0.185 0.268 0.339 0.19 0.307 0.232 0.455 0.063 0.313 0.063 0.491c0 0.476-0.167 0.881-0.5 1.214s-0.738 0.5-1.214 0.5c-0.179 0-0.342-0.021-0.491-0.063s-0.301-0.119-0.455-0.232-0.268-0.202-0.339-0.268-0.199-0.193-0.384-0.384-0.295-0.304-0.33-0.339c-0.393 0.369-0.589 0.804-0.589 1.304 0 0.476 0.167 0.881 0.5 1.214l3.679 3.696c0.321 0.321 0.726 0.482 1.214 0.482 0.476 0 0.881-0.155 1.214-0.464l2.625-2.607c0.333-0.333 0.5-0.732 0.5-1.196zM14.589 9.722c0-0.476-0.167-0.881-0.5-1.214l-3.679-3.696c-0.333-0.333-0.738-0.5-1.214-0.5-0.464 0-0.869 0.161-1.214 0.482l-2.625 2.607c-0.333 0.333-0.5 0.732-0.5 1.196 0 0.476 0.167 0.881 0.5 1.214l3.714 3.714c0.321 0.321 0.726 0.482 1.214 0.482 0.5 0 0.929-0.185 1.286-0.554-0.036-0.036-0.149-0.146-0.339-0.33s-0.318-0.313-0.384-0.384-0.155-0.185-0.268-0.339-0.19-0.307-0.232-0.455-0.063-0.313-0.063-0.491c0-0.476 0.167-0.881 0.5-1.214s0.738-0.5 1.214-0.5c0.179 0 0.342 0.021 0.491 0.063s0.301 0.119 0.455 0.232 0.268 0.202 0.339 0.268 0.199 0.193 0.384 0.384 0.295 0.304 0.33 0.339c0.393-0.369 0.589-0.804 0.589-1.304zM30.571 22.312c0 1.429-0.506 2.637-1.518 3.625l-2.625 2.607c-0.988 0.988-2.196 1.482-3.625 1.482-1.44 0-2.655-0.506-3.643-1.518l-3.679-3.696c-0.988-0.988-1.482-2.196-1.482-3.625 0-1.464 0.524-2.708 1.571-3.732l-1.571-1.571c-1.024 1.048-2.262 1.571-3.714 1.571-1.429 0-2.643-0.5-3.643-1.5l-3.714-3.714c-1-1-1.5-2.214-1.5-3.643s0.506-2.637 1.518-3.625l2.625-2.607c0.988-0.988 2.196-1.482 3.625-1.482 1.44 0 2.655 0.506 3.643 1.518l3.679 3.696c0.988 0.988 1.482 2.196 1.482 3.625 0 1.464-0.524 2.708-1.571 3.732l1.571 1.571c1.024-1.048 2.262-1.571 3.714-1.571 1.429 0 2.643 0.5 3.643 1.5l3.714 3.714c1 1 1.5 2.214 1.5 3.643z"></path>
</svg>
