<!-- Generated by IcoMoon.io -->
<svg version="1.1" xmlns="http://www.w3.org/2000/svg" width="32" height="32" viewBox="0 0 32 32">
<title>locationtech</title>
<path d="M16.792-0.467c0.37 0 0.739 0 1.109 0 0.602 0.158 1.197 0.351 1.807 0.466 0.704 0.133 1.013 0.331 0.773 1.187-0.502 1.795 0.289 3.627 1.814 4.602 1.571 1.004 3.44 0.925 4.96-0.21 0.186-0.139 0.369-0.279 0.688-0.521 0.733 1.092 1.438 2.142 2.168 3.228-0.253 0.162-0.358 0.235-0.468 0.298-1.921 1.103-2.774 2.944-2.27 4.906 0.509 1.982 2.27 3.287 4.473 3.315 0 0.158 0 0.317 0 0.475-0.285 1.101-0.57 2.202-0.867 3.347-2.124-0.702-3.952-0.378-5.248 1.398-1.432 1.963-1.048 3.913 0.508 5.8-0.903 0.615-1.75 1.186-2.59 1.766-0.458 0.316-0.734 0.27-1.050-0.262-0.991-1.672-2.508-2.347-4.426-2.073-1.729 0.247-3.010 1.498-3.449 3.369-0.101 0.431-0.253 0.636-0.727 0.607-0.631-0.039-1.269 0.028-1.898-0.023-0.451-0.037-0.892-0.192-1.332-0.294 0.554-2.642 0.064-4.325-1.616-5.369-1.959-1.217-3.815-0.895-5.641 0.68-0.741-1.092-1.455-2.144-2.166-3.192 2.488-1.796 3.223-3.307 2.664-5.321-0.494-1.778-1.936-2.949-3.852-3.129 0-1.162 0-2.324 0-3.486 0.181-0.433 0.462-0.399 0.869-0.282 2.836 0.818 5.517-1.257 5.495-4.198-0.009-1.235-0.599-2.204-1.43-3.239 1.111-0.748 2.163-1.457 3.146-2.118 0.581 0.71 0.981 1.388 1.553 1.859 1.357 1.12 2.917 1.338 4.518 0.569 1.718-0.825 2.499-2.268 2.487-4.157zM15.669 24.28c4.85 0.003 8.728-3.858 8.725-8.686-0.003-4.78-3.883-8.695-8.646-8.724-4.791-0.029-8.76 3.902-8.768 8.684-0.008 4.837 3.861 8.723 8.689 8.726zM12.363 20.757c4.265-2.083 6.133-5.71 6.903-10.081 2.642 1.557 3.397 5.435 1.655 8.218-1.803 2.88-5.678 3.767-8.558 1.863zM9.68 16.798c-0.614-2.154 0.415-4.8 2.392-6.222 2.044-1.47 4.776-1.564 6.755-0.232-0.768 3.066-5.349 6.316-9.147 6.454z"></path>
</svg>
