<!-- Generated by IcoMoon.io -->
<svg version="1.1" xmlns="http://www.w3.org/2000/svg" width="32" height="32" viewBox="0 0 32 32">
<title>map-o</title>
<path d="M30.211 5.84c0.001 0.001 0.002 0.002 0.003 0.003v19.224c-0.001 0.001-0.002 0.002-0.003 0.003l-28.422-0c-0.001-0.001-0.002-0.002-0.003-0.003l0-19.224c0.001-0.001 0.002-0.002 0.003-0.003h28.422zM30.214 4.054h-28.429c-0.982 0-1.786 0.804-1.786 1.786v19.23c0 0.982 0.804 1.786 1.786 1.786h28.429c0.982 0 1.786-0.804 1.786-1.786v-19.23c0-0.982-0.804-1.786-1.786-1.786v0zM10.877 17.165c-0.104 0-0.275-0.085-0.38-0.19s-0.276-0.19-0.38-0.19-0.361-0.171-0.57-0.38c-0.209-0.209-0.466-0.38-0.57-0.38s-0.275-0.085-0.38-0.19-0.361-0.19-0.57-0.19-0.423 0.043-0.475 0.095-0.181 0.095-0.285 0.095-0.404-0.214-0.665-0.475-0.561-0.475-0.665-0.475-0.275-0.085-0.38-0.19-0.19-0.276-0.19-0.38 0.086-0.275 0.19-0.38 0.447-0.19 0.76-0.19 0.912-0.342 1.33-0.76 0.846-0.76 0.95-0.76 0.361-0.171 0.57-0.38 0.465-0.38 0.57-0.38 0.276-0.086 0.38-0.19 0.104-0.276 0-0.38-0.275-0.19-0.38-0.19-0.19-0.085-0.19-0.19-0.085-0.19-0.19-0.19-0.404 0.214-0.665 0.475-0.646 0.304-0.855 0.095-0.295-0.466-0.19-0.57 0.275-0.19 0.38-0.19 0.233-0.043 0.285-0.095 0.18-0.095 0.285-0.095 0.276-0.085 0.38-0.19 0.361-0.019 0.57 0.19 0.466 0.294 0.57 0.19 0.19-0.276 0.19-0.38-0.085-0.275-0.19-0.38-0.019-0.361 0.19-0.57 0.123-0.38-0.19-0.38-0.741 0.171-0.95 0.38-0.466 0.38-0.57 0.38-0.276 0.085-0.38 0.19-0.276 0.105-0.38 0-0.446-0.19-0.76-0.19-0.656 0.085-0.76 0.19-0.447 0.19-0.76 0.19c-0.314 0-0.613-0.043-0.665-0.095s-0.352-0.095-0.665-0.095c-0.314 0-0.613 0.043-0.665 0.095s-0.18 0.095-0.285 0.095c-0.104 0-0.404 0.214-0.665 0.475s-0.432 0.518-0.38 0.57 0.181 0.095 0.285 0.095c0.104 0 0.276-0.085 0.38-0.19s0.361-0.19 0.57-0.19c0.209 0 0.465 0.085 0.57 0.19s0.19 0.361 0.19 0.57-0.086 0.466-0.19 0.57-0.19 0.276-0.19 0.38-0.086 0.276-0.19 0.38-0.19 0.275-0.19 0.38 0.171 0.361 0.38 0.57 0.38 0.466 0.38 0.57 0.256 0.446 0.57 0.76 0.656 0.57 0.76 0.57 0.361 0.171 0.57 0.38c0.209 0.209 0.465 0.38 0.57 0.38s0.233 0.043 0.285 0.095c0.052 0.052 0.095 0.18 0.095 0.285s-0.043 0.233-0.095 0.285c-0.052 0.052-0.095 0.266-0.095 0.475s0.043 0.423 0.095 0.475 0.095 0.18 0.095 0.285 0.214 0.404 0.475 0.665 0.475 0.903 0.475 1.425c0 0.523 0.086 1.036 0.19 1.14s0.19 0.361 0.19 0.57c0 0.209 0.086 0.466 0.19 0.57s0.276 0.19 0.38 0.19 0.19-0.086 0.19-0.19c0-0.105-0.043-0.233-0.095-0.285s-0.095-0.181-0.095-0.285c0-0.105 0.128-0.318 0.285-0.475s0.285-0.37 0.285-0.475 0.171-0.361 0.38-0.57 0.38-0.465 0.38-0.57c0-0.104 0.171-0.361 0.38-0.57s0.38-0.466 0.38-0.57c0-0.104 0.086-0.275 0.19-0.38s0.19-0.276 0.19-0.38-0.085-0.276-0.19-0.38c-0.105-0.104-0.275-0.19-0.38-0.19zM13.823 9.089c0.261-0.261 0.432-0.518 0.38-0.57s-0.779-0.095-1.615-0.095-1.606 0.086-1.71 0.19-0.147 0.233-0.095 0.285 0.18 0.095 0.285 0.095 0.233 0.043 0.285 0.095 0.095 0.181 0.095 0.285-0.085 0.275-0.19 0.38-0.105 0.275 0 0.38 0.276 0.19 0.38 0.19 0.276-0.086 0.38-0.19 0.276-0.19 0.38-0.19 0.275-0.085 0.38-0.19 0.276-0.19 0.38-0.19 0.404-0.214 0.665-0.475zM19.334 18.4c-0.157 0.157-0.285 0.456-0.285 0.665s0.043 0.423 0.095 0.475c0.052 0.052 0.138 0.052 0.19 0s0.095-0.18 0.095-0.285 0.085-0.276 0.19-0.38c0.105-0.105 0.19-0.276 0.19-0.38s-0.043-0.233-0.095-0.285c-0.052-0.052-0.223 0.033-0.38 0.19zM25.985 17.64c-0.052-0.052-0.18-0.095-0.285-0.095s-0.447-0.257-0.76-0.57c-0.314-0.314-0.57-0.485-0.57-0.38s0.214 0.404 0.475 0.665c0.261 0.261 0.646 0.475 0.855 0.475s0.337-0.043 0.285-0.095zM26.555 16.31c-0.052-0.052-0.181-0.095-0.285-0.095s-0.19 0.085-0.19 0.19c0 0.104-0.085 0.275-0.19 0.38s-0.147 0.233-0.095 0.285c0.052 0.052 0.18 0.095 0.285 0.095s0.233-0.043 0.285-0.095c0.052-0.052 0.095-0.181 0.095-0.285s0.043-0.233 0.095-0.285c0.052-0.052 0.052-0.138 0-0.19zM27.030 16.215c0-0.105 0.085-0.19 0.19-0.19s0.19 0.085 0.19 0.19-0.085 0.19-0.19 0.19-0.19-0.086-0.19-0.19zM28.265 21.44c0.052 0.052 0.138 0.052 0.19 0s0.010-0.095-0.095-0.095c-0.105 0-0.147 0.043-0.095 0.095zM28.55 16.975c-0.105 0-0.233 0.043-0.285 0.095s-0.18 0.010-0.285-0.095-0.19-0.105-0.19 0 0.043 0.233 0.095 0.285c0.052 0.052 0.181 0.095 0.285 0.095s0.275 0.085 0.38 0.19c0.105 0.104 0.276 0.19 0.38 0.19s0.233 0.043 0.285 0.095 0.095 0.010 0.095-0.095-0.128-0.318-0.285-0.475-0.371-0.285-0.475-0.285zM29.405 19.54c-0.052-0.052-0.095-0.18-0.095-0.285s-0.043-0.233-0.095-0.285-0.095-0.266-0.095-0.475-0.043-0.423-0.095-0.475-0.138-0.052-0.19 0-0.095 0.18-0.095 0.285-0.043 0.233-0.095 0.285-0.223-0.033-0.38-0.19c-0.157-0.157-0.328-0.242-0.38-0.19s-0.181 0.095-0.285 0.095-0.361 0.171-0.57 0.38-0.466 0.38-0.57 0.38c-0.105 0-0.276 0.086-0.38 0.19s-0.19 0.361-0.19 0.57c-0 0.209-0.043 0.423-0.095 0.475s-0.052 0.138 0 0.19c0.052 0.052 0.266 0.095 0.475 0.095s0.466-0.085 0.57-0.19 0.276-0.19 0.38-0.19 0.361 0.171 0.57 0.38 0.466 0.38 0.57 0.38c0.105 0 0.404-0.214 0.665-0.475s0.475-0.561 0.475-0.665c-0-0.105-0.043-0.233-0.095-0.285zM27.884 12.698c0.052 0.052-0.076 0.266-0.285 0.475s-0.423 0.337-0.475 0.285 0.076-0.266 0.285-0.475c0.209-0.209 0.423-0.337 0.475-0.285zM14.106 11.274c0 0.105 0.086 0.19 0.19 0.19s0.276-0.086 0.38-0.19 0.19-0.276 0.19-0.38-0.086-0.19-0.19-0.19-0.276 0.086-0.38 0.19-0.19 0.276-0.19 0.38 0-0.105 0 0zM24.369 15.645c0 0.209 0.171 0.551 0.38 0.76s0.38 0.294 0.38 0.19-0.128-0.318-0.285-0.475c-0.157-0.157-0.242-0.328-0.19-0.38s0.181-0.009 0.285 0.095c0.104 0.105 0.275 0.105 0.38 0s0.19-0.276 0.19-0.38c0-0.105-0.086-0.276-0.19-0.38s-0.105-0.276 0-0.38c0.105-0.105 0.276-0.19 0.38-0.19s0.276-0.086 0.38-0.19c0.104-0.105 0.19-0.361 0.19-0.57s-0.085-0.466-0.19-0.57c-0.104-0.105-0.19-0.275-0.19-0.38s0.043-0.233 0.095-0.285 0.138-0.052 0.19 0c0.052 0.052 0.181 0.095 0.285 0.095s0.276-0.086 0.38-0.19 0.19-0.361 0.19-0.57-0.171-0.551-0.38-0.76c-0.209-0.209-0.209-0.38 0-0.38s0.466-0.085 0.57-0.19 0.404 0.024 0.665 0.285 0.475 0.304 0.475 0.095 0.128-0.508 0.285-0.665c0.157-0.157 0.2-0.371 0.095-0.475s-0.788-0.19-1.52-0.19c-0.732 0-1.373-0.043-1.425-0.095s-0.437-0.095-0.855-0.095-0.803-0.043-0.855-0.095-0.352-0.095-0.665-0.095-0.655-0.086-0.76-0.19c-0.105-0.105-0.532-0.19-0.951-0.19s-0.846 0.086-0.95 0.19c-0.104 0.105-0.275 0.19-0.38 0.19s-0.276 0.085-0.38 0.19c-0.104 0.105-0.532 0.19-0.95 0.19s-0.803 0.043-0.855 0.095-0.138 0.052-0.19 0-0.437-0.095-0.855-0.095-0.974 0.214-1.235 0.475-0.432 0.518-0.38 0.57 0.095 0.181 0.095 0.285-0.086 0.276-0.191 0.38-0.277 0.19-0.381 0.19-0.233 0.043-0.285 0.095-0.052 0.138 0 0.19 0.095 0.181 0.095 0.285-0.171 0.19-0.38 0.19-0.423 0.043-0.475 0.095-0.095 0.18-0.095 0.285 0.043 0.233 0.096 0.285 0.182 0.095 0.286 0.095 0.361-0.171 0.57-0.38 0.466-0.38 0.57-0.38 0.233-0.043 0.285-0.095 0.18-0.010 0.285 0.095c0.104 0.104 0.233 0.147 0.285 0.095s0.181-0.009 0.285 0.095 0.276 0.19 0.38 0.19 0.275 0.085 0.38 0.19 0.361 0.19 0.57 0.19 0.38 0.086 0.38 0.19-0.043 0.233-0.095 0.285-0.266 0.095-0.475 0.095-0.423-0.043-0.475-0.095-0.181-0.095-0.285-0.095-0.233 0.043-0.285 0.095c-0.052 0.052-0.138 0.052-0.19 0s-0.18-0.095-0.285-0.095c-0.105 0-0.275-0.086-0.38-0.19s-0.361-0.19-0.57-0.19-0.423 0.043-0.475 0.095-0.18 0.095-0.285 0.095-0.404 0.214-0.665 0.475-0.475 0.817-0.475 1.235 0.171 0.931 0.38 1.14c0.209 0.209 0.551 0.38 0.76 0.38s0.423-0.043 0.475-0.095 0.181-0.095 0.285-0.095 0.233 0.043 0.285 0.095 0.095 0.266 0.095 0.475 0.128 0.508 0.285 0.665c0.157 0.157 0.285 0.37 0.285 0.475s-0.043 0.233-0.095 0.285-0.095 0.266-0.095 0.475 0.043 0.423 0.095 0.475c0.052 0.052 0.095 0.181 0.095 0.285s0.043 0.233 0.095 0.285c0.052 0.052 0.095 0.181 0.095 0.285s0.085 0.276 0.19 0.38 0.276 0.19 0.38 0.19 0.361-0.171 0.57-0.38 0.38-0.465 0.38-0.57c0-0.104 0.214-0.404 0.475-0.665s0.475-0.561 0.475-0.665c0-0.105-0.043-0.233-0.095-0.285s-0.095-0.266-0.095-0.475 0.257-0.637 0.57-0.95c0.314-0.314 0.57-0.655 0.57-0.76s-0.171-0.19-0.38-0.19-0.466-0.085-0.57-0.19c-0.105-0.105-0.19-0.276-0.19-0.38s-0.128-0.318-0.285-0.475-0.285-0.371-0.285-0.475 0.043-0.233 0.095-0.285 0.095-0.009 0.095 0.095 0.171 0.361 0.38 0.57c0.209 0.209 0.38 0.466 0.38 0.57s0.043 0.233 0.095 0.285c0.052 0.052 0.138 0.052 0.19 0s0.181-0.095 0.285-0.095 0.361-0.171 0.57-0.38 0.294-0.466 0.19-0.57c-0.105-0.105-0.276-0.19-0.38-0.19s-0.275-0.085-0.38-0.19-0.147-0.233-0.095-0.285c0.052-0.052 0.18-0.010 0.285 0.095s0.275 0.19 0.38 0.19c0.105 0 0.233 0.043 0.285 0.095s0.266 0.095 0.475 0.095c0.209 0 0.508 0.128 0.665 0.285s0.285 0.37 0.285 0.475 0.085 0.276 0.19 0.38 0.19 0.275 0.19 0.38c0 0.104 0.043 0.233 0.095 0.285s0.138 0.052 0.19 0 0.095-0.266 0.095-0.475c0-0.209 0.128-0.508 0.285-0.665s0.371-0.285 0.475-0.285c0.105 0 0.361 0.171 0.57 0.38s0.38 0.551 0.38 0.76zM31.21 20.775c0-0.105-0.085-0.105-0.19 0s-0.19 0.276-0.19 0.38c0 0.105 0.085 0.105 0.19 0s0.19-0.276 0.19-0.38zM30.26 21.345c-0.105 0-0.276 0.085-0.38 0.19s-0.147 0.233-0.095 0.285c0.052 0.052 0.18 0.010 0.285-0.095s0.276-0.19 0.38-0.19 0.19-0.085 0.19-0.19c0-0.104-0.043-0.147-0.095-0.095s-0.181 0.095-0.285 0.095z"></path>
</svg>
