<!-- Generated by IcoMoon.io -->
<svg version="1.1" xmlns="http://www.w3.org/2000/svg" width="32" height="32" viewBox="0 0 32 32">
<title>map-rolled-o</title>
<path d="M31.34 4.389c-0.345-0.366-0.803-0.568-1.29-0.568h-19.589c-0.253-1.165-0.855-2.229-1.703-3.005-0.93-0.852-2.111-1.321-3.326-1.321-2.85 0-5.169 2.518-5.169 5.613v18.708c-0.090 0.44-0.135 0.891-0.135 1.343 0 3.449 2.613 6.255 5.825 6.255h24.1c1.003-0.002 1.819-0.868 1.819-1.93v-23.735c0-0.513-0.189-0.996-0.532-1.36zM8.149 5.107v0.21c-0.030 0.141-0.046 0.287-0.046 0.433l0.022 13.624c-0.938-0.409-1.755-0.473-2.173-0.473-0.116 0-0.237 0.004-0.362 0.012-0.058-0.002-0.109-0.003-0.158-0.003-0.939 0-2.003 0.415-2.72 0.861v-14.665c0-1.679 1.22-3.045 2.72-3.045 1.498 0 2.716 1.366 2.717 3.045zM3.438 22.677c0.55-0.664 1.296-1.089 2.104-1.196 0.724 0.028 1.448 0.337 1.989 0.848 0.576 0.545 0.893 1.267 0.893 2.034 0 0.442 0.079 0.792 0.235 1.042 0.165 0.264 0.412 0.403 0.715 0.403 0.675 0 1.225-0.576 1.225-1.283v-18.152h18.839v22.49h-23.485c-1.869 0-3.39-1.662-3.39-3.704 0-0.918 0.311-1.799 0.876-2.482z"></path>
</svg>
