<!-- Generated by IcoMoon.io -->
<svg version="1.1" xmlns="http://www.w3.org/2000/svg" width="39" height="32" viewBox="0 0 39 32">
<title>map-year</title>
<path d="M37.294 7.353c-1.544-4.219-4.52-6.992-9-7.68-4.18-0.643-7.427 1.119-9.662 4.696-0.311 0.497-0.486 0.3-0.856 0.082-0.933-0.549-1.868-1.19-2.891-1.477-7.437-2.090-14.849 4.706-13.532 12.393 0.949 5.543 4.282 9.37 9.029 12.078 3.509 2.002 7.367 3.069 11.293 3.863 0.732 0.148 1.681 0.014 2.331-0.347 3.291-1.828 6.182-4.199 8.7-6.993 3.171-3.52 5.147-7.314 5.499-12.447-0.151-1.428-0.426-2.845-0.91-4.168zM17.963 7.021c-0.026-0.003-0.053 0.006-0.081 0.025-0 0-0 0-0 0 0.028-0.020 0.055-0.028 0.081-0.025zM17.882 7.046c-0.268-0.072-0.535-0.144-0.803-0.215l-1.506-1.926c0.77 0.714 1.539 1.428 2.309 2.141zM35.245 17.509c-0.117 0.341-0.319 0.711-0.529 1.020-0.31 0.551-0.707 1.012-1.017 1.563-0.077 0.122-0.153 0.245-0.23 0.367l0.026-0.003c-0.634 0.931-1.216 1.904-1.919 2.779-0.567 0.705-1.272 1.3-1.92 1.94-0.355 0.118-1.074 0.322-1.087 0.307-1.502-1.744-2.659-0.157-3.856 0.298-1.599 0.607-3.121 1.348-4.676 2.030 0.163 0.223 0.327 0.446 0.49 0.669-0.627 0.285-1.254 0.57-1.88 0.855-2.86-0.909-5.677-1.922-8.203-3.635-0.206-0.14-0.38-0.328-0.569-0.493-0.658-0.555-1.315-1.111-1.973-1.666-3.431-2.656-5.001-6.198-4.895-10.487 0.021-0.866 0.334-1.725 0.513-2.587 0.229-0.607 0.458-1.213 0.687-1.82 0.584 1.242 1.168 2.485 1.868 3.974 0.012 0.063 1.116 1.143 1.111 1.207 0.894 0.786 1.789 1.571 2.684 2.356-0.001 0.059 0.002 0.119 0.010 0.177-0.003 0.378-0.007 0.756-0.010 1.134 0.066 0.086 0.132 0.172 0.199 0.257 0.185 0.558 0.27 1.178 0.574 1.662 1.145 1.825 2.361 3.605 3.551 5.402 0.075 0.058 0.151 0.116 0.226 0.174 0.23-0.027 0.461-0.054 0.691-0.081 0.071-0.747 0.143-1.495 0.214-2.243-0.064-0.215-0.129-0.429-0.194-0.643-0.329-0.973-0.659-1.945-0.988-2.918-0.074-0.066-0.149-0.132-0.224-0.198h-0c0.008-0.247 0.016-0.494 0.025-0.741-0.072-0.077-0.144-0.153-0.216-0.23-0.071 0-0.138-0.013-0.204-0.040-0.082-0.061-0.163-0.122-0.244-0.183h0.003c-0.704-0.945-1.369-1.931-2.619-2.247-0.242-0.061-0.645-0.176-0.665-0.311-0.156-1.051-0.107-2.152-0.991-2.972-0.034-0.032 0.246-0.512 0.463-0.658 0.101-0.068 0.461 0.117 0.601 0.278 0.163 0.187 0.213 0.472 0.312 0.715 0.072 0.034 0.121 0.087 0.148 0.161 0.622-0.687 1.285-1.303 2.289-1.337-0.005-0.063-0.017-0.126-0.035-0.187 0.084 0.075 0.168 0.15 0.252 0.225 0.305-0.157 0.61-0.314 0.915-0.471 0.077 0.075 0.153 0.15 0.23 0.225 0.145 0.414 0.222 0.881 0.477 1.211 0.075 0.097 0.654-0.197 1.001-0.311-0.044-0.069-0.088-0.138-0.131-0.208-0.377-0.235-0.755-0.47-1.132-0.704 0.156-0.349 0.313-0.697 0.469-1.046-0.076-0.475-0.152-0.951-0.229-1.426-0.002-0-0.004-0.001-0.006-0.002 0-0.001-0-0.002-0-0.003-0.106 0.017-0.213 0.035-0.32 0.050-0.305 0.041-0.61 0.081-0.915 0.121 0.117-0.241 0.17-0.59 0.362-0.701 0.532-0.31 0.817-0.035 0.874 0.53 0.002-0 0.004-0.001 0.006-0.001 0 0.002 0.001 0.004 0.001 0.005 0.306 0.077 0.612 0.153 0.918 0.229 0.075-0.075 0.149-0.15 0.224-0.225 0.141-0.37-0.444-1.332 0.715-0.872 0.517-0.169 1.033-0.338 1.55-0.507-0-0.071-0.003-0.141-0.007-0.212 0.459-0.227 0.918-0.453 1.378-0.68 0.369-0.743 0.739-1.487 1.108-2.23 0.151 0.591 0.302 1.181 0.453 1.771-0.449 0.151-0.898 0.303-1.347 0.454 0.374 0.080 0.748 0.161 1.121 0.241 0.211 0.342-0.97 0.742-0.022 0.979 0.85 0.213 0.217 0.651 0.107 0.681-1.674 0.454-1.205 1.691-1.076 2.812 0.005 0.047-0.079 0.104-0.159 0.201-0.24-0.172-0.48-0.343-0.719-0.514-0.084 0.060-0.167 0.12-0.251 0.18 0.206 0.391 0.412 0.783 0.618 1.174 1.015-0.352 2.030-0.704 3.045-1.056l0.055 0.065c0.307 0.081 0.613 0.163 0.919 0.244-0.308 0.213-0.617 0.426-0.925 0.638-0.078 0.082-0.157 0.164-0.236 0.247-0.303 0.139-0.607 0.278-0.91 0.417-0.075 0.177-0.15 0.353-0.225 0.53l-0 0c-0.36-0.152-0.95 0.659-1.126-0.268-0.375-0.003-0.749-0.006-1.124-0.009-0.010 0.040-0.017 0.080-0.020 0.121 0.698 0.791-0.049 1.332-0.346 1.942-0.759 1.564-0.329 2.6 1.257 2.995h0c0.003 0.118 0.005 0.236 0.007 0.354 0.759-0.13 1.518-0.259 2.277-0.389-0 0.292-0.001 0.583-0.001 0.875 0.146 0.016 0.292 0.032 0.438 0.048 0.079 0.209 0.167 0.416 0.236 0.629 0.294 0.904 0.555 1.821 0.898 2.706 0.060 0.155 0.519 0.318 0.688 0.242 0.988-0.445 2.266-3.623 1.908-4.64-0.021-0.060-0.111-0.096-0.168-0.144 0.021-0.071 0.047-0.14 0.078-0.208 0.072-0.377 0.144-0.755 0.216-1.132l0.001 0.010c0.077-0.091 0.154-0.182 0.231-0.273 0.080-0.102 0.159-0.203 0.239-0.305-0.163-0.422 0.454-1.344-0.75-1.097 0.276-0.913 1.125-1.592 0.677-2.755-0.15-0.389 0.705-0.707 1.319-0.337 0.556 0.335 1.143 0.62 1.715 0.927 0.091 0.004 0.182 0.008 0.273 0.012 0.062-0.002 0.124-0.008 0.185-0.017-0.009-0.227-0.018-0.455-0.027-0.682-0.448-0.614-0.895-1.227-1.343-1.841-0.013-0.114-0.026-0.227-0.039-0.341 0.568 0.041 1.136 0.082 1.705 0.123-0.035-0.142-0.071-0.284-0.107-0.426 0.766-0.251 0.592-0.852 0.135-1.014-0.865-0.306-0.742-1.051-1.015-1.625-0.138-0.291-0.241-0.645-0.471-0.837-0.567-0.473-1.583-0.521-1.395-1.669 0.025-0.151-0.399-0.375-0.615-0.565l-0.052 0.058c0.342 0.794-0.283 0.624-0.68 0.683l0.008-0.010c-0.062-0.082-0.124-0.164-0.186-0.247-0.035-0.066-0.065-0.135-0.089-0.207-0.049-0.002-0.098-0.009-0.145-0.022l-1.398-0.208c-0.088-0.094-0.176-0.187-0.265-0.281-0.1 0.050-0.196 0.13-0.3 0.143-0.425 0.054-0.852 0.088-1.279 0.13 0.176-0.285 0.353-0.571 0.591-0.956-0.584 0.092-1.12 0.177-1.656 0.262 0.524-0.384 1.047-0.768 1.571-1.152 0.374-0.144 0.749-0.289 1.123-0.433 0.89-0.183 1.785-0.539 2.669-0.514 2.239 0.062 4.277 0.739 5.799 2.522 0.364 0.392 0.728 0.785 1.092 1.177 0.355 0.418 0.799 0.787 1.052 1.26 2.036 3.807 1.843 7.725 0.483 11.677zM10.382 12.518c-0.37 0.924 0.127 1.914 1.019 2.028-0.291-0.622-0.58-1.244-0.87-1.867-0.027-0.074-0.077-0.128-0.149-0.161zM15.784 8.649c-0.002 0.002-0.003 0.003-0.005 0.005s-0.001 0.005-0.002 0.007l0.007-0.012zM15.562 8.88c-0.002-0.001-0.004-0.001-0.006-0.002-0.004 0.004-0.009 0.008-0.013 0.013l0.019-0.011z"></path>
</svg>
