<!-- Generated by IcoMoon.io -->
<svg version="1.1" xmlns="http://www.w3.org/2000/svg" width="32" height="32" viewBox="0 0 32 32">
<title>map</title>
<path d="M1.786 4.054c-0.982 0-1.786 0.804-1.786 1.786v19.23c0 0.982 0.804 1.786 1.786 1.786h28.429c0.982 0 1.786-0.804 1.786-1.786v-19.23c0-0.982-0.804-1.786-1.786-1.786h-28.429zM27.599 13.173c-0.209 0.209-0.423 0.337-0.475 0.285s0.076-0.266 0.285-0.475 0.423-0.337 0.475-0.285c0.052 0.052-0.076 0.266-0.285 0.475zM27.22 16.025c0.104 0 0.19 0.085 0.19 0.19s-0.085 0.19-0.19 0.19-0.19-0.085-0.19-0.19 0.085-0.19 0.19-0.19zM27.79 16.785c0 0 0.086 0.085 0.19 0.19s0.233 0.147 0.285 0.095c0.052-0.052 0.18-0.095 0.285-0.095s0.319 0.128 0.475 0.285 0.285 0.371 0.285 0.475-0.043 0.147-0.095 0.095c-0.052-0.052-0.181-0.095-0.285-0.095s-0.276-0.085-0.38-0.19c-0.105-0.104-0.276-0.19-0.38-0.19s-0.233-0.043-0.285-0.095c-0.052-0.052-0.095-0.181-0.095-0.285s0-0.19 0-0.19zM14.676 10.704c0.105 0 0.19 0.086 0.19 0.19s-0.086 0.276-0.19 0.38-0.276 0.19-0.38 0.19-0.19-0.086-0.19-0.19 0.086-0.276 0.19-0.38 0.276-0.19 0.38-0.19zM11.447 17.925c-0 0-0.085 0.085-0.19 0.19s-0.19 0.276-0.19 0.38c-0 0.104-0.171 0.361-0.38 0.57s-0.38 0.466-0.38 0.57c-0 0.104-0.171 0.361-0.38 0.57s-0.38 0.466-0.38 0.57-0.128 0.318-0.285 0.475-0.285 0.37-0.285 0.475c0 0.105 0.043 0.233 0.095 0.285s0.095 0.18 0.095 0.285c0 0.105-0.085 0.19-0.19 0.19s-0.275-0.086-0.38-0.19c-0.105-0.105-0.19-0.361-0.19-0.57s-0.086-0.465-0.19-0.57-0.19-0.618-0.19-1.14-0.214-1.164-0.475-1.425-0.475-0.561-0.475-0.665-0.043-0.233-0.095-0.285-0.095-0.266-0.095-0.475 0.043-0.423 0.095-0.475c0.052-0.052 0.095-0.181 0.095-0.285s-0.043-0.233-0.095-0.285c-0.052-0.052-0.181-0.095-0.285-0.095s-0.361-0.171-0.57-0.38c-0.209-0.209-0.466-0.38-0.57-0.38s-0.447-0.257-0.76-0.57c-0.314-0.314-0.57-0.656-0.57-0.76s-0.171-0.361-0.38-0.57c-0.209-0.209-0.38-0.466-0.38-0.57s0.086-0.275 0.19-0.38 0.19-0.276 0.19-0.38 0.086-0.276 0.19-0.38c0.105-0.105 0.19-0.361 0.19-0.57s-0.086-0.466-0.19-0.57c-0.105-0.104-0.361-0.19-0.57-0.19s-0.465 0.085-0.57 0.19-0.276 0.19-0.38 0.19-0.233-0.043-0.285-0.095c-0.052-0.052 0.119-0.309 0.38-0.57s0.561-0.475 0.665-0.475c0.104 0 0.233-0.043 0.285-0.095s0.352-0.095 0.665-0.095c0.314 0 0.613 0.043 0.665 0.095s0.352 0.095 0.665 0.095c0.314 0 0.655-0.085 0.76-0.19s0.447-0.19 0.76-0.19 0.656 0.085 0.76 0.19 0.275 0.105 0.38 0 0.276-0.19 0.38-0.19 0.361-0.171 0.57-0.38 0.636-0.38 0.95-0.38 0.399 0.171 0.19 0.38-0.295 0.466-0.19 0.57 0.19 0.275 0.19 0.38-0.085 0.275-0.19 0.38-0.361 0.019-0.57-0.19-0.466-0.295-0.57-0.19-0.275 0.19-0.38 0.19-0.233 0.043-0.285 0.095-0.18 0.095-0.285 0.095-0.276 0.085-0.38 0.19-0.019 0.361 0.19 0.57 0.594 0.166 0.855-0.095 0.56-0.475 0.665-0.475 0.19 0.085 0.19 0.19 0.086 0.19 0.19 0.19 0.276 0.086 0.38 0.19 0.104 0.276 0 0.38-0.275 0.19-0.38 0.19-0.361 0.171-0.57 0.38-0.466 0.38-0.57 0.38-0.532 0.342-0.95 0.76-1.017 0.76-1.33 0.76-0.656 0.085-0.76 0.19-0.19 0.275-0.19 0.38 0.086 0.276 0.19 0.38 0.276 0.19 0.38 0.19 0.404 0.214 0.665 0.475 0.561 0.475 0.665 0.475 0.233-0.043 0.285-0.095 0.266-0.095 0.475-0.095 0.466 0.085 0.57 0.19 0.276 0.19 0.38 0.19 0.361 0.171 0.57 0.38c0.209 0.209 0.466 0.38 0.57 0.38s0.275 0.085 0.38 0.19 0.276 0.19 0.38 0.19 0.275 0.085 0.38 0.19c0.105 0.105 0.19 0.276 0.19 0.38s0 0.19-0 0.19zM12.778 9.754c-0.105 0.104-0.275 0.19-0.38 0.19s-0.275 0.086-0.38 0.19-0.276 0.19-0.38 0.19-0.276-0.086-0.38-0.19-0.105-0.276 0-0.38 0.19-0.275 0.19-0.38-0.043-0.233-0.095-0.285-0.18-0.095-0.285-0.095-0.233-0.043-0.285-0.095-0.009-0.181 0.095-0.285 0.874-0.19 1.71-0.19 1.563 0.043 1.615 0.095-0.119 0.309-0.38 0.57-0.56 0.475-0.665 0.475-0.276 0.085-0.38 0.19zM19.809 18.495c0 0.104-0.085 0.275-0.19 0.38s-0.19 0.276-0.19 0.38-0.043 0.233-0.095 0.285c-0.052 0.052-0.138 0.052-0.19 0s-0.095-0.266-0.095-0.475c0-0.209 0.128-0.509 0.285-0.665s0.328-0.242 0.38-0.19c0.052 0.052 0.095 0.181 0.095 0.285zM23.229 14.504c0 0-0.128 0.128-0.285 0.285s-0.285 0.456-0.285 0.665c0 0.209-0.043 0.423-0.095 0.475s-0.138 0.052-0.19 0-0.095-0.181-0.095-0.285c0-0.104-0.085-0.275-0.19-0.38s-0.19-0.276-0.19-0.38-0.128-0.318-0.285-0.475-0.456-0.285-0.665-0.285c-0.209 0-0.423-0.043-0.475-0.095s-0.181-0.095-0.285-0.095c-0.105 0-0.276-0.086-0.38-0.19s-0.233-0.147-0.285-0.095-0.009 0.181 0.095 0.285 0.276 0.19 0.38 0.19 0.276 0.086 0.38 0.19c0.105 0.105 0.019 0.361-0.19 0.57s-0.466 0.38-0.57 0.38-0.233 0.043-0.285 0.095c-0.052 0.052-0.138 0.052-0.19 0s-0.095-0.181-0.095-0.285-0.171-0.361-0.38-0.57c-0.209-0.209-0.38-0.466-0.38-0.57s-0.043-0.147-0.095-0.095c-0.052 0.052-0.095 0.18-0.095 0.285s0.128 0.318 0.285 0.475 0.285 0.371 0.285 0.475 0.086 0.276 0.19 0.38c0.105 0.105 0.361 0.19 0.57 0.19s0.38 0.085 0.38 0.19-0.257 0.447-0.57 0.76c-0.314 0.314-0.57 0.741-0.57 0.95s0.043 0.423 0.095 0.475 0.095 0.18 0.095 0.285c0 0.105-0.214 0.404-0.475 0.665s-0.475 0.561-0.475 0.665-0.171 0.361-0.38 0.57-0.466 0.38-0.57 0.38c-0.104 0-0.275-0.085-0.38-0.19s-0.19-0.275-0.19-0.38-0.043-0.233-0.095-0.285c-0.052-0.052-0.095-0.181-0.095-0.285s-0.043-0.233-0.095-0.285-0.095-0.266-0.095-0.475 0.043-0.423 0.095-0.475 0.095-0.181 0.095-0.285-0.128-0.318-0.285-0.475c-0.157-0.157-0.285-0.456-0.285-0.665s-0.043-0.423-0.095-0.475c-0.052-0.052-0.181-0.095-0.285-0.095s-0.233 0.043-0.285 0.095c-0.052 0.052-0.266 0.095-0.475 0.095s-0.551-0.171-0.76-0.38c-0.209-0.209-0.38-0.722-0.38-1.14s0.214-0.974 0.475-1.235 0.561-0.475 0.665-0.475 0.233-0.043 0.285-0.095 0.266-0.095 0.475-0.095 0.466 0.086 0.57 0.19 0.275 0.19 0.38 0.19 0.233 0.043 0.285 0.095c0.052 0.052 0.138 0.052 0.19 0s0.18-0.095 0.285-0.095 0.233 0.043 0.285 0.095 0.266 0.095 0.475 0.095 0.423-0.043 0.475-0.095 0.095-0.181 0.095-0.285-0.171-0.19-0.38-0.19-0.466-0.085-0.57-0.19-0.276-0.19-0.38-0.19-0.275-0.086-0.38-0.19-0.233-0.147-0.285-0.095c-0.052 0.052-0.181 0.009-0.285-0.095s-0.233-0.147-0.285-0.095-0.18 0.095-0.285 0.095-0.361 0.171-0.57 0.38-0.466 0.38-0.57 0.38-0.233-0.043-0.286-0.095-0.096-0.181-0.096-0.285 0.043-0.233 0.095-0.285 0.266-0.095 0.475-0.095 0.38-0.086 0.38-0.19-0.043-0.233-0.095-0.285-0.052-0.138 0-0.19 0.181-0.095 0.285-0.095 0.276-0.086 0.381-0.19 0.191-0.276 0.191-0.38-0.043-0.233-0.095-0.285 0.119-0.309 0.38-0.57 0.817-0.475 1.235-0.475 0.803 0.043 0.855 0.095 0.138 0.052 0.19 0 0.437-0.095 0.855-0.095c0.418 0 0.846-0.085 0.95-0.19s0.276-0.19 0.38-0.19c0.105 0 0.276-0.085 0.38-0.19s0.532-0.19 0.95-0.19 0.846 0.085 0.951 0.19c0.105 0.105 0.447 0.19 0.76 0.19s0.613 0.043 0.665 0.095c0.052 0.052 0.437 0.095 0.855 0.095s0.803 0.043 0.855 0.095 0.694 0.095 1.425 0.095c0.732 0 1.416 0.085 1.52 0.19s0.062 0.318-0.095 0.475c-0.157 0.157-0.285 0.456-0.285 0.665s-0.214 0.166-0.475-0.095c-0.261-0.261-0.56-0.389-0.665-0.285s-0.361 0.19-0.57 0.19c-0.209 0-0.209 0.171 0 0.38s0.38 0.551 0.38 0.76-0.086 0.466-0.19 0.57-0.276 0.19-0.38 0.19c-0.105 0-0.233-0.043-0.285-0.095s-0.138-0.052-0.19 0-0.095 0.181-0.095 0.285 0.085 0.275 0.19 0.38 0.19 0.361 0.19 0.57-0.085 0.466-0.19 0.57-0.275 0.19-0.38 0.19-0.276 0.085-0.38 0.19c-0.105 0.104-0.105 0.276 0 0.38s0.19 0.276 0.19 0.38c0 0.105-0.086 0.276-0.19 0.38s-0.276 0.105-0.38 0c-0.104-0.105-0.233-0.147-0.285-0.095s0.033 0.223 0.19 0.38 0.285 0.371 0.285 0.475c0 0.105-0.171 0.019-0.38-0.19s-0.38-0.551-0.38-0.76c0-0.209-0.171-0.551-0.38-0.76s-0.466-0.38-0.57-0.38c-0.105-0-0.19-0-0.19-0zM26.555 16.31c0.052 0.052 0.052 0.138 0 0.19s-0.095 0.18-0.095 0.285-0.043 0.233-0.095 0.285-0.18 0.095-0.285 0.095-0.233-0.043-0.285-0.095c-0.052-0.052-0.010-0.181 0.095-0.285s0.19-0.276 0.19-0.38c0-0.104 0.085-0.19 0.19-0.19s0.233 0.043 0.285 0.095zM24.844 17.26c-0.261-0.261-0.475-0.561-0.475-0.665s0.257 0.067 0.57 0.38c0.314 0.314 0.656 0.57 0.76 0.57s0.233 0.043 0.285 0.095-0.076 0.095-0.285 0.095-0.594-0.214-0.855-0.475zM28.455 21.44c-0.052 0.052-0.138 0.052-0.19 0s-0.009-0.095 0.095-0.095c0.105 0 0.147 0.043 0.095 0.095zM29.5 20.015c-0 0-0.214 0.214-0.475 0.475s-0.56 0.475-0.665 0.475-0.361-0.171-0.57-0.38c-0.209-0.209-0.466-0.38-0.57-0.38s-0.275 0.085-0.38 0.19-0.361 0.19-0.57 0.19-0.423-0.043-0.475-0.095c-0.052-0.052-0.052-0.138-0-0.19s0.095-0.266 0.095-0.475c0-0.209 0.086-0.466 0.19-0.57s0.276-0.19 0.38-0.19c0.105 0 0.361-0.171 0.57-0.38s0.465-0.38 0.57-0.38c0.104 0 0.233-0.043 0.285-0.095s0.223 0.033 0.38 0.19c0.157 0.157 0.328 0.242 0.38 0.19s0.095-0.18 0.095-0.285c0-0.105 0.043-0.233 0.095-0.285s0.138-0.052 0.19 0c0.052 0.052 0.095 0.266 0.095 0.475s0.043 0.423 0.095 0.475c0.052 0.052 0.095 0.181 0.095 0.285s0.043 0.233 0.095 0.285c0.052 0.052 0.095 0.18 0.095 0.285s0 0.19 0 0.19zM30.64 21.535c0 0-0.086 0-0.19 0s-0.276 0.086-0.38 0.19c-0.104 0.105-0.233 0.148-0.285 0.095s-0.010-0.181 0.095-0.285 0.276-0.19 0.38-0.19 0.233-0.043 0.285-0.095c0.052-0.052 0.095-0.010 0.095 0.095s0 0.19 0 0.19zM31.21 20.775c0 0.105-0.085 0.276-0.19 0.38s-0.19 0.105-0.19 0c0-0.105 0.085-0.276 0.19-0.38s0.19-0.105 0.19 0z"></path>
</svg>
