<!-- Generated by IcoMoon.io -->
<svg version="1.1" xmlns="http://www.w3.org/2000/svg" width="32" height="32" viewBox="0 0 32 32">
<title>mapbox</title>
<path d="M30.024 7.553c-0.129-0.217-0.312-0.403-0.534-0.525l-12.806-7.052c-0.208-0.113-0.444-0.173-0.68-0.173-0.239-0.001-0.479 0.059-0.689 0.173l-12.806 7.052c-0.222 0.122-0.405 0.307-0.534 0.525s-0.204 0.467-0.204 0.72v14.358c0.001 0.506 0.294 1.002 0.738 1.245l12.806 7.052c0.209 0.114 0.447 0.178 0.685 0.178s0.476-0.063 0.685-0.178l12.806-7.052c0.444-0.243 0.738-0.739 0.738-1.245v-14.358c-0.001-0.253-0.076-0.503-0.205-0.72zM13.154 4.628c0-0.271 0.075-0.473 0.285-0.578l0.907-0.494c0.056-0.031 0.105-0.043 0.151-0.040 0.137 0.010 0.222 0.16 0.222 0.387v0.774c0 0.215-0.045 0.315-0.124 0.418l-0.934 1.112-0.156 0.187c-0.157 0.188-0.351 0.124-0.351-0.142l0-1.623zM13.795 12.88c-1.146 1.368-2.287 2.74-3.441 4.1-0.139 0.166-0.298 0.214-0.445 0.133-0.806-0.444-1.461-0.804-2.241-1.236l-1.494 1.801c0.568 0.312 1.136 0.624 1.703 0.938 0.217 0.12 0.298 0.305 0.298 0.582v1.040l2.979 1.641c0.546 0.3 0.938 1.405 0.938 1.405l2.228 1.223c0.217 0.119 0.298 0.305 0.298 0.582v0.52c-0.008 0.242-0.046 0.437-0.222 0.534l-0.929 0.507c-0.126 0.069-0.286 0.063-0.409-0.004l-5.362-2.957c-0.217-0.119-0.298-0.305-0.298-0.582v-0.173l1.285-1.53-3.771-2.076c-0.217-0.119-0.293-0.302-0.293-0.582v-9.418c0-0.277 0.076-0.467 0.293-0.587l0.271-0.151c2.206-1.212 6.545-3.597 6.545-3.597 0.053-0.029 0.105-0.045 0.156-0.049 0.151-0.013 0.276 0.090 0.276 0.329v2.717l1.267 0.703c0.217 0.12 0.298 0.305 0.298 0.582v0.511l-0.898 0.502-0.978-1.156-1.801 0.992c-0.353 0.194-0.431 0.389-0.067 0.587l1.454 0.8c0.217 0.12 0.298 0.305 0.298 0.582v0.293l0.711 0.391v-1.023c0-0.285-0.010-0.466 0.298-0.636l1.441-0.796 1.347 1.596-1.734 0.96zM17.107 7.771l-1.196-1.414c-0.123-0.146-0.195-0.23-0.195-0.502v-2.788c0-0.207 0.095-0.38 0.276-0.378 0.060 0.001 0.13 0.023 0.209 0.067 0.783 0.431 1.566 0.86 2.348 1.294 0.217 0.12 0.298 0.305 0.298 0.582v1.272c0 0.274-0.078 0.458-0.289 0.578l-0.707 0.414v0.307c0 0.427-0.148 0.569-0.569 0.569l-0.173 0zM27.383 16.175l-0.507-0.6c-0.158-0.188-0.33-0.19-0.507-0.093l-0.6 0.329 1.401 1.663c0.136 0.161 0.213 0.238 0.213 0.525v3.575c0 0.277-0.081 0.463-0.298 0.582l-3.824 2.108c-0.163 0.090-0.339 0.078-0.485-0.093-0.517-0.612-1.111-1.296-1.69-1.996-0.427 0.236-0.866 0.494-1.294 0.711-0.218 0.111-0.355 0.118-0.569 0-0.378-0.208-0.795-0.424-1.214-0.667-0.214-0.125-0.298-0.31-0.298-0.587-0.001-0.68-0.006-1.348-0.004-2.041 0.001-0.232 0.080-0.473 0.28-0.711l2.281-2.721h-0.854c-0.285 0-0.569-0.285-0.569-0.569v-0.778c0-0.277 0.081-0.462 0.298-0.582 0.14-0.077 0.703-0.396 0.703-0.396l-0.004-1.583c-0.001-0.199 0.067-0.438 0.298-0.565l2.121-1.169v-2.365c0-0.277 0.081-0.462 0.298-0.582 0.265-0.147 0.594-0.325 0.894-0.489 0.129-0.068 0.213-0.098 0.302-0.098 0.086 0 0.181 0.042 0.329 0.12 0.998 0.552 2.002 1.092 3.001 1.641 0.217 0.12 0.298 0.305 0.298 0.582v6.852l-0-0zM25.248 15.161v-1.743l-1.263 0.694c-0.177 0.098-0.349 0.095-0.507-0.089l-0.449-0.534c-0.139-0.165-0.29-0.196-0.445-0.133l-1.672 0.92-0.645 1.881 1.583 0.876 3.397-1.872z"></path>
</svg>
