<!-- Generated by IcoMoon.io -->
<svg version="1.1" xmlns="http://www.w3.org/2000/svg" width="32" height="32" viewBox="0 0 32 32">
<title>mapmint</title>
<path d="M27.717 5.271c-0.061-0.071-0.123-0.142-0.186-0.212-1.146-1.283-2.525-2.396-4.117-3.269-7.532-4.131-17.019-1.368-21.154 6.165-2.001 3.649-2.464 7.859-1.297 11.854 1.165 3.999 3.816 7.301 7.463 9.301 3.649 2.003 7.858 2.464 11.856 1.297 3.993-1.163 7.294-3.814 9.297-7.463 3.737-6.812 2.057-13.121-1.862-17.673zM7.193 14.596c-0.621 0-1.125-0.504-1.125-1.125s0.504-1.125 1.125-1.125c0.622 0 1.125 0.504 1.125 1.125s-0.504 1.125-1.125 1.125zM9.425 10.955c-0.822 0-1.49-0.711-1.49-1.587s0.667-1.587 1.49-1.587c0.823 0 1.489 0.711 1.489 1.587s-0.667 1.587-1.489 1.587zM29.008 15.461c0 0.001 0 0.002 0 0.003 0 0.431-0.021 0.862-0.064 1.293-0.003 0.028-0.005 0.056-0.009 0.083-0.020 0.194-0.044 0.387-0.073 0.58-0.007 0.049-0.016 0.098-0.024 0.146-0.020 0.126-0.043 0.252-0.067 0.377-0.017 0.088-0.034 0.176-0.053 0.263-0.010 0.045-0.021 0.089-0.031 0.134-1.311 5.844-6.523 10.211-12.755 10.211-0.005 0-0.009-0-0.014-0-1.761-0.747-3.211-2.208-3.876-4.162-1.238-3.639 0.71-7.593 4.349-8.83 1.037-0.353 1.936-0.926 2.663-1.65 1.826-1.816 2.57-4.578 1.686-7.181-0.73-2.145-2.403-3.7-4.399-4.364 1.997 0.060 4.009 0.578 5.878 1.603 1.276 0.702 2.387 1.586 3.321 2.599-0.002 0.003-0.004 0.006-0.006 0.009 0.595 0.644 1.128 1.347 1.585 2.102 0.001-0.001 0.002-0.003 0.003-0.004 0.311 0.516 0.584 1.053 0.819 1.604 0.024 0.055 0.047 0.11 0.070 0.166 0.057 0.138 0.112 0.277 0.164 0.417 0.036 0.096 0.070 0.194 0.104 0.291 0.027 0.076 0.052 0.152 0.077 0.228 0.108 0.329 0.203 0.663 0.284 1.003 0.018 0.074 0.035 0.148 0.051 0.222 0.029 0.129 0.056 0.259 0.081 0.389 0.023 0.119 0.044 0.238 0.064 0.358 0.012 0.074 0.023 0.149 0.034 0.224 0.026 0.175 0.048 0.351 0.067 0.528 0.002 0.022 0.004 0.045 0.006 0.068 0.019 0.194 0.034 0.388 0.044 0.582 0.001 0.017 0.002 0.034 0.003 0.051 0.011 0.218 0.016 0.435 0.017 0.654-0.001 0.001-0.001 0.001-0.001 0.002z"></path>
</svg>
