<!-- Generated by IcoMoon.io -->
<svg version="1.1" xmlns="http://www.w3.org/2000/svg" width="32" height="32" viewBox="0 0 32 32">
<title>mapserver</title>
<path d="M4.375 26.652l6.64 3.82v-8.252l-6.64-3.82zM11.653 30.374l6.64-3.82v-8.252l-6.64 3.82zM18.871 26.612l6.64 3.82v-8.252l-6.64-3.82zM10.956 13.256l-6.64-3.82v8.252l6.64 3.82zM11.653 21.428l6.64-3.82v-8.252l-6.64 3.82zM18.911 17.687l6.64 3.82v-8.252l-6.64-3.82zM10.956 4.306l-6.64-3.82v8.252l6.64 3.82zM11.653 12.519l6.64-3.82v-8.252l-6.64 3.82zM18.99 0.486v8.252l6.64 3.82v-8.252z"></path>
</svg>
