<!-- Generated by IcoMoon.io -->
<svg version="1.1" xmlns="http://www.w3.org/2000/svg" width="32" height="32" viewBox="0 0 32 32">
<title>measure-area</title>
<path d="M7.589 6.765l-6.214-6.214v7.822h2.765c0.331 0 0.597 0.265 0.58 0.58 0 0.331-0.265 0.597-0.58 0.58h-2.765v1.425h1.274c0.331 0 0.597 0.265 0.58 0.58 0 0.331-0.265 0.597-0.58 0.58h-1.274v1.425h2.765c0.331 0 0.597 0.265 0.58 0.58 0 0.331-0.265 0.597-0.58 0.58h-2.765v1.425h1.274c0.331 0 0.597 0.265 0.58 0.58 0 0.331-0.265 0.597-0.58 0.58h-1.274v1.425h2.765c0.331 0 0.597 0.265 0.58 0.58 0 0.331-0.265 0.597-0.58 0.58h-2.765v1.425h1.274c0.331 0 0.597 0.265 0.58 0.58 0 0.331-0.265 0.597-0.58 0.58h-1.274v1.425h2.765c0.331 0 0.597 0.265 0.58 0.58 0 0.331-0.265 0.597-0.58 0.58l-2.765 0.043v5.027h5.997v-2.765c0-0.331 0.265-0.597 0.58-0.58 0.331 0 0.597 0.265 0.58 0.58v2.765h1.425v-1.274c0-0.331 0.265-0.597 0.58-0.58 0.331 0 0.597 0.265 0.58 0.58v1.274h1.425v-2.765c0-0.331 0.265-0.597 0.58-0.58 0.331 0 0.597 0.265 0.58 0.58v2.765h1.425v-1.274c0-0.331 0.265-0.597 0.58-0.58 0.331 0 0.597 0.265 0.58 0.58v1.274h1.425v-2.765c0-0.331 0.265-0.597 0.58-0.58 0.331 0 0.597 0.265 0.58 0.58v2.765h1.425v-1.274c0-0.331 0.265-0.597 0.58-0.58 0.331 0 0.597 0.265 0.58 0.58v1.274h1.425v-2.765c0-0.331 0.265-0.597 0.58-0.58 0.331 0 0.597 0.265 0.58 0.58l0.043 2.765h6.853l-23.349-23.349zM7.601 24.672l-0.007-10.201 10.201 10.201h-10.194z"></path>
</svg>
