<!-- Generated by IcoMoon.io -->
<svg version="1.1" xmlns="http://www.w3.org/2000/svg" width="32" height="32" viewBox="0 0 32 32">
<title>measure-distance</title>
<path d="M8.289 0.972l-1.069 1.078c-0 0-0 0-0 0l-4.622 4.621c-0.255 0.255-0.255 0.669-0 0.924l1.531 1.531-0.005 0.005 2.443 2.442 1.052-1.052c0.234-0.234 0.609-0.234 0.82 0 0.234 0.234 0.234 0.609 0 0.82l-1.052 1.052 1.008 1.008 2.107-2.107c0.234-0.234 0.609-0.234 0.82 0 0.234 0.234 0.234 0.609 0 0.82l-2.106 2.106 1.008 1.008 1.051-1.051c0.234-0.234 0.609-0.234 0.82 0 0.234 0.234 0.234 0.609 0 0.82l-1.051 1.051 1.008 1.008 2.106-2.106c0.234-0.234 0.609-0.234 0.82 0 0.234 0.234 0.234 0.609 0 0.82l-2.105 2.105 1.008 1.008 1.051-1.051c0.234-0.234 0.609-0.234 0.82 0 0.234 0.234 0.234 0.609 0 0.82l-1.050 1.050 1.008 1.008 2.105-2.105c0.234-0.234 0.609-0.234 0.82 0 0.234 0.234 0.234 0.609 0 0.82l-2.105 2.105 1.008 1.008 1.050-1.050c0.234-0.234 0.609-0.234 0.82 0 0.234 0.234 0.234 0.609 0 0.82l-1.049 1.049 1.008 1.008 2.104-2.104c0.234-0.234 0.609-0.234 0.82 0 0.234 0.234 0.234 0.609 0 0.82l-2.071 2.136 1.010 1.011 1.061-1.061c0.234-0.234 0.609-0.234 0.82 0 0.234 0.234 0.234 0.609 0 0.82l-1.060 1.060 0.421 0.421-0.001 0.001 1.386 1.386c0.254 0.254 0.669 0.255 0.924 0l4.622-4.622c0.010-0.010 0.020-0.021 0.030-0.032l1.14-1.15-22.284-22.083zM7.225 5.206c0.553 0 1.002 0.449 1.002 1.002s-0.448 1.002-1.002 1.002c-0.553 0-1.002-0.449-1.002-1.002s0.449-1.002 1.002-1.002z"></path>
</svg>
