<!-- Generated by IcoMoon.io -->
<svg version="1.1" xmlns="http://www.w3.org/2000/svg" width="32" height="32" viewBox="0 0 32 32">
<title>merge</title>
<path d="M29.797 0.433h-1.187v2.411h2.411v-2.411zM28.573 30.476h2.449v-2.449h-2.449zM0.978 28.027v2.449h2.449v-2.449zM28.61 0.433h-25.183v2.449h15.947v15.947h-15.947v-15.947h-2.449v25.145h2.449v-6.749h6.749v6.749h-6.749v2.449h25.146v-2.449h-6.749v-6.749h6.749v6.749h2.449v-25.183h-2.411v-2.411zM19.375 28.027h-6.749v-6.749h6.749v6.749zM28.573 18.829h-6.749v-6.749h6.749v6.749zM28.573 9.631h-6.749v-6.749h6.749v6.749zM3.427 2.882v-2.449h-2.449v2.449h2.449z"></path>
</svg>
