<!-- Generated by IcoMoon.io -->
<svg version="1.1" xmlns="http://www.w3.org/2000/svg" width="32" height="32" viewBox="0 0 32 32">
<title>minimize</title>
<path d="M14.482 14.157c0.219-0.218 0.329-0.488 0.33-0.808l0.011-6.465c0.001-0.32-0.108-0.589-0.327-0.809s-0.488-0.329-0.808-0.33c-0.32-0-0.589 0.108-0.809 0.327l-1.619 1.613-5.653-5.673-3.234 3.231 5.649 5.668-1.619 1.613c-0.219 0.219-0.329 0.488-0.33 0.808s0.108 0.589 0.327 0.809c0.218 0.219 0.488 0.329 0.808 0.33l6.465 0.011c0.32 0.001 0.589-0.108 0.809-0.327zM29.626 25.664l-5.649-5.668 1.619-1.613c0.219-0.218 0.329-0.488 0.33-0.808s-0.108-0.589-0.327-0.809-0.488-0.329-0.808-0.33l-6.465-0.011c-0.32-0.001-0.589 0.108-0.809 0.327s-0.329 0.488-0.33 0.808l-0.011 6.465c-0.001 0.32 0.108 0.589 0.327 0.809s0.488 0.329 0.808 0.33c0.32 0 0.589-0.108 0.809-0.327l1.619-1.613 5.653 5.673 3.234-3.231z"></path>
</svg>
