<!-- Generated by IcoMoon.io -->
<svg version="1.1" xmlns="http://www.w3.org/2000/svg" width="32" height="32" viewBox="0 0 32 32">
<title>mobile-phone</title>
<path d="M23.98 1.571c-0.584-0.584-1.276-0.876-2.076-0.876h-11.808c-0.8 0-1.491 0.292-2.076 0.876s-0.876 1.276-0.876 2.076v23.616c0 0.799 0.292 1.491 0.876 2.076s1.276 0.876 2.076 0.876h11.808c0.799 0 1.491-0.292 2.076-0.876s0.876-1.276 0.876-2.076v-23.616c0-0.8-0.292-1.491-0.876-2.076zM16 28.725c-0.796 0-1.441-0.643-1.441-1.437s0.645-1.437 1.441-1.437c0.796 0 1.441 0.643 1.441 1.437s-0.645 1.437-1.441 1.437zM22.642 23.572c0 0.2-0.073 0.373-0.219 0.519s-0.319 0.219-0.519 0.219h-11.808c-0.2 0-0.373-0.073-0.519-0.219s-0.219-0.319-0.219-0.519v-16.236c0-0.2 0.073-0.373 0.219-0.519s0.319-0.219 0.519-0.219h11.808c0.2 0 0.373 0.073 0.519 0.219s0.219 0.319 0.219 0.519v16.236z"></path>
</svg>
