<!-- Generated by IcoMoon.io -->
<svg version="1.1" xmlns="http://www.w3.org/2000/svg" width="32" height="32" viewBox="0 0 32 32">
<title>model</title>
<path d="M12.398 25.255c0 3.424-2.775 6.199-6.199 6.199s-6.199-2.775-6.199-6.199c0-3.424 2.775-6.199 6.199-6.199s6.199 2.775 6.199 6.199zM25.8 19.056c-3.424 0-6.199 2.776-6.199 6.199s2.775 6.199 6.199 6.199 6.2-2.775 6.2-6.199-2.776-6.199-6.2-6.199zM25.8 29.040c-2.086 0-3.784-1.698-3.784-3.784s1.697-3.784 3.784-3.784c2.086 0 3.784 1.697 3.784 3.784s-1.698 3.784-3.784 3.784zM16-0.545l-7.809 13.526h15.619l-7.809-13.526zM16 4.633l3.325 5.759h-6.65l3.325-5.759z"></path>
</svg>
