<!-- Generated by IcoMoon.io -->
<svg version="1.1" xmlns="http://www.w3.org/2000/svg" width="26" height="32" viewBox="0 0 26 32">
<title>molamola</title>
<path d="M25.349 14.302c-0.101-1.555-0.482-2.985-1.133-4.25-0.661-1.285-1.613-2.426-2.83-3.392-1.048-0.832-2.224-1.504-3.596-2.054-1.147-0.46-2.407-0.83-3.965-1.163-0.159-0.034-0.294-0.074-0.399-0.119-0.132-0.056-0.221-0.121-0.257-0.187-0.446-0.816-1.026-1.504-1.721-2.042-0.67-0.518-1.471-0.917-2.382-1.186l-0.012-0.004h-0.013c-0.14 0-0.281-0.007-0.418-0.013-0.139-0.007-0.282-0.013-0.426-0.013s-0.291 0.007-0.432 0.013c-0.14 0.007-0.284 0.013-0.424 0.013h-0.012l-0.012 0.003c-0.674 0.184-1.214 0.503-1.604 0.947-0.386 0.44-0.636 1.015-0.743 1.71-0.011 0.069-0.039 0.151-0.076 0.219-0.038 0.070-0.084 0.123-0.125 0.144-0.706 0.367-1.278 0.897-1.751 1.62-0.436 0.667-0.736 1.416-0.995 2.127-0.382 1.048-0.673 2.146-0.888 3.359-0.187 1.054-0.315 2.183-0.389 3.451-0.009 0.153-0.034 0.303-0.058 0.43-0.010 0.054-0.020 0.108-0.031 0.162-0.018 0.091-0.036 0.186-0.052 0.28l-0.001 0.007v2.177l0.001 0.005c0.047 0.4 0.092 0.807 0.135 1.202 0.027 0.246 0.054 0.492 0.082 0.738 0.064 0.571 0.144 1.248 0.249 1.938 0.126 0.829 0.311 1.919 0.629 2.989s0.725 1.984 1.244 2.794c0.226 0.352 0.52 0.652 0.777 0.898 0.101 0.096 0.205 0.193 0.305 0.286 0.186 0.172 0.377 0.35 0.553 0.532 0.032 0.033 0.067 0.066 0.101 0.098 0.040 0.038 0.081 0.076 0.116 0.114 0.069 0.074 0.105 0.132 0.111 0.182 0.094 0.709 0.352 1.296 0.766 1.744 0.397 0.429 0.95 0.744 1.645 0.938l0.012 0.003h0.012c0.095 0 0.191 0.012 0.293 0.025s0.208 0.026 0.313 0.026c0.033 0 0.064-0.001 0.095-0.004 0.031 0.003 0.063 0.004 0.096 0.004 0.106 0 0.209-0.013 0.309-0.026 0.099-0.013 0.192-0.025 0.286-0.025h0.010l0.010-0.002c0.954-0.22 1.796-0.596 2.505-1.118 0.721-0.532 1.326-1.232 1.797-2.081 0.027-0.049 0.095-0.097 0.202-0.14 0.089-0.036 0.192-0.065 0.283-0.091l0.045-0.013c0.395-0.112 0.8-0.216 1.192-0.317 0.149-0.038 0.298-0.077 0.446-0.115 0.52-0.136 1.078-0.287 1.632-0.475 2.971-1.005 5.202-2.568 6.633-4.645 1.434-2.081 2.061-4.674 1.863-7.706zM6.766 1.65c0.22-0.235 0.537-0.361 0.996-0.394 0.125-0.009 0.249-0.014 0.369-0.014 0.648 0 1.222 0.129 1.755 0.395 0.585 0.292 1.104 0.742 1.581 1.371l-5.112-0.318c0.069-0.484 0.201-0.816 0.411-1.040zM5.006 26.404c-0.445-0.312-0.821-0.806-1.149-1.51-0.575-1.236-0.99-2.563-1.268-4.057-0.232-1.244-0.371-2.63-0.424-4.237-0.056-1.679-0.009-3.174 0.144-4.571 0.177-1.607 0.49-3.067 0.958-4.463 0.115-0.342 0.26-0.7 0.443-1.094s0.383-0.774 0.536-1.062c0.255-0.479 0.585-0.825 0.98-1.029 0.29-0.15 0.622-0.226 0.986-0.226 0.14 0 0.286 0.011 0.437 0.033 0.19 0.028 0.377 0.041 0.552 0.051 0.065 0.004 0.131 0.007 0.2 0.011 0.109 0.006 0.221 0.011 0.339 0.019v0.752c0 1.577-0.001 3.155-0.001 4.733-0.001 1.879-0.002 3.822-0.001 5.733 0.001 4.192 0.007 7.42 0.020 10.465 0.002 0.354-0.053 0.553-0.184 0.665s-0.353 0.156-0.694 0.193c-0.141 0.015-0.279 0.023-0.411 0.023-0 0-0 0-0 0-0.57 0-1.048-0.141-1.462-0.43zM9.323 29.463c-0.407 0.131-0.833 0.201-1.23 0.201-0 0-0 0-0 0-0.397 0-0.741-0.069-0.995-0.199-0.218-0.112-0.391-0.312-0.532-0.494-0.061-0.079-0.123-0.163-0.182-0.244-0.083-0.114-0.169-0.232-0.259-0.341 0.011-0.009 0.106-0.094 0.106-0.094l5.007-0.32c-0.344 0.667-1.033 1.206-1.915 1.491zM23.877 16.743c-0.154 1.598-0.647 3.029-1.465 4.255-0.796 1.191-1.918 2.215-3.334 3.042-1.405 0.82-2.967 1.429-4.775 1.863-1.411 0.338-2.97 0.574-5.044 0.762v-22.349c1.485 0.118 3.404 0.313 5.258 0.76 1.888 0.455 3.506 1.116 4.947 2.021 1.723 1.082 2.964 2.475 3.689 4.141 0.681 1.567 0.925 3.42 0.725 5.507zM16.601 13.913c0.487-0.362 0.581-0.739 0.288-1.152-0.14-0.197-0.317-0.297-0.525-0.297-0.182 0-0.385 0.077-0.619 0.235-0.969 0.655-1.436 1.637-1.47 3.091l-0 0.002 0 0.002c0.043 1.423 0.509 2.387 1.467 3.034 0.162 0.109 0.405 0.239 0.644 0.239 0.167 0 0.396-0.065 0.534-0.375 0.124-0.276-0.090-0.84-0.333-1.043-0.57-0.476-0.898-1.214-0.877-1.973 0.020-0.714 0.344-1.357 0.89-1.764zM20.104 10.963c-0.008 0-0.017 0-0.025 0-0.319 0.006-0.613 0.136-0.827 0.366-0.235 0.252-0.355 0.596-0.336 0.97 0.033 0.665 0.569 1.206 1.196 1.206 0.012 0 0.024-0 0.036-0.001 0.307-0.010 0.599-0.15 0.822-0.393 0.239-0.262 0.366-0.612 0.346-0.961-0.038-0.688-0.547-1.187-1.211-1.187z"></path>
</svg>
