<!-- Generated by IcoMoon.io -->
<svg version="1.1" xmlns="http://www.w3.org/2000/svg" width="32" height="32" viewBox="0 0 32 32">
<title>north-arrow</title>
<path d="M31.085 28.783c-1.15-2.28-2.205-4.378-3.228-6.414-1.391-2.77-2.804-5.586-4.171-8.31l-1.619-3.225c-0.368-0.734-0.737-1.467-1.105-2.201-1.253-2.495-2.548-5.076-3.819-7.615-0.256-0.513-0.638-0.773-1.134-0.773h-0.005c-0.504 0.002-0.887 0.266-1.136 0.784-0.159 0.331-0.33 0.666-0.495 0.99-0.086 0.168-0.174 0.342-0.261 0.514-1.374 2.737-2.748 5.474-4.122 8.212l-3.512 6.996c-1.811 3.608-3.684 7.338-5.524 11.008-0.066 0.133-0.116 0.264-0.159 0.38-0.017 0.044-0.032 0.086-0.047 0.122l-0.039 0.096 0.017 0.102c0.008 0.044 0.013 0.083 0.018 0.12 0.011 0.078 0.022 0.153 0.046 0.231 0.157 0.525 0.59 0.851 1.13 0.851 0.195 0 0.399-0.041 0.606-0.123 4.312-1.706 8.899-3.522 13.412-5.314 0.057-0.023 0.090-0.025 0.109-0.025s0.053 0.003 0.113 0.026c3.162 1.263 6.379 2.543 9.489 3.782l1.472 0.586c0.24 0.096 0.479 0.192 0.719 0.287 0.579 0.232 1.177 0.471 1.769 0.701 0.156 0.061 0.317 0.091 0.477 0.091 0.547-0 1.011-0.363 1.153-0.903 0.102-0.386-0.022-0.711-0.156-0.977zM27.577 27.173l-11.194-4.453v-17.841l11.194 22.294z"></path>
</svg>
