<!-- Generated by IcoMoon.io -->
<svg version="1.1" xmlns="http://www.w3.org/2000/svg" width="32" height="32" viewBox="0 0 32 32">
<title>oam</title>
<path d="M12.207 7.804c-0.285 0.401-0.57 0.801-0.856 1.202-0.286 0.402-0.572 0.804-0.859 1.206-0.287 0.403-0.574 0.806-0.861 1.21s-0.576 0.809-0.864 1.213c-0.288 0.405-0.577 0.81-0.865 1.215s-0.578 0.811-0.867 1.217c-0.289 0.406-0.579 0.812-0.868 1.218s-0.579 0.813-0.869 1.219c-0.29 0.406-0.579 0.813-0.869 1.219s-0.579 0.812-0.869 1.218c-0.289 0.406-0.579 0.812-0.868 1.217s-0.578 0.811-0.867 1.216c-0.144 0.202-0.289 0.405-0.433 0.607-0.072 0.101-0.144 0.202-0.216 0.303-0.036 0.050-0.072 0.101-0.108 0.152-0.004 0.006-0.009 0.012-0.013 0.018-0.006 0.008-0.003 0.011 0 0.020 0.005 0.014 0.010 0.028 0.014 0.042 0.010 0.031 0.021 0.061 0.031 0.092 0.159 0.472 0.318 0.944 0.476 1.416s0.316 0.945 0.474 1.418c0.157 0.47 0.314 0.941 0.47 1.412 0.155 0.466 0.31 0.932 0.465 1.398 0.156 0.471 0.313 0.941 0.469 1.412 0.040 0.119 0.079 0.238 0.119 0.357 0.010 0.029 0.019 0.057 0.029 0.086 0.030-0.008 0.061-0.015 0.091-0.023 0.059-0.015 0.118-0.029 0.176-0.044 0.237-0.059 0.474-0.116 0.712-0.172 0.481-0.113 0.964-0.217 1.45-0.306 0.236-0.043 0.471-0.088 0.704-0.147 0.228-0.058 0.453-0.126 0.675-0.203 0.055-0.019 0.11-0.039 0.165-0.060 0.004-0.001 0.026-0.007 0.026-0.010 0-0.001 0.001-0.002 0.001-0.004 0.001-0.006 0.003-0.013 0.004-0.019 0.006-0.029 0.012-0.057 0.018-0.086 0.010-0.049 0.020-0.097 0.030-0.146 0.014-0.068 0.028-0.135 0.042-0.203 0.018-0.086 0.035-0.171 0.053-0.257 0.021-0.103 0.042-0.206 0.064-0.308 0.024-0.119 0.049-0.238 0.074-0.357 0.028-0.134 0.055-0.268 0.083-0.402 0.031-0.148 0.061-0.297 0.092-0.445 0.033-0.162 0.067-0.323 0.1-0.485 0.036-0.174 0.072-0.348 0.107-0.522 0.038-0.185 0.076-0.37 0.114-0.556 0.040-0.196 0.081-0.391 0.121-0.587 0.042-0.205 0.085-0.41 0.127-0.615 0.044-0.213 0.088-0.427 0.132-0.64 0.046-0.221 0.091-0.442 0.137-0.663 0.047-0.227 0.094-0.455 0.141-0.682 0.048-0.233 0.096-0.466 0.144-0.699 0.049-0.238 0.098-0.475 0.147-0.713 0.050-0.241 0.099-0.483 0.149-0.724 0.050-0.244 0.101-0.488 0.151-0.732 0.051-0.246 0.101-0.491 0.152-0.737s0.102-0.493 0.152-0.739c0.051-0.246 0.101-0.493 0.152-0.739 0.051-0.245 0.101-0.49 0.152-0.735 0.050-0.243 0.1-0.486 0.15-0.729 0.049-0.24 0.099-0.48 0.148-0.72 0.049-0.236 0.097-0.472 0.146-0.708 0.048-0.231 0.095-0.462 0.143-0.693 0.046-0.225 0.093-0.45 0.139-0.675 0.045-0.218 0.090-0.436 0.135-0.654 0.043-0.21 0.087-0.42 0.13-0.63 0.041-0.201 0.083-0.403 0.124-0.604 0.039-0.191 0.079-0.383 0.118-0.574 0.037-0.181 0.074-0.361 0.112-0.542 0.035-0.169 0.070-0.338 0.104-0.507 0.032-0.156 0.064-0.313 0.097-0.469 0.029-0.143 0.059-0.285 0.088-0.428 0.026-0.128 0.053-0.256 0.079-0.384 0.023-0.112 0.046-0.225 0.070-0.337 0.020-0.096 0.040-0.192 0.059-0.288 0.016-0.078 0.032-0.157 0.049-0.235 0.012-0.060 0.025-0.12 0.037-0.18 0.008-0.041 0.017-0.081 0.025-0.122 0.004-0.020 0.008-0.040 0.012-0.061 0-0.002 0.001-0.004 0.001-0.007-3.671 5.157 0 0 0 0zM20.084 8.224c0.002 0.011 0.004 0.022 0.007 0.033 0.007 0.032 0.013 0.064 0.020 0.096 0.011 0.052 0.021 0.104 0.032 0.157 0.015 0.071 0.029 0.143 0.044 0.214 0.018 0.090 0.037 0.179 0.055 0.269 0.022 0.107 0.044 0.213 0.065 0.32 0.025 0.123 0.050 0.246 0.075 0.369 0.028 0.138 0.056 0.276 0.085 0.414 0.031 0.152 0.062 0.305 0.093 0.457 0.034 0.165 0.068 0.331 0.101 0.496 0.036 0.178 0.073 0.355 0.109 0.533 0.039 0.189 0.077 0.378 0.116 0.567 0.041 0.199 0.081 0.398 0.122 0.597 0.043 0.208 0.085 0.417 0.128 0.625 0.044 0.217 0.088 0.433 0.133 0.65 0.046 0.224 0.091 0.448 0.137 0.671 0.047 0.23 0.094 0.46 0.141 0.69 0.048 0.235 0.096 0.471 0.144 0.706 0.049 0.24 0.098 0.479 0.147 0.719 0.050 0.243 0.099 0.486 0.149 0.728 0.050 0.245 0.1 0.49 0.15 0.735 0.050 0.246 0.101 0.493 0.151 0.739s0.101 0.493 0.151 0.74c0.050 0.246 0.1 0.492 0.151 0.738 0.050 0.244 0.1 0.488 0.149 0.732 0.049 0.241 0.099 0.483 0.148 0.724 0.049 0.238 0.097 0.475 0.146 0.713 0.048 0.233 0.095 0.466 0.143 0.699 0.046 0.227 0.093 0.455 0.139 0.682 0.045 0.221 0.090 0.441 0.135 0.662 0.043 0.213 0.087 0.426 0.13 0.639 0.042 0.204 0.083 0.409 0.125 0.613 0.040 0.195 0.079 0.389 0.119 0.584 0.038 0.184 0.075 0.368 0.113 0.552 0.035 0.172 0.070 0.345 0.105 0.517 0.033 0.16 0.065 0.319 0.098 0.479 0.030 0.146 0.060 0.292 0.089 0.438 0.027 0.131 0.054 0.263 0.080 0.394 0.024 0.116 0.047 0.231 0.071 0.347 0.020 0.099 0.040 0.198 0.061 0.297 0.017 0.081 0.033 0.163 0.050 0.244 0.013 0.063 0.026 0.126 0.038 0.188 0.009 0.043 0.018 0.086 0.026 0.13 0.005 0.023 0.009 0.045 0.014 0.068 0.001 0.003 0.001 0.006 0.002 0.010 0 0.001 0.019 0.005 0.021 0.005 0.030 0.008 0.061 0.015 0.091 0.023 0.059 0.015 0.117 0.030 0.176 0.044 0.117 0.030 0.235 0.059 0.352 0.089 0.471 0.119 0.943 0.237 1.414 0.354 0.479 0.119 0.958 0.239 1.438 0.358 0.061 0.015 0.121 0.030 0.182 0.045 0.029 0.007 0.058 0.015 0.088 0.022 0.015 0.004 0.029 0.007 0.044 0.011 0.007 0.002 0.015 0.004 0.022 0.005 0.006 0.004 0.009 0.003 0.009-0.005 0.002-0.005 0.003-0.009 0.005-0.014 0.039-0.116 0.078-0.232 0.117-0.347 0.078-0.233 0.156-0.465 0.234-0.698 0.157-0.468 0.314-0.936 0.471-1.405 0.158-0.471 0.315-0.942 0.472-1.414 0.157-0.473 0.315-0.946 0.471-1.419s0.313-0.946 0.468-1.42c0.078-0.236 0.155-0.473 0.232-0.709 0.019-0.059 0.039-0.118 0.058-0.177 0.005-0.014 0.009-0.028 0.014-0.042 0.004-0.013-0.012-0.027-0.019-0.038-0.019-0.026-0.037-0.053-0.056-0.079-0.072-0.101-0.144-0.203-0.216-0.304-0.288-0.406-0.576-0.812-0.864-1.218s-0.577-0.813-0.866-1.219c-0.289-0.407-0.578-0.814-0.867-1.221s-0.579-0.814-0.868-1.221c-0.289-0.407-0.579-0.814-0.869-1.221s-0.579-0.814-0.869-1.221c-0.289-0.407-0.579-0.813-0.868-1.22s-0.578-0.813-0.868-1.219c-0.289-0.406-0.578-0.811-0.867-1.217s-0.577-0.81-0.865-1.215c-0.288-0.404-0.576-0.808-0.863-1.212-0.287-0.403-0.574-0.806-0.861-1.209-0.059-0.082-0.117-0.165-0.176-0.247 0 0 3.594 5.044 0 0zM15.804 26.463c0.395 0.296 0.791 0.592 1.187 0.889 0.392 0.294 0.785 0.587 1.177 0.881 0.383 0.287 0.767 0.573 1.15 0.86 0.368 0.275 0.737 0.55 1.105 0.826 0.347 0.259 0.695 0.519 1.043 0.778 0.306 0.228 0.612 0.458 0.919 0.685-0.001-0.008-0.003-0.015-0.004-0.023-0.004-0.023-0.009-0.045-0.013-0.068-0.007-0.037-0.014-0.074-0.021-0.111-0.010-0.051-0.020-0.102-0.030-0.153-0.012-0.065-0.025-0.129-0.037-0.194-0.015-0.078-0.030-0.155-0.045-0.233-0.017-0.090-0.035-0.18-0.052-0.271-0.020-0.102-0.040-0.205-0.059-0.307-0.022-0.114-0.044-0.228-0.066-0.342-0.024-0.125-0.048-0.25-0.073-0.375-0.026-0.136-0.052-0.271-0.079-0.407-0.028-0.146-0.056-0.292-0.084-0.437-0.030-0.155-0.060-0.311-0.090-0.466-0.032-0.165-0.064-0.329-0.095-0.494-0.033-0.173-0.067-0.347-0.1-0.52-0.035-0.181-0.070-0.363-0.105-0.544-0.037-0.189-0.073-0.378-0.11-0.568-0.038-0.196-0.076-0.393-0.114-0.589-0.039-0.203-0.079-0.406-0.118-0.61-0.041-0.209-0.081-0.419-0.122-0.628-0.042-0.215-0.083-0.431-0.125-0.646-0.043-0.221-0.085-0.441-0.128-0.662-0.044-0.225-0.087-0.451-0.131-0.676-0.044-0.23-0.089-0.46-0.133-0.689-0.045-0.234-0.090-0.467-0.135-0.701-0.046-0.237-0.092-0.474-0.137-0.711-0.046-0.24-0.093-0.48-0.139-0.72-0.047-0.242-0.094-0.485-0.14-0.727-0.047-0.244-0.094-0.488-0.142-0.733-0.047-0.246-0.095-0.491-0.142-0.737-0.048-0.247-0.095-0.493-0.143-0.74s-0.096-0.494-0.143-0.741-0.096-0.494-0.143-0.741-0.095-0.493-0.143-0.74c-0.047-0.246-0.095-0.491-0.142-0.737-0.047-0.244-0.094-0.488-0.142-0.732-0.047-0.242-0.094-0.484-0.14-0.727-0.046-0.24-0.093-0.48-0.139-0.719-0.046-0.237-0.092-0.474-0.137-0.711-0.045-0.233-0.090-0.467-0.135-0.7-0.044-0.23-0.089-0.459-0.133-0.689-0.044-0.225-0.087-0.45-0.131-0.676-0.043-0.22-0.085-0.441-0.128-0.661-0.042-0.215-0.083-0.43-0.125-0.645-0.040-0.209-0.081-0.419-0.121-0.628-0.039-0.203-0.078-0.406-0.118-0.609-0.038-0.196-0.076-0.392-0.114-0.589-0.037-0.189-0.073-0.378-0.11-0.567-0.035-0.181-0.070-0.362-0.105-0.544-0.033-0.173-0.067-0.346-0.1-0.519-0.032-0.164-0.064-0.329-0.095-0.493-0.030-0.155-0.060-0.31-0.090-0.465-0.028-0.145-0.056-0.291-0.084-0.436-0.026-0.135-0.052-0.271-0.078-0.406-0.024-0.125-0.048-0.249-0.072-0.374-0.022-0.113-0.044-0.227-0.066-0.341-0.020-0.102-0.039-0.204-0.059-0.306-0.017-0.090-0.035-0.18-0.052-0.269-0.015-0.077-0.030-0.154-0.045-0.232-0.012-0.064-0.025-0.128-0.037-0.193-0.010-0.051-0.020-0.101-0.029-0.152-0.007-0.037-0.014-0.073-0.021-0.11-0.004-0.022-0.009-0.044-0.013-0.066-0.002-0.012-0.005-0.024-0.007-0.036-0.002-0.010-0.004-0.019-0.006-0.029 0.013-0.003 0.009-0.008 0.009-0.021 0-0.022 0-0.043 0-0.065 0-0.034 0-0.069 0-0.103-0.015 0.082-0.030 0.164-0.045 0.246-0.037 0.199-0.073 0.398-0.11 0.596-0.045 0.244-0.090 0.488-0.135 0.732-0.040 0.217-0.080 0.435-0.12 0.652-0.022 0.119-0.044 0.239-0.066 0.358-0.002 0.011-0.004 0.021-0.006 0.032-0.004 0.020-0.008 0.041-0.013 0.061-0.007 0.036-0.015 0.072-0.022 0.108-0.011 0.051-0.021 0.103-0.032 0.154-0.014 0.066-0.027 0.132-0.041 0.198-0.016 0.080-0.033 0.16-0.049 0.24-0.019 0.093-0.039 0.187-0.058 0.28-0.022 0.106-0.044 0.213-0.066 0.319-0.024 0.119-0.049 0.237-0.073 0.356-0.027 0.13-0.054 0.261-0.081 0.391-0.029 0.142-0.058 0.283-0.088 0.425-0.031 0.152-0.063 0.305-0.094 0.457-0.033 0.162-0.067 0.325-0.1 0.487-0.035 0.172-0.071 0.344-0.106 0.516-0.037 0.181-0.075 0.362-0.112 0.542-0.039 0.189-0.078 0.378-0.117 0.567-0.041 0.197-0.081 0.394-0.122 0.591-0.042 0.204-0.084 0.408-0.126 0.612-0.043 0.211-0.087 0.422-0.13 0.632-0.045 0.217-0.089 0.434-0.134 0.651-0.046 0.222-0.092 0.445-0.138 0.667-0.047 0.227-0.094 0.455-0.141 0.682-0.048 0.232-0.096 0.463-0.143 0.695-0.049 0.236-0.097 0.471-0.146 0.707-0.049 0.239-0.098 0.478-0.148 0.716-0.050 0.242-0.1 0.483-0.149 0.725-0.050 0.244-0.1 0.487-0.151 0.731-0.051 0.245-0.101 0.49-0.152 0.735s-0.101 0.492-0.152 0.738c-0.051 0.247-0.102 0.493-0.152 0.74s-0.102 0.493-0.152 0.739c-0.051 0.246-0.101 0.491-0.152 0.737-0.050 0.244-0.101 0.489-0.151 0.733-0.050 0.242-0.1 0.485-0.15 0.727-0.049 0.24-0.099 0.48-0.148 0.72-0.049 0.237-0.098 0.474-0.147 0.711-0.048 0.233-0.096 0.467-0.144 0.7-0.047 0.229-0.095 0.459-0.142 0.688-0.046 0.225-0.093 0.449-0.139 0.674-0.045 0.219-0.090 0.439-0.136 0.658-0.044 0.213-0.088 0.427-0.132 0.64-0.043 0.207-0.085 0.414-0.128 0.621-0.041 0.2-0.082 0.4-0.124 0.6-0.040 0.192-0.079 0.385-0.119 0.577-0.038 0.184-0.076 0.369-0.114 0.553-0.036 0.176-0.072 0.351-0.109 0.527-0.034 0.166-0.069 0.333-0.103 0.499-0.032 0.157-0.065 0.313-0.097 0.47-0.030 0.146-0.060 0.292-0.090 0.438-0.028 0.135-0.056 0.27-0.084 0.405-0.025 0.124-0.051 0.247-0.076 0.371-0.023 0.111-0.046 0.223-0.069 0.334-0.020 0.099-0.041 0.198-0.061 0.296-0.018 0.086-0.035 0.171-0.053 0.257-0.015 0.072-0.030 0.144-0.044 0.215-0.012 0.057-0.024 0.115-0.035 0.172-0.009 0.042-0.017 0.085-0.026 0.127-0.006 0.027-0.011 0.054-0.017 0.081-0.002 0.011-0.004 0.022-0.007 0.032-0 0-0 0-0 0.001 0.403-0.236 0.79-0.497 1.162-0.78 0.348-0.265 0.68-0.551 1.023-0.823 0.338-0.268 0.68-0.531 1.025-0.791 0.358-0.27 0.719-0.538 1.080-0.804 0.357-0.263 0.716-0.524 1.074-0.786 0.265-0.194 0.529-0.387 0.793-0.582-0.036-0.027-0.071-0.053-0.107-0.080-0.018-0.013-0.036-0.027-0.053-0.040-0.009-0.007-0.014-0.006-0.007-0.015 0.002-0.003 0.004-0.006 0.006-0.009 2.339 1.752 0 0 0 0z"></path>
</svg>
