<!-- Generated by IcoMoon.io -->
<svg version="1.1" xmlns="http://www.w3.org/2000/svg" width="32" height="32" viewBox="0 0 32 32">
<title>ogc-wfs</title>
<path d="M31.277 10.519c-0.482-0.482-1.061-0.723-1.738-0.723h-7.312v-6.698c0-1.999-1.438-3.62-3.212-3.62h-15.764c-1.774-0-3.212 1.62-3.212 3.62v24.714c0 2 1.438 3.62 3.212 3.62h5.258c0.115 0.016 0.234 0.023 0.355 0.023h20.674c0.677 0 1.256-0.241 1.738-0.723s0.723-1.061 0.723-1.738v-16.736c-0-0.677-0.241-1.256-0.723-1.738zM4.059 6.468c0-0.517 0.419-0.936 0.936-0.936h12.356c0.517 0 0.936 0.419 0.936 0.936s-0.42 0.936-0.937 0.936h-12.356c-0.517-0-0.936-0.419-0.936-0.936zM22.155 28.573v0.42c0 0.143-0.046 0.262-0.138 0.354-0.040 0.040-0.084 0.071-0.133 0.093-0.065 0.030-0.139 0.045-0.221 0.045h-4.922c-0.144 0-0.262-0.046-0.354-0.138s-0.138-0.21-0.138-0.354v-2.953c0-0.144 0.046-0.262 0.138-0.354s0.21-0.138 0.354-0.138h4.922c0.144 0 0.262 0.046 0.354 0.138s0.138 0.21 0.138 0.354v2.533zM22.155 23.086c0 0.144-0.046 0.262-0.138 0.354s-0.21 0.138-0.354 0.138h-4.922c-0.144 0-0.262-0.046-0.354-0.138s-0.138-0.21-0.138-0.354v-2.953c0-0.144 0.046-0.262 0.138-0.354s0.21-0.138 0.354-0.138h4.922c0.144 0 0.262 0.046 0.354 0.138s0.138 0.21 0.138 0.354v2.953zM22.155 17.179c0 0.144-0.046 0.262-0.138 0.354s-0.21 0.138-0.354 0.138h-4.922c-0.144 0-0.262-0.046-0.354-0.138s-0.138-0.21-0.138-0.354v-2.953c0-0.144 0.046-0.262 0.138-0.354s0.21-0.138 0.354-0.138h4.922c0.144 0 0.262 0.046 0.354 0.138s0.138 0.21 0.138 0.354v2.953zM30.031 28.993c0 0.143-0.046 0.262-0.138 0.354s-0.21 0.138-0.354 0.138h-4.922c-0.144 0-0.262-0.046-0.354-0.138s-0.138-0.21-0.138-0.354v-2.953c0-0.144 0.046-0.262 0.138-0.354s0.21-0.138 0.354-0.138h4.922c0.144 0 0.262 0.046 0.354 0.138s0.138 0.21 0.138 0.354v2.953zM30.031 23.086c0 0.144-0.046 0.262-0.138 0.354s-0.21 0.138-0.354 0.138h-4.922c-0.144 0-0.262-0.046-0.354-0.138s-0.138-0.21-0.138-0.354v-2.953c0-0.144 0.046-0.262 0.138-0.354s0.21-0.138 0.354-0.138h4.922c0.144 0 0.262 0.046 0.354 0.138s0.138 0.21 0.138 0.354v2.953zM30.031 17.179c0 0.144-0.046 0.262-0.138 0.354s-0.21 0.138-0.354 0.138h-4.922c-0.144 0-0.262-0.046-0.354-0.138s-0.138-0.21-0.138-0.354v-2.953c0-0.144 0.046-0.262 0.138-0.354s0.21-0.138 0.354-0.138h4.922c0.144 0 0.262 0.046 0.354 0.138s0.138 0.21 0.138 0.354v2.953z"></path>
</svg>
