<!-- Generated by IcoMoon.io -->
<svg version="1.1" xmlns="http://www.w3.org/2000/svg" width="32" height="32" viewBox="0 0 32 32">
<title>ogc-csw</title>
<path d="M28.629 11.179c-1.167-0.365-2.35-0.55-3.515-0.55-0.957 0-1.925 0.125-2.887 0.371v-7.904c0-1.999-1.438-3.62-3.212-3.62h-15.764c-1.774-0-3.212 1.62-3.212 3.62v24.714c0 2 1.438 3.62 3.212 3.62h15.764c1.157 0 2.171-0.69 2.737-1.725 1.123-0.317 2.245-0.476 3.362-0.476 2.288 0 4.602 0.669 6.886 1.989v-18.484c-1.121-0.684-2.254-1.207-3.371-1.556zM15.813 27.518l-0.47-0.157c-1.792-0.598-3.371-0.888-4.829-0.888-1.268 0-2.448 0.215-3.607 0.657l-0.484 0.185v-12.973l0.213-0.094c1.307-0.576 2.667-0.869 4.041-0.869 1.79 0 3.557 0.506 4.974 1.424l0.163 0.106v12.61zM17.351 7.404h-12.356c-0.517 0-0.936-0.419-0.936-0.936s0.419-0.936 0.936-0.936h12.356c0.517 0 0.936 0.419 0.936 0.936s-0.42 0.936-0.937 0.936zM29.32 27.281v0l-0.464-0.145c-1.352-0.422-2.614-0.628-3.861-0.628-0.897 0-1.791 0.104-2.769 0.328-0.575 0.132-1.179 0.305-1.828 0.523l-0.471 0.158v-12.627l0.183-0.102c0.723-0.403 1.426-0.72 2.116-0.954 0.985-0.334 1.943-0.499 2.894-0.499 1.302 0 2.606 0.298 3.986 0.91l0.212 0.094v12.94z"></path>
</svg>
