<!-- Generated by IcoMoon.io -->
<svg version="1.1" xmlns="http://www.w3.org/2000/svg" width="32" height="32" viewBox="0 0 32 32">
<title>ogc-sld</title>
<path d="M25.054 14.461c-0.004-0.006-0.008-0.011-0.013-0.017-0.009-0.012-0.018-0.024-0.028-0.036-0.005-0.006-0.010-0.012-0.015-0.018-0.009-0.011-0.018-0.022-0.028-0.033-0.005-0.006-0.010-0.012-0.015-0.017-0.011-0.013-0.022-0.025-0.033-0.037-0.003-0.004-0.007-0.008-0.010-0.011-0.014-0.016-0.029-0.031-0.044-0.047-0.004-0.004-0.008-0.008-0.012-0.012-0.011-0.011-0.022-0.022-0.033-0.033-0.006-0.005-0.011-0.011-0.017-0.016-0.010-0.010-0.020-0.019-0.030-0.028-0.006-0.005-0.012-0.011-0.017-0.016-0.011-0.010-0.021-0.019-0.032-0.029-0.005-0.005-0.010-0.009-0.016-0.014-0.016-0.014-0.032-0.027-0.048-0.040-0.002-0.002-0.005-0.004-0.007-0.005-0.014-0.011-0.028-0.022-0.043-0.033-0.006-0.005-0.012-0.009-0.018-0.013-0.011-0.008-0.022-0.016-0.033-0.024-0.007-0.005-0.013-0.009-0.020-0.014-0.011-0.008-0.022-0.015-0.033-0.022-0.006-0.004-0.013-0.009-0.019-0.013-0.013-0.008-0.026-0.017-0.039-0.025-0.005-0.003-0.009-0.006-0.014-0.009-0.017-0.011-0.035-0.021-0.052-0.031-0.006-0.003-0.012-0.007-0.018-0.010-0.012-0.007-0.024-0.014-0.036-0.020-0.007-0.004-0.014-0.008-0.021-0.012-0.011-0.006-0.023-0.012-0.034-0.018-0.007-0.004-0.015-0.008-0.022-0.011-0.012-0.006-0.024-0.012-0.036-0.018-0.006-0.003-0.013-0.006-0.019-0.009-0.018-0.008-0.036-0.017-0.055-0.025-0.004-0.002-0.009-0.004-0.013-0.006-0.014-0.006-0.029-0.012-0.043-0.018-0.007-0.003-0.015-0.006-0.022-0.009-0.012-0.005-0.024-0.009-0.036-0.014-0.008-0.003-0.016-0.006-0.023-0.009-0.012-0.004-0.024-0.009-0.036-0.013-0.007-0.003-0.015-0.005-0.022-0.008-0.015-0.005-0.029-0.009-0.044-0.014-0.005-0.001-0.009-0.003-0.014-0.004-0.019-0.006-0.038-0.011-0.057-0.016-0.007-0.002-0.014-0.004-0.020-0.005-0.013-0.003-0.026-0.007-0.039-0.010-0.008-0.002-0.016-0.004-0.023-0.006-0.012-0.003-0.025-0.006-0.037-0.008-0.008-0.002-0.015-0.003-0.023-0.005-0.014-0.003-0.027-0.005-0.041-0.008-0.006-0.001-0.013-0.002-0.019-0.004-0.020-0.003-0.040-0.007-0.059-0.010-0.005-0.001-0.010-0.001-0.014-0.002-0.015-0.002-0.031-0.004-0.046-0.006-0.007-0.001-0.015-0.002-0.022-0.003-0.013-0.001-0.026-0.003-0.040-0.004-0.008-0.001-0.015-0.001-0.023-0.002-0.014-0.001-0.027-0.002-0.041-0.003-0.007-0-0.014-0.001-0.021-0.001-0.018-0.001-0.036-0.002-0.053-0.002-0.003-0-0.005-0-0.008-0-0.020-0.001-0.041-0.001-0.061-0.001-0.002 0-0.003-0-0.005-0-0.003 0-0.006 0-0.009 0-0.022 0-0.044 0-0.066 0.001-0.005 0-0.010 0-0.015 0-0.025 0.001-0.049 0.002-0.074 0.004-0.005 0-0.010 0.001-0.015 0.001-0.022 0.002-0.045 0.004-0.067 0.006-0.004 0-0.007 0.001-0.011 0.001s-0.005 0.001-0.008 0.001c-0.022 0.003-0.044 0.006-0.067 0.009-0.005 0.001-0.011 0.002-0.016 0.002-0.024 0.004-0.048 0.008-0.072 0.012-0.001 0-0.003 0-0.004 0.001-0.025 0.005-0.050 0.010-0.075 0.016-0.005 0.001-0.011 0.002-0.016 0.004-0.025 0.006-0.050 0.012-0.075 0.019-0.001 0-0.002 0.001-0.003 0.001-0.024 0.007-0.048 0.014-0.072 0.021-0.005 0.002-0.010 0.003-0.015 0.005-0.024 0.008-0.049 0.016-0.073 0.024-0.003 0.001-0.006 0.002-0.009 0.003-0.022 0.008-0.044 0.016-0.066 0.025-0.005 0.002-0.009 0.004-0.014 0.006-0.024 0.010-0.047 0.019-0.071 0.030-0.004 0.002-0.009 0.004-0.013 0.006-0.021 0.009-0.042 0.019-0.063 0.029-0.004 0.002-0.008 0.004-0.012 0.006-0.023 0.011-0.046 0.023-0.069 0.036-0.005 0.003-0.010 0.005-0.015 0.008-0.021 0.012-0.042 0.023-0.063 0.036-0.003 0.001-0.005 0.003-0.008 0.004-0.023 0.013-0.045 0.027-0.067 0.042-0.005 0.003-0.010 0.007-0.016 0.010-0.022 0.015-0.045 0.030-0.067 0.045-1.023 0.72-1.269 2.134-0.548 3.157 0.013 0.018 0.026 0.036 0.039 0.053 0.004 0.006 0.008 0.011 0.013 0.017 0.009 0.012 0.018 0.024 0.028 0.036 0.005 0.006 0.010 0.012 0.015 0.018 0.009 0.011 0.018 0.022 0.028 0.033 0.005 0.006 0.010 0.012 0.015 0.017 0.011 0.013 0.022 0.025 0.033 0.037 0.003 0.004 0.007 0.008 0.010 0.011 0.014 0.016 0.029 0.031 0.044 0.047 0.004 0.004 0.008 0.008 0.012 0.012 0.011 0.011 0.022 0.023 0.034 0.034 0.005 0.005 0.011 0.011 0.016 0.016 0.010 0.010 0.020 0.019 0.031 0.029 0.006 0.005 0.011 0.011 0.017 0.016 0.011 0.010 0.022 0.019 0.033 0.029 0.005 0.004 0.010 0.009 0.015 0.013 0.016 0.014 0.032 0.027 0.048 0.040 0.002 0.001 0.003 0.002 0.005 0.004 0.015 0.012 0.030 0.024 0.045 0.035 0.006 0.004 0.011 0.008 0.017 0.013 0.011 0.008 0.022 0.017 0.034 0.025 0.006 0.005 0.013 0.009 0.019 0.014 0.011 0.008 0.022 0.016 0.034 0.023 0.006 0.004 0.012 0.008 0.018 0.012 0.014 0.009 0.027 0.018 0.041 0.026 0.004 0.002 0.008 0.005 0.012 0.007 0.017 0.011 0.035 0.022 0.053 0.032 0.005 0.003 0.010 0.006 0.015 0.009 0.013 0.007 0.026 0.015 0.039 0.022 0.007 0.004 0.013 0.007 0.020 0.011 0.012 0.006 0.024 0.013 0.036 0.019 0.007 0.003 0.013 0.007 0.020 0.010 0.013 0.006 0.026 0.013 0.039 0.019 0.006 0.003 0.011 0.006 0.017 0.008 0.018 0.009 0.037 0.017 0.056 0.025 0.003 0.001 0.006 0.002 0.008 0.004 0.016 0.007 0.032 0.014 0.048 0.020 0.006 0.003 0.013 0.005 0.019 0.008 0.013 0.005 0.026 0.010 0.039 0.015 0.007 0.003 0.014 0.005 0.021 0.008 0.013 0.005 0.026 0.009 0.039 0.014 0.007 0.002 0.013 0.005 0.020 0.007 0.016 0.005 0.032 0.010 0.049 0.015 0.003 0.001 0.007 0.002 0.010 0.003 0.020 0.006 0.039 0.011 0.059 0.017 0.006 0.002 0.011 0.003 0.017 0.004 0.014 0.004 0.029 0.007 0.043 0.011 0.007 0.002 0.014 0.003 0.021 0.005 0.013 0.003 0.027 0.006 0.040 0.009 0.007 0.001 0.014 0.003 0.021 0.004 0.015 0.003 0.030 0.006 0.044 0.009 0.005 0.001 0.011 0.002 0.016 0.003 0.020 0.004 0.041 0.007 0.061 0.010 0.003 0 0.006 0.001 0.009 0.001 0.017 0.003 0.035 0.005 0.052 0.007 0.006 0.001 0.013 0.001 0.019 0.002 0.014 0.002 0.028 0.003 0.042 0.004 0.007 0.001 0.014 0.001 0.021 0.002 0.014 0.001 0.029 0.002 0.043 0.003 0.006 0 0.013 0.001 0.019 0.001 0.019 0.001 0.038 0.002 0.057 0.003 0.002 0 0.003 0 0.005 0 0.021 0.001 0.041 0.001 0.062 0.001 0.001 0 0.003 0 0.004 0 0.003 0 0.005-0 0.008-0 0.023-0 0.045-0 0.067-0.001 0.005-0 0.009-0 0.014-0 0.025-0.001 0.050-0.002 0.075-0.004 0.005-0 0.009-0.001 0.014-0.001 0.023-0.002 0.045-0.004 0.068-0.006 0.003-0 0.007-0.001 0.010-0.001 0.025-0.003 0.050-0.006 0.075-0.010 0.005-0.001 0.010-0.002 0.016-0.002 0.024-0.004 0.048-0.008 0.073-0.012 0.001-0 0.002-0 0.003-0.001 0.025-0.005 0.050-0.010 0.075-0.016 0.005-0.001 0.011-0.002 0.016-0.004 0.025-0.006 0.050-0.012 0.075-0.019 0.001-0 0.001-0 0.002-0 0.024-0.007 0.049-0.014 0.073-0.021 0.005-0.002 0.010-0.003 0.015-0.005 0.024-0.008 0.049-0.016 0.073-0.024 0.003-0.001 0.006-0.002 0.009-0.003 0.022-0.008 0.044-0.016 0.066-0.025 0.005-0.002 0.009-0.004 0.014-0.005 0.024-0.010 0.047-0.020 0.071-0.030 0.004-0.002 0.008-0.004 0.013-0.006 0.021-0.009 0.042-0.019 0.063-0.030 0.004-0.002 0.008-0.004 0.012-0.006 0.023-0.011 0.046-0.023 0.069-0.036 0.005-0.003 0.010-0.005 0.015-0.008 0.021-0.012 0.042-0.023 0.063-0.036 0.002-0.001 0.005-0.003 0.007-0.004 0.023-0.013 0.045-0.027 0.067-0.042 0.005-0.003 0.010-0.007 0.015-0.010 0.022-0.015 0.045-0.030 0.067-0.045 1.023-0.721 1.269-2.134 0.548-3.157-0.013-0.018-0.026-0.036-0.039-0.053zM29.109 13.835c-0.039-0.048-0.078-0.096-0.117-0.143-0.012-0.015-0.024-0.029-0.037-0.044-0.028-0.033-0.056-0.066-0.084-0.099-0.014-0.016-0.027-0.032-0.041-0.048-0.029-0.034-0.058-0.067-0.087-0.101-0.012-0.013-0.023-0.026-0.034-0.039-0.040-0.046-0.081-0.092-0.122-0.137-0.005-0.006-0.010-0.011-0.015-0.017-0.036-0.040-0.072-0.079-0.108-0.118-0.013-0.014-0.026-0.028-0.039-0.042-0.029-0.032-0.059-0.063-0.089-0.094-0.014-0.014-0.027-0.029-0.041-0.043-0.032-0.034-0.065-0.067-0.097-0.1-0.010-0.010-0.020-0.021-0.030-0.031-0.043-0.044-0.086-0.087-0.129-0.13-0.007-0.007-0.015-0.014-0.022-0.022-0.036-0.035-0.072-0.071-0.108-0.106-0.013-0.013-0.026-0.025-0.040-0.038-0.032-0.030-0.064-0.061-0.096-0.091-0.013-0.012-0.026-0.025-0.040-0.037-0.038-0.035-0.075-0.070-0.113-0.104-0.007-0.006-0.014-0.012-0.020-0.019-0.045-0.041-0.091-0.082-0.137-0.123-0.009-0.008-0.017-0.015-0.026-0.023-0.037-0.033-0.074-0.065-0.111-0.097-0.013-0.011-0.026-0.022-0.039-0.033-0.035-0.030-0.070-0.059-0.105-0.089-0.012-0.010-0.024-0.020-0.036-0.030-0.045-0.038-0.091-0.075-0.136-0.112-0.001-0.001-0.002-0.001-0.002-0.002-0.048-0.039-0.096-0.078-0.145-0.116-0.009-0.007-0.018-0.014-0.027-0.021-0.039-0.030-0.078-0.061-0.117-0.091-0.012-0.009-0.024-0.019-0.037-0.028-0.038-0.029-0.077-0.059-0.116-0.088-0.010-0.007-0.020-0.015-0.029-0.022-0.098-0.073-0.197-0.145-0.297-0.215-0.009-0.006-0.018-0.012-0.027-0.019-0.041-0.029-0.082-0.057-0.123-0.085-0.011-0.008-0.022-0.015-0.034-0.023-0.043-0.029-0.086-0.058-0.129-0.087-0.007-0.005-0.014-0.009-0.021-0.014-0.102-0.068-0.205-0.134-0.309-0.199-0.009-0.005-0.017-0.011-0.026-0.016-0.043-0.027-0.087-0.054-0.13-0.080-0.010-0.006-0.020-0.012-0.030-0.018-0.048-0.029-0.096-0.058-0.145-0.086-0.003-0.002-0.006-0.004-0.009-0.005-0.106-0.062-0.213-0.123-0.32-0.182-0.008-0.005-0.017-0.009-0.025-0.014-0.046-0.025-0.091-0.050-0.137-0.074-0.008-0.004-0.017-0.009-0.025-0.013-0.109-0.058-0.218-0.114-0.328-0.169-0 0-0 0-0 0-0.053-0.026-0.106-0.053-0.16-0.078-0.008-0.004-0.016-0.008-0.025-0.012-0.048-0.023-0.096-0.046-0.144-0.068-0.007-0.003-0.014-0.006-0.020-0.009-0.111-0.052-0.223-0.102-0.336-0.15-0.002-0.001-0.005-0.002-0.007-0.003-0.052-0.023-0.105-0.045-0.157-0.067-0.008-0.003-0.016-0.007-0.025-0.010-0.050-0.021-0.1-0.041-0.151-0.061-0.005-0.002-0.010-0.004-0.016-0.006-0.113-0.045-0.227-0.089-0.341-0.131-0.005-0.002-0.009-0.003-0.014-0.005-0.051-0.019-0.102-0.037-0.154-0.056-0.008-0.003-0.017-0.006-0.025-0.009-0.052-0.018-0.105-0.036-0.157-0.054-0.003-0.001-0.007-0.002-0.010-0.004-0.115-0.039-0.23-0.076-0.345-0.111-0.007-0.002-0.013-0.004-0.020-0.006-0.044-0.013-0.088-0.027-0.132-0.040v-6.056c0-1.999-1.438-3.62-3.212-3.62h-15.764c-1.774 0-3.212 1.62-3.212 3.62v24.714c0 2 1.438 3.62 3.212 3.62l18.843-0.001c0.009 0 0.018 0 0.027 0 0.044 0.001 0.088 0.001 0.131 0.001 0.007 0 0.015 0 0.022 0s0.014-0 0.021-0c0.026-0 0.052-0 0.077-0 0.017-0 0.033-0 0.049-0 0.027-0 0.054-0.001 0.082-0.001 0.015-0 0.030-0.001 0.045-0.001 0.032-0.001 0.063-0.002 0.095-0.003 0.011-0 0.021-0.001 0.032-0.001 0.042-0.002 0.085-0.003 0.127-0.005 0.006-0 0.012-0.001 0.018-0.001 0.036-0.002 0.072-0.004 0.108-0.006 0.014-0.001 0.028-0.002 0.042-0.003 0.028-0.002 0.056-0.003 0.084-0.005 0.016-0.001 0.032-0.002 0.049-0.004 0.026-0.002 0.051-0.004 0.077-0.006 0.017-0.001 0.034-0.003 0.051-0.004 0.025-0.002 0.050-0.004 0.075-0.007 0.017-0.002 0.035-0.003 0.052-0.005 0.025-0.002 0.049-0.005 0.074-0.007 0.017-0.002 0.035-0.004 0.052-0.006 0.025-0.003 0.049-0.006 0.074-0.008 0.017-0.002 0.034-0.004 0.051-0.006 0.026-0.003 0.051-0.006 0.076-0.010 0.016-0.002 0.032-0.004 0.049-0.006 0.028-0.004 0.055-0.008 0.083-0.012 0.014-0.002 0.028-0.004 0.041-0.006 0.038-0.006 0.076-0.011 0.114-0.017 0.003-0 0.007-0.001 0.010-0.002 0.041-0.007 0.083-0.013 0.124-0.020 0.013-0.002 0.026-0.005 0.039-0.007 0.028-0.005 0.057-0.010 0.085-0.015 0.016-0.003 0.032-0.006 0.048-0.009 0.025-0.005 0.051-0.009 0.076-0.014 0.017-0.003 0.034-0.007 0.051-0.010 0.024-0.005 0.048-0.010 0.072-0.015 0.018-0.004 0.035-0.007 0.053-0.011 0.024-0.005 0.047-0.010 0.071-0.015 0.018-0.004 0.035-0.008 0.053-0.012 0.024-0.005 0.047-0.011 0.071-0.016 0.017-0.004 0.035-0.008 0.052-0.012 0.024-0.006 0.048-0.012 0.073-0.018 0.017-0.004 0.033-0.008 0.050-0.012 0.026-0.006 0.051-0.013 0.077-0.020 0.015-0.004 0.030-0.008 0.046-0.012 0.030-0.008 0.060-0.016 0.090-0.024 0.011-0.003 0.022-0.006 0.032-0.009 0.041-0.011 0.081-0.023 0.121-0.034 0.010-0.003 0.020-0.006 0.029-0.009 0.031-0.009 0.061-0.018 0.092-0.027 0.015-0.005 0.030-0.009 0.045-0.014 0.026-0.008 0.051-0.016 0.076-0.024 0.016-0.005 0.033-0.011 0.049-0.016 0.024-0.008 0.048-0.015 0.072-0.023 0.017-0.006 0.034-0.011 0.051-0.017 0.023-0.008 0.047-0.016 0.070-0.024 0.017-0.006 0.034-0.012 0.051-0.018 0.023-0.008 0.046-0.016 0.069-0.025 0.017-0.006 0.034-0.012 0.051-0.018 0.023-0.009 0.047-0.017 0.070-0.026 0.017-0.006 0.033-0.012 0.050-0.019 0.024-0.009 0.048-0.018 0.073-0.028 0.016-0.006 0.031-0.012 0.047-0.018 0.027-0.010 0.053-0.021 0.079-0.032 0.013-0.005 0.026-0.010 0.039-0.016 0.040-0.016 0.079-0.032 0.118-0.049 0.494-0.209 2.129-0.849 2.031-3.124-0.040-0.945-1.46-3.754-1.426-4.844 0-0.010 0.001-0.021 0.001-0.031 0-0.003 0-0.007 0-0.010 0-0.007 0.001-0.014 0.001-0.022 0-0.004 0-0.008 0.001-0.012 0-0.007 0.001-0.013 0.001-0.020 0-0.004 0-0.008 0.001-0.012 0-0.006 0.001-0.013 0.001-0.020 0-0.004 0.001-0.008 0.001-0.012 0-0.007 0.001-0.014 0.002-0.020 0-0.004 0.001-0.008 0.001-0.012 0.001-0.008 0.001-0.015 0.002-0.023 0-0.003 0.001-0.006 0.001-0.009 0.002-0.021 0.004-0.043 0.006-0.064 0-0.003 0.001-0.006 0.001-0.008 0.001-0.008 0.002-0.016 0.003-0.024 0-0.003 0.001-0.007 0.001-0.010 0.001-0.007 0.002-0.015 0.003-0.022 0-0.004 0.001-0.007 0.001-0.011 0.001-0.007 0.002-0.014 0.003-0.022 0-0.003 0.001-0.007 0.001-0.010 0.001-0.008 0.002-0.015 0.003-0.023 0-0.003 0.001-0.006 0.001-0.009 0.001-0.009 0.003-0.017 0.004-0.026 0-0.002 0.001-0.003 0.001-0.005 0.004-0.021 0.007-0.043 0.011-0.064 0-0.002 0.001-0.003 0.001-0.005 0.002-0.009 0.003-0.018 0.005-0.027 0-0.002 0.001-0.005 0.001-0.007 0.002-0.008 0.003-0.016 0.005-0.024 0.001-0.003 0.001-0.005 0.002-0.008 0.002-0.008 0.003-0.016 0.005-0.023 0.001-0.003 0.001-0.005 0.002-0.008 0.002-0.008 0.004-0.016 0.006-0.024 0-0.002 0.001-0.004 0.001-0.006 0.002-0.010 0.005-0.019 0.007-0.029 0-0 0-0.001 0-0.001 0.005-0.021 0.011-0.042 0.016-0.063 0-0 0-0.001 0-0.001 0.003-0.010 0.005-0.019 0.008-0.029 0-0.002 0.001-0.003 0.001-0.005 0.002-0.008 0.005-0.017 0.007-0.025 0.001-0.002 0.001-0.004 0.002-0.006 0.002-0.008 0.005-0.016 0.007-0.024 0.001-0.002 0.001-0.004 0.002-0.006 0.003-0.008 0.005-0.017 0.008-0.025 0-0.001 0.001-0.003 0.001-0.004 0.013-0.039 0.027-0.077 0.042-0.113 0-0.001 0.001-0.002 0.001-0.003 0.003-0.008 0.007-0.016 0.010-0.024 0.001-0.001 0.001-0.003 0.002-0.004 0.003-0.008 0.007-0.015 0.010-0.023 0.001-0.001 0.001-0.003 0.002-0.004 0.004-0.008 0.007-0.016 0.011-0.023 0-0.001 0.001-0.002 0.001-0.002 0.016-0.035 0.034-0.068 0.052-0.1 0-0.001 0.001-0.002 0.002-0.003 0.004-0.007 0.008-0.014 0.012-0.020 0.001-0.001 0.001-0.002 0.002-0.004 0.004-0.006 0.008-0.013 0.012-0.019 0.001-0.001 0.001-0.002 0.002-0.003 0.004-0.007 0.009-0.013 0.013-0.020 0-0.001 0.001-0.001 0.001-0.002 0.015-0.022 0.030-0.043 0.046-0.063 0.005-0.006 0.010-0.013 0.015-0.019 0.001-0.001 0.002-0.002 0.002-0.003 0.005-0.005 0.009-0.011 0.014-0.016 0.001-0.001 0.002-0.002 0.003-0.003 0.004-0.005 0.009-0.010 0.013-0.014 0.001-0.001 0.002-0.002 0.003-0.003 0.005-0.005 0.009-0.010 0.014-0.014 0.001-0.001 0.002-0.002 0.003-0.002 0.017-0.017 0.035-0.032 0.053-0.046 0.001-0 0.001-0.001 0.002-0.001 0.005-0.004 0.011-0.008 0.016-0.012 0.001-0.001 0.003-0.002 0.004-0.003 0.005-0.003 0.009-0.007 0.014-0.010 0.002-0.001 0.003-0.002 0.005-0.003 0.005-0.003 0.009-0.006 0.014-0.009 0.002-0.001 0.003-0.002 0.005-0.003 0.005-0.003 0.010-0.006 0.015-0.008 0.002-0.001 0.003-0.002 0.005-0.002 0.006-0.003 0.011-0.006 0.017-0.009 0.001-0 0.001-0.001 0.002-0.001 0.013-0.006 0.027-0.012 0.040-0.017 0.001-0.001 0.003-0.001 0.004-0.002 0.005-0.002 0.010-0.004 0.016-0.005 0.002-0.001 0.004-0.001 0.006-0.002 0.005-0.001 0.009-0.003 0.014-0.004 0.002-0.001 0.005-0.001 0.007-0.002 0.005-0.001 0.009-0.002 0.014-0.003 0.003-0.001 0.005-0.001 0.007-0.002 0.005-0.001 0.009-0.002 0.014-0.003 0.002-0 0.005-0.001 0.007-0.001 0.005-0.001 0.010-0.001 0.016-0.002 0.002-0 0.004-0 0.006-0.001 0.007-0.001 0.015-0.001 0.022-0.002 0.001-0 0.002-0 0.003-0 0.006-0 0.013-0 0.019-0s0.012 0 0.018 0c0 0 0.001 0 0.001 0 0.007 0 0.013 0.001 0.020 0.001 0.002 0 0.003 0 0.005 0 0.005 0 0.010 0.001 0.015 0.002 0.002 0 0.004 0.001 0.006 0.001 0.005 0.001 0.009 0.001 0.014 0.002 0.002 0 0.004 0.001 0.007 0.001 0.005 0.001 0.010 0.002 0.015 0.003 0.002 0 0.004 0.001 0.006 0.001 0.005 0.001 0.011 0.002 0.016 0.004 0.002 0 0.003 0.001 0.005 0.001 0.014 0.004 0.029 0.008 0.044 0.012 0.001 0 0.002 0.001 0.003 0.001 0.006 0.002 0.013 0.004 0.019 0.007 0.002 0.001 0.003 0.001 0.005 0.002 0.006 0.002 0.011 0.004 0.017 0.007 0.002 0.001 0.004 0.002 0.006 0.002 0.006 0.002 0.012 0.005 0.017 0.007 0.002 0.001 0.003 0.002 0.005 0.002 0.006 0.003 0.013 0.006 0.020 0.009 0.001 0 0.002 0.001 0.003 0.001 0.016 0.008 0.032 0.016 0.048 0.025 0 0 0.001 0.001 0.001 0.001 0.007 0.004 0.015 0.008 0.022 0.013 0.002 0.001 0.003 0.002 0.005 0.003 0.006 0.004 0.013 0.008 0.019 0.012 0.002 0.001 0.004 0.002 0.005 0.003 0.006 0.004 0.013 0.008 0.020 0.013 0.002 0.001 0.003 0.002 0.005 0.003 0.007 0.005 0.015 0.010 0.022 0.015 0.001 0.001 0.002 0.001 0.002 0.002 0.017 0.012 0.034 0.025 0.051 0.038 0 0 0.001 0.001 0.001 0.001 0.008 0.006 0.016 0.013 0.024 0.019 0.002 0.001 0.003 0.003 0.005 0.004 0.007 0.006 0.014 0.012 0.021 0.017 0.002 0.002 0.004 0.003 0.006 0.005 0.007 0.006 0.014 0.012 0.021 0.018 0.002 0.002 0.003 0.003 0.005 0.005 0.008 0.007 0.016 0.014 0.024 0.021 0.001 0.001 0.002 0.001 0.002 0.002 0.018 0.017 0.036 0.034 0.055 0.052 0 0 0.001 0.001 0.001 0.001 0.008 0.008 0.017 0.017 0.025 0.025 0.002 0.002 0.004 0.004 0.005 0.006 0.007 0.007 0.015 0.015 0.022 0.023 0.002 0.002 0.004 0.005 0.006 0.007 0.007 0.008 0.014 0.015 0.022 0.023 0.002 0.002 0.004 0.004 0.006 0.007 0.008 0.009 0.016 0.018 0.024 0.027 0.001 0.001 0.002 0.003 0.003 0.004 0.019 0.021 0.038 0.044 0.058 0.067 0.001 0.001 0.002 0.002 0.003 0.004 0.008 0.010 0.017 0.020 0.025 0.030 0.002 0.003 0.005 0.006 0.007 0.008 0.007 0.009 0.015 0.018 0.022 0.027 0.003 0.003 0.005 0.006 0.008 0.010 0.007 0.009 0.015 0.018 0.022 0.028 0.003 0.003 0.005 0.006 0.007 0.010 0.008 0.010 0.016 0.021 0.024 0.032 0.002 0.002 0.003 0.004 0.005 0.007 0.020 0.026 0.040 0.053 0.060 0.082 0.002 0.003 0.004 0.005 0.006 0.008 0.008 0.011 0.016 0.023 0.024 0.034 0.003 0.004 0.006 0.008 0.009 0.012 0.007 0.010 0.014 0.021 0.022 0.031 0.003 0.005 0.006 0.009 0.010 0.014 0.007 0.010 0.014 0.021 0.021 0.032 0.003 0.005 0.006 0.009 0.009 0.014 0.008 0.012 0.016 0.023 0.023 0.035 0.002 0.004 0.005 0.007 0.007 0.011 0.021 0.031 0.041 0.064 0.063 0.097 0.003 0.004 0.005 0.009 0.008 0.013 0.008 0.012 0.015 0.025 0.023 0.037 0.004 0.006 0.007 0.011 0.011 0.017 0.007 0.011 0.014 0.023 0.021 0.034 0.004 0.006 0.008 0.012 0.011 0.019 0.007 0.012 0.014 0.023 0.021 0.035 0.004 0.006 0.007 0.012 0.011 0.018 0.008 0.013 0.015 0.026 0.023 0.039 0.003 0.005 0.006 0.010 0.009 0.015 0.022 0.037 0.043 0.075 0.065 0.113 0.003 0.006 0.007 0.012 0.010 0.017 0.008 0.014 0.015 0.027 0.023 0.041 0.004 0.007 0.008 0.015 0.012 0.022 0.007 0.013 0.014 0.025 0.021 0.038 0.004 0.008 0.009 0.016 0.013 0.024 0.007 0.013 0.014 0.026 0.021 0.039 0.004 0.008 0.008 0.015 0.013 0.023 0.008 0.014 0.015 0.029 0.023 0.043 0.004 0.007 0.007 0.013 0.011 0.020 0.011 0.021 0.023 0.043 0.034 0.064 0.010 0.019 0.020 0.038 0.031 0.057 0.002 0.004 0.005 0.008 0.007 0.013 0.010 0.018 0.020 0.036 0.031 0.054 0.001 0.002 0.003 0.004 0.004 0.007 0.009 0.016 0.019 0.032 0.028 0.048 0.002 0.003 0.004 0.007 0.006 0.010 0.010 0.017 0.021 0.033 0.031 0.050 0.002 0.003 0.004 0.006 0.006 0.009 0.010 0.015 0.019 0.029 0.029 0.044 0.002 0.002 0.003 0.005 0.005 0.007 0.011 0.016 0.021 0.031 0.032 0.046 0.002 0.003 0.004 0.006 0.007 0.009 0.011 0.015 0.021 0.029 0.032 0.043 0 0 0.001 0.001 0.001 0.001 0.011 0.015 0.022 0.029 0.034 0.043 0.002 0.003 0.004 0.005 0.006 0.008 0.011 0.014 0.023 0.027 0.034 0.040 0 0.001 0.001 0.001 0.001 0.002 0.011 0.013 0.022 0.025 0.033 0.037 0.002 0.002 0.004 0.004 0.006 0.006 0.011 0.012 0.023 0.024 0.034 0.036 0.001 0.001 0.003 0.003 0.004 0.004 0.011 0.011 0.022 0.022 0.032 0.032 0.001 0.001 0.003 0.003 0.004 0.004 0.012 0.011 0.023 0.022 0.035 0.032 0.002 0.002 0.004 0.003 0.005 0.005 0.012 0.010 0.023 0.020 0.035 0.030 0 0 0.001 0.001 0.001 0.001 0.012 0.010 0.024 0.020 0.036 0.029 0.002 0.001 0.004 0.003 0.006 0.004 0.024 0.019 0.048 0.036 0.072 0.052 0.002 0.001 0.004 0.003 0.006 0.004 0.012 0.008 0.024 0.016 0.036 0.023 0.001 0.001 0.002 0.001 0.003 0.002 0.011 0.007 0.023 0.014 0.034 0.020 0.002 0.001 0.003 0.002 0.005 0.003 0.012 0.007 0.024 0.013 0.036 0.020 0.002 0.001 0.003 0.002 0.005 0.003 0.011 0.006 0.023 0.012 0.034 0.017 0.001 0 0.002 0.001 0.003 0.001 0.012 0.006 0.024 0.011 0.036 0.016 0.002 0.001 0.004 0.002 0.006 0.003 0.024 0.010 0.048 0.019 0.072 0.027 0.002 0.001 0.004 0.001 0.007 0.002 0.012 0.004 0.024 0.008 0.036 0.011 0.001 0 0.002 0 0.003 0.001 0.011 0.003 0.022 0.006 0.033 0.009 0.002 0.001 0.004 0.001 0.006 0.002 0.012 0.003 0.023 0.005 0.035 0.008 0.002 0 0.004 0.001 0.006 0.001 0.011 0.002 0.021 0.004 0.032 0.006 0.002 0 0.004 0.001 0.005 0.001 0.012 0.002 0.023 0.003 0.034 0.005 0.002 0 0.005 0.001 0.007 0.001 0.011 0.001 0.022 0.002 0.033 0.003 0.001 0 0.002 0 0.003 0 0.012 0.001 0.023 0.002 0.034 0.002 0.003 0 0.005 0 0.008 0 0.011 0 0.023 0.001 0.034 0.001 0 0 0 0 0.001 0s0.001-0 0.001-0c0.019-0 0.038-0.001 0.057-0.002 0.002-0 0.003-0 0.005-0 0.019-0.001 0.037-0.003 0.056-0.005 0-0 0.001-0 0.001-0 0.019-0.002 0.038-0.005 0.056-0.008 0.002-0 0.003-0.001 0.005-0.001 0.018-0.003 0.036-0.007 0.053-0.011 0.001-0 0.002-0 0.004-0.001 0.018-0.004 0.037-0.009 0.055-0.014 0.001-0 0.003-0.001 0.004-0.001 0.017-0.005 0.034-0.010 0.051-0.016 0.002-0.001 0.003-0.001 0.005-0.002 0.018-0.006 0.035-0.013 0.053-0.020 0.001-0 0.002-0.001 0.003-0.001 0.017-0.007 0.034-0.014 0.050-0.021 0.002-0.001 0.004-0.002 0.006-0.003 0.017-0.008 0.033-0.016 0.050-0.024 0.001-0 0.002-0.001 0.002-0.001 0.017-0.009 0.033-0.017 0.049-0.027 0.002-0.001 0.004-0.002 0.006-0.003 0.016-0.009 0.031-0.018 0.046-0.027 0.001-0.001 0.003-0.002 0.004-0.003 0.016-0.010 0.032-0.020 0.047-0.031 0.002-0.001 0.004-0.003 0.005-0.004 0.015-0.010 0.029-0.020 0.043-0.031 0.002-0.001 0.004-0.003 0.005-0.004 0.015-0.011 0.030-0.023 0.044-0.034 0.001-0.001 0.003-0.002 0.004-0.004 0.014-0.011 0.027-0.022 0.041-0.034 0.002-0.002 0.004-0.003 0.006-0.005 0.014-0.012 0.028-0.024 0.041-0.037 0.001-0.001 0.002-0.002 0.003-0.003 0.013-0.012 0.026-0.025 0.039-0.038 0.002-0.002 0.004-0.004 0.005-0.006 0.012-0.013 0.025-0.025 0.037-0.038 0.001-0.001 0.002-0.002 0.003-0.004 0.013-0.014 0.025-0.027 0.037-0.041 0.002-0.002 0.003-0.004 0.005-0.006 0.011-0.013 0.022-0.026 0.033-0.040 0.001-0.002 0.003-0.003 0.004-0.005 0.012-0.014 0.023-0.029 0.034-0.043 0.001-0.002 0.002-0.003 0.003-0.005 0.010-0.014 0.020-0.028 0.030-0.042 0.001-0.002 0.003-0.004 0.004-0.005 0.010-0.015 0.020-0.030 0.030-0.045 0.001-0.001 0.001-0.002 0.002-0.003 0.009-0.015 0.019-0.030 0.028-0.044 0.001-0.002 0.002-0.004 0.003-0.006 0.009-0.015 0.018-0.030 0.026-0.046 0-0.001 0.001-0.002 0.001-0.002 0.009-0.016 0.017-0.031 0.025-0.047 0.001-0.002 0.002-0.003 0.003-0.005 0.007-0.015 0.015-0.030 0.022-0.046 0-0.001 0.001-0.002 0.002-0.003 0.007-0.016 0.014-0.032 0.020-0.048 0.001-0.001 0.001-0.003 0.002-0.004 0.006-0.015 0.012-0.031 0.017-0.046 0-0.001 0.001-0.003 0.001-0.004 0.006-0.016 0.011-0.032 0.016-0.048 0-0.001 0-0.002 0.001-0.002 0.005-0.016 0.009-0.031 0.013-0.046 0-0.001 0.001-0.003 0.001-0.004 0.004-0.016 0.008-0.032 0.011-0.048 0.525-2.625-0.255-5.773-2.736-8.858zM4.019 6.491c0-0.517 0.419-0.936 0.936-0.936h12.356c0.517 0 0.936 0.419 0.936 0.936s-0.42 0.936-0.937 0.936h-12.356c-0.517-0-0.936-0.419-0.936-0.936zM30.794 22.481c-0.007 0.027-0.047 0.108-0.125 0.185-0.055 0.055-0.106 0.085-0.134 0.096-0.038-0.026-0.145-0.116-0.279-0.373-0.366-0.7-0.715-1.218-1.065-1.585-0.454-0.474-0.941-0.714-1.447-0.714-0 0-0 0-0 0-1.060 0-1.803 1.023-1.85 2.545-0.023 0.746 0.319 1.723 0.844 3.128 0.16 0.427 0.31 0.831 0.422 1.176 0.149 0.457 0.16 0.603 0.16 0.619 0.028 0.659-0.127 1.158-0.474 1.525-0.291 0.308-0.654 0.46-0.871 0.552l-0.032 0.013c-1.158 0.487-2.406 0.734-3.709 0.734-3.359 0-6.913-1.639-9.751-4.497-0.545-0.549-1.029-1.164-1.439-1.828-0.398-0.645-0.728-1.338-0.98-2.060-0.494-1.413-0.687-2.929-0.559-4.386 0.055-0.622 0.168-1.233 0.336-1.815 0.17-0.588 0.398-1.151 0.676-1.672 0.582-1.089 1.376-1.992 2.361-2.686 1.604-1.13 3.564-1.727 5.666-1.727 1.763 0 3.576 0.425 5.243 1.228 0.851 0.41 1.659 0.916 2.404 1.503 0.767 0.606 1.468 1.3 2.082 2.063 1.109 1.379 1.884 2.802 2.302 4.231 0.193 0.658 0.308 1.316 0.342 1.955 0.033 0.613-0.009 1.215-0.123 1.789zM17.865 12.64c-0.013-0.018-0.026-0.036-0.039-0.053-0.004-0.006-0.008-0.011-0.013-0.016-0.009-0.012-0.018-0.024-0.028-0.036-0.005-0.006-0.010-0.012-0.015-0.018-0.009-0.011-0.018-0.022-0.028-0.034-0.005-0.006-0.010-0.012-0.015-0.017-0.011-0.013-0.022-0.025-0.033-0.037-0.003-0.004-0.007-0.008-0.010-0.011-0.014-0.016-0.029-0.031-0.044-0.047-0.004-0.004-0.008-0.008-0.012-0.012-0.011-0.011-0.022-0.022-0.033-0.033-0.006-0.005-0.011-0.011-0.017-0.016-0.002-0.002-0.004-0.003-0.005-0.005-0.004-0.005-0.009-0.009-0.013-0.014s-0.007-0.007-0.011-0.011c-0.010-0.010-0.020-0.020-0.029-0.030-0.005-0.005-0.010-0.009-0.015-0.014-0.009-0.008-0.018-0.017-0.027-0.025-0.005-0.005-0.010-0.010-0.015-0.014-0.009-0.008-0.019-0.017-0.028-0.025-0.005-0.004-0.009-0.008-0.014-0.012-0.014-0.012-0.028-0.024-0.042-0.035-0.002-0.002-0.004-0.003-0.006-0.005-0.012-0.010-0.025-0.020-0.037-0.029-0.005-0.004-0.011-0.008-0.016-0.012-0.010-0.007-0.019-0.014-0.029-0.021-0.006-0.004-0.012-0.008-0.018-0.013-0.009-0.007-0.019-0.013-0.028-0.020-0.006-0.004-0.012-0.008-0.018-0.012-0.011-0.007-0.022-0.014-0.033-0.021-0.004-0.003-0.009-0.006-0.013-0.008-0.015-0.009-0.030-0.019-0.046-0.028-0.005-0.003-0.011-0.006-0.016-0.009-0.010-0.006-0.021-0.012-0.031-0.018-0.007-0.004-0.013-0.007-0.020-0.011-0.010-0.005-0.019-0.010-0.029-0.015-0.007-0.003-0.013-0.007-0.020-0.010-0.010-0.005-0.020-0.010-0.031-0.015-0.006-0.003-0.012-0.006-0.018-0.009-0.016-0.007-0.032-0.015-0.048-0.022-0.004-0.002-0.009-0.004-0.014-0.006-0.012-0.005-0.024-0.010-0.036-0.015-0.007-0.003-0.014-0.005-0.020-0.008-0.010-0.004-0.020-0.008-0.030-0.012-0.007-0.003-0.014-0.005-0.022-0.008-0.010-0.004-0.020-0.007-0.031-0.011-0.007-0.002-0.014-0.005-0.021-0.007-0.012-0.004-0.025-0.008-0.037-0.012-0.005-0.002-0.010-0.003-0.015-0.005-0.017-0.005-0.033-0.010-0.050-0.014-0.006-0.002-0.013-0.003-0.019-0.005-0.011-0.003-0.022-0.006-0.033-0.008-0.007-0.002-0.014-0.003-0.022-0.005-0.011-0.002-0.021-0.005-0.032-0.007-0.007-0.002-0.014-0.003-0.021-0.005-0.012-0.002-0.023-0.005-0.035-0.007-0.006-0.001-0.012-0.002-0.018-0.003-0.017-0.003-0.035-0.006-0.052-0.008-0.004-0.001-0.009-0.001-0.013-0.002-0.013-0.002-0.027-0.004-0.040-0.005-0.007-0.001-0.013-0.002-0.020-0.002-0.012-0.001-0.023-0.002-0.035-0.004-0.007-0.001-0.014-0.001-0.021-0.002-0.012-0.001-0.024-0.002-0.035-0.003-0.006-0-0.013-0.001-0.019-0.001-0.015-0.001-0.031-0.002-0.046-0.002-0.003-0-0.005-0-0.008-0-0.018-0.001-0.036-0.001-0.054-0.001-0.001 0-0.003-0-0.004-0-0.003 0-0.005 0-0.008 0-0.013 0-0.027 0-0.040 0.001-0.019-0.001-0.038-0.001-0.057-0.001-0.002 0-0.003-0-0.005-0-0.003 0-0.006 0-0.009 0-0.022 0-0.044 0-0.066 0.001-0.005 0-0.010 0-0.015 0-0.025 0.001-0.049 0.002-0.074 0.004-0.005 0-0.010 0.001-0.015 0.001-0.022 0.002-0.045 0.004-0.067 0.006-0.004 0-0.007 0.001-0.011 0.001-0.025 0.003-0.050 0.006-0.075 0.010-0.005 0.001-0.011 0.002-0.016 0.002-0.024 0.004-0.048 0.008-0.072 0.012-0.001 0-0.002 0-0.003 0.001-0.025 0.005-0.050 0.010-0.075 0.016-0.005 0.001-0.011 0.002-0.016 0.004-0.025 0.006-0.050 0.012-0.075 0.019-0.001 0-0.001 0-0.002 0.001-0.024 0.007-0.048 0.014-0.072 0.021-0.005 0.002-0.010 0.003-0.015 0.005-0.024 0.008-0.049 0.016-0.073 0.024-0.003 0.001-0.006 0.002-0.009 0.003-0.022 0.008-0.044 0.016-0.066 0.025-0.005 0.002-0.009 0.004-0.014 0.005-0.024 0.010-0.047 0.020-0.071 0.030-0.004 0.002-0.009 0.004-0.013 0.006-0.021 0.009-0.042 0.019-0.063 0.029-0.004 0.002-0.008 0.004-0.012 0.006-0.023 0.011-0.046 0.023-0.069 0.036-0.005 0.003-0.010 0.005-0.015 0.008-0.021 0.012-0.042 0.023-0.063 0.036-0.003 0.002-0.005 0.003-0.008 0.004-0.023 0.013-0.045 0.027-0.067 0.042-0.005 0.003-0.010 0.007-0.016 0.010-0.022 0.015-0.045 0.030-0.067 0.045-1.024 0.721-1.269 2.134-0.548 3.157 0.013 0.018 0.026 0.036 0.039 0.053 0.004 0.006 0.008 0.011 0.013 0.017 0.009 0.012 0.018 0.024 0.028 0.036 0.005 0.006 0.010 0.012 0.015 0.018 0.009 0.011 0.018 0.022 0.028 0.033 0.005 0.006 0.010 0.012 0.015 0.017 0.011 0.013 0.022 0.025 0.033 0.037 0.003 0.004 0.007 0.008 0.010 0.011 0.014 0.016 0.029 0.031 0.044 0.047 0.004 0.004 0.008 0.008 0.012 0.012 0.011 0.011 0.022 0.022 0.033 0.033 0.005 0.005 0.011 0.011 0.017 0.016 0.010 0.010 0.020 0.019 0.030 0.029 0.006 0.005 0.012 0.011 0.017 0.016 0.011 0.010 0.021 0.019 0.032 0.029 0.005 0.005 0.010 0.009 0.016 0.014 0.016 0.014 0.032 0.027 0.048 0.040 0.002 0.002 0.004 0.003 0.006 0.005 0.014 0.011 0.029 0.023 0.043 0.034 0.006 0.004 0.012 0.009 0.018 0.013 0.011 0.008 0.022 0.016 0.033 0.024 0.006 0.005 0.013 0.009 0.020 0.014 0.011 0.008 0.022 0.015 0.033 0.023 0.006 0.004 0.013 0.009 0.019 0.013 0.013 0.009 0.026 0.017 0.040 0.026 0.004 0.003 0.009 0.006 0.013 0.008 0.017 0.011 0.035 0.021 0.052 0.032 0.005 0.003 0.011 0.006 0.017 0.010 0.012 0.007 0.025 0.014 0.037 0.021 0.007 0.004 0.014 0.008 0.021 0.011 0.012 0.006 0.023 0.012 0.035 0.018 0.007 0.004 0.014 0.007 0.021 0.011 0.012 0.006 0.025 0.012 0.037 0.018 0.006 0.003 0.012 0.006 0.018 0.009 0.018 0.009 0.037 0.017 0.055 0.025 0.004 0.002 0.007 0.003 0.011 0.005 0.015 0.007 0.031 0.013 0.046 0.019 0.007 0.003 0.014 0.005 0.020 0.008 0.012 0.005 0.025 0.010 0.037 0.014 0.007 0.003 0.015 0.005 0.022 0.008 0.013 0.005 0.025 0.009 0.038 0.013 0.007 0.002 0.014 0.005 0.021 0.007 0.016 0.005 0.031 0.010 0.047 0.015 0.004 0.001 0.008 0.002 0.011 0.004 0.019 0.006 0.039 0.011 0.058 0.017 0.006 0.002 0.012 0.003 0.018 0.005 0.014 0.004 0.028 0.007 0.042 0.011 0.007 0.002 0.015 0.003 0.022 0.005 0.013 0.003 0.026 0.006 0.039 0.009 0.007 0.002 0.014 0.003 0.022 0.005 0.014 0.003 0.029 0.006 0.043 0.008 0.006 0.001 0.012 0.002 0.017 0.003 0.020 0.003 0.040 0.007 0.060 0.010 0.004 0.001 0.007 0.001 0.011 0.002 0.017 0.002 0.033 0.005 0.050 0.007 0.007 0.001 0.014 0.002 0.020 0.002 0.014 0.002 0.028 0.003 0.041 0.004 0.007 0.001 0.015 0.001 0.022 0.002 0.014 0.001 0.028 0.002 0.042 0.003 0.007 0 0.013 0.001 0.020 0.001 0.018 0.001 0.037 0.002 0.055 0.002 0.002 0 0.004 0 0.006 0 0.020 0.001 0.041 0.001 0.062 0.001 0.001 0 0.003 0 0.004 0 0.003 0 0.006-0 0.009-0 0.022-0 0.044-0 0.066-0.001 0.005-0 0.010-0 0.015-0 0.025-0.001 0.049-0.002 0.074-0.004 0.005-0 0.010-0.001 0.015-0.001 0.022-0.002 0.045-0.004 0.067-0.006 0.004-0 0.007-0.001 0.011-0.001 0.025-0.003 0.049-0.006 0.074-0.010 0.005-0.001 0.011-0.002 0.016-0.003 0.024-0.004 0.047-0.008 0.071-0.012 0.002-0 0.003-0.001 0.005-0.001 0.025-0.005 0.050-0.010 0.074-0.016 0.006-0.001 0.011-0.003 0.017-0.004 0.025-0.006 0.049-0.012 0.074-0.018 0.001-0 0.002-0.001 0.003-0.001 0.024-0.006 0.047-0.013 0.071-0.021 0.005-0.002 0.011-0.003 0.016-0.005 0.024-0.008 0.048-0.016 0.072-0.024 0.003-0.001 0.007-0.002 0.010-0.004 0.022-0.008 0.043-0.016 0.065-0.024 0.005-0.002 0.010-0.004 0.015-0.006 0.024-0.009 0.047-0.019 0.070-0.030 0.005-0.002 0.009-0.004 0.014-0.006 0.021-0.009 0.041-0.019 0.062-0.029 0.004-0.002 0.008-0.004 0.012-0.006 0.023-0.011 0.046-0.023 0.069-0.035 0.005-0.003 0.010-0.006 0.015-0.008 0.021-0.011 0.042-0.023 0.062-0.035 0.003-0.002 0.005-0.003 0.008-0.005 0.023-0.013 0.045-0.027 0.067-0.042 0.005-0.003 0.010-0.007 0.016-0.010 0.022-0.015 0.045-0.030 0.067-0.045 1.023-0.72 1.268-2.133 0.548-3.157zM21.769 24.516c-0.004-0.006-0.008-0.011-0.013-0.017-0.009-0.012-0.018-0.024-0.028-0.036-0.005-0.006-0.010-0.012-0.015-0.018-0.009-0.011-0.018-0.022-0.028-0.033-0.005-0.006-0.010-0.012-0.015-0.017-0.011-0.013-0.022-0.025-0.033-0.037-0.003-0.004-0.007-0.008-0.010-0.012-0.014-0.016-0.029-0.031-0.044-0.047-0.004-0.004-0.008-0.008-0.012-0.012-0.011-0.011-0.022-0.022-0.033-0.033-0.006-0.005-0.011-0.011-0.017-0.016-0.010-0.010-0.020-0.019-0.030-0.028-0.006-0.005-0.012-0.011-0.018-0.016-0.011-0.010-0.021-0.019-0.032-0.028-0.005-0.005-0.011-0.009-0.016-0.014-0.016-0.013-0.032-0.027-0.048-0.040-0.002-0.002-0.005-0.004-0.007-0.006-0.014-0.011-0.028-0.022-0.042-0.033-0.006-0.005-0.012-0.009-0.018-0.014-0.011-0.008-0.021-0.016-0.032-0.024-0.007-0.005-0.013-0.010-0.020-0.014-0.011-0.007-0.021-0.015-0.032-0.022-0.007-0.005-0.013-0.009-0.020-0.013-0.012-0.008-0.025-0.016-0.038-0.024-0.005-0.003-0.010-0.006-0.015-0.009-0.017-0.011-0.034-0.021-0.052-0.031-0.006-0.004-0.012-0.007-0.018-0.011-0.012-0.007-0.024-0.013-0.035-0.020-0.007-0.004-0.015-0.008-0.022-0.012-0.011-0.006-0.022-0.012-0.033-0.017-0.008-0.004-0.015-0.008-0.023-0.012-0.012-0.006-0.023-0.012-0.035-0.017-0.007-0.003-0.014-0.007-0.020-0.010-0.018-0.008-0.036-0.017-0.054-0.025-0.005-0.002-0.010-0.004-0.015-0.006-0.014-0.006-0.028-0.012-0.041-0.017-0.008-0.003-0.015-0.006-0.023-0.009-0.012-0.005-0.023-0.009-0.035-0.013-0.008-0.003-0.016-0.006-0.024-0.009-0.012-0.004-0.023-0.008-0.035-0.012-0.008-0.003-0.016-0.005-0.023-0.008-0.014-0.005-0.028-0.009-0.042-0.013-0.006-0.002-0.011-0.004-0.017-0.005-0.019-0.006-0.038-0.011-0.057-0.016-0.007-0.002-0.014-0.004-0.021-0.006-0.013-0.003-0.025-0.007-0.038-0.010-0.008-0.002-0.016-0.004-0.024-0.006-0.012-0.003-0.024-0.005-0.036-0.008-0.008-0.002-0.016-0.003-0.024-0.005-0.013-0.003-0.026-0.005-0.039-0.008-0.007-0.001-0.014-0.003-0.021-0.004-0.020-0.003-0.039-0.007-0.059-0.010-0.005-0.001-0.010-0.001-0.015-0.002-0.015-0.002-0.030-0.004-0.046-0.006-0.008-0.001-0.015-0.002-0.023-0.003-0.013-0.001-0.026-0.003-0.039-0.004-0.008-0.001-0.016-0.001-0.023-0.002-0.013-0.001-0.027-0.002-0.040-0.003-0.007-0-0.014-0.001-0.021-0.001-0.018-0.001-0.035-0.002-0.053-0.002-0.003-0-0.005-0-0.008-0-0.020-0.001-0.041-0.001-0.061-0.001-0.002 0-0.003-0-0.004-0-0.003 0-0.006 0-0.009 0-0.022 0-0.044 0.001-0.066 0.001-0.005 0-0.010 0-0.014 0-0.025 0.001-0.050 0.002-0.074 0.004-0.005 0-0.010 0.001-0.015 0.001-0.023 0.002-0.045 0.004-0.068 0.006-0.003 0-0.007 0.001-0.010 0.001-0.025 0.003-0.050 0.006-0.075 0.010-0.005 0.001-0.010 0.002-0.015 0.002-0.024 0.004-0.049 0.008-0.073 0.012-0.001 0-0.002 0-0.003 0.001-0.025 0.005-0.050 0.010-0.075 0.016-0.005 0.001-0.010 0.002-0.015 0.004-0.025 0.006-0.050 0.012-0.075 0.019-0 0-0.001 0-0.001 0-0.024 0.007-0.049 0.014-0.073 0.021-0.005 0.002-0.010 0.003-0.015 0.005-0.024 0.008-0.049 0.016-0.073 0.024-0.003 0.001-0.006 0.002-0.009 0.003-0.022 0.008-0.044 0.016-0.067 0.025-0.005 0.002-0.009 0.004-0.014 0.005-0.024 0.010-0.048 0.020-0.071 0.030-0.004 0.002-0.008 0.004-0.013 0.006-0.021 0.009-0.042 0.019-0.063 0.030-0.004 0.002-0.008 0.004-0.011 0.006-0.023 0.011-0.046 0.023-0.069 0.036-0.005 0.003-0.010 0.005-0.015 0.008-0.021 0.012-0.042 0.023-0.063 0.036-0.003 0.001-0.005 0.003-0.007 0.004-0.023 0.013-0.045 0.027-0.067 0.042-0.005 0.003-0.010 0.007-0.016 0.010-0.022 0.015-0.045 0.030-0.067 0.045-1.023 0.72-1.268 2.134-0.547 3.158 0.013 0.018 0.026 0.036 0.039 0.053 0.004 0.006 0.008 0.011 0.013 0.017 0.009 0.012 0.018 0.024 0.028 0.036 0.005 0.006 0.010 0.012 0.015 0.018 0.009 0.011 0.018 0.022 0.028 0.033 0.005 0.006 0.010 0.012 0.015 0.017 0.011 0.013 0.022 0.025 0.033 0.037 0.003 0.004 0.007 0.008 0.010 0.012 0.014 0.016 0.029 0.031 0.044 0.047 0.004 0.004 0.008 0.008 0.012 0.012 0.011 0.011 0.022 0.022 0.033 0.033 0.006 0.006 0.011 0.011 0.017 0.016 0.010 0.009 0.020 0.019 0.030 0.028 0.006 0.006 0.012 0.011 0.018 0.016 0.010 0.009 0.021 0.019 0.032 0.028 0.005 0.005 0.011 0.009 0.016 0.014 0.016 0.013 0.032 0.027 0.048 0.040 0.003 0.002 0.005 0.004 0.008 0.006 0.014 0.011 0.028 0.022 0.042 0.033 0.006 0.005 0.012 0.009 0.018 0.014 0.011 0.008 0.021 0.016 0.032 0.024 0.007 0.005 0.014 0.010 0.020 0.014 0.011 0.008 0.021 0.015 0.032 0.022 0.007 0.004 0.013 0.009 0.020 0.013 0.012 0.008 0.025 0.016 0.038 0.024 0.005 0.003 0.010 0.006 0.015 0.009 0.017 0.011 0.034 0.021 0.052 0.031 0.006 0.004 0.012 0.007 0.018 0.010 0.012 0.007 0.024 0.014 0.036 0.020 0.007 0.004 0.015 0.008 0.022 0.012 0.011 0.006 0.022 0.012 0.033 0.017 0.007 0.004 0.015 0.008 0.022 0.011 0.012 0.006 0.024 0.012 0.036 0.017 0.007 0.003 0.013 0.006 0.020 0.010 0.018 0.008 0.036 0.017 0.054 0.025 0.005 0.002 0.009 0.004 0.014 0.006 0.014 0.006 0.029 0.012 0.043 0.018 0.007 0.003 0.015 0.006 0.022 0.009 0.012 0.005 0.024 0.009 0.036 0.014 0.008 0.003 0.016 0.006 0.023 0.009 0.012 0.004 0.024 0.009 0.036 0.013 0.007 0.003 0.015 0.005 0.022 0.008 0.015 0.005 0.029 0.009 0.044 0.014 0.005 0.001 0.010 0.003 0.015 0.005 0.019 0.006 0.038 0.011 0.058 0.016 0.007 0.002 0.013 0.003 0.020 0.005 0.013 0.003 0.026 0.007 0.040 0.010 0.008 0.002 0.015 0.004 0.023 0.005 0.013 0.003 0.025 0.006 0.038 0.008 0.008 0.002 0.015 0.003 0.023 0.005 0.014 0.003 0.028 0.005 0.041 0.008 0.006 0.001 0.013 0.002 0.019 0.003 0.020 0.003 0.040 0.007 0.060 0.010 0.004 0.001 0.009 0.001 0.013 0.002 0.016 0.002 0.032 0.004 0.048 0.006 0.007 0.001 0.014 0.002 0.021 0.002 0.013 0.002 0.027 0.003 0.040 0.004 0.008 0.001 0.015 0.001 0.023 0.002 0.014 0.001 0.027 0.002 0.041 0.003 0.007 0 0.014 0.001 0.021 0.001 0.018 0.001 0.035 0.002 0.053 0.002 0.003 0 0.005 0 0.008 0 0.020 0.001 0.041 0.001 0.061 0.001 0.002 0 0.003 0 0.005 0 0.003 0 0.006-0 0.009-0 0.022-0 0.044-0 0.065-0.001 0.005-0 0.010-0 0.015-0 0.025-0.001 0.049-0.002 0.074-0.004 0.005-0 0.010-0.001 0.016-0.001 0.022-0.002 0.044-0.004 0.066-0.006 0.004-0 0.008-0.001 0.011-0.001 0.025-0.003 0.049-0.006 0.074-0.010 0.006-0.001 0.011-0.002 0.016-0.003 0.024-0.004 0.047-0.008 0.071-0.012 0.002-0 0.003-0.001 0.005-0.001 0.025-0.005 0.050-0.010 0.075-0.016 0.006-0.001 0.011-0.002 0.016-0.004 0.025-0.006 0.050-0.012 0.074-0.019 0.001-0 0.002-0.001 0.003-0.001 0.024-0.006 0.048-0.014 0.072-0.021 0.005-0.002 0.010-0.003 0.016-0.005 0.024-0.008 0.049-0.016 0.073-0.024 0.003-0.001 0.006-0.002 0.009-0.003 0.022-0.008 0.044-0.016 0.066-0.025 0.005-0.002 0.009-0.004 0.014-0.006 0.024-0.010 0.047-0.019 0.071-0.030 0.004-0.002 0.009-0.004 0.013-0.006 0.021-0.009 0.042-0.019 0.063-0.029 0.004-0.002 0.008-0.004 0.012-0.006 0.023-0.011 0.046-0.023 0.069-0.036 0.005-0.003 0.010-0.005 0.015-0.008 0.021-0.012 0.042-0.023 0.063-0.036 0.002-0.001 0.005-0.003 0.007-0.004 0.023-0.013 0.045-0.027 0.067-0.042 0.005-0.003 0.010-0.007 0.015-0.010 0.022-0.015 0.045-0.030 0.067-0.045 1.023-0.72 1.268-2.134 0.548-3.157-0.013-0.018-0.026-0.036-0.039-0.053zM15.747 19.505c-0.004-0.006-0.008-0.011-0.013-0.017-0.009-0.012-0.018-0.024-0.028-0.036-0.005-0.006-0.010-0.012-0.015-0.019-0.009-0.011-0.018-0.022-0.028-0.033-0.005-0.006-0.010-0.012-0.015-0.017-0.011-0.012-0.022-0.025-0.033-0.037-0.003-0.004-0.007-0.008-0.010-0.012-0.014-0.016-0.029-0.031-0.044-0.047-0.004-0.004-0.008-0.008-0.012-0.012-0.011-0.011-0.022-0.022-0.033-0.033-0.005-0.005-0.011-0.011-0.017-0.016-0.010-0.010-0.020-0.019-0.030-0.029-0.006-0.005-0.012-0.011-0.017-0.016-0.011-0.010-0.022-0.019-0.032-0.029-0.005-0.004-0.010-0.009-0.015-0.013-0.016-0.014-0.032-0.027-0.048-0.040-0.002-0.001-0.003-0.003-0.005-0.004-0.015-0.012-0.029-0.023-0.044-0.035-0.006-0.004-0.011-0.009-0.017-0.013-0.011-0.008-0.022-0.017-0.034-0.025-0.006-0.005-0.013-0.009-0.019-0.014-0.011-0.008-0.022-0.015-0.034-0.023-0.006-0.004-0.012-0.008-0.019-0.013-0.013-0.009-0.027-0.017-0.040-0.026-0.004-0.003-0.008-0.005-0.012-0.008-0.017-0.011-0.035-0.021-0.052-0.032-0.005-0.003-0.011-0.006-0.016-0.009-0.013-0.007-0.025-0.015-0.038-0.022-0.007-0.004-0.013-0.007-0.020-0.011-0.012-0.006-0.023-0.012-0.035-0.019-0.007-0.004-0.014-0.007-0.021-0.011-0.013-0.006-0.025-0.012-0.038-0.019-0.006-0.003-0.012-0.006-0.018-0.009-0.018-0.009-0.037-0.017-0.056-0.025-0.003-0.001-0.006-0.003-0.009-0.004-0.016-0.007-0.032-0.013-0.048-0.020-0.007-0.003-0.013-0.005-0.020-0.008-0.013-0.005-0.025-0.010-0.038-0.015-0.007-0.003-0.014-0.005-0.022-0.008-0.013-0.005-0.025-0.009-0.038-0.013-0.007-0.002-0.014-0.005-0.021-0.007-0.015-0.005-0.031-0.010-0.047-0.015-0.004-0.001-0.008-0.003-0.012-0.004-0.019-0.006-0.039-0.011-0.058-0.017-0.006-0.002-0.012-0.003-0.018-0.005-0.014-0.004-0.028-0.007-0.042-0.011-0.007-0.002-0.015-0.003-0.022-0.005-0.013-0.003-0.026-0.006-0.039-0.009-0.007-0.002-0.015-0.003-0.022-0.005-0.014-0.003-0.028-0.006-0.042-0.008-0.006-0.001-0.012-0.002-0.018-0.003-0.020-0.003-0.040-0.007-0.060-0.010-0.004-0.001-0.007-0.001-0.011-0.002-0.017-0.002-0.033-0.005-0.050-0.007-0.007-0.001-0.014-0.002-0.021-0.002-0.014-0.002-0.027-0.003-0.041-0.004-0.008-0.001-0.015-0.001-0.023-0.002-0.014-0.001-0.027-0.002-0.041-0.003-0.007-0-0.014-0.001-0.021-0.001-0.017-0.001-0.035-0.002-0.052-0.002-0.003-0-0.006-0-0.009-0-0.020-0.001-0.041-0.001-0.061-0.001-0.001 0-0.003-0-0.004-0-0.003 0-0.006 0-0.009 0-0.022 0-0.044 0-0.066 0.001-0.005 0-0.010 0-0.015 0-0.025 0.001-0.049 0.002-0.074 0.004-0.005 0-0.010 0.001-0.016 0.001-0.022 0.002-0.044 0.004-0.066 0.006-0.004 0-0.008 0.001-0.012 0.001-0.025 0.003-0.049 0.006-0.073 0.010-0.006 0.001-0.011 0.002-0.017 0.003-0.023 0.004-0.046 0.007-0.069 0.012-0.002 0-0.004 0.001-0.006 0.001-0.025 0.005-0.049 0.010-0.074 0.015-0.006 0.001-0.012 0.003-0.017 0.004-0.025 0.006-0.049 0.012-0.074 0.018-0.001 0-0.003 0.001-0.004 0.001-0.023 0.006-0.047 0.013-0.070 0.020-0.006 0.002-0.011 0.003-0.017 0.005-0.024 0.008-0.048 0.015-0.072 0.024-0.004 0.001-0.007 0.003-0.011 0.004-0.021 0.008-0.043 0.016-0.064 0.024-0.005 0.002-0.010 0.004-0.015 0.006-0.023 0.009-0.047 0.019-0.070 0.029-0.005 0.002-0.009 0.004-0.014 0.006-0.021 0.009-0.041 0.019-0.062 0.029-0.004 0.002-0.009 0.004-0.013 0.006-0.023 0.011-0.046 0.023-0.068 0.035-0.005 0.003-0.010 0.006-0.015 0.008-0.021 0.011-0.042 0.023-0.062 0.035-0.003 0.002-0.005 0.003-0.008 0.005-0.023 0.013-0.045 0.027-0.067 0.041-0.005 0.003-0.010 0.007-0.016 0.010-0.022 0.015-0.045 0.030-0.067 0.045-1.023 0.72-1.269 2.133-0.548 3.157 0.013 0.018 0.026 0.036 0.039 0.053 0.004 0.006 0.008 0.011 0.013 0.017 0.009 0.012 0.018 0.024 0.028 0.035 0.005 0.006 0.010 0.012 0.015 0.019 0.009 0.011 0.018 0.022 0.027 0.033 0.005 0.006 0.010 0.012 0.015 0.018 0.011 0.012 0.021 0.024 0.032 0.037 0.004 0.004 0.007 0.008 0.011 0.012 0.014 0.016 0.029 0.031 0.043 0.046 0.004 0.004 0.008 0.009 0.013 0.013 0.011 0.011 0.022 0.022 0.033 0.033 0.006 0.006 0.011 0.011 0.017 0.017 0.010 0.009 0.020 0.019 0.029 0.028 0.006 0.006 0.012 0.011 0.018 0.017 0.010 0.009 0.021 0.019 0.031 0.028 0.005 0.005 0.011 0.010 0.017 0.014 0.016 0.013 0.031 0.026 0.047 0.039 0.003 0.002 0.006 0.004 0.008 0.007 0.014 0.011 0.027 0.022 0.041 0.032 0.006 0.005 0.012 0.009 0.019 0.014 0.011 0.008 0.021 0.016 0.032 0.023 0.007 0.005 0.014 0.010 0.021 0.015 0.010 0.007 0.021 0.015 0.032 0.022 0.007 0.005 0.014 0.009 0.020 0.014 0.012 0.008 0.024 0.016 0.037 0.024 0.005 0.003 0.010 0.007 0.015 0.010 0.017 0.011 0.034 0.021 0.051 0.031 0.006 0.004 0.012 0.007 0.018 0.011 0.012 0.007 0.024 0.013 0.035 0.020 0.007 0.004 0.015 0.008 0.022 0.012 0.011 0.006 0.022 0.012 0.033 0.017 0.008 0.004 0.015 0.008 0.023 0.012 0.012 0.006 0.023 0.012 0.035 0.017 0.007 0.003 0.014 0.007 0.020 0.010 0.018 0.008 0.036 0.017 0.054 0.025 0.004 0.002 0.009 0.004 0.013 0.006 0.014 0.006 0.029 0.012 0.043 0.018 0.007 0.003 0.015 0.006 0.022 0.009 0.012 0.005 0.024 0.009 0.036 0.014 0.008 0.003 0.016 0.006 0.023 0.009 0.012 0.004 0.024 0.009 0.036 0.013 0.007 0.003 0.015 0.005 0.022 0.008 0.014 0.005 0.029 0.009 0.043 0.014 0.005 0.002 0.010 0.003 0.015 0.005 0.019 0.006 0.038 0.011 0.058 0.016 0.006 0.002 0.013 0.003 0.019 0.005 0.013 0.003 0.027 0.007 0.040 0.010 0.008 0.002 0.015 0.004 0.023 0.005 0.013 0.003 0.025 0.006 0.038 0.008 0.008 0.002 0.015 0.003 0.023 0.005 0.014 0.003 0.028 0.005 0.041 0.008 0.006 0.001 0.013 0.002 0.019 0.004 0.020 0.003 0.040 0.007 0.060 0.010 0.004 0.001 0.008 0.001 0.011 0.002 0.016 0.002 0.033 0.005 0.049 0.007 0.007 0.001 0.014 0.002 0.021 0.002 0.014 0.002 0.027 0.003 0.041 0.004 0.008 0.001 0.015 0.001 0.023 0.002 0.014 0.001 0.027 0.002 0.041 0.003 0.007 0 0.014 0.001 0.021 0.001 0.017 0.001 0.035 0.002 0.052 0.002 0.003 0 0.006 0 0.009 0 0.020 0.001 0.041 0.001 0.061 0.001 0.001 0 0.003 0 0.004 0 0.003 0 0.006-0 0.009-0 0.022-0 0.044-0 0.066-0.001 0.005-0 0.010-0 0.015-0 0.025-0.001 0.049-0.002 0.074-0.004 0.005-0 0.010-0.001 0.015-0.001 0.022-0.002 0.044-0.004 0.066-0.006 0.004-0 0.008-0.001 0.012-0.001 0.025-0.003 0.049-0.006 0.074-0.010 0.005-0.001 0.011-0.002 0.016-0.003 0.024-0.004 0.047-0.008 0.071-0.012 0.002-0 0.004-0.001 0.005-0.001 0.025-0.005 0.050-0.010 0.074-0.016 0.005-0.001 0.011-0.003 0.016-0.004 0.025-0.006 0.050-0.012 0.074-0.019 0.001-0 0.002-0 0.002-0.001 0.024-0.006 0.048-0.014 0.072-0.021 0.005-0.002 0.011-0.003 0.016-0.005 0.024-0.008 0.049-0.016 0.073-0.024 0.003-0.001 0.006-0.002 0.009-0.003 0.022-0.008 0.044-0.016 0.066-0.025 0.005-0.002 0.010-0.004 0.014-0.006 0.024-0.009 0.047-0.019 0.071-0.030 0.004-0.002 0.009-0.004 0.013-0.006 0.021-0.009 0.042-0.019 0.063-0.029 0.004-0.002 0.008-0.004 0.012-0.006 0.023-0.011 0.046-0.023 0.069-0.035 0.005-0.003 0.010-0.006 0.015-0.008 0.021-0.011 0.042-0.023 0.063-0.035 0.003-0.002 0.005-0.003 0.008-0.005 0.023-0.013 0.045-0.027 0.067-0.042 0.005-0.003 0.010-0.007 0.016-0.010 0.022-0.015 0.045-0.030 0.067-0.045 1.022-0.72 1.269-2.134 0.548-3.157-0.013-0.018-0.026-0.036-0.039-0.053z"></path>
</svg>
