<!-- Generated by IcoMoon.io -->
<svg version="1.1" xmlns="http://www.w3.org/2000/svg" width="32" height="32" viewBox="0 0 32 32">
<title>ogc-wms</title>
<path d="M31.633 12.748c-0.238-0.253-0.555-0.393-0.892-0.393h-8.554v-9.258c0-1.999-1.438-3.62-3.212-3.62h-15.764c-1.774 0-3.212 1.62-3.212 3.62v24.714c0 2 1.438 3.62 3.212 3.62h27.531c0.693-0.002 1.258-0.6 1.258-1.334v-16.409c0-0.355-0.13-0.689-0.367-0.94zM4.019 6.468c0-0.517 0.419-0.936 0.936-0.936h12.356c0.517 0 0.936 0.419 0.936 0.936s-0.42 0.936-0.937 0.936h-12.356c-0.517 0-0.936-0.419-0.936-0.936zM15.583 23.108c-0.648-0.283-1.213-0.327-1.502-0.327-0.080 0-0.164 0.003-0.25 0.009-0.040-0.001-0.076-0.002-0.11-0.002-0.649 0-1.385 0.287-1.88 0.595v-10.138c0-1.161 0.843-2.105 1.88-2.105 1.036 0 1.878 0.944 1.878 2.105v0.145c-0.021 0.098-0.032 0.198-0.032 0.299l0.015 9.419zM30.317 29.667h-16.236c-1.292 0-2.344-1.149-2.344-2.561 0-0.635 0.215-1.244 0.605-1.716 0.38-0.459 0.896-0.753 1.454-0.827 0.5 0.019 1.001 0.233 1.375 0.586 0.398 0.377 0.617 0.876 0.617 1.406 0 0.305 0.055 0.548 0.163 0.72 0.114 0.182 0.285 0.279 0.494 0.279 0.467 0 0.847-0.398 0.847-0.887v-12.549h13.024v15.548z"></path>
</svg>
