<!-- Generated by IcoMoon.io -->
<svg version="1.1" xmlns="http://www.w3.org/2000/svg" width="32" height="32" viewBox="0 0 32 32">
<title>ogc-wcs</title>
<path d="M22.187 10.605v-7.507c0-1.999-1.438-3.62-3.212-3.62h-15.764c-1.774 0-3.212 1.62-3.212 3.62v24.714c0 2 1.438 3.62 3.212 3.62h28.708v-20.826h-9.733zM17.691 20.108v-2.906h2.906v2.906h-2.906zM20.597 21.928v2.906h-2.906v-2.906h2.906zM17.691 15.356v-2.906h2.906v2.906h-2.906zM4.956 7.404c-0.517 0-0.936-0.419-0.936-0.936s0.419-0.936 0.936-0.936h12.356c0.517 0 0.936 0.419 0.936 0.936s-0.42 0.936-0.937 0.936h-12.356zM15.845 29.585h-2.906v-2.906h2.906v2.906zM15.845 24.833h-2.906v-2.906h2.906v2.906zM15.845 20.108h-2.906v-2.906h2.906v2.906zM15.845 15.356h-2.906v-2.906h2.906v2.906zM17.691 29.585v-2.906h2.906v2.906h-2.906zM25.322 29.585h-2.906v-2.906h2.906v2.906zM25.322 24.833h-2.906v-2.906h2.906v2.906zM25.322 20.108h-2.906v-2.906h2.906v2.906zM25.322 15.356h-2.906v-2.906h2.906v2.906zM30.074 29.585h-2.906v-2.906h2.906v2.906zM30.074 24.833h-2.906v-2.906h2.906v2.906zM30.074 20.108h-2.906v-2.906h2.906v2.906zM30.074 15.356h-2.906v-2.906h2.906v2.906z"></path>
</svg>
