<!-- Generated by IcoMoon.io -->
<svg version="1.1" xmlns="http://www.w3.org/2000/svg" width="32" height="32" viewBox="0 0 32 32">
<title>ogc-wps</title>
<path d="M18.975-0.499h-15.764c-1.774 0-3.212 1.62-3.212 3.62v24.714c0 2 1.438 3.62 3.212 3.62h11.665c-0.668-0.397-1.3-0.856-1.883-1.368l-0.987-0.867 1.077-2.42-2.68 0.253-0.527-1.159c-0.353-0.778-0.625-1.596-0.807-2.431l-0.278-1.276 2.3-1.325-2.3-1.324 0.278-1.276c0.182-0.835 0.454-1.653 0.807-2.431l0.526-1.159 2.681 0.253-1.077-2.42 0.987-0.867c0.646-0.567 1.352-1.070 2.1-1.494l1.097-0.623 2.051 1.776 0.593-2.621 1.28-0.128c0.427-0.043 0.862-0.064 1.292-0.064 0.259 0 0.52 0.008 0.779 0.024v-5.386c-0-1.999-1.438-3.62-3.212-3.62zM17.312 7.427h-12.356c-0.517-0-0.936-0.419-0.936-0.936s0.419-0.936 0.936-0.936h12.356c0.517 0 0.936 0.419 0.936 0.936s-0.42 0.936-0.937 0.936zM29.483 20.862c0-0.253-0.013-0.503-0.036-0.75l2.554-1.47c-0.157-0.721-0.389-1.415-0.688-2.073l-2.95 0.279c-0.261-0.432-0.564-0.838-0.902-1.213l1.182-2.656c-0.552-0.485-1.156-0.916-1.802-1.283l-2.218 1.92c-0.465-0.198-0.954-0.354-1.46-0.464l-0.64-2.827c-0.111-0.011-0.223-0.020-0.335-0.028-0.258-0.018-0.517-0.027-0.779-0.027-0.376 0-0.748 0.019-1.115 0.056l-0.64 2.828c-0.506 0.11-0.994 0.266-1.46 0.464l-2.218-1.92c-0.646 0.367-1.25 0.798-1.803 1.283l1.182 2.656c-0.338 0.374-0.641 0.78-0.902 1.213l-2.95-0.279c-0.299 0.658-0.531 1.352-0.688 2.073l2.554 1.47c-0.024 0.247-0.036 0.497-0.036 0.75s0.013 0.503 0.036 0.75l-2.554 1.471c0.157 0.721 0.389 1.415 0.688 2.073l2.95-0.279c0.261 0.432 0.564 0.838 0.902 1.213l-1.182 2.656c0.553 0.485 1.156 0.916 1.803 1.283l2.217-1.92c0.465 0.198 0.954 0.354 1.46 0.463l0.64 2.828c0.367 0.036 0.739 0.055 1.115 0.055s0.748-0.019 1.115-0.056l0.64-2.828c0.506-0.11 0.994-0.266 1.46-0.463l2.218 1.92c0.646-0.367 1.25-0.798 1.802-1.283l-1.182-2.656c0.338-0.374 0.64-0.78 0.902-1.213l2.95 0.279c0.299-0.658 0.531-1.352 0.688-2.073l-2.554-1.47c0.024-0.247 0.036-0.497 0.036-0.75zM22.187 24.242c-0.251 0.055-0.512 0.084-0.779 0.084-1.957 0-3.543-1.551-3.543-3.465s1.586-3.465 3.543-3.465c0.268 0 0.529 0.029 0.779 0.084 1.582 0.347 2.764 1.729 2.764 3.38s-1.182 3.033-2.764 3.38z"></path>
</svg>
