<!-- Generated by IcoMoon.io -->
<svg version="1.1" xmlns="http://www.w3.org/2000/svg" width="32" height="32" viewBox="0 0 32 32">
<title>ogc-wmts</title>
<path d="M22.132 10.78h0.087l0.007-4.527v-3.156c0-1.999-1.438-3.62-3.212-3.62h-15.764c-1.774-0-3.212 1.62-3.212 3.62v24.714c0 2 1.438 3.62 3.212 3.62l8.181-0.030v-20.639h10.7v0.018zM17.351 7.404h-12.356c-0.517-0-0.936-0.419-0.936-0.936s0.419-0.936 0.936-0.936h12.356c0.517 0 0.936 0.419 0.936 0.936s-0.42 0.936-0.937 0.936zM31.954 30.005v-7.55h0.005v-1.439h-0.005v-7.55h0.005v-1.439h-0.005v-0.011h-1.439v0.011h-17.984v1.439h0.005v7.55h-0.005v1.439h0.005v9h1.439v-0.011h17.989v-1.439h-0.011zM30.514 22.455v7.55h-7.55v-7.55h7.55zM30.514 13.466v7.55h-7.55v-7.55h7.55zM21.525 22.455v7.55h-7.55v-7.55h7.55zM13.975 21.016v-7.55h7.55v7.55h-7.55z"></path>
</svg>
