<!-- Generated by IcoMoon.io -->
<svg version="1.1" xmlns="http://www.w3.org/2000/svg" width="32" height="32" viewBox="0 0 32 32">
<title>ogc-web-services</title>
<path d="M22.227 10.619v-7.521c0-1.999-1.438-3.62-3.212-3.62h-15.764c-1.774-0-3.212 1.62-3.212 3.62v24.714c0 2 1.438 3.62 3.212 3.62h15.764c0.302 0 0.595-0.047 0.873-0.135 0.552 0.089 1.119 0.135 1.697 0.135 5.818 0 10.415-4.63 10.415-10.448-0-5.541-4.263-10.039-9.773-10.365zM19.602 13.564c0.039-0.048 0.079-0.094 0.119-0.139s0.080-0.089 0.121-0.131c0.122-0.127 0.247-0.241 0.375-0.342 0.043-0.034 0.086-0.066 0.129-0.097 0.173-0.123 0.35-0.221 0.531-0.293 0.032 0 0.063 0 0.063 0v5.979c-1.093-0.032-2.185-0.096-3.246-0.193 0.354-2.033 1.041-3.732 1.907-4.784zM20.941 19.665v4.533c-0.137-0.004-0.273-0.009-0.408-0.015-0.119-0.005-0.237-0.012-0.355-0.019-0.828-0.049-1.645-0.14-2.482-0.288-0.129-0.868-0.193-1.864-0.193-2.796 0-0.036 0-0.072 0-0.107 0.003-0.532 0.031-0.99 0.031-1.532 0.137 0.016 0.274 0.031 0.413 0.045 0.061 0.006 0.121 0.012 0.182 0.018 0.914 0.087 1.863 0.136 2.812 0.162zM16.57 18.186c-1.897-0.514-2.38-0.546-2.668-0.804 0.385-0.835 0.931-1.671 1.671-2.346 0.868-0.932 1.832-1.382 2.925-1.896-0.963 1.286-1.575 2.989-1.928 5.046zM4.059 6.468c0-0.517 0.419-0.936 0.936-0.936h12.356c0.517 0 0.936 0.419 0.936 0.936s-0.42 0.936-0.937 0.936h-12.356c-0.517-0-0.936-0.419-0.936-0.936zM13.13 22.173c-0.065-0.354-0.065-0.771-0.065-1.189 0-0.836 0.129-1.704 0.354-2.475 0.675 0.289 1.543 0.514 3.021 0.803-0.063 0.611-0.096 1.125-0.096 1.769 0 0.868 0.063 1.768 0.193 2.572-0.030-0.006-0.060-0.011-0.090-0.017-0.126-0.024-0.247-0.049-0.365-0.075-0.039-0.009-0.078-0.018-0.116-0.026-0.051-0.012-0.102-0.024-0.152-0.036-1.477-0.366-2.322-0.905-2.684-1.323zM15.646 27.072c-0.024-0.026-0.049-0.051-0.073-0.078-0.087-0.081-0.172-0.164-0.254-0.249-0.074-0.077-0.146-0.155-0.216-0.234-0.676-0.768-1.159-1.658-1.555-2.635 0.772 0.419 1.928 0.772 3.215 1.061 0.321 1.543 0.803 2.861 1.543 3.89-0.965-0.405-1.9-0.961-2.659-1.755zM20.942 29.47c-0.869 0-1.607-0.932-2.090-2.089-0.387-0.676-0.675-1.415-0.868-2.251 0.963 0.096 1.96 0.161 2.957 0.193v4.146zM28.043 15.517c0.044 0.052 0.086 0.105 0.129 0.158s0.084 0.107 0.125 0.161c0.061 0.081 0.122 0.164 0.18 0.247 0.020 0.028 0.039 0.056 0.058 0.084 0.038 0.056 0.076 0.113 0.113 0.17 0.222 0.343 0.419 0.703 0.588 1.077-0.257 0.193-0.965 0.482-2.7 0.804-0.050-0.326-0.108-0.645-0.172-0.955-0.026-0.124-0.053-0.247-0.081-0.368-0.042-0.182-0.087-0.36-0.135-0.536-0.032-0.117-0.065-0.232-0.099-0.346-0.053-0.178-0.11-0.352-0.169-0.522-0.016-0.046-0.033-0.093-0.050-0.138-0.015-0.042-0.031-0.084-0.047-0.126-0.091-0.24-0.188-0.471-0.291-0.694-0.246-0.528-0.53-1.006-0.853-1.426 1.308 0.464 2.491 1.316 3.405 2.41zM22.227 19.663c1.018-0.028 1.989-0.080 2.933-0.156 0.138-0.011 0.275-0.023 0.411-0.035 0.030 0.512 0.032 0.968 0.032 1.5 0 0.035 0 0.071 0 0.107 0 0.241-0.002 0.484-0.008 0.727-0.003 0.136-0.007 0.273-0.013 0.408-0.024 0.588-0.074 1.165-0.172 1.694-1.041 0.158-2.082 0.253-3.183 0.288v-4.533zM22.252 12.572c0.027 0.007 0.056 0.016 0.085 0.028 0.028 0.011 0.056 0.024 0.085 0.038 0.001 0 0.002 0.001 0.002 0.001 0.034 0.017 0.069 0.036 0.104 0.057 0.001 0 0.001 0.001 0.002 0.001 0.141 0.084 0.292 0.194 0.435 0.291 0.011 0.008 0.022 0.015 0.034 0.023 1.094 0.996 2.025 3.022 2.443 5.336-0.068 0.006-0.136 0.012-0.204 0.018-1 0.085-1.979 0.143-3.010 0.173v-5.971c0.008 0.002 0.017 0.003 0.025 0.005zM22.231 29.468c-0.023 0.001-0.045 0.002-0.068 0.002v-0.939c0.042-0.233 0.064-0.473 0.064-0.72v-2.491c0.976-0.033 1.95-0.097 2.926-0.191-0.026 0.090-0.054 0.186-0.084 0.287-0.019 0.063-0.038 0.128-0.058 0.194-0.012 0.040-0.025 0.080-0.037 0.121-0.037 0.119-0.077 0.242-0.119 0.368-0.488 1.462-1.314 3.306-2.623 3.368zM27.563 26.995c-0.289 0.313-0.61 0.591-0.951 0.837-0.001 0-0.001 0.001-0.002 0.001-0.042 0.030-0.084 0.060-0.126 0.089-0.533 0.368-1.11 0.663-1.686 0.905 0.097-0.133 0.188-0.268 0.275-0.407 0.027-0.043 0.054-0.087 0.080-0.131 0.394-0.66 0.69-1.392 0.934-2.215 0.104-0.351 0.199-0.719 0.287-1.104 1.189-0.257 2.281-0.578 3.118-0.965-0.419 1.125-1.030 2.154-1.929 2.99zM26.6 23.684c0.082-0.693 0.142-1.48 0.157-2.24 0.002-0.122 0.004-0.244 0.004-0.364 0-0.162 0-0.316-0.001-0.466-0.003-0.443-0.015-0.846-0.064-1.303v-0c1.285-0.128 2.379-0.514 2.99-0.771 0.258 0.771 0.386 1.64 0.386 2.444 0 1.383-0.128 2.154-3.471 2.7z"></path>
</svg>
