<!-- Generated by IcoMoon.io -->
<svg version="1.1" xmlns="http://www.w3.org/2000/svg" width="32" height="32" viewBox="0 0 32 32">
<title>opacity</title>
<path d="M24.432 7.022c-2.128-4.189-6.485-6.884-11.194-6.884-6.922 0-12.554 5.632-12.554 12.554 0 4.709 2.695 9.067 6.883 11.194 2.075 4.081 6.313 6.885 11.196 6.885 6.922 0 12.554-5.632 12.554-12.554 0-4.883-2.804-9.121-6.885-11.196zM18.742 7.366l5.347 5.347c-0.001 0.747-0.079 1.477-0.225 2.182l-7.305-7.305c0.705-0.146 1.435-0.223 2.182-0.225zM8.776 22.461c-0.208-0.489-0.38-0.994-0.514-1.508l2.243 2.243c-0.565-0.147-1.118-0.339-1.658-0.578-0.024-0.052-0.049-0.104-0.071-0.157zM13.258 23.543l-5.347-5.347c0.001-0.747 0.079-1.477 0.225-2.182l7.305 7.305c-0.705 0.146-1.435 0.224-2.182 0.225zM17.286 22.757l-8.589-8.589c0.225-0.558 0.494-1.094 0.805-1.602l9.386 9.386c-0.508 0.311-1.044 0.579-1.602 0.805zM20.28 20.938l-9.764-9.764c0.369-0.432 0.772-0.834 1.204-1.204l9.764 9.764c-0.369 0.432-0.772 0.834-1.204 1.203zM22.498 18.343l-9.386-9.386c0.508-0.311 1.044-0.579 1.602-0.805l8.589 8.589c-0.225 0.558-0.494 1.094-0.805 1.602zM21.499 7.716c0.571 0.148 1.127 0.345 1.665 0.585 0.239 0.539 0.431 1.093 0.578 1.658l-2.243-2.243zM18.763 29.069c-3.477 0-6.575-1.646-8.563-4.197 0.986 0.245 2 0.374 3.037 0.374 6.922 0 12.554-5.632 12.554-12.554 0-1.037-0.128-2.052-0.374-3.037 2.551 1.987 4.197 5.085 4.197 8.563-0 5.984-4.868 10.852-10.852 10.852z"></path>
</svg>
