<!-- Generated by IcoMoon.io -->
<svg version="1.1" xmlns="http://www.w3.org/2000/svg" width="32" height="32" viewBox="0 0 32 32">
<title>openlayers</title>
<path d="M31.244 13.685l-0.086-0.228c0.208-1.388-0.328-2.838-1.609-3.899l-9.67-8.015c-2.198-1.822-5.752-1.811-7.939 0.024l-9.509 7.979c-1.267 1.063-1.796 2.505-1.589 3.885l-0.086 0.229c-0.341 0.907-0.369 1.867-0.085 2.785-0.537 1.735 0.060 3.578 1.576 4.833l9.67 8.015c1.115 0.924 2.591 1.433 4.157 1.433 0 0 0 0 0 0 1.582 0 3.071-0.518 4.191-1.458l9.508-7.979c1.498-1.257 2.088-3.094 1.554-4.817 0.285-0.919 0.256-1.88-0.085-2.787zM1.119 15.196c0.002 0.385 0.066 0.77 0.193 1.146-0.127-0.376-0.191-0.761-0.193-1.146zM30.689 16.259c-0.239 0.709-0.697 1.363-1.326 1.891l-9.509 7.979c-1.006 0.844-2.348 1.309-3.78 1.309-1.417-0-2.748-0.457-3.748-1.286l-9.669-8.015c-0.639-0.53-1.104-1.188-1.345-1.905-0.123-0.365-0.187-0.739-0.192-1.113 0.002-0.145 0.013-0.29 0.033-0.434 0.179 0.288 0.391 0.561 0.632 0.815 0.194 0.235 0.416 0.459 0.668 0.668l9.67 8.014c0.137 0.114 0.28 0.221 0.427 0.32 2.209 1.493 5.462 1.376 7.512-0.344l9.509-7.979c0.243-0.204 0.458-0.422 0.647-0.651 0.242-0.254 0.454-0.528 0.632-0.816 0.020 0.144 0.031 0.289 0.033 0.434-0.006 0.374-0.070 0.749-0.192 1.114zM16.074 27.548c-1.417-0-2.748-0.457-3.748-1.286 1 0.829 2.331 1.285 3.748 1.286zM30.727 18.789c-0.226 0.755-0.698 1.45-1.364 2.009l-9.509 7.979c-1.006 0.844-2.348 1.309-3.78 1.309-0 0-0 0-0 0-1.417-0-2.749-0.457-3.749-1.286l-9.67-8.015c-0.673-0.558-1.15-1.253-1.38-2.011-0.131-0.432-0.18-0.877-0.148-1.319 0.002 0.003 0.004 0.007 0.006 0.010 0.014 0.023 0.029 0.046 0.043 0.069 0.005 0.007 0.009 0.015 0.014 0.022 0.013 0.021 0.027 0.041 0.040 0.061 0.005 0.007 0.010 0.014 0.014 0.022 0.016 0.023 0.031 0.046 0.047 0.069 0.003 0.004 0.005 0.007 0.008 0.011 0.019 0.028 0.039 0.055 0.059 0.083 0.001 0.001 0.002 0.002 0.002 0.003 0.018 0.025 0.037 0.050 0.056 0.075 0.004 0.006 0.009 0.012 0.013 0.017 0.016 0.021 0.032 0.042 0.049 0.062 0.005 0.006 0.009 0.012 0.014 0.018 0.018 0.023 0.037 0.045 0.055 0.068 0.002 0.003 0.005 0.006 0.007 0.009 0.044 0.052 0.089 0.104 0.135 0.155 0.004 0.004 0.007 0.008 0.011 0.012 0.019 0.021 0.039 0.043 0.059 0.064 0.004 0.005 0.008 0.009 0.013 0.014 0.022 0.023 0.043 0.045 0.065 0.068 0.002 0.002 0.003 0.003 0.005 0.005 0.050 0.050 0.101 0.1 0.153 0.149 0.001 0.001 0.003 0.003 0.005 0.004 0.024 0.023 0.049 0.045 0.074 0.068 0.002 0.002 0.005 0.004 0.007 0.007 0.053 0.048 0.107 0.095 0.163 0.141l9.67 8.015c1.115 0.924 2.591 1.433 4.157 1.433 0 0 0 0 0 0 1.582 0 3.071-0.518 4.192-1.458l9.508-7.979c0.056-0.047 0.11-0.094 0.163-0.142 0-0 0-0 0-0 0.106-0.096 0.207-0.196 0.303-0.298 0.001-0.001 0.002-0.002 0.003-0.003 0.023-0.025 0.046-0.050 0.069-0.075 0.001-0.001 0.001-0.002 0.002-0.002 0.070-0.078 0.137-0.157 0.201-0.238 0.001-0.002 0.003-0.003 0.004-0.005 0.020-0.025 0.039-0.050 0.058-0.075 0.002-0.003 0.004-0.005 0.006-0.007 0.062-0.081 0.121-0.164 0.177-0.248 0.001-0.002 0.003-0.004 0.004-0.006 0.017-0.025 0.033-0.051 0.049-0.076 0.002-0.004 0.005-0.008 0.007-0.012 0.016-0.026 0.032-0.051 0.048-0.077 0.001-0.001 0.002-0.003 0.003-0.004 0.031 0.438-0.017 0.88-0.145 1.308z"></path>
</svg>
