<!-- Generated by IcoMoon.io -->
<svg version="1.1" xmlns="http://www.w3.org/2000/svg" width="31" height="32" viewBox="0 0 31 32">
<title>osgeo-charter-member</title>
<path d="M19.575 23.352c0.856-0.757 1.528-1.677 1.987-2.693s0.703-2.129 0.703-3.271c0-0.194-0.007-0.39-0.022-0.587s-0.037-0.394-0.066-0.59l6.305-5.367-3.005 0.439c-0.524-0.98-1.174-1.883-1.929-2.688s-1.615-1.511-2.56-2.098c-0.994-0.617-2.065-1.088-3.181-1.406s-2.277-0.48-3.453-0.48c-0.638 0-1.273 0.048-1.901 0.144s-1.248 0.239-1.857 0.429l-3.779-5.22-0.44-0.508 0.716 3.85 0.645 3.18c-0.002 0.001-0.005 0.003-0.007 0.004s-0.005 0.003-0.007 0.004c-0.019 0.012-0.038 0.023-0.056 0.035s-0.037 0.024-0.056 0.035c-0.009 0.006-0.019 0.012-0.028 0.018s-0.019 0.012-0.028 0.018-0.036 0.023-0.053 0.035-0.036 0.023-0.053 0.035c-0.010 0.006-0.020 0.013-0.030 0.020s-0.020 0.013-0.030 0.020c-0.017 0.011-0.034 0.023-0.051 0.034s-0.034 0.023-0.051 0.034c-0.011 0.007-0.021 0.014-0.032 0.021s-0.021 0.014-0.031 0.021c-0.016 0.011-0.032 0.022-0.049 0.034s-0.032 0.023-0.049 0.034c-0.011 0.008-0.022 0.015-0.033 0.023s-0.022 0.015-0.033 0.023c-0.016 0.011-0.031 0.022-0.047 0.033s-0.031 0.022-0.047 0.034c-0.011 0.008-0.023 0.016-0.034 0.025s-0.023 0.016-0.034 0.025c-0.015 0.011-0.030 0.022-0.045 0.033s-0.030 0.022-0.045 0.033c-0.012 0.009-0.023 0.017-0.035 0.026s-0.023 0.017-0.035 0.026c-0.014 0.011-0.029 0.022-0.043 0.033s-0.029 0.022-0.043 0.033c-0.012 0.009-0.024 0.018-0.036 0.028s-0.024 0.019-0.036 0.028c-0.014 0.011-0.028 0.022-0.041 0.033s-0.028 0.022-0.041 0.033c-0.012 0.010-0.024 0.019-0.036 0.029s-0.024 0.019-0.036 0.029c-0.013 0.011-0.027 0.022-0.040 0.032s-0.027 0.022-0.040 0.033c-0.012 0.010-0.025 0.020-0.037 0.030s-0.025 0.020-0.037 0.031c-0.013 0.011-0.026 0.022-0.038 0.032s-0.026 0.022-0.038 0.032c-0.012 0.011-0.025 0.021-0.037 0.032s-0.025 0.021-0.037 0.032-0.025 0.021-0.037 0.032-0.025 0.021-0.037 0.032c-0.013 0.011-0.025 0.022-0.038 0.033s-0.025 0.022-0.037 0.033c-0.012 0.011-0.024 0.021-0.036 0.032s-0.024 0.021-0.036 0.032c-0.013 0.011-0.025 0.023-0.038 0.034s-0.025 0.023-0.038 0.035c-0.012 0.011-0.023 0.021-0.035 0.032s-0.023 0.021-0.034 0.032c-0.013 0.012-0.025 0.024-0.038 0.036s-0.025 0.024-0.038 0.036c-0.011 0.011-0.022 0.021-0.033 0.032s-0.022 0.021-0.033 0.032c-0.013 0.012-0.026 0.025-0.038 0.037s-0.025 0.025-0.038 0.037c-0.011 0.011-0.021 0.021-0.032 0.032s-0.021 0.021-0.032 0.032c-0.013 0.013-0.026 0.025-0.038 0.038s-0.026 0.026-0.038 0.039c-0.010 0.010-0.021 0.021-0.031 0.031s-0.021 0.021-0.031 0.031c-0.013 0.013-0.026 0.026-0.039 0.040s-0.026 0.027-0.038 0.040c-0.010 0.010-0.020 0.021-0.030 0.031s-0.020 0.021-0.030 0.031c-0.013 0.014-0.026 0.027-0.039 0.041s-0.026 0.027-0.038 0.041c-0.010 0.010-0.019 0.021-0.029 0.031s-0.019 0.021-0.029 0.031c-0.013 0.014-0.026 0.028-0.039 0.042s-0.026 0.028-0.038 0.043c-0.009 0.010-0.018 0.020-0.028 0.031s-0.018 0.020-0.028 0.031c-0.013 0.015-0.026 0.029-0.039 0.044s-0.026 0.029-0.038 0.044c-0.009 0.010-0.018 0.020-0.026 0.030s-0.018 0.020-0.026 0.030c-0.013 0.015-0.026 0.030-0.039 0.045s-0.026 0.030-0.039 0.046c-0.008 0.010-0.017 0.020-0.025 0.030s-0.017 0.020-0.025 0.030c-0.013 0.016-0.026 0.031-0.039 0.047s-0.026 0.031-0.039 0.047c-0.008 0.010-0.016 0.019-0.024 0.029s-0.016 0.019-0.024 0.029c-0.013 0.016-0.026 0.033-0.039 0.049s-0.026 0.033-0.039 0.049c-0.007 0.009-0.015 0.019-0.022 0.028s-0.015 0.019-0.022 0.028c-0.013 0.017-0.027 0.034-0.040 0.051s-0.026 0.034-0.039 0.051c-0.007 0.009-0.014 0.018-0.021 0.027s-0.014 0.018-0.021 0.027-0.027 0.036-0.040 0.054c-0.013 0.018-0.027 0.036-0.040 0.054-0.006 0.008-0.013 0.017-0.019 0.025s-0.013 0.017-0.019 0.025c-0.014 0.019-0.028 0.038-0.041 0.057s-0.027 0.038-0.041 0.057c-0.006 0.008-0.011 0.015-0.017 0.023s-0.011 0.015-0.017 0.023c-0.014 0.020-0.029 0.040-0.043 0.061s-0.028 0.041-0.043 0.061c-0.005 0.007-0.009 0.013-0.014 0.020s-0.009 0.013-0.014 0.020c-0.015 0.022-0.030 0.044-0.045 0.066s-0.030 0.044-0.045 0.067c-0.003 0.005-0.007 0.010-0.010 0.015s-0.007 0.010-0.010 0.015c-0.017 0.025-0.033 0.050-0.050 0.075s-0.033 0.050-0.049 0.075c-0.002 0.002-0.003 0.005-0.005 0.007s-0.003 0.005-0.005 0.007c-0.054 0.084-0.107 0.169-0.159 0.254s-0.103 0.171-0.153 0.258c-0.271 0.469-0.511 0.955-0.719 1.454s-0.384 1.011-0.525 1.532c-0.146 0.538-0.256 1.086-0.33 1.64s-0.111 1.114-0.111 1.677c0 0.307 0.011 0.613 0.033 0.917s0.055 0.606 0.098 0.907c0 0 0 0 0 0.001s0 0 0 0.001c0.003 0.023 0.007 0.046 0.010 0.068s0.007 0.045 0.010 0.068c0 0.001 0 0.001 0 0.002s0 0.001 0 0.002c0.004 0.022 0.007 0.045 0.011 0.067s0.007 0.045 0.011 0.067c0 0.001 0 0.002 0 0.003s0 0.002 0 0.003c0.004 0.022 0.007 0.044 0.011 0.066s0.008 0.044 0.012 0.066c0 0.001 0 0.002 0.001 0.003s0 0.002 0.001 0.003c0.004 0.022 0.008 0.043 0.012 0.065s0.008 0.043 0.012 0.065c0 0.001 0.001 0.003 0.001 0.004s0.001 0.003 0.001 0.004c0.004 0.022 0.008 0.043 0.013 0.065s0.009 0.043 0.013 0.064c0 0.001 0.001 0.003 0.001 0.004s0.001 0.003 0.001 0.004c0.004 0.021 0.009 0.043 0.013 0.064s0.009 0.043 0.014 0.064c0 0.001 0.001 0.003 0.001 0.004s0.001 0.003 0.001 0.004c0.005 0.021 0.009 0.043 0.014 0.064s0.009 0.043 0.014 0.064c0 0.001 0.001 0.003 0.001 0.004s0.001 0.003 0.001 0.004c0.005 0.021 0.010 0.043 0.015 0.064s0.010 0.043 0.015 0.064c0 0.001 0.001 0.003 0.001 0.004s0.001 0.002 0.001 0.004c0.005 0.022 0.010 0.043 0.016 0.065s0.011 0.043 0.016 0.065c0 0.001 0 0.002 0.001 0.003s0 0.002 0.001 0.003c0.006 0.022 0.011 0.044 0.017 0.066s0.011 0.044 0.017 0.066c0 0.001 0 0.001 0 0.002s0 0.001 0 0.002c0.047 0.18 0.098 0.359 0.154 0.537s0.114 0.355 0.178 0.531l-2.482 2.119 3.215-0.469c0.004 0.007 0.007 0.014 0.011 0.021s0.008 0.014 0.011 0.021c0.005 0.009 0.010 0.018 0.015 0.027s0.010 0.018 0.015 0.027c0.012 0.022 0.024 0.044 0.036 0.066s0.024 0.044 0.036 0.065c0.005 0.010 0.011 0.019 0.016 0.029s0.011 0.019 0.016 0.029c0.012 0.021 0.024 0.042 0.036 0.063s0.024 0.042 0.036 0.063c0.006 0.010 0.012 0.020 0.017 0.030s0.012 0.020 0.018 0.030 0.024 0.041 0.036 0.061 0.024 0.040 0.036 0.060c0.006 0.010 0.013 0.021 0.019 0.031s0.013 0.021 0.019 0.031c0.012 0.019 0.024 0.039 0.036 0.058s0.024 0.039 0.036 0.058c0.007 0.011 0.013 0.021 0.020 0.032s0.014 0.021 0.020 0.032c0.012 0.019 0.024 0.038 0.036 0.056s0.024 0.038 0.036 0.056c0.007 0.011 0.014 0.022 0.021 0.033s0.014 0.022 0.022 0.033c0.012 0.018 0.024 0.037 0.036 0.055s0.024 0.036 0.036 0.054c0.008 0.011 0.015 0.022 0.023 0.034s0.015 0.022 0.023 0.033c0.012 0.018 0.024 0.035 0.036 0.053s0.024 0.035 0.037 0.053c0.008 0.011 0.016 0.023 0.024 0.034s0.016 0.023 0.024 0.034c0.012 0.017 0.024 0.034 0.037 0.052s0.025 0.034 0.037 0.051c0.008 0.012 0.017 0.023 0.025 0.034s0.017 0.023 0.025 0.034c0.012 0.017 0.025 0.033 0.037 0.050s0.025 0.033 0.037 0.050c0.009 0.012 0.017 0.023 0.026 0.035s0.017 0.023 0.026 0.035c0.012 0.016 0.025 0.032 0.037 0.049s0.025 0.032 0.037 0.049c0.009 0.012 0.018 0.023 0.027 0.035s0.018 0.023 0.027 0.035c0.012 0.016 0.025 0.032 0.037 0.047s0.025 0.032 0.038 0.047c0.009 0.012 0.019 0.023 0.028 0.035s0.019 0.023 0.028 0.035c0.013 0.015 0.025 0.031 0.038 0.046s0.025 0.031 0.038 0.046c0.010 0.012 0.019 0.023 0.029 0.035s0.019 0.023 0.029 0.035c0.013 0.015 0.025 0.030 0.038 0.045s0.025 0.030 0.038 0.045c0.010 0.012 0.020 0.023 0.030 0.035s0.020 0.023 0.030 0.035c0.013 0.015 0.026 0.029 0.038 0.044s0.026 0.029 0.039 0.044c0.010 0.012 0.021 0.023 0.031 0.035s0.021 0.023 0.031 0.035c0.013 0.014 0.026 0.029 0.039 0.043s0.026 0.029 0.039 0.043c0.011 0.012 0.021 0.023 0.032 0.035s0.021 0.023 0.032 0.035c0.013 0.014 0.026 0.028 0.039 0.042s0.026 0.028 0.039 0.042c0.011 0.012 0.022 0.023 0.033 0.035s0.022 0.023 0.033 0.034c0.013 0.014 0.026 0.027 0.040 0.041s0.027 0.027 0.040 0.041c0.011 0.011 0.022 0.023 0.034 0.034s0.022 0.023 0.034 0.034c0.013 0.013 0.027 0.027 0.040 0.040s0.027 0.027 0.040 0.040c0.011 0.011 0.023 0.023 0.034 0.034s0.023 0.023 0.034 0.034c0.013 0.013 0.027 0.026 0.041 0.039s0.027 0.026 0.041 0.039c0.012 0.011 0.023 0.022 0.035 0.034s0.023 0.022 0.035 0.033c0.014 0.013 0.027 0.026 0.041 0.038s0.028 0.026 0.041 0.038c0.012 0.011 0.024 0.022 0.036 0.033s0.024 0.022 0.036 0.033c0.014 0.013 0.028 0.025 0.042 0.038s0.028 0.025 0.042 0.038c0.012 0.011 0.024 0.022 0.036 0.032s0.024 0.022 0.036 0.032c0.014 0.012 0.028 0.025 0.042 0.037s0.028 0.025 0.043 0.037c0.012 0.011 0.025 0.021 0.037 0.032s0.025 0.021 0.037 0.032c0.014 0.012 0.029 0.024 0.043 0.037s0.029 0.024 0.043 0.036c0.012 0.010 0.025 0.021 0.037 0.031s0.025 0.021 0.037 0.031c0.015 0.012 0.029 0.024 0.044 0.036s0.029 0.024 0.044 0.036c0.013 0.010 0.025 0.020 0.037 0.030s0.025 0.020 0.038 0.030c0.015 0.012 0.030 0.024 0.045 0.035s0.030 0.024 0.045 0.035c0.013 0.010 0.025 0.020 0.038 0.030s0.025 0.020 0.038 0.029c0.015 0.012 0.031 0.024 0.046 0.035s0.031 0.023 0.046 0.035c0.013 0.009 0.025 0.019 0.038 0.028s0.025 0.019 0.038 0.028c0.016 0.012 0.032 0.024 0.048 0.035s0.032 0.023 0.048 0.035c0.012 0.009 0.025 0.018 0.037 0.027s0.025 0.018 0.037 0.027c0.017 0.012 0.033 0.024 0.050 0.035s0.033 0.024 0.050 0.035c0.012 0.009 0.024 0.017 0.036 0.025s0.024 0.017 0.036 0.025c0.018 0.012 0.036 0.025 0.054 0.037s0.036 0.024 0.054 0.037c0.011 0.008 0.022 0.015 0.033 0.023s0.022 0.015 0.033 0.022c0.021 0.014 0.042 0.028 0.062 0.041s0.042 0.027 0.063 0.041c0.009 0.006 0.017 0.011 0.026 0.017s0.017 0.011 0.026 0.017c0.030 0.019 0.059 0.038 0.089 0.057s0.060 0.038 0.090 0.056c0.031 0.019 0.061 0.038 0.092 0.057s0.062 0.037 0.093 0.056c0 0 0.001 0.001 0.001 0.001s0.001 0.001 0.002 0.001 0.001 0.001 0.002 0.001 0.001 0.001 0.002 0.001c0.974 0.582 2.017 1.026 3.103 1.325s2.213 0.452 3.354 0.452c0.28 0 0.559-0.009 0.836-0.028s0.554-0.046 0.829-0.082c0 0 0 0 0-0s0-0 0-0c0.023-0.003 0.045-0.006 0.068-0.009s0.045-0.006 0.068-0.010c0-0 0.001-0 0.001-0s0.001-0 0.001-0c0.022-0.003 0.045-0.006 0.067-0.010s0.045-0.007 0.067-0.010c0.001-0 0.001-0 0.002-0s0.001-0 0.002-0c0.022-0.003 0.044-0.007 0.067-0.011s0.044-0.007 0.066-0.011c0.001-0 0.001-0 0.002-0s0.001-0 0.002-0c0.022-0.004 0.044-0.007 0.066-0.011s0.044-0.008 0.066-0.012c0.001-0 0.002-0 0.002-0s0.002-0 0.002-0c0.022-0.004 0.044-0.008 0.066-0.012s0.044-0.008 0.066-0.012c0.001-0 0.002-0 0.003-0s0.002-0 0.003-0c0.022-0.004 0.044-0.008 0.066-0.013s0.044-0.009 0.066-0.013c0.001-0 0.002-0 0.003-0.001s0.002-0 0.003-0c0.022-0.004 0.044-0.009 0.065-0.013s0.044-0.009 0.065-0.014c0.001-0 0.002-0 0.002-0s0.002-0 0.002-0c0.022-0.005 0.044-0.009 0.066-0.014s0.044-0.010 0.065-0.015c0.001-0 0.001-0 0.002-0s0.001-0 0.002-0c0.022-0.005 0.044-0.010 0.066-0.015s0.044-0.010 0.066-0.015c0.001-0 0.001-0 0.002-0s0.001-0 0.002-0c0.022-0.005 0.044-0.010 0.066-0.016s0.044-0.011 0.066-0.016c0-0 0.001-0 0.001-0s0.001-0 0.001-0c0.022-0.006 0.044-0.011 0.066-0.017s0.044-0.011 0.066-0.017c0-0 0-0 0.001-0s0-0 0.001-0c0.201-0.052 0.401-0.11 0.6-0.172s0.397-0.13 0.593-0.202l2.048 2.395-1.183-8.102zM14.354 5.8c2.083 0 4.12 0.567 5.892 1.639 1.637 0.99 3.002 2.379 3.965 4.028l-4.002 0.584c-0.726-0.804-1.59-1.441-2.57-1.895-1.050-0.486-2.173-0.733-3.339-0.733-0.199 0-0.402 0.008-0.616 0.025l-2.348-3.243c0.983-0.269 1.996-0.406 3.018-0.406zM3.325 14.278c0.245-0.922 0.606-1.813 1.075-2.647 0.057-0.102 0.116-0.203 0.176-0.303 0.004-0.006 0.007-0.012 0.011-0.018 0.026-0.043 0.052-0.086 0.079-0.128 0.007-0.011 0.014-0.023 0.021-0.034 0.023-0.037 0.047-0.074 0.071-0.111 0.009-0.014 0.018-0.028 0.027-0.042 0.022-0.034 0.045-0.068 0.067-0.102 0.010-0.016 0.021-0.031 0.031-0.047 0.022-0.032 0.043-0.064 0.065-0.096 0.011-0.016 0.023-0.033 0.034-0.049 0.021-0.031 0.043-0.061 0.064-0.092 0.012-0.017 0.024-0.034 0.037-0.051 0.021-0.030 0.043-0.059 0.064-0.089 0.013-0.017 0.026-0.035 0.038-0.052 0.021-0.029 0.043-0.057 0.064-0.086 0.013-0.018 0.027-0.035 0.040-0.053 0.022-0.028 0.043-0.056 0.065-0.084 0.014-0.018 0.028-0.035 0.041-0.053 0.022-0.028 0.044-0.055 0.066-0.082 0.014-0.017 0.028-0.035 0.042-0.052 0.022-0.027 0.045-0.054 0.067-0.081 0.014-0.017 0.029-0.034 0.043-0.052 0.023-0.027 0.046-0.054 0.069-0.081 0.014-0.017 0.029-0.034 0.043-0.050 0.023-0.027 0.047-0.054 0.071-0.081 0.014-0.016 0.028-0.032 0.043-0.048 0.025-0.028 0.050-0.055 0.074-0.082 0.014-0.015 0.027-0.030 0.041-0.045 0.026-0.029 0.053-0.057 0.080-0.086 0.013-0.013 0.025-0.027 0.038-0.040 0.031-0.033 0.062-0.065 0.094-0.097 0.009-0.009 0.017-0.018 0.026-0.027 0.040-0.041 0.081-0.082 0.122-0.123 0.002-0.002 0.004-0.004 0.007-0.007 0.038-0.038 0.077-0.076 0.116-0.113 0.014-0.013 0.028-0.027 0.042-0.040 0.027-0.026 0.055-0.052 0.082-0.078 0.017-0.016 0.034-0.032 0.052-0.048 0.025-0.023 0.049-0.046 0.074-0.068 0.019-0.017 0.038-0.034 0.057-0.051 0.024-0.021 0.047-0.043 0.071-0.063 0.020-0.018 0.040-0.035 0.060-0.052 0.023-0.020 0.046-0.040 0.070-0.060 0.021-0.018 0.042-0.035 0.062-0.053 0.023-0.019 0.046-0.039 0.069-0.058 0.021-0.018 0.043-0.035 0.064-0.053 0.023-0.019 0.045-0.037 0.068-0.056s0.044-0.035 0.066-0.053c0.023-0.018 0.045-0.036 0.068-0.054s0.045-0.035 0.068-0.053c0.023-0.017 0.045-0.035 0.068-0.052s0.046-0.035 0.070-0.052c0.023-0.017 0.045-0.034 0.068-0.050 0.024-0.017 0.047-0.035 0.071-0.052 0.023-0.016 0.045-0.032 0.068-0.048 0.024-0.017 0.048-0.034 0.073-0.051 0.023-0.016 0.045-0.031 0.068-0.047 0.025-0.017 0.049-0.034 0.074-0.051 0.006-0.004 0.013-0.009 0.019-0.013l0.792 3.904c-0.751 0.721-1.345 1.566-1.766 2.515-0.453 1.019-0.682 2.105-0.682 3.228 0 0.254 0.013 0.514 0.039 0.777l-2.901 2.477c-0.124-0.394-0.227-0.792-0.308-1.195-0-0.002-0.001-0.004-0.001-0.006-0.007-0.036-0.014-0.072-0.021-0.108-0.001-0.003-0.001-0.006-0.002-0.009-0.007-0.035-0.013-0.071-0.020-0.106-0.001-0.003-0.001-0.006-0.002-0.009-0.006-0.036-0.013-0.072-0.019-0.108-0-0.002-0.001-0.004-0.001-0.006-0.104-0.621-0.156-1.25-0.156-1.884 0-0.994 0.128-1.98 0.381-2.931zM16.873 28.338c-0.003 0.001-0.006 0.001-0.009 0.002-0.035 0.008-0.069 0.015-0.104 0.023-0.008 0.002-0.015 0.003-0.023 0.005-0.030 0.006-0.060 0.013-0.090 0.019-0.011 0.002-0.021 0.004-0.032 0.006-0.027 0.005-0.054 0.011-0.081 0.016-0.013 0.003-0.026 0.005-0.039 0.007-0.025 0.005-0.049 0.009-0.074 0.014-0.015 0.003-0.030 0.005-0.044 0.008-0.022 0.004-0.045 0.008-0.067 0.012-0.017 0.003-0.033 0.006-0.050 0.009-0.020 0.003-0.040 0.007-0.061 0.010-0.019 0.003-0.037 0.006-0.056 0.009-0.017 0.003-0.035 0.005-0.052 0.008-0.021 0.003-0.043 0.007-0.064 0.010-0.013 0.002-0.026 0.004-0.038 0.006-0.208 0.030-0.417 0.054-0.627 0.073-0.002 0-0.003 0-0.005 0-0.035 0.003-0.070 0.006-0.106 0.009-0.002 0-0.004 0-0.006 0-0.035 0.003-0.071 0.005-0.106 0.008-0.002 0-0.003 0-0.005 0-0.036 0.002-0.072 0.005-0.108 0.007-0 0-0.001 0-0.002 0-0.223 0.013-0.446 0.019-0.67 0.019-2.083 0-4.12-0.567-5.893-1.638-0.095-0.057-0.189-0.116-0.282-0.176-0.008-0.005-0.016-0.010-0.024-0.015-0.037-0.024-0.073-0.048-0.11-0.072-0.014-0.010-0.029-0.019-0.044-0.029-0.034-0.022-0.067-0.045-0.1-0.068-0.017-0.012-0.034-0.023-0.052-0.035-0.031-0.022-0.063-0.044-0.094-0.066-0.019-0.013-0.037-0.026-0.056-0.040-0.030-0.022-0.060-0.044-0.090-0.066-0.019-0.014-0.039-0.028-0.058-0.043-0.029-0.022-0.058-0.043-0.087-0.065-0.020-0.015-0.040-0.030-0.059-0.045-0.028-0.022-0.056-0.044-0.084-0.066-0.020-0.016-0.040-0.031-0.060-0.047-0.027-0.022-0.055-0.044-0.082-0.066-0.020-0.016-0.040-0.033-0.060-0.049-0.027-0.022-0.053-0.044-0.080-0.066-0.020-0.017-0.040-0.034-0.061-0.051-0.026-0.022-0.052-0.044-0.078-0.067-0.020-0.017-0.040-0.035-0.061-0.053-0.026-0.022-0.051-0.045-0.076-0.067-0.020-0.018-0.040-0.036-0.060-0.054-0.025-0.023-0.050-0.045-0.075-0.068-0.020-0.019-0.040-0.037-0.060-0.056-0.024-0.023-0.049-0.046-0.073-0.069-0.020-0.019-0.040-0.038-0.060-0.057-0.024-0.023-0.048-0.046-0.071-0.069-0.020-0.020-0.040-0.039-0.059-0.059-0.023-0.023-0.047-0.046-0.070-0.070-0.020-0.020-0.040-0.041-0.059-0.061-0.023-0.023-0.045-0.047-0.068-0.070-0.020-0.021-0.040-0.042-0.059-0.063-0.022-0.023-0.044-0.046-0.066-0.070-0.020-0.022-0.040-0.044-0.061-0.066s-0.042-0.045-0.062-0.068c-0.022-0.025-0.044-0.050-0.066-0.075-0.028-0.032-0.057-0.064-0.085-0.097-0.029-0.034-0.058-0.068-0.087-0.102-0.016-0.019-0.033-0.039-0.049-0.059-0.023-0.027-0.046-0.055-0.068-0.082-0.017-0.021-0.034-0.042-0.050-0.063-0.021-0.027-0.043-0.053-0.064-0.080-0.017-0.022-0.034-0.043-0.050-0.065-0.021-0.027-0.041-0.053-0.062-0.080-0.017-0.022-0.033-0.044-0.050-0.066-0.020-0.027-0.040-0.054-0.060-0.081-0.016-0.022-0.032-0.044-0.049-0.067-0.020-0.027-0.040-0.055-0.059-0.082-0.016-0.022-0.032-0.045-0.047-0.067-0.019-0.028-0.039-0.055-0.058-0.083-0.016-0.023-0.031-0.045-0.046-0.068-0.019-0.028-0.038-0.056-0.057-0.084-0.015-0.023-0.030-0.046-0.045-0.068-0.019-0.029-0.037-0.057-0.056-0.086-0.015-0.023-0.029-0.046-0.044-0.069-0.018-0.029-0.037-0.058-0.055-0.087-0.014-0.023-0.028-0.046-0.043-0.069-0.018-0.029-0.036-0.059-0.053-0.088-0.014-0.023-0.028-0.046-0.041-0.069-0.007-0.012-0.014-0.025-0.022-0.037l3.635-0.531c0.719 0.879 1.631 1.607 2.645 2.109 1.101 0.545 2.287 0.822 3.524 0.822 0.385 0 0.776-0.029 1.164-0.086l2.396 2.801c-0.325 0.105-0.654 0.196-0.987 0.271zM12.904 20.893l1.372-2.28 2.276 4.090-1.438-4.468 2.57 0.679-2.259-1.534 3.944-2.211-4.33 1.392 0.583-2.743-1.403 2.441-2.395-3.866 1.593 4.209-2.836-0.588 2.488 1.416-3.956 2.275 4.303-1.436-0.515 2.622-0.054-0.063-9.903 1.446 7.595-6.486-2.559-12.607 7.627 10.447 9.921-1.448-7.552 6.429 1.446 9.907-6.519-7.622zM25.938 20.839c-0.733 0-1.358 0.259-1.876 0.777s-0.777 1.144-0.777 1.876c0 0.733 0.259 1.358 0.777 1.876s1.144 0.777 1.876 0.777 1.358-0.259 1.876-0.777c0.518-0.518 0.777-1.144 0.777-1.876s-0.259-1.358-0.777-1.876c-0.518-0.518-1.144-0.777-1.876-0.777zM30.779 28.949c-0.016-0.233-0.048-0.484-0.097-0.753s-0.109-0.52-0.183-0.75-0.173-0.455-0.297-0.674c-0.124-0.219-0.267-0.405-0.428-0.56s-0.358-0.278-0.591-0.37-0.49-0.138-0.771-0.138c-0.041 0-0.138 0.050-0.29 0.149s-0.324 0.21-0.515 0.332c-0.191 0.122-0.44 0.233-0.746 0.332s-0.614 0.149-0.923 0.149c-0.309 0-0.616-0.050-0.923-0.149s-0.555-0.21-0.746-0.332c-0.191-0.122-0.363-0.233-0.515-0.332s-0.249-0.149-0.29-0.149c-0.281 0-0.538 0.046-0.771 0.138s-0.43 0.215-0.591 0.37c-0.161 0.154-0.304 0.341-0.428 0.56s-0.223 0.443-0.297 0.674c-0.074 0.23-0.135 0.48-0.183 0.75s-0.081 0.521-0.097 0.753c-0.016 0.233-0.024 0.471-0.024 0.715 0 0.553 0.168 0.989 0.505 1.31s0.783 0.48 1.341 0.48h6.040c0.558 0 1.004-0.16 1.341-0.48s0.505-0.757 0.505-1.31c-0-0.244-0.008-0.483-0.024-0.715z"></path>
</svg>
