<!-- Generated by IcoMoon.io -->
<svg version="1.1" xmlns="http://www.w3.org/2000/svg" width="32" height="32" viewBox="0 0 32 32">
<title>osm</title>
<path d="M30.126 19.191c-0.321 0.271-0.656 0.527-1.002 0.765-0.345 0.237-0.701 0.457-1.068 0.659s-0.744 0.386-1.13 0.551c-0.403 0.172-0.815 0.324-1.233 0.454-0.42 0.131-0.848 0.239-1.28 0.325s-0.869 0.149-1.308 0.189c-0.389 0.036-0.779 0.053-1.17 0.053-0.432 0-0.865-0.022-1.295-0.065s-0.857-0.108-1.28-0.195c-0.424-0.086-0.845-0.194-1.259-0.321-0.417-0.129-0.828-0.278-1.23-0.446-0.203-0.085-0.404-0.175-0.602-0.269-0.050-0.024-0.099-0.048-0.149-0.072-0.006-0.003-0.051-0.029-0.054-0.026s-0.004 0.004-0.007 0.007c-0.029 0.029-0.058 0.057-0.088 0.086-0.066 0.065-0.133 0.13-0.199 0.195-0.006 0.006-0 0.016 0.001 0.023 0.004 0.030 0.008 0.060 0.012 0.090 0.007 0.058 0.013 0.116 0.018 0.174 0.009 0.116 0.014 0.233 0.014 0.35-0.001 0.44-0.073 0.879-0.212 1.296-0.131 0.391-0.319 0.762-0.559 1.098-0.152 0.213-0.325 0.41-0.513 0.592-0.054 0.052-0.107 0.104-0.161 0.156-0.103 0.1-0.206 0.2-0.31 0.299-0.139 0.135-0.278 0.269-0.418 0.404-0.162 0.156-0.323 0.313-0.485 0.469-0.17 0.165-0.341 0.33-0.511 0.494-0.166 0.16-0.331 0.32-0.497 0.48-0.147 0.142-0.294 0.285-0.442 0.427-0.115 0.111-0.23 0.223-0.346 0.334-0.070 0.067-0.139 0.135-0.209 0.202-0.014 0.014-0.029 0.028-0.043 0.042 0.063-0.015 0.127-0.030 0.19-0.045 0.162-0.038 0.323-0.076 0.485-0.114 0.217-0.051 0.434-0.102 0.65-0.152 0.229-0.054 0.458-0.107 0.686-0.161 0.198-0.046 0.395-0.093 0.593-0.139 0.123-0.029 0.247-0.058 0.37-0.087 0.020-0.005 0.041-0.010 0.061-0.014 0.005-0.001 0.014 0.003 0.018 0.004 0.054 0.012 0.107 0.023 0.161 0.035 0.103 0.022 0.206 0.045 0.309 0.067 0.144 0.031 0.289 0.063 0.433 0.094 0.178 0.039 0.355 0.078 0.533 0.116 0.203 0.044 0.406 0.089 0.609 0.133 0.221 0.048 0.441 0.096 0.662 0.144 0.23 0.050 0.461 0.1 0.691 0.151 0.232 0.051 0.464 0.101 0.696 0.152 0.226 0.049 0.451 0.098 0.677 0.148 0.211 0.046 0.423 0.092 0.634 0.138 0.189 0.041 0.378 0.082 0.568 0.124 0.159 0.035 0.318 0.069 0.477 0.104 0.121 0.026 0.242 0.053 0.363 0.079 0.075 0.016 0.15 0.033 0.225 0.049 0.022 0.005 0.043 0.009 0.065 0.014-0.001 0.003-0.001 0.005-0.002 0.008 0.010-0.002 0.017-0.004 0.027-0.002s0.009 0.003 0.011-0.007c0-0 0-0 0-0s0.001-0 0.002-0c0.004-0.001 0.008-0.002 0.012-0.003 0.019-0.004 0.037-0.008 0.056-0.012 0.075-0.017 0.15-0.033 0.225-0.050 0.12-0.027 0.239-0.053 0.359-0.080 0.157-0.035 0.314-0.070 0.471-0.104 0.187-0.041 0.373-0.083 0.56-0.124 0.209-0.046 0.418-0.093 0.627-0.139 0.224-0.050 0.447-0.099 0.671-0.149 0.231-0.051 0.462-0.103 0.693-0.154s0.462-0.103 0.694-0.154c0.224-0.050 0.447-0.099 0.671-0.149 0.209-0.046 0.418-0.093 0.627-0.139 0.187-0.041 0.373-0.083 0.56-0.124 0.157-0.035 0.314-0.070 0.471-0.104 0.12-0.027 0.239-0.053 0.359-0.080 0.075-0.017 0.15-0.033 0.225-0.050 0.019-0.004 0.037-0.008 0.056-0.012 0.002-0 0.014-0.002 0.015-0.004 0.008-0.034 0.016-0.068 0.024-0.102 0.020-0.086 0.040-0.172 0.060-0.257 0.030-0.13 0.060-0.26 0.090-0.389 0.038-0.166 0.077-0.332 0.115-0.498 0.045-0.194 0.090-0.388 0.135-0.582 0.050-0.214 0.099-0.429 0.149-0.643 0.053-0.227 0.105-0.454 0.158-0.681 0.054-0.232 0.107-0.463 0.161-0.695 0.053-0.228 0.106-0.457 0.159-0.685 0.050-0.217 0.101-0.434 0.151-0.651 0.046-0.198 0.092-0.396 0.138-0.594 0.040-0.171 0.079-0.342 0.119-0.514 0.032-0.136 0.063-0.273 0.095-0.409 0.022-0.094 0.044-0.188 0.065-0.282 0.010-0.043 0.020-0.087 0.030-0.13 0-0.002 0.001-0.003 0.001-0.005 0.001-0.006 0.039-0.011 0.045-0.013-0.038-0.146-0.076-0.293-0.114-0.439-0.040-0.153-0.079-0.307-0.119-0.46zM1.123 2.577c0.116 0.462 0.232 0.923 0.349 1.385s0.232 0.923 0.349 1.385c0.058 0.231 0.116 0.462 0.174 0.692 0.043 0.169 0.070 0.342 0.083 0.516 0.029 0.365 0.002 0.734-0.053 1.096-0.058 0.385-0.148 0.764-0.251 1.14-0.103 0.379-0.22 0.753-0.335 1.128-0.108 0.352-0.216 0.704-0.306 1.060-0.053 0.212-0.101 0.425-0.151 0.637-0.054 0.231-0.109 0.462-0.163 0.694s-0.109 0.462-0.163 0.694c-0.053 0.227-0.11 0.454-0.16 0.682-0.026 0.117-0.027 0.239-0.018 0.358 0.011 0.144 0.036 0.286 0.068 0.427 0.073 0.321 0.177 0.634 0.286 0.944 0.102 0.29 0.211 0.577 0.304 0.87 0.048 0.149 0.085 0.3 0.123 0.451 0.058 0.23 0.115 0.461 0.173 0.691 0.115 0.461 0.23 0.921 0.345 1.382 0.057 0.229 0.116 0.457 0.171 0.686 0.044 0.187 0.083 0.376 0.105 0.566 0.018 0.158 0.024 0.316 0.015 0.475-0.009 0.16-0.033 0.319-0.064 0.477-0.047 0.237-0.107 0.472-0.167 0.707 0.342-0.331 0.684-0.662 1.026-0.993s0.684-0.662 1.026-0.993 0.684-0.662 1.026-0.993 0.684-0.662 1.026-0.993c0.287-0.278 0.575-0.556 0.862-0.834 0.287-0.272 0.614-0.502 0.966-0.683s0.729-0.312 1.117-0.39c0.18-0.036 0.362-0.053 0.545-0.058 0.156-0.004 0.313-0.001 0.469-0.012 0.147-0.011 0.293-0.038 0.43-0.097 0.075-0.033 0.146-0.074 0.212-0.122 0.037-0.027 0.073-0.056 0.107-0.086 0.014-0.012 0.033-0.024 0.042-0.041 0.019-0.036 0.008-0.089 0.002-0.126-0.012-0.077-0.032-0.153-0.053-0.228-0.062-0.22-0.14-0.435-0.218-0.65-0.088-0.242-0.181-0.483-0.273-0.724-0.073-0.192-0.148-0.383-0.216-0.576-0.022-0.061-0.042-0.123-0.058-0.186-0.057-0.224-0.107-0.449-0.152-0.676-0.089-0.453-0.154-0.911-0.195-1.371-0.038-0.43-0.054-0.861-0.048-1.293 0.005-0.366 0.026-0.732 0.063-1.096 0.037-0.361 0.090-0.721 0.158-1.077 0.068-0.354 0.152-0.706 0.25-1.053 0.098-0.346 0.212-0.687 0.34-1.023s0.271-0.664 0.428-0.986c0.157-0.322 0.328-0.637 0.513-0.944s0.384-0.606 0.596-0.896c0.213-0.291 0.438-0.571 0.676-0.842 0.239-0.272 0.491-0.533 0.754-0.781 0.265-0.251 0.543-0.49 0.83-0.715 0.145-0.114 0.293-0.224 0.443-0.331-0.249-0.1-0.531-0.092-0.792-0.059-0.321 0.041-0.636 0.126-0.945 0.222s-0.613 0.206-0.919 0.313c-0.13 0.045-0.261 0.090-0.393 0.131-0.139 0.043-0.281 0.076-0.422 0.116-0.377 0.107-0.748 0.234-1.121 0.356-0.386 0.126-0.774 0.249-1.169 0.343-0.366 0.087-0.741 0.153-1.119 0.151-0.387-0.002-0.773-0.067-1.15-0.152-0.401-0.091-0.796-0.206-1.191-0.322-0.373-0.109-0.746-0.221-1.126-0.306-0.464-0.103-0.929-0.206-1.393-0.309s-0.93-0.206-1.394-0.31c-0.325-0.072-0.651-0.145-0.976-0.217 0.116 0.462 0.233 0.923 0.349 1.385s0.232 0.923 0.349 1.385zM7.061 16.671c0.012-0.011 0.010-0.010 0 0v0zM6.899 16.824c-0.013 0.012-0.025 0.023-0.036 0.034 0.013-0.012 0.024-0.023 0.036-0.034zM29.047 2.904c3.925 3.82-1.963-1.91 0 0v0zM31.968 9.159c-0.023-0.325-0.062-0.649-0.117-0.969-0.056-0.322-0.128-0.641-0.216-0.956-0.089-0.317-0.194-0.629-0.315-0.935-0.122-0.309-0.261-0.612-0.415-0.907-0.156-0.299-0.327-0.589-0.514-0.87-0.189-0.286-0.394-0.561-0.613-0.826-0.223-0.27-0.461-0.528-0.712-0.774-0.006-0.006-0.013-0.012-0.019-0.019-0.288-0.28-0.593-0.544-0.913-0.788-0.314-0.24-0.642-0.46-0.982-0.661-0.335-0.198-0.682-0.377-1.038-0.535-0.353-0.157-0.715-0.293-1.083-0.409-0.366-0.115-0.739-0.209-1.116-0.282-0.16-0.031-0.321-0.058-0.483-0.082-0.497-0.076-1.007-0.116-1.526-0.116-1.082 0-2.124 0.172-3.1 0.491-0.006 0.002-0.011 0.004-0.017 0.005-0.044 0.014-0.087 0.028-0.131 0.043-0.020 0.007-0.040 0.013-0.060 0.020-0.039 0.013-0.078 0.027-0.118 0.041-0.025 0.009-0.051 0.018-0.076 0.027-0.034 0.012-0.069 0.025-0.103 0.038-0.030 0.011-0.060 0.023-0.090 0.034s-0.061 0.024-0.092 0.036c-0.012 0.005-0.025 0.010-0.038 0.015-0.028 0.011-0.056 0.023-0.085 0.035-0.013 0.006-0.027 0.011-0.040 0.016-0.055 0.023-0.109 0.046-0.164 0.070-0.016 0.007-0.032 0.014-0.047 0.021-0.042 0.019-0.083 0.038-0.125 0.057-0.017 0.008-0.034 0.015-0.050 0.023-0.054 0.025-0.108 0.051-0.161 0.077-0.010 0.005-0.021 0.010-0.031 0.015-0.045 0.022-0.090 0.045-0.135 0.068-0.017 0.009-0.034 0.018-0.051 0.027-0.045 0.024-0.090 0.047-0.135 0.072-0.009 0.005-0.019 0.010-0.029 0.015-0.001 0.001-0.003 0.001-0.004 0.002-0.051 0.028-0.103 0.057-0.154 0.086-0.016 0.009-0.032 0.018-0.048 0.028-0.040 0.023-0.080 0.046-0.12 0.070-0.015 0.009-0.030 0.018-0.045 0.027-0.052 0.031-0.103 0.062-0.154 0.094-0.012 0.008-0.025 0.016-0.037 0.023-0.041 0.026-0.082 0.052-0.123 0.079-0.016 0.010-0.032 0.021-0.048 0.031-0.049 0.032-0.097 0.065-0.146 0.098-0.004 0.003-0.008 0.005-0.012 0.008-0.040 0.027-0.079 0.055-0.118 0.082-0.010 0.007-0.020 0.014-0.030 0.022-0.015 0.011-0.031 0.022-0.046 0.033-0.040 0.029-0.079 0.058-0.119 0.087-0.012 0.009-0.024 0.018-0.036 0.027-0.049 0.037-0.098 0.075-0.147 0.113-0.013 0.010-0.025 0.020-0.038 0.030-0.038 0.030-0.076 0.061-0.114 0.092-0.014 0.011-0.028 0.023-0.042 0.034-0.048 0.040-0.096 0.080-0.144 0.12-0.006 0.005-0.011 0.010-0.017 0.015-0.043 0.037-0.086 0.074-0.128 0.112-0.013 0.012-0.027 0.024-0.040 0.036s-0.025 0.022-0.038 0.034c-0.034 0.031-0.068 0.062-0.101 0.093-0.001 0.001-0.001 0.001-0.002 0.002-0.044 0.041-0.088 0.083-0.132 0.125-0.008 0.007-0.016 0.015-0.023 0.022 0.008-0.007 0.015-0.015 0.023-0.022-0.186 0.18-0.364 0.367-0.534 0.562-0.226 0.259-0.436 0.53-0.631 0.813-0.192 0.279-0.368 0.568-0.528 0.867-0.158 0.296-0.301 0.6-0.426 0.911-0.075 0.186-0.144 0.373-0.207 0.563-0.388 1.066-0.6 2.217-0.6 3.417 0 2.138 0.672 4.119 1.817 5.744-0.076 0.076-0.152 0.152-0.228 0.228-0.125 0.125-0.25 0.25-0.375 0.375-0.152 0.152-0.305 0.305-0.457 0.457-0.166 0.166-0.332 0.332-0.498 0.498s-0.332 0.332-0.498 0.498c-0.152 0.152-0.305 0.305-0.457 0.457-0.125 0.125-0.25 0.25-0.375 0.375-0.084 0.084-0.168 0.168-0.252 0.252-0.029 0.029-0.058 0.058-0.088 0.088-0.082-0.082-0.164-0.164-0.246-0.246-0.162-0.162-0.324-0.324-0.485-0.485-0.115-0.115-0.23-0.23-0.345-0.345-0.007-0.007-0.013-0.013-0.020-0.020-0.073 0.073-0.146 0.146-0.219 0.219-0.157 0.157-0.314 0.314-0.471 0.471-0.147 0.147-0.295 0.295-0.442 0.442-0.041 0.041-0.082 0.082-0.123 0.123-0.007 0.007-0.014 0.014-0.021 0.021-0.003 0.003-0.006-0.008-0.010-0.004-0.020 0.019-0.040 0.039-0.060 0.058-0.048 0.046-0.095 0.092-0.143 0.138-0.072 0.070-0.144 0.14-0.217 0.21-0.094 0.091-0.188 0.182-0.282 0.273-0.113 0.11-0.227 0.219-0.34 0.329-0.13 0.125-0.26 0.251-0.389 0.377-0.143 0.139-0.287 0.277-0.43 0.416-0.154 0.149-0.309 0.299-0.463 0.448-0.163 0.157-0.325 0.314-0.488 0.472-0.168 0.163-0.336 0.325-0.504 0.488-0.171 0.165-0.341 0.33-0.512 0.495s-0.341 0.33-0.512 0.495c-0.168 0.162-0.336 0.325-0.503 0.487-0.162 0.157-0.325 0.314-0.487 0.471-0.154 0.149-0.308 0.298-0.462 0.447-0.143 0.138-0.286 0.276-0.429 0.415-0.129 0.125-0.258 0.25-0.387 0.375-0.113 0.109-0.225 0.218-0.338 0.327-0.093 0.090-0.186 0.18-0.28 0.27-0.071 0.069-0.142 0.138-0.213 0.206-0.046 0.045-0.093 0.090-0.139 0.135-0.019 0.018-0.038 0.036-0.056 0.055-0.211 0.204-0.366 0.462-0.442 0.746-0.085 0.315-0.070 0.654 0.040 0.961 0.087 0.241 0.231 0.454 0.415 0.632 0.082 0.079 0.163 0.159 0.245 0.238 0.148 0.144 0.297 0.289 0.445 0.433 0.169 0.164 0.337 0.328 0.506 0.492 0.142 0.138 0.284 0.276 0.426 0.414 0.068 0.067 0.137 0.133 0.205 0.2 0.279 0.271 0.64 0.436 1.026 0.477 0.162 0.017 0.328 0.009 0.489-0.022 0.053-0.010 0.106-0.023 0.158-0.038 0.103-0.030 0.202-0.070 0.298-0.118 0.098-0.049 0.188-0.11 0.276-0.175 0.061-0.046 0.117-0.099 0.171-0.152 0.038-0.037 0.076-0.074 0.115-0.111 0.063-0.061 0.127-0.122 0.19-0.184 0.086-0.083 0.171-0.166 0.257-0.249 0.106-0.102 0.211-0.204 0.317-0.306 0.123-0.119 0.246-0.238 0.368-0.356 0.137-0.133 0.275-0.266 0.412-0.399 0.149-0.145 0.299-0.289 0.448-0.433 0.159-0.154 0.317-0.307 0.476-0.461 0.165-0.16 0.331-0.32 0.496-0.48 0.17-0.164 0.339-0.328 0.509-0.492 0.171-0.165 0.342-0.331 0.513-0.496 0.17-0.164 0.34-0.329 0.51-0.493 0.166-0.161 0.332-0.321 0.498-0.482 0.16-0.154 0.319-0.309 0.479-0.463 0.151-0.146 0.301-0.291 0.452-0.437 0.139-0.134 0.278-0.269 0.417-0.404 0.125-0.121 0.25-0.241 0.374-0.362 0.108-0.104 0.216-0.209 0.324-0.313 0.088-0.085 0.177-0.171 0.265-0.256 0.066-0.064 0.133-0.128 0.199-0.192 0.041-0.040 0.083-0.080 0.124-0.12 0.014-0.014 0.028-0.027 0.042-0.041-0.010-0.010-0.020-0.019-0.030-0.029 0.085-0.085 0.17-0.17 0.255-0.255 0.162-0.162 0.324-0.324 0.487-0.487 0.1-0.1 0.199-0.199 0.299-0.299 0.001-0.001 0.002-0.002 0.004-0.003-0.082-0.082-0.164-0.164-0.246-0.246-0.162-0.162-0.324-0.324-0.486-0.486-0.115-0.115-0.23-0.23-0.345-0.345-0.007-0.007-0.013-0.013-0.020-0.020-0-0 0.006-0.006 0.006-0.006 0.016-0.016 0.032-0.032 0.048-0.048 0.074-0.074 0.149-0.149 0.223-0.223 0.119-0.119 0.237-0.237 0.356-0.356 0.149-0.149 0.298-0.298 0.447-0.447 0.165-0.165 0.33-0.33 0.495-0.495 0.167-0.167 0.333-0.333 0.5-0.5 0.154-0.154 0.309-0.309 0.463-0.463 0.128-0.128 0.255-0.255 0.383-0.383 0.080-0.080 0.161-0.16 0.241-0.241 1.716 1.393 3.904 2.228 6.287 2.228 4.348 0 8.046-2.779 9.416-6.658 0.043-0.109 0.084-0.218 0.123-0.328 0.109-0.31 0.202-0.625 0.279-0.944 0.076-0.317 0.137-0.639 0.18-0.962 0.043-0.322 0.070-0.647 0.081-0.972s0.004-0.651-0.018-0.975zM22.030 17.27c-3.981 0-7.208-3.227-7.208-7.208s3.227-7.208 7.208-7.208c3.981 0 7.208 3.227 7.208 7.208s-3.227 7.208-7.208 7.208z"></path>
</svg>
