<!-- Generated by IcoMoon.io -->
<svg version="1.1" xmlns="http://www.w3.org/2000/svg" width="32" height="32" viewBox="0 0 32 32">
<title>pan-hand</title>
<path d="M22.529 12.001l0.015-0.001c-0.006-0.027-0.011-0.054-0.015-0.082v0.082zM28.070 7.183c0-0.86-0.286-1.668-0.807-2.277-0.524-0.613-1.221-0.951-1.964-0.951-0.451 0-0.884 0.124-1.273 0.359-0.070-0.719-0.344-1.385-0.788-1.905-0.524-0.613-1.221-0.951-1.964-0.951-0.518 0-1.014 0.165-1.445 0.472-0.137-0.413-0.346-0.791-0.622-1.114-0.524-0.613-1.221-0.951-1.964-0.951s-1.44 0.338-1.964 0.951c-0.199 0.233-0.364 0.495-0.491 0.778-0.466-0.432-1.017-0.665-1.595-0.665-0.759 0-1.472 0.401-2.007 1.13-0.532 0.724-0.824 1.685-0.824 2.707l0 9.448c-0.898-0.29-1.597-0.435-3.021-0.435-1.908 0-3.46 1.809-3.46 4.033s1.552 4.033 3.46 4.033c1.24 0 2.187 0.263 2.982 0.827 0.702 0.498 1.321 1.244 2.072 2.492 0.008 0.013 0.016 0.026 0.024 0.040h-2.133v5.839h16.227v-5.839h-1.419c0.117-1.736 0.538-2.217 1.070-2.823 0.428-0.489 0.962-1.097 1.353-2.203 0.408-1.153 0.598-2.649 0.598-4.709v-1.903l-0.047-6.383zM25.816 19.144c-0.28 0.727-0.649 1.134-0.974 1.493-0.057 0.063-0.111 0.122-0.165 0.184-0.706 0.805-1.505 1.716-1.689 4.383h-8.196c-0.204-0.451-0.425-0.873-0.655-1.256-0.923-1.536-1.818-2.568-2.815-3.25-0.553-0.378-1.137-0.651-1.786-0.837-0.665-0.189-1.382-0.281-2.192-0.281-0.716 0-1.344-0.798-1.344-1.709 0-0.894 0.615-1.65 1.344-1.65 1.736 0 2.377 0.241 3.653 0.721 0.281 0.106 0.599 0.225 0.964 0.356l0.004 0.001c0.019 0.006 0.037 0.012 0.055 0.017 0.004-0.375 0.007-0.726-0.009-1.091l-0.029-11.261c0-0.969 0.508-1.78 1.213-1.78s1.278 0.789 1.278 1.758l0 0.085v5.495l0.002-0.002v0.977l0.001-0.001v-5.56c0-0.421 0.341-0.762 0.762-0.762s0.762 0.341 0.762 0.762v4.165l0.026-1.179v-4.155c0-0.198-0.011-0.394-0.033-0.587l0.001-0.939c0-0.816 0.561-1.479 1.25-1.479s1.25 0.664 1.25 1.479l0 0.072v4.623l0.003-0.002v-2.176c0-0.421 0.341-0.762 0.762-0.762 0.379 0 0.694 0.277 0.752 0.64l0.013-0.802c0-0.816 0.561-1.479 1.25-1.479s1.25 0.664 1.25 1.479l0 0.072v1.295c0.025-0.398 0.356-0.713 0.76-0.713 0.421 0 0.762 0.341 0.762 0.762v1.127l0.002-0.046c0-0.816 0.561-1.479 1.25-1.479s1.25 0.664 1.25 1.479l0 0.072-0.075 6.282-0.076 2.019c0 0.267 0.001 0.524-0.009 0.769zM15.238 12.273c0.421 0 0.762-0.341 0.762-0.762v-5.575c0-0.421-0.341-0.762-0.762-0.762s-0.762 0.341-0.762 0.762v5.575c0 0.421 0.341 0.762 0.762 0.762zM19.26 12.094c0.421 0 0.762-0.341 0.762-0.762v-5.575c0-0.042-0.003-0.082-0.010-0.122-0.058-0.363-0.373-0.64-0.752-0.64-0.421 0-0.762 0.341-0.762 0.762v5.575c0 0.421 0.341 0.762 0.762 0.762zM22.523 11.824c0 0.032 0.002 0.063 0.006 0.094 0.003 0.028 0.008 0.055 0.015 0.082 0.079 0.336 0.381 0.586 0.742 0.586 0.421 0 0.762-0.341 0.762-0.762v-5.575c0-0.421-0.341-0.762-0.762-0.762-0.404 0-0.735 0.315-0.76 0.713-0.001 0.016-0.002 0.032-0.002 0.049v5.575z"></path>
</svg>
