<!-- Generated by IcoMoon.io -->
<svg version="1.1" xmlns="http://www.w3.org/2000/svg" width="32" height="32" viewBox="0 0 32 32">
<title>pan</title>
<path d="M30.827 15.455c0 0.287-0.105 0.535-0.314 0.745l-4.236 4.236c-0.21 0.21-0.458 0.314-0.745 0.314s-0.535-0.105-0.745-0.314c-0.21-0.21-0.314-0.458-0.314-0.745v-2.118h-6.354v6.355h2.118c0.287 0 0.535 0.105 0.745 0.314s0.314 0.458 0.314 0.745c0 0.287-0.105 0.535-0.314 0.745l-4.236 4.236c-0.21 0.21-0.458 0.314-0.745 0.314s-0.535-0.105-0.745-0.314l-4.236-4.236c-0.21-0.21-0.314-0.458-0.314-0.745s0.105-0.535 0.314-0.745c0.21-0.21 0.458-0.314 0.745-0.314h2.118v-6.355h-6.355v2.118c0 0.287-0.105 0.535-0.314 0.745s-0.458 0.314-0.745 0.314c-0.287 0-0.535-0.105-0.745-0.314l-4.236-4.236c-0.21-0.21-0.314-0.458-0.314-0.745s0.105-0.535 0.314-0.745l4.236-4.236c0.21-0.21 0.458-0.314 0.745-0.314s0.535 0.105 0.745 0.314c0.21 0.21 0.314 0.458 0.314 0.745v2.118h6.355v-6.355h-2.118c-0.287 0-0.535-0.105-0.745-0.314s-0.314-0.458-0.314-0.745c0-0.287 0.105-0.535 0.314-0.745l4.236-4.236c0.21-0.21 0.458-0.314 0.745-0.314s0.535 0.105 0.745 0.314l4.236 4.236c0.21 0.21 0.314 0.458 0.314 0.745s-0.105 0.535-0.314 0.745c-0.21 0.21-0.458 0.314-0.745 0.314h-2.118v6.355h6.355v-2.118c0-0.287 0.105-0.535 0.314-0.745s0.458-0.314 0.745-0.314c0.287 0 0.535 0.105 0.745 0.314l4.236 4.236c0.21 0.21 0.315 0.458 0.315 0.745z"></path>
</svg>
