<!-- Generated by IcoMoon.io -->
<svg version="1.1" xmlns="http://www.w3.org/2000/svg" width="32" height="32" viewBox="0 0 32 32">
<title>pdf-o</title>
<path d="M27.802 6.754c0.315 0.315 0.585 0.742 0.809 1.281s0.337 1.034 0.337 1.484v19.424c0 0.45-0.157 0.832-0.472 1.146s-0.697 0.472-1.147 0.472h-22.661c-0.45 0-0.832-0.157-1.147-0.472s-0.472-0.697-0.472-1.146v-26.977c0-0.45 0.157-0.832 0.472-1.147s0.697-0.472 1.147-0.472h15.107c0.45 0 0.944 0.112 1.484 0.337s0.967 0.495 1.281 0.809l5.261 5.261zM20.316 2.64v6.34h6.34c-0.112-0.326-0.236-0.556-0.371-0.691l-5.277-5.277c-0.135-0.135-0.365-0.259-0.691-0.371zM26.791 28.404v-17.265h-7.014c-0.45 0-0.832-0.157-1.147-0.472s-0.472-0.697-0.472-1.147v-7.014h-12.949v25.898h21.582zM18.124 18.405c0.371 0.292 0.843 0.607 1.416 0.944 0.663-0.079 1.321-0.118 1.973-0.118 1.652 0 2.647 0.275 2.984 0.826 0.18 0.247 0.191 0.54 0.034 0.877 0 0.011-0.006 0.022-0.017 0.034l-0.034 0.034v0.017c-0.067 0.427-0.466 0.641-1.197 0.641-0.54 0-1.186-0.112-1.939-0.337s-1.484-0.523-2.192-0.894c-2.484 0.27-4.687 0.736-6.609 1.399-1.72 2.945-3.080 4.418-4.080 4.418-0.169 0-0.326-0.039-0.472-0.118l-0.405-0.202c-0.011-0.011-0.045-0.039-0.101-0.084-0.112-0.112-0.146-0.315-0.101-0.607 0.101-0.45 0.416-0.964 0.944-1.543s1.27-1.121 2.226-1.627c0.157-0.101 0.287-0.067 0.388 0.101 0.022 0.022 0.034 0.045 0.034 0.067 0.585-0.956 1.186-2.063 1.804-3.322 0.764-1.529 1.349-3.001 1.754-4.417-0.27-0.922-0.441-1.818-0.514-2.689s-0.037-1.588 0.11-2.15c0.124-0.45 0.36-0.674 0.708-0.674h0.371c0.259 0 0.455 0.084 0.59 0.253 0.202 0.236 0.253 0.618 0.152 1.147-0.022 0.067-0.045 0.112-0.067 0.135 0.011 0.034 0.017 0.079 0.017 0.135v0.506c-0.022 1.383-0.101 2.462-0.236 3.237 0.618 1.843 1.439 3.181 2.462 4.013zM8.413 25.335c0.585-0.27 1.354-1.158 2.31-2.664-0.573 0.45-1.065 0.922-1.475 1.416s-0.688 0.91-0.835 1.248zM15.123 9.823c-0.169 0.472-0.18 1.214-0.034 2.226 0.011-0.079 0.051-0.326 0.118-0.742 0-0.034 0.039-0.275 0.118-0.725 0.011-0.045 0.034-0.090 0.067-0.135-0.011-0.011-0.017-0.022-0.017-0.034s-0.003-0.020-0.008-0.025c-0.006-0.006-0.008-0.014-0.008-0.025-0.011-0.247-0.084-0.45-0.219-0.607 0 0.011-0.006 0.022-0.017 0.034v0.034zM13.033 20.968c1.517-0.607 3.114-1.062 4.788-1.366-0.022-0.011-0.096-0.065-0.219-0.16s-0.214-0.171-0.27-0.228c-0.854-0.753-1.568-1.742-2.141-2.967-0.303 0.967-0.77 2.074-1.399 3.322-0.337 0.629-0.59 1.096-0.759 1.399zM23.925 20.698c-0.27-0.27-1.057-0.405-2.361-0.405 0.854 0.315 1.551 0.472 2.091 0.472 0.157 0 0.259-0.006 0.303-0.017 0-0.011-0.011-0.028-0.034-0.051z"></path>
</svg>
