<!-- Generated by IcoMoon.io -->
<svg version="1.1" xmlns="http://www.w3.org/2000/svg" width="32" height="32" viewBox="0 0 32 32">
<title>pdf</title>
<path d="M27.875 8.33l-6.921-6.921c-0.158-0.158-0.362-0.317-0.611-0.475v8.007h8.007c-0.158-0.249-0.317-0.452-0.475-0.611zM19.8 11.112c-0.452 0-0.837-0.158-1.154-0.475s-0.475-0.701-0.475-1.154v-9.229h-13.571c-0.452 0-0.837 0.158-1.154 0.475s-0.475 0.701-0.475 1.154v27.143c0 0.452 0.158 0.837 0.475 1.154s0.701 0.475 1.154 0.475h22.8c0.452 0 0.837-0.158 1.154-0.475s0.475-0.701 0.475-1.154v-17.914h-9.229zM24.133 21.408c0 0.011-0.005 0.021-0.016 0.032l-0.032 0.032v0.016c-0.064 0.407-0.445 0.611-1.141 0.611-0.514 0-1.13-0.107-1.848-0.321s-1.414-0.498-2.089-0.852c-2.368 0.257-4.468 0.702-6.3 1.334-1.639 2.807-2.936 4.211-3.889 4.211-0.161 0-0.311-0.038-0.45-0.113l-0.386-0.193c-0.011-0.011-0.043-0.038-0.096-0.080-0.107-0.107-0.139-0.3-0.096-0.579 0.096-0.429 0.396-0.919 0.9-1.471s1.211-1.069 2.121-1.551c0.15-0.096 0.273-0.064 0.37 0.096 0.021 0.021 0.032 0.043 0.032 0.064 0.557-0.911 1.13-1.966 1.72-3.166 0.729-1.457 1.286-2.861 1.671-4.211-0.257-0.879-0.421-1.733-0.49-2.563s-0.035-1.513 0.104-2.049c0.118-0.429 0.343-0.643 0.675-0.643h0.354c0.246 0 0.434 0.080 0.563 0.241 0.193 0.225 0.241 0.589 0.145 1.093-0.021 0.064-0.043 0.107-0.064 0.129 0.011 0.032 0.016 0.075 0.016 0.129v0.482c-0.021 1.318-0.096 2.346-0.225 3.086 0.589 1.757 1.371 3.032 2.346 3.825 0.354 0.279 0.804 0.579 1.35 0.9 0.632-0.075 1.259-0.112 1.88-0.112 1.575 0 2.523 0.262 2.845 0.788 0.171 0.236 0.182 0.514 0.032 0.836zM9.564 24.413c-0.391 0.471-0.656 0.868-0.796 1.189 0.557-0.257 1.291-1.104 2.202-2.539-0.546 0.429-1.015 0.879-1.406 1.35zM17.27 19.769c-0.814-0.718-1.495-1.661-2.041-2.829-0.289 0.921-0.734 1.977-1.334 3.166-0.321 0.6-0.563 1.045-0.723 1.334 1.446-0.579 2.968-1.012 4.564-1.302-0.021-0.011-0.091-0.062-0.209-0.153s-0.204-0.163-0.257-0.217zM15.245 12.231c0-0.032 0.037-0.262 0.113-0.691 0.011-0.043 0.032-0.086 0.064-0.129-0.011-0.011-0.016-0.021-0.016-0.032s-0.003-0.019-0.008-0.024c-0.005-0.005-0.008-0.013-0.008-0.024-0.011-0.236-0.080-0.429-0.209-0.579 0 0.011-0.005 0.021-0.016 0.032v0.032c-0.161 0.45-0.171 1.157-0.032 2.121 0.011-0.075 0.048-0.311 0.113-0.707zM21.304 20.797c0.814 0.3 1.479 0.45 1.993 0.45 0.15 0 0.246-0.005 0.289-0.016 0-0.011-0.011-0.027-0.032-0.048-0.257-0.257-1.007-0.386-2.25-0.386z"></path>
</svg>
