<!-- Generated by IcoMoon.io -->
<svg version="1.1" xmlns="http://www.w3.org/2000/svg" width="32" height="32" viewBox="0 0 32 32">
<title>permalink</title>
<path d="M30.629 24.077l-2.278-2.278c-0.613-0.613-1.358-0.92-2.234-0.92-0.891 0-1.65 0.321-2.278 0.964l-0.964-0.964c0.643-0.628 0.964-1.391 0.964-2.289 0-0.876-0.303-1.617-0.909-2.224l-2.256-2.267c-0.606-0.621-1.351-0.931-2.234-0.931-0.876 0-1.617 0.303-2.224 0.909l-1.61 1.599c-0.621 0.606-0.931 1.347-0.931 2.224s0.307 1.621 0.92 2.234l2.278 2.278c0.613 0.613 1.358 0.92 2.234 0.92 0.891 0 1.65-0.321 2.278-0.964l0.964 0.964c-0.643 0.628-0.964 1.391-0.964 2.289 0 0.876 0.303 1.617 0.909 2.224l2.256 2.267c0.606 0.621 1.351 0.931 2.234 0.931 0.876 0 1.617-0.303 2.224-0.909l1.61-1.599c0.621-0.606 0.931-1.347 0.931-2.224s-0.307-1.621-0.92-2.234zM15.86 20.65c0.002-0.009 0.004-0.018 0.008-0.026-0.002 0.009-0.004 0.018-0.008 0.026zM21.385 19.389c-0.022-0.022-0.089-0.091-0.203-0.208s-0.192-0.195-0.235-0.235c-0.044-0.040-0.113-0.095-0.208-0.164s-0.188-0.117-0.279-0.142c-0.091-0.026-0.192-0.038-0.301-0.038-0.292 0-0.54 0.102-0.745 0.307s-0.307 0.453-0.307 0.745c0 0.11 0.013 0.21 0.038 0.301s0.073 0.184 0.142 0.279 0.124 0.164 0.164 0.208c0.040 0.044 0.119 0.122 0.235 0.235s0.186 0.181 0.208 0.203c-0.219 0.226-0.482 0.34-0.789 0.34-0.299 0-0.548-0.099-0.745-0.296l-2.278-2.278c-0.204-0.204-0.307-0.453-0.307-0.745 0-0.285 0.102-0.529 0.307-0.734l1.61-1.599c0.212-0.197 0.46-0.296 0.745-0.296 0.292 0 0.54 0.102 0.745 0.307l2.256 2.267c0.204 0.204 0.307 0.453 0.307 0.745 0 0.307-0.12 0.573-0.361 0.8zM29.14 27.045l-1.61 1.599c-0.204 0.19-0.453 0.285-0.745 0.285-0.299 0-0.548-0.099-0.745-0.296l-2.256-2.267c-0.204-0.204-0.307-0.453-0.307-0.745 0-0.307 0.12-0.573 0.361-0.8 0.022 0.022 0.089 0.091 0.203 0.208s0.192 0.195 0.235 0.235 0.113 0.095 0.208 0.164c0.095 0.069 0.188 0.117 0.279 0.142s0.192 0.038 0.301 0.038c0.292 0 0.54-0.102 0.745-0.307s0.307-0.453 0.307-0.745c0-0.11-0.013-0.21-0.038-0.301s-0.073-0.184-0.142-0.279-0.124-0.164-0.164-0.208-0.119-0.122-0.235-0.235c-0.117-0.113-0.186-0.181-0.208-0.203 0.219-0.234 0.482-0.351 0.789-0.351 0.292 0 0.54 0.102 0.745 0.307l2.278 2.278c0.204 0.204 0.307 0.453 0.307 0.745-0 0.285-0.102 0.529-0.307 0.734zM18.804 9.571c-0.004 0.001-0.007 0.002-0.011 0.002 0.004 0 0.007-0.001 0.011-0.002zM15.867 20.624c-0.003 0.009-0.006 0.017-0.008 0.026 0.003-0.009 0.006-0.017 0.008-0.026zM15.104 24.18l-2.278-2.278c-1.020-1.020-1.586-2.309-1.647-3.742l-0.151-0.081-0.289-0.144c-0.072-0.036-0.147-0.093-0.226-0.172s-0.129-0.16-0.153-0.244c-0.024-0.072-0.054-0.217-0.090-0.433s-0.084-0.373-0.144-0.47c-0.072-0.12-0.175-0.241-0.307-0.361s-0.253-0.181-0.361-0.181c0.096 0 0.096-0.081 0-0.244s-0.181-0.28-0.253-0.352c-0.024-0.024-0.096-0.102-0.217-0.235s-0.223-0.247-0.307-0.343c-0.084-0.096-0.156-0.208-0.217-0.334s-0.072-0.232-0.036-0.316c0.012-0.012 0-0.030-0.036-0.054s-0.081-0.048-0.135-0.072-0.105-0.045-0.153-0.063-0.084-0.027-0.108-0.027c0.024 0.048 0.051 0.135 0.081 0.262s0.063 0.22 0.099 0.28c0.024 0.048 0.126 0.223 0.307 0.524 0.313 0.506 0.457 0.879 0.433 1.12-0.072 0.024-0.12 0.012-0.144-0.036s-0.042-0.114-0.054-0.199c-0.012-0.084-0.024-0.144-0.036-0.181-0.036-0.072-0.129-0.15-0.28-0.235s-0.244-0.169-0.28-0.253c0.012 0 0.027-0.006 0.045-0.018s0.033-0.018 0.045-0.018c0.012-0.108-0.051-0.247-0.19-0.415s-0.196-0.289-0.172-0.361c-0.096-0.072-0.181-0.214-0.253-0.424s-0.132-0.346-0.181-0.406c-0.048-0.072-0.108-0.135-0.181-0.19s-0.163-0.114-0.271-0.181c-0.108-0.066-0.181-0.111-0.217-0.135-0.024-0.012-0.072-0.066-0.144-0.163-0.397-0.482-0.518-0.74-0.361-0.776-0.157 0.036-0.286-0.081-0.388-0.352s-0.135-0.479-0.099-0.623l-0.036-0.018c0.012-0.048 0.018-0.19 0.018-0.424s0.015-0.448 0.045-0.641c0.028-0.18 0.080-0.276 0.156-0.288-0.076 0.001-0.134-0.075-0.174-0.227-0.042-0.163-0.045-0.274-0.009-0.334 0.012-0.036 0.066-0.012 0.163 0.072s0.15 0.138 0.163 0.163c0.157-0.084 0.217-0.193 0.181-0.325-0.024-0.048-0.15-0.175-0.379-0.379-0.518-0.337-0.782-0.5-0.795-0.488 0.072-0.132 0.054-0.247-0.054-0.343-0.12 0.072-0.19 0.090-0.208 0.054s-0.033-0.102-0.045-0.199c-0.012-0.096-0.042-0.15-0.090-0.163-0.060-0.012-0.132-0.060-0.217-0.144 1.071-1.709 2.486-3.046 4.243-4.009 0.072-0.012 0.205-0.018 0.397-0.018 0.096 0.012 0.187 0.042 0.271 0.090s0.172 0.114 0.262 0.199c0.090 0.084 0.159 0.144 0.208 0.181 0.024-0.072-0.006-0.181-0.090-0.325 0.024-0.072 0.156-0.144 0.397-0.217 0.277-0.036 0.457-0.030 0.542 0.018-0.072-0.108-0.193-0.259-0.361-0.451l-0.090 0.090c-0.096-0.084-0.349-0.042-0.758 0.126-0.024 0.012-0.084 0.045-0.181 0.099s-0.175 0.093-0.235 0.117c-0.072 0.024-0.144 0.030-0.217 0.018 0.578-0.313 1.144-0.56 1.697-0.74 0.036 0.024 0.096 0.075 0.181 0.154s0.15 0.135 0.199 0.172c-0.036-0.024-0.060-0.012-0.072 0.036-0.048 0.144-0.048 0.265 0 0.361 0.060 0.084 0.141 0.132 0.244 0.144s0.226 0.006 0.37-0.018c0.144-0.024 0.241-0.036 0.289-0.036l0.181 0.018c0.367 0.034 0.52 0.003 0.462-0.093 0.034 0.052 0.072 0.147 0.116 0.283 0.048 0.15 0.102 0.256 0.163 0.316 0.060-0.048 0.072-0.132 0.036-0.253s-0.036-0.205 0-0.253c0.012-0.024 0.048-0.048 0.108-0.072s0.129-0.051 0.208-0.081c0.078-0.030 0.129-0.051 0.153-0.063 0.072-0.048 0.024-0.132-0.144-0.253-0.024-0.012-0.075-0.030-0.153-0.054s-0.147-0.048-0.208-0.072c-0.060-0.024-0.123-0.057-0.19-0.099s-0.096-0.090-0.090-0.144c0.006-0.054 0.039-0.123 0.099-0.208 0.072-0.060 0.19-0.084 0.352-0.072s0.286 0.042 0.37 0.090c0.325 0.181 0.373 0.343 0.144 0.488 0.12 0.012 0.265 0.060 0.433 0.144s0.235 0.175 0.199 0.271c0.096-0.181 0.193-0.271 0.289-0.271 0.060 0.012 0.117 0.093 0.172 0.244s0.087 0.232 0.099 0.244c0.096 0.132 0.193 0.163 0.289 0.090s0.196-0.178 0.298-0.316c0.095-0.129 0.151-0.193 0.168-0.191-0.117-0.048-0.128-0.095-0.033-0.143 0.181-0.108 0.343-0.138 0.488-0.090 0.036 0.024 0.084 0.078 0.144 0.163 0.108 0.217 0.090 0.319-0.054 0.307 0.108 0.096 0.153 0.217 0.135 0.361s-0.111 0.211-0.28 0.199c-0.060 0-0.147-0.030-0.262-0.090s-0.202-0.093-0.262-0.099c-0.060-0.006-0.144 0.027-0.253 0.099-0.048 0.060-0.111 0.163-0.19 0.307s-0.147 0.247-0.208 0.307c-0.181 0.181-0.482 0.247-0.903 0.199 0.036 0 0.033 0.036-0.009 0.108s-0.099 0.153-0.172 0.244-0.114 0.141-0.126 0.153c-0.108 0.12-0.181 0.259-0.217 0.415 0 0.024-0.006 0.105-0.018 0.244s-0.036 0.244-0.072 0.316c0.144-0.036 0.259 0.036 0.343 0.217 0.072 0.169 0.072 0.259 0 0.271 0.397-0.060 0.746-0.036 1.047 0.072 0.433 0.157 0.68 0.313 0.74 0.47 0.072-0.108 0.247-0.114 0.524-0.018 0.108 0.060 0.205 0.241 0.289 0.542 0.048 0.181 0.129 0.337 0.244 0.47s0.238 0.169 0.37 0.108l0.054-0.036c0.048-0.024 0.087-0.045 0.117-0.063s0.063-0.042 0.099-0.072 0.057-0.057 0.063-0.081c0.006-0.024-0.003-0.048-0.027-0.072-0.084-0.072-0.147-0.172-0.19-0.298s-0.033-0.238 0.027-0.334c0.036-0.048 0.132-0.12 0.289-0.217s0.253-0.193 0.289-0.289c0.048-0.157-0.012-0.286-0.181-0.388s-0.253-0.196-0.253-0.28c0-0.060 0.039-0.132 0.117-0.217s0.111-0.163 0.099-0.235c0-0.036-0.021-0.111-0.063-0.226s-0.066-0.199-0.072-0.253c-0.006-0.054 0.021-0.117 0.081-0.19 0.084-0.048 0.283-0.045 0.596 0.009s0.518 0.111 0.614 0.172c0.036 0.024 0.114 0.060 0.235 0.108s0.226 0.099 0.316 0.153c0.090 0.054 0.141 0.105 0.154 0.153h-0.090c0.084 0.072 0.135 0.157 0.154 0.253s-0.027 0.169-0.135 0.217c0.072-0.012 0.169 0.006 0.289 0.054 0.193 0.072 0.199 0.138 0.018 0.199 0.036-0.012 0.087-0.024 0.154-0.036s0.117-0.030 0.153-0.054c0.024-0.012 0.054-0.033 0.090-0.063s0.063-0.048 0.081-0.054 0.045-0.012 0.081-0.018 0.072 0.003 0.108 0.027c0.012 0 0.039-0.030 0.081-0.090s0.087-0.12 0.135-0.181 0.090-0.090 0.126-0.090 0.069 0.015 0.099 0.045c0.030 0.030 0.054 0.063 0.072 0.099s0.036 0.075 0.054 0.117c0.018 0.042 0.033 0.075 0.045 0.099 0.024 0.060 0.081 0.123 0.172 0.19s0.148 0.129 0.172 0.19c0.012 0.036 0.036 0.126 0.072 0.271s0.084 0.244 0.144 0.298c0.060 0.054 0.15 0.099 0.271 0.135 0.024 0.012 0.078 0.006 0.163-0.018s0.154-0.030 0.208-0.018 0.081 0.060 0.081 0.144c0.072-0.072 0.108-0.12 0.108-0.144 0.012 0.157 0.051 0.283 0.117 0.379s0.172 0.138 0.316 0.126l-0.036 0.397c-0.036 0.060-0.126 0.105-0.271 0.135s-0.235 0.057-0.271 0.081c-0.036 0.012-0.123 0.084-0.262 0.217s-0.196 0.211-0.172 0.235c-0.205-0.229-0.512-0.295-0.921-0.199-0.457 0.072-0.77 0.144-0.939 0.217-0.193 0.096-0.325 0.187-0.397 0.271-0.012 0.012-0.033 0.054-0.063 0.126s-0.060 0.138-0.090 0.199c-0.026 0.051-0.049 0.080-0.070 0.088 0.069-0.016 0.147-0.072 0.233-0.169 0.090-0.102 0.147-0.159 0.172-0.172 0.313-0.205 0.572-0.277 0.776-0.217 0.265 0.072 0.307 0.169 0.126 0.289-0.024 0.024-0.087 0.033-0.19 0.027s-0.172-0.003-0.208 0.009c0.108 0.024 0.199 0.057 0.271 0.099s0.090 0.099 0.054 0.172c0.193 0.108 0.229 0.229 0.108 0.361-0.156 0.156-0.343 0.223-0.56 0.199 0.036 0 0.036 0.024 0 0.072l-0.307 0.199c-0.024 0.012-0.102 0.042-0.235 0.090-0.121 0.044-0.207 0.093-0.258 0.148 1.41 0.081 2.671 0.652 3.664 1.664l2.248 2.259c1.024 1.025 1.586 2.329 1.635 3.782 0.326 0.012 0.644 0.049 0.954 0.113 0.559-1.513 0.84-3.115 0.84-4.805 0-2.516-0.62-4.836-1.86-6.961s-2.922-3.807-5.047-5.047c-2.125-1.24-4.445-1.86-6.961-1.86s-4.836 0.62-6.961 1.86c-2.125 1.24-3.807 2.922-5.047 5.047s-1.86 4.445-1.86 6.961 0.62 4.836 1.86 6.961c1.24 2.125 2.922 3.807 5.047 5.047s4.445 1.86 6.961 1.86c1.662 0 3.239-0.271 4.73-0.812-0.058-0.298-0.092-0.605-0.103-0.918-1.45-0.052-2.754-0.619-3.784-1.648z"></path>
</svg>
