<!-- Generated by IcoMoon.io -->
<svg version="1.1" xmlns="http://www.w3.org/2000/svg" width="32" height="32" viewBox="0 0 32 32">
<title>pinch-hand</title>
<path d="M26.403 8.164c-0.19-0.59-0.519-1.085-0.978-1.469-0.428-0.359-0.965-0.612-1.596-0.752l-0.82-0.183c-0.001-0.018-0.002-0.036-0.003-0.054-0.059-0.965-0.195-1.695-0.43-2.298-0.202-0.52-0.485-0.95-0.84-1.279-0.248-0.23-0.529-0.409-0.835-0.533-0.324-0.131-0.669-0.198-1.024-0.198-0.351 0-0.709 0.066-1.065 0.195-0.216 0.078-0.435 0.182-0.655 0.31-0.162-0.562-0.359-0.961-0.628-1.288-0.308-0.374-0.736-0.67-1.239-0.857-0.394-0.146-0.83-0.223-1.26-0.223-0.625 0-1.221 0.16-1.723 0.463-0.32 0.193-0.596 0.44-0.821 0.733-0.237 0.309-0.409 0.662-0.514 1.048-0.147 0.543-0.154 1.153-0.023 1.864 0.086 0.466 0.219 0.92 0.337 1.32 0.080 0.274 0.156 0.533 0.192 0.709 0.137 0.694 0.286 1.413 0.43 2.109 0.095 0.462 0.191 0.926 0.285 1.389-0.48-0.136-0.979-0.204-1.489-0.204-1.232 0-2.393 0.403-3.271 1.135-0.344 0.287-1.008 0.985-1.545 1.623-0.337 0.401-0.612 0.763-0.816 1.075-0.307 0.469-0.651 1.106-0.587 1.868 0.002 0.027 0.005 0.053 0.008 0.080-0.13 0.153-0.242 0.32-0.334 0.498-0.229 0.441-0.336 0.937-0.319 1.476 0.011 0.345 0.073 0.704 0.188 1.099 0.166 0.569 0.42 1.125 0.645 1.616 0.119 0.261 0.296 0.647 0.348 0.819l0.042 0.791 0.676 0.55c1.612 1.311 2.904 2.497 3.991 3.674h-0.264v5.775h16.050v-5.775h-1.953l-0.040-0.512c-0.023-0.3-0.015-0.457-0.008-0.524 0.022-0.031 0.051-0.071 0.075-0.103 0.231-0.314 0.619-0.84 0.904-1.767 0.768-2.496 0.869-5.794 0.967-8.985 0.025-0.81 0.048-1.576 0.082-2.322 0.007-0.152 0.015-0.304 0.024-0.451 0.047-0.846 0.092-1.646-0.163-2.44zM24.58 10.965c-0.166 3.652-0.092 7.985-0.964 10.818-0.479 1.556-1.207 1.133-1.052 3.124-0.752 0.094-1.771 0.222-2.885 0.36h-6.353c-1.574-1.941-3.41-3.621-5.348-5.198-0.061-1.15-2.388-4.007-0.321-4.391 0.125-0.023 0.24-0.034 0.347-0.034 1.223 0 1.295 1.452 1.903 2.498 0.365 0.627 1.305 1.336 2.183 1.336 0.131 0 0.261-0.016 0.387-0.050 1.871-0.509 0.47-4.652-0.214-5.248-0.338-0.295-0.687-0.214-1.178-0.536-0.921 0.108-1.241 1.61-2.249 1.714-0.068 0.007-0.135 0.010-0.2 0.010-0.648 0-1.147-0.338-1.192-0.867-0.045-0.531 1.826-2.538 2.249-2.892 0.54-0.451 1.273-0.679 2.012-0.679 0.79 0 1.587 0.26 2.165 0.786 0.927 0.843 0.735 2.113 2.142 2.464-0.233-2.526-1.006-5.861-1.606-8.89-0.174-0.878-0.755-2.188-0.536-2.999 0.155-0.575 0.666-0.792 1.16-0.792 0.408-0 0.805 0.148 0.982 0.363 0.403 0.49 0.575 2.446 0.75 3.213 0.61 2.675 0.964 5.514 1.82 8.14 0.154 0.472 0.097 1.074 0.764 1.074 0.029 0 0.060-0.001 0.093-0.004 0.216-3.333-0.993-7.275-0.429-10.604 0.342-0.223 0.629-0.321 0.867-0.321 0.835 0 1.092 1.2 1.168 2.463 0.12 1.984 0.318 5.015 0.428 7.391 0.033 0.708-0.098 1.83 0.632 1.83 0.037 0 0.076-0.003 0.118-0.009 0.436-1.074 0.34-2.528 0.428-3.856 0.081-1.227-0.064-2.666 0.75-3.32 1.479 0.329 1.253 1.452 1.178 3.106z"></path>
</svg>
