<!-- Generated by IcoMoon.io -->
<svg version="1.1" xmlns="http://www.w3.org/2000/svg" width="32" height="32" viewBox="0 0 32 32">
<title>plus</title>
<path d="M26.517 14.018v2.873c0 0.399-0.139 0.738-0.418 1.017s-0.617 0.419-1.016 0.419h-6.215v6.224c0 0.399-0.14 0.738-0.418 1.017s-0.617 0.419-1.016 0.419h-2.868c-0.398 0-0.737-0.14-1.016-0.419s-0.418-0.618-0.418-1.017v-6.224h-6.215c-0.398 0-0.737-0.14-1.016-0.419s-0.418-0.618-0.418-1.017v-2.873c0-0.399 0.139-0.738 0.418-1.017s0.617-0.419 1.016-0.419h6.215v-6.224c0-0.399 0.139-0.738 0.418-1.017s0.617-0.419 1.016-0.419h2.868c0.398 0 0.737 0.14 1.016 0.419s0.418 0.618 0.418 1.017v6.224h6.215c0.398 0 0.737 0.14 1.016 0.419s0.418 0.618 0.418 1.017z"></path>
</svg>
