<!-- Generated by IcoMoon.io -->
<svg version="1.1" xmlns="http://www.w3.org/2000/svg" width="32" height="32" viewBox="0 0 32 32">
<title>points</title>
<path d="M5.213 16.163c0-1.687 1.442-3.055 3.221-3.055s3.222 1.368 3.222 3.055c0 1.687-1.442 3.055-3.221 3.055s-3.221-1.368-3.221-3.055zM27.201 28.278c0 1.687-1.442 3.055-3.222 3.055s-3.222-1.368-3.222-3.055c0-1.687 1.442-3.055 3.222-3.055s3.222 1.368 3.222 3.055zM26.789 2.568c0 1.687-1.442 3.055-3.222 3.055s-3.222-1.368-3.222-3.055c0-1.687 1.442-3.055 3.222-3.055s3.222 1.368 3.222 3.055z"></path>
</svg>
