<!-- Generated by IcoMoon.io -->
<svg version="1.1" xmlns="http://www.w3.org/2000/svg" width="32" height="32" viewBox="0 0 32 32">
<title>polygon</title>
<path d="M24.669 25.417v-20.062c1.159-0.468 1.972-1.558 1.972-2.828 0-1.697-1.45-3.072-3.239-3.072s-3.239 1.375-3.239 3.072c0 0.494 0.123 0.96 0.341 1.373l-11.027 9.48c-0.396-0.163-0.832-0.254-1.291-0.254-1.789 0-3.239 1.375-3.239 3.072s1.45 3.072 3.239 3.072c0.678 0 1.307-0.197 1.827-0.535l10.902 8.281c-0.215 0.411-0.336 0.874-0.336 1.364 0 1.697 1.45 3.072 3.239 3.072s3.239-1.375 3.239-3.072c0-1.417-1.011-2.609-2.386-2.964zM11.037 17.655c0.247-0.433 0.387-0.93 0.387-1.457 0-0.729-0.268-1.398-0.715-1.925l10.779-9.267c0.46 0.32 1.012 0.527 1.612 0.58v19.798c-0.442 0.095-0.849 0.275-1.202 0.521l-10.861-8.25z"></path>
</svg>
