<!-- Generated by IcoMoon.io -->
<svg version="1.1" xmlns="http://www.w3.org/2000/svg" width="32" height="32" viewBox="0 0 32 32">
<title>postgis</title>
<path d="M18.298 11.777c-0.364-0.009-0.776 0.379-0.709 0.713-0.052 0.416 0.363 0.725 0.723 0.738 0.371 0.013 0.768-0.366 0.743-0.734-0.028-0.421-0.32-0.706-0.758-0.716zM31.217 13.778l-13.674-13.674c-0.889-0.889-2.33-0.889-3.219 0l-13.674 13.674c-0.889 0.889-0.889 2.33 0 3.219l13.674 13.674c0.889 0.889 2.33 0.889 3.219 0l13.674-13.674c0.889-0.889 0.889-2.33 0-3.219zM24.432 16.030c-0.069 0.058-0.134 0.121-0.206 0.175-0.438 0.325-0.958 0.282-1.463 0.261-0.473-0.020-0.943-0.075-1.415-0.114-0.378-0.031-0.525 0.176-0.574 0.488-0.044 0.278-0.101 0.555-0.147 0.833-0.054 0.331-0.104 0.663-0.153 0.994-0.052 0.351-0.097 0.704-0.15 1.055-0.047 0.305-0.102 0.609-0.151 0.914-0.063 0.389-0.113 0.78-0.19 1.167-0.065 0.327-0.158 0.648-0.241 0.972-0.125 0.488-0.23 0.982-0.382 1.463-0.217 0.69-0.47 1.368-0.864 1.994-0.313 0.497-0.698 0.915-1.293 1.125-0.23 0-0.459 0-0.689 0-0.022-0.013-0.041-0.031-0.065-0.038-0.261-0.080-0.512-0.167-0.655-0.414-0.107-0.184-0.13-0.434 0.007-0.53 0.17-0.12 0.364-0.215 0.558-0.3 0.287-0.125 0.651-0.15 0.811-0.443 0.194-0.357 0.361-0.73 0.5-1.108 0.108-0.295 0.168-0.607 0.226-0.915 0.108-0.581 0.228-1.162 0.288-1.748 0.055-0.537 0.045-1.080 0.049-1.62 0.002-0.325-0.023-0.651-0.041-0.976-0.008-0.152-0.013-0.306-0.047-0.453-0.143-0.617-0.263-1.242-0.558-1.818-0.177-0.346-0.398-0.664-0.729-0.901-0.26-0.186-0.567-0.126-0.861-0.147-0.13-0.009-0.276-0.058-0.377-0.134-0.338-0.253-0.638-0.551-0.99-0.782-0.331-0.217-0.71-0.303-1.103-0.079-0.334 0.19-0.629 0.413-0.885 0.693-0.346 0.38-0.601 0.808-0.809 1.259-0.134 0.291-0.241 0.596-0.331 0.902-0.135 0.458-0.255 0.921-0.363 1.385-0.053 0.231-0.067 0.469-0.093 0.705-0.072 0.635-0.166 1.27-0.205 1.907-0.035 0.564-0.007 1.132-0.007 1.754-0.11-0.093-0.166-0.136-0.217-0.183-0.34-0.317-0.679-0.635-1.020-0.952-0.319-0.297-0.64-0.591-0.958-0.89-0.371-0.348-0.736-0.702-1.108-1.049-0.33-0.308-0.661-0.616-1.002-0.913-0.166-0.145-0.183-0.313-0.172-0.504 0.020-0.358 0.033-0.717 0.042-1.076 0.002-0.063-0.027-0.127-0.036-0.166-0.403 0.119-0.772 0.233-1.146 0.331-0.053 0.014-0.147-0.032-0.191-0.077-0.341-0.35-0.538-0.777-0.731-1.206-0.062-0.137-0.129-0.273-0.172-0.414-0.080-0.26-0.146-0.524-0.217-0.786 0-0.228 0-0.455 0-0.683 0.018-0.14 0.013-0.287 0.057-0.42 0.138-0.415 0.285-0.827 0.446-1.234 0.16-0.405 0.419-0.761 0.729-1.076 0.455-0.461 0.926-0.908 1.401-1.352 2.039-1.907 4.081-3.811 6.121-5.716 0.055-0.051 0.103-0.108 0.154-0.163 0.029 0 0.057 0 0.086 0 0.596 0.429 1.193 0.856 1.786 1.287 0.177 0.128 0.35 0.222 0.594 0.204 0.552-0.042 1.106-0.068 1.66-0.079 0.185-0.004 0.411 0.007 0.55 0.101 0.313 0.211 0.617 0.451 0.863 0.728 0.408 0.457 0.72 0.978 0.975 1.526 0.32 0.688 0.598 1.389 0.8 2.115 0.136 0.49 0.273 0.981 0.382 1.477 0.107 0.487 0.172 0.982 0.269 1.471 0.029 0.144 0.073 0.303 0.165 0.416 0.399 0.487 0.83 0.944 1.396 1.279 0.43 0.254 0.884 0.423 1.393 0.437 0.233 0.007 0.467-0.023 0.7-0.037 0 0.027 0 0.054 0 0.080z"></path>
</svg>
