<!-- Generated by IcoMoon.io -->
<svg version="1.1" xmlns="http://www.w3.org/2000/svg" width="32" height="32" viewBox="0 0 32 32">
<title>printer</title>
<path d="M29.369 7.352h-2.43v-4.050c0-2.001-0.365-2.433-2.432-2.433h-17.016c-1.945 0-2.43 0.464-2.43 2.433v4.050h-2.432c-2.091 0-2.43 0.456-2.43 2.432v8.913c0 1.969 0.485 2.462 2.43 2.429h2.432v6.484c0 1.969 0.443 2.429 2.43 2.429h17.016c1.987 0 2.432-0.366 2.432-2.429v-6.484h2.43c2.066 0.032 2.432-0.427 2.432-2.429v-8.913c-0-1.904-0.309-2.433-2.432-2.433zM24.508 27.609h-17.016v-10.534h17.016v10.534zM24.508 7.352h-17.016v-4.051h17.016v4.051zM27.962 11.086c-0.541 0-0.98-0.439-0.98-0.98s0.439-0.98 0.98-0.98c0.541 0 0.98 0.439 0.98 0.98s-0.439 0.98-0.98 0.98zM9.839 21.542h12.321c0.197 0 0.357-0.16 0.357-0.357v-1.527c0-0.197-0.16-0.357-0.357-0.357h-12.321c-0.197 0-0.357 0.16-0.357 0.357v1.527c0 0.197 0.16 0.357 0.357 0.357zM9.839 25.332h12.321c0.197 0 0.357-0.16 0.357-0.357v-1.527c0-0.197-0.16-0.357-0.357-0.357h-12.321c-0.197 0-0.357 0.16-0.357 0.357v1.527c0 0.197 0.16 0.357 0.357 0.357z"></path>
</svg>
