<!-- Generated by IcoMoon.io -->
<svg version="1.1" xmlns="http://www.w3.org/2000/svg" width="32" height="32" viewBox="0 0 32 32">
<title>processes</title>
<path d="M15.004 15.447c0-1.1-0.389-2.039-1.167-2.817s-1.717-1.167-2.817-1.167c-1.1 0-2.039 0.389-2.817 1.167s-1.167 1.717-1.167 2.817c0 1.1 0.389 2.039 1.167 2.817s1.717 1.167 2.817 1.167c1.1 0 2.039-0.389 2.817-1.167s1.167-1.717 1.167-2.817zM26.957 23.415c0-0.54-0.197-1.006-0.591-1.401s-0.861-0.591-1.401-0.591c-0.54 0-1.006 0.197-1.401 0.591s-0.591 0.861-0.591 1.401c0 0.55 0.195 1.019 0.584 1.409s0.859 0.584 1.409 0.584c0.55 0 1.019-0.195 1.409-0.584s0.584-0.859 0.584-1.409zM26.957 7.478c0-0.54-0.197-1.006-0.591-1.401s-0.861-0.591-1.401-0.591c-0.54 0-1.006 0.197-1.401 0.591s-0.591 0.861-0.591 1.401c0 0.55 0.195 1.019 0.584 1.409s0.859 0.584 1.409 0.584c0.55 0 1.019-0.195 1.409-0.584s0.584-0.859 0.584-1.409zM20.98 14.030v2.879c0 0.104-0.036 0.205-0.109 0.303s-0.156 0.153-0.249 0.163l-2.412 0.374c-0.114 0.363-0.28 0.757-0.498 1.183 0.353 0.498 0.82 1.095 1.401 1.79 0.073 0.104 0.109 0.207 0.109 0.311 0 0.125-0.036 0.223-0.109 0.296-0.239 0.311-0.667 0.776-1.284 1.393s-1.025 0.926-1.222 0.926c-0.114 0-0.223-0.036-0.327-0.109l-1.79-1.401c-0.384 0.197-0.783 0.358-1.198 0.483-0.114 1.121-0.233 1.925-0.358 2.412-0.073 0.249-0.228 0.374-0.467 0.374h-2.895c-0.114 0-0.218-0.039-0.311-0.117s-0.145-0.169-0.156-0.272l-0.358-2.381c-0.353-0.104-0.742-0.265-1.167-0.482l-1.837 1.385c-0.073 0.073-0.176 0.109-0.311 0.109-0.114 0-0.223-0.041-0.327-0.125-1.494-1.38-2.241-2.21-2.241-2.49 0-0.093 0.036-0.192 0.109-0.296 0.104-0.145 0.316-0.42 0.638-0.825s0.565-0.721 0.732-0.949c-0.239-0.457-0.42-0.882-0.545-1.276l-2.366-0.374c-0.104-0.010-0.192-0.060-0.265-0.148s-0.109-0.189-0.109-0.303v-2.879c0-0.104 0.036-0.205 0.109-0.303s0.156-0.153 0.249-0.163l2.412-0.374c0.114-0.363 0.28-0.757 0.498-1.183-0.353-0.498-0.82-1.095-1.401-1.79-0.073-0.114-0.109-0.218-0.109-0.311 0-0.125 0.036-0.228 0.109-0.311 0.228-0.311 0.654-0.773 1.276-1.385s1.032-0.918 1.23-0.918c0.114 0 0.223 0.036 0.327 0.109l1.79 1.401c0.353-0.187 0.752-0.353 1.198-0.498 0.114-1.121 0.233-1.92 0.358-2.397 0.073-0.249 0.228-0.374 0.467-0.374h2.895c0.114 0 0.218 0.039 0.311 0.117s0.145 0.169 0.156 0.272l0.358 2.381c0.353 0.104 0.742 0.265 1.167 0.482l1.837-1.385c0.083-0.073 0.187-0.109 0.311-0.109 0.114 0 0.223 0.042 0.327 0.125 1.494 1.38 2.241 2.21 2.241 2.49 0 0.093-0.036 0.192-0.109 0.296-0.125 0.166-0.342 0.446-0.654 0.84s-0.545 0.706-0.7 0.934c0.239 0.498 0.415 0.923 0.529 1.276l2.366 0.358c0.104 0.021 0.192 0.075 0.265 0.163s0.109 0.189 0.109 0.303zM30.941 22.326v2.179c0 0.166-0.773 0.327-2.319 0.482-0.125 0.28-0.28 0.55-0.467 0.809 0.529 1.172 0.794 1.888 0.794 2.148 0 0.041-0.021 0.078-0.062 0.109-1.266 0.737-1.909 1.105-1.93 1.105-0.083 0-0.322-0.244-0.716-0.732s-0.664-0.84-0.809-1.058c-0.208 0.021-0.363 0.031-0.467 0.031s-0.259-0.010-0.467-0.031c-0.145 0.218-0.415 0.571-0.809 1.058s-0.633 0.732-0.716 0.732c-0.021 0-0.664-0.368-1.93-1.105-0.042-0.031-0.062-0.067-0.062-0.109 0-0.259 0.265-0.975 0.794-2.148-0.187-0.259-0.342-0.529-0.467-0.809-1.546-0.156-2.319-0.316-2.319-0.482v-2.179c0-0.166 0.773-0.327 2.319-0.482 0.135-0.301 0.291-0.571 0.467-0.809-0.529-1.172-0.794-1.888-0.794-2.148 0-0.041 0.021-0.078 0.062-0.109 0.041-0.021 0.223-0.125 0.545-0.311s0.628-0.363 0.918-0.529c0.291-0.166 0.446-0.249 0.467-0.249 0.083 0 0.322 0.241 0.716 0.724s0.664 0.833 0.809 1.051c0.207-0.021 0.363-0.031 0.467-0.031s0.259 0.010 0.467 0.031c0.529-0.737 1.006-1.318 1.432-1.743l0.093-0.031c0.042 0 0.685 0.363 1.93 1.089 0.041 0.031 0.062 0.067 0.062 0.109 0 0.259-0.265 0.975-0.794 2.148 0.176 0.239 0.332 0.508 0.467 0.809 1.546 0.156 2.319 0.316 2.319 0.482zM30.941 6.389v2.179c0 0.166-0.773 0.327-2.319 0.482-0.125 0.28-0.28 0.55-0.467 0.809 0.529 1.172 0.794 1.888 0.794 2.148 0 0.041-0.021 0.078-0.062 0.109-1.266 0.737-1.909 1.105-1.93 1.105-0.083 0-0.322-0.244-0.716-0.732s-0.664-0.84-0.809-1.058c-0.208 0.021-0.363 0.031-0.467 0.031s-0.259-0.010-0.467-0.031c-0.145 0.218-0.415 0.571-0.809 1.058s-0.633 0.732-0.716 0.732c-0.021 0-0.664-0.368-1.93-1.105-0.042-0.031-0.062-0.067-0.062-0.109 0-0.259 0.265-0.975 0.794-2.148-0.187-0.259-0.342-0.529-0.467-0.809-1.546-0.156-2.319-0.316-2.319-0.482v-2.179c0-0.166 0.773-0.327 2.319-0.482 0.135-0.301 0.291-0.571 0.467-0.809-0.529-1.172-0.794-1.888-0.794-2.148 0-0.042 0.021-0.078 0.062-0.109 0.041-0.021 0.223-0.125 0.545-0.311s0.628-0.363 0.918-0.529c0.291-0.166 0.446-0.249 0.467-0.249 0.083 0 0.322 0.241 0.716 0.724s0.664 0.833 0.809 1.051c0.207-0.021 0.363-0.031 0.467-0.031s0.259 0.010 0.467 0.031c0.529-0.737 1.006-1.318 1.432-1.743l0.093-0.031c0.042 0 0.685 0.363 1.93 1.089 0.041 0.031 0.062 0.067 0.062 0.109 0 0.259-0.265 0.975-0.794 2.148 0.176 0.239 0.332 0.508 0.467 0.809 1.546 0.156 2.319 0.316 2.319 0.482z"></path>
</svg>
