<!-- Generated by IcoMoon.io -->
<svg version="1.1" xmlns="http://www.w3.org/2000/svg" width="32" height="32" viewBox="0 0 32 32">
<title>process</title>
<path d="M27.222 15.454c0-0.351-0.018-0.699-0.051-1.042l3.549-2.043c-0.219-1.002-0.541-1.966-0.956-2.881l-4.099 0.387c-0.363-0.601-0.784-1.165-1.254-1.685l1.642-3.691c-0.767-0.675-1.607-1.273-2.505-1.783l-3.082 2.668c-0.646-0.275-1.325-0.492-2.028-0.644l-0.889-3.929c-0.51-0.051-1.026-0.077-1.549-0.077s-1.040 0.026-1.549 0.077l-0.889 3.93c-0.703 0.153-1.382 0.369-2.028 0.644l-3.082-2.668c-0.898 0.51-1.737 1.108-2.505 1.783l1.643 3.691c-0.47 0.52-0.89 1.084-1.254 1.685l-4.099-0.387c-0.416 0.915-0.738 1.879-0.957 2.881l3.549 2.043c-0.033 0.343-0.051 0.691-0.051 1.042s0.018 0.699 0.051 1.042l-3.549 2.044c0.218 1.002 0.541 1.966 0.957 2.881l4.099-0.387c0.363 0.601 0.783 1.165 1.254 1.685l-1.643 3.691c0.768 0.674 1.607 1.273 2.505 1.783l3.082-2.668c0.647 0.275 1.325 0.491 2.028 0.644l0.889 3.93c0.51 0.050 1.027 0.077 1.549 0.077s1.040-0.026 1.549-0.077l0.889-3.93c0.703-0.153 1.382-0.369 2.029-0.644l3.082 2.668c0.898-0.51 1.737-1.109 2.505-1.783l-1.642-3.69c0.47-0.52 0.89-1.084 1.254-1.685l4.099 0.387c0.415-0.915 0.738-1.879 0.956-2.881l-3.549-2.043c0.033-0.343 0.051-0.69 0.051-1.042zM16 20.269c-2.72 0-4.924-2.156-4.924-4.815s2.204-4.815 4.924-4.815c2.719 0 4.924 2.155 4.924 4.815s-2.205 4.815-4.924 4.815z"></path>
</svg>
