<!-- Generated by IcoMoon.io -->
<svg version="1.1" xmlns="http://www.w3.org/2000/svg" width="32" height="32" viewBox="0 0 32 32">
<title>pycsw</title>
<path d="M18.933 0.422c-4.017-0.784-8.098 0.043-11.492 2.329-1.79 1.206-3.276 2.737-4.415 4.552-3.221 5.131-3.116 11.691 0.267 16.714 4.719 7.007 14.259 8.869 21.265 4.15 1.79-1.206 3.276-2.737 4.416-4.552 3.221-5.13 3.116-11.691-0.268-16.714-2.286-3.394-5.757-5.695-9.773-6.479zM18.423 3.037c3.148 0.615 5.889 2.358 7.774 4.93-0.661 0.968-1.387 1.887-2.157 2.758-0.102-0.159-0.198-0.319-0.304-0.477-2.215-3.289-5.050-5.897-7.983-7.346-0.067-0.033-0.132-0.061-0.198-0.092 0.951-0.031 1.911 0.042 2.868 0.228zM7.918 6.021c0.020-0.033 0.044-0.062 0.065-0.093l7.718 11.46c-1.671 0.921-3.354 1.643-4.974 2.15-0.084-0.12-0.172-0.234-0.254-0.356-3.244-4.816-4.318-10.352-2.555-13.16zM17.18 19.584l4.636 6.885c-1.224 0.257-2.732-0.022-4.391-0.842-1.729-0.854-3.428-2.207-4.959-3.903 1.558-0.549 3.146-1.267 4.714-2.14zM24.081 24.899c-0.020 0.032-0.043 0.060-0.064 0.091l-4.57-6.786c1.366-0.907 2.696-1.936 3.958-3.074 1.703 3.825 2.034 7.605 0.676 9.769zM17.968 16.007l-7.784-11.557c1.223-0.256 2.731 0.023 4.389 0.841 2.523 1.247 4.993 3.536 6.953 6.446 0.213 0.316 0.416 0.637 0.61 0.958-1.316 1.241-2.723 2.348-4.167 3.313zM4.436 10.313c0.179 3.068 1.386 6.561 3.527 9.887-1.315 0.212-2.547 0.252-3.647 0.107-1.325-3.195-1.293-6.815 0.12-9.994zM5.854 23.023c1.201-0.021 2.48-0.182 3.808-0.483 1.955 2.402 4.236 4.315 6.584 5.476 0.062 0.031 0.124 0.057 0.185 0.086-4.024 0.13-8.027-1.655-10.577-5.079zM27.563 20.607c-0.136-2.327-0.862-4.897-2.139-7.456 0.78-0.835 1.522-1.716 2.214-2.643 1.369 3.22 1.353 6.884-0.075 10.098z"></path>
</svg>
