<!-- Generated by IcoMoon.io -->
<svg version="1.1" xmlns="http://www.w3.org/2000/svg" width="32" height="32" viewBox="0 0 32 32">
<title>qgis</title>
<path d="M25.026 27.958c-2.935 0.11-2.615-0.42-2.615-1.197v-1.547c3.023-2.024 5.028-5.568 5.028-9.595 0-3.063-1.158-5.841-3.041-7.887 0.7-0.91 1.119-1.456 1.119-1.456l1.773 1.761 1.529-8.335 0.012-0.016-7.677 3.613 2.156 1.264c0 0-0.393 0.509-1.052 1.364-1.663-1.072-3.623-1.691-5.722-1.691-0.189 0-0.367-0.010-0.553 0-5.76 0.305-10.351 5.29-10.351 11.382 0 3.082 1.173 5.877 3.078 7.926-0.045 0.060-0.088 0.117-0.13 0.171l-5.41 2.282 4.699 0.892 2.072 4.335 0.823-5.814c0.022-0.029 0.045-0.058 0.069-0.088 1.659 1.065 3.612 1.679 5.702 1.679 0.65 0 1.278-0.070 1.897-0.184v1.823c0.049 0.775 0.985 2.429 3.923 2.45 3.4 0.023 4.98-2.062 5.267-2.689 0.536-1.433 0.433-2.352 0.405-2.928-0.011 0.346-1.176 2.417-3.002 2.486zM12.225 15.415c0-5.736 1.845-10.369 4.126-10.369 1.366 0 2.576 1.662 3.326 4.226-2.169 2.814-4.939 6.41-7.235 9.397-0.136-1.024-0.217-2.118-0.217-3.254zM18.432 24.385c-0.61 0.899-1.323 1.418-2.081 1.418-1.247 0-2.357-1.389-3.111-3.584 0.777-1.005 1.654-2.142 2.573-3.334 2.027 0.088 2.619 0.902 2.619 1.338v4.162zM20.219 19.044c-0.954-0.393-2.17-0.706-3.647-0.7-0.118 0-0.233 0.002-0.346 0.006 1.368-1.775 2.809-3.646 4.136-5.371 0.075 0.781 0.114 1.597 0.114 2.437-0 1.275-0.091 2.499-0.258 3.629z"></path>
</svg>
