<!-- Generated by IcoMoon.io -->
<svg version="1.1" xmlns="http://www.w3.org/2000/svg" width="32" height="32" viewBox="0 0 32 32">
<title>qr-code</title>
<path d="M5.030 21.957h4.492v4.492h-4.492v-4.492zM0.18 31.3h14.192v-14.192h-14.192v14.192zM3.022 19.951h8.457v8.457h-8.457v-8.457zM5.030 4.459h4.492v4.492h-4.492v-4.492zM17.629 17.108h2.543v2.543h-2.543v-2.543zM29.228 17.108h2.543v2.543h-2.543v-2.543zM22.478 4.459h4.492v4.492h-4.492v-4.492zM17.629-0.391v14.192h14.192v-14.192h-14.192zM28.927 10.958h-8.456v-8.457h8.456v8.457zM29.228 28.707h2.543v2.543h-2.543v-2.543zM31.77 22.908h-2.9v-2.9h-2.9v-2.9h-2.543v2.9h-2.9v2.9h-2.9v2.543h2.9v2.9h2.9v2.9h2.543v-2.9h2.9v-2.9h2.9zM17.629 28.707h2.543v2.543h-2.543v-2.543zM0.18 13.801h14.192v-14.192h-14.192v14.192zM3.022 2.502h8.457v8.457h-8.457v-8.457z"></path>
</svg>
