<!-- Generated by IcoMoon.io -->
<svg version="1.1" xmlns="http://www.w3.org/2000/svg" width="32" height="32" viewBox="0 0 32 32">
<title>quill</title>
<path d="M10.586 1.216l-8.799 8.799c-0.095 0.095-0.095 0.247 0 0.342l4.127 4.127c0.047 0.048 0.108 0.071 0.172 0.071s0.124-0.023 0.172-0.071l8.8-8.798c0.044-0.045 0.069-0.106 0.069-0.171s-0.025-0.125-0.070-0.171l-4.128-4.128c-0.091-0.091-0.252-0.091-0.342 0zM9.113 16.556c-0.095 0.095-0.095 0.248 0 0.342 4.878 4.877 5.653 7.954 5.661 7.984 0.024 0.1 0.105 0.172 0.206 0.185 9.45 1.204 13.378 4.6 13.416 4.633 0.044 0.041 0.102 0.061 0.159 0.061 0.061 0 0.124-0.023 0.172-0.071l1.487-1.486c0.091-0.091 0.094-0.236 0.011-0.333-0.034-0.037-3.428-3.966-4.632-13.418-0.013-0.1-0.087-0.181-0.184-0.204-0.032-0.008-3.109-0.783-7.985-5.661-0.094-0.094-0.247-0.096-0.342 0l-7.968 7.968zM21.27 17.7c0.839 0.841 0.839 2.207 0 3.047-0.813 0.814-2.232 0.814-3.047 0-0.407-0.407-0.631-0.948-0.631-1.523s0.224-1.117 0.632-1.524c0.405-0.406 0.946-0.63 1.522-0.63s1.117 0.223 1.524 0.63z"></path>
</svg>
