<!-- Generated by IcoMoon.io -->
<svg version="1.1" xmlns="http://www.w3.org/2000/svg" width="32" height="32" viewBox="0 0 32 32">
<title>rasterize</title>
<path d="M25.008 24.020c-0.004 0.005-0.007 0.009-0.011 0.014 0.004-0.005 0.007-0.009 0.011-0.014zM25.149 23.825c-0.001 0.001-0.001 0.002-0.002 0.003 0.001-0.001 0.001-0.002 0.002-0.003zM24.032 8.99v-4.33c0.926-0.437 1.568-1.38 1.568-2.473 0-1.509-1.224-2.733-2.733-2.733-1.093 0-2.035 0.641-2.473 1.568h-15.189c-0.437-0.926-1.38-1.568-2.473-1.568-1.509 0-2.733 1.224-2.733 2.733 0 1.092 0.641 2.035 1.568 2.473v15.189c-0.926 0.437-1.568 1.38-1.568 2.473 0 1.509 1.224 2.733 2.733 2.733 1.092 0 2.035-0.641 2.473-1.568h4.33v7.968h22.465v-22.465h-7.968zM24.883 10.981v3.134h-3.134v-3.134h3.134zM22.041 19.241v0h-0.292v-3.134l3.134-0v3.134h-2.842zM19.786 16.107v3.134h-3.134v-3.134h3.134zM16.652 14.115v-3.134h3.134v3.134h-3.134zM8.685 21.496h-3.346c-0.268-0.845-0.935-1.512-1.78-1.78v-14.923c0.845-0.268 1.512-0.935 1.78-1.78h14.923c0.268 0.845 0.935 1.512 1.78 1.78v1.354h-0v2.842h-12.506v12.506h-0.851zM14.661 19.241h-3.134v-3.134h3.134v3.134zM14.661 14.115h-3.134v-3.134h3.134v3.134zM14.661 29.463h-3.134v-3.134h3.134v3.134zM14.661 24.338h-3.134v-3.134h3.134v3.134zM19.786 29.463v0h-3.134v-3.134h3.134v3.134zM16.652 24.338v-0.851h-0v-2.284h3.134v2.284h0v0.851h-3.134zM24.883 29.463h-3.134v-3.134h3.134v3.134zM24.883 24.338l-3.134 0v-3.134h3.134v3.134zM30.009 29.463h-3.134v-3.134h3.134v3.134zM30.009 24.338h-3.134v-3.134h3.134v3.134zM30.009 19.241h-3.134v-3.134h3.134v3.134zM26.874 14.115v-3.134h3.134v3.134z"></path>
</svg>
