<!-- Generated by IcoMoon.io -->
<svg version="1.1" xmlns="http://www.w3.org/2000/svg" width="32" height="32" viewBox="0 0 32 32">
<title>raster</title>
<path d="M1.959 29.495v-28.081h28.081v28.081h-28.081zM23.634 27.006h3.918v-3.918h-3.918v3.918zM17.227 27.006h3.918v-3.918h-3.918v3.918zM10.856 27.006h3.918v-3.918h-3.918v3.918zM4.449 27.006h3.918v-3.918h-3.918v3.918zM23.634 20.599h3.918v-3.918h-3.918v3.918zM17.227 20.599h3.918v-3.918h-3.918v3.918zM10.856 20.599h3.918v-3.918h-3.918v3.918zM4.449 20.599h3.918v-3.918h-3.918v3.918zM23.634 14.228h3.918v-3.918h-3.918v3.918zM17.227 14.228h3.918v-3.918h-3.918v3.918zM10.856 14.228h3.918v-3.918h-3.918v3.918zM4.449 14.228h3.918v-3.918h-3.918v3.918zM23.634 7.821h3.918v-3.918h-3.918v3.918zM17.227 7.821h3.918v-3.918h-3.918v3.918zM10.856 7.821h3.918v-3.918h-3.918v3.918zM4.449 7.821h3.918v-3.918h-3.918v3.918z"></path>
</svg>
