<!-- Generated by IcoMoon.io -->
<svg version="1.1" xmlns="http://www.w3.org/2000/svg" width="32" height="32" viewBox="0 0 32 32">
<title>satellite</title>
<path d="M23.825 14.429l-0.982-0.117c1.296-1.592 1.203-3.938-0.281-5.421-1.482-1.484-3.828-1.577-5.421-0.28l-0.116-0.981-8.175-8.175-7.183 7.183 8.174 8.175 0.982 0.117c-1.296 1.592-1.202 3.938 0.281 5.421s3.829 1.576 5.421 0.281l0.116 0.981 8.175 8.174 7.183-7.182-8.175-8.175zM9.163 25.32c-1.691-0.025-3.047-1.42-3.027-3.112 0.004-0.284-0.108-0.54-0.291-0.727s-0.437-0.305-0.719-0.311c-0.564-0.007-1.030 0.446-1.037 1.008-0.036 2.82 2.226 5.146 5.045 5.187 0.563 0.009 1.029-0.444 1.037-1.008 0.006-0.563-0.446-1.027-1.008-1.037zM9.106 29.409c-3.823-0.052-7.111-3.433-7.058-7.257 0.003-0.285-0.11-0.541-0.291-0.727s-0.437-0.305-0.719-0.311c-0.564-0.007-1.030 0.446-1.037 1.008-0.034 2.459 0.889 4.781 2.605 6.546s4.014 2.751 6.471 2.786c0.563 0.009 1.029-0.444 1.037-1.008s-0.443-1.030-1.008-1.037z"></path>
</svg>
