<!-- Generated by IcoMoon.io -->
<svg version="1.1" xmlns="http://www.w3.org/2000/svg" width="32" height="32" viewBox="0 0 32 32">
<title>scanner</title>
<path d="M5.969 11.957h19.774c0.62 0 1.124-0.505 1.124-1.125v-9.357c0-0.62-0.504-1.125-1.124-1.125h-19.774c-0.62 0-1.125 0.505-1.125 1.125v9.357c0 0.62 0.505 1.125 1.125 1.125zM31.727 19.49l-4.629-5.88c-0.161-0.203-0.401-0.32-0.658-0.32h-20.87c-0.259 0-0.499 0.117-0.659 0.32l-4.629 5.88c-0.070 0.089-0.119 0.191-0.147 0.303h-0.042v7.552c0 1.412 1.149 2.56 2.561 2.56h26.68c1.412 0 2.561-1.148 2.561-2.56v-7.195c0.040-0.235-0.020-0.474-0.166-0.66zM26.032 14.968l3.309 4.202h-26.673l3.308-4.202 20.056-0zM27.802 26.901c-0.734 0-1.331-0.597-1.331-1.331s0.597-1.331 1.331-1.331c0.734 0 1.331 0.597 1.331 1.331s-0.597 1.331-1.331 1.331z"></path>
</svg>
