<!-- Generated by IcoMoon.io -->
<svg version="1.1" xmlns="http://www.w3.org/2000/svg" width="32" height="32" viewBox="0 0 32 32">
<title>screen</title>
<path d="M30.761 5.73c0-0.034-0.005-0.064-0.009-0.089-0.001-0.009-0.003-0.018-0.004-0.027l-0.018-0.151h-0.036c-0.192-0.583-0.785-0.993-1.463-0.993h-26.464c-0.68 0-1.273 0.412-1.464 0.997h-0.036l-0.016 0.153c-0.001 0.007-0.002 0.016-0.004 0.026-0.004 0.023-0.009 0.051-0.009 0.083v16.066c0 0.341 0.135 0.654 0.358 0.897 0.298 0.433 0.826 0.722 1.426 0.722h9.496v0.96h-1.414c-0.503 0-0.912 0.374-0.912 0.833v0.352c0 0.459 0.409 0.833 0.912 0.833h9.695c0.503 0 0.912-0.374 0.912-0.833v-0.352c0-0.459-0.409-0.833-0.912-0.833h-1.268v-0.96h9.496c0.731 0 1.355-0.428 1.587-1.024 0.093-0.18 0.145-0.382 0.145-0.594v-16.066h-0zM28.751 7.046l-0 14.063h-25.459v-3.62h0.011v-10.442h25.448z"></path>
</svg>
