<!-- Generated by IcoMoon.io -->
<svg version="1.1" xmlns="http://www.w3.org/2000/svg" width="32" height="32" viewBox="0 0 32 32">
<title>sd-card</title>
<path d="M26.388 6.592c0-0.768-0.513-1.839-1.141-2.382l-2.647-2.289c-0.628-0.543-1.867-0.987-2.754-0.987h-12.62c-0.888-0-1.614 0.628-1.614 1.395v26.251c0 0.767 0.726 1.395 1.613 1.395h17.549c0.887 0 1.613-0.628 1.613-1.395l-0-21.988zM14.452 3.237h1.875v3.893h-1.875v-3.893zM11.157 3.237h1.982v3.893h-1.982v-3.893zM8.018 3.237h1.875v3.893h-1.875v-3.893zM19.536 27.433h-11.517v-12.482h11.517v12.482zM19.536 7.13h-1.875v-3.893h1.875v3.893z"></path>
</svg>
