<!-- Generated by IcoMoon.io -->
<svg version="1.1" xmlns="http://www.w3.org/2000/svg" width="32" height="32" viewBox="0 0 32 32">
<title>search-zoom</title>
<path d="M5.973 9.869c0.005-0.001 0.011-0.001 0.016-0.001zM18.938 9.557c-0.004 0.001-0.007 0.002-0.011 0.002 0.004 0 0.007-0.001 0.011-0.002zM15.433 3.19c-0.001-0-0.002-0.001-0.003-0.001zM11.602 23.941c-0.54-1.269-0.813-2.616-0.813-4.003 0-0.636 0.058-1.263 0.172-1.879l-0.15-0.075c-0.073-0.036-0.149-0.094-0.227-0.173s-0.13-0.161-0.155-0.246c-0.024-0.073-0.055-0.218-0.091-0.437s-0.085-0.376-0.146-0.473c-0.073-0.121-0.176-0.243-0.309-0.364s-0.255-0.182-0.364-0.182c0.097 0 0.097-0.082 0-0.246s-0.182-0.282-0.255-0.355c-0.024-0.024-0.097-0.103-0.218-0.237s-0.224-0.249-0.309-0.346c-0.085-0.097-0.158-0.209-0.218-0.337s-0.073-0.234-0.036-0.318c0.012-0.012 0-0.030-0.036-0.055s-0.082-0.049-0.136-0.073-0.106-0.045-0.155-0.064-0.085-0.027-0.109-0.027c0.024 0.049 0.052 0.136 0.082 0.264s0.064 0.221 0.1 0.282c0.024 0.049 0.127 0.224 0.309 0.528 0.315 0.51 0.461 0.886 0.437 1.128-0.073 0.024-0.121 0.012-0.146-0.036s-0.042-0.115-0.055-0.2-0.024-0.146-0.036-0.182c-0.036-0.073-0.13-0.152-0.282-0.237s-0.246-0.17-0.282-0.255c0.012 0 0.027-0.006 0.046-0.018s0.033-0.018 0.045-0.018c0.012-0.109-0.052-0.249-0.191-0.419s-0.197-0.291-0.173-0.364c-0.097-0.073-0.182-0.215-0.255-0.428s-0.133-0.349-0.182-0.409c-0.049-0.073-0.109-0.136-0.182-0.191s-0.164-0.115-0.273-0.182c-0.109-0.067-0.182-0.112-0.218-0.136-0.024-0.012-0.073-0.067-0.146-0.164-0.4-0.485-0.522-0.746-0.364-0.782-0.158 0.036-0.288-0.082-0.391-0.355s-0.136-0.482-0.1-0.628l-0.036-0.018c0.012-0.049 0.018-0.191 0.018-0.428s0.015-0.452 0.045-0.646c0.028-0.182 0.081-0.278 0.157-0.29-0.077 0.001-0.135-0.075-0.175-0.229-0.042-0.164-0.045-0.276-0.009-0.337 0.012-0.036 0.067-0.012 0.164 0.073s0.152 0.14 0.164 0.164c0.158-0.085 0.218-0.194 0.182-0.328-0.024-0.049-0.152-0.176-0.382-0.382-0.522-0.34-0.789-0.503-0.801-0.491 0.073-0.133 0.055-0.249-0.055-0.346-0.121 0.073-0.191 0.091-0.209 0.055s-0.033-0.103-0.045-0.2-0.042-0.152-0.091-0.164c-0.061-0.012-0.133-0.061-0.218-0.146 1.080-1.723 2.505-3.069 4.276-4.040 0.073-0.012 0.206-0.018 0.4-0.018 0.097 0.012 0.188 0.042 0.273 0.091s0.173 0.115 0.264 0.2c0.091 0.085 0.161 0.146 0.209 0.182 0.024-0.073-0.006-0.182-0.091-0.328 0.024-0.073 0.158-0.146 0.4-0.218 0.279-0.036 0.461-0.030 0.546 0.018-0.073-0.109-0.194-0.261-0.364-0.455l-0.091 0.091c-0.097-0.085-0.352-0.042-0.764 0.127-0.024 0.012-0.085 0.046-0.182 0.1s-0.176 0.094-0.237 0.118c-0.073 0.024-0.146 0.030-0.218 0.018 0.582-0.315 1.152-0.564 1.711-0.746 0.036 0.024 0.097 0.076 0.182 0.155s0.152 0.136 0.2 0.173c-0.036-0.024-0.061-0.012-0.073 0.036-0.049 0.146-0.049 0.267 0 0.364 0.061 0.085 0.143 0.133 0.246 0.146s0.227 0.006 0.373-0.018c0.146-0.024 0.243-0.036 0.291-0.036l0.182 0.018c0.369 0.035 0.525 0.003 0.465-0.094 0.034 0.053 0.073 0.148 0.117 0.285 0.049 0.152 0.103 0.258 0.164 0.318 0.061-0.049 0.073-0.133 0.036-0.255s-0.036-0.206 0-0.255c0.012-0.024 0.049-0.049 0.109-0.073s0.13-0.052 0.209-0.082 0.13-0.052 0.155-0.064c0.073-0.049 0.024-0.133-0.146-0.255-0.024-0.012-0.076-0.030-0.155-0.055s-0.149-0.049-0.209-0.073-0.124-0.058-0.191-0.1-0.097-0.091-0.091-0.146 0.039-0.124 0.1-0.209c0.073-0.061 0.191-0.085 0.355-0.073s0.288 0.042 0.373 0.091c0.328 0.182 0.376 0.346 0.146 0.491 0.121 0.012 0.267 0.061 0.437 0.146s0.237 0.176 0.2 0.273c0.097-0.182 0.194-0.273 0.291-0.273 0.061 0.012 0.118 0.094 0.173 0.246s0.088 0.234 0.1 0.246c0.097 0.133 0.194 0.164 0.291 0.091s0.197-0.179 0.3-0.318c0.096-0.13 0.153-0.194 0.17-0.192-0.118-0.048-0.129-0.096-0.033-0.144 0.182-0.109 0.346-0.139 0.491-0.091 0.036 0.024 0.085 0.079 0.146 0.164 0.109 0.218 0.091 0.321-0.055 0.309 0.109 0.097 0.155 0.218 0.136 0.364s-0.112 0.212-0.282 0.2c-0.061 0-0.149-0.030-0.264-0.091s-0.203-0.094-0.264-0.1-0.146 0.027-0.255 0.1c-0.049 0.061-0.112 0.164-0.191 0.309s-0.149 0.249-0.209 0.309c-0.182 0.182-0.485 0.249-0.91 0.2 0.036 0 0.033 0.036-0.009 0.109s-0.1 0.155-0.173 0.246-0.115 0.143-0.127 0.155c-0.109 0.121-0.182 0.261-0.218 0.419 0 0.024-0.006 0.106-0.018 0.246s-0.036 0.246-0.073 0.318c0.146-0.036 0.261 0.036 0.346 0.218 0.073 0.17 0.073 0.261 0 0.273 0.4-0.061 0.752-0.036 1.055 0.073 0.437 0.158 0.685 0.315 0.746 0.473 0.073-0.109 0.249-0.115 0.528-0.018 0.109 0.061 0.206 0.243 0.291 0.546 0.049 0.182 0.13 0.34 0.246 0.473s0.24 0.17 0.373 0.109l0.055-0.036c0.049-0.024 0.088-0.046 0.118-0.064s0.064-0.042 0.1-0.073 0.058-0.058 0.064-0.082-0.003-0.049-0.027-0.073c-0.085-0.073-0.149-0.173-0.191-0.3s-0.033-0.24 0.027-0.337c0.036-0.049 0.133-0.121 0.291-0.218s0.255-0.194 0.291-0.291c0.049-0.158-0.012-0.288-0.182-0.391s-0.255-0.197-0.255-0.282c0-0.061 0.039-0.133 0.118-0.218s0.112-0.164 0.1-0.237c0-0.036-0.021-0.112-0.064-0.227s-0.067-0.2-0.073-0.255c-0.006-0.055 0.021-0.118 0.082-0.191 0.085-0.049 0.285-0.045 0.601 0.009s0.522 0.112 0.619 0.173c0.036 0.024 0.115 0.061 0.237 0.109s0.227 0.1 0.318 0.155c0.091 0.055 0.143 0.106 0.155 0.155h-0.091c0.085 0.073 0.137 0.158 0.155 0.255s-0.027 0.17-0.136 0.218c0.073-0.012 0.17 0.006 0.291 0.055 0.194 0.073 0.2 0.14 0.018 0.2 0.036-0.012 0.088-0.024 0.155-0.036s0.118-0.030 0.155-0.055c0.024-0.012 0.055-0.033 0.091-0.064s0.064-0.049 0.082-0.055c0.018-0.006 0.046-0.012 0.082-0.018s0.073 0.003 0.109 0.027c0.012 0 0.039-0.030 0.082-0.091s0.088-0.121 0.137-0.182 0.091-0.091 0.127-0.091 0.070 0.015 0.1 0.045c0.030 0.030 0.055 0.064 0.073 0.1s0.036 0.076 0.055 0.118c0.018 0.042 0.033 0.076 0.046 0.1 0.024 0.061 0.082 0.124 0.173 0.191s0.149 0.13 0.173 0.191c0.012 0.036 0.036 0.127 0.073 0.273s0.085 0.246 0.146 0.3 0.152 0.1 0.273 0.136c0.024 0.012 0.079 0.006 0.164-0.018s0.155-0.030 0.209-0.018c0.055 0.012 0.082 0.061 0.082 0.146 0.073-0.073 0.109-0.121 0.109-0.146 0.012 0.158 0.052 0.285 0.118 0.382s0.173 0.14 0.318 0.127l-0.036 0.4c-0.036 0.061-0.127 0.106-0.273 0.136s-0.237 0.058-0.273 0.082c-0.036 0.012-0.124 0.085-0.264 0.218s-0.197 0.212-0.173 0.237c-0.206-0.231-0.516-0.297-0.928-0.2-0.461 0.073-0.776 0.146-0.946 0.218-0.194 0.097-0.328 0.188-0.4 0.273-0.012 0.012-0.033 0.055-0.064 0.127s-0.061 0.14-0.091 0.2c-0.026 0.052-0.049 0.081-0.071 0.089 0.070-0.016 0.148-0.073 0.235-0.171 0.091-0.103 0.149-0.161 0.173-0.173 0.315-0.206 0.576-0.279 0.782-0.218 0.267 0.073 0.309 0.17 0.127 0.291-0.024 0.024-0.088 0.033-0.191 0.027s-0.173-0.003-0.209 0.009c0.109 0.024 0.2 0.058 0.273 0.1s0.091 0.1 0.055 0.173c0.050 0.028 0.089 0.057 0.118 0.086 0.256-0.019 0.514-0.029 0.774-0.029 1.387 0 2.734 0.274 4.003 0.813 1.226 0.522 2.308 1.239 3.217 2.132-0.157-2.111-0.768-4.080-1.833-5.905-1.25-2.141-2.945-3.837-5.086-5.086s-4.48-1.874-7.015-1.874-4.874 0.625-7.015 1.874c-2.141 1.25-3.837 2.945-5.086 5.086s-1.874 4.48-1.874 7.015 0.625 4.874 1.874 7.015c1.25 2.141 2.945 3.837 5.086 5.086 2.122 1.238 4.438 1.863 6.947 1.874-0.171-0.149-0.338-0.304-0.498-0.465-0.921-0.921-1.658-2.024-2.192-3.278zM31.281 28.143l-3.793-3.793c0.914-1.32 1.371-2.79 1.371-4.412 0-1.054-0.205-2.062-0.614-3.025-0.058-0.135-0.118-0.268-0.182-0.398-0.386-0.795-0.878-1.491-1.477-2.090-0.697-0.697-1.526-1.25-2.488-1.659s-1.97-0.614-3.025-0.614c-1.054 0-2.062 0.205-3.025 0.614-0.234 0.099-0.46 0.208-0.678 0.324-0.679 0.363-1.283 0.807-1.81 1.335-0.080 0.080-0.158 0.162-0.234 0.246-0.587 0.644-1.062 1.391-1.424 2.242-0.154 0.363-0.279 0.732-0.375 1.108-0.070 0.275-0.125 0.553-0.164 0.835-0.049 0.355-0.074 0.715-0.074 1.081 0 1.054 0.205 2.062 0.614 3.024s0.962 1.791 1.659 2.488c0.697 0.697 1.526 1.25 2.488 1.659 0.046 0.020 0.093 0.039 0.139 0.058 0.92 0.371 1.882 0.556 2.885 0.556 1.622 0 3.093-0.457 4.412-1.371l3.793 3.782c0.265 0.28 0.597 0.42 0.995 0.42 0.383 0 0.715-0.14 0.995-0.42s0.42-0.612 0.42-0.995c0-0.391-0.136-0.722-0.409-0.995zM25.535 22.12c-0.236 0.474-0.556 0.913-0.961 1.318-0.303 0.303-0.625 0.559-0.967 0.767-0.751 0.458-1.595 0.687-2.533 0.687-0.775 0-1.486-0.157-2.134-0.47-0.492-0.238-0.947-0.566-1.366-0.984-0.203-0.203-0.384-0.415-0.545-0.635-0.355-0.488-0.607-1.018-0.754-1.591-0.042-0.164-0.076-0.331-0.101-0.502-0.037-0.25-0.055-0.507-0.055-0.772 0-1.364 0.485-2.531 1.454-3.5s2.136-1.454 3.5-1.454 2.531 0.485 3.5 1.454c0.969 0.969 1.454 2.136 1.454 3.5 0 0.794-0.165 1.521-0.493 2.182z"></path>
</svg>
