<!-- Generated by IcoMoon.io -->
<svg version="1.1" xmlns="http://www.w3.org/2000/svg" width="32" height="32" viewBox="0 0 32 32">
<title>search-eye</title>
<path d="M18.938 9.484c-0.004 0.001-0.007 0.002-0.011 0.002 0.004 0 0.007-0.001 0.011-0.002zM5.989 9.795c-0.005 0-0.011 0-0.016 0.001 0.005-0 0.011-0 0.016-0.001zM15.43 3.115c0.001 0 0.002 0.001 0.003 0.001-0.001-0.001-0.002-0.001-0.003-0.001zM10.305 23.772c1.026 1.372 2.248 2.501 3.666 3.388-1.418-0.887-2.64-2.016-3.666-3.388zM6.139 20.803l0.018-0.032 0.019-0.032c0.721-1.179 1.579-2.258 2.551-3.209 0.414-0.404 0.852-0.789 1.313-1.153-0.047-0.053-0.099-0.106-0.158-0.16-0.133-0.121-0.255-0.182-0.364-0.182 0.097 0 0.097-0.082 0-0.246s-0.182-0.282-0.255-0.355c-0.024-0.024-0.097-0.103-0.218-0.237s-0.224-0.249-0.309-0.346c-0.085-0.097-0.158-0.209-0.218-0.337s-0.073-0.234-0.036-0.318c0.012-0.012 0-0.030-0.036-0.055s-0.082-0.049-0.136-0.073c-0.055-0.024-0.106-0.046-0.155-0.064s-0.085-0.027-0.109-0.027c0.024 0.049 0.052 0.136 0.082 0.264s0.064 0.221 0.1 0.282c0.024 0.049 0.127 0.224 0.309 0.528 0.315 0.51 0.461 0.886 0.437 1.128-0.073 0.024-0.121 0.012-0.146-0.036s-0.042-0.115-0.055-0.2-0.024-0.146-0.036-0.182c-0.036-0.073-0.13-0.152-0.282-0.237s-0.246-0.17-0.282-0.255c0.012 0 0.027-0.006 0.046-0.018s0.033-0.018 0.046-0.018c0.012-0.109-0.052-0.249-0.191-0.419s-0.197-0.291-0.173-0.364c-0.097-0.073-0.182-0.215-0.255-0.428s-0.133-0.349-0.182-0.409c-0.049-0.073-0.109-0.136-0.182-0.191s-0.164-0.115-0.273-0.182c-0.109-0.067-0.182-0.112-0.218-0.136-0.024-0.012-0.073-0.067-0.146-0.164-0.4-0.485-0.522-0.746-0.364-0.782-0.158 0.036-0.288-0.082-0.391-0.355s-0.136-0.482-0.1-0.628l-0.036-0.018c0.012-0.049 0.018-0.191 0.018-0.428s0.015-0.452 0.045-0.646c0.028-0.182 0.081-0.278 0.157-0.29-0.077 0.001-0.135-0.075-0.175-0.229-0.042-0.164-0.045-0.276-0.009-0.337 0.012-0.036 0.067-0.012 0.164 0.073s0.152 0.14 0.164 0.164c0.158-0.085 0.218-0.194 0.182-0.328-0.024-0.049-0.152-0.176-0.382-0.382-0.522-0.34-0.789-0.503-0.801-0.491 0.073-0.133 0.055-0.249-0.055-0.346-0.121 0.073-0.191 0.091-0.209 0.055s-0.033-0.103-0.045-0.2c-0.012-0.097-0.042-0.152-0.091-0.164-0.061-0.012-0.133-0.061-0.218-0.146 1.080-1.723 2.505-3.069 4.276-4.040 0.073-0.012 0.206-0.018 0.4-0.018 0.097 0.012 0.188 0.042 0.273 0.091s0.173 0.115 0.264 0.2c0.091 0.085 0.161 0.146 0.209 0.182 0.024-0.073-0.006-0.182-0.091-0.328 0.024-0.073 0.158-0.146 0.4-0.218 0.279-0.036 0.461-0.030 0.546 0.018-0.073-0.109-0.194-0.261-0.364-0.455l-0.091 0.091c-0.097-0.085-0.352-0.042-0.764 0.127-0.024 0.012-0.085 0.046-0.182 0.1s-0.176 0.094-0.237 0.118c-0.073 0.024-0.146 0.030-0.218 0.018 0.582-0.315 1.152-0.564 1.711-0.746 0.036 0.024 0.097 0.076 0.182 0.155s0.152 0.136 0.2 0.173c-0.036-0.024-0.061-0.012-0.073 0.036-0.049 0.146-0.049 0.267 0 0.364 0.061 0.085 0.143 0.133 0.246 0.146s0.227 0.006 0.373-0.018c0.146-0.024 0.243-0.036 0.291-0.036l0.182 0.018c0.369 0.035 0.525 0.003 0.465-0.094 0.034 0.053 0.073 0.148 0.117 0.285 0.049 0.152 0.103 0.258 0.164 0.318 0.061-0.049 0.073-0.133 0.036-0.255s-0.036-0.206 0-0.255c0.012-0.024 0.049-0.049 0.109-0.073s0.13-0.052 0.209-0.082c0.079-0.030 0.13-0.052 0.155-0.064 0.073-0.049 0.024-0.133-0.146-0.255-0.024-0.012-0.076-0.030-0.155-0.055s-0.149-0.049-0.209-0.073c-0.061-0.024-0.124-0.058-0.191-0.1s-0.097-0.091-0.091-0.146c0.006-0.055 0.039-0.124 0.1-0.209 0.073-0.061 0.191-0.085 0.355-0.073s0.288 0.042 0.373 0.091c0.328 0.182 0.376 0.346 0.146 0.491 0.121 0.012 0.267 0.061 0.437 0.146s0.237 0.176 0.2 0.273c0.097-0.182 0.194-0.273 0.291-0.273 0.061 0.012 0.118 0.094 0.173 0.246s0.088 0.234 0.1 0.246c0.097 0.133 0.194 0.164 0.291 0.091s0.197-0.179 0.3-0.318c0.096-0.13 0.153-0.194 0.17-0.192-0.118-0.048-0.129-0.096-0.033-0.144 0.182-0.109 0.346-0.139 0.491-0.091 0.036 0.024 0.085 0.079 0.146 0.164 0.109 0.218 0.091 0.321-0.055 0.309 0.109 0.097 0.155 0.218 0.136 0.364s-0.112 0.212-0.282 0.2c-0.061 0-0.149-0.030-0.264-0.091s-0.203-0.094-0.264-0.1c-0.061-0.006-0.146 0.027-0.255 0.1-0.049 0.061-0.112 0.164-0.191 0.309s-0.149 0.249-0.209 0.309c-0.182 0.182-0.485 0.249-0.91 0.2 0.036 0 0.033 0.036-0.009 0.109s-0.1 0.155-0.173 0.246c-0.073 0.091-0.115 0.143-0.127 0.155-0.109 0.121-0.182 0.261-0.218 0.419 0 0.024-0.006 0.106-0.018 0.246s-0.036 0.246-0.073 0.318c0.146-0.036 0.261 0.036 0.346 0.218 0.073 0.17 0.073 0.261 0 0.273 0.4-0.061 0.752-0.036 1.055 0.073 0.437 0.158 0.685 0.315 0.746 0.473 0.073-0.109 0.249-0.115 0.528-0.018 0.109 0.061 0.206 0.243 0.291 0.546 0.049 0.182 0.13 0.34 0.246 0.473s0.24 0.17 0.373 0.109l0.055-0.036c0.049-0.024 0.088-0.046 0.118-0.064s0.064-0.042 0.1-0.073c0.036-0.030 0.058-0.058 0.064-0.082s-0.003-0.049-0.027-0.073c-0.085-0.073-0.149-0.173-0.191-0.3s-0.033-0.24 0.027-0.337c0.036-0.049 0.133-0.121 0.291-0.218s0.255-0.194 0.291-0.291c0.049-0.158-0.012-0.288-0.182-0.391s-0.255-0.197-0.255-0.282c0-0.061 0.039-0.133 0.118-0.218s0.112-0.164 0.1-0.237c0-0.036-0.021-0.112-0.064-0.227s-0.067-0.2-0.073-0.255c-0.006-0.055 0.021-0.118 0.082-0.191 0.085-0.049 0.285-0.045 0.601 0.009s0.522 0.112 0.619 0.173c0.036 0.024 0.115 0.061 0.237 0.109s0.227 0.1 0.318 0.155c0.091 0.055 0.143 0.106 0.155 0.155h-0.091c0.085 0.073 0.136 0.158 0.155 0.255s-0.027 0.17-0.137 0.218c0.073-0.012 0.17 0.006 0.291 0.055 0.194 0.073 0.2 0.139 0.018 0.2 0.036-0.012 0.088-0.024 0.155-0.036s0.118-0.030 0.155-0.055c0.024-0.012 0.055-0.033 0.091-0.064s0.064-0.049 0.082-0.055c0.018-0.006 0.046-0.012 0.082-0.018s0.073 0.003 0.109 0.027c0.012 0 0.039-0.030 0.082-0.091s0.088-0.121 0.137-0.182c0.049-0.061 0.091-0.091 0.127-0.091s0.070 0.015 0.1 0.045c0.030 0.030 0.055 0.064 0.073 0.1s0.036 0.076 0.055 0.118c0.018 0.042 0.033 0.076 0.046 0.1 0.024 0.061 0.082 0.124 0.173 0.191s0.149 0.13 0.173 0.191c0.012 0.036 0.036 0.127 0.073 0.273s0.085 0.246 0.146 0.3 0.152 0.1 0.273 0.136c0.024 0.012 0.079 0.006 0.164-0.018s0.155-0.030 0.209-0.018c0.055 0.012 0.082 0.061 0.082 0.146 0.073-0.073 0.109-0.121 0.109-0.146 0.012 0.158 0.052 0.285 0.118 0.382s0.173 0.139 0.318 0.127l-0.036 0.4c-0.036 0.061-0.127 0.106-0.273 0.136s-0.237 0.058-0.273 0.082c-0.036 0.012-0.124 0.085-0.264 0.218s-0.197 0.212-0.173 0.237c-0.206-0.23-0.516-0.297-0.928-0.2-0.461 0.073-0.776 0.146-0.946 0.218-0.194 0.097-0.328 0.188-0.4 0.273-0.012 0.012-0.033 0.055-0.064 0.127s-0.061 0.14-0.091 0.2c-0.026 0.052-0.049 0.081-0.071 0.089 0.070-0.016 0.148-0.073 0.235-0.171 0.091-0.103 0.149-0.161 0.173-0.173 0.315-0.206 0.576-0.279 0.782-0.218 0.267 0.073 0.309 0.17 0.127 0.291-0.024 0.024-0.088 0.033-0.191 0.027s-0.173-0.003-0.209 0.009c0.109 0.024 0.2 0.058 0.273 0.1s0.091 0.1 0.055 0.173c0.194 0.109 0.23 0.231 0.109 0.364-0.158 0.158-0.346 0.224-0.564 0.2 0.036 0 0.036 0.024 0 0.073l-0.309 0.2c-0.024 0.012-0.103 0.042-0.237 0.091s-0.224 0.103-0.273 0.164c-0.036 0.049-0.055 0.121-0.055 0.218s-0.006 0.17-0.018 0.218-0.061 0.061-0.146 0.036c-0.036 0.073-0.149 0.13-0.337 0.173s-0.312 0.106-0.373 0.191c0.073 0.097 0.067 0.194-0.018 0.291-0.146 0.121-0.273 0.109-0.382-0.036-0.061 0.024-0.106 0.085-0.137 0.182s-0.076 0.164-0.137 0.2c0.085 0.133 0.073 0.23-0.036 0.291 0.012 0 0.039 0.012 0.082 0.036s0.088 0.055 0.136 0.091c0.049 0.036 0.079 0.055 0.091 0.055-0.049 0.109-0.115 0.164-0.2 0.164 0.040 0.107 0.030 0.22-0.029 0.338 0.828-0.139 1.67-0.209 2.517-0.209 1.378 0 2.741 0.185 4.053 0.55 1.302 0.362 2.582 0.91 3.804 1.629 0.173 0.101 0.343 0.206 0.511 0.313 0.066-0.56 0.099-1.13 0.099-1.71 0-2.536-0.625-4.874-1.874-7.015s-2.945-3.837-5.086-5.086c-2.141-1.25-4.48-1.874-7.015-1.874s-4.874 0.625-7.015 1.874c-2.141 1.25-3.837 2.945-5.086 5.086s-1.874 4.48-1.874 7.015c0 2.535 0.625 4.874 1.874 7.015 0.977 1.673 2.225 3.074 3.746 4.203-0.305-0.613-0.459-1.25-0.459-1.899-0-0.738 0.2-1.462 0.593-2.151zM26.459 17.188c-2.080-1.223-4.277-1.834-6.591-1.834s-4.51 0.611-6.591 1.834-3.736 2.841-4.968 4.856c-0.176 0.308-0.264 0.611-0.264 0.91s0.088 0.603 0.264 0.91c1.231 2.014 2.887 3.633 4.968 4.856s4.277 1.834 6.591 1.834 4.51-0.609 6.591-1.827c2.080-1.218 3.736-2.839 4.968-4.862 0.176-0.308 0.264-0.611 0.264-0.91s-0.088-0.603-0.264-0.91c-1.231-2.014-2.887-3.633-4.968-4.856zM19.868 17.254c0.176 0 0.325 0.062 0.449 0.185s0.185 0.273 0.185 0.449-0.062 0.325-0.185 0.449c-0.123 0.123-0.273 0.185-0.449 0.185-0.756 0-1.403 0.268-1.94 0.805s-0.805 1.183-0.805 1.94c0 0.176-0.062 0.326-0.185 0.449s-0.273 0.185-0.449 0.185-0.325-0.062-0.449-0.185c-0.123-0.123-0.185-0.273-0.185-0.449 0-1.1 0.394-2.043 1.181-2.83s1.731-1.181 2.83-1.181zM25.601 27.262c-1.764 1.069-3.675 1.603-5.733 1.603s-3.969-0.534-5.733-1.603c-0.055-0.033-0.11-0.067-0.164-0.101-1.418-0.887-2.64-2.016-3.666-3.388-0.197-0.264-0.387-0.537-0.57-0.818 1.337-2.076 3.013-3.628 5.027-4.658-0.537 0.915-0.805 1.904-0.805 2.969 0 1.627 0.578 3.019 1.735 4.176s2.549 1.735 4.176 1.735c1.627 0 3.019-0.578 4.176-1.735s1.735-2.549 1.735-4.176c0-1.064-0.268-2.054-0.805-2.969 2.014 1.029 3.69 2.582 5.027 4.658-1.17 1.803-2.637 3.239-4.4 4.308z"></path>
</svg>
