<!-- Generated by IcoMoon.io -->
<svg version="1.1" xmlns="http://www.w3.org/2000/svg" width="32" height="32" viewBox="0 0 32 32">
<title>select-hand</title>
<path d="M25.15 9.685c-0.25 0-0.498 0.036-0.74 0.108-0.547-0.576-1.256-0.892-2.005-0.892-0.249 0-0.498 0.036-0.74 0.108-0.547-0.576-1.256-0.892-2.005-0.892-0.4 0-0.786 0.089-1.151 0.266v-4.176c0-1.027-0.342-1.993-0.964-2.721-0.626-0.732-1.459-1.136-2.346-1.136s-1.721 0.403-2.346 1.136c-0.621 0.728-0.964 1.694-0.964 2.721l0 10.040c-0.31-0.102-0.586-0.196-0.832-0.281-1.298-0.445-1.949-0.668-3.714-0.668-1.908 0-3.46 1.809-3.46 4.033s1.552 4.033 3.46 4.033c1.24 0 2.187 0.263 2.982 0.827 0.702 0.498 1.321 1.244 2.072 2.492 0.008 0.013 0.016 0.026 0.024 0.040h-2.133v5.839h16.227v-5.839h-1.419c0.117-1.736 0.538-2.217 1.070-2.823 0.428-0.489 0.962-1.097 1.353-2.203 0.408-1.153 0.598-2.649 0.598-4.709v-1.903c-0-1.873-1.331-3.398-2.967-3.398zM22.988 24.721h-8.196c-0.204-0.451-0.425-0.873-0.655-1.256-0.923-1.536-1.818-2.568-2.815-3.25-0.553-0.378-1.137-0.651-1.786-0.837-0.665-0.189-1.382-0.281-2.192-0.281-0.716 0-1.344-0.798-1.344-1.709 0-0.894 0.615-1.65 1.344-1.65 1.736 0 2.377 0.241 3.653 0.721 0.281 0.106 0.599 0.225 0.964 0.356l0.004 0.001c0.675 0.213 1.195 0.365 1.59 0.467l0.134 0.034 0.017-12.934c0-0.974 0.67-1.767 1.494-1.767s1.494 0.793 1.494 1.767l0 0.086v7.52h1.816v-0.299c0-0.721 0.516-1.308 1.151-1.308 0.395 0 0.758 0.227 0.972 0.609l0.462 0.826 0.746-0.481c0.172-0.111 0.367-0.169 0.565-0.169 0.395 0 0.758 0.227 0.972 0.609l0.462 0.826 0.746-0.481c0.172-0.111 0.367-0.169 0.565-0.169 0.634 0 1.151 0.587 1.151 1.308v1.903c0 1.51-0.158 2.655-0.484 3.499-0.28 0.727-0.649 1.134-0.974 1.493-0.057 0.063-0.111 0.122-0.165 0.184-0.706 0.805-1.505 1.716-1.689 4.383z"></path>
</svg>
