<!-- Generated by IcoMoon.io -->
<svg version="1.1" xmlns="http://www.w3.org/2000/svg" width="32" height="32" viewBox="0 0 32 32">
<title>select-arrow</title>
<path d="M8.283 5.823c-0.197-0.145-0.424-0.199-0.674-0.154l-0.323 0.129c-0.344 0.227-0.481 0.532-0.412 0.922l3.717 20.978c0.069 0.39 0.303 0.631 0.703 0.724l0.348 0.010c0.242-0.043 0.435-0.169 0.58-0.374l3.58-5.125 3.781 5.832c0.142 0.206 0.333 0.336 0.572 0.388 0.24 0.052 0.469 0.011 0.683-0.121l2.283-1.482c0.206-0.144 0.336-0.334 0.388-0.572 0.054-0.241 0.013-0.469-0.121-0.683l-3.98-6.142 5.329-0.944c0.39-0.069 0.631-0.305 0.724-0.703 0.092-0.391-0.030-0.7-0.367-0.93l-16.813-11.752z"></path>
</svg>
