<!-- Generated by IcoMoon.io -->
<svg version="1.1" xmlns="http://www.w3.org/2000/svg" width="32" height="32" viewBox="0 0 32 32">
<title>sensor</title>
<path d="M17.388 31.284c4.833-0.672 8.552-4.823 8.552-9.836-0.001-5.485-4.449-9.941-9.945-9.941-5.485 0-9.934 4.457-9.934 9.94 0 5.013 3.718 9.164 8.553 9.836v0.031c0.958 0.024 1.94-0.001 2.898-0.077 0 0 0-0.051 0-0.102 0 0.051 0 0.102 0 0.102-0.957 0.076-1.94 0.101-2.898 0.077zM15.841 24.532c-1.755 0-3.178-1.423-3.178-3.178s1.423-3.178 3.178-3.178c1.755 0 3.178 1.423 3.178 3.178s-1.423 3.178-3.178 3.178zM19.048 7.178c0.276 0 0.551-0.106 0.763-0.314 0.42-0.42 0.42-1.105 0-1.523-2.103-2.098-5.52-2.098-7.62 0-0.42 0.418-0.42 1.103 0 1.523 0.42 0.418 1.103 0.418 1.523 0 1.26-1.258 3.31-1.258 4.572 0 0.212 0.211 0.487 0.314 0.763 0.314zM21.33 3.817c0.213 0.211 0.489 0.315 0.763 0.315s0.551-0.106 0.763-0.315c0.42-0.42 0.42-1.105 0-1.523-1.831-1.831-4.263-2.839-6.855-2.839s-5.024 1.010-6.855 2.839c-0.42 0.418-0.42 1.103 0 1.523s1.103 0.422 1.523 0c2.846-2.848 7.813-2.848 10.662 0z"></path>
</svg>
