<!-- Generated by IcoMoon.io -->
<svg version="1.1" xmlns="http://www.w3.org/2000/svg" width="32" height="32" viewBox="0 0 32 32">
<title>server</title>
<path d="M23.842-0.522h-15.764c-1.774 0-3.212 1.62-3.212 3.62v24.714c0 2 1.438 3.62 3.212 3.62h15.764c1.773 0 3.212-1.62 3.212-3.62v-24.714c0-1.999-1.438-3.62-3.212-3.62zM16 24.32c-1.035 0-1.875-0.839-1.875-1.875s0.839-1.875 1.875-1.875c1.035 0 1.875 0.839 1.875 1.875s-0.839 1.875-1.875 1.875zM22.178 14.893h-12.356c-0.517 0-0.936-0.419-0.936-0.936s0.419-0.936 0.936-0.936h12.356c0.517 0 0.936 0.419 0.936 0.936s-0.42 0.936-0.937 0.936zM22.178 11.148h-12.356c-0.517 0-0.936-0.419-0.936-0.936s0.419-0.936 0.936-0.936h12.356c0.517 0 0.936 0.419 0.936 0.936s-0.42 0.936-0.937 0.936zM22.178 7.404h-12.356c-0.517 0-0.936-0.419-0.936-0.936s0.419-0.936 0.936-0.936h12.356c0.517 0 0.936 0.419 0.936 0.936s-0.42 0.936-0.937 0.936z"></path>
</svg>
