<!-- Generated by IcoMoon.io -->
<svg version="1.1" xmlns="http://www.w3.org/2000/svg" width="32" height="32" viewBox="0 0 32 32">
<title>set-srs</title>
<path d="M25.981 15.65c0.422-1.151 0.633-2.368 0.633-3.653 0-1.926-0.474-3.701-1.423-5.328s-2.236-2.914-3.863-3.863c-1.626-0.949-3.402-1.423-5.328-1.423s-3.701 0.474-5.328 1.423c-1.626 0.949-2.914 2.237-3.863 3.863s-1.423 3.402-1.423 5.328c0 1.268 0.206 2.472 0.618 3.61l-5.795 3.616 15.696 10.558 15.892-10.659-5.816-3.471zM22.385 18.092c-1.336 1.41-2.953 2.28-4.851 2.612-0.018-0.092-0.028-0.166-0.028-0.221-0.009-0.074 0.023-0.173 0.097-0.297s0.111-0.219 0.111-0.283c-0.147-0.037-0.203-0.157-0.166-0.359 0.018-0.138 0.152-0.322 0.401-0.553 0.175-0.157 0.23-0.378 0.166-0.663-0.028-0.12-0.051-0.295-0.069-0.525-0.018-0.223-0.036-0.381-0.053-0.474 0.009 0.024 0.052 0.046 0.129 0.067 0.088 0.023 0.141 0.053 0.159 0.090 0.018-0.028 0.041-0.078 0.069-0.152s0.055-0.129 0.083-0.166c0.018-0.028 0.058-0.062 0.117-0.104s0.099-0.067 0.117-0.076c0.018-0.009 0.060-0.039 0.124-0.090s0.117-0.090 0.159-0.117c0.041-0.028 0.097-0.048 0.166-0.062s0.117 0.007 0.145 0.062c0.046 0.055 0.037 0.14-0.028 0.256s-0.064 0.196 0 0.242c0.009-0.028 0.018-0.087 0.028-0.18s0.037-0.161 0.083-0.207c0.055-0.055 0.108-0.088 0.159-0.097s0.097-0.002 0.138 0.021c0.041 0.023 0.090 0.055 0.145 0.097s0.106 0.067 0.152 0.076c0.138 0.046 0.304 0.147 0.498 0.304-0.009-0.009-0.009-0.021 0-0.035s0.028-0.028 0.055-0.041c0.028-0.014 0.053-0.028 0.076-0.041s0.048-0.025 0.076-0.035l0.041-0.014c0.064 0 0.111-0.005 0.138-0.014s0.067 0 0.117 0.028 0.085 0.048 0.104 0.062c0.018 0.014 0.051 0.039 0.097 0.076s0.078 0.064 0.097 0.083c0.028 0.018 0.078 0.051 0.152 0.097s0.131 0.083 0.173 0.111c0.041 0.028 0.078 0.069 0.111 0.124s0.044 0.115 0.035 0.18c0.055 0.009 0.166 0.046 0.332 0.111 0.028 0.018 0.085 0.035 0.173 0.048s0.145 0.035 0.173 0.062zM11.758 4.244c0.055-0.009 0.157-0.014 0.304-0.014 0.074 0.009 0.143 0.032 0.207 0.069s0.131 0.088 0.2 0.152 0.122 0.111 0.159 0.138c0.018-0.055-0.005-0.138-0.069-0.249 0.018-0.055 0.12-0.111 0.304-0.166 0.212-0.028 0.35-0.023 0.415 0.014-0.055-0.083-0.147-0.198-0.276-0.345l-0.069 0.069c-0.074-0.064-0.267-0.032-0.58 0.097-0.018 0.009-0.065 0.035-0.138 0.076s-0.134 0.071-0.18 0.090c-0.055 0.018-0.111 0.023-0.166 0.014 0.442-0.24 0.875-0.428 1.299-0.567 0.028 0.018 0.074 0.058 0.138 0.117s0.115 0.104 0.152 0.131c-0.028-0.018-0.046-0.009-0.055 0.028-0.037 0.111-0.037 0.203 0 0.276 0.046 0.064 0.108 0.101 0.187 0.111s0.173 0.005 0.283-0.014c0.111-0.018 0.184-0.028 0.221-0.028l0.138 0.014c0.278 0.026 0.396 0.003 0.355-0.069 0.026 0.040 0.055 0.112 0.088 0.214 0.037 0.115 0.078 0.196 0.124 0.242 0.046-0.037 0.055-0.101 0.028-0.193s-0.028-0.157 0-0.193c0.009-0.018 0.037-0.037 0.083-0.055s0.099-0.039 0.159-0.062c0.060-0.023 0.099-0.039 0.117-0.048 0.055-0.037 0.018-0.101-0.111-0.193-0.018-0.009-0.058-0.023-0.117-0.041s-0.113-0.037-0.159-0.055c-0.046-0.018-0.094-0.044-0.145-0.076s-0.074-0.069-0.069-0.111c0.005-0.041 0.030-0.094 0.076-0.159 0.055-0.046 0.145-0.064 0.269-0.055s0.219 0.032 0.283 0.069c0.249 0.138 0.286 0.263 0.111 0.373 0.092 0.009 0.203 0.046 0.332 0.111s0.18 0.134 0.152 0.207c0.074-0.138 0.147-0.207 0.221-0.207 0.046 0.009 0.090 0.071 0.131 0.187s0.067 0.177 0.076 0.187c0.074 0.101 0.147 0.124 0.221 0.069s0.15-0.136 0.228-0.242c0.073-0.099 0.116-0.147 0.129-0.146-0.090-0.037-0.098-0.073-0.025-0.11 0.138-0.083 0.263-0.106 0.373-0.069 0.028 0.018 0.065 0.060 0.111 0.124 0.083 0.166 0.069 0.244-0.041 0.235 0.083 0.074 0.117 0.166 0.104 0.276s-0.085 0.161-0.214 0.152c-0.046 0-0.113-0.023-0.2-0.069s-0.154-0.071-0.2-0.076c-0.046-0.005-0.111 0.021-0.193 0.076-0.037 0.046-0.085 0.124-0.145 0.235s-0.113 0.189-0.159 0.235c-0.138 0.138-0.369 0.189-0.691 0.152 0.028 0 0.025 0.028-0.007 0.083s-0.076 0.117-0.131 0.187c-0.055 0.069-0.088 0.108-0.097 0.117-0.083 0.092-0.138 0.198-0.166 0.318 0 0.018-0.005 0.081-0.014 0.187s-0.028 0.187-0.055 0.242c0.111-0.028 0.198 0.028 0.263 0.166 0.055 0.129 0.055 0.198 0 0.207 0.304-0.046 0.571-0.028 0.802 0.055 0.332 0.12 0.521 0.24 0.567 0.359 0.055-0.083 0.189-0.088 0.401-0.014 0.083 0.046 0.157 0.184 0.221 0.415 0.037 0.138 0.099 0.258 0.187 0.359s0.182 0.129 0.283 0.083l0.041-0.028c0.037-0.018 0.067-0.035 0.090-0.048s0.048-0.032 0.076-0.055 0.044-0.044 0.048-0.062c0.005-0.018-0.002-0.037-0.021-0.055-0.064-0.055-0.113-0.131-0.145-0.228s-0.025-0.182 0.021-0.256c0.028-0.037 0.101-0.092 0.221-0.166s0.193-0.147 0.221-0.221c0.037-0.12-0.009-0.219-0.138-0.297s-0.193-0.15-0.193-0.214c0-0.046 0.030-0.101 0.090-0.166s0.085-0.124 0.076-0.18c0-0.028-0.016-0.085-0.048-0.173s-0.051-0.152-0.055-0.193c-0.005-0.041 0.016-0.090 0.062-0.145 0.065-0.037 0.217-0.035 0.456 0.007s0.396 0.085 0.47 0.131c0.028 0.018 0.087 0.046 0.18 0.083s0.173 0.076 0.242 0.117c0.069 0.041 0.108 0.081 0.117 0.117h-0.069c0.064 0.055 0.104 0.12 0.117 0.193s-0.021 0.129-0.104 0.166c0.055-0.009 0.129 0.005 0.221 0.041 0.147 0.055 0.152 0.106 0.014 0.152 0.028-0.009 0.067-0.018 0.117-0.028s0.090-0.023 0.117-0.041c0.018-0.009 0.041-0.025 0.069-0.048s0.048-0.037 0.062-0.041c0.014-0.005 0.035-0.009 0.062-0.014s0.055 0.002 0.083 0.021c0.009 0 0.030-0.023 0.062-0.069s0.067-0.092 0.104-0.138c0.037-0.046 0.069-0.069 0.097-0.069s0.053 0.012 0.076 0.035c0.023 0.023 0.041 0.048 0.055 0.076s0.028 0.058 0.041 0.090c0.014 0.032 0.025 0.058 0.035 0.076 0.018 0.046 0.062 0.094 0.131 0.145s0.113 0.099 0.131 0.145c0.009 0.028 0.028 0.097 0.055 0.207s0.065 0.187 0.111 0.228c0.046 0.041 0.115 0.076 0.207 0.104 0.018 0.009 0.060 0.005 0.124-0.014s0.117-0.023 0.159-0.014c0.041 0.009 0.062 0.046 0.062 0.111 0.055-0.055 0.083-0.092 0.083-0.111 0.009 0.12 0.039 0.217 0.090 0.29s0.131 0.106 0.242 0.097l-0.028 0.304c-0.028 0.046-0.097 0.081-0.207 0.104s-0.18 0.044-0.207 0.062c-0.028 0.009-0.094 0.065-0.2 0.166s-0.15 0.161-0.131 0.18c-0.157-0.175-0.392-0.226-0.705-0.152-0.35 0.055-0.59 0.111-0.719 0.166-0.147 0.074-0.249 0.143-0.304 0.207-0.009 0.009-0.025 0.041-0.048 0.097s-0.046 0.106-0.069 0.152c-0.019 0.038-0.036 0.060-0.052 0.067 0.053-0.013 0.112-0.055 0.177-0.129 0.069-0.078 0.113-0.122 0.131-0.131 0.239-0.157 0.438-0.212 0.594-0.166 0.203 0.055 0.235 0.129 0.097 0.221-0.018 0.018-0.067 0.025-0.145 0.021s-0.131-0.002-0.159 0.007c0.083 0.018 0.152 0.044 0.207 0.076s0.069 0.076 0.041 0.131c0.147 0.083 0.175 0.175 0.083 0.276-0.12 0.12-0.263 0.17-0.428 0.152 0.028 0 0.028 0.018 0 0.055l-0.235 0.152c-0.018 0.009-0.078 0.032-0.18 0.069s-0.17 0.078-0.207 0.124c-0.028 0.037-0.041 0.092-0.041 0.166s-0.005 0.129-0.014 0.166c-0.009 0.037-0.046 0.046-0.111 0.028-0.028 0.055-0.113 0.099-0.256 0.131s-0.237 0.081-0.283 0.145c0.055 0.074 0.051 0.147-0.014 0.221-0.111 0.092-0.207 0.083-0.29-0.028-0.046 0.018-0.081 0.064-0.104 0.138s-0.058 0.124-0.104 0.152c0.064 0.101 0.055 0.175-0.028 0.221 0.009 0 0.030 0.009 0.062 0.028s0.067 0.041 0.104 0.069 0.060 0.041 0.069 0.041c-0.037 0.083-0.088 0.124-0.152 0.124 0.055 0.147-0.014 0.309-0.207 0.484-0.037 0.037-0.094 0.074-0.173 0.111s-0.15 0.067-0.214 0.090c-0.064 0.023-0.101 0.039-0.111 0.048-0.092 0.083-0.161 0.168-0.207 0.256s-0.053 0.173-0.021 0.256c0.032 0.083 0.117 0.138 0.256 0.166l0.014 0.111v0.249l0.014 0.111c0.009 0.065 0.016 0.122 0.021 0.173s0.005 0.115 0 0.193c-0.005 0.078-0.025 0.122-0.062 0.131s-0.088 0-0.152-0.028c-0.074-0.037-0.161-0.24-0.263-0.608-0.018-0.092-0.074-0.203-0.166-0.332-0.046 0.046-0.085 0.076-0.117 0.090s-0.055 0.016-0.069 0.007c-0.014-0.009-0.039-0.030-0.076-0.062s-0.069-0.058-0.097-0.076c-0.046-0.028-0.127-0.051-0.242-0.069s-0.187-0.041-0.214-0.069c-0.221 0.166-0.355 0.124-0.401-0.124-0.018 0.046-0.016 0.108 0.007 0.187s0.035 0.122 0.035 0.131c-0.064 0.12-0.166 0.129-0.304 0.028-0.055-0.055-0.182-0.062-0.38-0.021-0.187 0.039-0.314 0.047-0.382 0.025 0.010 0.006 0.025 0.018 0.044 0.037 0.028 0.018 0.046 0.032 0.055 0.041-0.009 0.037-0.023 0.064-0.041 0.083s-0.037 0.025-0.055 0.021c-0.018-0.005-0.039-0.005-0.062 0s-0.044 0.012-0.062 0.021c-0.037 0.028-0.083 0.076-0.138 0.145s-0.097 0.113-0.124 0.131c0.055 0.147 0.081 0.26 0.076 0.339s-0.018 0.193-0.041 0.345c-0.023 0.152-0.035 0.274-0.035 0.366 0 0.147 0.044 0.318 0.131 0.511s0.191 0.327 0.311 0.401c0.065 0.037 0.175 0.060 0.332 0.069s0.267 0 0.332-0.028c0.055-0.028 0.097-0.060 0.124-0.097s0.051-0.090 0.069-0.159c0.018-0.069 0.032-0.117 0.041-0.145 0.065-0.175 0.184-0.267 0.359-0.276 0.111-0.009 0.191 0.002 0.242 0.035s0.071 0.076 0.062 0.131-0.028 0.113-0.055 0.173c-0.028 0.060-0.062 0.127-0.104 0.2s-0.067 0.129-0.076 0.166c-0.018 0.074-0.035 0.177-0.048 0.311s-0.025 0.214-0.035 0.242c0.018 0.009 0.088 0.014 0.207 0.014 0-0.018 0.007-0.048 0.021-0.090s0.021-0.067 0.021-0.076c0.046 0.074 0.12 0.115 0.221 0.124s0.175-0.028 0.221-0.111c0.018 0.028 0.074 0.097 0.166 0.207s0.143 0.203 0.152 0.276c0.009 0.037 0.028 0.097 0.055 0.18s0.037 0.14 0.028 0.173c-0.009 0.032-0.055 0.048-0.138 0.048-0.037 0-0.060 0.014-0.069 0.041s-0.009 0.062 0 0.104c0.009 0.041 0.021 0.081 0.035 0.117s0.032 0.076 0.055 0.117c0.023 0.041 0.035 0.067 0.035 0.076 0.166 0.304 0.392 0.387 0.677 0.249 0 0.267-0.064 0.415-0.194 0.442-0.074 0.018-0.157-0.028-0.249-0.138-0.084-0.101-0.118-0.186-0.103-0.256-0.014 0.038-0.044 0.073-0.091 0.104-0.046-0.055-0.129-0.124-0.249-0.207s-0.203-0.152-0.249-0.207c-0.018-0.028-0.044-0.067-0.076-0.117s-0.074-0.117-0.124-0.2c-0.051-0.083-0.088-0.154-0.111-0.214s-0.025-0.094-0.007-0.104c-0.175 0.074-0.428 0.023-0.76-0.152-0.065-0.037-0.161-0.134-0.29-0.29s-0.263-0.226-0.401-0.207c-0.046 0.009-0.108 0.025-0.187 0.048s-0.145 0.035-0.2 0.035-0.129-0.018-0.221-0.055c-0.074-0.028-0.173-0.081-0.297-0.159s-0.21-0.127-0.256-0.145l-0.18-0.097-0.221-0.111c-0.055-0.028-0.113-0.071-0.173-0.131s-0.099-0.122-0.117-0.187c-0.018-0.055-0.041-0.166-0.069-0.332s-0.065-0.286-0.111-0.359c-0.055-0.092-0.134-0.184-0.235-0.276s-0.193-0.138-0.276-0.138c0.074 0 0.074-0.062 0-0.187s-0.138-0.214-0.193-0.269c-0.018-0.018-0.074-0.078-0.166-0.18s-0.17-0.189-0.235-0.263c-0.064-0.074-0.12-0.159-0.166-0.256s-0.055-0.177-0.028-0.242c0.009-0.009 0-0.023-0.028-0.041s-0.062-0.037-0.104-0.055c-0.041-0.018-0.081-0.035-0.117-0.048s-0.065-0.021-0.083-0.021c0.018 0.037 0.039 0.104 0.062 0.2s0.048 0.168 0.076 0.214c0.018 0.037 0.097 0.17 0.235 0.401 0.24 0.387 0.35 0.673 0.332 0.857-0.055 0.018-0.092 0.009-0.111-0.028s-0.032-0.088-0.041-0.152-0.018-0.111-0.028-0.138c-0.028-0.055-0.099-0.115-0.214-0.18s-0.187-0.129-0.214-0.193c0.009 0 0.021-0.005 0.035-0.014s0.025-0.014 0.035-0.014c0.009-0.083-0.039-0.189-0.145-0.318s-0.15-0.221-0.131-0.276c-0.074-0.055-0.138-0.164-0.193-0.325s-0.101-0.265-0.138-0.311c-0.037-0.055-0.083-0.104-0.138-0.145s-0.124-0.088-0.207-0.138c-0.083-0.051-0.138-0.085-0.166-0.104-0.018-0.009-0.055-0.051-0.111-0.124-0.304-0.369-0.396-0.567-0.276-0.594-0.12 0.028-0.219-0.062-0.297-0.269s-0.104-0.366-0.076-0.477l-0.028-0.014c0.009-0.037 0.014-0.145 0.014-0.325s0.012-0.343 0.035-0.491c0.022-0.138 0.061-0.211 0.119-0.22-0.058 0.001-0.103-0.057-0.133-0.174-0.032-0.124-0.035-0.21-0.007-0.256 0.009-0.028 0.051-0.009 0.124 0.055s0.115 0.106 0.124 0.124c0.12-0.065 0.166-0.147 0.138-0.249-0.018-0.037-0.115-0.134-0.29-0.29-0.396-0.258-0.599-0.382-0.608-0.373 0.055-0.101 0.041-0.189-0.041-0.263-0.092 0.055-0.145 0.069-0.159 0.041s-0.025-0.078-0.035-0.152-0.032-0.115-0.069-0.124c-0.046-0.009-0.101-0.046-0.166-0.111 0.82-1.308 1.903-2.331 3.248-3.068zM4.337 19.294l2.661-1.66c0.929 1.481 2.154 2.666 3.676 3.554 1.626 0.949 3.402 1.424 5.328 1.424s3.701-0.474 5.328-1.424c1.51-0.881 2.728-2.054 3.654-3.519l2.62 1.564-11.695 7.844-11.57-7.783zM16.814 4.008c0.001 0 0.002 0.001 0.002 0.001-0.001-0.001-0.001-0.001-0.002-0.001zM19.479 8.844c-0.003 0.001-0.007 0.002-0.010 0.002 0.003 0 0.007-0.001 0.010-0.002zM9.643 9.081c-0.004 0-0.008 0-0.012 0.001 0.004-0 0.008-0 0.012-0.001zM14.782 12.761c-0.005-0.003-0.009-0.004-0.012-0.004 0.004 0.002 0.008 0.003 0.012 0.004zM17.225 17.324c0.002-0.007 0.004-0.013 0.006-0.020-0.002 0.007-0.004 0.013-0.006 0.020z"></path>
</svg>
