<!-- Generated by IcoMoon.io -->
<svg version="1.1" xmlns="http://www.w3.org/2000/svg" width="32" height="32" viewBox="0 0 32 32">
<title>settings</title>
<path d="M7.82 16.685v-14.754c0-0.723-0.708-1.309-1.581-1.309s-1.581 0.586-1.581 1.309v14.672c-1.359 0.58-2.312 1.929-2.312 3.5s0.953 2.92 2.312 3.5v4.574c0 0.723 0.708 1.309 1.581 1.309s1.581-0.586 1.581-1.309v-4.655c1.264-0.619 2.134-1.917 2.134-3.419s-0.87-2.8-2.134-3.419zM6.15 22.161c-1.113 0-2.015-0.902-2.015-2.015s0.902-2.015 2.015-2.015c1.113 0 2.015 0.902 2.015 2.015s-0.902 2.015-2.015 2.015zM18.034 7.189v-5.258c0-0.723-0.708-1.309-1.581-1.309s-1.581 0.586-1.581 1.309v5.242c-1.321 0.596-2.24 1.925-2.24 3.469s0.919 2.872 2.24 3.469v14.067c0 0.723 0.708 1.309 1.581 1.309s1.581-0.586 1.581-1.309v-14.083c1.303-0.604 2.206-1.923 2.206-3.453s-0.904-2.849-2.206-3.453zM16.436 12.755c-1.113 0-2.015-0.902-2.015-2.015s0.902-2.015 2.015-2.015 2.015 0.902 2.015 2.015c0 1.113-0.902 2.015-2.015 2.015zM27.665 16.667v-14.735c0-0.723-0.708-1.309-1.581-1.309s-1.581 0.586-1.581 1.309v14.689c-1.339 0.589-2.274 1.927-2.274 3.484s0.935 2.895 2.274 3.484v4.59c0 0.723 0.708 1.309 1.581 1.309s1.581-0.586 1.581-1.309v-4.637c1.284-0.611 2.172-1.92 2.172-3.437s-0.888-2.826-2.172-3.437zM26.033 22.161c-1.113 0-2.015-0.902-2.015-2.015s0.902-2.015 2.015-2.015c1.113 0 2.015 0.902 2.015 2.015s-0.902 2.015-2.015 2.015z"></path>
</svg>
