<!-- Generated by IcoMoon.io -->
<svg version="1.1" xmlns="http://www.w3.org/2000/svg" width="32" height="32" viewBox="0 0 32 32">
<title>shaded-relief</title>
<path d="M29.454 0.433h-28.476v30.043h30.043v-28.819c0-0.675 0 0 0-1.224h-1.567zM5.685 16.358l-2.258 1.969v-1.827l2.188-2.121 9.125 8.844-4.956 4.804-4.099-11.669zM8.908 14.799l6.642-6.437 7.263 7.039-6.623 6.419-0.731-11.799-5.741 5.564-0.81-0.785zM24.697 28.167l-1.833-7.482-7.851 7.343h-2.369l14.032-13.6 1.786 1.978 0.112 11.863-3.876-0.101zM28.573 12.080v1.473l-1.799-1.992-2.533 2.455-8.692-8.424-8.071 7.823-1.863-1.805-2.188 2.121v-10.847h25.145v6.749h0v2.449z"></path>
</svg>
