<!-- Generated by IcoMoon.io -->
<svg version="1.1" xmlns="http://www.w3.org/2000/svg" width="32" height="32" viewBox="0 0 32 32">
<title>shp</title>
<path d="M12.831 27.632c1.152-0.926 2.458-1.791 3.544-2.319-0.937-1.453-2.322-3.563-2.902-4.861-2.078 0.921-3.258 1.693-4.725 2.923 1.117 1.433 2.865 3.251 4.083 4.256zM20.325 24.087c0.843-0.131 1.966-0.254 2.727-0.241-0.137-1.97-0.368-3.3-0.911-5.445-3.107-0.037-5.821 0.706-7.676 1.619 0.786 1.692 2.34 3.934 2.921 4.858 1.010-0.377 2.097-0.659 2.939-0.791zM18.059 6.008c1.123 1.556 1.948 2.911 2.721 4.842 2.084 0.051 4.917 0.673 6.078 1.129-0.693-1.848-2.010-4.194-3.408-5.62-1.522-0.276-3.744-0.452-5.391-0.352zM27.195 13.029c-1.685-0.677-3.988-1.1-6.009-1.119 0.623 1.455 1.349 3.886 1.703 5.45 1.461 0.176 3.746 0.589 5.299 1.271-0.093-1.716-0.356-4.007-0.993-5.603zM12.929 19.342c-0.543-1.166-1.326-3.348-1.872-4.981-2.122 1.042-3.707 2.057-5.28 3.269 0.711 2.031 1.399 3.58 2.298 4.859 1.051-0.914 3.206-2.357 4.854-3.147zM4.073 11.534c0.17 1.169 0.73 3.688 1.235 4.967 1.199-0.903 3.913-2.577 5.448-3.255-0.537-1.957-0.899-3.192-1.198-5.167-2.171 0.965-4.468 2.466-5.485 3.455zM9.409 7.024c-0.099-0.654-0.201-1.48-0.282-2.252-1.92 1.238-3.485 2.979-4.508 5.037 1.275-0.969 3.166-2.069 4.79-2.785zM23.988 23.883c0.3 0.030 0.787 0.111 1.314 0.219 1.213-1.304 2.154-2.863 2.736-4.588-1.361-0.522-3.361-0.929-4.837-1.038 0.499 1.833 0.749 4.529 0.787 5.407zM21.859 17.31c-0.749-2.596-1.179-3.801-1.816-5.381-3.051 0.132-5.654 0.885-8.025 2.008 0 0 0.874 2.809 1.884 4.954 2.484-1.142 5.211-1.656 7.957-1.581zM10.246 7.789c0.281 1.487 0.811 3.286 1.42 5.079 2.247-0.954 4.682-1.717 7.965-1.993-0.835-2.007-1.759-3.424-2.845-4.722-2.421 0.194-4.631 0.846-6.54 1.636zM10.046 6.811c1.61-0.677 4.1-1.373 5.991-1.58-0.913-0.971-2.105-1.896-2.549-2.228-1.342 0.269-2.607 0.75-3.76 1.406 0.081 0.809 0.198 1.657 0.317 2.403zM28.532 13.38c-0.15-0.055-0.301-0.11-0.438-0.146 0.237 0.793 0.443 1.983 0.571 3.179 0.024-0.316 0.036-0.636 0.036-0.958-0-0.707-0.058-1.4-0.169-2.075zM24.004 25.316c0.2-0.162 0.394-0.33 0.584-0.504-0.216-0.010-0.413-0.011-0.575-0.001 0 0-0.003 0.199-0.008 0.505zM23.102 24.799c-1.586 0-3.82 0.463-5.099 1 0.388 0.625 0.854 1.284 1.339 1.912 1.372-0.373 2.652-0.971 3.798-1.751-0.005-0.442-0.019-0.842-0.038-1.161zM27.794 12.28c0.166 0.086 0.372 0.197 0.583 0.313-0.504-2.189-1.574-4.161-3.047-5.755-0.35-0.126-0.582-0.202-0.582-0.202 1.566 2.121 2.109 3.119 3.046 5.645zM3.499 17.71c0.312-0.219 0.66-0.467 0.781-0.568-0.351-1.013-0.666-2.225-0.884-3.261-0.064 0.516-0.097 1.041-0.097 1.574 0 0.77 0.069 1.523 0.2 2.255zM16.972 26.196c-0.982 0.412-2.192 1.126-3.069 1.787 0.682 0.113 1.382 0.172 2.096 0.172 0.749 0 1.482-0.065 2.195-0.189-0.504-0.701-0.997-1.415-1.223-1.77zM7.144 23.256c-1.142-1.675-1.685-2.898-2.462-4.917-0.34 0.213-0.61 0.407-0.892 0.625 0.527 1.835 1.456 3.5 2.686 4.893 0.186-0.194 0.407-0.399 0.668-0.601zM16 2.754c-0.277 0-0.552 0.009-0.824 0.026 0.818 0.718 1.538 1.566 2.19 2.3 1.367-0.125 4.237 0.101 5.318 0.399-0.184-0.217-0.409-0.433-0.467-0.561-0.153-0.33 0.215-0.4 0.51-0.212 0.375 0.239 0.807 0.526 1.149 0.875 0.049 0.011 0.104 0.025 0.163 0.040-2.19-1.792-4.989-2.868-8.039-2.868zM7.865 24.039c-0.206 0.121-0.426 0.364-0.675 0.565 0.981 0.945 2.113 1.733 3.357 2.325-0.982-0.925-2.090-2.073-2.682-2.89zM29.622 7.846c-1.989-3.679-7.201-6.905-12.906-6.656-1.349-0.040-2.142 0.133-2.939 0.288-0.239-0.062-0.688 0.003-0.713 0.524 0 0.279 0.088 0.495 0.265 0.623 0.051 0.036 0.208 0.152 0.433 0.325 0.558-0.099 1.129-0.162 1.71-0.186-0.386-0.36-0.793-0.697-1.226-0.982 5.542-0.345 10.52 1.947 12.72 4.64-0.733-0.381-2.315-0.924-2.957-1.067-0.346-0.353-0.784-0.643-1.164-0.886-0.2-0.128-0.433-0.138-0.519-0.031 0.96 0.553 1.841 1.227 2.622 2.002 0.306 0.102 1.817 0.619 2.851 1.181 0.455 0.572 1.757 1.857 2.452 5.455 0.626 3.239-0.065 5.701-0.278 6.414l-0.215 0.838c-0.151 0.571-0.658 1.92-0.922 2.464 0.1-0.735 0.189-2.643 0.164-3.026 0.177 0.054 0.556-0.163 0.62-0.379s-0.625-0.549-0.625-0.549c0.015-1.090-0.105-2.517-0.299-3.773 0.004 0.129 0.006 0.257 0.006 0.387 0 1.005-0.117 1.983-0.338 2.92 0.004 0.065 0.008 0.13 0.011 0.194-0.017-0.008-0.035-0.015-0.053-0.023-0.073 0.291-0.155 0.578-0.248 0.861 0.108 0.040 0.213 0.080 0.314 0.12 0.048 0.683 0.044 3.025-0.089 4.167-0.132 0.281-0.474 0.764-0.702 0.992-0.53-0.215-1.466-0.444-2.275-0.605-0.238 0.257-0.486 0.503-0.744 0.74 0.836 0.023 2.046 0.198 2.64 0.347-0.821 1.039-1.953 1.904-3.159 2.655 0.046-0.808 0.071-2.014 0.082-2.62-0.283 0.236-0.576 0.461-0.879 0.672 0.011 0.74-0.001 1.607-0.050 2.405-0.318 0.209-1.845 0.902-2.444 1.095-0.452-0.496-0.933-1.072-1.395-1.673-0.379 0.104-0.765 0.191-1.157 0.26 0.497 0.692 1.011 1.38 1.306 1.716-1.067 0.186-2.561 0.326-3.744 0.274 0 0-1.778-1.177-2.227-1.63 0.129-0.107 0.27-0.217 0.419-0.328-1.266-0.203-2.47-0.594-3.582-1.142 0.667 0.634 1.289 1.177 1.677 1.467-0.215 0.191-0.73 0.788-0.835 0.944-4.486-1.406-7.809-5.185-8.994-9.15-0.689-2.305-0.939-4.858-0.722-7.176 0.062 0.010 0.206 0.079 0.422 0.018 0.149-0.102 0.683-0.477 1.062-0.807 0.058 0.509 0.188 1.234 0.366 2.027 0.096-0.961 0.299-1.891 0.598-2.777-0.001-0.005-0.002-0.011-0.002-0.016 0.004-0.004 0.008-0.008 0.012-0.011 0.233-0.686 0.523-1.346 0.864-1.973-0.377 0.272-0.713 0.536-0.989 0.784-0.137-1.206-0.215-2.231-0.168-2.854 1.456-2.041 3.437-4.029 5.242-5.020-0.015 0.383 0.067 1.404 0.184 2.481 0.199-0.129 0.402-0.252 0.608-0.37-0.097-0.895-0.155-1.761-0.135-2.416 1.795-1.016 5.264-1.765 7.622-1.802l0.413-0.011c0.346-0.003 0.374-0.279 0.048-0.323-2.929-0.4-5.465 0.192-8.069 1.27-2.711 1.143-6.161 3.772-8.265 8.735-0.492 1.383-2.459 7.976 1.037 13.636 2.838 4.593 6.492 6.778 10.962 7.402 4.461 0.622 6.881 0.082 9.703-1.171 6.598-2.929 11.636-13.923 6.596-21.893zM2.733 8.912c0 0 0.069 1.175 0.125 2.032 0 0-0.866 0.983-1.307 1.764 0.175-1.601 0.552-2.426 1.182-3.796zM12.327 29.609c0.172-0.224 0.345-0.503 0.56-0.694 0.518 0.344 1.073 0.737 1.516 0.991-0.682-0.077-1.483-0.094-2.077-0.297zM2.714 19.137c0.178 0.16 0.546 0.094 0.679-0.011 0.126-0.1 0.245-0.194 0.363-0.284-0.115-0.417-0.209-0.842-0.282-1.275-0.275 0.194-0.543 0.38-0.634 0.445-0.455 0.324-0.45 0.835-0.126 1.125zM29.649 13.129c-0.102-0.124-0.791-0.518-1.34-0.814 0.072 0.281 0.134 0.566 0.186 0.855 0.346 0.118 0.727 0.287 0.941 0.289 0.313 0.005 0.312-0.21 0.212-0.33zM5.728 24.963c0.135 0.056 0.592 0 0.796-0.038 0.235-0.045 0.445-0.188 0.638-0.35-0.252-0.244-0.494-0.499-0.725-0.763-0.219 0.223-0.393 0.435-0.532 0.616-0.146 0.191-0.312 0.477-0.177 0.534z"></path>
</svg>
