<!-- Generated by IcoMoon.io -->
<svg version="1.1" xmlns="http://www.w3.org/2000/svg" width="32" height="32" viewBox="0 0 32 32">
<title>sphere</title>
<path d="M16.021 1.774c-7.601 0-13.722 6.081-13.722 13.638 0 7.642 6.122 13.722 13.722 13.722 7.642 0 13.68-6.081 13.68-13.722 0-7.557-6.038-13.638-13.68-13.638zM15.092 4.35c0.042 0 0.083 0 0.083 0v7.853c-1.435-0.042-2.87-0.127-4.263-0.253 0.676-3.884 2.279-6.84 4.18-7.6zM15.175 13.681v5.954c-1.435-0.042-2.828-0.169-4.263-0.423-0.17-1.14-0.253-2.448-0.253-3.673 0-0.76 0.041-1.394 0.041-2.154 1.437 0.169 2.956 0.254 4.476 0.295zM8.125 7.601c1.14-1.225 2.407-1.816 3.842-2.491-1.265 1.689-2.069 3.926-2.532 6.628-2.492-0.675-3.125-0.718-3.504-1.056 0.506-1.097 1.223-2.195 2.195-3.082zM4.917 16.974c-0.085-0.465-0.085-1.013-0.085-1.562 0-1.098 0.17-2.238 0.465-3.251 0.886 0.38 2.026 0.675 3.967 1.054-0.083 0.803-0.126 1.478-0.126 2.323 0 1.14 0.083 2.322 0.253 3.378-2.534-0.464-3.927-1.309-4.475-1.942zM8.125 23.308c-1.225-1.14-2.026-2.533-2.66-4.096 1.014 0.55 2.532 1.014 4.222 1.394 0.421 2.027 1.055 3.758 2.026 5.109-1.308-0.549-2.575-1.31-3.589-2.407zM15.177 26.559c-1.141 0-2.111-1.225-2.745-2.744-0.508-0.887-0.886-1.858-1.14-2.956 1.265 0.127 2.575 0.212 3.884 0.254v5.446zM26.070 10.725c-0.338 0.254-1.267 0.634-3.546 1.056-0.423-2.744-1.225-5.067-2.492-6.713 2.617 0.929 4.856 3.040 6.038 5.658zM16.781 4.35c0.295 0 0.718 0.338 1.097 0.591 1.437 1.309 2.66 3.969 3.208 7.009-1.435 0.126-2.828 0.211-4.306 0.253v-7.853zM16.781 13.681c1.562-0.042 3.040-0.126 4.476-0.253 0.042 0.718 0.042 1.351 0.042 2.111 0 1.266-0.042 2.576-0.253 3.715-1.394 0.211-2.787 0.338-4.265 0.38v-5.954zM16.781 26.559v-5.446c1.309-0.043 2.617-0.127 3.927-0.254-0.549 1.9-1.731 5.7-3.927 5.7zM23.874 23.308c-1.012 1.098-2.322 1.857-3.632 2.407 1.014-1.394 1.605-3.040 2.070-5.067 1.561-0.338 2.996-0.76 4.095-1.267-0.55 1.478-1.352 2.829-2.534 3.927zM22.608 18.959c0.126-1.056 0.211-2.28 0.211-3.42 0-0.845 0-1.52-0.085-2.323 1.688-0.168 3.125-0.675 3.927-1.013 0.338 1.013 0.506 2.154 0.506 3.209 0 1.816-0.168 2.829-4.559 3.547z"></path>
</svg>
