<!-- Generated by IcoMoon.io -->
<svg version="1.1" xmlns="http://www.w3.org/2000/svg" width="32" height="32" viewBox="0 0 32 32">
<title>streetview</title>
<path d="M28.791 26.782c0 0.758-0.37 1.44-1.11 2.048s-1.726 1.094-2.96 1.462c-1.233 0.367-2.586 0.644-4.060 0.83s-2.998 0.28-4.574 0.28c-1.576 0-3.1-0.093-4.574-0.28s-2.827-0.463-4.060-0.83c-1.233-0.367-2.219-0.854-2.959-1.462s-1.11-1.29-1.11-2.048c0-0.589 0.198-1.121 0.595-1.597s0.944-0.875 1.642-1.2 1.408-0.592 2.129-0.803c0.722-0.211 1.51-0.388 2.364-0.533 0.313-0.060 0.601 0.003 0.866 0.19s0.421 0.436 0.469 0.749c0.060 0.313-0.003 0.601-0.189 0.866s-0.436 0.421-0.749 0.469c-0.698 0.121-1.335 0.262-1.913 0.425s-1.038 0.316-1.381 0.46-0.634 0.286-0.875 0.424c-0.241 0.138-0.406 0.256-0.496 0.352s-0.141 0.169-0.153 0.217c0.036 0.132 0.199 0.292 0.487 0.478s0.728 0.385 1.317 0.596c0.589 0.21 1.275 0.406 2.057 0.586s1.747 0.331 2.896 0.451c1.148 0.12 2.361 0.18 3.636 0.18s2.487-0.060 3.636-0.18c1.148-0.12 2.114-0.271 2.896-0.451s1.468-0.379 2.057-0.596c0.589-0.217 1.028-0.418 1.317-0.605s0.451-0.352 0.487-0.496c-0.012-0.048-0.063-0.114-0.153-0.199s-0.256-0.198-0.496-0.343-0.532-0.286-0.875-0.424c-0.343-0.138-0.803-0.289-1.381-0.451s-1.215-0.304-1.912-0.425c-0.313-0.048-0.563-0.204-0.749-0.469s-0.25-0.553-0.19-0.866c0.048-0.313 0.205-0.563 0.469-0.749s0.553-0.249 0.866-0.19c0.854 0.145 1.642 0.322 2.364 0.533s1.431 0.478 2.129 0.803 1.245 0.725 1.642 1.2c0.397 0.475 0.596 1.008 0.596 1.597zM21.862 10.615v6.929c0 0.313-0.115 0.584-0.343 0.812s-0.499 0.343-0.812 0.343h-1.155v6.929c0 0.313-0.115 0.584-0.343 0.812s-0.499 0.343-0.812 0.343h-4.619c-0.313 0-0.584-0.114-0.812-0.343s-0.343-0.499-0.343-0.812v-6.929h-1.155c-0.313 0-0.584-0.114-0.812-0.343s-0.343-0.499-0.343-0.812v-6.929c0-0.638 0.226-1.182 0.677-1.633s0.996-0.677 1.633-0.677h6.929c0.638 0 1.182 0.226 1.633 0.677s0.677 0.995 0.677 1.633zM18.948 0.826c0.788 0.788 1.182 1.741 1.182 2.86s-0.394 2.072-1.182 2.86c-0.788 0.788-1.742 1.182-2.86 1.182s-2.072-0.394-2.86-1.182c-0.788-0.788-1.182-1.741-1.182-2.86s0.394-2.072 1.182-2.86c0.788-0.788 1.741-1.182 2.86-1.182s2.072 0.394 2.86 1.182z"></path>
</svg>
