<!-- Generated by IcoMoon.io -->
<svg version="1.1" xmlns="http://www.w3.org/2000/svg" width="32" height="32" viewBox="0 0 32 32">
<title>style</title>
<path d="M27.060 25.532c-0.054-1.275-1.971-5.067-1.925-6.538 0.052-1.668 1.061-3.723 3.162 0.294 1.259 2.407 3.191 0.91 3.426-0.262 0.709-3.543-0.343-7.793-3.693-11.957-5.794-7.201-15.978-9.179-22.741-4.417s-6.899 15.488-0.727 21.704c5.594 5.632 13.308 8.108 19.757 5.393 0.667-0.282 2.874-1.146 2.742-4.216zM8.943 4.651c1.22-0.859 2.906-0.567 3.766 0.654s0.567 2.907-0.653 3.766c-1.221 0.86-2.907 0.567-3.767-0.653s-0.568-2.906 0.654-3.766zM3.673 15.635c-0.859-1.221-0.566-2.906 0.654-3.766s2.906-0.568 3.766 0.653c0.86 1.221 0.566 2.907-0.654 3.767s-2.907 0.568-3.767-0.654zM16.793 8.6c-0.861-1.221-0.568-2.907 0.653-3.767s2.906-0.567 3.767 0.654c0.859 1.22 0.566 2.906-0.654 3.766s-2.906 0.568-3.766-0.654zM7.65 22.534c-0.859-1.221-0.567-2.908 0.653-3.767s2.907-0.567 3.767 0.653c0.859 1.221 0.567 2.908-0.654 3.767s-2.907 0.567-3.766-0.653z"></path>
</svg>
