<!-- Generated by IcoMoon.io -->
<svg version="1.1" xmlns="http://www.w3.org/2000/svg" width="32" height="32" viewBox="0 0 32 32">
<title>style-o</title>
<path d="M28.029 7.068c-3.659-4.547-9.068-7.012-14.26-7.012-3.031-0-5.988 0.84-8.481 2.595-6.763 4.763-6.899 15.488-0.727 21.704 4.047 4.075 9.204 6.497 14.189 6.497 1.905 0 3.785-0.354 5.568-1.104 0.667-0.282 2.874-1.146 2.742-4.216-0.054-1.275-1.971-5.067-1.925-6.538 0.029-0.954 0.372-2.034 1.052-2.034 0.51-0 1.209 0.606 2.11 2.327 0.492 0.941 1.088 1.286 1.644 1.286 0.867 0 1.639-0.834 1.782-1.548 0.709-3.543-0.343-7.793-3.693-11.957zM29.979 18.634c-0.030-0.048-0.064-0.105-0.101-0.175-0.509-0.973-0.998-1.698-1.494-2.216-0.298-0.311-0.598-0.548-0.916-0.724-0.414-0.229-0.845-0.345-1.283-0.345-0 0-0 0-0 0-0.322 0-0.636 0.063-0.932 0.188-0.258 0.109-0.498 0.263-0.713 0.458-0.307 0.278-0.561 0.638-0.754 1.069-0.259 0.578-0.414 1.306-0.437 2.050-0.018 0.574 0.106 1.252 0.4 2.198 0.215 0.692 0.492 1.435 0.761 2.153 0.207 0.555 0.403 1.079 0.551 1.529 0.186 0.565 0.212 0.763 0.215 0.795 0.019 0.453-0.033 0.848-0.156 1.175-0.090 0.241-0.218 0.447-0.391 0.63-0.344 0.363-0.775 0.545-1.061 0.665l-0.043 0.018c-1.521 0.64-3.161 0.964-4.876 0.964-1.094 0-2.219-0.133-3.346-0.396-1.12-0.261-2.248-0.652-3.353-1.161-1.107-0.51-2.196-1.142-3.236-1.878-1.050-0.743-2.056-1.596-2.988-2.535-0.717-0.722-1.354-1.532-1.894-2.407-0.524-0.849-0.959-1.762-1.291-2.714-0.651-1.862-0.905-3.86-0.736-5.779 0.072-0.818 0.22-1.62 0.441-2.385 0.223-0.771 0.521-1.508 0.886-2.192 0.76-1.422 1.797-2.603 3.083-3.508 2.108-1.485 4.685-2.269 7.453-2.269 1.157 0 2.334 0.138 3.499 0.41 1.173 0.274 2.328 0.682 3.432 1.214 1.126 0.542 2.196 1.212 3.182 1.99 1.016 0.802 1.944 1.721 2.756 2.731 1.469 1.826 2.494 3.708 3.046 5.594 0.253 0.863 0.404 1.725 0.448 2.562 0.042 0.786-0.009 1.556-0.153 2.291zM12.063 19.425c-0.504-0.716-1.328-1.143-2.205-1.143-0.557 0-1.092 0.17-1.549 0.492-1.214 0.855-1.506 2.539-0.651 3.755 0.504 0.715 1.328 1.143 2.205 1.143 0.557 0 1.092-0.17 1.549-0.492 1.215-0.855 1.507-2.539 0.651-3.754zM9.858 18.264c-0.56 0-1.1 0.171-1.559 0.495-1.222 0.861-1.516 2.556-0.655 3.78 0.508 0.72 1.337 1.15 2.219 1.15 0 0 0 0 0 0 0.56 0 1.099-0.171 1.559-0.495 1.223-0.861 1.517-2.556 0.656-3.779-0.507-0.72-1.337-1.15-2.22-1.15zM9.862 23.671c-0.876-0-1.701-0.427-2.205-1.143-0.855-1.216-0.563-2.9 0.651-3.755 0.457-0.322 0.992-0.492 1.549-0.492 0.877 0 1.701 0.427 2.205 1.143 0.855 1.215 0.563 2.9-0.651 3.754-0.457 0.322-0.992 0.492-1.549 0.492zM8.086 12.527c-0.504-0.715-1.328-1.143-2.204-1.143-0.557 0-1.093 0.17-1.549 0.492-1.215 0.855-1.507 2.539-0.652 3.753 0.504 0.716 1.328 1.144 2.204 1.144 0 0 0 0 0 0 0.557 0 1.093-0.17 1.55-0.492 1.214-0.856 1.507-2.54 0.651-3.754zM8.101 12.517c-0.507-0.72-1.337-1.15-2.219-1.15-0.561 0-1.1 0.171-1.56 0.495-1.223 0.861-1.517 2.556-0.656 3.778 0.507 0.721 1.337 1.151 2.219 1.151 0 0 0 0 0 0 0.56 0 1.1-0.171 1.56-0.495 1.223-0.861 1.517-2.557 0.656-3.779zM5.885 16.773c-0 0-0 0-0 0-0.877-0-1.701-0.428-2.204-1.144-0.855-1.214-0.562-2.898 0.652-3.753 0.457-0.322 0.992-0.492 1.549-0.492 0.877 0 1.701 0.427 2.204 1.143 0.855 1.214 0.563 2.898-0.651 3.754-0.457 0.322-0.993 0.492-1.55 0.492zM21.206 5.492c-0.505-0.716-1.329-1.143-2.206-1.143-0.556 0-1.092 0.17-1.549 0.491-0.589 0.414-0.981 1.033-1.104 1.742s0.038 1.424 0.452 2.012c0.504 0.716 1.328 1.143 2.204 1.143 0 0 0 0 0 0 0.556 0 1.092-0.17 1.549-0.492 1.214-0.856 1.507-2.539 0.652-3.753zM19 4.331c-0.56 0-1.099 0.171-1.559 0.495-0.593 0.417-0.987 1.040-1.111 1.754s0.038 1.433 0.455 2.025c0.507 0.721 1.337 1.151 2.219 1.151 0 0 0 0 0 0 0.56 0 1.099-0.171 1.559-0.495 1.222-0.861 1.517-2.556 0.656-3.778-0.508-0.721-1.338-1.151-2.22-1.151zM19.005 9.738c-0 0-0 0-0 0-0.876-0-1.7-0.427-2.204-1.143-0.415-0.588-0.576-1.303-0.452-2.012s0.515-1.328 1.104-1.742c0.457-0.322 0.992-0.491 1.549-0.491 0.876 0 1.701 0.427 2.206 1.143 0.855 1.214 0.562 2.898-0.652 3.753-0.457 0.322-0.992 0.492-1.549 0.492zM10.497 4.166c-0.556 0-1.092 0.17-1.549 0.492-0.589 0.415-0.981 1.033-1.104 1.742s0.037 1.423 0.452 2.012c0.504 0.716 1.329 1.143 2.205 1.143 0 0 0 0 0 0 0.556 0 1.092-0.17 1.549-0.492 0.588-0.414 0.98-1.033 1.103-1.742s-0.037-1.423-0.452-2.012c-0.504-0.716-1.328-1.143-2.205-1.143zM10.497 4.149c-0.56 0-1.099 0.171-1.559 0.495-0.593 0.417-0.987 1.040-1.111 1.754s0.038 1.433 0.455 2.025c0.508 0.721 1.337 1.151 2.219 1.151 0 0 0 0 0 0 0.56 0 1.099-0.171 1.559-0.495 0.592-0.417 0.987-1.040 1.111-1.753s-0.038-1.433-0.455-2.025c-0.508-0.721-1.337-1.151-2.219-1.151zM13.154 7.321c-0.123 0.709-0.515 1.327-1.103 1.742-0.457 0.322-0.993 0.492-1.549 0.492-0 0-0 0-0 0-0.876-0-1.7-0.427-2.205-1.143-0.415-0.588-0.575-1.303-0.452-2.012s0.515-1.328 1.104-1.742c0.457-0.322 0.992-0.492 1.549-0.492 0.876 0 1.701 0.427 2.205 1.143 0.415 0.588 0.575 1.303 0.452 2.012z"></path>
</svg>
