<!-- Generated by IcoMoon.io -->
<svg version="1.1" xmlns="http://www.w3.org/2000/svg" width="32" height="32" viewBox="0 0 32 32">
<title>support</title>
<path d="M29.859 9.6c-0.758-1.791-1.842-3.4-3.223-4.781s-2.99-2.466-4.781-3.223c-1.855-0.784-3.824-1.182-5.855-1.182s-4 0.398-5.854 1.182c-1.791 0.758-3.4 1.842-4.781 3.223s-2.466 2.99-3.223 4.781c-0.784 1.855-1.182 3.824-1.182 5.855s0.398 4 1.182 5.855c0.758 1.791 1.842 3.4 3.223 4.781s2.99 2.466 4.781 3.223c1.855 0.784 3.824 1.182 5.854 1.182s4-0.398 5.855-1.182c1.791-0.758 3.4-1.842 4.781-3.223s2.466-2.99 3.223-4.781c0.784-1.855 1.182-3.824 1.182-5.855s-0.398-4-1.182-5.855zM24.957 15.455c0-0.872-0.126-1.733-0.374-2.563l3.186-3.186c0.398 0.812 0.711 1.663 0.932 2.538 0.264 1.045 0.398 2.125 0.398 3.212 0 1.096-0.136 2.185-0.405 3.238-0.225 0.883-0.544 1.742-0.95 2.561l-3.179-3.179c0.26-0.847 0.391-1.727 0.391-2.619zM17.522 22.302l-0.124 0.028c-0.459 0.093-0.928 0.14-1.398 0.14-0.464 0-0.928-0.046-1.381-0.136l-0.141-0.031c-1.291-0.286-2.473-0.932-3.417-1.869s-1.599-2.112-1.895-3.4l-0.042-0.184c-0.092-0.457-0.139-0.925-0.139-1.394 0-0.463 0.046-0.927 0.136-1.38l0.031-0.142c0.286-1.291 0.932-2.473 1.869-3.417s2.112-1.599 3.4-1.895l0.186-0.043c0.456-0.092 0.924-0.138 1.393-0.138s0.936 0.046 1.392 0.138l0.186 0.043c1.288 0.296 2.464 0.952 3.4 1.895s1.583 2.126 1.869 3.417l0.034 0.155c0.089 0.449 0.134 0.908 0.134 1.367 0 0.47-0.047 0.938-0.139 1.395l-0.042 0.183c-0.296 1.288-0.952 2.464-1.895 3.4s-2.126 1.583-3.417 1.869zM18.619 6.889c-0.847-0.26-1.727-0.391-2.619-0.391s-1.772 0.132-2.619 0.391l-3.179-3.179c0.818-0.406 1.678-0.725 2.561-0.95 1.053-0.269 2.142-0.405 3.238-0.405s2.185 0.136 3.238 0.405c0.883 0.225 1.742 0.544 2.561 0.95l-3.179 3.179zM13.437 24.037c0.83 0.248 1.691 0.374 2.563 0.374s1.733-0.126 2.563-0.374l3.186 3.186c-0.812 0.398-1.663 0.711-2.538 0.932-1.045 0.264-2.125 0.398-3.212 0.398s-2.167-0.134-3.212-0.398c-0.874-0.221-1.726-0.534-2.538-0.932l3.187-3.186zM2.901 15.455c0-1.087 0.134-2.167 0.398-3.212 0.221-0.874 0.534-1.726 0.932-2.538l3.186 3.186c-0.248 0.83-0.374 1.691-0.374 2.563 0 0.892 0.132 1.772 0.391 2.619l-3.179 3.179c-0.406-0.818-0.725-1.678-0.95-2.561-0.269-1.053-0.405-2.142-0.405-3.238z"></path>
</svg>
