<!-- Generated by IcoMoon.io -->
<svg version="1.1" xmlns="http://www.w3.org/2000/svg" width="32" height="32" viewBox="0 0 32 32">
<title>tablet</title>
<path d="M30.739 3.587c-0.703-0.703-1.548-1.054-2.535-1.054h-24.408c-0.987 0-1.832 0.351-2.535 1.054s-1.054 1.548-1.054 2.535v18.665c0 0.987 0.351 1.832 1.054 2.535s1.548 1.054 2.535 1.054h24.408c0.987 0 1.832-0.352 2.535-1.054s1.054-1.548 1.054-2.535v-18.665c-0-0.987-0.352-1.832-1.054-2.535zM2.761 16.842c-0.766 0-1.387-0.621-1.387-1.387s0.621-1.387 1.387-1.387 1.387 0.621 1.387 1.387-0.621 1.387-1.387 1.387zM28.922 24.787c0 0.194-0.071 0.363-0.213 0.505s-0.31 0.213-0.505 0.213h-21.536c-0.194 0-0.363-0.071-0.505-0.213s-0.213-0.31-0.213-0.505v-18.665c0-0.194 0.071-0.363 0.213-0.505s0.31-0.213 0.505-0.213h21.536c0.194 0 0.363 0.071 0.505 0.213s0.213 0.31 0.213 0.505v18.665z"></path>
</svg>
