<!-- Generated by IcoMoon.io -->
<svg version="1.1" xmlns="http://www.w3.org/2000/svg" width="32" height="32" viewBox="0 0 32 32">
<title>table</title>
<path d="M10.008 25.64v-3.595c0-0.175-0.056-0.318-0.169-0.431s-0.256-0.169-0.431-0.169h-5.992c-0.175 0-0.318 0.056-0.431 0.169s-0.169 0.256-0.169 0.431v3.595c0 0.175 0.056 0.318 0.169 0.431s0.256 0.169 0.431 0.169h5.992c0.175 0 0.318-0.056 0.431-0.169s0.169-0.256 0.169-0.431zM10.008 18.45v-3.595c0-0.175-0.056-0.318-0.169-0.431s-0.256-0.168-0.431-0.168h-5.992c-0.175 0-0.318 0.056-0.431 0.168s-0.169 0.256-0.169 0.431v3.595c0 0.175 0.056 0.318 0.169 0.431s0.256 0.169 0.431 0.169h5.992c0.175 0 0.318-0.056 0.431-0.169s0.169-0.256 0.169-0.431zM19.595 25.64v-3.595c0-0.175-0.056-0.318-0.169-0.431s-0.256-0.169-0.431-0.169h-5.992c-0.175 0-0.318 0.056-0.431 0.169s-0.169 0.256-0.169 0.431v3.595c0 0.175 0.056 0.318 0.169 0.431s0.256 0.169 0.431 0.169h5.992c0.175 0 0.318-0.056 0.431-0.169s0.169-0.256 0.169-0.431zM10.008 11.26v-3.595c0-0.175-0.056-0.318-0.169-0.431s-0.256-0.169-0.431-0.169h-5.992c-0.175 0-0.318 0.056-0.431 0.169s-0.169 0.256-0.169 0.431v3.595c0 0.175 0.056 0.318 0.169 0.431s0.256 0.168 0.431 0.168h5.992c0.175 0 0.318-0.056 0.431-0.168s0.169-0.256 0.169-0.431zM19.595 18.45v-3.595c0-0.175-0.056-0.318-0.169-0.431s-0.256-0.168-0.431-0.168h-5.992c-0.175 0-0.318 0.056-0.431 0.168s-0.169 0.256-0.169 0.431v3.595c0 0.175 0.056 0.318 0.169 0.431s0.256 0.169 0.431 0.169h5.992c0.175 0 0.318-0.056 0.431-0.169s0.169-0.256 0.169-0.431zM29.182 25.64v-3.595c0-0.175-0.056-0.318-0.169-0.431s-0.256-0.169-0.431-0.169h-5.992c-0.175 0-0.318 0.056-0.431 0.169s-0.169 0.256-0.169 0.431v3.595c0 0.175 0.056 0.318 0.169 0.431s0.256 0.169 0.431 0.169h5.992c0.175 0 0.318-0.056 0.431-0.169s0.169-0.256 0.169-0.431zM19.595 11.26v-3.595c0-0.175-0.056-0.318-0.169-0.431s-0.256-0.169-0.431-0.169h-5.992c-0.175 0-0.318 0.056-0.431 0.169s-0.169 0.256-0.169 0.431v3.595c0 0.175 0.056 0.318 0.169 0.431s0.256 0.168 0.431 0.168h5.992c0.175 0 0.318-0.056 0.431-0.168s0.169-0.256 0.169-0.431zM29.182 18.45v-3.595c0-0.175-0.056-0.318-0.169-0.431s-0.256-0.168-0.431-0.168h-5.992c-0.175 0-0.318 0.056-0.431 0.168s-0.169 0.256-0.169 0.431v3.595c0 0.175 0.056 0.318 0.169 0.431s0.256 0.169 0.431 0.169h5.992c0.175 0 0.318-0.056 0.431-0.169s0.169-0.256 0.169-0.431zM29.182 11.26v-3.595c0-0.175-0.056-0.318-0.169-0.431s-0.256-0.169-0.431-0.169h-5.992c-0.175 0-0.318 0.056-0.431 0.169s-0.169 0.256-0.169 0.431v3.595c0 0.175 0.056 0.318 0.169 0.431s0.256 0.168 0.431 0.168h5.992c0.175 0 0.318-0.056 0.431-0.168s0.169-0.256 0.169-0.431zM31.579 5.269v20.372c0 0.824-0.293 1.529-0.88 2.116s-1.292 0.88-2.116 0.88h-25.165c-0.824 0-1.529-0.293-2.116-0.88s-0.88-1.292-0.88-2.116v-20.372c0-0.824 0.293-1.529 0.88-2.116s1.292-0.88 2.116-0.88h25.165c0.824 0 1.529 0.293 2.116 0.88s0.88 1.292 0.88 2.116z"></path>
</svg>
