<!-- Generated by IcoMoon.io -->
<svg version="1.1" xmlns="http://www.w3.org/2000/svg" width="32" height="32" viewBox="0 0 32 32">
<title>tint</title>
<path d="M15.984 0.639c0 0-11.070 10.055-11.070 18.449 0 7.38 5.258 11.070 11.070 11.070s11.070-3.69 11.070-11.070c0-8.395-11.070-18.449-11.070-18.449zM8.978 19.089c0.738-0.092 1.465 0.472 1.557 1.211 0.369 2.398 1.747 3.869 4.238 4.238 0.83 0.092 1.303 0.818 1.211 1.557-0.092 0.646-0.738 1.211-1.384 1.211h-0.173c-3.69-0.553-6.106-2.969-6.659-6.659-0.092-0.738 0.473-1.464 1.211-1.557l-0.001-0.001z"></path>
</svg>
