<!-- Generated by IcoMoon.io -->
<svg version="1.1" xmlns="http://www.w3.org/2000/svg" width="32" height="32" viewBox="0 0 32 32">
<title>tone</title>
<path d="M16 8.031c0.733 0 1.33-0.596 1.33-1.33v-5.209c0-0.733-0.596-1.33-1.33-1.33s-1.33 0.597-1.33 1.33v5.209c-0 0.733 0.597 1.33 1.33 1.33zM16 23.45c-0.733 0-1.33 0.597-1.33 1.33v5.209c0 0.733 0.597 1.33 1.33 1.33s1.33-0.597 1.33-1.33v-5.209c0-0.733-0.596-1.33-1.33-1.33zM30.249 14.41h-5.209c-0.733 0-1.33 0.597-1.33 1.33s0.597 1.33 1.33 1.33h5.209c0.733 0 1.33-0.596 1.33-1.33s-0.597-1.33-1.33-1.33zM8.29 15.74c0-0.733-0.597-1.33-1.33-1.33h-5.209c-0.733 0-1.33 0.597-1.33 1.33s0.597 1.329 1.33 1.329h5.209c0.733 0 1.33-0.596 1.33-1.329zM23.332 21.193c-0.251-0.251-0.585-0.39-0.94-0.39s-0.689 0.138-0.94 0.389c-0.251 0.251-0.39 0.585-0.39 0.94s0.138 0.689 0.39 0.94l3.683 3.683c0.251 0.251 0.585 0.39 0.94 0.39s0.69-0.139 0.94-0.39c0.251-0.251 0.39-0.585 0.39-0.94s-0.138-0.689-0.39-0.94l-3.684-3.683zM6.866 4.725c-0.251-0.251-0.585-0.39-0.94-0.39s-0.689 0.138-0.94 0.39c-0.251 0.251-0.39 0.585-0.39 0.94s0.138 0.689 0.39 0.94l3.684 3.683c0.251 0.251 0.585 0.39 0.94 0.39s0.689-0.138 0.941-0.389c0.251-0.251 0.39-0.585 0.39-0.941s-0.138-0.689-0.39-0.94l-3.684-3.683zM9.608 20.803c-0.355 0-0.689 0.138-0.94 0.39l-3.683 3.683c-0.251 0.251-0.39 0.585-0.39 0.94s0.138 0.689 0.39 0.94c0.251 0.251 0.585 0.39 0.94 0.39s0.69-0.139 0.94-0.39l3.683-3.684c0.251-0.251 0.39-0.585 0.39-0.94s-0.138-0.689-0.39-0.94c-0.251-0.251-0.585-0.39-0.94-0.39zM22.393 10.679c0.355 0 0.689-0.139 0.94-0.39l3.683-3.684c0.251-0.251 0.39-0.585 0.39-0.94s-0.138-0.689-0.389-0.94c-0.251-0.252-0.585-0.39-0.94-0.39s-0.689 0.138-0.94 0.39l-3.683 3.684c-0.251 0.251-0.39 0.585-0.39 0.941s0.138 0.689 0.389 0.94c0.251 0.251 0.585 0.39 0.941 0.39zM16 10.726c-2.583 0-4.685 2.102-4.685 4.685s2.102 4.685 4.685 4.685 4.685-2.102 4.685-4.685c-0-2.583-2.102-4.685-4.685-4.685z"></path>
</svg>
