<!-- Generated by IcoMoon.io -->
<svg version="1.1" xmlns="http://www.w3.org/2000/svg" width="32" height="32" viewBox="0 0 32 32">
<title>tool</title>
<path d="M17.83 12.124l12.178 12.178c0.44 0.44 0.661 0.976 0.661 1.607 0 0.619-0.22 1.161-0.661 1.625l-1.928 1.893c-0.429 0.452-0.964 0.679-1.607 0.679-0.631 0-1.173-0.226-1.625-0.679l-12.16-12.16c1.167-0.464 2.199-1.146 3.098-2.045s1.58-1.931 2.045-3.098zM10.063 0.803c0.464 0 1.095 0.137 1.893 0.411 1.595 0.559 2.89 1.539 3.884 2.937s1.491 2.937 1.491 4.616c0 2.202-0.783 4.086-2.348 5.652s-3.449 2.348-5.652 2.348-4.086-0.783-5.652-2.348-2.348-3.449-2.348-5.652c0-0.69 0.098-1.414 0.295-2.17s0.473-1.396 0.83-1.92c0.131-0.19 0.298-0.286 0.5-0.286s0.369 0.095 0.5 0.286l3.018 5.232h4l1.911-3.446c-0.036-0.060-0.324-0.53-0.866-1.411s-1.024-1.687-1.446-2.42-0.634-1.152-0.634-1.259c0-0.179 0.060-0.318 0.179-0.42s0.268-0.152 0.446-0.152z"></path>
</svg>
