<!-- Generated by IcoMoon.io -->
<svg version="1.1" xmlns="http://www.w3.org/2000/svg" width="32" height="32" viewBox="0 0 32 32">
<title>tools</title>
<path d="M16.156 1.806c-0.113-0.113-0.24-0.176-0.38-0.187s-0.267 0.040-0.38 0.153c-0.068 0.068-0.2 0.469-0.397 1.202s-0.403 1.552-0.618 2.456c-0.216 0.904-0.331 1.386-0.346 1.446l-3.403 0.975-2.541-2.541 1.406-5.24c0.038-0.204-0.008-0.371-0.136-0.499s-0.295-0.174-0.499-0.136c-0.56 0.106-1.142 0.337-1.747 0.692s-1.127 0.752-1.565 1.191c-1.399 1.399-2.098 3.093-2.098 5.081s0.699 3.683 2.098 5.081c1.399 1.399 3.093 2.098 5.081 2.098s3.682-0.699 5.081-2.098c1.066-1.066 1.728-2.359 1.985-3.879s0.057-2.964-0.601-4.333c-0.333-0.681-0.647-1.168-0.941-1.463zM7.365 13.931l0 15.448c-0 0.575 0.2 1.062 0.601 1.463 0.408 0.408 0.892 0.605 1.452 0.59l2.427 0.023c0.575-0.015 1.059-0.219 1.452-0.612 0.401-0.401 0.601-0.881 0.601-1.44v-15.471c-1.036 0.446-2.125 0.669-3.267 0.669s-2.231-0.223-3.267-0.669zM27.053 2.372l-0.964-2.925-1.055-0.001-0.965 2.926-0.002 12.692 2.988-0.001zM28.539 28.414l-0-11.857-5.964 0 0.001 11.943c-0.001 1.648 1.337 2.986 2.986 2.986s2.986-1.337 2.986-2.986c-0.001-0.029-0.009-0.058-0.009-0.087z"></path>
</svg>
