<!-- Generated by IcoMoon.io -->
<svg version="1.1" xmlns="http://www.w3.org/2000/svg" width="32" height="32" viewBox="0 0 32 32">
<title>track-position</title>
<path d="M16 0.346c-8.344 0-15.108 6.764-15.108 15.108s6.764 15.108 15.108 15.108 15.108-6.764 15.108-15.108-6.764-15.108-15.108-15.108zM16 27.091c-6.427 0-11.637-5.21-11.637-11.637s5.21-11.637 11.637-11.637 11.637 5.21 11.637 11.637c0 6.427-5.21 11.637-11.637 11.637zM16.017 7.694c-4.286 0-7.778 3.471-7.778 7.778s3.471 7.778 7.778 7.778c4.307 0 7.778-3.471 7.778-7.778s-3.493-7.778-7.778-7.778zM20.26 15.879l-6.043 3.493c-0.3 0.171-0.686-0.043-0.686-0.407v-6.986c0-0.343 0.386-0.579 0.686-0.407l6.043 3.493c0.321 0.193 0.321 0.621 0 0.814z"></path>
</svg>
