<!-- Generated by IcoMoon.io -->
<svg version="1.1" xmlns="http://www.w3.org/2000/svg" width="32" height="32" viewBox="0 0 32 32">
<title>transparency</title>
<path d="M18.054 0.683c-0.003-0-0.002 0 0 0v0zM1.111 15.455c0 8.235 6.675 14.91 14.91 14.91v-29.82c-8.235 0-14.91 6.675-14.91 14.91zM18.602 0.77h0.004c-0.008-0.002-0.016-0.003-0.023-0.004-0-0-0-0-0-0-0.002-0-0.004-0.001-0.006-0.001 0 0-0 0-0.001 0-0.002-0-0.003-0.001-0.005-0.001-0.008-0.002-0.016-0.003-0.023-0.004-0-0-0.001-0-0.001-0-0.002-0-0.003-0.001-0.005-0.001-0 0-0.001 0-0.001 0-0.008-0.001-0.015-0.002-0.022-0.004-0 0-0.001-0-0.001-0-0.002-0-0.003-0.001-0.005-0-0.001-0-0.001-0-0.001-0-0.002-0.001-0.003-0.001-0.005-0.001-0 0-0 0-0.001 0-0.006-0.001-0.011-0.002-0.017-0.003h-0c-0.002-0.001-0.004-0.001-0.005-0.001-0 0-0.001 0-0.001 0-0.002-0-0.003-0.001-0.005-0.001-0.001 0-0.001 0-0.002-0s-0.003 0-0.005-0.001c-0 0-0 0-0.001 0-0.005-0.001-0.011-0.002-0.016-0.003-0 0-0.001-0-0.001-0-0.001 0-0.004-0-0.005-0s-0.001-0.001-0.002-0.001c-0.002-0.001-0.003-0.001-0.005-0.001-0.001 0-0.001 0-0.002-0-0.005-0.001-0.009-0.001-0.015-0.002-0 0-0.001 0-0.001 0-0.002-0-0.003-0.001-0.005-0.001-0.001 0-0.001-0-0.002-0s-0.004-0-0.004-0.001c-0.001 0-0.001 0-0.002 0-0.002-0-0.003-0-0.005-0-0 0-0.001 0-0.001 0-0.005-0.001-0.010-0.002-0.016-0.003-0.001 0-0.001-0-0.002-0-0.002 0-0.003-0.001-0.004-0.001s-0.002-0-0.002-0.001-0.003 0-0.004-0c-0.001 0-0.001-0-0.002-0.001s-0.003-0-0.004-0c-0 0-0.001 0-0.001 0-0.003-0.001-0.007-0.002-0.010-0.002-0.001 0-0.001 0-0.002-0s-0.003-0.001-0.004 0c-0.001 0-0.002-0-0.003-0s-0.003-0.001-0.004-0.001c-0.001 0-0.002-0-0.003-0s-0.003-0-0.004-0.001c-0 0-0.001 0-0.002-0-0.005-0.001-0.009-0.002-0.014-0.002-0.001 0-0.002-0-0.003-0s-0.003-0-0.004-0.001c-0.001-0-0.002-0-0.003-0s-0.003-0.001-0.004-0.001c-0.001 0-0.002 0-0.003-0s-0.003-0-0.004-0c-0.001 0-0.002-0.001-0.003-0.001s-0.005-0.001-0.007-0.001c-0.001 0-0.002 0-0.003-0.001s-0.003-0-0.004-0c-0.001 0-0.002-0-0.003-0.001s-0.003-0-0.004-0.001c-0.001 0-0.002-0-0.003-0.001s-0.002 0-0.004 0c-0.001 0-0.002 0-0.003 0s-0.003-0.001-0.004-0.001-0.004-0.001-0.006-0.001c-0.001 0-0.001 0-0.002-0s-0.003-0-0.004-0.001c-0.001-0-0.002-0.001-0.003-0.001s-0.003 0-0.004-0c-0.001 0-0.002 0-0.003-0s-0.003-0.001-0.004-0.001c-0.001 0-0.002 0-0.003 0s-0.003-0.001-0.003-0.001c-0.001 0-0.003 0-0.004 0s-0.003-0.001-0.005-0.001c-0.001 0-0.002 0-0.003 0s-0.002-0.001-0.003-0.001c-0.001-0-0.003-0-0.004-0.001s-0.002 0-0.004-0c-0.001 0-0.002-0-0.003-0s-0.003-0-0.004-0.001c-0.001-0-0.002-0-0.003-0-0.002-0.001-0.004-0.001-0.006-0.001s-0.002 0-0.003-0-0.003-0-0.001-0-0.002-0-0.003-0.001c-0.001-0-0.003-0-0.004-0.001s-0.002 0-0.003-0-0.003-0-0.005-0c-0-0-0.002-0.001-0.002-0.001-0.002 0-0.004-0-0.005-0.001-0.001 0-0.001-0-0.002-0-0.002-0-0.004-0-0.006-0.001-0.001 0-0.002-0.001-0.003-0.001s-0.003-0.001-0.004-0.001c-0.001 0-0.002 0-0.003 0s-0.003-0-0.004 0c-0.001 0-0.002-0-0.003-0s-0.003-0.001-0.004-0.001c-0.001 0-0.001 0-0.002-0.001-0.002 0-0.005-0-0.007-0.001s-0.001 0-0.002-0c-0.002-0-0.003-0.001-0.005-0.001-0-0-0.002-0-0.003 0s-0.003-0.001-0.004-0.001c-0.001 0-0.002-0-0.003-0s-0.003-0-0.004-0c-0.001-0-0.002-0-0.003-0-0.002-0-0.003-0-0.005-0.001s-0.002-0-0.003-0-0.004-0.001-0.006-0.001c-0.001-0-0.002-0-0.002-0s-0.003-0-0.004-0.001c-0.001 0-0.002 0-0.003-0s-0.003-0-0.004-0c-0.001-0.001-0.002-0.001-0.003-0.001s-0.003-0.001-0.004-0.001c-0.001-0-0.002-0-0.003-0s-0.004 0-0.007-0c-0.001-0-0.001-0-0.001-0.001-0.002 0-0.004-0-0.006-0.001-0.001 0-0.002 0-0.002-0-0.002 0-0.003-0 0 0-0.001 0-0.002-0-0.003-0s-0.003-0.001-0.004-0.001c-0.001 0-0.002 0-0.003 0s-0.003-0-0.005-0c-0.001 0-0.002-0-0.002-0-0.002-0-0.004-0.001-0.006-0.001-0.001-0-0.002-0-0.003-0s-0.003-0.001-0.004-0.001c-0.001 0-0.002-0-0.003-0s-0.003-0-0.004-0c-0.001-0-0.002-0-0.003-0.001s-0.003-0-0.005-0.001c-0.001 0-0.002-0-0.003-0-0.002-0-0.005-0.001-0.007-0.001-0-0-0.001-0-0.001-0-0.002 0-0.004-0-0.006-0s-0.002 0-0.003 0-0.003-0.001-0.004-0.001c-0.001-0.001-0.002-0.001-0.003-0.001s-0.003-0-0.004-0.001c-0.001 0-0.002-0-0.003-0-0.002 0-0.004-0-0.005-0.001-0 0-0.001 0-0.002-0-0.002 0-0.005-0-0.007-0.001-0 0-0.001 0-0.002 0-0.002-0-0.003-0.001-0.005-0.001s-0.002-0-0.003-0-0.003-0.001-0.004-0.001c-0.001 0-0.002 0-0.003-0s-0.003-0-0.005-0c-0.001 0-0.001 0-0.002 0-0.002-0.001-0.004-0.001-0.006-0.001-0.001-0-0.002-0-0.002-0-0.002-0-0.004-0-0.006-0.001s-0.002-0-0.003-0-0.003-0.001-0.005-0.001c-0.001 0-0.001 0-0.002 0s-0.003-0-0.005-0c-0 0-0.002 0-0.002 0-0.002-0-0.004-0-0.005-0.001-0.001 0-0.001 0-0.001-0-0.002 0-0.005-0-0.007-0.001-0 0-0.001 0-0.002-0-0.002 0-0.004-0.001-0.005-0s-0.002-0.001-0.003-0.001-0.003-0-0.004-0.001c-0.001 0-0.002-0-0.003-0s-0.003-0-0.002-0-0.001 0-0.002-0c-0.002-0-0.005-0-0.007-0.001s-0.005-0-0.007-0c-0.001-0-0.001-0-0.002-0.001s-0.003-0-0.005-0.001c-0.001 0-0.002 0-0.003-0s-0.003-0-0.004-0c-0.001-0-0.002-0-0.002-0s-0.003-0.001-0.005-0.001c-0.001 0-0.001 0-0.002 0-0.005-0-0.009-0.001-0.014-0.002-0.001 0-0.001 0-0.002 0s-0.003-0.001-0.005-0.001c-0.001 0-0.002-0-0.002-0s-0.003 0-0.005-0.001c-0.001 0-0.001 0-0.002 0s-0.003-0.001-0.005-0.001c-0 0-0.002-0-0.002-0-0.005-0.001-0.009-0.001-0.013-0.001-0.001 0-0.001 0-0.002 0-0.002-0-0.004-0.001-0.005-0.001-0-0-0.001-0-0.002-0-0.002-0.001-0.004-0.001-0.005-0.001-0.001 0-0.001 0-0.002-0s-0.004-0.001-0.006-0.001c-0 0-0.001 0-0.001 0-0.005-0.001-0.009-0.001-0.014-0.002-0 0-0 0-0.001 0-0.002 0-0.004-0.001-0.006-0.001-0 0-0.001 0-0.001 0-0.002-0-0.004-0.001-0.006-0.001-0.001 0-0.001 0-0.001 0-0.002 0-0.004 0-0.006-0.001h-0.001c-0.007-0.001-0.015-0.002-0.022-0.002h-0c-0.002-0-0.005-0.001-0.007-0.001h-0.001c-0.097-0.011-0.195-0.022-0.292-0.031l-0.124 1.32c0.001 0 0.003 0 0.004 0l-0.063 0.674c0.132 0.012 0.264 0.027 0.397 0.043 0.533 0.067 1.065 0.166 1.582 0.297l0.308-1.219c-0.001-0-0.002-0-0.003-0.001l0.182-0.72c-0.356-0.090-0.718-0.168-1.084-0.232-0.002 0.001-0.004 0.001-0.006 0zM23.036 2.295c-0.008-0.004-0.016-0.008-0.024-0.012l-0-0c-0.005-0.003-0.010-0.005-0.015-0.008l-0.001-0.001c-0.003-0.002-0.005-0.003-0.008-0.004h-0c-0.002-0.001-0.005-0.003-0.007-0.004 0-0.001 0-0.001-0.001-0.001-0.002-0.001-0.005-0.003-0.007-0.004-0.001-0-0.001-0-0.001-0.001-0.002-0.001-0.005-0.003-0.007-0.004-0-0 0 0-0-0-0.002-0.001-0.005-0.002-0.007-0.003-0 0-0.001-0-0.002-0.001-0.003-0.001-0.005-0.002-0.007-0.004-0-0-0-0-0.001-0-0.002-0.001-0.004-0.003-0.006-0.003-0.001-0.001-0.002-0.001-0.002-0.001-0.002-0.001-0.005-0.002-0.007-0.004-0.001 0-0.001-0-0.002-0-0.002-0.001-0.004-0.002-0.006-0.004-0.001-0-0.001-0-0.001-0-0.002-0.001-0.004-0.002-0.007-0.004-0 0-0.001-0-0.001-0.001-0.002-0.001-0.004-0.002-0.006-0.003-0.001-0-0.001 0-0.002-0s-0.005-0.003-0.007-0.004c-0.001-0-0.002-0.001-0.002-0.001-0.002-0.001-0.005-0.003-0.007-0.004-0.001-0-0.001-0.001-0.002-0.001-0.002-0.001-0.004-0.002-0.006-0.003-0.001 0-0.001 0-0.002-0-0.002-0.001-0.004-0.002-0.006-0.003-0.001-0-0.002-0.001-0.003-0.001s-0.004-0.002-0.006-0.003c-0.001 0-0.001-0.001-0.001-0.001-0.002-0.001-0.005-0.003-0.007-0.004s-0.002-0.001 0 0c-0.002-0.001-0.005-0.002-0.007-0.004-0.001-0.001-0.001-0.001-0.002-0.001s-0.003-0.002-0.005-0.003c-0.001-0-0.002-0.001-0.002-0.001-0.002-0.001-0.005-0.002-0.007-0.003s-0.001-0.001-0.003-0.001-0.003-0.001-0.005-0.002c-0.002-0.001-0.002-0.001-0.003-0.002s-0.004-0.002-0.005-0.003c-0.001-0-0.002-0.001-0.003-0.002s-0.003-0.001-0.005-0.002c-0.001-0.001-0.003-0.002-0.004-0.002-0.001-0.001-0.003-0.002-0.005-0.003s-0.002-0.001-0.003-0.001c-0.002-0.001-0.004-0.002-0.006-0.003s-0.002-0.001-0.003-0.002-0.003-0.002-0.004-0.003c-0.001-0-0.002-0.001-0.004-0.002s-0.004-0.002-0.005-0.002c-0.001-0.001-0.003-0.001-0.004-0.002s-0.003-0.002-0.004-0.003c-0.001-0.001-0.003-0.001-0.004-0.002s-0.003-0.001-0.004-0.002c-0.001-0.001-0.002-0.001-0.003-0.001s-0.004-0.002-0.006-0.003c-0.001-0-0.002-0.001-0.004-0.002s-0.002-0.001-0.003-0.002-0.004-0.002-0.006-0.003c-0.001-0.001-0.003-0.002-0.004-0.002s-0.002-0.001-0.004-0.002c-0.001-0-0.002-0.001-0.003-0.001s-0.003-0.002-0.005-0c-0.001-0.001-0.002-0.001-0.003-0.002s-0.003-0.001-0.004-0.002c-0.001-0-0.002-0.001-0.003-0.001-0.002-0.001-0.004-0.002-0.006-0.003-0.001-0.001-0.002-0.001-0.002-0.001-0.002-0.001-0.004-0.002-0.006-0.003-0.001-0-0.002-0.001-0.003-0.002s-0.003-0.001-0.004-0.002c-0.001-0.001-0.002-0.001-0.002-0.001-0.003-0.001-0.004-0.002-0.007-0.004-0.001-0-0.002-0.001-0.002-0.001-0.002-0.001-0.002-0.001-0.004-0.002-0.001-0-0.002-0.001-0.002-0.001-0.002-0.001-0.004-0.002-0.007-0.004-0-0-0.001-0-0.002-0.001-0.005-0.002-0.010-0.005-0.014-0.007-0.001 0-0.001 0-0.002-0.001s-0.005-0.003-0.008-0.004c-0-0-0.001-0-0.002-0.001-0.002-0.001-0.003-0.001-0.005-0.002-0.001 0-0.001-0-0.002-0.001s-0.004-0.002-0.007-0.004c-0.001-0.001-0.001-0.001-0.002-0.001-0.004-0.002-0.009-0.005-0.014-0.007-0-0.001-0.001-0.001-0.002-0.001-0.002-0.001-0.006-0.003-0.008-0.004-0 0-0 0-0.001-0.001-0.002-0.001-0.003-0.001-0.005-0.002-0.001-0.001-0.001-0.001-0.002-0.001-0.002-0.001-0.005-0.003-0.008-0.004-0.001 0-0.001-0-0.002-0.001-0.005-0.002-0.009-0.005-0.014-0.007 0-0-0.001-0-0.001-0.001-0.005-0.003-0.009-0.005-0.015-0.007-0 0-0.001-0-0.001-0-0.003-0.002-0.006-0.003-0.009-0.005-0 0-0.001-0-0.001-0-0.005-0.002-0.010-0.005-0.015-0.007-0-0.001-0.001-0.001-0.001-0.001-0.005-0.002-0.009-0.005-0.014-0.007-0.001-0.001-0.001-0.001-0.002-0.001-0.002-0.001-0.005-0.003-0.008-0.005-0.001-0-0.001-0-0.001-0-0.002-0.001-0.003-0.002-0.005-0.002 0 0-0 0-0.001-0-0.003-0.002-0.006-0.003-0.010-0.005 0-0-0-0-0.001-0-0.005-0.002-0.009-0.005-0.014-0.007-0-0-0.001 0-0.001-0-0.005-0.002-0.009-0.004-0.015-0.007h-0c-0.003-0.002-0.006-0.003-0.009-0.005-0 0-0.001-0-0.001-0-0.005-0.003-0.010-0.005-0.015-0.007-0-0-0.001-0.001-0.001-0.001-0.005-0.003-0.010-0.005-0.015-0.007v-0c-0.003-0.002-0.006-0.003-0.010-0.005h-0c-0.005-0.003-0.010-0.004-0.015-0.007-0-0-0.001-0-0.001-0.001-0.006-0.002-0.010-0.005-0.015-0.007-0 0-0-0-0.001-0-0.004-0.002-0.006-0.003-0.010-0.004 0 0-0 0-0.001-0-0.005-0.003-0.009-0.005-0.015-0.007-0.001 0-0.001-0-0.001-0.001-0.005-0.002-0.010-0.005-0.014-0.007-0.001 0-0.001-0-0.002-0-0.003-0.002-0.006-0.004-0.009-0.005-0 0-0 0-0 0-0.002-0.001-0.003-0.001-0.005-0.002-0 0-0-0-0.001-0-0.003-0.001-0.006-0.003-0.009-0.004-0-0-0.001-0.001-0.001-0.001-0.005-0.002-0.010-0.005-0.015-0.007-0 0-0.001-0.001-0.001-0.001-0.003-0.002-0.006-0.003-0.010-0.005h-0c-0.001-0.001-0.003-0.002-0.005-0.002-0 0-0.001-0-0.001 0.001-0.002-0.001-0.005-0.002-0.007-0.004-0.001-0.001-0.002-0.001-0.003-0.001s-0.003-0.001-0.004-0.002c-0 0-0 0-0.001 0-0.003-0.002-0.006-0.003-0.009-0.005-0.001-0-0.001-0.001-0.002-0.001-0.003-0.001-0.006-0.003-0.008-0.004-0 0-0.001-0-0.001-0s-0.003-0.002-0.004-0.002c-0.001 0-0.002-0-0.002-0.001-0.002-0.001-0.004-0.002-0.007-0.003-0-0.001-0.001-0.001-0.002-0.001-0.002-0.001-0.003-0.001-0.005-0.002-0-0-0.001-0-0.002-0.001-0.002-0.001-0.005-0.002-0.008-0.003-0.001-0-0.001-0.001-0.002-0.001-0.002-0.002-0.005-0.003-0.007-0.004-0.001-0-0.002-0.001-0.002-0.001-0.001-0-0.003-0.001-0.004-0.001s-0.002-0.001-0.003-0.001-0.004-0.002-0.007-0.003c-0.001-0-0.002-0.001-0.003-0.001s-0.003-0.001-0.004-0.002c-0.001-0.001-0.002-0.001-0.003-0.002-0.002-0.001-0.005-0.002-0.003-0.001-0.001-0-0.002-0.001-0.003-0.001s-0.003-0.001-0.004-0.002c-0.001-0-0.003-0.001-0.004-0.002s-0.004-0.001-0.006-0.002c-0.001-0-0.002-0.001-0.003-0.001s-0.003-0.002-0.006-0.003c-0.001-0.001-0.002-0.002-0.003-0.002s-0.003-0.001-0.004-0.001c-0.001-0.001-0.002-0.001-0.003-0.001s-0.004-0.002-0.006-0.003c-0.001-0.001-0.003-0.001-0.004-0.002s-0.003-0.001-0.004-0.002-0.004-0.001-0.006-0.002c-0.001-0.001-0.002-0.001-0.003-0.002s-0.003-0.001-0.004-0.001c-0.001-0.001-0.002-0.001-0.003-0.002s-0.004-0.002-0.006-0.003c-0.001-0-0.002-0.001-0.003-0.002s-0.003-0.001-0.004-0.001c-0.002-0.001-0.004-0.002-0.006-0.003s-0.003-0.001-0.004-0.002-0.003-0.002-0.004-0.002-0.004-0.001-0.006-0.002c-0.001-0-0.002-0.001-0.003-0.001s-0.003-0.001-0.004-0.002c-0.001 0-0.002-0.001-0.003-0.001-0.002-0.001-0.005-0.002-0.007-0.003-0.001-0.001-0.002-0.001-0.003-0.001-0.002-0.001-0.004-0.002-0.005-0.002s-0.002-0.001-0.004-0.002-0.004-0.002-0.005-0.002c-0.001-0.001-0.002-0.001-0.003-0.001-0.002-0.001-0.004-0.002-0.006-0.003-0.001-0-0.002-0.001-0.003-0.001s-0.003-0.002-0.005-0.003c-0.001-0-0.002-0.001-0.003-0.001-0.002-0.001-0.004-0.002-0.007-0.003-0-0-0.002-0.001-0.002-0.001-0.002-0.001-0.004-0.002-0.006-0.003-0 0-0.001-0.001-0.002-0.001-0.002-0.001-0.004-0.002-0.006-0.003-0.001-0.001-0.002-0.001-0.003-0.001-0.002-0.001-0.005-0.002-0.007-0.003-0 0-0.001-0-0.002-0-0.002-0.001-0.004-0.002-0.006-0.002-0 0-0.001-0-0.002-0.001-0.002-0.001-0.004-0.002-0.007-0.003-0-0-0.001-0.001-0.002-0.001-0.002-0.001-0.004-0.002-0.006-0.003-0.001 0-0.001-0-0.001-0.001-0.002-0-0.005-0.002-0.007-0.002-0.001-0-0.001-0.001-0.002-0.001s-0.005-0.002-0.007-0.003h-0.001c-0.002-0.001-0.005-0.002-0.007-0.003-0.001 0-0.001-0-0.001-0.001-0.003-0.001-0.005-0.002-0.007-0.003l-0.001-0c-0.002-0.001-0.005-0.002-0.007-0.004l-0.001-0c-0.002-0.001-0.005-0.002-0.008-0.003-0 0-0.001 0-0.001-0.001-0.006-0.002-0.011-0.005-0.016-0.007-0-0-0-0-0.001-0-0.002-0.001-0.005-0.003-0.007-0.004h-0l-0.521 1.22c0.001 0 0.002 0.001 0.003 0.001l-0.266 0.622c0.614 0.262 1.211 0.574 1.776 0.929l0.67-1.065c-0.001-0.001-0.002-0.001-0.003-0.002l0.395-0.628c-0.295-0.185-0.596-0.359-0.906-0.524l-0-0zM27.067 8.771c0.346 0.572 0.65 1.174 0.903 1.791l1.166-0.478c0-0-0-0-0-0l0.686-0.281c-0.269-0.656-0.585-1.29-0.942-1.898l-0-0c-0.003-0.006-0.006-0.010-0.009-0.016h-0c-0.002-0.002-0.003-0.005-0.005-0.007-0-0-0-0-0-0.001-0.002-0.002-0.003-0.005-0.005-0.007s-0.003-0.005-0.004-0.007c0-0.001-0-0.001-0.001-0.001-0.001-0.002-0.003-0.004-0.004-0.006-0-0.001 0-0.001-0.001-0.002-0.001-0.002-0.003-0.004-0.004-0.007 0-0-0-0-0.001-0.001-0.001-0.002-0.002-0.005-0.003-0.007-0.001-0.001-0.001-0.001-0.001-0.002-0.001-0.002-0.002-0.004-0.003-0.006 0 0 0 0 0 0-0.001-0.002-0.002-0.004-0.003-0.006-0-0-0.001-0.002-0.001-0.002-0.001-0.002-0.003-0.004-0.004-0.006-0.001-0.001-0.001-0.001-0.001-0.002s-0.002-0.003-0.003-0.005c0-0.001-0-0.001-0.001-0.002-0.001-0.002-0.003-0.004-0.004-0.006-0.001-0.001-0.001-0.002-0.002-0.003s-0.002-0.003-0.003-0.005c-0.001-0.001-0.002-0.003-0.003-0.004-0.001-0.002-0.001-0.003-0.002-0.004s-0.001-0.002-0.002-0.003-0.002-0.004-0.004-0.005c0-0.001-0.001-0.002-0.001-0.003s-0.002-0.002-0.003-0.003-0.002-0.004-0.003-0.005c-0-0.001-0.001-0.002-0.001-0.004s-0.002-0.003-0.002-0.004c-0-0-0.001-0.001-0.001-0.001-0.001-0.002-0.003-0.005-0.004-0.008-0-0.001-0.001-0.001-0.001-0.002-0.004-0.006-0.008-0.013-0.012-0.018l-1.133 0.687c0 0 0 0 0 0l-0.577 0.35zM26.861 24.578l-0.962-0.812c-0.431 0.51-0.905 0.99-1.41 1.429l0.444 0.512c-0.001 0.001-0.002 0.002-0.003 0.003l0.869 1.001c0.583-0.507 1.128-1.058 1.627-1.65l-0.568-0.479c0.001-0.001 0.001-0.002 0.002-0.002zM29.135 20.826c0-0-0 0 0-0l-1.166-0.477c-0.252 0.617-0.556 1.219-0.901 1.79l0.578 0.351c-0.001 0.001-0.001 0.002-0.002 0.003l1.133 0.687c0.373-0.616 0.704-1.262 0.986-1.935 0.001-0.002 0.002-0.005 0.003-0.008 0.002-0.006 0.004-0.011 0.007-0.017l0-0c0.003-0.006 0.005-0.011 0.007-0.017l0-0c0.001-0.003 0.003-0.005 0.004-0.008v-0.001c0.002-0.005 0.004-0.010 0.007-0.016 0-0 0-0.001 0-0.001 0.002-0.006 0.005-0.011 0.007-0.016 0-0.001 0-0.001 0.001-0.001 0.001-0.002 0.002-0.005 0.003-0.008l0.001-0.001c0.001-0.002 0.002-0.005 0.003-0.007 0-0.001 0-0.001 0-0.001 0.001-0.002 0.002-0.005 0.003-0.008 0-0 0.001-0.001 0.001-0.002 0.002-0.005 0.004-0.010 0.007-0.015 0-0.001 0.001-0.001 0.001-0.001 0.001-0.002 0.002-0.005 0.003-0.007 0-0-0 0 0-0l-0.687-0.281c0-0.001 0.001-0.002 0.001-0.003zM30.147 16.554l-1.255-0.099c-0.016 0.198-0.036 0.398-0.060 0.596-0.059 0.466-0.142 0.934-0.25 1.389l0.657 0.156c-0 0.001-0 0.002-0.001 0.003l1.289 0.305c0.040-0.168 0.076-0.336 0.109-0.499v-0c0.001-0.002 0.001-0.004 0.001-0.006l0-0c0-0.002 0.001-0.004 0.001-0.006 0-0 0-0.001 0-0.001 0-0.002 0.001-0.003 0.001-0.005s0.001-0.001 0.001-0.002c0-0.002 0-0.003 0.001-0.004-0-0.001-0-0.002 0-0.003s0-0.002 0.001-0.004c0-0.001 0-0.001 0-0.002s0.001-0.003 0.001-0.004c0-0.001 0.001-0.001 0.001-0.002s0-0.002 0.001-0.004c0-0.001 0-0.002 0-0.003s0.001-0.003 0.001-0.004c0-0-0-0.002 0-0.002s0.001-0.003 0.001-0.004c0-0 0.001-0.001 0.001-0.002s0-0.003 0.001-0.004c0-0.001 0-0.001 0-0.002s0.001-0.002 0.001-0.003c0.001-0.001 0.001-0.002 0.001-0.003s0.001-0.002 0.001-0.003 0.001-0.005 0.001-0.007c0-0 0-0.001 0-0.002 0-0.002 0.001-0.003 0.001-0.005 0-0 0-0 0-0.001 0-0.001 0.001-0.003 0.001-0.004s0-0.001 0.001-0.002c0-0.002 0-0.003 0-0.004s0.001-0.002 0.001-0.002 0-0.003 0.001-0.004c0-0.001 0-0.001 0-0.002s0-0.003 0.001-0.004c0-0.001 0-0.001 0-0.002s0.001-0.003 0.001-0.004c0-0.001 0-0.001 0.001-0.002s0-0.004 0.001-0.005c0-0 0-0.001 0-0.001s0-0.004 0.001-0.005c-0-0.001-0-0.001-0-0.002 0.001-0.002 0.001-0.003 0.001-0.005-0-0-0-0.001-0-0.001 0-0.002 0.001-0.004 0.001-0.005s0-0.001 0-0.001c0-0.002 0.001-0.003 0.001-0.005 0 0 0.001-0 0.001-0.001 0-0.002 0.001-0.004 0.001-0.005s0-0.001 0-0.001c0.003-0.015 0.005-0.030 0.009-0.046 0-0 0-0 0-0.001 0-0.002 0-0.004 0.001-0.006s0.001-0.004 0.001-0.006 0.001-0.008 0.002-0.012c0 0 0 0 0-0 0.028-0.148 0.053-0.297 0.076-0.447 0 0 0 0 0-0 0-0.002 0-0.004 0.001-0.006 0-0 0-0 0-0 0-0.002 0.001-0.004 0.001-0.006 0 0 0 0 0-0 0.004-0.023 0.007-0.047 0.011-0.070 0-0 0-0.001 0-0.001 0-0.002 0-0.003 0.001-0.005 0-0 0-0.001 0-0.001 0.001-0.002 0.001-0.003 0.001-0.005 0-0.001 0-0.001 0.001-0.001 0-0.002 0-0.003 0-0.005 0-0 0-0.001 0-0.001 0-0.002 0-0.003 0.001-0.005 0-0 0-0.001 0-0.001 0-0.002 0.001-0.003 0.001-0.005 0-0 0-0.001 0-0.001 0-0.002 0-0.003 0.001-0.005 0-0 0-0.001 0-0.001s0.001-0.003 0-0.005c0-0 0-0 0-0.001 0-0.002 0.001-0.003 0.001-0.005 0-0 0-0 0-0 0.002-0.011 0.003-0.023 0.005-0.034 0-0 0-0.001 0-0.001 0-0.002 0.001-0.004 0.001-0.005 0-0 0-0.001 0-0.001 0-0.002 0-0.003 0-0.005 0-0 0-0.001 0-0.001s0.001-0.003 0.001-0.005c0-0 0-0.001 0-0.002s0-0.003 0-0.004c0-0.001 0-0.002 0-0.002s0-0.003 0-0.004c0-0 0-0.001 0-0.002s0.001-0.003 0.001-0.004c-0-0.001-0-0.001 0-0.002s0-0.003 0-0.004c0-0.001 0-0.001 0-0.002s0-0.003 0-0.004c0-0.001 0-0.002 0-0.002s0.001-0.002 0.001-0.004c0-0 0-0.001 0-0.002 0-0.002 0-0.003 0.001-0.005 0-0-0-0.001-0-0.001 0-0.002 0.001-0.004 0.001-0.005s0-0.001 0-0.001c0.001-0.005 0.001-0.011 0.003-0.016 0-0.001 0-0.001 0-0.002s0-0.002 0-0.004c0-0.001 0-0.002 0-0.002 0-0.002 0-0.002 0-0.004s0-0.002 0-0.003 0-0.002 0.001-0.004c0-0.001 0-0.002 0-0.003s0-0.002 0-0.003c0-0.001 0.001-0.002 0.001-0.002s0-0.003 0-0.004c-0-0.001 0-0.002 0-0.003s0-0.002 0-0.003c0.001-0.001 0.001-0.002 0.001-0.003s0-0.002 0.001-0.003c0-0 0-0 0-0.001s0-0 0-0c0-0.001 0-0.002 0-0.003s0-0.002 0-0.003c0-0.001 0-0.002-0-0.003s0-0.002 0.001-0.003c0-0.001 0-0.002 0.001-0.003s0-0.002 0-0.003c0-0.001 0-0.002 0-0.003s0-0.002 0-0.003 0-0.002 0-0.003 0-0.002 0.001-0.003 0-0.002 0-0.003c0-0.001 0-0.002 0-0.003 0-0.002 0-0.004 0.001-0.006 0-0.001 0-0.002 0-0.003s0.001-0.002 0.001-0.003c0-0.001 0-0.002 0-0.003s0-0.002 0-0.003c0-0.001 0-0.002 0.001-0.003s-0-0.002 0-0.003 0.001-0.002 0.001-0.003c0-0.001 0-0.002 0-0.003s0-0.002 0-0.003 0-0.002 0-0.003 0-0.002 0-0.003 0.001-0.002 0.001-0.003c0-0.001 0-0.002 0-0.003s-0-0.002 0-0.003c0-0.001 0-0.002 0-0.003s0-0.002 0-0.004c0-0.001 0.001-0.002 0.001-0.003s0-0.002 0-0.004c0-0.001 0-0.002 0-0.003s0-0.003 0.001-0.004c0-0.001 0-0.002 0-0.003s0.001-0.003 0.001-0.004c0-0.001 0-0.002 0-0.003s0-0.003 0-0.004c0-0.001 0-0.002 0-0.003s0-0.003 0.001-0.004c0-0.001 0-0.001 0.001-0.002s0-0.004 0-0.006c0-0.002 0-0.004 0-0.006 0-0.001 0-0.001 0-0.002s0.001-0.002 0.001-0.004c0-0.001 0-0.002 0-0.002s0-0.003 0-0.004c0-0.001 0-0.002 0-0.002s0-0.003 0-0.004c0-0.001 0.001-0.002 0.001-0.002s0-0.002 0-0.004c0-0.001 0-0.001 0-0.002s0-0.002 0.001-0.003c0-0.001 0-0.002 0-0.002s0-0.003 0.001-0.004c0-0.001 0-0.001 0-0.002 0-0.002 0.001-0.003 0.001-0.005s0-0.001 0-0.001c0-0.004 0-0.008 0.001-0.011 0-0.001 0-0.001 0-0.001 0-0.002 0.001-0.003 0.001-0.005 0-0 0-0.001 0-0.001 0-0.002 0-0.003 0-0.005 0-0 0.001-0.001 0.001-0.001s0-0.003 0-0.005c0-0 0-0.001 0-0.001 0-0.002 0-0.003 0-0.005 0-0 0-0.001 0-0.001 0-0.002 0-0.003 0.001-0.005 0-0 0-0.001 0-0.001 0-0.002 0-0.003 0.001-0.005 0-0 0-0.001 0-0.001 0.002-0.012 0.003-0.023 0.004-0.036 0 0 0 0 0 0 0.016-0.137 0.031-0.274 0.042-0.412 0-0 0-0.001 0.001-0.001-0-0.002 0-0.003 0-0.005 0-0.001 0-0.001 0-0.002s0-0.002 0-0.003c0-0.001 0-0.002 0-0.003s0-0.002 0.001-0.003c0-0.001 0-0.002 0-0.003s0-0.001 0-0.002c0-0.001 0-0.003 0-0.004v-0.001c0.003-0.040 0.007-0.079 0.010-0.117l-0.739-0.058c-0.001-0-0-0.001-0-0.001zM19.512 29.185l-0.309-1.22c-0.647 0.164-1.311 0.279-1.975 0.34l0.063 0.678c-0.001 0-0.002 0-0.003 0l0.122 1.32c0.191-0.018 0.381-0.039 0.566-0.062l0.001 0c0.006-0.001 0.011-0.002 0.017-0.003 0 0 0.001 0 0.001 0 0.003-0.001 0.005-0.001 0.008-0.001l0-0c0.003-0 0.005-0.001 0.008-0.001h0.001c0.003-0 0.005-0.001 0.008-0.001 0 0 0.001-0 0.002-0 0.002-0 0.005-0.001 0.007-0.001 0 0 0 0 0.001 0 0.002-0 0.005-0.001 0.008-0.001 0.001-0 0.001-0 0.002-0 0.002-0 0.005-0.001 0.007-0.001 0.001-0 0.001-0 0.002-0s0.004-0.001 0.007-0.001c0 0 0.002-0 0.002-0 0.002-0 0.005-0 0.008-0.001 0-0 0.001-0.001 0.002-0 0.002-0.001 0.004-0.001 0.006-0.001 0.001 0 0.001 0 0.002-0 0.002-0 0.005-0.001 0.007-0.001 0.001 0 0.002 0 0.003-0s0.004-0 0.006-0.001c0.001 0 0.002 0 0.003 0 0.002-0 0.004-0.001 0.006-0.001s0.002-0 0.003-0 0.005-0.001 0.007-0.001c0.001-0 0.002-0.001 0.003-0.001s0.004-0.001 0.005-0.001c0.001 0 0.002-0 0.003-0s0.004-0.001 0.006-0.001c0.002 0 0.003-0 0.004-0.001s0.003-0 0.004-0c0.001-0 0.003-0.001 0.005-0.001s0.004-0 0.005-0.001c0.001 0 0.003-0 0.004-0s0.003-0.001 0.004-0.001c0.002 0 0.004-0 0.006-0.001s0.003-0 0.004-0 0.003-0.001 0.004-0.001 0.003-0.001 0.005-0.001 0.003-0 0.005-0.001c0.001-0 0.002-0 0.004-0.001s0.004-0 0.006-0c0.001-0 0.003-0.001 0.005-0.001s0.003-0.001 0.005-0.001c0.001-0 0.002 0 0.003-0 0.002-0 0.005-0.001 0.007-0.001 0.001-0 0.002-0 0.003-0.001s0.003-0 0.005-0.001c0.001 0 0.002-0 0.003-0 0.002-0.001 0.004-0.001 0.008-0.001 0.001-0 0.002-0 0.002-0.001 0.005-0.001 0.011-0.002 0.015-0.003 0.001 0 0.001 0 0.002 0 0.003-0 0.007-0.001 0.010-0.002 0.002-0 0.003-0 0.005-0.001 0.001-0 0.001-0 0.002-0 0.003-0 0.006-0.001 0.010-0.001 0-0 0 0 0.001-0 0.006-0.001 0.011-0.002 0.017-0.002 0 0 0.001-0 0.001-0 0.006-0.001 0.011-0.002 0.017-0.003 0 0 0.001 0 0.001 0 0.009-0.002 0.018-0.003 0.028-0.005 0 0 0 0 0 0 0.006-0.001 0.011-0.002 0.017-0.003 0 0 0 0 0 0 0.015-0.002 0.029-0.004 0.045-0.007 0.17-0.027 0.339-0.057 0.507-0.091 0 0 0 0 0 0 0.006-0.001 0.011-0.002 0.016-0.003 0-0 0.001-0 0.001-0 0.006-0.001 0.011-0.002 0.016-0.003 0 0 0 0 0.001-0 0.004-0.001 0.007-0.001 0.011-0.002 0 0 0 0 0.001-0 0.006-0.001 0.010-0.002 0.016-0.003 0.001 0 0.001 0 0.001-0 0.006-0.001 0.010-0.002 0.016-0.003 0 0 0.001 0 0.001-0 0.004-0.001 0.006-0.001 0.010-0.002 0 0 0.001 0 0.001 0 0.002-0 0.003-0.001 0.005-0.001 0 0 0.001 0 0.001 0 0.003-0.001 0.006-0.001 0.009-0.002 0.001-0 0.001-0 0.002-0.001s0.003-0.001 0.005-0.001c0.001-0 0.001-0 0.002-0.001 0.003-0.001 0.006-0.001 0.008-0.002 0.001 0 0.002-0 0.002-0 0.003-0.001 0.005-0.001 0.008-0.002 0.001 0 0.001-0 0.002-0 0.002-0 0.003-0.001 0.005-0.001 0 0 0.001-0 0.002-0 0.003-0.001 0.005-0.001 0.008-0.002 0.001-0 0.002 0 0.003 0 0.002-0.001 0.003-0.001 0.005-0.001 0.001 0 0.001-0 0.002-0.001 0.002-0 0.005-0.001 0.007-0.002 0.001 0 0.002 0 0.003-0.001s0.003-0.001 0.004-0.001c0.002-0 0.004-0.001 0.006-0.001s0.003-0 0.004-0.001c0.001-0 0.002-0.001 0.003-0.001 0.002-0.001 0.005-0.001 0.007-0.001 0.001-0 0.002-0.001 0.003-0.001s0.003-0 0.004-0.001c0.001-0 0.003-0.001 0.004-0.001s0.005-0.001 0.007-0.001c0.001-0 0.002-0 0.003-0.001s0.003-0.001 0.004-0.001c0.002-0 0.003-0.001 0.004-0.001 0.002-0.001 0.004-0.001 0.006-0.001s0.002-0.001 0.004-0.001 0.002-0.001 0.004-0.001 0.004-0.001 0.006-0.001c0.001-0 0.002-0 0.004-0.001s0.003-0.001 0.004-0.001c0.002-0.001 0.003-0.001 0.005-0.001s0.003-0 0.005-0.001c0.001-0.001 0.003-0.001 0.002-0 0.002-0 0.003-0.001 0.005-0.001s0.003-0 0.005-0.001c0.001-0 0.003-0.001 0.004-0.001s0.002-0 0.004-0.001 0.004-0.001 0.006-0.002c0.001-0 0.002-0 0.003-0.001s0.003-0.001 0.005-0.001c0.001-0 0.002-0 0.003-0.001 0.003-0.001 0.005-0.001 0.007-0.001s0.002-0.001 0.003-0.001c0.003-0.001 0.005-0.001 0.007-0.002 0 0 0.001-0 0.002-0 0.003-0 0.005-0.001 0.007-0.001 0.001-0 0.002-0 0.003-0.001s0.005-0.001 0.007-0.002c0.001 0 0.001 0 0.002 0 0.002-0 0.004-0.001 0.006-0.002 0.001 0 0.002 0 0.002 0 0.002-0.001 0.005-0.001 0.008-0.002 0 0 0.001-0 0.002-0.001 0.002-0 0.004-0.001 0.007-0.001 0 0 0.001 0 0.001-0 0.002-0 0.005-0.001 0.008-0.002 0.001 0 0.001-0 0.002-0 0.002-0.001 0.005-0.001 0.007-0.002h0.001c0.002-0.001 0.004-0.001 0.007-0.002 0 0 0.001-0 0.001-0.001 0.002-0 0.005-0.001 0.008-0.002h0.001c0.002-0 0.005-0.001 0.007-0.002h0.001c0.002-0.001 0.005-0.001 0.008-0.002 0.001 0 0.001 0 0.001-0 0.006-0.001 0.012-0.002 0.017-0.004l0.001-0c0.006-0.001 0.012-0.003 0.017-0.004 0.114-0.026 0.228-0.053 0.341-0.082l-0.183-0.723c0.001-0 0.003-0 0.004-0.001zM25.897 7.14l0.963-0.811c-0-0-0.001-0.001-0.001-0.001l0.567-0.477c-0.498-0.591-1.040-1.144-1.625-1.652l-0.87 1c0.001 0.001 0.001 0.001 0.002 0.002l-0.443 0.51c0.503 0.438 0.976 0.919 1.407 1.43zM29.81 12.178l-1.225 0.291c0.154 0.649 0.258 1.315 0.309 1.98l0.673-0.052c0 0 0 0 0 0.001l1.322-0.102c-0-0-0-0-0-0.001-0-0.002-0-0.005-0.001-0.007v-0.001c0-0.003-0-0.005-0-0.009 0-0 0-0 0-0.001-0.001-0.006-0.001-0.011-0.002-0.017 0-0 0-0 0-0.001 0-0.006-0.001-0.012-0.001-0.017v-0c0-0.003 0-0.006-0-0.009v-0c-0.001-0.006-0.001-0.012-0.002-0.018v-0c-0.001-0.006-0.001-0.012-0.001-0.018 0-0.001 0 0-0 0-0-0.009-0.001-0.018-0.002-0.027-0-0.006-0.001-0.012-0.001-0.019s-0.001-0.012-0.002-0.018v-0c-0.017-0.188-0.037-0.376-0.060-0.562l-0-0.001c-0.003-0.021-0.005-0.042-0.008-0.063l-0-0c-0.001-0.006-0.001-0.011-0.002-0.018l-0-0c-0-0.003 0-0.005-0.001-0.008v-0c-0-0.003-0.001-0.006-0.001-0.009v-0c-0-0.003-0.001-0.005-0.001-0.009 0-0 0-0 0-0.001-0.001-0.006-0.002-0.011-0.003-0.017l0-0.002c-0.001-0.005-0.001-0.011-0.003-0.017 0-0 0-0.001 0-0.001 0-0.003-0-0.006-0.001-0.008v-0.001c-0-0.002-0.001-0.005-0.001-0.008v-0.001c-0.001-0.003-0.001-0.005-0.001-0.008 0-0.001-0-0.001 0-0.001-0.001-0.003-0.001-0.006-0.002-0.008 0-0 0 0 0-0-0-0.002-0-0.005-0.001-0.008-0-0-0-0.001-0-0.001-0.001-0.002-0.001-0.005-0.001-0.008-0-0 0 0-0-0-0-0.003-0.001-0.005-0.001-0.008 0-0-0-0.001 0-0.001-0.001-0.002-0.001-0.005-0.001-0.008 0-0.001-0-0.001-0.001-0.002-0.001-0.002-0.001-0.005-0.001-0.007 0-0.001 0-0.001-0-0.001 0-0.003-0-0.005-0.001-0.008 0-0-0-0.001-0-0.002-0.001-0.002-0.001-0.005-0.002-0.007v-0.001c0-0.002-0-0.005-0.001-0.007 0-0.001 0-0.001-0-0.002-0-0.003-0.001-0.005-0.001-0.008-0-0-0-0.001-0.001-0.001 0-0.002-0-0.004-0.001-0.007 0-0.001-0-0.001-0.001-0.002-0-0.002-0-0.005-0.001-0.007 0-0.001 0-0.002-0-0.003s-0.001-0.004-0.001-0.006c0-0.001-0-0.002-0-0.003-0-0.002-0.001-0.005-0.001-0.007 0-0.001 0-0.002-0-0.002-0.001-0.002-0.001-0.005-0.001-0.007s-0-0.002 0-0.003c-0.001-0.002-0.001-0.004-0.001-0.006-0-0.001-0.001-0.002-0.001-0.003-0.001-0.002-0.001-0.005-0.001-0.007 0-0.001-0-0.002-0.001-0.003s0-0.004-0-0.005c0-0.001-0-0.002-0-0.003-0-0.002-0-0.005-0.001-0.007s-0.001-0.002-0.001-0.003-0.001-0.003-0.001-0.005c-0-0.001-0-0.001-0-0.002-0.001-0.002-0.001-0.004 0-0.004-0-0.001-0-0.002-0.001-0.003 0-0.002-0-0.004-0.001-0.006 0-0.001 0-0.003 0-0.004s-0.001-0.003-0.001-0.005c-0-0.001-0.001-0.002-0.001-0.003-0.001-0.003-0.001-0.005-0.001-0.007 0-0.001 0-0.002-0-0.003s-0.001-0.003-0.001-0.005c-0-0.001-0.001-0.003-0.001-0.004-0-0.002 0-0.004-0.001-0.007 0-0.001-0-0.002-0-0.004s-0.001-0.003-0.001-0.004c0-0.001-0-0.004-0.001-0.005s-0.001-0.003-0.001-0.005c-0.001-0.001-0.001-0.003-0.001-0.004s-0-0.002-0.001-0.003-0.001-0.005-0-0.007c-0-0.001-0-0.002-0.001-0.003s-0.001-0.003-0.001-0.004c-0-0.001-0-0.003-0.001-0.005s-0.001-0.004-0.001-0.006c0-0.001 0-0.002-0-0.003-0-0.003-0.001-0.004-0.001-0.007-0-0.001-0-0.002-0-0.003s-0.001-0.003-0.001-0.005c-0-0.001-0.001-0.002-0.001-0.003-0.001-0.002-0.001-0.004-0.001-0.007 0-0.001 0-0.003-0-0.004s-0.001-0.003-0.001-0.004c-0-0.001-0-0.002-0.001-0.003-0-0.002-0-0.005-0.001-0.008-0.001-0.001-0.001-0.002-0.001-0.002-0.001-0.005-0.002-0.011-0.002-0.015 0-0.001-0-0.002 0-0.002-0.001-0.003-0.001-0.006-0.002-0.009-0-0-0-0.001 0-0.001-0-0.002-0-0.003-0.001-0.005 0-0 0-0.001 0-0.001-0.001-0.003-0.002-0.006-0.002-0.010 0-0 0-0.001 0-0.001-0-0.002-0.001-0.003-0.001-0.005-0 0-0-0-0-0-0.001-0.003-0.001-0.007-0.002-0.010 0-0 0-0.001 0-0.001-0.001-0.006-0.001-0.010-0.002-0.016-0-0-0-0.001-0.001-0.001-0.001-0.006-0.002-0.011-0.003-0.016 0 0 0-0 0-0.001-0.001-0.004-0.002-0.007-0.002-0.011 0-0 0-0 0-0-0.001-0.006-0.002-0.011-0.003-0.017 0 0 0 0-0 0-0.053-0.316-0.117-0.63-0.191-0.94l-0.721 0.171c0-0 0-0 0-0zM23.547 27.456l-0.669-1.067c-0.566 0.355-1.164 0.669-1.777 0.932l0.268 0.624c-0.002 0.001-0.003 0.001-0.005 0.002l0.523 1.218c0.145-0.062 0.288-0.127 0.43-0.19h0.005c0.008-0.004 0.016-0.007 0.025-0.011h0c0.008-0.004 0.016-0.008 0.024-0.012 0.005-0.002 0.011-0.005 0.016-0.007l0.001-0.001c0.005-0.002 0.010-0.005 0.016-0.007h0c0.002-0.001 0.005-0.003 0.008-0.004 0-0 0 0 0.001 0 0.005-0.003 0.010-0.005 0.016-0.007l0.001-0.001c0.003-0.001 0.005-0.002 0.008-0.004s0.005-0.003 0.008-0.004c0.003-0.001 0.005-0.002 0.008-0.004 0-0 0-0 0.001-0 0.005-0.002 0.010-0.005 0.015-0.007 0-0 0 0 0.001-0 0.002-0.001 0.005-0.003 0.008-0.004h0c0.002-0.001 0.005-0.003 0.008-0.004h0c0.002-0.001 0.005-0.003 0.007-0.004l0.001-0c0.005-0.003 0.010-0.005 0.016-0.007l0.001-0.001c0.003-0.001 0.005-0.002 0.008-0.004 0.001-0 0.001-0 0.001-0 0.005-0.002 0.010-0.005 0.015-0.007 0-0 0.001-0 0.001-0 0.002-0.002 0.005-0.003 0.007-0.004l0.001-0.001c0.003-0.001 0.005-0.002 0.007-0.003l0.001-0c0.002-0.001 0.005-0.003 0.007-0.004 0-0 0.001-0 0.001-0.001 0.005-0.002 0.009-0.005 0.014-0.007 0.001 0 0.001-0 0.002-0 0.002-0.002 0.005-0.003 0.007-0.004 0-0 0.001-0.001 0.001-0.001 0.002-0.001 0.005-0.002 0.007-0.004 0.001 0 0 0 0.001-0 0.002-0.001 0.005-0.002 0.007-0.004 0.001-0 0.001-0.001 0.002-0.001 0.005-0.002 0.010-0.005 0.015-0.007 0-0 0.001-0.001 0.001-0.001 0.002-0.001 0.005-0.002 0.007-0.003 0.001-0 0.001-0 0.001-0.001 0.002-0.001 0.005-0.002 0.007-0.004l0 0c0.002-0.001 0.005-0.003 0.008-0.004 0-0 0.001-0 0.001-0.001 0.003-0.001 0.005-0.002 0.007-0.004l0.001-0c0.002-0.001 0.005-0.002 0.007-0.004l0.001-0.001c0.002-0.001 0.004-0.002 0.007-0.004 0-0 0.001-0 0.002-0.001 0.002-0.001 0.004-0.002 0.007-0.004h0c0.003-0.001 0.005-0.003 0.007-0.004 0-0 0.001-0.001 0.002-0.001 0.002-0.001 0.004-0.002 0.007-0.003l0.001-0.001c0.002-0.001 0.005-0.002 0.007-0.004 0.001 0 0.001 0 0.001 0 0.002-0.001 0.005-0.003 0.007-0.004 0-0 0.001-0.001 0.001-0.001 0.003-0.001 0.005-0.002 0.007-0.004 0.001 0 0 0 0.001-0 0.002-0.001 0.005-0.003 0.007-0.004 0.001 0 0.001 0 0.001-0 0.002-0.001 0.005-0.002 0.007-0.004 0 0 0.001-0 0.001-0 0.002-0.001 0.005-0.003 0.008-0.004s0.005-0.003 0.007-0.004c0 0 0.001-0 0.001-0.001 0.002-0.001 0.005-0.003 0.007-0.004l0-0c0.003-0.001 0.005-0.003 0.008-0.004l0.001-0c0.002-0.002 0.005-0.003 0.008-0.004 0-0 0-0 0.001-0 0.005-0.003 0.010-0.005 0.015-0.008 0-0 0.001-0 0.001-0.001 0.002-0.001 0.005-0.003 0.007-0.004 0-0 0.001-0 0.001-0.001 0.002-0.001 0.004-0.003 0.007-0.004 0-0 0 0 0.001-0 0.002-0.001 0.005-0.002 0.007-0.004 0.001-0 0.001 0 0.002-0.001 0.002-0.001 0.004-0.002 0.007-0.004 0.001 0 0 0 0 0 0.002-0.001 0.005-0.002 0.007-0.004 0-0 0-0 0.001-0 0.002-0.001 0.005-0.003 0.007-0.004 0-0 0-0.001 0.001-0.001 0.002-0.001 0.005-0.003 0.007-0.004s0.005-0.003 0.008-0.004c0-0 0-0 0.001-0.001 0.002-0.001 0.005-0.003 0.007-0.004l0.001-0c0.002-0.001 0.005-0.002 0.007-0.004l0.001-0c0.002-0.001 0.005-0.002 0.008-0.004 0 0 0.001-0 0.001-0 0.005-0.002 0.009-0.005 0.014-0.008 0 0 0.001-0 0.001-0.001 0.002-0.001 0.005-0.003 0.007-0.004l0.001-0c0.002-0.001 0.005-0.003 0.007-0.004 0-0 0 0 0-0 0.002-0.001 0.005-0.003 0.007-0.004l0.001-0.001c0.002-0.001 0.005-0.003 0.007-0.004 0.001 0 0 0 0 0 0.002-0.001 0.004-0.003 0.007-0.004l0.001-0c0.002-0.002 0.005-0.003 0.007-0.004 0-0 0.001-0 0.001-0.001 0.005-0.002 0.010-0.005 0.015-0.008 0-0 0.001-0 0.001-0.001 0.002-0.001 0.005-0.003 0.007-0.004l0-0c0.002-0.001 0.004-0.002 0.007-0.004l0-0c0.002-0.001 0.005-0.003 0.007-0.004 0.001 0 0.001 0 0.001-0 0.005-0.002 0.011-0.005 0.016-0.008 0.001 0 0 0 0.001 0 0.002-0.001 0.005-0.003 0.008-0.004l0-0c0.005-0.002 0.010-0.005 0.016-0.008h0.001c0.005-0.003 0.010-0.005 0.015-0.008l0-0c0.002-0.001 0.005-0.003 0.007-0.004v-0c0.006-0.003 0.011-0.006 0.016-0.008h0c0.008-0.005 0.016-0.009 0.023-0.013 0.005-0.003 0.011-0.006 0.016-0.009h0c0.286-0.154 0.568-0.319 0.844-0.492l-0.396-0.631c0.001-0.001 0.003-0.001 0.004-0.002z"></path>
</svg>
