<!-- Generated by IcoMoon.io -->
<svg version="1.1" xmlns="http://www.w3.org/2000/svg" width="32" height="32" viewBox="0 0 32 32">
<title>triangulate</title>
<path d="M31.022 27.205v-25.548c0-0.675 0 0 0-1.224l-30.043 0v30.043l30.043 0v-1.224l-0-2.046zM3.427 6.010v-3.128h9.486v7.169l-9.486-3.657v-0.384zM3.427 17.302v-8.587l8.711 3.671-8.711 6.368v-1.452zM14.638 28.027l-11.044-0c-0.028-0.014-0.055-0.028-0.083-0.041s-0.055-0.028-0.083-0.042v-6.539l9.688-6.743 1.665 13.364h-0.142zM15.154 2.882h8.595l-8.595 6.687v-6.687zM28.573 25.259v2.768l-11.539-0-1.522-13.446 13.062 9.968v0.71zM28.573 6.256v3.375h-0v12.258l-12.349-9.791 0.090-0.45 11.075-8.767h1.184v3.375z"></path>
</svg>
