<!-- Generated by IcoMoon.io -->
<svg version="1.1" xmlns="http://www.w3.org/2000/svg" width="32" height="32" viewBox="0 0 32 32">
<title>txt</title>
<path d="M27.875 8.33c0.158 0.158 0.317 0.362 0.475 0.611h-8.007v-8.007c0.249 0.158 0.452 0.317 0.611 0.475l6.921 6.921zM19.8 11.112h9.229v17.914c0 0.452-0.158 0.837-0.475 1.154s-0.701 0.475-1.154 0.475h-22.8c-0.452 0-0.837-0.158-1.154-0.475s-0.475-0.701-0.475-1.154v-27.143c0-0.452 0.158-0.837 0.475-1.154s0.701-0.475 1.154-0.475h13.571v9.229c0 0.452 0.158 0.837 0.475 1.154s0.701 0.475 1.154 0.475zM10.029 21.969c-0.158 0-0.288 0.051-0.39 0.153s-0.153 0.232-0.153 0.39v1.086c0 0.158 0.051 0.288 0.153 0.39s0.232 0.153 0.39 0.153h11.943c0.158 0 0.288-0.051 0.39-0.153s0.153-0.232 0.153-0.39v-1.086c0-0.158-0.051-0.288-0.153-0.39s-0.232-0.153-0.39-0.153zM10.029 17.626c-0.158 0-0.288 0.051-0.39 0.153s-0.153 0.232-0.153 0.39v1.086c0 0.158 0.051 0.288 0.153 0.39s0.232 0.153 0.39 0.153h11.943c0.158 0 0.288-0.051 0.39-0.153s0.153-0.232 0.153-0.39v-1.086c0-0.158-0.051-0.288-0.153-0.39s-0.232-0.153-0.39-0.153zM10.029 13.283c-0.158 0-0.288 0.051-0.39 0.153s-0.153 0.232-0.153 0.39v1.086c0 0.158 0.051 0.288 0.153 0.39s0.232 0.153 0.39 0.153h11.943c0.158 0 0.288-0.051 0.39-0.153s0.153-0.232 0.153-0.39v-1.086c0-0.158-0.051-0.288-0.153-0.39s-0.232-0.153-0.39-0.153z"></path>
</svg>
