<!-- Generated by IcoMoon.io -->
<svg version="1.1" xmlns="http://www.w3.org/2000/svg" width="32" height="32" viewBox="0 0 32 32">
<title>udig</title>
<path d="M24.639 15.525c-0.003 0.001-0.007 0.002-0.010 0.002 0.003-0 0.007-0.001 0.010-0.002zM19.933 19.45c-0.005-0.003-0.009-0.004-0.012-0.004 0.004 0.002 0.008 0.003 0.012 0.004zM30.361 13.347c-0.951-1.629-2.241-2.919-3.87-3.87s-3.408-1.426-5.338-1.426c-0.511 0-1.011 0.034-1.5 0.1v-5.802c0 0 0-0.759-0.6-0.759h-18.24c0 0-0.6 0-0.6 0.759v15.413c0 0 0 0.759 0.6 0.759h8.107v1.695c-1.836 0.13-3.199 0.602-3.199 1.167 0 0.665 1.886 1.203 4.212 1.203 0.45 0 0.884-0.020 1.291-0.058 0.007 0.019 0.015 0.038 0.022 0.058 0.194 0.491 0.427 0.97 0.7 1.437 0.951 1.629 2.241 2.919 3.87 3.87s3.408 1.426 5.338 1.426c1.929 0 3.708-0.475 5.338-1.426s2.919-2.241 3.87-3.87c0.951-1.629 1.426-3.408 1.426-5.338s-0.475-3.708-1.426-5.338zM1.426 16.063v-12.855h17.014v5.182c-0.914 0.238-1.789 0.6-2.625 1.087-1.629 0.951-2.919 2.241-3.87 3.87-0.504 0.863-0.874 1.769-1.111 2.716h-9.409zM22.482 24.278c-0.084-0.101-0.118-0.186-0.103-0.257-0.014 0.038-0.044 0.073-0.091 0.104-0.046-0.055-0.129-0.125-0.249-0.208s-0.203-0.152-0.249-0.208c-0.018-0.028-0.044-0.067-0.076-0.118s-0.074-0.118-0.125-0.201-0.088-0.155-0.111-0.215c-0.023-0.060-0.025-0.095-0.007-0.104-0.175 0.074-0.429 0.023-0.762-0.152-0.065-0.037-0.162-0.134-0.291-0.291s-0.263-0.226-0.402-0.208c-0.046 0.009-0.108 0.025-0.187 0.048-0.068 0.020-0.128 0.031-0.178 0.034-0.008 0-0.015 0.001-0.023 0.001-0.055 0-0.129-0.018-0.222-0.055-0.074-0.028-0.173-0.081-0.298-0.159s-0.21-0.127-0.256-0.145l-0.18-0.097-0.222-0.111c-0.055-0.028-0.113-0.072-0.173-0.131s-0.099-0.122-0.118-0.187c-0.018-0.055-0.042-0.166-0.069-0.332s-0.065-0.286-0.111-0.36c-0.055-0.092-0.134-0.185-0.235-0.277s-0.194-0.138-0.277-0.138c0.074 0 0.074-0.062 0-0.187s-0.138-0.215-0.194-0.27c-0.018-0.018-0.074-0.078-0.166-0.18s-0.171-0.189-0.235-0.263c-0.065-0.074-0.12-0.159-0.166-0.256s-0.055-0.178-0.028-0.242c0.009-0.009 0-0.023-0.028-0.042s-0.062-0.037-0.104-0.055c-0.042-0.018-0.081-0.035-0.118-0.048s-0.065-0.021-0.083-0.021c0.018 0.037 0.039 0.104 0.062 0.201s0.048 0.168 0.076 0.215c0.018 0.037 0.097 0.171 0.235 0.402 0.24 0.388 0.351 0.674 0.332 0.858-0.055 0.018-0.092 0.009-0.111-0.028s-0.032-0.088-0.042-0.152-0.018-0.111-0.028-0.138c-0.028-0.055-0.099-0.115-0.215-0.18s-0.187-0.129-0.215-0.194c0.009 0 0.021-0.005 0.035-0.014s0.025-0.014 0.035-0.014c0.009-0.083-0.039-0.189-0.145-0.318s-0.15-0.222-0.132-0.277c-0.074-0.055-0.138-0.164-0.194-0.325s-0.102-0.265-0.138-0.312c-0.037-0.055-0.083-0.104-0.138-0.145-0.002-0.001-0.004-0.003-0.006-0.005-0.054-0.040-0.121-0.085-0.202-0.134-0.083-0.051-0.138-0.085-0.166-0.104-0.018-0.009-0.055-0.051-0.111-0.125-0.305-0.369-0.397-0.568-0.277-0.595-0.12 0.028-0.219-0.062-0.298-0.27s-0.104-0.367-0.076-0.478l-0.028-0.014c0.009-0.037 0.014-0.145 0.014-0.325 0-0.149 0.008-0.286 0.024-0.413 0.003-0.027 0.007-0.053 0.011-0.078 0.022-0.138 0.061-0.212 0.119-0.221-0.059 0.001-0.103-0.057-0.133-0.174-0.032-0.125-0.035-0.21-0.007-0.256 0.009-0.028 0.051-0.009 0.125 0.055s0.115 0.106 0.125 0.125c0.12-0.065 0.166-0.148 0.138-0.249-0.018-0.037-0.115-0.134-0.291-0.291-0.397-0.258-0.6-0.383-0.609-0.374 0.055-0.102 0.042-0.189-0.042-0.263-0.092 0.055-0.145 0.069-0.159 0.042s-0.025-0.078-0.035-0.152c-0.009-0.074-0.032-0.115-0.069-0.125-0.046-0.009-0.102-0.046-0.166-0.111 0.822-1.311 1.906-2.335 3.254-3.074 0.055-0.009 0.157-0.014 0.305-0.014 0.074 0.009 0.143 0.032 0.208 0.069s0.132 0.088 0.201 0.152 0.122 0.111 0.159 0.138c0.018-0.055-0.005-0.138-0.069-0.249 0.018-0.055 0.12-0.111 0.305-0.166 0.212-0.028 0.351-0.023 0.415 0.014-0.055-0.083-0.148-0.198-0.277-0.346l-0.069 0.069c-0.074-0.065-0.268-0.032-0.581 0.097-0.018 0.009-0.065 0.035-0.138 0.076s-0.134 0.072-0.18 0.090c-0.055 0.018-0.111 0.023-0.166 0.014 0.443-0.24 0.877-0.429 1.302-0.568 0.026 0.017 0.068 0.053 0.125 0.106 0.004 0.004 0.009 0.008 0.013 0.012 0.065 0.060 0.115 0.104 0.152 0.132-0.028-0.018-0.046-0.009-0.055 0.028-0.037 0.111-0.037 0.203 0 0.277 0.046 0.065 0.108 0.102 0.187 0.111s0.173 0.005 0.284-0.014 0.185-0.028 0.222-0.028l0.138 0.014c0.121 0.011 0.211 0.013 0.272 0.006 0.079-0.009 0.107-0.035 0.084-0.076 0.026 0.041 0.055 0.112 0.088 0.215 0.037 0.115 0.078 0.196 0.125 0.242 0.046-0.037 0.055-0.102 0.028-0.194s-0.028-0.157 0-0.194c0.009-0.018 0.037-0.037 0.083-0.055s0.099-0.039 0.159-0.062 0.099-0.039 0.118-0.048c0.055-0.037 0.018-0.102-0.111-0.194-0.018-0.009-0.058-0.023-0.118-0.042s-0.113-0.037-0.159-0.055-0.095-0.044-0.145-0.076c-0.051-0.032-0.074-0.069-0.069-0.111s0.030-0.095 0.076-0.159c0.055-0.046 0.145-0.065 0.27-0.055s0.219 0.032 0.284 0.069c0.249 0.138 0.286 0.263 0.111 0.374 0.092 0.009 0.203 0.046 0.332 0.111s0.18 0.134 0.152 0.208c0.074-0.138 0.148-0.208 0.221-0.208 0.046 0.009 0.090 0.072 0.132 0.187s0.067 0.178 0.076 0.187c0.074 0.102 0.148 0.125 0.222 0.069s0.15-0.136 0.228-0.242c0.073-0.099 0.116-0.148 0.129-0.146-0.090-0.037-0.098-0.073-0.025-0.11 0.138-0.083 0.263-0.106 0.374-0.069 0.028 0.018 0.065 0.060 0.111 0.125 0.083 0.166 0.069 0.245-0.042 0.235 0.083 0.074 0.118 0.166 0.104 0.277s-0.085 0.162-0.215 0.152c-0.046 0-0.113-0.023-0.201-0.069s-0.155-0.072-0.201-0.076c-0.046-0.005-0.111 0.021-0.194 0.076-0.037 0.046-0.085 0.125-0.145 0.235s-0.113 0.189-0.159 0.235c-0.138 0.138-0.369 0.189-0.692 0.152 0.028 0 0.025 0.028-0.007 0.083s-0.076 0.118-0.132 0.187-0.088 0.108-0.097 0.118c-0.083 0.092-0.138 0.198-0.166 0.318 0 0.018-0.005 0.081-0.014 0.187s-0.028 0.187-0.055 0.242c0.111-0.028 0.198 0.028 0.263 0.166 0.055 0.129 0.055 0.198 0 0.208 0.305-0.046 0.572-0.028 0.803 0.055 0.332 0.12 0.522 0.24 0.568 0.36 0.055-0.083 0.189-0.088 0.402-0.014 0.083 0.046 0.157 0.185 0.222 0.415 0.037 0.138 0.099 0.258 0.187 0.36s0.182 0.129 0.284 0.083l0.042-0.028c0.037-0.018 0.067-0.035 0.090-0.048s0.048-0.032 0.076-0.055 0.044-0.044 0.048-0.062c0.005-0.018-0.002-0.037-0.021-0.055-0.065-0.055-0.113-0.132-0.145-0.228s-0.025-0.182 0.021-0.256c0.028-0.037 0.102-0.092 0.222-0.166s0.194-0.148 0.222-0.222c0.037-0.12-0.009-0.219-0.138-0.298s-0.194-0.15-0.194-0.215c0-0.046 0.030-0.102 0.090-0.166s0.085-0.125 0.076-0.18c0-0.028-0.016-0.085-0.048-0.173s-0.051-0.152-0.055-0.194c-0.005-0.042 0.016-0.090 0.062-0.145 0.065-0.037 0.217-0.035 0.457 0.007s0.397 0.085 0.471 0.132c0.028 0.018 0.088 0.046 0.18 0.083s0.173 0.076 0.242 0.118 0.108 0.081 0.118 0.118h-0.069c0.065 0.055 0.104 0.12 0.118 0.194s-0.021 0.129-0.104 0.166c0.055-0.009 0.129 0.005 0.222 0.042 0.148 0.055 0.152 0.106 0.014 0.152 0.028-0.009 0.067-0.018 0.118-0.028s0.090-0.023 0.118-0.042c0.018-0.009 0.042-0.025 0.069-0.048s0.048-0.037 0.062-0.042c0.014-0.005 0.035-0.009 0.062-0.014s0.055 0.002 0.083 0.021c0.009 0 0.030-0.023 0.062-0.069s0.067-0.092 0.104-0.138c0.037-0.046 0.069-0.069 0.097-0.069s0.053 0.012 0.076 0.035c0.023 0.023 0.042 0.048 0.055 0.076s0.028 0.058 0.042 0.090c0.014 0.032 0.025 0.058 0.035 0.076 0.018 0.046 0.062 0.095 0.132 0.145s0.113 0.099 0.132 0.145c0.009 0.028 0.028 0.097 0.055 0.208s0.065 0.187 0.111 0.228c0.046 0.042 0.115 0.076 0.208 0.104 0.018 0.009 0.060 0.005 0.125-0.014s0.118-0.023 0.159-0.014c0.042 0.009 0.062 0.046 0.062 0.111 0.055-0.055 0.083-0.092 0.083-0.111 0.009 0.12 0.039 0.217 0.090 0.291s0.132 0.106 0.242 0.097l-0.028 0.305c-0.028 0.046-0.097 0.081-0.208 0.104s-0.18 0.044-0.208 0.062c-0.028 0.009-0.095 0.065-0.201 0.166s-0.15 0.162-0.132 0.18c-0.157-0.175-0.392-0.226-0.706-0.152-0.351 0.055-0.591 0.111-0.72 0.166-0.148 0.074-0.249 0.143-0.305 0.208-0.009 0.009-0.025 0.042-0.048 0.097s-0.046 0.106-0.069 0.152c-0.019 0.038-0.036 0.060-0.052 0.067 0.053-0.013 0.112-0.055 0.177-0.129 0.069-0.078 0.113-0.122 0.132-0.132 0.24-0.157 0.438-0.212 0.595-0.166 0.203 0.055 0.235 0.129 0.097 0.222-0.018 0.018-0.067 0.025-0.145 0.021s-0.132-0.002-0.159 0.007c0.083 0.018 0.152 0.044 0.208 0.076s0.069 0.076 0.042 0.132c0.148 0.083 0.175 0.175 0.083 0.277-0.12 0.12-0.263 0.171-0.429 0.152 0.028 0 0.028 0.018 0 0.055l-0.235 0.152c-0.018 0.009-0.078 0.032-0.18 0.069s-0.171 0.078-0.208 0.125c-0.028 0.037-0.042 0.092-0.042 0.166s-0.005 0.129-0.014 0.166c-0.009 0.037-0.046 0.046-0.111 0.028-0.028 0.055-0.113 0.099-0.256 0.131s-0.238 0.081-0.284 0.145c0.055 0.074 0.051 0.148-0.014 0.222-0.111 0.092-0.208 0.083-0.291-0.028-0.046 0.018-0.081 0.065-0.104 0.138s-0.058 0.125-0.104 0.152c0.065 0.102 0.055 0.175-0.028 0.222 0.009 0 0.030 0.009 0.062 0.028s0.067 0.042 0.104 0.069 0.060 0.042 0.069 0.042c-0.037 0.083-0.088 0.125-0.152 0.125 0.055 0.148-0.014 0.309-0.208 0.485-0.037 0.037-0.095 0.074-0.173 0.111s-0.15 0.067-0.215 0.090c-0.065 0.023-0.102 0.039-0.111 0.048-0.092 0.083-0.162 0.168-0.208 0.256s-0.053 0.173-0.021 0.256c0.032 0.083 0.118 0.138 0.256 0.166l0.014 0.111v0.249l0.014 0.111c0.009 0.065 0.016 0.122 0.021 0.173s0.005 0.115 0 0.194c-0.005 0.078-0.025 0.122-0.062 0.131s-0.088 0-0.152-0.028c-0.074-0.037-0.162-0.24-0.263-0.609-0.018-0.092-0.074-0.203-0.166-0.332-0.046 0.046-0.085 0.076-0.118 0.090s-0.055 0.016-0.069 0.007c-0.014-0.009-0.039-0.030-0.076-0.062s-0.069-0.058-0.097-0.076c-0.046-0.028-0.127-0.051-0.242-0.069s-0.187-0.042-0.215-0.069c-0.222 0.166-0.355 0.125-0.402-0.125-0.018 0.046-0.016 0.108 0.007 0.187s0.035 0.122 0.035 0.131c-0.065 0.12-0.166 0.129-0.305 0.028-0.055-0.055-0.182-0.062-0.381-0.021-0.187 0.039-0.315 0.048-0.383 0.025 0.010 0.006 0.025 0.018 0.044 0.037 0.028 0.018 0.046 0.032 0.055 0.042-0.009 0.037-0.023 0.065-0.042 0.083s-0.037 0.025-0.055 0.021c-0.018-0.005-0.039-0.005-0.062 0s-0.044 0.012-0.062 0.021c-0.037 0.028-0.083 0.076-0.138 0.145-0.007 0.008-0.013 0.016-0.019 0.023-0.046 0.056-0.081 0.092-0.106 0.108 0.055 0.148 0.081 0.261 0.076 0.339s-0.018 0.194-0.042 0.346c-0.023 0.152-0.035 0.275-0.035 0.367 0 0.132 0.035 0.283 0.106 0.452 0.008 0.020 0.017 0.040 0.026 0.060 0.088 0.194 0.192 0.328 0.312 0.401 0.065 0.037 0.175 0.060 0.332 0.069s0.268 0 0.332-0.028c0.055-0.028 0.097-0.060 0.125-0.097s0.051-0.090 0.069-0.159c0.018-0.069 0.032-0.118 0.042-0.145 0.065-0.175 0.185-0.268 0.36-0.277 0.111-0.009 0.192 0.002 0.242 0.035s0.072 0.076 0.062 0.131c-0.009 0.055-0.028 0.113-0.055 0.173s-0.062 0.127-0.104 0.201c-0.042 0.074-0.067 0.129-0.076 0.166-0.018 0.074-0.035 0.178-0.048 0.312s-0.025 0.215-0.035 0.242c0.018 0.009 0.088 0.014 0.208 0.014 0-0.018 0.007-0.048 0.021-0.090s0.021-0.067 0.021-0.076c0.046 0.074 0.12 0.115 0.222 0.125s0.175-0.028 0.222-0.111c0.018 0.028 0.074 0.097 0.166 0.208s0.143 0.203 0.152 0.277c0.009 0.037 0.028 0.097 0.055 0.18s0.037 0.141 0.028 0.173c-0.009 0.032-0.055 0.048-0.138 0.048-0.037 0-0.060 0.014-0.069 0.042s-0.009 0.062 0 0.104 0.021 0.081 0.035 0.118c0.014 0.037 0.032 0.076 0.055 0.118s0.035 0.067 0.035 0.076c0.166 0.305 0.392 0.388 0.678 0.249 0 0.268-0.065 0.415-0.194 0.443-0.074 0.018-0.157-0.028-0.249-0.139zM22.69 27.407c-0.018-0.092-0.028-0.166-0.028-0.222-0.009-0.074 0.023-0.173 0.097-0.298s0.111-0.219 0.111-0.284c-0.148-0.037-0.203-0.157-0.166-0.36 0.018-0.138 0.152-0.323 0.402-0.554 0.175-0.157 0.231-0.378 0.166-0.665-0.028-0.12-0.051-0.295-0.069-0.526-0.018-0.223-0.036-0.381-0.054-0.475 0.009 0.024 0.052 0.046 0.13 0.067 0.088 0.023 0.141 0.053 0.159 0.090 0.018-0.028 0.042-0.078 0.069-0.152s0.055-0.129 0.083-0.166c0.018-0.028 0.058-0.062 0.118-0.104s0.099-0.067 0.118-0.076c0.018-0.009 0.060-0.039 0.125-0.090s0.118-0.090 0.159-0.118 0.097-0.048 0.166-0.062 0.118 0.007 0.145 0.062c0.046 0.055 0.037 0.141-0.028 0.256s-0.065 0.196 0 0.242c0.009-0.028 0.018-0.088 0.028-0.18s0.037-0.162 0.083-0.208c0.055-0.055 0.108-0.088 0.159-0.097s0.097-0.002 0.138 0.021 0.090 0.055 0.145 0.097 0.106 0.067 0.152 0.076c0.138 0.046 0.305 0.148 0.498 0.305-0.009-0.009-0.009-0.021 0-0.035s0.028-0.028 0.055-0.042 0.053-0.028 0.076-0.042c0.023-0.014 0.048-0.025 0.076-0.035l0.042-0.014c0.065 0 0.111-0.005 0.138-0.014s0.067 0 0.118 0.028c0.051 0.028 0.085 0.048 0.104 0.062s0.051 0.039 0.097 0.076c0.046 0.037 0.078 0.065 0.097 0.083 0.028 0.018 0.078 0.051 0.152 0.097s0.131 0.083 0.173 0.111 0.078 0.069 0.111 0.125c0.032 0.055 0.044 0.115 0.035 0.18 0.055 0.009 0.166 0.046 0.332 0.111 0.028 0.018 0.085 0.035 0.173 0.048s0.145 0.035 0.173 0.062c-1.338 1.412-2.958 2.285-4.86 2.617zM22.38 24.022c0.002-0.007 0.004-0.013 0.006-0.020-0.002 0.007-0.004 0.013-0.006 0.020z"></path>
</svg>
