<!-- Generated by IcoMoon.io -->
<svg version="1.1" xmlns="http://www.w3.org/2000/svg" width="32" height="32" viewBox="0 0 32 32">
<title>union</title>
<path d="M20.594 20.049h1.786v1.786h-1.786v-1.786zM16.835 20.049h2.088v1.786h-2.088v-1.786zM13.077 20.049h2.088v1.786h-2.088v-1.786zM9.62 12.531h1.786v2.088h-1.786v-2.088zM9.62 16.29h1.786v2.088h-1.786v-2.088zM9.62 9.075h1.786v1.786h-1.786v-1.786zM16.835 9.075h2.088v1.786h-2.088v-1.786zM13.077 9.075h2.088v1.786h-2.088v-1.786zM20.594 16.29h1.786v2.088h-1.786v-2.088zM20.594 12.531h1.786v2.088h-1.786v-2.088zM22.38 9.968v-0.893h-0.893v-9.62h-21.487v21.487h9.61v-2.143h-7.468v-17.201h17.201v7.479h1.25v1.784h1.764v1.25h7.499v17.201h-17.201v-7.487h-1.25v-1.776h-1.786v1.786h0.893v9.62h21.487v-21.487z"></path>
</svg>
