<!-- Generated by IcoMoon.io -->
<svg version="1.1" xmlns="http://www.w3.org/2000/svg" width="32" height="32" viewBox="0 0 32 32">
<title>usb-stick</title>
<path d="M25.236 30.833l6.265-6.266c0.242-0.243 0.242-0.635 0-0.878l-7.573-7.573c-0.243-0.242-0.635-0.242-0.878 0l-6.266 6.266c-0.242 0.243-0.242 0.636 0 0.878l7.574 7.574c0.242 0.242 0.636 0.242 0.878-0zM24.515 22.529l1.504-1.504 3.080 3.080-1.504 1.504-3.080-3.080zM21.789 25.383l1.504-1.504 3.080 3.080-1.504 1.504-3.080-3.080zM23.219 13.752c0.762-0.762 0.751-1.774-0.218-2.742-0.969-0.97-9.926-9.928-9.926-9.928s-3.441-3.788-9.399 2.172c-5.96 5.959-2.171 9.399-2.171 9.399s8.959 8.958 9.927 9.928c0.969 0.968 1.98 0.979 2.742 0.217s8.283-8.284 9.045-9.046zM2.561 9.076c-0.349-0.349-0.5-0.762-0.339-0.924l6.519-6.519c0.162-0.162 0.575-0.010 0.924 0.339s0.5 0.763 0.339 0.924l-6.519 6.519c-0.162 0.162-0.576 0.010-0.924-0.339z"></path>
</svg>
