<!-- Generated by IcoMoon.io -->
<svg version="1.1" xmlns="http://www.w3.org/2000/svg" width="32" height="32" viewBox="0 0 32 32">
<title>vector</title>
<path d="M19.422 15.442c0 1.887-1.529 3.416-3.416 3.416s-3.416-1.529-3.416-3.416c0-1.887 1.529-3.416 3.416-3.416s3.416 1.529 3.416 3.416zM30.041 24.948v-18.986c1.158-0.547 1.959-1.725 1.959-3.091 0-1.887-1.529-3.416-3.416-3.416-1.366 0-2.544 0.801-3.091 1.959h-18.986c-0.547-1.158-1.725-1.959-3.091-1.959-1.887 0-3.416 1.529-3.416 3.416 0 1.366 0.801 2.544 1.959 3.091v18.986c-1.158 0.547-1.959 1.725-1.959 3.091 0 1.887 1.529 3.416 3.416 3.416 1.366 0 2.544-0.801 3.091-1.959h18.986c0.547 1.158 1.725 1.959 3.091 1.959 1.887 0 3.416-1.529 3.416-3.416-0-1.366-0.801-2.544-1.959-3.091zM27.551 7.821v16.96c-1.056 0.334-1.89 1.168-2.225 2.225h-18.653c-0.335-1.056-1.168-1.89-2.225-2.225v-18.653c1.056-0.335 1.89-1.168 2.225-2.225h18.653c0.334 1.056 1.168 1.89 2.225 2.225v1.693z"></path>
</svg>
