<!-- Generated by IcoMoon.io -->
<svg version="1.1" xmlns="http://www.w3.org/2000/svg" width="32" height="32" viewBox="0 0 32 32">
<title>video-camera</title>
<path d="M30.747 4.501h-12.041c-0.67 0-1.213 0.604-1.213 1.348v6.766c0 0.744 0.543 1.348 1.213 1.348h12.041c0.67 0 1.213-0.603 1.213-1.348v-6.766c-0-0.744-0.543-1.348-1.213-1.348zM12.444 7.149c0 2.292-1.858 4.151-4.151 4.151s-4.151-1.858-4.151-4.151c0-2.292 1.858-4.151 4.151-4.151s4.151 1.858 4.151 4.151zM16.010 14.852v-12.041c0-1.777-1.454-3.231-3.231-3.231h-9.548c-1.777-0-3.231 1.454-3.231 3.231v25.412c0 1.777 1.454 3.231 3.231 3.231h9.548c1.777 0 3.231-1.454 3.231-3.231v-0.147zM8.005 13.071c-3.193 0-5.782-2.589-5.782-5.782s2.589-5.782 5.782-5.782c3.193 0 5.782 2.589 5.782 5.782s-2.589 5.782-5.782 5.782z"></path>
</svg>
