<!-- Generated by IcoMoon.io -->
<svg version="1.1" xmlns="http://www.w3.org/2000/svg" width="32" height="32" viewBox="0 0 32 32">
<title>watershed</title>
<path d="M29.797 0.433h-28.819v30.043h30.043v-30.043h-1.224zM28.573 9.631v0.424l-4.195-4.747-0.459 0.13-0.602 0.54-7.109 9.002 2.282 1.736c0.1 0.039 0.708 0.628 0.794 0.694l1.141 0.843-4.382 5.222c-0.084 0.062-0.154 0.146-0.201 0.247-0.155 0.329-0.014 0.722 0.315 0.877l4.418 3.475-1.198-0.047h-5.992l-1.887-2.929c-0.040-0.031-0.211-0.408-0.248-0.446-0.261-0.277 0.073-1.053 0.261-1.23l3.931-3.715 1.162-0.958c0.181-0.164 0.556-0.423 0.288-0.636l-0.055-0.062-8.568-6.538-0.225-0.225h-0.902l-0.451 0.225-3.261 3.433v-12.064h25.145v6.749z"></path>
</svg>
