<!-- Generated by IcoMoon.io -->
<svg version="1.1" xmlns="http://www.w3.org/2000/svg" width="32" height="32" viewBox="0 0 32 32">
<title>xyz</title>
<path d="M27.875 8.33l-6.921-6.921c-0.158-0.158-0.362-0.317-0.611-0.475v8.007h8.007c-0.158-0.249-0.317-0.452-0.475-0.611zM19.8 11.112c-0.452 0-0.837-0.158-1.154-0.475s-0.475-0.701-0.475-1.154v-9.229h-13.571c-0.452 0-0.837 0.158-1.154 0.475s-0.475 0.701-0.475 1.154v27.143c0 0.452 0.158 0.837 0.475 1.154s0.701 0.475 1.154 0.475h22.8c0.452 0 0.837-0.158 1.154-0.475s0.475-0.701 0.475-1.154v-17.914h-9.229zM12.737 25.817c0 0.197-0.177 0.357-0.394 0.357h-1.44c-0.218 0-0.394-0.16-0.394-0.357v-12.188c0-0.197 0.177-0.357 0.394-0.357h1.44c0.218 0 0.394 0.16 0.394 0.357v12.188zM17.223 25.817c0 0.197-0.177 0.357-0.394 0.357h-1.44c-0.218 0-0.394-0.16-0.394-0.357v-12.188c0-0.197 0.177-0.357 0.394-0.357h1.44c0.218 0 0.394 0.16 0.394 0.357v12.188zM21.491 25.817c0 0.197-0.177 0.357-0.394 0.357h-1.44c-0.218 0-0.394-0.16-0.394-0.357v-12.188c0-0.197 0.177-0.357 0.394-0.357h1.44c0.218 0 0.394 0.16 0.394 0.357v12.188z"></path>
</svg>
