<!-- Generated by IcoMoon.io -->
<svg version="1.1" xmlns="http://www.w3.org/2000/svg" width="32" height="32" viewBox="0 0 32 32">
<title>zoo-project</title>
<path d="M16.080 0.829c-7.745 0-14.141 6.912-15.122 15.866h30.245c-0.982-8.954-7.378-15.866-15.123-15.866zM9.84 27.355c-0.242-0.211-0.58-0.318-1.005-0.318h-4.054l3.968-4.915c0.378-0.461 0.626-0.79 0.756-1.007 0.165-0.274 0.249-0.625 0.249-1.045 0-0.483-0.141-0.864-0.418-1.133-0.273-0.265-0.659-0.399-1.146-0.399h-5.481c-0.429 0-0.772 0.119-1.018 0.353-0.25 0.238-0.382 0.558-0.382 0.926 0 0.364 0.135 0.679 0.391 0.911 0.245 0.222 0.585 0.334 1.009 0.334h3.21l-4.294 5.346c-0.079 0.096-0.172 0.21-0.277 0.339-0.111 0.137-0.201 0.477-0.267 0.572-0.084 0.12-0.152 0.25-0.201 0.385-0.055 0.15-0.083 0.314-0.083 0.487 0 0.47 0.167 0.65 0.482 0.941 0.309 0.286 0.746 0.43 1.299 0.43h6.256c0.433 0 0.777-0.118 1.021-0.349 0.248-0.235 0.379-0.559 0.379-0.937-0-0.476-0.215-0.763-0.395-0.92zM18.029 19.069c-0.791-0.465-1.742-0.701-2.826-0.701-0.798 0-1.526 0.134-2.163 0.397-0.646 0.267-1.202 0.659-1.654 1.165-0.447 0.5-0.792 1.112-1.025 1.817-0.228 0.691-0.344 1.456-0.344 2.276 0 0.799 0.111 1.556 0.329 2.249 0.223 0.71 0.561 1.328 1.002 1.838 0.447 0.516 1.010 0.921 1.675 1.203 0.656 0.278 1.402 0.419 2.219 0.419 0.821 0 1.565-0.137 2.211-0.408 0.656-0.275 1.217-0.679 1.67-1.2 0.446-0.514 0.784-1.128 1.006-1.824 0.216-0.68 0.326-1.442 0.326-2.264 0-1.118-0.202-2.111-0.6-2.952-0.41-0.866-1.024-1.544-1.825-2.015zM13.671 26.393c-0.208-0.25-0.373-0.576-0.491-0.969-0.123-0.412-0.186-0.884-0.186-1.402 0-0.513 0.062-0.979 0.186-1.383 0.118-0.388 0.277-0.707 0.474-0.947 0.192-0.235 0.414-0.408 0.677-0.53 0.267-0.123 0.552-0.183 0.872-0.183 0.453 0 0.84 0.109 1.183 0.332 0.341 0.223 0.599 0.549 0.789 0.997 0.201 0.474 0.302 1.050 0.302 1.713 0 0.718-0.11 1.322-0.326 1.796-0.208 0.455-0.472 0.778-0.808 0.986-0.341 0.212-0.705 0.315-1.114 0.315-0.32 0-0.603-0.059-0.865-0.18-0.26-0.12-0.487-0.299-0.692-0.546zM30.513 21.083c-0.41-0.866-1.024-1.544-1.825-2.015-0.791-0.466-1.741-0.702-2.827-0.702-0.798 0-1.526 0.134-2.162 0.397-0.645 0.267-1.202 0.659-1.654 1.165-0.447 0.5-0.792 1.112-1.025 1.817-0.228 0.69-0.344 1.456-0.344 2.276 0 0.8 0.111 1.556 0.329 2.249 0.223 0.71 0.561 1.328 1.003 1.839 0.447 0.516 1.010 0.921 1.674 1.203 0.655 0.278 1.402 0.419 2.219 0.419 0.821 0 1.565-0.137 2.211-0.408 0.656-0.275 1.217-0.679 1.669-1.2 0.446-0.514 0.784-1.128 1.006-1.824 0.216-0.68 0.326-1.442 0.326-2.264 0-1.118-0.202-2.111-0.6-2.952zM24.33 26.393c-0.208-0.25-0.373-0.576-0.49-0.97-0.124-0.412-0.186-0.884-0.186-1.402 0-0.513 0.062-0.979 0.186-1.383 0.118-0.388 0.277-0.707 0.474-0.947 0.192-0.234 0.413-0.408 0.677-0.53 0.267-0.123 0.552-0.183 0.872-0.183 0.453 0 0.84 0.109 1.183 0.332 0.341 0.222 0.599 0.549 0.789 0.997 0.201 0.474 0.302 1.050 0.302 1.713 0 0.718-0.11 1.322-0.326 1.796-0.208 0.455-0.472 0.778-0.808 0.986-0.341 0.212-0.705 0.315-1.113 0.315-0.32 0-0.603-0.059-0.865-0.18-0.26-0.12-0.487-0.299-0.692-0.546z"></path>
</svg>
