<!-- Generated by IcoMoon.io -->
<svg version="1.1" xmlns="http://www.w3.org/2000/svg" width="32" height="32" viewBox="0 0 32 32">
<title>zoom-to-max-extent</title>
<path d="M21.714 13.168c0-2.202-0.783-4.086-2.348-5.652s-3.449-2.348-5.652-2.348c-2.202 0-4.086 0.783-5.652 2.348s-2.348 3.449-2.348 5.652 0.783 4.086 2.348 5.652c1.565 1.565 3.449 2.348 5.652 2.348s4.086-0.783 5.652-2.348c1.565-1.565 2.348-3.449 2.348-5.652zM30.856 28.025c0 0.619-0.226 1.155-0.679 1.607s-0.988 0.679-1.607 0.679c-0.643 0-1.179-0.226-1.607-0.679l-6.125-6.107c-2.131 1.476-4.506 2.214-7.125 2.214-1.702 0-3.33-0.33-4.884-0.991s-2.893-1.554-4.018-2.678-2.018-2.464-2.678-4.018-0.991-3.181-0.991-4.884 0.33-3.33 0.991-4.884 1.554-2.893 2.678-4.018 2.464-2.018 4.018-2.678 3.181-0.991 4.884-0.991c1.702 0 3.33 0.33 4.884 0.991s2.893 1.554 4.018 2.678 2.018 2.464 2.678 4.018 0.991 3.181 0.991 4.884c0 2.619-0.738 4.994-2.214 7.125l6.125 6.125c0.44 0.44 0.661 0.976 0.661 1.607zM18.276 8.106h-2.936c-0.183 0-0.312 0.087-0.387 0.262-0.074 0.17-0.044 0.321 0.092 0.452l0.944 0.944-2.326 2.326-2.326-2.326 0.944-0.944c0.135-0.131 0.166-0.282 0.092-0.452-0.074-0.175-0.203-0.262-0.387-0.262h-2.936c-0.114 0-0.212 0.041-0.295 0.124s-0.124 0.181-0.124 0.295v2.936c0 0.183 0.087 0.312 0.262 0.387 0.052 0.022 0.105 0.033 0.157 0.033 0.114 0 0.212-0.042 0.295-0.124l0.944-0.944 2.326 2.326-2.326 2.326-0.944-0.944c-0.131-0.135-0.282-0.166-0.452-0.092-0.175 0.074-0.262 0.203-0.262 0.387v2.936c0 0.113 0.041 0.212 0.124 0.295s0.181 0.124 0.295 0.124h2.935c0.183 0 0.312-0.087 0.387-0.262 0.074-0.17 0.044-0.321-0.092-0.452l-0.944-0.944 2.326-2.326 2.326 2.326-0.944 0.944c-0.135 0.131-0.166 0.282-0.092 0.452 0.074 0.175 0.203 0.262 0.387 0.262h2.936c0.114 0 0.212-0.041 0.295-0.124s0.124-0.181 0.124-0.295v-2.935c0-0.184-0.085-0.312-0.256-0.387-0.179-0.074-0.332-0.044-0.459 0.092l-0.944 0.944-2.326-2.326 2.326-2.326 0.944 0.944c0.083 0.083 0.181 0.124 0.295 0.124 0.052 0 0.107-0.011 0.164-0.033 0.17-0.074 0.256-0.203 0.256-0.387v-2.936c0-0.114-0.041-0.212-0.124-0.295s-0.181-0.124-0.295-0.124z"></path>
</svg>
