<!-- Generated by IcoMoon.io -->
<svg version="1.1" xmlns="http://www.w3.org/2000/svg" width="32" height="32" viewBox="0 0 32 32">
<title>zoom-next</title>
<path d="M21.714 13.168c0-2.202-0.783-4.086-2.348-5.652s-3.449-2.348-5.652-2.348c-2.202 0-4.086 0.783-5.652 2.348s-2.348 3.449-2.348 5.652 0.783 4.086 2.348 5.652c1.565 1.565 3.449 2.348 5.652 2.348s4.086-0.783 5.652-2.348c1.565-1.565 2.348-3.449 2.348-5.652zM30.856 28.025c0 0.619-0.226 1.155-0.679 1.607s-0.988 0.679-1.607 0.679c-0.643 0-1.179-0.226-1.607-0.679l-6.125-6.107c-2.131 1.476-4.506 2.214-7.125 2.214-1.702 0-3.33-0.33-4.884-0.991s-2.893-1.554-4.018-2.678-2.018-2.464-2.678-4.018-0.991-3.181-0.991-4.884 0.33-3.33 0.991-4.884 1.554-2.893 2.678-4.018 2.464-2.018 4.018-2.678 3.181-0.991 4.884-0.991c1.702 0 3.33 0.33 4.884 0.991s2.893 1.554 4.018 2.678 2.018 2.464 2.678 4.018 0.991 3.181 0.991 4.884c0 2.619-0.738 4.994-2.214 7.125l6.125 6.125c0.44 0.44 0.661 0.976 0.661 1.607zM17.793 12.498l-4.005-3.791c-0.156-0.148-0.342-0.221-0.56-0.221-0.213 0-0.398 0.074-0.554 0.221l-0.461 0.437c-0.156 0.14-0.234 0.314-0.234 0.524s0.078 0.384 0.234 0.524l1.803 1.712h-4.331c-0.213 0-0.387 0.073-0.52 0.218s-0.2 0.321-0.2 0.527v0.745c0 0.206 0.067 0.381 0.2 0.527s0.307 0.218 0.52 0.218h4.331l-1.802 1.706c-0.156 0.148-0.234 0.324-0.234 0.53s0.078 0.382 0.234 0.53l0.461 0.437c0.16 0.144 0.345 0.215 0.554 0.215 0.213 0 0.4-0.072 0.56-0.215l4.005-3.791c0.152-0.144 0.228-0.32 0.228-0.53-0-0.214-0.076-0.388-0.228-0.524z"></path>
</svg>
