<!-- Generated by IcoMoon.io -->
<svg version="1.1" xmlns="http://www.w3.org/2000/svg" width="32" height="32" viewBox="0 0 32 32">
<title>zoom-to</title>
<path d="M30.196 26.418l-6.125-6.125c1.476-2.131 2.214-4.506 2.214-7.125 0-1.702-0.33-3.33-0.991-4.884s-1.554-2.893-2.678-4.018-2.464-2.018-4.018-2.678-3.181-0.991-4.884-0.991c-1.702 0-3.33 0.33-4.884 0.991s-2.893 1.554-4.018 2.678-2.018 2.464-2.678 4.018-0.991 3.181-0.991 4.884c0 1.702 0.33 3.33 0.991 4.884s1.554 2.893 2.678 4.018 2.464 2.018 4.018 2.678 3.181 0.991 4.884 0.991c2.619 0 4.994-0.738 7.125-2.214l6.125 6.107c0.429 0.452 0.964 0.679 1.607 0.679 0.619 0 1.155-0.226 1.607-0.679s0.679-0.988 0.679-1.607c0-0.631-0.22-1.167-0.661-1.607zM19.366 18.82c-1.565 1.565-3.449 2.348-5.652 2.348s-4.086-0.783-5.652-2.348c-1.565-1.565-2.348-3.449-2.348-5.652s0.783-4.086 2.348-5.652c1.565-1.565 3.449-2.348 5.652-2.348s4.086 0.783 5.652 2.348c1.565 1.565 2.348 3.449 2.348 5.652s-0.783 4.086-2.348 5.652zM9.26 8.604h8.685v8.926h-8.685v-8.926z"></path>
</svg>
