<!-- Generated by IcoMoon.io -->
<svg version="1.1" xmlns="http://www.w3.org/2000/svg" width="32" height="32" viewBox="0 0 32 32">
<title>zoom-in</title>
<path d="M21.714 13.168c0-2.202-0.783-4.086-2.348-5.652s-3.449-2.348-5.652-2.348c-2.202 0-4.086 0.783-5.652 2.348s-2.348 3.449-2.348 5.652 0.783 4.086 2.348 5.652c1.565 1.565 3.449 2.348 5.652 2.348s4.086-0.783 5.652-2.348c1.565-1.565 2.348-3.449 2.348-5.652zM30.856 28.025c0 0.619-0.226 1.155-0.679 1.607s-0.988 0.679-1.607 0.679c-0.643 0-1.179-0.226-1.607-0.679l-6.125-6.107c-2.131 1.476-4.506 2.214-7.125 2.214-1.702 0-3.33-0.33-4.884-0.991s-2.893-1.554-4.018-2.678-2.018-2.464-2.678-4.018-0.991-3.181-0.991-4.884 0.33-3.33 0.991-4.884 1.554-2.893 2.678-4.018 2.464-2.018 4.018-2.678 3.181-0.991 4.884-0.991c1.702 0 3.33 0.33 4.884 0.991s2.893 1.554 4.018 2.678 2.018 2.464 2.678 4.018 0.991 3.181 0.991 4.884c0 2.619-0.738 4.994-2.214 7.125l6.125 6.125c0.44 0.44 0.661 0.976 0.661 1.607zM18.313 11.649h-3.235v-3.24c0-0.208-0.073-0.384-0.218-0.53s-0.321-0.218-0.529-0.218h-1.493c-0.207 0-0.384 0.073-0.529 0.218s-0.218 0.322-0.218 0.53v3.24h-3.235c-0.207 0-0.384 0.073-0.529 0.218s-0.218 0.322-0.218 0.53v1.495c0 0.208 0.073 0.384 0.218 0.53s0.321 0.218 0.529 0.218h3.235v3.24c0 0.208 0.073 0.384 0.218 0.529s0.321 0.218 0.529 0.218h1.493c0.207 0 0.384-0.073 0.529-0.218s0.218-0.322 0.218-0.529v-3.24h3.235c0.207 0 0.384-0.073 0.529-0.218s0.218-0.322 0.218-0.53v-1.495c0-0.208-0.073-0.384-0.218-0.53s-0.321-0.218-0.529-0.218z"></path>
</svg>
