<!-- Generated by IcoMoon.io -->
<svg version="1.1" xmlns="http://www.w3.org/2000/svg" width="32" height="32" viewBox="0 0 32 32">
<title>zoom-box</title>
<path d="M31.099 16.532v-16.474h-16.131v1.169c-0.492-0.058-0.991-0.088-1.496-0.088-1.702 0-3.33 0.33-4.884 0.991s-2.893 1.554-4.018 2.678-2.018 2.464-2.678 4.018-0.991 3.181-0.991 4.884 0.33 3.33 0.991 4.884 1.554 2.893 2.678 4.018 2.464 2.018 4.018 2.678 3.181 0.991 4.884 0.991c2.619 0 4.994-0.738 7.125-2.214l6.125 6.107c0.429 0.452 0.964 0.679 1.607 0.679 0.619 0 1.155-0.226 1.607-0.679s0.679-0.988 0.679-1.607c0-0.631-0.22-1.167-0.661-1.607l-6.125-6.125c0.927-1.338 1.563-2.772 1.907-4.303h5.363zM16.396 6.241c0.997 0.39 1.906 0.996 2.727 1.817 1.565 1.565 2.348 3.449 2.348 5.652 0 0.48-0.037 0.944-0.112 1.394h-4.963v-8.862zM25.052 8.826c-0.661-1.554-1.554-2.893-2.678-4.018s-2.464-2.018-4.018-2.678c-0.634-0.27-1.281-0.484-1.94-0.644h13.255v13.617h-3.7c0.048-0.457 0.072-0.921 0.072-1.394 0-1.702-0.33-3.33-0.991-4.884zM19.123 19.361c-1.565 1.565-3.449 2.348-5.652 2.348s-4.086-0.783-5.652-2.348c-1.565-1.565-2.348-3.449-2.348-5.652s0.783-4.086 2.348-5.652c1.565-1.565 3.449-2.348 5.652-2.348 0.516 0 1.015 0.043 1.496 0.129v10.693h6.012c-0.389 1.037-1.007 1.98-1.857 2.829z"></path>
</svg>
