<!-- Generated by IcoMoon.io -->
<svg version="1.1" xmlns="http://www.w3.org/2000/svg" width="32" height="32" viewBox="0 0 32 32">
<title>zoom-to-point</title>
<path d="M21.714 13.168c0-2.202-0.783-4.086-2.348-5.652s-3.449-2.348-5.652-2.348c-2.202 0-4.086 0.783-5.652 2.348s-2.348 3.449-2.348 5.652 0.783 4.086 2.348 5.652c1.565 1.565 3.449 2.348 5.652 2.348s4.086-0.783 5.652-2.348c1.565-1.565 2.348-3.449 2.348-5.652zM30.856 28.025c0 0.619-0.226 1.155-0.679 1.607s-0.988 0.679-1.607 0.679c-0.643 0-1.179-0.226-1.607-0.679l-6.125-6.107c-2.131 1.476-4.506 2.214-7.125 2.214-1.702 0-3.33-0.33-4.884-0.991s-2.893-1.554-4.018-2.678-2.018-2.464-2.678-4.018-0.991-3.181-0.991-4.884 0.33-3.33 0.991-4.884 1.554-2.893 2.678-4.018 2.464-2.018 4.018-2.678 3.181-0.991 4.884-0.991c1.702 0 3.33 0.33 4.884 0.991s2.893 1.554 4.018 2.678 2.018 2.464 2.678 4.018 0.991 3.181 0.991 4.884c0 2.619-0.738 4.994-2.214 7.125l6.125 6.125c0.44 0.44 0.661 0.976 0.661 1.607zM17.747 13.244c0 2.305-1.88 4.174-4.199 4.174s-4.199-1.869-4.199-4.174c0-2.305 1.88-4.174 4.199-4.174s4.199 1.869 4.199 4.174z"></path>
</svg>
