<!-- Generated by IcoMoon.io -->
<svg version="1.1" xmlns="http://www.w3.org/2000/svg" width="32" height="32" viewBox="0 0 32 32">
<title>zoom-previous</title>
<path d="M21.714 13.168c0-2.202-0.783-4.086-2.348-5.652s-3.449-2.348-5.652-2.348c-2.202 0-4.086 0.783-5.652 2.348s-2.348 3.449-2.348 5.652 0.783 4.086 2.348 5.652c1.565 1.565 3.449 2.348 5.652 2.348s4.086-0.783 5.652-2.348c1.565-1.565 2.348-3.449 2.348-5.652zM30.856 28.025c0 0.619-0.226 1.155-0.679 1.607s-0.988 0.679-1.607 0.679c-0.643 0-1.179-0.226-1.607-0.679l-6.125-6.107c-2.131 1.476-4.506 2.214-7.125 2.214-1.702 0-3.33-0.33-4.884-0.991s-2.893-1.554-4.018-2.678-2.018-2.464-2.678-4.018-0.991-3.181-0.991-4.884 0.33-3.33 0.991-4.884 1.554-2.893 2.678-4.018 2.464-2.018 4.018-2.678 3.181-0.991 4.884-0.991c1.702 0 3.33 0.33 4.884 0.991s2.893 1.554 4.018 2.678 2.018 2.464 2.678 4.018 0.991 3.181 0.991 4.884c0 2.619-0.738 4.994-2.214 7.125l6.125 6.125c0.44 0.44 0.661 0.976 0.661 1.607zM17.267 11.902h-4.313l1.795-1.709c0.155-0.148 0.233-0.325 0.233-0.531s-0.078-0.383-0.233-0.531l-0.46-0.432c-0.155-0.148-0.339-0.222-0.551-0.222-0.216 0-0.402 0.074-0.558 0.222l-3.989 3.791c-0.151 0.152-0.227 0.329-0.227 0.531 0 0.206 0.076 0.381 0.227 0.525l3.989 3.803c0.159 0.144 0.345 0.216 0.558 0.216 0.216 0 0.4-0.072 0.551-0.216l0.46-0.443c0.155-0.14 0.233-0.315 0.233-0.525s-0.078-0.385-0.233-0.525l-1.795-1.715h4.313c0.212 0 0.385-0.073 0.518-0.219s0.199-0.322 0.199-0.528v-0.746c0-0.206-0.066-0.382-0.199-0.528s-0.305-0.219-0.518-0.219z"></path>
</svg>
